<?xml version="1.0" encoding="utf-8"?>
<!-- Generator: Adobe Illustrator 16.0.0, SVG Export Plug-In . SVG Version: 6.00 Build 0)  -->
<!DOCTYPE svg PUBLIC "-//W3C//DTD SVG 1.1//EN" "http://www.w3.org/Graphics/SVG/1.1/DTD/svg11.dtd">
<svg version="1.1" id="Layer_1" xmlns="http://www.w3.org/2000/svg" xmlns:xlink="http://www.w3.org/1999/xlink" x="0px" y="0px"
	 width="1000px" height="1000px" viewBox="0 0 1000 1000" enable-background="new 0 0 1000 1000" xml:space="preserve">
<path fill="#D7DADD" d="M510.002,687.137c-1.326,0-2.598-0.525-3.535-1.465L391.561,570.766c-0.938-0.938-1.464-2.209-1.464-3.534
	c0-1.326,0.527-2.599,1.464-3.535l114.906-114.905c1.952-1.952,5.119-1.953,7.07,0l114.904,114.905c1.952,1.952,1.952,5.118,0,7.069
	L513.537,685.672C512.6,686.61,511.328,687.137,510.002,687.137z M402.167,567.23l107.834,107.835L617.835,567.23L510.002,459.397
	L402.167,567.23z"/>
<rect x="505.002" y="680.135" fill="#D7DADD" width="10" height="322.865"/>
</svg>
