<?xml version="1.0" encoding="utf-8"?>
<!-- Generator: Adobe Illustrator 16.0.0, SVG Export Plug-In . SVG Version: 6.00 Build 0)  -->
<!DOCTYPE svg PUBLIC "-//W3C//DTD SVG 1.1//EN" "http://www.w3.org/Graphics/SVG/1.1/DTD/svg11.dtd">
<svg version="1.1" id="Layer_1" xmlns="http://www.w3.org/2000/svg" xmlns:xlink="http://www.w3.org/1999/xlink" x="0px" y="0px"
	 width="1011px" height="169.333px" viewBox="0 0 1011 169.333" enable-background="new 0 0 1011 169.333" xml:space="preserve">
<path fill="#FFFFFF" d="M123.781,150.465c-6.238,2.74-11.673,4.615-16.304,5.633c-4.631,1.016-9.889,1.857-15.775,2.529
	c-5.886,0.67-11.69,1.004-17.415,1.004c-24.956,0-43.577-7.047-55.86-21.131C6.141,124.416,0,106.467,0,84.664
	c0-21.932,6.127-39.909,18.379-53.93c12.254-14.022,31.5-21.033,57.743-21.033c15.5,0,30.938,1.833,46.31,5.498v23.252
	c-7.398-2.572-13.444-4.453-18.137-5.644c-4.698-1.19-9.152-2.074-13.363-2.653c-4.215-0.579-8.41-0.869-12.59-0.869
	c-16.401,0-28.301,5.274-35.697,15.821c-7.397,10.55-11.096,23.607-11.096,39.171c0,16.338,4.197,29.557,12.59,39.654
	c8.393,10.1,20.887,15.145,37.482,15.145c13.829,0,27.882-3.502,42.162-10.514v21.902H123.781z"/>
<path fill="#FFFFFF" d="M141.087,13.272h29.715v87.572c0,15.834,2.684,26.326,8.058,31.475c5.37,5.15,12.333,7.723,20.887,7.723
	c8.426,0,15.131-2.541,20.116-7.625c4.984-5.086,7.478-14.9,7.478-29.449V13.272h25.855v87.699c0,16.531-2.075,28.383-6.223,35.551
	c-4.15,7.174-10.148,12.818-17.995,16.934c-7.847,4.115-17.785,6.176-29.811,6.176c-11.835,0-21.997-1.914-30.487-5.742
	c-8.49-3.826-15.213-9.518-20.165-17.078c-4.954-7.555-7.429-19.598-7.429-36.129L141.087,13.272L141.087,13.272z"/>
<path fill="#FFFFFF" d="M275.249,156.062V13.272h48.226c11.631,0,20.245,1.303,25.837,3.908c5.593,2.604,9.971,6.463,13.136,11.576
	c3.162,5.114,4.743,10.532,4.743,16.257c0,7.205-2.485,14.07-7.461,20.599c-4.975,6.529-13.88,11.817-26.717,15.871
	c10.208,2.507,18.025,5.628,23.452,9.357c5.425,3.73,9.534,8.167,12.328,13.316c2.792,5.146,4.19,10.678,4.19,16.592
	c0,6.432-1.649,12.43-4.94,17.994c-3.294,5.562-7.817,9.84-13.572,12.832c-5.754,2.99-14.609,4.484-26.566,4.484h-52.655V156.062z
	 M303.806,72.703h6.355c8.976,0,15.692-2.233,20.149-6.705c4.455-4.47,6.683-9.92,6.683-16.354c0-3.409-0.664-6.367-1.99-8.875
	c-1.328-2.509-3.636-4.453-6.923-5.837c-3.288-1.383-9.61-2.074-18.965-2.074h-5.311v39.844H303.806z M303.806,135.801h5.704
	c10.325,0,17.358-0.678,21.094-2.025c3.739-1.354,6.558-3.537,8.458-6.561c1.903-3.025,2.854-6.367,2.854-10.037
	c0-7.07-3.114-13.07-9.337-17.988c-6.222-4.922-14.105-7.382-23.651-7.382h-5.123V135.801z"/>
<path fill="#FFFFFF" d="M389.765,156.062V13.272h91.464v19.683h-61.747v39.75h51.038v19.683h-51.038v43.416h66.281v20.26H389.765
	L389.765,156.062z"/>
<path fill="#FFFFFF" d="M500.593,156.062V13.272h26.198l66.035,97.541V13.272h23.832v142.791H590l-65.578-97.542v97.542H500.593z"/>
<path fill="#FFFFFF" d="M639.959,156.062V13.272h61.465c16.461,0,29.277,2.639,38.443,7.912c9.162,5.275,16.461,13.041,21.902,23.3
	c5.436,10.259,8.15,22.656,8.15,37.191c0,14.214-2.59,26.919-7.764,38.11c-5.182,11.191-12.721,20.037-22.627,26.531
	c-9.904,6.494-23.477,9.746-40.715,9.746H639.959z M669.678,135.801h22.189c11.58,0,20.436-1.801,26.58-5.402
	c6.145-3.604,10.998-9.697,14.566-18.283c3.572-8.588,5.357-18.154,5.357-28.703c0-10.098-1.738-19.038-5.213-26.82
	c-3.471-7.781-8.279-13.682-14.42-17.704c-6.145-4.02-16.514-6.03-31.115-6.03h-17.945V135.801L669.678,135.801z"/>
<path fill="#FFFFFF" d="M784.154,156.062V13.272h91.463v19.683h-61.744v39.75h51.039v19.683h-51.039v43.416h66.279v20.26H784.154
	L784.154,156.062z"/>
<path fill="#FFFFFF" d="M894.982,156.062V13.272h53.451c10.936,0,19.264,1.367,24.986,4.1s10.244,6.882,13.559,12.446
	c3.309,5.564,4.967,11.852,4.967,18.861c0,8.362-2.414,16.258-7.236,23.685c-4.824,7.43-11.643,13.107-20.455,17.028l46.746,66.67
	h-36.195l-35.508-58.373h-16.334v58.373H894.982z M922.963,78.105h6.832c12.271,0,20.74-2.668,25.418-8.007
	c4.678-5.337,7.016-11.383,7.016-18.138c0-5.852-1.904-10.5-5.709-13.941c-3.807-3.44-11.541-5.162-23.211-5.162h-10.35v45.248
	H922.963z"/>
</svg>
