<?xml version="1.0" encoding="utf-8"?>
<!-- Generator: Adobe Illustrator 16.0.0, SVG Export Plug-In . SVG Version: 6.00 Build 0)  -->
<!DOCTYPE svg PUBLIC "-//W3C//DTD SVG 1.1//EN" "http://www.w3.org/Graphics/SVG/1.1/DTD/svg11.dtd">
<svg version="1.1" id="Layer_1" xmlns="http://www.w3.org/2000/svg" xmlns:xlink="http://www.w3.org/1999/xlink" x="0px" y="0px"
	 width="715.797px" height="117.047px" viewBox="114.167 0 715.797 117.047" enable-background="new 114.167 0 715.797 117.047"
	 xml:space="preserve">
<g>
	<path fill="#FFFFFF" d="M202.854,101.007c-4.028,1.768-7.537,2.979-10.527,3.638c-2.99,0.655-6.385,1.199-10.185,1.632
		c-3.8,0.432-7.548,0.648-11.244,0.648c-16.113,0-28.136-4.549-36.067-13.644c-7.933-9.094-11.898-20.681-11.898-34.759
		c0-14.161,3.956-25.768,11.867-34.821c7.912-9.053,20.338-13.58,37.282-13.58c10.008,0,19.975,1.184,29.9,3.55v15.013
		c-4.776-1.661-8.68-2.875-11.71-3.644c-3.033-0.768-5.909-1.339-8.628-1.713c-2.721-0.374-5.43-0.561-8.129-0.561
		c-10.589,0-18.273,3.405-23.048,10.215c-4.776,6.812-7.164,15.242-7.164,25.291c0,10.549,2.71,19.083,8.129,25.603
		c5.419,6.521,13.486,9.779,24.201,9.779c8.928,0,18.002-2.262,27.222-6.789V101.007z"/>
	<path fill="#FFFFFF" d="M218.8,12.427h19.186v56.542c0,10.223,1.733,16.998,5.202,20.322c3.467,3.325,7.963,4.987,13.486,4.987
		c5.44,0,9.77-1.641,12.988-4.925c3.218-3.283,4.828-9.621,4.828-19.014V12.427h16.694V69.05c0,10.674-1.34,18.326-4.018,22.955
		c-2.679,4.631-6.552,8.275-11.618,10.933c-5.067,2.657-11.483,3.987-19.248,3.987c-7.642,0-14.203-1.236-19.685-3.707
		c-5.481-2.471-9.822-6.146-13.02-11.026c-3.198-4.879-4.796-12.655-4.796-23.328V12.427z"/>
	<path fill="#FFFFFF" d="M313.485,104.62V12.427h31.138c7.51,0,13.071,0.841,16.682,2.523c3.611,1.682,6.438,4.173,8.481,7.475
		c2.042,3.301,3.063,6.8,3.063,10.496c0,4.652-1.605,9.085-4.818,13.3c-3.212,4.215-8.962,7.63-17.25,10.247
		c6.591,1.619,11.638,3.634,15.142,6.042c3.503,2.408,6.156,5.273,7.96,8.597c1.803,3.322,2.705,6.894,2.705,10.713
		c0,4.153-1.064,8.026-3.19,11.617c-2.126,3.593-5.046,6.355-8.762,8.286s-9.433,2.896-17.154,2.896H313.485z M331.924,50.799h4.103
		c5.795,0,10.132-1.442,13.009-4.329c2.877-2.886,4.316-6.405,4.316-10.559c0-2.201-0.429-4.111-1.286-5.73
		c-0.857-1.62-2.347-2.875-4.469-3.769c-2.123-0.893-6.205-1.339-12.245-1.339h-3.429V50.799z M331.924,91.539h3.682
		c6.667,0,11.208-0.437,13.621-1.309c2.414-0.872,4.234-2.282,5.461-4.235c1.228-1.953,1.842-4.111,1.842-6.479
		c0-4.567-2.01-8.44-6.028-11.616c-4.018-3.178-9.108-4.766-15.271-4.766h-3.307V91.539z"/>
	<path fill="#FFFFFF" d="M393.842,104.62V12.427h59.054v12.708h-39.867v25.665h32.953v12.708h-32.953v28.032h42.795v13.081H393.842z
		"/>
	<path fill="#FFFFFF" d="M470.462,104.62V12.427h16.914l42.638,62.978V12.427H545.4v92.193h-17.212l-42.34-62.978v62.978H470.462z"
		/>
	<path fill="#FFFFFF" d="M568.51,104.62V12.427h39.682c10.629,0,18.905,1.704,24.823,5.108c5.917,3.406,10.63,8.42,14.141,15.044
		c3.509,6.624,5.263,14.628,5.263,24.013c0,9.178-1.672,17.38-5.014,24.606c-3.344,7.226-8.213,12.937-14.608,17.13
		c-6.396,4.194-15.158,6.292-26.287,6.292H568.51z M587.696,91.539h14.327c7.476,0,13.195-1.163,17.163-3.488
		c3.965-2.326,7.101-6.261,9.404-11.805c2.306-5.544,3.458-11.721,3.458-18.532c0-6.52-1.121-12.292-3.364-17.317
		c-2.242-5.024-5.347-8.834-9.312-11.431c-3.966-2.595-10.662-3.893-20.089-3.893h-11.587V91.539z"/>
	<path fill="#FFFFFF" d="M669.673,104.62V12.427h59.054v12.708h-39.867v25.665h32.954v12.708h-32.954v28.032h42.795v13.081H669.673z
		"/>
	<path fill="#FFFFFF" d="M746.293,104.62V12.427h34.511c7.06,0,12.437,0.882,16.133,2.647c3.695,1.765,6.614,4.444,8.753,8.036
		c2.138,3.592,3.208,7.652,3.208,12.178c0,5.399-1.558,10.497-4.672,15.292c-3.115,4.797-7.517,8.463-13.207,10.994L821.2,104.62
		h-23.369l-22.925-37.688h-10.548v37.688H746.293z M764.358,54.287h4.414c7.92,0,13.389-1.723,16.41-5.17
		c3.019-3.446,4.529-7.35,4.529-11.711c0-3.778-1.229-6.779-3.686-9.001c-2.457-2.221-7.451-3.333-14.986-3.333h-6.682V54.287z"/>
</g>
</svg>
