<?xml version="1.0" encoding="utf-8"?>
<!-- Generator: Adobe Illustrator 16.0.0, SVG Export Plug-In . SVG Version: 6.00 Build 0)  -->
<!DOCTYPE svg PUBLIC "-//W3C//DTD SVG 1.1//EN" "http://www.w3.org/Graphics/SVG/1.1/DTD/svg11.dtd">
<svg version="1.1" id="Layer_1" xmlns="http://www.w3.org/2000/svg" xmlns:xlink="http://www.w3.org/1999/xlink" x="0px" y="0px"
	 width="1000px" height="1000px" viewBox="0 0 1000 1000" enable-background="new 0 0 1000 1000" xml:space="preserve">
<radialGradient id="SVGID_1_" cx="490.7725" cy="779.3643" r="303.1157" gradientTransform="matrix(1.1491 0 0 0.5 -97.7191 396.2972)" gradientUnits="userSpaceOnUse">
	<stop  offset="0.4585" style="stop-color:#231F20"/>
	<stop  offset="0.6354" style="stop-color:#161414;stop-opacity:0.6734"/>
	<stop  offset="1" style="stop-color:#000000;stop-opacity:0"/>
</radialGradient>
<ellipse opacity="0.7" fill="url(#SVGID_1_)" cx="466.25" cy="785.98" rx="466.25" ry="144.52"/>
<linearGradient id="SVGID_2_" gradientUnits="userSpaceOnUse" x1="770.6543" y1="643.3291" x2="770.6543" y2="643.3291">
	<stop  offset="0.0606" style="stop-color:#231F20"/>
	<stop  offset="0.6424" style="stop-color:#000000;stop-opacity:0"/>
</linearGradient>
<path fill="url(#SVGID_2_)" d="M770.654,643.329"/>
<polygon fill="#54BE9C" points="505.699,8.715 637.638,112 522.182,192.648 387.807,86.046 "/>
<polygon fill="#54BE9C" points="522.182,192.648 664.275,305.378 553.88,387.037 407.699,272.748 "/>
<polygon fill="#54BE9C" points="777.591,221.56 914.166,328.474 803.372,415.729 664.275,305.378 "/>
<polygon fill="#459D7E" points="914.166,328.474 855.232,457.757 757.564,538.212 803.372,415.729 "/>
<polygon fill="#459D7E" points="806.966,563.641 770.654,643.329 697.218,699.279 724.475,626.475 "/>
<polygon fill="#459D7E" points="757.564,538.212 658.285,619.936 633.669,695.646 724.475,626.475 "/>
<polygon fill="#358064" points="574.03,551.661 658.114,620.175 633.669,695.646 574.755,637.369 "/>
<polygon fill="#358064" points="407.699,272.748 553.88,387.037 546.6,438.8 393.264,373.526 "/>
<polygon fill="#333433" points="637.638,112 777.591,221.56 664.275,305.378 522.182,192.648 "/>
<polygon fill="#333433" points="387.807,86.046 522.182,192.648 407.708,272.608 268.963,164 "/>
<polygon fill="#0F1010" points="258.066,262.559 268.963,164 407.699,272.748 399.709,327.041 "/>
<polygon fill="#333433" points="664.275,305.378 803.372,415.729 697.273,499.284 553.88,387.037 "/>
<polygon fill="#171818" points="855.232,457.757 806.966,563.641 724.475,626.475 757.564,538.212 "/>
<polyline fill="#191818" points="697.273,499.284 658.114,620.175 757.564,538.212 803.372,415.729 "/>
<polygon fill="#191818" points="724.475,626.475 697.218,699.279 611.286,764.747 633.669,695.646 "/>
<polygon fill="#231F20" points="633.669,695.646 616.388,748.998 565.858,697.835 586.574,648.975 "/>
<polygon fill="#191818" points="697.273,499.284 658.285,619.936 577.489,554.694 525.365,517.952 543.933,457.757 553.882,387.036 
	"/>
<polygon fill="#358064" points="34,307.612 161.335,356.165 203.173,502.77 83.027,457.419 "/>
<polygon fill="#358064" points="298.908,409.338 404.975,450.336 440.624,592.401 332.899,551.738 "/>
<polygon fill="#358064" points="203.173,502.77 332.899,551.738 370.432,708.971 246.902,656.004 "/>
<polygon fill="#358064" points="370.432,708.971 481.858,756.724 519.85,908.128 404.124,850.115 "/>
<polygon fill="#358064" points="130.382,606.043 246.902,656.004 285.299,790.554 171.557,733.535 "/>
<polygon fill="#191818" points="161.335,356.165 298.908,409.338 332.899,551.738 203.173,502.77 "/>
<polygon fill="#191818" points="332.899,551.738 440.624,592.401 481.858,756.724 370.432,708.971 "/>
<polygon fill="#191818" points="83.027,457.419 203.173,502.77 246.902,656.004 130.382,606.043 "/>
<polygon fill="#191818" points="246.902,656.004 370.432,708.971 404.124,850.115 285.299,790.554 "/>
<polygon fill="#459D7E" points="34,307.612 175.09,218.817 302.952,265.808 161.335,356.165 "/>
<polygon fill="#333433" points="302.952,265.808 435.723,314.813 298.908,409.338 161.335,356.165 "/>
<polygon fill="#54BE9C" points="519.85,908.128 647.871,812.134 615.679,662.237 481.858,756.724 "/>
<polygon fill="#343434" points="440.624,592.401 580.723,499.47 615.679,662.237 481.858,756.724 "/>
<polygon fill="#54BE9C" points="404.975,450.336 550.134,357.041 580.723,499.47 440.624,592.401 "/>
<polygon fill="#459D7E" points="298.908,409.338 435.723,314.813 550.134,357.041 404.975,450.336 "/>
</svg>
