<?xml version="1.0" encoding="utf-8"?>
<!-- Generator: Adobe Illustrator 19.0.1, SVG Export Plug-In . SVG Version: 6.00 Build 0)  -->
<!DOCTYPE svg PUBLIC "-//W3C//DTD SVG 1.1//EN" "http://www.w3.org/Graphics/SVG/1.1/DTD/svg11.dtd">
<svg version="1.1" id="Layer_1" xmlns="http://www.w3.org/2000/svg" xmlns:xlink="http://www.w3.org/1999/xlink" x="0px" y="0px"
	 viewBox="50 50 300 300" enable-background="new 0 0 400 400" xml:space="preserve">
	 <defs>
    <style>
      g {
        fill: #6db6aa;
      }
    </style>
  </defs>
<g>
	<path fill-rule="evenodd" clip-rule="evenodd" d="M315.8,220.5c-77.1,0-154.2,0-231.3,0c-0.3,0-0.6-0.1-0.9,0
		c-0.3,0.1-0.6,0.2-1,0.4c0,0.2,0,0.4,0,0.6c0.5,0,1,0,1.6,0c77.3,0,154.6,0,231.9,0c0.5,0,1,0,1.4,0c0-0.4,0-0.7,0-1
		C316.9,220.5,316.3,220.5,315.8,220.5z"/>
	<path fill-rule="evenodd" clip-rule="evenodd" d="M158.1,230.8c-2.2,1.2-3.1,4-2,6.2c1.2,2.4,4,3.4,6.2,2.3
		c0.9-0.4,0.9-0.5,0.7-1.6c-1.8,1.3-6.2,1.1-6.2-3.1c0-1.9,2.1-3.4,3.6-3.4c1.5,0,3.3,0.9,3.3,2.5c0,2.2,0,4.4,0,6.5
		c0,1.1-0.7,2.2-1.9,2.4c-1.2,0.2-2.4,0.2-3.6,0.3c0,0-0.7,0-0.9,0.1c-0.1,0-0.1,0.8-0.1,0.9c0.3,0.2,3.2,0.1,3.4,0.1
		c3,0,4.3-1.7,4.3-3.6c0-2.3,0-4.5,0-6.8C164.9,230.5,160.6,229.4,158.1,230.8z"/>
	<path fill-rule="evenodd" clip-rule="evenodd" d="M175.6,230.5c0,1.6,0,3.1,0,4.7c0,0.7-0.1,1.4-0.4,2c-0.7,1.4-2.3,2-3.9,1.6
		c-1.3-0.3-2-1.4-2-3.1c0-1.8,0-3.6,0-5.4c-0.9-0.1-1.2,0.2-1.2,1c0,1.5,0,3,0,4.5c0,0.6,0.1,1.2,0.2,1.7c0.5,1.5,1.5,2.4,4,2.4
		c1,0,2.4-0.1,3.2-0.9c0,2.9-0.7,3.4-2,3.7c-1.2,0.2-2.5,0.2-3.7,0.2c-0.9,0-1,0.4-1.1,1.1c0.9,0,3.2,0,3.4,0
		c2.4-0.2,4.2-0.6,4.6-2.9c0.2-1,0.1-2.9,0.2-3.9c0-2.3-0.1-4.6-0.1-7C176.3,230.2,175.9,230.4,175.6,230.5z"/>
	<path fill-rule="evenodd" clip-rule="evenodd" d="M175.7,212.8c0-14.6,0-29.2,0-43.8c0-0.8,0-1.7,0-2.5c0-0.6,0.2-0.9,0.8-0.9
		c5.8,0.2,11.6-0.5,17.3,0.8c3.3,0.8,5.7,3.6,6,6.9c0.2,1.9-0.7,3.5-1.6,5.2c-1,1.8-2.5,2.8-4.3,3c-2.7,0.3-5.5,0.4-8.2,0.4
		c-2.1,0.1-4.2,0-6.3,0c-0.3,0-0.6,0-1,0.1c0,2,0,3.9,0,5.9c0.2,0,0.4,0,0.6,0c4.8,0.1,9.5,0.1,14.3,0.2c2.9,0.1,5.7,0.9,7.7,3.3
		c1.5,1.8,2.2,3.9,2.4,6.1c0.2,2.6-1,4.7-2.4,6.7c-1.1,1.6-2.8,2.5-4.5,2.9c-2.6,0.7-5.4,0.7-8.1,0.8c-2.9,0.1-5.9,0-8.8,0
		c-0.4,0-0.7,0-1,0c-0.1,1.9-0.2,3.6-0.3,5.3c0,0.2,0.3,0.6,0.5,0.6c0.5,0.1,1.1,0.1,1.6,0c5-0.1,10.1-0.2,15.1-0.4
		c5.4-0.2,9.2-3.2,12-7.6c1.9-2.9,2.3-6.2,2.1-9.6c-0.2-3.4-1.4-6.3-3.7-8.8c-1.3-1.4-2.8-2.3-4.5-3c-0.7-0.3-0.7-0.6-0.2-1.1
		c0.8-0.7,1.6-1.5,2.3-2.3c1-1.1,1.7-2.4,2.1-3.9c0.8-3,0.5-6-0.7-8.8c-1.3-3.2-3.5-5.7-6.7-7.3c-2.4-1.2-5.1-1.6-7.7-1.6
		c-6.6-0.1-13.3,0-19.9,0c-0.4,0-0.7,0-1.1,0c0,18.2,0,36.3,0,54.5c2.1,0,4.1,0,6.2,0C175.7,213.6,175.7,213.2,175.7,212.8z"/>
	<path fill-rule="evenodd" clip-rule="evenodd" d="M220.4,186.6c-1.2,1-2.4,2-3.4,3.1c-2.8,3-3.4,6.7-3,10.6c0.3,3.2,1.7,6,3.7,8.5
		c2.4,2.8,5.6,4.2,9.1,4.9c1.9,0.4,3.8,0.4,5.7,0.4c4.7,0.1,9.4,0,14.1,0c0.8,0,1-0.5,0.9-1.2c-0.1-0.8-0.2-1.6-0.2-2.4
		c0-0.9,0-1.8,0-2.7c-5,0-9.9,0.1-14.7,0c-1.8,0-3.7-0.3-5.5-0.6c-5-1-7.4-6.8-6.6-10.4c0.7-3.2,2.8-5.5,4.4-6.3
		c1.8-1,3.8-1.2,5.8-1.3c5.2,0,10.3,0,15.5,0c0.4,0,0.7,0,1.1,0c0-2.1,0-4.1,0-6.2c-0.9,0.1-1.6,0.2-2.3,0.1
		c-5.2-0.1-10.5,0.1-15.7-0.4c-5.8-0.5-8.9-5.5-7.8-10.6c0.2-0.7,1.1-6.7,11.8-6.7c4.3-0.1,8.7,0,13,0c0.4,0,0.7,0,1,0
		c0-2.1,0-4,0-6c-4.7,0-9.2,0-13.8,0c-2.6,0-5.1,0.2-7.7,0.8c-3.8,0.9-6.8,3.1-8.7,6.4c-2.1,3.6-3,7.5-1.7,11.6c0.9,2.9,2,5.7,5,7.1
		C221.1,185.8,220.9,186.2,220.4,186.6z"/>
	<path fill-rule="evenodd" clip-rule="evenodd" d="M278.8,196.6c1.6,4.3,4.1,8,7.6,11.1c7.4,6.6,19.8,8.4,26.7,5.7
		c0-2.1,0-4.2,0-6.4c-0.2,0-0.2-0.1-0.3,0c-3,1.2-6.2,1.9-9.5,1.7c-2.1-0.1-4.2-0.6-6.1-1.3c-3.4-1.4-6.3-3.5-8.6-6.4
		c-3.9-4.9-5.7-10.4-5-16.6c0.4-3.8,1.6-7.2,3.9-10.1c1.4-1.9,3.3-3.5,5-5.1c6.5-5.2,16-3.3,20-2.4c0.2,0.1,0.4,0,0.6,0.1
		c0-2,0-3.8,0-5.7c0-0.6-0.2-0.8-0.8-1c-3.3-1-6.7-1.4-10.2-1.1c-4.5,0.5-8.5,2-12.3,4.3c-2.5,1.6-4.6,3.6-6.6,5.9
		c-2.1,2.5-3.6,5.2-4.7,8.2c-1.4,3.7-2,7.6-1.5,11.6C277.4,191.6,277.9,194.2,278.8,196.6z"/>
	<path fill-rule="evenodd" clip-rule="evenodd" d="M251.8,214.4c10.6,0.2,18.6-1,21.4-9.8c1.1-4.2,1.2-8.3-1.1-12.1
		c-2.2-3.7-4.6-7.2-7-10.8c-1.6-2.5-3.3-5-3.9-7.9c-0.7-3.4,1.1-6.5,3.9-7.9c2.2-1.1,4.6-1.4,7-0.8c0.7,0.2,1.5,0.2,2.4,0.3
		c0-1.9,0-3.7,0-5.4c0-0.3-0.4-0.8-0.6-0.8c-2.3-0.3-4.5-0.7-6.9-0.3c-3,0.5-5.6,1.7-7.9,3.7c-2.1,1.9-3.3,4.2-4,6.8
		c-0.4,1.9-0.6,3.8-0.1,5.7c0.6,2.6,1.8,5.1,3.3,7.3c2.5,3.8,5.1,7.5,7.6,11.4c1.7,2.7,2.2,5.7,1.3,8.7c-1.2,4-4.4,5.8-8.3,5.9
		c-2.4,0.1-4.8-0.4-7.2-0.6c-0.4,0-1-0.2-0.9,0.6c0.1,1.6,0.2,3.2,0.2,4.9C250.9,214.1,251.1,214.3,251.8,214.4z"/>
	<path fill-rule="evenodd" clip-rule="evenodd" d="M110.7,214.3c0-1.4,0-1.6,0-3.1c0-1.2,1.1-2,2.7-2c2.6,0,5.5-1.5,6.6-4
		c0.9-1.5,1-5.3,1-6.9c0-2-1-5.2-2-7.1c-1-1.9-1.9-3.1-2.6-5.3c-1.1-0.9-2.5-2.6-3.1-4.2c-1.3-1.1-2.1-2.9-3-4.2
		c-1.4,1.4-2,3.5-3.8,4.6c-0.1,0.1-0.3,0.2-0.3,0.4c-0.7,1.8-1.4,3.6-3,4.8c-0.1,0.1-0.1,0.2-0.1,0.3c-0.3,0.8-0.6,1.6-0.9,2.4
		c-0.4,1-1.2,2-1.3,3c-0.3,2.1-0.5,3.3-0.5,5.4c0,2.1,0.6,5.2,1.8,7.2c1.3,2.1,3.3,3.3,5.6,3.7c1.5,0.2,2.1,0.6,2.1,2
		c0,1,0,2.1,0,3.1C110,214.3,110.4,214.3,110.7,214.3z"/>
	<path fill-rule="evenodd" clip-rule="evenodd" d="M103.2,162.3c0.3,0.1,0.6,0.3,0.9,0.5c-6.2,0.6-10.4,4.3-14.7,8
		c5-3.2,10.1-6.2,16.8-4.8c-0.5,0.5-0.8,1-1.1,1.1c-1.2,0.4-2.6,0.6-3.8,1.1c-1.8,0.9-3.4,2-5.1,3.1c-1.3,0.9-2.5,2.1-3.8,3.1
		c0.1,0.1,0.1,0.1,0.2,0.2c0.3-0.2,0.6-0.4,0.8-0.5c4.2-2.6,8.3-5.3,13.6-4.6c0.5,0.1,1.1,0,1,0.7c0,0.2-0.5,0.5-0.8,0.7
		c-1.2,0.5-2.4,0.7-3.5,1.3c-1.5,0.8-2.8,1.8-4.2,2.8c-0.4,0.2-0.7,0.5-1.1,0.8c-1,0.8-2,1.6-2.9,2.3c2.1-1,4.1-2.1,6.1-3.1
		c2.3-1.2,4.8-1.7,7.3-1.8c2.3-0.1,4.4,0.6,6.6,1.5c2.8,1.1,5.2,2.9,7.2,5.1c1.6,1.8,3.2,3.7,4.7,5.5c1.2,1.4,2.4,2.9,3.6,4.3
		c2.2,2.8,4.5,5.3,7.4,7.3c2.2,1.5,4.6,2.3,7.1,2.4c2.2,0.1,4.4-0.7,6.5-1.7c3-1.4,5.7-3.2,8.2-5.3c1-0.8,2-1.8,2.9-2.7
		c-0.3-0.1-0.6,0-0.7,0.1c-2.8,2.2-5.8,4.2-9.2,5.5c-1.4,0.5-2.8,1.2-4.3,1.4c-1.8,0.2-3.6,0-5.5-0.2c-0.5,0-1.2-0.2-1.3-1
		c7.6-0.3,12.7-5.1,17.9-9.9c-0.2,0.1-0.4,0.1-0.5,0.2c-1.2,0.9-2.3,1.8-3.5,2.6c-2,1.2-4,2.4-6.1,3.3c-3.3,1.4-6.8,1.7-10.3,0.8
		c-0.3-0.1-0.6-0.4-0.8-0.5c0-0.1,0.1-0.2,0.1-0.3c7.8-0.1,13-5.1,18.3-10c-0.5,0.2-0.9,0.6-1.4,0.9c-2.1,1.4-4,3-6.2,4.1
		c-2.1,1.1-4.3,1.9-6.7,2.2c-2.5,0.3-4.9,0.2-7.3-0.6c0.3-0.3,0.6-0.5,1-0.6c0.5-0.1,1.1,0,1.7-0.1c2.8-0.5,5.4-1.6,7.8-3.1
		c2.9-1.7,5.3-4,7.7-6.4c-0.2,0-0.4,0-0.5,0.1c-1,0.8-1.8,1.7-2.9,2.3c-2.6,1.4-5.2,2.8-7.9,3.9c-2.4,1-4.9,1.1-7.5,0.7
		c-5.2-0.8-9.1-3.9-12.7-7.4c-1.4-1.4-2.6-3-3.9-4.5c-1.7-2-3.4-3.9-5-5.9c-2-2.4-4-4.7-6.7-6.2c-3.3-1.9-6.7-2.5-10.3-1.1
		c-2.6,1-5,2.5-7.2,4.3c-1,0.8-1.9,1.6-2.9,2.5c2.3-1.1,4.5-2.4,6.7-3.5C96.1,161.9,99.6,161.5,103.2,162.3z"/>
	<path fill-rule="evenodd" clip-rule="evenodd" d="M94.4,232.8c2.1-2.4,1.4-5.4-1.8-6c-1.9-0.4-3.5-0.2-5.4-0.2
		c-0.7,0-0.9,0.6-0.9,0.9c0,4,0,8,0,11.9c0,0.2,0.1,0.4,0.1,0.6c0.5,0,0.9,0,1.3,0c0-3.3,0-6.5,0-9.7c0-2.6-0.1-2.5,2.6-2.5
		c0.9,0,3.8-0.1,3.8,2.1c0,1.6-0.8,2.4-1.7,2.4c-1.2,0-2.4-0.1-3.7-0.1c0,0.3,0,0.7,0,1.2c0.8,0,1.7,0,2.2,0c1,0.1,4.3,0.1,4.3,2.9
		c0,2.8-4.2,2.3-5.4,2.3c-1.3,0-1.3,0-1.1,1.4c1.3,0,2.6,0.1,3.9,0c3-0.4,4.7-2.9,3.6-5.4C96,233.8,95.3,233.3,94.4,232.8z"/>
	<path fill-rule="evenodd" clip-rule="evenodd" d="M116.2,229.5c-0.3,1.3-0.1,2.5,1.1,3.3c0.6,0.4,0.3,0.7-0.1,0.9
		c-1.1,0.7-1.5,1.9-1.4,3c0.2,1.5,1,2.8,2.5,3.1c1.9,0.3,3.8,0.3,5.7,0.4c0-0.6,0-1,0-1.5c-1.4,0-2.8-0.1-4.1,0
		c-1.8,0.1-2.7-1.4-2.7-2.6c0-1.4,1.1-2.3,2.6-2.3c1.4,0,2.9,0,4.3,0c0-0.5-0.1-0.9-0.1-1.4c-1.4,0-2.8,0-4.2,0
		c-1.3,0-2.3-1-2.3-2.2c-0.1-1.3,0.6-2.1,2-2.3c0.7-0.1,1.4-0.1,2.1-0.2c0.9,0,1.7,0,2.6,0c0-0.5,0-0.9,0-1.4
		c-1.8,0.1-3.6,0.1-5.3,0.4C117.5,227.1,116.5,228.1,116.2,229.5z"/>
	<path fill-rule="evenodd" clip-rule="evenodd" d="M147.1,231.8c-1.8-2-4.3-2.3-6.9-0.6c-2.3,1.6-2.8,5.3-1,7.4
		c2,2.2,4.9,2.3,7.7,0.9c0,0,0.1,0,0.1-0.1c-0.1-0.2-0.2-0.6-0.4-0.9c-3,1.2-4.8,1.1-5.8-0.3c2.2-1.8,4.5-3.7,6.7-5.5
		C147.5,232.3,147.3,232,147.1,231.8z M140.7,236.8c-0.6,0.5-0.8,0.2-1.1-0.4c-0.7-1.8,0.1-3.7,1.6-4.7c2.2-1.1,3.7-0.3,4.7,0.7
		C145.6,232.9,142.1,235.7,140.7,236.8z"/>
	<path fill-rule="evenodd" clip-rule="evenodd" d="M216.5,231.8c-1.8-2-4.3-2.3-6.9-0.6c-2.3,1.6-2.8,5.3-1,7.4
		c2,2.2,4.9,2.3,7.7,0.9c0,0,0.1,0,0.1-0.1c-0.1-0.2-0.2-0.6-0.4-0.9c-3,1.2-4.8,1.1-5.8-0.3c2.2-1.8,4.5-3.7,6.7-5.5
		C216.8,232.3,216.7,232,216.5,231.8z M210.1,236.8c-0.6,0.5-0.8,0.2-1.1-0.4c-0.7-1.8,0.1-3.7,1.6-4.7c2.2-1.1,3.7-0.3,4.7,0.7
		C215,232.9,211.4,235.7,210.1,236.8z"/>
	<path fill-rule="evenodd" clip-rule="evenodd" d="M248.1,231.8c-1.8-2-4.3-2.3-6.9-0.6c-2.3,1.6-2.8,5.3-1,7.4
		c2,2.2,4.9,2.3,7.7,0.9c0,0,0.1,0,0.2-0.1c-0.1-0.2-0.2-0.6-0.4-0.9c-3,1.2-4.8,1.1-5.8-0.3c2.2-1.8,4.5-3.7,6.7-5.5
		C248.5,232.3,248.3,232,248.1,231.8z M241.7,236.8c-0.6,0.5-0.8,0.2-1.1-0.4c-0.7-1.8,0.1-3.7,1.6-4.7c2.2-1.1,3.7-0.3,4.7,0.7
		C246.6,232.9,243,235.7,241.7,236.8z"/>
	<path fill-rule="evenodd" clip-rule="evenodd" d="M108.5,230.1c-2.9,0-5.3,2.3-5.3,5.2c0,2.7,2.3,5.1,5.1,5c2.9,0,5.2-2.4,5.1-5.3
		C113.5,232.3,111.1,230.1,108.5,230.1z M108.5,239.1c-2.3,0-4-1.8-4-4.1c0-2.1,1.6-3.8,3.7-3.8c2.1,0,3.9,1.8,3.9,4
		C112.1,237.4,110.5,239.2,108.5,239.1z"/>
	<path fill-rule="evenodd" clip-rule="evenodd" d="M260.2,236.9c-1.6-2.1-1.9-4.4-0.7-6.4c1.6-2.7,4.1-3.2,6.9-2.4
		c0-0.5,0-0.9,0-1.4c-1.8-0.7-3.5-0.3-5.2,0.6c-3,1.5-4.3,4.3-3.7,7.6c0.6,3.2,4.4,6.1,8,5.3c1.2-0.3,1-0.8,0.9-1.6
		C263.9,239.3,261.8,239,260.2,236.9z"/>
	<path fill-rule="evenodd" clip-rule="evenodd" d="M190.7,226.4c-2.7,0.4-4.7,2.7-3,5.5c0.3,0.5,0.7,1,1,1.5
		c0.5,0.9,1.1,1.7,1.5,2.7c0.5,1.1,0,2.3-1.2,2.7c-0.6,0.2-1.4,0.2-2,0.2c-0.9-0.1-1.2,0.3-1,1.1c2.5,1,5.1-0.3,5.7-2.8
		c0.3-1.2-0.1-2.2-0.7-3.2c-0.7-1.1-1.5-2.2-2.1-3.3c-0.8-1.6-0.2-2.7,1.5-2.9c0.5-0.1,1,0,1.5,0c0-0.5,0-0.9,0-1.4
		C191.6,226.4,191.1,226.3,190.7,226.4z"/>
	<path fill-rule="evenodd" clip-rule="evenodd" d="M131,229.9c-3.6,0-4.3,2.2-4.3,3.9c0,2.5,0,3.9,0,6.3c0.6,0,0.9,0,1.2,0
		c0-2,0-4.3,0-6.3c0-1.6,0.7-2.6,3-2.6c2.3,0,3.1,1.4,3.1,3c0,2.1,0,3.6,0,5.9c0.1,0,0.8,0,1.3,0c0-2.1,0-3.9,0-5.9
		C135.4,232,134.4,229.9,131,229.9z"/>
	<path fill-rule="evenodd" clip-rule="evenodd" d="M223.7,229.9c-3.6,0-4.3,2.2-4.3,3.9c0,2.5,0,3.9,0,6.3c0.6,0,0.9,0,1.2,0
		c0-2,0-4.3,0-6.3c0-1.6,0.7-2.6,3-2.6c2.3,0,3.1,1.4,3.1,3c0,2.1,0,3.6,0,5.9c0.1,0,0.8,0,1.3,0c0-2.1,0-3.9,0-5.9
		C228.1,232,227.1,229.9,223.7,229.9z"/>
	<path fill-rule="evenodd" clip-rule="evenodd" d="M276.9,231.8c-1.8-2-4.3-2.3-6.9-0.6c-2.3,1.6-2.8,5.3-1,7.4
		c2,2.2,4.9,2.3,7.7,0.9c0,0,0.1,0,0.1-0.1c-0.1-0.2-0.2-0.6-0.4-0.9c-3,1.2-4.8,1.1-5.8-0.3c2.2-1.8,4.5-3.7,6.7-5.5
		C277.3,232.3,277.2,232,276.9,231.8z M270.6,236.8c-0.6,0.5-0.8,0.2-1.1-0.4c-0.7-1.8,0.1-3.7,1.6-4.7c2.2-1.1,3.7-0.3,4.7,0.7
		C275.5,232.9,271.9,235.7,270.6,236.8z"/>
	<path fill-rule="evenodd" clip-rule="evenodd" d="M306,231.8c-1.8-2-4.3-2.3-6.9-0.6c-2.3,1.6-2.8,5.3-1,7.4c2,2.2,4.9,2.3,7.7,0.9
		c0,0,0.1,0,0.2-0.1c-0.1-0.2-0.2-0.6-0.4-0.9c-3,1.2-4.8,1.1-5.8-0.3c2.2-1.8,4.5-3.7,6.7-5.5C306.3,232.3,306.2,232,306,231.8z
		 M299.6,236.8c-0.6,0.5-0.8,0.2-1.1-0.4c-0.7-1.8,0.1-3.7,1.6-4.7c2.2-1.1,3.7-0.3,4.7,0.7C304.5,232.9,300.9,235.7,299.6,236.8z"
		/>
	<path fill-rule="evenodd" clip-rule="evenodd" d="M284.2,229.9c-3.6,0-4.3,2.2-4.3,3.9c0,2.5,0,3.9,0,6.3c0.6,0,0.9,0,1.2,0
		c0-2,0-4.3,0-6.3c0-1.6,0.7-2.6,3-2.6c2.3,0,3.1,1.4,3.1,3c0,2.1,0,3.6,0,5.9c0.1,0,0.8,0,1.3,0c0-2.1,0-3.9,0-5.9
		C288.5,232,287.6,229.9,284.2,229.9z"/>
	<path fill-rule="evenodd" clip-rule="evenodd" d="M292.7,227.5c-0.4,0-1.3,0-1.3,0s0,6.6,0,9.7c0,2.3,1.8,3,3.3,3
		c1.2,0,1.3,0.1,1.2-1.1c-2.1,0.2-3.1-0.3-3.1-2.2c0-1.8,0-3.8,0-5.8c1.2,0,3.2,0,3.2,0v-1.1h-3.2
		C292.7,230.1,292.7,228.3,292.7,227.5z"/>
	<path fill-rule="evenodd" clip-rule="evenodd" d="M195.4,235.1c0-3.6,3.9-4,5.5-3.5c0.2-0.4,0.3-0.7,0.5-1.1c-3-0.7-7.2,0-7.2,4.4
		c0,5.3,5.4,6,7.3,4.7c-0.2-0.3-0.3-0.6-0.5-0.9C199.4,239.7,195.4,238.7,195.4,235.1z"/>
	<path fill-rule="evenodd" clip-rule="evenodd" d="M231.4,235.1c0-3.6,3.9-4,5.5-3.5c0.2-0.4,0.3-0.7,0.5-1.1c-3-0.7-7.2,0-7.2,4.4
		c0,5.3,5.4,6,7.3,4.7c-0.2-0.3-0.3-0.6-0.5-0.9C235.4,239.7,231.4,238.7,231.4,235.1z"/>
	<path fill-rule="evenodd" clip-rule="evenodd" d="M308.4,234.1c0,2.3,0,3.7,0,6c0.6,0,1.3,0,1.3,0s0-2.8,0-4.9c0-2.1-0.2-3.3,3.5-4
		c0-0.3,0-0.9,0-1.2C310.8,230.1,308.4,231,308.4,234.1z"/>
	<path fill-rule="evenodd" clip-rule="evenodd" d="M149.8,234.7c0,1.8,0,3.5,0,5.4c0.3,0,0.7,0,1.1,0c0-1.5,0-3,0-4.5
		c0-0.7-0.1-1.4,0.1-2c0.5-1.7,1.7-2.4,3.4-2.5c0-0.4,0-0.7,0-1.1c-0.2,0.1-0.4,0.1-0.5,0.2C151.3,230.6,149.8,231.7,149.8,234.7z"
		/>
	<path fill-rule="evenodd" clip-rule="evenodd" d="M203.6,231.6c0,2.1,0,4.2,0,6.4c0,0.7,0,1.4,0,2.2c0.5,0,0.8-0.1,1.2-0.1
		c0-3.3,0-6.6,0-9.9C203.6,230.5,203.6,230.5,203.6,231.6z"/>
	<path fill-rule="evenodd" clip-rule="evenodd" d="M99.5,240.1c0.3,0,0.6,0,1,0c0-3.3,0-6.6,0-9.9c-0.3,0.1-0.6,0.2-1,0.3
		C99.5,233.7,99.5,236.9,99.5,240.1z"/>
	<circle fill-rule="evenodd" clip-rule="evenodd" cx="100.1" cy="227.6" r="0.8"/>
	<circle fill-rule="evenodd" clip-rule="evenodd" cx="204.1" cy="227.6" r="0.8"/>
	<path fill-rule="evenodd" clip-rule="evenodd" d="M137.4,179.2c6.4,0,11.6-5.2,11.6-11.6c0-6.4-5.2-11.6-11.6-11.6
		c-6.4,0-11.6,5.2-11.6,11.6C125.8,174.1,131,179.2,137.4,179.2z M133.9,168.6c0.5-1.1,3.5-7.3,3.5-7.3s2.7,5.4,3.5,7.5
		c0.4,1.2,0,4.5-3.5,4.5C133.9,173.3,133.1,170.4,133.9,168.6z"/>
</g>
</svg>
