<?xml version="1.0" encoding="utf-8"?>
<!-- Generator: Adobe Illustrator 19.0.1, SVG Export Plug-In . SVG Version: 6.00 Build 0)  -->
<!DOCTYPE svg PUBLIC "-//W3C//DTD SVG 1.1//EN" "http://www.w3.org/Graphics/SVG/1.1/DTD/svg11.dtd">
<svg version="1.1" id="Layer_1" xmlns="http://www.w3.org/2000/svg" xmlns:xlink="http://www.w3.org/1999/xlink" x="0px" y="0px"
	 viewBox="50 50 300 300" enable-background="new 0 0 400 400" xml:space="preserve">
<style>
  g {
    fill: #6db6aa;
  }
</style>
<g>
	<path d="M118.4,171c-2.1,1.2-4.8,1.8-7.6,1.8c-8.5,0-11.4-5.7-11.4-10.3c0-5.9,4.3-10.5,11.7-10.5c2.7,0,5.1,0.5,7,1.4v5.9
		c-2.1-1.3-3.8-1.9-5.9-1.9c-3.6,0-5.8,1.9-5.8,5c0,3,2.3,5,5.8,5c2.1,0,3.7-0.5,6-1.8V171L118.4,171z"/>
	<path d="M128.6,152.2h11.6c5.5,0,7.8,2.6,7.8,5.8c0,2.1-1.1,3.7-3.3,4.7c1.5,0.6,2.2,2,3.3,4.4l2.4,5.4h-7l-1.3-3
		c-1.5-3.5-2.6-5.5-4.5-5.5h-1.9v8.5h-7.1V152.2L128.6,152.2z M137.7,160.9c2.3,0,3.6-1,3.6-2.7c0-1.8-1.2-2.7-3.5-2.7h-2.1v5.4
		H137.7L137.7,160.9z"/>
	<polygon points="158.7,152.2 173.9,152.2 173.9,156.5 165.8,156.5 165.8,160.1 173.2,160.1 173.2,164.3 165.8,164.3 165.8,168.2
		174,168.2 174,172.5 158.7,172.5 158.7,152.2 	"/>
	<path d="M191,152.2h7.4l9.2,20.3h-7l-1.3-3.3h-9.2l-1.3,3.3h-7L191,152.2L191,152.2z M197.8,165.5l-3.1-8l-3.1,8H197.8L197.8,165.5
		z"/>
	<polygon points="211.2,157.3 211.2,152.2 231,152.2 231,157.3 224.6,157.3 224.6,172.5 217.5,172.5 217.5,157.3 211.2,157.3 	"/>
	<polygon points="238.7,152.2 245.8,152.2 245.8,172.5 238.7,172.5 238.7,152.2 	"/>
	<polygon points="253.1,152.2 260.8,152.2 265.3,164.8 265.4,164.8 269.7,152.2 276.2,152.2 267.8,172.5 261.6,172.5 253.1,152.2
		"/>
	<polygon points="283.5,152.2 298.6,152.2 298.6,156.5 290.6,156.5 290.6,160.1 298,160.1 298,164.3 290.6,164.3 290.6,168.2
		298.8,168.2 298.8,172.5 283.5,172.5 283.5,152.2 	"/>
	<path d="M83.3,189.9h10.2c7.8,0,11,5.7,11,10.4c0,4.6-2.8,9.9-9.7,9.9H83.3V189.9L83.3,189.9z M92.3,205.3c3.4,0,5.1-1.7,5.1-5.3
		c0-2.7-1.2-5.3-5.1-5.3h-1.9v10.6H92.3L92.3,205.3z"/>
	<polygon points="114,189.9 121.1,189.9 121.1,210.1 114,210.1 114,189.9 	"/>
	<path d="M131.9,203.5c2,1.3,3.8,2,5.5,2c1.3,0,2-0.6,2-1.4c0-2.2-7.6-2.5-7.6-8.4c0-2.6,1.8-6.1,7.2-6.1c2.4,0,4.4,0.7,6.4,2.2v5.4
		c-2-1.8-3.5-2.6-5.1-2.6c-1.2,0-2,0.5-2,1.4c0,2.5,7.8,2.7,7.8,8.5c0,2.9-2.1,6-7.3,6c-2.6,0-5-0.4-7-1.4V203.5L131.9,203.5z"/>
	<path d="M173.8,208.6c-2.1,1.2-4.8,1.8-7.6,1.8c-8.5,0-11.4-5.7-11.4-10.3c0-5.9,4.3-10.5,11.7-10.5c2.7,0,5.1,0.5,7,1.4v5.9
		c-2.1-1.3-3.8-1.9-5.9-1.9c-3.6,0-5.8,1.9-5.8,5c0,3,2.3,5,5.8,5c2.1,0,3.7-0.5,6-1.8V208.6L173.8,208.6z"/>
	<path d="M194.3,189.6c7.6,0,11,5.2,11,10.4c0,5.2-3.3,10.4-11,10.4c-7.3,0-11-4.8-11-10.4C183.3,194.6,186.8,189.6,194.3,189.6
		L194.3,189.6z M194.3,204.5c2.4,0,3.9-1.7,3.9-4.5c0-2.7-1.5-4.5-3.9-4.5c-2.4,0-3.9,1.7-3.9,4.5
		C190.4,202.7,191.9,204.5,194.3,204.5L194.3,204.5z"/>
	<polygon points="211.2,189.9 218.9,189.9 223.4,202.5 223.5,202.5 227.8,189.9 234.3,189.9 225.9,210.1 219.7,210.1 211.2,189.9
		"/>
	<polygon points="242.7,189.9 257.9,189.9 257.9,194.1 249.8,194.1 249.8,197.7 257.3,197.7 257.3,202 249.8,202 249.8,205.9
		258.1,205.9 258.1,210.1 242.7,210.1 242.7,189.9 	"/>
	<path d="M267.6,189.9h11.6c5.5,0,7.8,2.6,7.8,5.8c0,2.1-1.1,3.7-3.3,4.7c1.5,0.6,2.2,2,3.3,4.4l2.4,5.4h-7l-1.3-3
		c-1.5-3.5-2.6-5.5-4.5-5.5h-1.9v8.5h-7.1V189.9L267.6,189.9z M276.6,198.5c2.3,0,3.6-1,3.6-2.7c0-1.8-1.2-2.7-3.5-2.7h-2.1v5.4
		H276.6L276.6,198.5z"/>
	<polygon points="301.5,201.1 293.6,189.9 302.1,189.9 306,196.6 309.7,189.9 316.7,189.9 308.6,201.4 308.6,210.1 301.5,210.1
		301.5,201.1 	"/>
	<polygon points="121.6,247.8 114.5,247.8 114.5,227.5 120.9,227.5 127,235.7 133,227.5 139.4,227.5 139.4,247.8 132.3,247.8
		132.5,236.9 132.4,236.8 127,244.3 121.5,236.8 121.5,236.9 121.6,247.8 	"/>
	<path d="M170.7,238.5c0,5.9-3.7,9.6-10.7,9.6c-7,0-11-3.3-11-8.8v-11.7h7.1v10.8c0,2.9,1.5,4.2,3.7,4.2c2.2,0,3.8-1.4,3.8-4.6
		v-10.5h7.1V238.5L170.7,238.5z"/>
	<path d="M179.6,241.2c2,1.3,3.8,2,5.5,2c1.3,0,2-0.6,2-1.4c0-2.2-7.6-2.5-7.6-8.4c0-2.6,1.8-6.1,7.2-6.1c2.4,0,4.4,0.7,6.4,2.2v5.4
		c-2-1.8-3.5-2.6-5.1-2.6c-1.2,0-2,0.5-2,1.4c0,2.5,7.8,2.7,7.8,8.5c0,2.9-2.1,6-7.3,6c-2.6,0-5-0.4-7-1.4V241.2L179.6,241.2z"/>
	<polygon points="203.3,227.5 218.4,227.5 218.4,231.8 210.4,231.8 210.4,235.4 217.8,235.4 217.8,239.6 210.4,239.6 210.4,243.5
		218.6,243.5 218.6,247.8 203.3,247.8 203.3,227.5 	"/>
	<path d="M249.2,238.5c0,5.9-3.7,9.6-10.7,9.6c-7,0-11-3.3-11-8.8v-11.7h7.1v10.8c0,2.9,1.5,4.2,3.7,4.2c2.2,0,3.8-1.4,3.8-4.6
		v-10.5h7.1V238.5L249.2,238.5z"/>
	<polygon points="265.9,247.8 258.8,247.8 258.8,227.5 265.1,227.5 271.2,235.7 277.3,227.5 283.6,227.5 283.6,247.8 276.5,247.8
		276.7,236.9 276.6,236.8 271.2,244.3 265.8,236.8 265.7,236.9 265.9,247.8 	"/>
</g>
</svg>
