<svg xmlns="http://www.w3.org/2000/svg" xmlns:xlink="http://www.w3.org/1999/xlink" preserveAspectRatio="xMidYMid" width="150" height="62" viewBox="0 0 150 62">
  <defs>
    <style>

      .cls-2 {
        //fill: #6db6aa;
        fill: #FFFFFF;
      }
    </style>
  </defs>
  <path d="M144.803,31.882 C144.803,31.882 144.803,37.539 144.803,37.539 C144.803,37.539 140.236,37.539 140.236,37.539 C140.236,37.539 140.236,31.710 140.236,31.710 C140.236,31.710 135.172,24.460 135.172,24.460 C135.172,24.460 140.618,24.460 140.618,24.460 C140.618,24.460 143.102,28.795 143.102,28.795 C143.102,28.795 145.529,24.460 145.529,24.460 C145.529,24.460 150.000,24.460 150.000,24.460 C150.000,24.460 144.803,31.882 144.803,31.882 ZM128.634,0.175 C128.634,0.175 138.399,0.175 138.399,0.175 C138.399,0.175 138.399,2.937 138.399,2.937 C138.399,2.937 133.201,2.937 133.201,2.937 C133.201,2.937 133.201,5.238 133.201,5.238 C133.201,5.238 137.959,5.238 137.959,5.238 C137.959,5.238 137.959,7.999 137.959,7.999 C137.959,7.999 133.201,7.999 133.201,7.999 C133.201,7.999 133.201,10.492 133.201,10.492 C133.201,10.492 138.475,10.492 138.475,10.492 C138.475,10.492 138.475,13.254 138.475,13.254 C138.475,13.254 128.634,13.254 128.634,13.254 C128.634,13.254 128.634,0.175 128.634,0.175 ZM130.896,28.200 C130.896,29.581 130.189,30.616 128.794,31.230 C129.730,31.633 130.227,32.535 130.934,34.088 C130.934,34.088 132.481,37.539 132.481,37.539 C132.481,37.539 127.991,37.539 127.991,37.539 C127.991,37.539 127.170,35.603 127.170,35.603 C126.214,33.359 125.488,32.074 124.246,32.074 C124.246,32.074 123.004,32.074 123.004,32.074 C123.004,32.074 123.004,37.539 123.004,37.539 C123.004,37.539 118.438,37.539 118.438,37.539 C118.438,37.539 118.438,24.460 118.438,24.460 C118.438,24.460 125.871,24.460 125.871,24.460 C129.386,24.460 130.896,26.148 130.896,28.200 ZM124.342,26.570 C124.342,26.570 123.004,26.570 123.004,26.570 C123.004,26.570 123.004,30.060 123.004,30.060 C123.004,30.060 124.246,30.060 124.246,30.060 C125.718,30.060 126.578,29.446 126.578,28.296 C126.578,27.145 125.775,26.570 124.342,26.570 ZM114.617,13.254 C114.617,13.254 109.133,0.175 109.133,0.175 C109.133,0.175 114.063,0.175 114.063,0.175 C114.063,0.175 116.986,8.306 116.986,8.306 C116.986,8.306 117.025,8.306 117.025,8.306 C117.025,8.306 119.814,0.175 119.814,0.175 C119.814,0.175 123.979,0.175 123.979,0.175 C123.979,0.175 118.572,13.254 118.572,13.254 C118.572,13.254 114.617,13.254 114.617,13.254 ZM99.872,0.175 C99.872,0.175 104.439,0.175 104.439,0.175 C104.439,0.175 104.439,13.254 104.439,13.254 C104.439,13.254 99.872,13.254 99.872,13.254 C99.872,13.254 99.872,0.175 99.872,0.175 ZM102.038,55.497 C102.038,55.497 102.038,48.746 102.038,48.746 C102.038,48.746 106.605,48.746 106.605,48.746 C106.605,48.746 106.605,55.823 106.605,55.823 C106.605,59.658 104.236,61.998 99.706,61.998 C95.178,61.998 92.637,59.869 92.637,56.302 C92.637,56.302 92.637,48.746 92.637,48.746 C92.637,48.746 97.204,48.746 97.204,48.746 C97.204,48.746 97.204,55.727 97.204,55.727 C97.204,57.568 98.178,58.450 99.592,58.450 C100.987,58.450 102.038,57.568 102.038,55.497 ZM87.690,37.539 C87.690,37.539 82.206,24.460 82.206,24.460 C82.206,24.460 87.136,24.460 87.136,24.460 C87.136,24.460 90.059,32.592 90.059,32.592 C90.059,32.592 90.098,32.592 90.098,32.592 C90.098,32.592 92.887,24.460 92.887,24.460 C92.887,24.460 97.053,24.460 97.053,24.460 C97.053,24.460 91.645,37.539 91.645,37.539 C91.645,37.539 87.690,37.539 87.690,37.539 ZM90.838,13.254 C90.838,13.254 86.271,13.254 86.271,13.254 C86.271,13.254 86.271,3.454 86.271,3.454 C86.271,3.454 82.201,3.454 82.201,3.454 C82.201,3.454 82.201,0.175 82.201,0.175 C82.201,0.175 94.908,0.175 94.908,0.175 C94.908,0.175 94.908,3.454 94.908,3.454 C94.908,3.454 90.838,3.454 90.838,3.454 C90.838,3.454 90.838,13.254 90.838,13.254 ZM74.542,11.125 C74.542,11.125 68.657,11.125 68.657,11.125 C68.657,11.125 67.797,13.254 67.797,13.254 C67.797,13.254 63.269,13.254 63.269,13.254 C63.269,13.254 69.211,0.175 69.211,0.175 C69.211,0.175 73.988,0.175 73.988,0.175 C73.988,0.175 79.930,13.254 79.930,13.254 C79.930,13.254 75.402,13.254 75.402,13.254 C75.402,13.254 74.542,11.125 74.542,11.125 ZM71.599,3.589 C71.599,3.589 69.593,8.767 69.593,8.767 C69.593,8.767 73.587,8.767 73.587,8.767 C73.587,8.767 71.599,3.589 71.599,3.589 ZM66.508,48.574 C68.056,48.574 69.317,48.996 70.616,49.974 C70.616,49.974 70.616,53.425 70.616,53.425 C69.355,52.256 68.342,51.719 67.368,51.719 C66.603,51.719 66.107,52.064 66.107,52.620 C66.107,54.212 71.132,54.384 71.132,58.105 C71.132,59.984 69.813,61.998 66.412,61.998 C64.731,61.998 63.221,61.710 61.903,61.097 C61.903,61.097 61.903,57.549 61.903,57.549 C63.164,58.412 64.368,58.853 65.457,58.853 C66.298,58.853 66.756,58.470 66.756,57.951 C66.756,56.532 61.903,56.340 61.903,52.505 C61.903,50.856 63.049,48.574 66.508,48.574 ZM48.467,0.175 C48.467,0.175 58.231,0.175 58.231,0.175 C58.231,0.175 58.231,2.937 58.231,2.937 C58.231,2.937 53.034,2.937 53.034,2.937 C53.034,2.937 53.034,5.238 53.034,5.238 C53.034,5.238 57.792,5.238 57.792,5.238 C57.792,5.238 57.792,7.999 57.792,7.999 C57.792,7.999 53.034,7.999 53.034,7.999 C53.034,7.999 53.034,10.492 53.034,10.492 C53.034,10.492 58.308,10.492 58.308,10.492 C58.308,10.492 58.308,13.254 58.308,13.254 C58.308,13.254 48.467,13.254 48.467,13.254 C48.467,13.254 48.467,0.175 48.467,0.175 ZM53.541,24.288 C55.261,24.288 56.789,24.595 58.051,25.170 C58.051,25.170 58.051,28.987 58.051,28.987 C56.732,28.143 55.585,27.778 54.267,27.778 C51.974,27.778 50.560,29.005 50.560,31.000 C50.560,32.956 52.013,34.222 54.305,34.222 C55.624,34.222 56.694,33.896 58.165,33.072 C58.165,33.072 58.165,36.562 58.165,36.562 C56.809,37.329 55.108,37.713 53.312,37.713 C47.866,37.713 45.993,34.050 45.993,31.057 C45.993,27.241 48.764,24.288 53.541,24.288 ZM37.867,11.317 C36.911,9.073 36.185,7.788 34.943,7.788 C34.943,7.788 33.701,7.788 33.701,7.788 C33.701,7.788 33.701,13.254 33.701,13.254 C33.701,13.254 29.134,13.254 29.134,13.254 C29.134,13.254 29.134,0.175 29.134,0.175 C29.134,0.175 36.567,0.175 36.567,0.175 C40.083,0.175 41.593,1.863 41.593,3.915 C41.593,5.296 40.886,6.331 39.491,6.945 C40.427,7.348 40.924,8.249 41.631,9.802 C41.631,9.802 43.178,13.254 43.178,13.254 C43.178,13.254 38.688,13.254 38.688,13.254 C38.688,13.254 37.867,11.317 37.867,11.317 ZM35.039,2.284 C35.039,2.284 33.701,2.284 33.701,2.284 C33.701,2.284 33.701,5.775 33.701,5.775 C33.701,5.775 34.943,5.775 34.943,5.775 C36.414,5.775 37.274,5.161 37.274,4.011 C37.274,2.860 36.472,2.284 35.039,2.284 ZM36.048,48.746 C36.048,48.746 36.048,61.825 36.048,61.825 C36.048,61.825 31.481,61.825 31.481,61.825 C31.481,61.825 31.596,54.807 31.596,54.807 C31.596,54.807 31.558,54.768 31.558,54.768 C31.558,54.768 28.061,59.562 28.061,59.562 C28.061,59.562 24.564,54.768 24.564,54.768 C24.564,54.768 24.526,54.807 24.526,54.807 C24.526,54.807 24.641,61.825 24.641,61.825 C24.641,61.825 20.074,61.825 20.074,61.825 C20.074,61.825 20.074,48.746 20.074,48.746 C20.074,48.746 24.163,48.746 24.163,48.746 C24.163,48.746 28.061,54.039 28.061,54.039 C28.061,54.039 31.959,48.746 31.959,48.746 C31.959,48.746 36.048,48.746 36.048,48.746 ZM19.730,24.460 C19.730,24.460 24.297,24.460 24.297,24.460 C24.297,24.460 24.297,37.539 24.297,37.539 C24.297,37.539 19.730,37.539 19.730,37.539 C19.730,37.539 19.730,24.460 19.730,24.460 ZM17.678,13.426 C12.232,13.426 10.359,9.764 10.359,6.772 C10.359,2.956 13.130,0.002 17.907,0.002 C19.627,0.002 21.155,0.309 22.416,0.885 C22.416,0.885 22.416,4.701 22.416,4.701 C21.098,3.857 19.952,3.493 18.633,3.493 C16.340,3.493 14.926,4.720 14.926,6.715 C14.926,8.671 16.378,9.936 18.671,9.936 C19.989,9.936 21.059,9.610 22.531,8.785 C22.531,8.785 22.531,12.276 22.531,12.276 C21.174,13.043 19.474,13.426 17.678,13.426 ZM7.356,37.539 C7.356,37.539 -0.000,37.539 -0.000,37.539 C-0.000,37.539 -0.000,24.460 -0.000,24.460 C-0.000,24.460 6.535,24.460 6.535,24.460 C11.579,24.460 13.605,28.143 13.605,31.173 C13.605,34.146 11.790,37.539 7.356,37.539 ZM5.790,27.567 C5.790,27.567 4.567,27.567 4.567,27.567 C4.567,27.567 4.567,34.433 4.567,34.433 C4.567,34.433 5.770,34.433 5.770,34.433 C7.987,34.433 9.038,33.340 9.038,31.000 C9.038,29.274 8.254,27.567 5.790,27.567 ZM31.226,36.811 C31.226,36.811 31.226,33.263 31.226,33.263 C32.487,34.126 33.691,34.567 34.780,34.567 C35.621,34.567 36.080,34.184 36.080,33.666 C36.080,32.247 31.226,32.055 31.226,28.219 C31.226,26.570 32.373,24.288 35.831,24.288 C37.379,24.288 38.640,24.710 39.939,25.688 C39.939,25.688 39.939,29.140 39.939,29.140 C38.678,27.970 37.665,27.433 36.691,27.433 C35.927,27.433 35.430,27.778 35.430,28.335 C35.430,29.926 40.455,30.099 40.455,33.819 C40.455,35.698 39.137,37.713 35.736,37.713 C34.054,37.713 32.545,37.425 31.226,36.811 ZM46.759,55.727 C46.759,57.568 47.733,58.450 49.147,58.450 C50.542,58.450 51.593,57.568 51.593,55.497 C51.593,55.497 51.593,48.746 51.593,48.746 C51.593,48.746 56.159,48.746 56.159,48.746 C56.159,48.746 56.159,55.823 56.159,55.823 C56.159,59.658 53.790,61.998 49.262,61.998 C44.733,61.998 42.192,59.869 42.192,56.302 C42.192,56.302 42.192,48.746 42.192,48.746 C42.192,48.746 46.759,48.746 46.759,48.746 C46.759,48.746 46.759,55.727 46.759,55.727 ZM64.253,31.000 C64.253,27.529 66.488,24.288 71.341,24.288 C76.252,24.288 78.430,27.625 78.430,31.000 C78.430,34.337 76.309,37.713 71.341,37.713 C66.641,37.713 64.253,34.625 64.253,31.000 ZM71.341,33.877 C72.889,33.877 73.864,32.764 73.864,31.000 C73.864,29.236 72.889,28.123 71.341,28.123 C69.775,28.123 68.819,29.236 68.819,31.000 C68.819,32.764 69.775,33.877 71.341,33.877 ZM86.855,51.508 C86.855,51.508 81.658,51.508 81.658,51.508 C81.658,51.508 81.658,53.809 81.658,53.809 C81.658,53.809 86.415,53.809 86.415,53.809 C86.415,53.809 86.415,56.571 86.415,56.571 C86.415,56.571 81.658,56.571 81.658,56.571 C81.658,56.571 81.658,59.064 81.658,59.064 C81.658,59.064 86.931,59.064 86.931,59.064 C86.931,59.064 86.931,61.825 86.931,61.825 C86.931,61.825 77.091,61.825 77.091,61.825 C77.091,61.825 77.091,48.746 77.091,48.746 C77.091,48.746 86.855,48.746 86.855,48.746 C86.855,48.746 86.855,51.508 86.855,51.508 ZM112.311,34.778 C112.311,34.778 112.311,37.539 112.311,37.539 C112.311,37.539 102.471,37.539 102.471,37.539 C102.471,37.539 102.471,24.460 102.471,24.460 C102.471,24.460 112.235,24.460 112.235,24.460 C112.235,24.460 112.235,27.222 112.235,27.222 C112.235,27.222 107.038,27.222 107.038,27.222 C107.038,27.222 107.038,29.524 107.038,29.524 C107.038,29.524 111.795,29.524 111.795,29.524 C111.795,29.524 111.795,32.285 111.795,32.285 C111.795,32.285 107.038,32.285 107.038,32.285 C107.038,32.285 107.038,34.778 107.038,34.778 C107.038,34.778 112.311,34.778 112.311,34.778 ZM120.755,54.039 C120.755,54.039 124.653,48.746 124.653,48.746 C124.653,48.746 128.742,48.746 128.742,48.746 C128.742,48.746 128.742,61.825 128.742,61.825 C128.742,61.825 124.175,61.825 124.175,61.825 C124.175,61.825 124.290,54.807 124.290,54.807 C124.290,54.807 124.252,54.768 124.252,54.768 C124.252,54.768 120.755,59.562 120.755,59.562 C120.755,59.562 117.259,54.768 117.259,54.768 C117.259,54.768 117.220,54.807 117.220,54.807 C117.220,54.807 117.335,61.825 117.335,61.825 C117.335,61.825 112.769,61.825 112.769,61.825 C112.769,61.825 112.769,48.746 112.769,48.746 C112.769,48.746 116.858,48.746 116.858,48.746 C116.858,48.746 120.755,54.039 120.755,54.039 Z" id="path-1" class="cls-2" fill-rule="evenodd"/>
</svg>
