<?xml version="1.0" encoding="utf-8"?>
<!-- Generator: Adobe Illustrator 19.0.1, SVG Export Plug-In . SVG Version: 6.00 Build 0)  -->
<!DOCTYPE svg PUBLIC "-//W3C//DTD SVG 1.1//EN" "http://www.w3.org/Graphics/SVG/1.1/DTD/svg11.dtd">
<svg version="1.1" id="Layer_1" xmlns="http://www.w3.org/2000/svg" xmlns:xlink="http://www.w3.org/1999/xlink" x="0px" y="0px"
	 viewBox="50 50 300 300" enable-background="new 0 0 400 400" xml:space="preserve">
<style>
  g {
    fill: #6db6aa;
  }
</style>
<g>
	<path d="M200,301.3c-55.9,0-101.3-45.5-101.3-101.3c0-55.9,45.4-101.3,101.3-101.3c55.9,0,101.3,45.4,101.3,101.3
		C301.3,255.9,255.9,301.3,200,301.3 M200,95.8c-57.5,0-104.2,46.6-104.2,104.2c0,57.5,46.6,104.2,104.2,104.2
		c57.5,0,104.2-46.6,104.2-104.2C304.2,142.5,257.5,95.8,200,95.8"/>
	<path d="M200,276.3c-42.1,0-76.3-34.3-76.3-76.3c0-42.1,34.3-76.3,76.3-76.3c42.1,0,76.3,34.2,76.3,76.3
		C276.3,242.1,242.1,276.3,200,276.3 M200,120.8c-43.7,0-79.2,35.4-79.2,79.2c0,43.7,35.4,79.2,79.2,79.2
		c43.7,0,79.2-35.4,79.2-79.2C279.2,156.3,243.7,120.8,200,120.8"/>
	<polyline points="195.6,247.6 195.5,247.6 195.4,247.8 195.4,251.7 195.5,251.8 195.6,251.8 195.7,251.7 195.7,247.8 195.6,247.6
		"/>
	<path d="M192,248.4l0,0.6l0.1,0.7h-0.8l-0.4-0.6l-0.1-0.7H192z M191.3,247.4h0.9L192,248h-1.1L191.3,247.4 M192.4,247.9h0.6l0,0.5
		c0,1.4,0.5,2,0.5,2h-0.5c-0.1,0-0.7-0.5-0.7-1.8L192.4,247.9 M192.5,247.4h0.6l-0.1,0.2h-0.6L192.5,247.4z M193,246.6l0.5-0.1
		l-0.2,0.2l-0.1,0.2h-0.6L193,246.6 M194.1,246.6l0.6,0.6l-0.6,0c-0.1,0-0.6,0.2-0.6,1.4c0,1.1,0.5,1.3,0.6,1.3h0.6l-0.6,0.6
		c-0.3,0-0.8-0.7-0.8-1.9C193.3,247.3,193.8,246.6,194.1,246.6 M194.8,247.5v0.2h-0.9l0.2-0.2H194.8z M194.1,249.5l-0.3-0.9l0-0.5h1
		v1.4H194.1z M194.9,252.7h0.9l0,0.5l0.2,0.3h1.6l0-0.3h-1.5v-3.5c0-3.7,0.5-5.8,0.5-5.8h1.7c0,0-0.3,1.3-0.3,4.2v5l0.3,0.3v0.5
		l0.6-0.5h1.4v-0.3h-1.3c0,0-0.7-1.2-0.7-5c0-2.4,0.4-4.2,0.4-4.2h2.3c0,0-0.4,1.5-0.4,5.9c0,3.6,0.1,3.6,0.1,3.6h0.3v0.7l1.7-1.3
		l0.3-0.1c0,0-0.6-2-0.6-4.3c0-6,1.8-7.3,1.8-7.3s-1.6,1.9-1.6,6.6c-0.1,3.2,0.6,5.3,0.6,5.3h4.1l1.3-0.3l0.4-0.6v0h2.2l0.2-0.1
		l0.7-0.8v-0.7h1.4l-3.4,4.1l-17.2-0.8L194.9,252.7z M195.2,247.2l0.7-0.9c0,0-0.1,1-0.1,6.1h-0.6V247.2z M197.5,242.1l1.7-1.1
		c0,0-0.3,0.4-0.5,1.3c-0.3,0.8-0.4,1.3-0.4,1.3h-1.6L197.5,242.1 M200.6,240.1h0.6l0,0.4l0.3,0.1l0.1-0.2l0.2-0.2h0.7l-0.8,1
		l-0.6,1.5h-2.3C199.4,240.9,200.1,240.1,200.6,240.1 M201.8,238.7l0.3,0.5l0.2-0.2l0.1,0.4v0.3l-0.3-0.1l-0.3,0.1h-0.2L201.8,238.7
		 M202.2,238.2l0.1,0.4l-0.1,0.4l-0.1-0.4L202.2,238.2 M198.8,243.1l0-0.2h2.4l-0.1,0.2L198.8,243.1z M201.1,243.4l-0.1,0.2h-2.3
		l0.1-0.2H201.1z M201.4,253.1l-0.2,0.2l-0.2-0.2l0.2-0.2L201.4,253.1 M203.5,240.1l0.9,0.6c-2.1,0-2.5,5.2-2.5,8.2
		c0,1.6,0.5,3.8,0.5,3.8s-0.5,0.1-0.9-0.7c-0.4-0.8-0.7-2.3-0.7-2.3C200.8,241.8,202.6,240.1,203.5,240.1 M204.8,241l0.6,0.2
		l-0.7,0.7l-0.2-0.1l-0.2,0l0,0l0.1,0.2l0.2,0.1c-0.4,0.7-0.8,1.7-1,3.3h0l-0.3,0.3l0.3,0.3l-0.1,1.8v0.3h-0.2l-0.1,0.1v0l0.1,0.1
		h0.2c0,1,0.1,1.7,0.3,2.3l-0.2,0l-0.1,0.1v0l0.2,0.1l0.2,0c0.3,0.9,0.6,1.6,0.6,1.6h-1c0,0-0.6-1.9-0.6-4.4
		C202.7,242.9,204.3,241,204.8,241 M204.9,242.4l0.2-0.2l0.2,0.2l-0.2,0.1L204.9,242.4 M206,243.1c-0.4,0.5-0.8,1.3-1,2.7l-0.5-0.1
		c0.2-1.4,0.6-2.3,1-2.9L206,243.1z M206.3,242l0.7,0.3l-0.8,0.4l-0.5-0.3L206.3,242 M208,243.1l-1,0.4l-0.6-0.5l0.7-0.4L208,243.1
		 M208.6,243.9l0.1,1.2l-0.2-0.1V245l-0.4-1.4L208.6,243.9 M208.8,245.6l-0.5,0.8l-0.2,1.2h-0.6c0-0.9,0.6-2.3,0.8-2.3L208.8,245.6
		 M208.9,245.8l0.1,0.1c0,0-0.7,0.7-0.7,2.5c0,2,0.6,2.6,0.6,2.6s-0.7-0.4-0.7-2.6C208.3,246.3,208.9,245.8,208.9,245.8
		 M209.1,245.5l-0.2-0.2l0-0.7L209.1,245.5 M209.3,246.1l0.3,0.6l0.2,0.8h-0.9C208.8,246.6,209.3,246.1,209.3,246.1 M211,248
		l-0.1,0.4l0,0.2l-2.2-0.2l0.1-0.4L211,248z M208.9,248.9l-0.1-0.2l2.2,0l0,0.2H208.9z M209,249.2h2v0.1L209,249.2L209,249.2z
		 M209.8,251.4l0.2-0.5l0-0.5h1v1.6H209L209.8,251.4z M206.2,251.7l0.1,0.2l-0.4,0.1l-0.1-0.2L206.2,251.7z M206,251.2l0.1,0.3
		l-0.4,0.1l-0.1-0.3L206,251.2z M205.5,250.7l0.4-0.1l0.1,0.4l-0.4,0.1L205.5,250.7 M205.5,251.9l0.1,0.1l-0.3,0.1l-0.1-0.2
		L205.5,251.9z M205.3,251.4l0.1,0.3l-0.3,0.1l-0.1-0.3L205.3,251.4z M205.9,246.6L205.9,246.6l-0.1,2l0.1,1.6l-0.4,0.1
		c-0.1-0.7-0.3-1.7-0.3-2.5l0.1-1.4L205.9,246.6z M206,245.9l-0.6-0.1c0.2-1.2,0.5-2,0.9-2.5l0.6,0.5
		C206.4,244.3,206.1,245.1,206,245.9 M207,248.4v0.3h-1v0l0.1-2l1,0.2L207,248.4 M206.1,249.4l0-0.2h1l0,0.2H206.1z M207.1,249.7
		l0,0.2h-1l0-0.2H207.1z M207.4,246.2l-1-0.2l0.1-0.5l1,0.5L207.4,246.2 M207.4,247.8h0.6v0.1h-0.6V247.8z M207.4,248.3h0.6v0.1
		h-0.6V248.3z M208,251.3l-0.4-0.8l-0.1-0.9l0.1,0l0.1,0.6L208,251.3 M207.4,249.1h0.6v0.1h-0.6V249.1z M207.3,243.8l0.5-0.3
		l0.4,1.4l-0.2,0.1L207.3,243.8z M207.7,245.4L207.7,245.4l-0.2,0.3l-1-0.6l0.5-1.1L207.7,245.4z M205.1,250.7l0.1,0.4l-0.4,0.1
		l-0.1-0.3L205.1,250.7z M204.7,250.6c-0.1-0.5-0.2-1.2-0.3-2h0.4l0.2,1.9L204.7,250.6z M204.5,251.9l0.2,0.1l-0.2,0.2l-0.2-0.2
		L204.5,251.9 M204.9,248.3h-0.5V248h0.4L204.9,248.3 M204.4,247l0-0.6l0.5,0.1l0,0.5H204.4z M204.9,247.3l0,0.4h-0.4v-0.3v0H204.9z
		 M204.2,250.7l0.2,0.2l-0.2,0.2l-0.2-0.2L204.2,250.7 M204,248.4l-0.2,0.2l-0.2-0.2l0.2-0.2L204,248.4 M204,246.1l-0.2-0.2l0.2-0.1
		l0.1,0.1L204,246.1 M206.7,251.5c0.2,0.8,0.4,1.2,0.4,1.2h-0.2c0,0-0.4-1.2-0.6-2.6h1c0.2,1,0.6,1.6,0.9,1.6l0.8-0.5l0.1,0l0.2-0.1
		l-1.1,1l-1.2-1.7h-0.6L206.7,251.5 M211.2,249.7l0.4,0.3v1.3l-0.4,0.4V249.7z M211.6,247.4l0.2,0.1l0,0.3l0.9,0.7l-0.1,0.2h-0.8
		l-0.1-0.6l-0.2,0.8l0.3,0.7l-0.2,0.2l-0.5-1.1L211.6,247.4 M213.3,252.7l-3.1,4.2l-0.1-1.9l3.2-3.8V252.7z M192.3,256.1v-1.8
		l17.5,0.8l0.1,2.1L192.3,256.1z M191.4,250h0.9l0.8,0.8h1l0.7-0.6v2.2l-2.7,1.6l-0.2,0.4v1.8l0.4,0.3l17.6,1l0.4-0.2l3.3-4.4
		l0.1-0.3v-1.8l-0.4-0.3h-1.4v-0.4l0.2-0.2l0.1-0.4l0.8-0.9l-0.9-0.9l-0.6-0.5l-0.5,0.4h-1.1l-0.2-0.9l-0.4-0.8l-0.3-1.6l-0.6-1
		l-1-1l-1.1-0.5l-0.4-0.5l-0.3-0.2l-0.6-0.3h-0.3l-1-0.9h-1l-0.7-2l-0.8,2h-0.6l-1.2,0.7c0,0-1.1,0.3-2,1.1
		c-1.2,1.2-1.6,3.2-1.6,4.2l-0.7,0.3l-0.4,0.7l-0.8-0.6h-0.9l-0.8,0.8h-1c-0.2,0-0.7,0.5-0.7,1.4S191.1,250,191.4,250"/>
	<polyline points="199,244.2 198.9,244.4 199,244.6 199.2,244.4 199,244.2 	"/>
	<polyline points="200.4,244.4 200.3,244.2 200.1,244.4 200.3,244.5 200.4,244.4 	"/>
	<polyline points="200.8,242.3 201,242.2 200.8,242 200.7,242.2 200.8,242.3 	"/>
	<polyline points="199.6,242.4 199.7,242.2 199.6,242 199.4,242.2 199.6,242.4 	"/>
	<polyline points="209.5,254.1 208.9,254 208.4,254.1 208.9,254.2 209.5,254.1 	"/>
	<polyline points="209.1,253.7 209.3,253.5 209.1,253.5 208.8,253.5 209.1,253.7 	"/>
	<polyline points="207.6,254 207.9,253.9 207.6,253.8 207.4,253.9 207.6,254 	"/>
	<polyline points="206.4,253.9 206.6,253.8 206.4,253.7 206.1,253.8 206.4,253.9 	"/>
	<path d="M185.4,229h-1.2l-0.3-2h1.5V229z M181.9,229v-0.5l-0.1-0.1h-0.3v-1.4h2.2l0.3,2H181.9z M181.1,228.5h-0.5v-0.5l-0.1-0.1
		H180v-1.5h3.5l0.1,0.4h-2.5V228.5z M179.6,225.3v-1.3h1.8l1.7,2h-3.1L179.6,225.3z M179.3,220.7v-1.4h0.3v1.4l-0.2,0L179.3,220.7
		 M179.4,223.7h-1.6l1.4-1.7l0.2,0.1V223.7z M179.4,224l-1,1l-0.7,0l-0.1-1.1L179.4,224L179.4,224z M179.4,225.3L179,226h-2.4
		l0.1-1.2l0.4-0.5l0.8,1.3l1.2-1.1l0.2-0.1V225.3z M179,227.8h-0.5l-0.1,0.1v0.5h-0.7l-0.1,0.1v0.5h-0.3v-0.8h-0.4V228h-0.4l0.1-1.7
		h2.3V227.8z M175.5,225.7l0.3-1.8h0.7l-0.1,0.7L175.5,225.7z M176.3,226h-0.6l0.7-0.8L176.3,226z M176.2,228h-0.4v0.3h-0.4v0.1
		h-0.2l0.3-2.1h0.9L176.2,228z M175.4,229h-0.3l0-0.3h0.3V229z M176,222l0.6,1l-0.1,0.7h-0.7L176,222z M176.7,221.5l-0.1,0.9
		l-0.5-0.9H176.7z M176.8,220.5l-0.1,0.7h-0.5L176.8,220.5z M176.4,219.3h0.5l-0.1,0.5l-0.7,0.8L176.4,219.3z M177.1,221.2l0.1-1.2
		l0,0l0.1,0.8v0.4H177.1z M176.9,222.8l0.1-1.3h0.2l0,1.8L176.9,222.8z M176.9,223.7v-0.2l0.1,0.2H176.9z M177.1,223.9l-0.2,0.3
		l0-0.3H177.1z M176.6,217.7l0.8,1.4h-1L176.6,217.7z M177,215.3h0.7l-0.8,1.3L177,215.3z M178.3,215l0.8-1.1v1.1H178.3z
		 M177.5,213.7h1.2l-0.7,1L177.5,213.7z M177.7,215H177l0.2-1.2L177.7,215z M176.9,217l1.2-1.8h0.9v1.8H176.9z M177.9,219l1.1-1.4
		v1.4H177.9z M176.8,217.3h2l-1.1,1.4L176.8,217.3z M178.9,221.7l-1.4,1.6l0.1-1.9h1.2L178.9,221.7 M178.9,221.2h-1.3l0-0.6l-0.1-1
		l0.2-0.3h1.3v1.6L178.9,221.2 M176.6,212.3h5.8v1h-5.8V212.3z M177.5,211.6h1.6v0.3h-1.6L177.5,211.6z M179,210.2v1.1h-1.3
		L179,210.2z M177.7,209.9h1.2l-1.3,1.1L177.7,209.9z M179,208.5v1.1h-1L179,208.5z M177.9,208.3h0.9l-1.1,1.2L177.9,208.3z
		 M179,207.1v0.9h-0.7L179,207.1z M178.1,206.8h0.8l-0.9,1.1L178.1,206.8z M178.4,204.5l0.1-0.7h0.4L178.4,204.5z M178.4,205
		l0.6-0.9v0.9H178.4z M178.2,206.1l0.1-0.9h0.6L178.2,206.1z M179,205.6v0.9h-0.7L179,205.6z M179.3,203.7h0.3v1.3h-0.3V203.7z
		 M179.3,205.3h0.3v1.2h-0.3V205.3z M179.3,206.8h0.3v1.2h-0.3V206.8z M179.3,208.3h0.3v1.4h-0.3V208.3z M179.7,211.9h-0.3v-0.3h0.3
		V211.9z M179.3,209.9h0.3v1.3h-0.3V209.9z M178,202.7h2.9v0.6H178V202.7z M179,202v0.3h-0.2L179,202z M178.9,201.5h0.2l-0.2,0.3
		L178.9,201.5z M179.3,201.5L179.3,201.5l0.3,0l0.1,0.1v0.7h-0.3V201.5z M179.9,202.1l0.1,0.2h-0.1V202.1z M179.9,201.5h0.1l0.1,0.3
		L179.9,201.5L179.9,201.5z M180.8,206.8l0.2,1.1l-0.9-1.1H180.8z M179.9,208v-0.9l0.7,0.9H179.9z M181.2,209.5l-1.1-1.2h0.9
		L181.2,209.5z M179.9,209.6v-1.1l1,1.1H179.9z M181.4,211.1l-1.3-1.1h1.1L181.4,211.1z M179.9,211.3v-1.1l1.3,1.1H179.9z
		 M180.6,206.5h-0.7v-0.8L180.6,206.5z M180.6,205.3l0.1,0.9l-0.7-0.9H180.6z M180,203.7h0.4l0.1,0.7L180,203.7z M180.5,205h-0.5
		v-0.8L180.5,205z M181.5,211.9h-1.6v-0.3h1.5L181.5,211.9z M182.2,216.7l-0.8-1.4h0.7L182.2,216.7z M182.5,219h-1.1l0.8-1.5
		L182.5,219z M182.8,221l-1.2-1.6h1L182.8,221z M180.1,221.7l0.1-0.3h2.5l-1.1,2L180.1,221.7z M181.1,219.3l1.3,1.9h-2.3l-0.2-0.3
		v-1.6H181.1z M180.9,219h-1v-1.4L180.9,219z M182,217.3l-0.8,1.4l-1.1-1.4H182z M180.9,215.3l1.1,1.8h-2v-1.8H180.9z M180.7,215
		h-0.8v-1.2L180.7,215z M181.7,213.7L181.7,213.7l0.3,1.3h-0.8l0,0L181.7,213.7z M180.9,214.6l-0.6-0.9h1L180.9,214.6z M179.8,222
		l1.3,1.7h-1.5V222L179.8,222 M179.7,219h-0.3v-1.7h0.3V219z M179.3,213.7h0.3v1.3h-0.3V213.7z M179.7,217h-0.3v-1.8h0.3V217z
		 M183.2,223.7h-1.3l1.1-1.9L183.2,223.7z M183.4,225.9l-1.6-2h1.3L183.4,225.9z M185.8,229.3L185.8,229.3l0-2.6h-1.9l-1.8-13h0.6
		l0.1-0.1V212l-0.1-0.1h-0.8l-0.1-0.5l0,0l-1.1-7.6h0.5l0.1-0.1v-1.3l-0.1-0.1h-0.7l-0.2-1.2l0,0H180h-1.1h-0.4l-0.2,1.2h-0.7
		l-0.1,0.1v1.3l0.1,0.1h0.5l-1.1,7.7h0h0l-0.1,0.5h-0.8l-0.1,0.1v1.7l0.1,0.1h0.5l-2,14.6h-0.6h-0.5v0.3v0.4h0.5v-0.4h0.6l-0.1,0.7
		h0.1h0.3h8.9h0.4L185.8,229.3L185.8,229.3z"/>
	<path d="M196.5,182.7l1.3,1.6l-0.5,0.6l-0.5,0.5l0.1,0.4l-0.2,0.3c-1.5-0.5-2.4-1.1-2.4-1.7C194.3,183.7,195.1,183.1,196.5,182.7
		 M195.9,179.7l1.3-0.2l0.9,0.3l0.5,0.5l0.3-0.1l0.3,0.1l-0.3,1.7c-0.9,0.1-1.7,0.3-2.4,0.5C195.8,181.1,195.6,180.1,195.9,179.7
		 M199.4,180.3l1.7,0.9l-0.3,0.3l-0.3,0.2l-1.3,0.1L199.4,180.3 M201.4,177c0.7,0,1.3,1.1,1.8,2.8l-1.7,1.1l-1.9-1.3
		C200.1,178,200.8,177,201.4,177 M203.4,180.9l0.1,0.9l-1.1-0.1l-0.7-0.6l1.6-1L203.4,180.9 M206.8,179.4c0.4,0.4,0.2,1.5-0.6,3
		c-0.7-0.2-1.5-0.3-2.3-0.4l-0.3-1.6l-0.1-0.3C205.1,179.1,206.4,178.9,206.8,179.4 M208.8,184.3c0,0.6-0.8,1.2-2.2,1.7l-1.4-1.8
		l1.2-1.6C207.9,183.1,208.8,183.7,208.8,184.3 M204,183.1l-0.1-1c0.8,0.1,1.5,0.2,2.1,0.4l-1.1,1.6L204,183.1 M204.1,183.5l0.8,0.7
		l-0.7,0.8L204.1,183.5 M204.1,185.3l0.8-0.9l1.3,1.7c-0.6,0.2-1.4,0.3-2.2,0.4L204.1,185.3 M207.1,189c-0.4,0.5-1.8,0.4-3.5-0.5
		l0.2-0.7l0.4-0.5l-0.1-0.4l0-0.2c0.8-0.1,1.6-0.3,2.3-0.5C207.2,187.5,207.5,188.6,207.1,189 M202.8,182l0.8,0.1l0,0.6l-0.4-0.4
		l-0.3-0.2L202.8,182 M200.9,181.7l0.2-0.1l0.2-0.2l0.5,0.3h-0.4H200.9 M199.1,182.9l0.1-0.8l1-0.1L199.1,182.9 M203.1,186l-0.7,0.6
		l-0.9,0l-0.9,0l-0.6-0.5l-0.9-0.8l0-1v-0.7l1.6-1.6l0.9,0l0.7,0l0.6,0.4l0.1,0.1l0.6,0.5c0,0.9,0,1.8-0.1,2.5L203.1,186
		 M203.5,186.6l-0.7,0l0.5-0.4l0.3-0.2L203.5,186.6 M203.4,186.8l-0.3,0.5l0.3,0.5l-0.1,0.6l-1.5-0.9l0.8-0.6L203.4,186.8
		L203.4,186.8z M202.2,191l-0.8,0.5c-0.6,0-1.3-1-1.8-2.7l2-1.3l1.6,1C203,189.4,202.7,190.4,202.2,191 M200.9,186.9h0.6l0.7,0
		l-0.6,0.5L200.9,186.9 M199.2,186.7l1.4,0.1l0.9,0.6l-1.9,1.2L199.2,186.7 M199.1,185.6l0.8,0.7l0.4,0.3l-1.1-0.1L199.1,185.6
		 M197.9,184.1l-1.2-1.5c0.6-0.2,1.4-0.3,2.2-0.4l-0.1,1L197.9,184.1 M198.9,185.1l-0.6-0.6l0.6-0.7l0,0.5L198.9,185.1 M197.8,185.3
		l0.4-0.6l0.7,0.7l0.1,1.1l-1.9-0.4l0.1-0.2l0.1,0l0.6-0.5L197.8,185.3 M196.2,189.3l0-1.6l0.7-1.3l2.1,0.4l0.4,2.1
		C197.8,189.6,196.6,189.7,196.2,189.3 M196.6,186.2l-0.6,1.5l0.1,1.8c0.5,0.6,1.8,0.4,3.4-0.4c0.5,1.7,1.2,2.8,2,2.8
		c0.7,0,1.4-0.9,1.9-2.3l0.3-0.8c1.7,0.9,3.2,1.1,3.7,0.4c0.5-0.6,0.2-1.7-0.6-3c1.5-0.5,2.4-1.1,2.4-1.9c0-0.8-1-1.5-2.6-1.9
		c0.8-1.4,1.1-2.6,0.6-3.2c-0.6-0.6-1.9-0.4-3.6,0.6c-0.5-1.8-1.2-3-2-3c-0.8,0-1.5,1.1-2,2.8l-0.3-0.2l-0.5-0.3l-0.4,0.2l-1.3-0.1
		l-1.2,0.4c-0.5,0.6-0.2,1.7,0.6,2.9c-1.5,0.5-2.4,1.1-2.4,1.9C194,185.1,195,185.8,196.6,186.2"/>
	<polyline points="201.5,183 200.2,184.3 201.5,185.7 202.9,184.3 201.5,183 	"/>
	<path d="M175.4,192.1c1-0.7,1.2-2.1,1.2-2.1l1,4.8l1-4.6c0.3,0.2,0.9,0.4,1,1.6c0.1,1.5,1,2.5,1.4,2.7c-0.4-1-0.4-1.8-0.1-2.7
		l-0.6-2.4l4.1,2.7l-2.7-4l2,0.4l2.9,0.9c-1-0.5-1.6-1-2-1.9l-2.1-1.3l4.6-1l-4.7-1c0,0,0.3-1,1.9-1.1c1.6,0,2.3-1,2.4-1.5
		c-1,0.4-1.6,0.4-2.7,0.1c-1.1-0.3-2.4,0.8-2.4,0.8l2.7-4.2l-4.1,2.7c0,0-0.4-1.2,0.4-1.9c0.8-0.7,1-2.5,0.8-3c-0.4,1-0.7,1.5-1.8,2
		c-1.1,0.5-1.2,2.1-1.2,2.1l-1-4.8l-0.9,4.7c-0.5-0.4-1-0.7-1.1-1.6c-0.1-0.9-1-2.5-1.4-2.7c0.4,1,0.3,1.6,0,2.7
		c-0.3,1.1,0.4,2.2,0.7,2.5l-4.2-2.9l2.7,4.1l-1.8-0.3l-3-0.8c1,0.4,1.5,0.9,2,1.8l2.1,1.2l-4.6,1l4.7,1c-0.5,0.5-0.4,0.8-1.7,0.8
		c-1.2,0-2.5,1-2.7,1.5c1-0.4,1.8-0.3,2.7-0.1c0.9,0.3,2.3-0.5,2.3-0.5l-2.7,4.1l4.2-2.9c0,0,0.3,0.9-0.6,1.9
		c-0.9,1.1-1.1,2.5-0.9,2.9C174,193,174.4,192.7,175.4,192.1"/>
	<path d="M217.9,220.8h0.4l-0.9,13.5H217L217.9,220.8z M220.8,223.5v8.2h-2.8l0.5-8.2L220.8,223.5z M218.6,220.8l2.1,0v2.4h-2.3
		L218.6,220.8z M221.1,232.9l2.9,0l0.1,1.4h-3V232.9z M221.1,232.1h2.8l0,0.4h-2.8V232.1z M221.1,223.5l2.3,0l0.6,8.2h-2.8V223.5z
		 M221.1,220.8l2.1,0l0.1,2.4h-2.2V220.8z M223.9,220.8l0.9,13.5h-0.4l-0.9-13.5H223.9z M220.8,232.5h-2.9l0.1-0.4h2.8V232.5z
		 M220.8,234.2h-3l0.1-1.4l2.9,0V234.2z M213.6,234.6h14.5v-0.3h-3.1l-0.9-13.6l-0.3-0.2h-6l-0.3,0.2l-0.9,13.6h-3L213.6,234.6"/>
	<polyline points="217.4,220.1 224.4,220.1 224.6,220 224.4,219.8 221.3,219.8 221,216.3 220.6,219.8 217.4,219.8 217.2,220
		217.4,220.1 	"/>
	<polygon points="221.3,207.8 220.9,207.7 220.6,207.8 220.9,211.4 	"/>
	<polygon points="218.5,213.8 214.9,213.4 214.8,213.8 214.9,214.2 	"/>
	<polygon points="227,214.2 227.1,213.8 227,213.4 223.4,213.8 	"/>
	<polygon points="216.9,209.2 216.4,209.8 219.2,212.1 	"/>
	<polyline points="225.5,217.8 222.7,215.5 225,218.4 225.5,217.8 	"/>
	<polygon points="225.5,209.8 225,209.2 222.6,212.1 	"/>
	<polygon points="219.3,215.6 216.4,217.8 216.9,218.4 	"/>
	<polygon points="219,208.1 218.2,208.3 220,211.6 	"/>
	<polygon points="222.9,219.6 223.6,219.3 221.9,216.1 	"/>
	<polygon points="223.6,208.4 222.9,208.1 221.9,211.6 	"/>
	<polyline points="219,219.6 220,216.1 218.2,219.3 219,219.6 	"/>
	<polygon points="215.5,211.1 215.2,211.9 218.7,212.9 	"/>
	<polyline points="226.7,215.8 223.2,214.7 226.4,216.5 226.7,215.8 	"/>
	<polygon points="226.7,211.9 226.4,211.1 223.2,212.9 	"/>
	<polyline points="215.5,216.5 218.7,214.7 215.2,215.8 215.5,216.5 	"/>
	<polygon points="220.3,209.9 220,209.9 220.4,211.4 	"/>
	<polygon points="221.6,217.8 221.9,217.7 221.4,216.2 	"/>
	<polygon points="217,214.5 217,214.8 218.6,214.3 	"/>
	<polyline points="224.8,212.9 223.3,213.3 224.9,213.2 224.8,212.9 	"/>
	<polyline points="217.5,211.8 218.9,212.5 217.7,211.5 217.5,211.8 	"/>
	<polygon points="223,215.2 224.2,216.2 224.4,215.9 	"/>
	<polyline points="223,210.4 222.3,211.8 223.3,210.6 223,210.4 	"/>
	<polygon points="218.6,217.1 218.9,217.3 219.6,215.9 	"/>
	<polyline points="218.6,210.6 219.6,211.8 218.8,210.4 218.6,210.6 	"/>
	<polygon points="223,217.2 223.3,217 222.3,215.8 	"/>
	<polyline points="221.6,209.9 221.4,211.4 221.9,209.9 221.6,209.9 	"/>
	<polyline points="220.3,217.8 220.4,216.2 220,217.7 220.3,217.8 	"/>
	<polygon points="218.6,213.4 217,212.9 217,213.2 	"/>
	<polygon points="223.3,214.3 224.8,214.7 224.9,214.4 	"/>
	<polyline points="224.2,211.5 223,212.5 224.4,211.7 224.2,211.5 	"/>
	<polygon points="218.9,215.2 217.5,215.9 217.7,216.2 	"/>
	<polyline points="220.9,214.4 221.6,213.8 220.9,213.2 220.3,213.8 220.9,214.4 	"/>
	<polyline points="221,214.9 220.6,214.8 220.4,215.6 220.9,215.8 221.5,215.6 221.3,214.8 221,214.9 	"/>
	<polyline points="221,212.8 221.3,212.8 221.5,212.1 220.9,211.9 220.4,212 220.6,212.9 221,212.8 	"/>
	<polyline points="222.9,213.8 222.7,213.2 221.9,213.4 222,213.8 221.9,214.2 222.7,214.4 222.9,213.8 	"/>
	<polyline points="219,213.8 219.2,214.4 220,214.2 219.9,213.8 220,213.4 219.2,213.2 219,213.8 	"/>
	<polyline points="221.7,214.6 221.6,214.7 221.9,215.5 222.3,215.2 222.6,214.8 221.8,214.5 221.7,214.6 	"/>
	<polyline points="220.2,213 220.3,213 220,212.2 219.6,212.4 219.3,212.9 220.1,213.2 220.2,213 	"/>
	<polygon points="221.6,213 221.8,213.1 221.8,213.2 222.6,212.9 222.3,212.5 221.9,212.2 	"/>
	<polyline points="220.1,214.5 219.3,214.8 219.5,215.2 220,215.4 220.3,214.7 220.1,214.5 220.1,214.5 	"/>
	<polygon points="233,213 227.4,213.8 227.4,215.5 233,216.7 	"/>
	<polygon points="233,212.5 227.4,213.4 227.4,213.6 233,212.7 	"/>
	<polygon points="233,217 227.4,215.7 227.4,215.9 233,217.2 	"/>
	<path d="M163.5,173.8h67.7l-26.1,24.6h7.3L199,214.3l5.2,0.2L184.5,243l28.6-32.8l-5.7-0.4l17.2-15.1l-7.1,0.9l20.1-17.2v37
		c0,31.2-36.9,55.2-36.9,55.2s-37.2-26.7-37.2-54.7V173.8z M160.5,215.9c0,29.2,36.8,56,38.4,57.1l1.7,1.2l1.7-1.1
		c1.6-1,38.2-25.3,38.2-57.7v-44.5l-80,0V215.9z"/>
	<g>
		<path d="M171.1,161.2l1.6-0.6c0.9,0,1.6,0.2,2.1,0.6l0.1,0.1l0.1-0.1l1.6-0.6c2.2,0,3.1,1.8,3.7,2.9l0.1,0.3l0.2,0.4
			c0.3,0.7,0.8,1.7,1.5,2.5c-0.5,0.6-0.9,1-2.6,1c-1.4,0-2-0.4-2.8-0.9l-0.1-0.1l-0.1,0.1c-0.6,0.6-1.3,0.8-2.4,0.8
			c-1.8,0-3.7-1.3-3.7-4.1C170.3,162.6,170.6,161.8,171.1,161.2 M181.8,160.6c1.4,0,2.1,0.3,2.6,0.6v0c1,0.7,1.4,1.7,2.7,2.4
			c-0.8-1.2-2-2.4-1.2-3l0.6-0.1c2.2,0,3.1,1.8,3.6,2.9l0.1,0.2l0.2,0.4c0.3,0.7,0.8,1.8,1.7,2.7l-0.1,0.1c-0.4,0.5-0.6,0.8-2.2,0.8
			c-1.2,0-2-0.1-2.6-0.6l0,0c-0.8-0.7-1.2-2.2-2.7-2.5c1.1,1,2,2.2,1,3l-1.3,0.1c-1.9-0.2-3-2.4-3.6-3.6l-0.3-0.7l-1.3-1.9
			C179.6,161.1,180.7,160.6,181.8,160.6 M191.9,160.6c1.1,0,1.9,0.2,2.5,0.6v0c1.1,0.7,1.4,1.8,2.7,2.4c-0.7-1.1-1.8-2.1-1.5-2.8
			l1-0.3c2.2,0,3.1,1.8,3.6,2.9l0.1,0.2l0.2,0.4c0.3,0.7,0.8,1.8,1.7,2.6l-0.1,0.1c-0.4,0.5-0.6,0.8-2.2,0.8c-1.2,0-2-0.1-2.6-0.6
			l0,0c-0.8-0.7-1.2-2.2-2.7-2.5c1.1,1,2,2.2,1,3l-1.4,0.1c-1.9-0.2-3-2.4-3.5-3.6l-0.2-0.4l-0.1-0.3l-1.3-1.9
			C189.6,161.1,190.7,160.6,191.9,160.6 M202,160.6c1.6,0,2.3,0.4,2.8,0.8l0.1,0.1l0,0c0.9,0.7,1.3,1.7,2.5,2.3
			c-0.9-1.2-2.2-2.6-1.1-3.1l0.4-0.1c2.2,0,3.1,1.8,3.6,2.9l0.1,0.2l0.2,0.4c0.3,0.7,0.8,1.8,1.7,2.7l-0.1,0.1
			c-0.4,0.5-0.6,0.8-2.2,0.8c-1.2,0-2-0.1-2.6-0.6l0,0c-0.8-0.7-1.2-2.2-2.7-2.5c1.1,1,2,2.2,1,3l-1.3,0.1c-1.9-0.2-3-2.4-3.5-3.6
			l-0.3-0.7l-1.2-1.9C199.7,161.1,200.8,160.6,202,160.6 M212,160.6c1.1,0,1.9,0.2,2.6,0.6v0l0.2,0.1c0.9,0.7,1.3,1.7,2.5,2.3
			c-0.8-1.1-2-2.3-1.4-2.9l0.8-0.2c2.2,0,3.1,1.8,3.7,2.9l0.1,0.2l0.2,0.4c0.3,0.7,0.8,1.8,1.6,2.6l-0.1,0.1
			c-0.4,0.5-0.6,0.8-2.2,0.8c-1.2,0-2-0.1-2.6-0.6l0,0c-0.7-0.7-1.2-2.2-2.7-2.5c1.1,1,2,2.2,1.1,3l-1.4,0.1c-1.9-0.2-3-2.4-3.6-3.6
			l-0.3-0.7l-1.3-1.9C209.7,161.1,210.9,160.6,212,160.6 M222.1,160.6c1.2,0,2.1,0.2,2.8,0.8l0.1,0.1v0c0.8,0.7,1.2,1.6,2.5,2.2
			c-0.8-1.1-2-2.3-1.4-2.9l0.8-0.2c2.1,0,3,1.2,3.9,2.5l0.3,0.5l0.8,2.7c-0.2,0.7-0.5,1.4-1.6,1.4c-1.2,0-2-0.1-2.6-0.6l0,0
			c-0.7-0.7-1.2-2.2-2.7-2.5c1.1,1,1.9,2.2,1.1,3l-1.5,0.1c-1.9-0.2-2.9-2.4-3.5-3.6l-0.2-0.4l-0.1-0.3l-1.2-1.9
			C219.8,161.1,220.9,160.6,222.1,160.6 M171.7,167.5c0.8,0.9,1.9,1.3,3,1.3l2.5-0.8c0.7,0.5,1.5,0.8,2.8,0.9c1.7,0,2.4-0.5,2.8-1
			l1.9,0.9c0.8,0.1,2.3-0.1,3-0.5c0.7,0.4,1.5,0.6,2.7,0.6c1.7,0,2.1-0.3,2.6-0.9l1.8,0.8c0.8,0.1,2.3-0.1,3-0.5
			c0.7,0.4,1.5,0.6,2.7,0.6c1.7,0,2.1-0.3,2.6-0.9l1.8,0.8c0.8,0.1,2.3-0.1,3-0.5c0.7,0.4,1.5,0.6,2.7,0.6c1.7,0,2.1-0.3,2.6-0.9
			l1.8,0.8c0.9,0.1,2.3-0.1,3-0.5c0.7,0.4,1.5,0.6,2.7,0.6c1.7,0,2.1-0.3,2.6-0.9l1.8,0.8c0.9,0.1,2.3-0.1,3-0.5
			c0.7,0.4,1.5,0.6,2.7,0.6c1.5,0,1.9-1,2.1-1.8c0.3-1-0.4-2.5-0.8-3.1l-0.4-0.5c-0.5-0.7-1-1.5-1.8-2c-0.7-0.7-1.6-1.3-3.2-1.3
			l-1.8,0.7c-0.7-0.5-1.7-0.7-2.9-0.7c-1.1,0-2.3,0.4-2.9,0.8c-0.6-0.5-1.4-0.8-2.4-0.8l-1.8,0.7c-0.7-0.5-1.7-0.7-2.9-0.7
			c-1.1,0-2.3,0.4-2.9,0.8c-0.6-0.5-1.4-0.8-2.4-0.8l-1.9,0.7c-0.7-0.5-1.7-0.7-2.9-0.7c-1.2,0-2.3,0.4-2.9,0.8
			c-0.6-0.5-1.4-0.8-2.4-0.8l-1.9,0.7c-0.7-0.5-1.7-0.7-2.9-0.7c-1.1,0-2.3,0.4-2.9,0.8c-0.6-0.5-1.4-0.8-2.4-0.8l-1.9,0.7
			c-0.7-0.5-1.7-0.7-2.9-0.7c-1.1,0-2.3,0.4-2.9,0.8c-0.6-0.5-1.4-0.8-2.4-0.8l-1.7,0.6c-0.6-0.4-1.2-0.5-2.2-0.6l-1.9,0.7
			c-0.6,0.6-1,1.6-1,2.7C169.8,165.4,170.6,166.7,171.7,167.5"/>
		<path d="M180.3,169.1c0,0-0.1,0-0.1,0c-1.4,0-2.2-0.3-2.9-0.8l-2.5,0.8c-1.2,0-2.4-0.5-3.2-1.4c-1.3-0.9-2-2.3-2-4.1
			c0-1.2,0.4-2.2,1.1-2.9l0,0l2-0.7l0.1,0c0.9,0,1.6,0.2,2.2,0.5l1.6-0.6h0.1c0.9,0,1.7,0.3,2.4,0.8c0.6-0.4,1.7-0.8,2.9-0.8
			c1.2,0,2.1,0.2,2.9,0.7l1.8-0.7h0.1c0.9,0,1.7,0.3,2.4,0.8c0.7-0.4,1.8-0.8,2.9-0.8c1.2,0,2.1,0.2,2.9,0.7l1.8-0.7h0.1
			c0.9,0,1.7,0.3,2.4,0.8c0.7-0.4,1.8-0.8,2.9-0.8c1.2,0,2.1,0.2,2.9,0.7l1.8-0.7h0.1c0.9,0,1.7,0.3,2.4,0.8
			c0.7-0.4,1.8-0.8,2.9-0.8c1.2,0,2.1,0.2,2.9,0.7l1.8-0.7h0.1c0.9,0,1.7,0.3,2.4,0.8c0.7-0.4,1.8-0.8,2.9-0.8
			c1.2,0,2.1,0.2,2.9,0.7l1.8-0.7h0.1c1.4,0,2.4,0.4,3.4,1.4c0.8,0.6,1.3,1.3,1.8,2l0.4,0.6c0.4,0.6,1.2,2.2,0.9,3.3
			c-0.3,1.3-1.1,2-2.4,2c-1.1,0-2-0.1-2.7-0.5c-0.8,0.4-2.2,0.5-3,0.4l0,0l-1.7-0.7c-0.5,0.6-1.1,0.8-2.6,0.8c-1.1,0-2-0.1-2.7-0.5
			c-0.8,0.4-2.2,0.5-3,0.4l0,0l-1.7-0.7c-0.5,0.5-1.1,0.8-2.7,0.8c-1.1,0-2-0.1-2.7-0.5c-0.8,0.4-2.2,0.5-3,0.4l0,0l-1.7-0.7
			c-0.5,0.6-1.1,0.8-2.6,0.8c-1.1,0-2-0.1-2.7-0.5c-0.8,0.4-2.2,0.5-3,0.4l0,0l-1.7-0.7c-0.5,0.5-1.1,0.8-2.7,0.8
			c-1.1,0-2-0.1-2.7-0.5c-0.8,0.4-2.2,0.5-3,0.4l-0.1,0l-1.8-0.8C182.6,168.7,181.8,169.1,180.3,169.1z M177.3,167.6l0.1,0.1
			c0.7,0.5,1.4,0.8,2.7,0.8c1.7,0,2.2-0.4,2.6-0.9l0.1-0.2l0,0c-0.2-0.2-0.5-0.3-0.7-0.5c-0.5,0.6-1.1,1.1-2.8,1.1
			c-1.4,0-2.1-0.4-2.8-0.9c-0.6,0.6-1.4,0.8-2.5,0.8c-0.6,0-1.2-0.1-1.8-0.4c0.7,0.6,1.5,0.9,2.4,0.9L177.3,167.6z M228.2,167.9
			l0.2,0.1c0.5,0.4,1.3,0.5,2.5,0.5c1,0,1.6-0.5,1.8-1.6c0.2-0.9-0.4-2.3-0.8-2.8l-0.4-0.6c-0.4-0.5-0.7-1.1-1.3-1.5
			c0.2,0.3,0.5,0.6,0.7,1l0.4,0.6l0.8,2.7l0,0.1c-0.2,0.8-0.6,1.7-1.9,1.7c-1.3,0-2.2-0.1-2.8-0.6l-0.3-0.2l0.1-0.1
			c-0.2-0.2-0.3-0.4-0.5-0.6c-0.1-0.1-0.1-0.2-0.2-0.3c0.1,0.2,0.1,0.4,0.1,0.6c0,0.4-0.1,0.7-0.4,0.9l-0.1,0.1l-1.6,0.1l0,0
			c-0.7-0.1-1.3-0.4-1.8-0.9l-0.1,0.1c-0.4,0.6-0.8,0.9-2.5,0.9c-1.3,0-2.1-0.1-2.8-0.6l-0.3-0.2l0.1-0.1c-0.2-0.2-0.3-0.4-0.5-0.6
			c-0.1-0.1-0.1-0.2-0.2-0.3c0.1,0.2,0.1,0.4,0.1,0.6c0,0.4-0.2,0.7-0.5,1l-0.1,0.1l-1.5,0.1l0,0c-0.7-0.1-1.4-0.4-1.9-0.9l-0.1,0.1
			c-0.4,0.6-0.8,0.9-2.4,0.9c-1.3,0-2.1-0.1-2.8-0.6l-0.3-0.2l0.1-0.1c-0.2-0.2-0.3-0.4-0.5-0.7c0-0.1-0.1-0.1-0.1-0.2
			c0.1,0.2,0.1,0.4,0.1,0.6c0,0.4-0.2,0.7-0.6,1l-0.1,0.1l-1.5,0.1l0,0c-0.7-0.1-1.3-0.4-1.9-0.9l-0.1,0.1c-0.4,0.6-0.7,0.9-2.5,0.9
			c-1.3,0-2.1-0.1-2.8-0.6l-0.3-0.2l0-0.1c-0.2-0.2-0.3-0.4-0.5-0.7c0-0.1-0.1-0.1-0.1-0.2c0.1,0.2,0.1,0.4,0.1,0.6
			c0,0.4-0.2,0.7-0.5,0.9l-0.1,0.1l-1.5,0.1l0,0c-0.7-0.1-1.3-0.4-1.9-0.9l-0.1,0.1c-0.4,0.6-0.8,0.9-2.4,0.9
			c-1.3,0-2.1-0.1-2.8-0.6l-0.3-0.2l0-0.1c-0.2-0.2-0.3-0.4-0.5-0.7c-0.1-0.1-0.1-0.1-0.2-0.2c0.1,0.2,0.1,0.4,0.1,0.6
			c0,0.4-0.2,0.7-0.5,1l-0.1,0.1l-1.5,0.1l0,0c-0.2,0-0.4-0.1-0.6-0.1l1.4,0.6c0.9,0.1,2.2-0.1,2.8-0.4l0.2-0.1l0.2,0.1
			c0.6,0.4,1.3,0.5,2.5,0.5c1.6,0,2-0.3,2.3-0.8l0.1-0.2l2,0.8c0.9,0.1,2.2-0.1,2.8-0.4l0.2-0.1l0.2,0.1c0.6,0.4,1.3,0.5,2.6,0.5
			c1.6,0,1.9-0.3,2.3-0.8l0.1-0.2l2,0.8c0.9,0.1,2.2-0.1,2.8-0.4l0.2-0.1l0.2,0.1c0.6,0.4,1.3,0.5,2.5,0.5c1.6,0,2-0.3,2.3-0.8
			l0.1-0.2l2,0.8c0.9,0.1,2.2-0.1,2.8-0.4l0.2-0.1l0.2,0.1c0.6,0.4,1.3,0.5,2.6,0.5c1.6,0,1.9-0.3,2.3-0.8l0.1-0.2l2,0.8
			c0.9,0.1,2.2-0.1,2.8-0.4L228.2,167.9z M176.5,166.3l0.3,0.3c0.7,0.5,1.3,0.8,2.6,0.8c1.4,0,1.9-0.3,2.2-0.7
			c-0.7-0.8-1.1-1.7-1.4-2.3l-0.3-0.7c-0.5-1.1-1.3-2.7-3.3-2.8l-1.5,0.6l-0.3,0.2l-0.3-0.2c-0.4-0.3-1-0.5-1.9-0.5l-1.4,0.5
			c-0.4,0.5-0.7,1.2-0.7,2.1c0,1.8,1.1,3.8,3.4,3.8c1,0,1.6-0.2,2.2-0.7L176.5,166.3z M227.8,167c0.5,0.3,1.2,0.4,2.3,0.4
			c0.8,0,1.1-0.4,1.3-1.1l-0.7-2.5l-0.3-0.5c-0.9-1.3-1.6-2.3-3.6-2.3l-0.6,0.1c-0.2,0.3,0.4,1.1,0.9,1.7c0.2,0.2,0.4,0.5,0.5,0.7
			l0.7,1l-1.1-0.5c-0.8-0.4-1.3-0.9-1.7-1.4c-0.2-0.2-0.3-0.4-0.5-0.5l-0.4-0.4c-0.6-0.5-1.4-0.7-2.6-0.7c-0.9,0-1.8,0.3-2.3,0.6
			l1.1,1.7l0.4,0.7c0.6,1.2,1.6,3.2,3.2,3.3l1.3-0.1c0.1-0.1,0.2-0.3,0.2-0.4c0-0.5-0.5-1.2-1.4-2l-0.9-0.8l1.1,0.3
			c1.1,0.3,1.7,1.1,2.2,1.8C227.4,166.4,227.5,166.7,227.8,167L227.8,167z M217.8,167c0.5,0.3,1.3,0.4,2.3,0.4
			c1.4,0,1.6-0.2,1.9-0.6c-0.6-0.7-1.1-1.5-1.5-2.5l-0.2-0.4l-0.1-0.2c-0.5-1-1.3-2.8-3.4-2.8l-0.6,0.2c-0.2,0.3,0.4,1.1,0.9,1.8
			c0.2,0.2,0.4,0.5,0.5,0.7l0.7,1l-1.1-0.5c-0.8-0.4-1.3-1-1.7-1.5c-0.3-0.3-0.5-0.6-0.8-0.9l-0.3-0.2c-0.6-0.3-1.3-0.5-2.3-0.5
			c-0.9,0-1.8,0.3-2.3,0.6l1.1,1.7l0.3,0.7c0.6,1.1,1.6,3.2,3.3,3.4l1.3-0.1c0.1-0.1,0.2-0.3,0.2-0.4c0-0.5-0.5-1.2-1.3-2l-0.9-0.8
			l1.1,0.3c1.1,0.3,1.7,1.1,2.2,1.8C217.3,166.4,217.5,166.7,217.8,167L217.8,167z M207.7,167c0.5,0.3,1.3,0.4,2.3,0.4
			c1.3,0,1.6-0.2,1.9-0.6c-0.7-0.8-1.2-1.8-1.5-2.5l-0.3-0.7c-0.5-1.1-1.3-2.8-3.4-2.8l-0.3,0c-0.2,0.1-0.2,0.2-0.2,0.2
			c-0.1,0.4,0.5,1.1,1,1.7c0.2,0.2,0.3,0.4,0.5,0.7l0.7,1l-1.1-0.5c-0.8-0.4-1.3-0.9-1.7-1.5c-0.2-0.2-0.4-0.5-0.6-0.7l0,0l-0.4-0.3
			c-0.4-0.3-1.1-0.7-2.6-0.7c-0.9,0-1.8,0.3-2.3,0.6l1.1,1.7l0.3,0.7c0.5,1.1,1.6,3.2,3.3,3.4l1.2-0.1c0.2-0.1,0.2-0.3,0.3-0.5
			c0-0.5-0.4-1.1-1.3-2l-0.8-0.8l1.1,0.3c1.1,0.3,1.7,1.1,2.2,1.8C207.2,166.4,207.4,166.7,207.7,167L207.7,167z M197.7,167
			c0.5,0.3,1.2,0.4,2.3,0.4c1.4,0,1.6-0.2,1.9-0.6c-0.7-0.8-1.2-1.7-1.5-2.5l-0.2-0.4l-0.1-0.2c-0.5-1-1.3-2.7-3.3-2.8l-0.8,0.2
			c0,0.4,0.5,1.1,1,1.6c0.2,0.2,0.4,0.5,0.5,0.7l0.7,1l-1.1-0.5c-0.8-0.4-1.3-0.9-1.7-1.5c-0.3-0.4-0.6-0.7-1.1-1l-0.1-0.1
			c-0.5-0.3-1.3-0.4-2.2-0.4c-0.9,0-1.8,0.3-2.3,0.6l1.1,1.7l0.1,0.3l0.2,0.4c0.5,1.1,1.6,3.2,3.3,3.4l1.3-0.1
			c0.1-0.1,0.2-0.3,0.2-0.4c0-0.5-0.4-1.1-1.4-2l-0.8-0.8l1.1,0.3c1.1,0.3,1.7,1.1,2.2,1.8C197.2,166.4,197.4,166.7,197.7,167
			L197.7,167z M187.6,167c0.5,0.3,1.3,0.4,2.3,0.4c1.4,0,1.6-0.2,1.9-0.6c-0.8-0.9-1.2-1.8-1.5-2.5l-0.3-0.6c-0.5-1-1.3-2.7-3.3-2.8
			l-0.5,0.1c-0.3,0.3,0.2,1,0.9,1.9c0.2,0.2,0.3,0.4,0.5,0.6l0.7,1l-1.1-0.5c-0.8-0.4-1.3-1-1.7-1.5c-0.3-0.4-0.6-0.7-1-1l-0.1-0.1
			c-0.4-0.2-1.1-0.5-2.3-0.5c-0.9,0-1.8,0.3-2.3,0.6l1.1,1.7l0.3,0.7c0.6,1.1,1.6,3.2,3.3,3.3l1.2-0.1c0.2-0.1,0.2-0.3,0.2-0.5
			c0-0.3-0.2-0.9-1.3-2l-0.9-0.8l1.1,0.3c1.1,0.3,1.7,1.1,2.2,1.8C187.1,166.4,187.3,166.7,187.6,167L187.6,167z M184.8,161.2
			c0.3,0.2,0.6,0.5,0.8,0.8c-0.2-0.4-0.3-0.7-0.1-1.1L184.8,161.2z M204.9,161.2l0.1,0.1c0.2,0.2,0.5,0.4,0.6,0.6
			c-0.1-0.3-0.2-0.5-0.1-0.8c0-0.1,0-0.1,0.1-0.2L204.9,161.2z M225.1,161.2L225.1,161.2c0.3,0.2,0.4,0.4,0.6,0.6
			c-0.1-0.3-0.2-0.6-0.1-0.9L225.1,161.2C225.1,161.2,225.1,161.2,225.1,161.2L225.1,161.2z M215,161.2L215,161.2
			c0.2,0.2,0.4,0.4,0.6,0.6c-0.1-0.3-0.2-0.6-0.1-0.8L215,161.2z M194.8,161.2c0.2,0.2,0.4,0.4,0.6,0.6c-0.1-0.3-0.2-0.5-0.1-0.7
			L194.8,161.2z"/>
	</g>
	<path d="M176.5,165.7c0.2,0.2,1.2,1.4,2.6,1.4c1.3,0,2.1-0.3,2.2-0.9c-0.1,0.1-1.1,0.4-2,0.4c-2.6,0-2.8-5.1-6-4.8
		C175.8,162.6,176,165.3,176.5,165.7"/>
	<path d="M183.5,164c1.9-0.2,2.3,0.8,2.6,1.1c0.2,0.2,2.2,1.8,3.5,1.6c0.9-0.1,1.5-0.4,1.6-1l-1.4,0.5c-2.5,0.2-4.3-4.9-7.3-4.6
		l-1.3,0.6C181.6,162.1,181.8,164.1,183.5,164"/>
	<path d="M193.6,164c1.9-0.2,2.3,0.8,2.6,1c0.2,0.2,2.2,1.7,3.5,1.6c0.9-0.1,1.5-0.4,1.6-1l-1.4,0.5c-2.5,0.2-4.3-4.8-7.3-4.5
		l-1.3,0.5C191.7,162.2,191.9,164.2,193.6,164"/>
	<path d="M203.6,164c1.9-0.2,2.4,0.8,2.6,1.1c0.2,0.2,2.2,1.8,3.5,1.6c0.9-0.1,1.5-0.4,1.6-1l-1.4,0.5c-2.5,0.2-4.3-4.8-7.4-4.6
		l-1.3,0.6C201.8,162.1,201.9,164.2,203.6,164"/>
	<path d="M213.7,163.9c1.8-0.2,2.2,0.8,2.5,1c0.2,0.2,2.1,1.7,3.3,1.6c0.8-0.1,1.4-0.4,1.5-1l-1.4,0.5c-2.4,0.2-4.1-4.6-7-4.4
		l-1.3,0.5C211.9,162.1,212,164,213.7,163.9"/>
	<path d="M223.8,163.9c1.8-0.2,2.3,0.8,2.5,1c0.2,0.2,2.1,1.7,3.4,1.6c0.9-0.1,0.7-0.5,0.1-0.5c-2.4,0.2-4.2-4.6-7.2-4.4l-1.3,0.5
		C222,162.1,222.1,164,223.8,163.9"/>
	<path d="M201.9,152.9L201.9,152.9L201.9,152.9c-0.8,0.3-2.1,0.8-2.1,0.8l-0.2,0.1l0.5,0.3l1.1-0.4c-0.6,1-1.3,3.1-1.4,3.2l0.2,0.1
		l1.5-3.4l1.7-0.6l-0.7-0.2L201.9,152.9"/>
	<polyline points="203.7,142.7 203.7,142.7 203.5,143 203.4,142.9 203.2,142.7 203.1,142.6 203.1,142.8 203.7,143.5 204.2,142.3
		204.2,141.9 204,140.2 204,141.4 203.9,141.6 203.7,142.7 	"/>
	<polyline points="208.9,145.1 208.9,145.3 208.6,145.7 208.5,146.1 209.3,147.5 210.1,148.4 210.4,149.2 210.3,148.2 210.1,147.6
		209.3,146.7 208.9,146.3 208.9,146 209.1,145.7 209.3,144.8 209.3,144.6 209.1,144.1 208.9,143.9 208.4,143.5 208.7,144
		208.9,145.1 	"/>
	<path d="M210.8,148.7v0.6l0.2,0.5l0.4,0.5l-0.2-0.7l-0.1-1.4l0-1.2l-0.3-0.8l-0.4-0.2l-1-0.6l0.6,0.6
		C210.8,146.9,210.8,147.8,210.8,148.7"/>
	<path d="M200.2,151.5c0.4-0.3,0.9-0.6,1.3-1.6l0.1-0.6l0.1-0.3l-0.2,0c-0.3,1.2-1.2,2-1.4,2.2l-0.4-0.3l-0.1-0.1l-0.4-0.5l0.1,0.4
		v0.2l0.2,0.4l0.1,0.1L200.2,151.5"/>
	<polygon points="198.1,147 198.1,147 198,147 197.6,147.5 195.8,149.5 195.8,149 195.8,148.4 196.5,146.9 196,147.4 195.6,148.3
		195.4,149.2 195.4,149.4 195.4,149.3 195.7,150.2 195.7,150.3 195.8,150.2 197.8,147.6 198.2,147 	"/>
	<path d="M202.6,104.3l0.7,1l-0.5,8.4l-0.3,1.8l-1.5,0.5h-0.4l0,0.6l6,0.4l0.1-0.6l-0.4,0l-1.4-0.8l-0.1-1.7l0.5-8.3
		c0-0.7,0-1.1,0.8-1.1c1.9,0.1,3.4,1.5,4.1,3.1l0.7-0.2L210,104l-11.2-0.6l-1.3,3.3l0.6,0.3C199.1,105.3,200.7,104.2,202.6,104.3"/>
	<path d="M218.4,112.1c0.9-3.5,3-5.4,5.9-4.7c3,0.7,3.8,3.8,2.9,7.1c-0.7,2.7-2.7,5.2-5.8,4.4C218.2,118.1,217.7,114.9,218.4,112.1
		 M221.1,119.8c3.7,1,7.4-1.1,8.4-4.9c1-3.9-1-7.5-4.9-8.5c-3.8-1-7.5,1.2-8.5,5C215.2,115.2,217.3,118.9,221.1,119.8"/>
	<path d="M230,119l-0.9,1.6l-1.5,0l-0.2-0.1l-0.2,0.5l5.1,2.2l0.2-0.5l-0.4-0.2c-1.5-0.7-0.9-1.6-0.4-2.8l1.4-3.3l1.1,0.5
		c1.7,0.8,2,1.5,1.4,3.3l0.5,0.2l2.3-5.2l-0.5-0.2c-1,1.8-1.5,1.9-3.4,1.1l-1.1-0.5l1.1-2.5l1-1.5l2,0.4c2.2,0.9,3.4,2.5,3.9,4.7
		l0.7,0l0-3.6l-9.8-4.3l-0.2,0.5l0.3,0.1c1.4,0.7,0.9,1.6,0.4,2.8L230,119z"/>
	<path d="M256.1,132.9l-0.3-0.6c-2.8,0.9-4.9,0.8-7.3-0.9l-1.3-1.6l0.6-1.3l2.2-3.1l1,0.7c0.7,0.5,1.3,1,1.2,1.9l-0.6,1.7l0.5,0.4
		l3.4-4.7L255,125c-1.3,1.4-1.9,1.6-3.5,0.4l-1.1-0.8l1.7-2.4l1.3-0.9l1.8,0.8c2.1,1.5,2.8,3.2,3,5.7l0.6,0.1l0.9-3.6l-9-6.4
		l-0.3,0.4l0.2,0.2c1.2,1,0.5,1.8-0.2,2.8l-4.2,5.8l-1.2,1.3l-1.5-0.3l-0.2-0.1l-0.3,0.5l9.2,6.6L256.1,132.9z"/>
	<path d="M256.7,135.1l-1.4,1.1l-1.4-0.5l-0.1-0.1l-0.4,0.4l3.3,3.3l0.4-0.4l-0.3-0.3c-1.1-1.2-0.3-1.8,0.6-2.8l6.1-6.2l-3,13.4
		l1.2,1.2l7.1-7.2l1.4-1.2l1.4,0.5l0.2,0.1l0.4-0.4l-3.4-3.3l-0.4,0.4l0.3,0.3c1.1,1.2,0.3,1.8-0.6,2.8l-5.2,5.3l2.8-11.9l-3-3
		l-0.4,0.4l0.2,0.2c1,1.2,0.2,1.8-0.7,2.7L256.7,135.1z"/>
	<path d="M272.3,141.1l-5.7,4.2l-1.6,0.9l-1.3-0.7l-0.1-0.1l-0.5,0.4l6.6,9.1l4.4-1l-0.1-0.7c-2.9,0-4.9-0.7-6.7-3.1l-0.7-1.9l0.9-1
		l3.1-2.3l0.7,1c0.5,0.7,0.9,1.3,0.6,2.2l-1.1,1.4l0.4,0.5l4.7-3.4l-0.4-0.5c-1.7,0.9-2.3,0.9-3.4-0.7l-0.8-1l2.4-1.8l1.5-0.5
		l1.4,1.3c1.5,2.1,1.7,3.9,1,6.3l0.6,0.4l2-3.1l-6.5-8.9l-0.5,0.3l0.2,0.3C274.2,139.8,273.3,140.4,272.3,141.1"/>
	<path d="M282.2,154.6l1.2-0.1l1.3,1.9c0.8,1.6,1.3,3.5-0.6,4.5l-2.5,0c-0.8-0.4-1.2-1.2-1.6-2l-1.3-2.6L282.2,154.6z M272.6,157.2
		l-1.2-1l-0.1-0.2l-0.5,0.3l2.6,5.1l0.5-0.3l-0.2-0.4c-0.6-1.5,0.3-1.8,1.5-2.5l2.8-1.5l1.2,2.4l-3.6,6.7l1.5,2.9l0.5-0.3
		c-0.3-1-0.2-1.7,0.3-2.6l2.5-4.8c1,1.6,2.8,2.6,4.6,1.6c2.4-1.2,1.9-3.7,0.9-5.7l-3.5-6.8l-0.5,0.3l0.2,0.3
		c0.7,1.5-0.3,1.8-1.5,2.4l-6.3,3.2L272.6,157.2"/>
	<path d="M282.9,165.8c-3.7,1.2-5.7,4.8-4.5,8.5c0.5,1.5,1.5,2.8,2.9,3.6l-1.1,1l0.3,0.9l3.1-1l1.8-0.4l1,1l0.1,0.1l0.5-0.2l-1.6-5
		l-0.6,0.2c0.3,1.2,0.1,1.9-1.2,2.4c-2,0.7-3.6-0.9-4.2-2.7c-0.5-1.4-0.1-2.9,0.8-4c0.9-1.1,2.1-1.7,3.4-2.1c2.5-0.8,6-0.8,6.9,2.1
		c0.7,2.2-0.6,4.3-1.9,6l0.4,0.6l3.5-2.4l-0.2-0.6l-1-0.1c0.4-1.2,0.4-2.8,0-4c-0.6-1.7-2-3.1-3.6-3.8
		C286.3,165.2,284.6,165.3,282.9,165.8"/>
	<path d="M291.1,179.2l-4.4,3.9l-2.4,0.4l-1.8,0.1l-0.9-1.3l-0.1-0.4l-0.6,0.1l1,5.9l0.6-0.1l-0.1-0.4c-0.3-1.6,0.8-1.8,2.1-2
		l2.4-0.4l5.2,2.2c1.4,0.6,2.3,1,2.8,2.5l0.6-0.1l-0.8-4.7l-0.6,0.1l-0.7,1.5l-1.1-0.2l-4.4-1.9l3.7-3.3l0.8-0.5l1.1,1.3l0.6-0.1
		l-0.9-5.4l-0.6,0.1C292.7,177.9,292.1,178.3,291.1,179.2"/>
	<path d="M105.4,180.7c0.3-1.4,1-2.9,2.2-3.7c1.3-0.9,3.1-0.9,4.5-0.6c3.5,0.7,5.4,3,4.6,6.6l-0.8,1.9l-1.6,0.1l-7.5-1.5l-1.4-0.6
		L105.4,180.7 M104,186.3c0.4-1.5,1.4-1.2,2.7-0.9l7,1.4l1.7,0.6l0.3,1.4v0.2l0.6,0.1l1.2-5.6c0.4-2,0.8-4-0.1-5.9
		c-0.9-1.8-2.6-3-4.6-3.4c-2-0.4-4.3,0.1-5.8,1.4c-1.4,1.4-2,3.4-2.4,5.3l-1.2,5.6l0.6,0.1L104,186.3z"/>
	<path d="M107.3,171.8c0.7-1.5,1.6-1,2.8-0.5l6.7,2.5l1.6,0.8l0.1,1.5l-0.1,0.2l0.6,0.2l3.9-10.5l-3.2-3.1l-0.5,0.5
		c1.6,2.5,2.1,4.5,1.1,7.3l-1.2,1.6l-1.4-0.2l-3.6-1.3l0.5-1.2c0.3-0.8,0.6-1.5,1.5-1.7l1.8,0.1l0.2-0.6l-5.4-2l-0.2,0.6
		c1.7,0.9,2,1.4,1.3,3.2l-0.5,1.2l-2.8-1l-1.2-1l0.3-1.9c0.9-2.4,2.3-3.6,4.7-4.3l0-0.7l-3.7,0l-3.9,10.4l0.6,0.2L107.3,171.8z"/>
	<path d="M116.6,152.8l1.7-1.7l2.4,0.3c0.7,0.4,1.3,0.9,1.5,1.8c0.3,1-0.1,1.7-0.6,2.6l-1.1,2.1l-3.8-2.2l-0.9-0.8L116.6,152.8
		 M113.6,157.7c0.9-1.3,1.7-0.7,2.8-0.1l6.2,3.5l1.5,1.1l-0.1,1.5l-0.1,0.2l0.5,0.3l2.8-4.9l-0.5-0.3l-0.2,0.3l-1.3,0.9l-1.6-0.7
		l-2.4-1.3l1.3-2.3c0.6-1,1.2-2.3,1-3.5c-0.2-1.1-0.8-2.1-1.8-2.6c-1.1-0.6-2.3-0.6-3.4,0c-1,0.6-1.7,1.5-2.2,2.5l-3.1,5.5l0.5,0.3
		L113.6,157.7z"/>
	<path d="M129.7,145l-2.6,3.5l-3.3-5.2L129.7,145z M128.5,153c0.4,0.9,0.4,1.3,0,2.2l-0.1,0.2l0.5,0.4l3.1-4.1l-0.4-0.3l-2.1,0.6
		l-1-1.3l-0.8-1.3l3-4l2.3,0.7l1,0.4l-0.2,1.8l0.4,0.4l3.3-4.3l-0.5-0.3c-1,1.2-2.1,0.7-3.3,0.3l-10.5-2.9l-1.1,1.4l4.7,7.6
		C127.4,151,128.1,152.2,128.5,153"/>
	<path d="M132.8,132.1l1.4-1.8c1.3-1.2,3-2.2,4.5-0.7c0.6,0.7,0.9,1.5,0.7,2.4c-0.2,0.9-0.8,1.5-1.5,2.1l-2.1,2l-2.7-2.9
		L132.8,132.1 M129.7,134.4c1.2-1.1,1.8-0.2,2.7,0.7l4.9,5.2l1.1,1.4l-0.6,1.4l-0.2,0.2l0.4,0.4l4.1-3.9l-0.4-0.4l-0.3,0.3
		c-1.2,1-1.9,0.2-2.8-0.7l-2.2-2.3l2-1.9l7.4,1.6l2.3-2.2l-0.4-0.4c-0.8,0.6-1.6,0.6-2.6,0.4l-5.2-1c1.2-1.4,1.7-3.4,0.3-4.9
		c-1.9-2-4.1-0.8-5.7,0.7l-5.6,5.3l0.4,0.4L129.7,134.4z"/>
	<path d="M142,127.1c-0.2-1.9,0.3-3.7,1.9-4.8l1.2,0.4l4.7,6.9l0.8,1.6l-0.8,1.3l-0.3,0.2l0.3,0.5l4.9-3.4l-0.3-0.5l-0.3,0.2
		l-1.6,0.3l-1.1-1.3l-4.7-6.9v-1.3c1.6-1,3.5-0.9,5.1,0l0.5-0.6l-2.8-2.2l-9.3,6.3l1,3.4L142,127.1z"/>
	<path d="M152.4,116.5c1.5-0.6,1.8,0.4,2.4,1.5l3.1,6.4l0.6,1.7l-1,1.2l-0.2,0.1l0.3,0.5l4.4-2.1l-0.3-0.5l-0.3,0.1l-1.6,0l-0.9-1.5
		l-4-8.2l9.3,8.9l0.8-0.4l-0.8-12.7l3.8,7.9l0.6,1.7l-0.9,1.1l-0.2,0.1l0.3,0.5l4.8-2.3l-0.3-0.5l-0.3,0.1c-1.5,0.6-1.8-0.4-2.4-1.5
		l-3.1-6.4l-0.6-1.7l0.9-1.1l0.2-0.1l-0.2-0.5l-3.9,1.9l0.7,10.7l-7.7-7.3l-4.1,2l0.2,0.5L152.4,116.5z"/>
	<path d="M170.4,108.1c1.6-0.3,1.7,0.7,2,2l1.8,6.9l0.2,1.8l-1.1,0.9l-0.2,0.1l0.1,0.6l10.9-2.8l0.7-4.4l-0.7-0.1
		c-1.1,2.7-2.5,4.3-5.4,5l-2.1-0.1l-0.6-1.2l-0.9-3.7l1.2-0.3c0.8-0.2,1.6-0.4,2.2,0.3l0.9,1.5l0.6-0.2l-1.4-5.6l-0.6,0.2
		c0.3,1.9,0,2.4-1.9,2.9l-1.3,0.3l-0.7-2.9l0.1-1.6l1.7-0.8c2.5-0.6,4.2-0.1,6.3,1.4l0.5-0.4l-2.2-3l-10.7,2.7l0.2,0.6L170.4,108.1z
		"/>
	<path d="M184.3,105.2c1.6,0,1.5,1,1.7,2.3l0.7,7.1v1.8l-1.3,0.8l-0.2,0l0.1,0.6l4.7-0.4l-0.1-0.6l-0.4,0c-1.6,0.1-1.6-0.9-1.7-2.3
		l-0.9-8.7l8.4,11l1.6-0.2l-1-10.1v-1.8l1.3-0.7l0.2,0l-0.1-0.6l-4.7,0.4l0.1,0.6l0.4,0c1.6-0.1,1.6,1,1.7,2.3l0.7,7.4l-7.3-9.8
		l-4.2,0.4l0.1,0.6L184.3,105.2z"/>
	<path d="M107.7,211.6l6-0.2l1.8,0.1l0.7,1.3l0,0.2l0.6,0l-0.2-4.7l-0.6,0l0,0.4c0,1.6-1.1,1.6-2.4,1.6l-4.6,0.2
		c-1.1,0-2.6,0.1-3.6-0.5c-1-0.6-1.3-2-1.4-3.2c0-1.2,0.2-2.6,1.2-3.4c0.9-0.6,2.4-0.5,3.5-0.6l4.7-0.2l1.8,0.1l0.7,1.4l0,0.3l0.6,0
		l-0.2-5.6l-0.6,0l0,0.3c-0.1,1.6-1.1,1.5-2.4,1.6l-6,0.2c-1.6,0.1-2.6,0.3-3.5,1.7c-0.7,1.2-0.8,2.5-0.8,3.9
		c0.1,1.3,0.3,2.7,1.1,3.7C105.1,211.5,106.2,211.6,107.7,211.6"/>
	<path d="M198.3,295.7l-1.9-0.6l-0.2-1.4l0.1-3.8l1.2,0c0.8,0,1.6,0.1,2.1,0.9l0.4,1.7l0.7,0l0.1-5.8l-0.7,0
		c-0.3,1.9-0.7,2.4-2.6,2.3l-1.3,0l0.1-3l0.6-1.5l1.9-0.3c2.5,0.1,4.1,1,5.6,3.1l0.6-0.2l-1.3-3.5l-11-0.3v0.6l0.3,0
		c1.6,0.2,1.4,1.2,1.4,2.5l-0.2,7.1l-0.2,1.8l-1.4,0.6h-0.2v0.6l11.3,0.3l1.9-4.1l-0.6-0.3C203.1,294.6,201.3,295.8,198.3,295.7"/>
	<path d="M118.6,225.4l0.9,1.2l0.1,0.2l0.6-0.1l-1-4.6l-0.6,0.1l0,0.4c0.3,1.6-0.8,1.7-2.1,2l-7.3,1.5l8.9-8.4l-0.9-4.2l-0.6,0.1
		l0,0.3c0.2,1.5-0.8,1.6-2.1,1.9l-7,1.5l-1.8,0.2l-0.9-1.2l0-0.2l-0.6,0.1l1,4.6l0.6-0.1l-0.1-0.4c-0.2-1.6,0.8-1.7,2.1-2l8.5-1.8
		l-9.9,9.5l0.3,1.6l9.9-2.1L118.6,225.4"/>
	<path d="M112.9,234.9l6.6-2.7c1.2-0.5,2.1-0.9,2.8,0.4l0.1,0.2l0.5-0.2l-2-4.8l-0.6,0.2l0.1,0.2c0.4,1.4-0.5,1.7-1.7,2.2l-6.6,2.7
		c-1.2,0.5-2.1,1-2.7-0.4l-0.1-0.3l-0.5,0.2l2,4.8l0.5-0.2l-0.1-0.3C110.7,235.7,111.7,235.4,112.9,234.9"/>
	<path d="M117.3,244.5l7.4-3.7l1.3,0.2c0.8,1.7,0.4,3.6-0.7,5.1l0.5,0.5l2.6-2.5l-5-10l-3.5,0.5l0.1,0.7c1.9,0,3.6,0.8,4.5,2.6
		l-0.5,1.2l-7.5,3.7l-1.7,0.6l-1.2-1l-0.2-0.3l-0.5,0.2l2.7,5.4l0.5-0.3l-0.2-0.4l-0.1-1.6L117.3,244.5"/>
	<path d="M129.3,260.4c-2.9-0.1-4.9-0.8-6.6-3.3l-0.7-2l0.9-1l3.1-2.2l0.7,1c0.5,0.7,0.9,1.3,0.5,2.2l-1.1,1.4l0.4,0.5l4.7-3.3
		l-0.4-0.6c-1.7,0.9-2.3,0.9-3.4-0.7l-0.7-1.1l2.4-1.7l1.5-0.4l1.4,1.3c1.4,2.1,1.6,3.9,0.9,6.3l0.6,0.4l2-3.1l-6.3-9.1l-0.5,0.3
		l0.1,0.3c0.8,1.4-0.1,1.8-1.1,2.6l-5.8,4.1l-1.6,0.9l-1.3-0.7l-0.1-0.2l-0.5,0.3l6.5,9.2l4.4-0.9L129.3,260.4z"/>
	<path d="M140.7,268.4c-2.6,2.5-5.5,2.8-8.1,0.1l-1.1-1.7l0.8-1.3l5.5-5.3l1.3-0.9l1.8,1.2c1,1,1.9,2.4,1.9,3.9
		C142.7,265.9,141.8,267.3,140.7,268.4 M141.2,259.6l-4-4.1l-0.4,0.4l0.2,0.2c1,1.2,0.2,1.8-0.7,2.7l-5.1,5l-1.4,1.1l-1.4-0.5
		l-0.1-0.1l-0.4,0.4l4,4.1c1.4,1.4,2.9,2.9,4.9,3.2c2,0.3,4-0.5,5.4-1.9c1.4-1.4,2.3-3.6,2-5.6C143.9,262.6,142.5,261,141.2,259.6"
		/>
	<path d="M154.7,271c1.8,1.2,2.4,3.2,2.3,5.2l0.6,0.1l0.9-3.6l-0.6-0.4l-0.6,0.5c-0.4-1.2-1.4-2.1-2.4-2.8c-0.9-0.6-2-1-3.1-1
		c-1.1,0.1-2.1,0.6-2.7,1.5c-0.5,0.8-0.6,2-0.2,2.9c0.4,0.8,1.2,1.7,1.8,2.4l1.5,1.6c0.9,1,2,2.1,1.1,3.5c-1,1.6-3.1,1.4-4.5,0.5
		c-2.1-1.3-2.8-4.1-2.5-6.4l-0.7-0.2l-1.4,4.4l0.6,0.4l0.8-0.6c0.4,1.4,1.5,2.6,2.7,3.4c2.1,1.4,5.2,1.6,6.8-0.8
		c1.4-2.2-0.1-3.9-1.5-5.5l-1.4-1.5c-0.8-0.9-2.1-2.1-1.2-3.4C152,270,153.7,270.4,154.7,271"/>
	<path d="M161.7,287.4l0.6-1.6l3.5-7.5l1.1-0.7c1.7,0.8,2.6,2.6,2.6,4.4l0.7,0.1l0.5-3.5l-10.2-4.8l-2.4,2.6l0.5,0.5
		c1.5-1.2,3.3-1.6,5.1-0.8l0.3,1.2l-3.5,7.6l-1,1.5l-1.6,0l-0.4-0.1l-0.2,0.5l5.4,2.5l0.3-0.5l-0.4-0.2L161.7,287.4"/>
	<path d="M171,286.4l3.8-4.8l0.4,6.1L171,286.4z M177.3,291.2l-0.7-10.9l-1.7-0.5l-5.6,6.9l-2.1,2.4c-0.7,0.7-1.1,0.8-2.1,0.7
		l-0.2,0l-0.2,0.6l4.9,1.6l0.2-0.5c-0.9-0.4-1.5-0.8-1.3-1.7l0.9-1.4l0.9-1.2l4.7,1.5l0.1,2.4l-0.1,1.1l-1.7,0.5l-0.2,0.6l5.2,1.6
		l0.2-0.6C177.3,293.7,177.4,292.5,177.3,291.2"/>
	<path d="M180.3,281.4l-1.7,3.1l0.6,0.3c1.2-1.5,2.8-2.4,4.7-2.1l0.6,1.1l-1.5,8.3l-0.5,1.7l-1.5,0.3l-0.4-0.1l-0.1,0.6l5.9,1.1
		l0.1-0.6l-0.4-0.1l-1.3-0.9l0.1-1.8l1.4-8.1l0.9-1c1.9,0.3,3.2,1.9,3.7,3.6l0.7-0.1l-0.5-3.5L180.3,281.4z"/>
	<path d="M213.3,287.7l-2-0.2c-1.2-0.1-3-0.3-3.2-1.9c-0.2-1.4,1.3-2.2,2.5-2.4c2.2-0.3,3.9,0.9,5.2,2.5l0.6-0.3l-1.6-3.3l-0.7,0.1
		l-0.1,0.7c-1.1-0.6-2.5-0.7-3.6-0.6c-1.1,0.2-2.2,0.5-3,1.3c-0.8,0.7-1.2,1.8-1.1,2.9c0.1,1,0.8,1.9,1.7,2.3c0.8,0.4,2,0.6,2.9,0.7
		l2.2,0.3c1.4,0.2,2.9,0.3,3.1,2c0.2,1.9-1.5,3.1-3.2,3.3c-2.5,0.3-4.7-1.3-6-3.3l-0.7,0.3l1.8,4.3l0.7-0.1l0.2-1
		c1.2,0.8,2.8,1,4.2,0.8c2.5-0.3,5-2.1,4.7-4.9C217.7,288.3,215.5,287.9,213.3,287.7"/>
	<path d="M231.7,290.2c-3.1,1-5.3-1.4-6.2-4.2c-1.1-3.5-0.3-6.2,2.5-7.1c2.9-1,5.2,1.2,6.2,4.4C235.1,286.1,234.8,289.3,231.7,290.2
		 M227.8,278c-3.7,1.2-5.7,5-4.5,8.7c1.2,3.7,5,5.6,8.6,4.4c3.7-1.2,5.7-4.9,4.5-8.6C235.2,278.8,231.6,276.8,227.8,278"/>
	<path d="M233.6,276l0.3,0.5l0.3-0.1c1.5-0.6,1.8,0.4,2.4,1.5l3.2,6.3l0.7,1.7l-0.9,1.1l-0.2,0.1l0.3,0.5l5-2.5l-0.3-0.5l-0.4,0.2
		c-1.5,0.7-1.8-0.3-2.4-1.5l-1.6-3.2l1-0.5c1.7-0.8,2.4-0.6,3.5,1l0.5-0.3l-2.6-5.1l-0.5,0.3c0.7,1.9,0.5,2.4-1.2,3.3l-1,0.5
		l-1.2-2.5l-0.5-1.7l1.6-1.2c2.1-1.1,4-1,6.1,0l0.4-0.5l-2.7-2.3L233.6,276z"/>
	<path d="M252.3,273.6l-1.6-5.9l5.1,3.3L252.3,273.6z M260,271.4l-9.2-5.9l-1.5,1.1l2.2,8.6c0.3,0.9,0.6,2.2,0.7,3.1
		c0.1,1,0,1.3-0.6,2.1l-0.1,0.1l0.3,0.5l4.2-3.1l-0.3-0.5c-0.8,0.5-1.6,0.8-2.1,0l-0.6-1.6l-0.4-1.5l4-2.9l2.1,1.3l0.8,0.7l-0.6,1.7
		l0.3,0.5l4.4-3.2l-0.3-0.5C261.9,272.9,261,272.1,260,271.4"/>
	<path d="M280.7,244c1,2.7,1,4.9-0.6,7.3l-1.6,1.3l-1.3-0.5L274,250l0.7-1c0.5-0.7,0.9-1.3,1.8-1.3l1.7,0.5l0.4-0.5l-4.8-3.2
		l-0.4,0.6c1.5,1.3,1.6,1.8,0.6,3.4l-0.7,1.1l-2.5-1.7l-0.9-1.2l0.7-1.8c1.4-2.1,3.1-2.9,5.6-3.1l0.1-0.7l-3.6-0.8l-6.1,9.2l0.5,0.3
		l0.2-0.2c1-1.2,1.7-0.5,2.8,0.1l5.9,4l1.4,1.2l-0.2,1.5l-0.1,0.2l0.5,0.3l6.3-9.4l-2.5-3.8L280.7,244z"/>
	<path d="M281.4,235.8l-1.2,2.6l-3.6-1.7l-0.8-0.9l0.7-2.2c0.8-1.6,2-3.2,4-2.2c0.8,0.4,1.4,1.1,1.5,2
		C282.1,234.2,281.8,235,281.4,235.8 M288.2,233.3l-5.3,0.9c0.6-1.7,0.3-3.8-1.5-4.7c-2.5-1.2-4.1,0.7-5,2.7l-3.3,6.9l0.5,0.3
		l0.2-0.3c0.8-1.4,1.6-0.9,2.8-0.3l6.4,3.1l1.6,1l-0.1,1.5l-0.1,0.2l0.5,0.3l2.5-5.1l-0.5-0.3l-0.2,0.4c-0.8,1.4-1.7,0.9-2.9,0.3
		l-2.9-1.4l1.2-2.4l7.5-1.2l1.4-2.9l-0.5-0.2C289.8,232.8,289.2,233.1,288.2,233.3"/>
	<path d="M291.7,226.1c-0.5,1.4-1.5,1-2.7,0.6l-6.9-2c-1.2-0.4-2.2-0.6-1.9-2l0.1-0.2l-0.6-0.2l-1.5,5l0.5,0.2l0.1-0.2
		c0.6-1.4,1.5-1,2.7-0.7l6.8,2c1.2,0.4,2.2,0.5,1.9,2l-0.1,0.3l0.6,0.2l1.5-5l-0.6-0.2L291.7,226.1z"/>
	<path d="M292.1,211.6c1.4,1.3,2.2,3.3,1.8,5.3c-0.3,1.4-1.3,2.7-2.6,3.2c-1.3,0.6-2.8,0.5-4.1,0.2c-1.4-0.3-2.8-0.9-3.9-1.9
		c-1-1-1.5-2.3-1.1-3.7c0.3-1.2,0.9-2.2,2-2.8c0.8-0.5,2.1-0.8,3-1.1l0.2,0l0.1-0.6l-4.7-0.1l-0.1,0.6l0.8,0.6
		c-1.2,0.8-1.9,2.1-2.2,3.5c-0.8,3.7,1.8,7,5.4,7.8c3.9,0.9,7.3-1.2,8.2-5.2c0.6-2.5-0.1-4.8-2-6.5L292.1,211.6z"/>
	<path d="M290.6,207l-5.6-2.5l5.9-1.8L290.6,207z M294.1,201.7l1.1-0.2l0.9,1.6l0.6,0l0.4-5.4l-0.6-0.1c-0.2,1.5-1.3,1.7-2.6,2.1
		l-10.4,3.2l-0.1,1.8l8,3.8c0.8,0.4,2.1,1,2.9,1.5c0.8,0.6,1,0.9,1.2,1.8l0,0.2l0.6,0l0.4-5.2l-0.6,0c-0.2,0.9-0.4,1.6-1.4,1.6
		l-1.6-0.6l-1.4-0.6l0.4-4.9L294.1,201.7z"/>
	<path d="M274.8,259c-1.2,1.1-1.8,0.3-2.8-0.5l-5.2-4.8l-1.2-1.4l0.4-1.4l0.1-0.1l-0.4-0.4l-3,3.3l4.6,9.7l-9.8-3.9l-3.1,3.4
		l0.4,0.4l0.2-0.2c1.1-1.1,1.8-0.3,2.8,0.5l5.3,4.8l1.2,1.4l-0.5,1.5l-0.1,0.1l0.4,0.4l3.3-3.6l-0.4-0.4l-0.3,0.3l-1.5,0.6l-1.4-1
		l-6.8-6.1l12,4.8l0.5-0.6l-5.5-11.5l6.5,5.9l1.2,1.4l-0.4,1.4l-0.1,0.1l0.4,0.4l3.6-4l-0.4-0.4L274.8,259z"/>
	<path d="M107.3,194.1c0,0.9,0.7,1.7,1.7,1.7c0.9,0,1.6-0.7,1.6-1.7c0-0.9-0.7-1.6-1.6-1.6C108.1,192.4,107.3,193.2,107.3,194.1"/>
	<path d="M287.2,193.7c0,0.9,0.7,1.6,1.7,1.6c0.9,0,1.6-0.7,1.6-1.6s-0.7-1.6-1.6-1.6C287.9,192.1,287.2,192.8,287.2,193.7"/>
	<path d="M218.1,157.3l-0.2-0.2l0-0.1l-0.2-0.4l-1.7-1.8c-0.1-0.1-0.1-0.1-0.2-0.2c-0.4-0.4-0.9-1-1.4-2c-0.9-2-1.6-4.5-2.1-7.5
		l0-0.7c0-2.3-0.4-5-0.8-7.8l0-0.1c-0.1-0.8-0.2-1.6-0.3-2.3l0.2,0.2l-0.2-0.3c-0.1-0.8-0.2-1.4-0.2-1.9l0-0.5l-0.3-0.7
		c-0.3-1.5-5.4-4.5-9.8-5.3c-3.5-0.6-5.8,0-6.7,1.9c-2.2,0-2.8,0.1-3,0.3l-0.1,0c-1.2,0-4.8-0.2-6.1,2c-0.7,1.2-0.4,2.9,0.7,4.9
		c0.4,0.8,0.9,1.7,1.5,2.6l0.1,0.1l0.7,0.2l0.4-0.7l0-0.6l0-0.1l0.3-0.1l0.1-0.1c0.7-0.4,4.3-0.3,5.9,0.6l1.3,1.5
		c0.4,0.9,0.6,2.1,0.6,3.3c0,2.6-0.9,5.1-1.8,5.9l-1.1,1c-1.4,1.2-2.3,2-4.3,5.1l-0.4,0.6c-1.8,2.8-2,3.1-3.5,3.8l-0.1,0l-0.3,0.4
		l0,0.1v0.3l0.3,0.3l0,0v0.3l0.5,0.5l0.1,0c2.8,0.1,5.2-0.5,6.8-1.7l0.2,0.5l0.8,1.3l0.7,0.1l1.1-0.6c0.8-0.4,1.9-0.9,2.7-1.9
		c0.2,0.7,0.4,1.2,0.7,1.7l0.4,0.7l0.7,0.2l0.1,0c1.8-0.6,4-1.6,5-4.1c0.7,1.2,1.7,2,2.3,2.4l0.6,0.5l0.2,0.3l0.2,0.5l0.6,0.1l0.1,0
		c1.9-0.5,2.5-2.2,2.7-3.3c1.5,1.6,3.2,1.7,4.8,1.8l0.8,0.1l0.6-0.3l0.1-0.4L218.1,157.3z M210.8,141.3c-0.4-0.3-0.6-0.8-0.7-1.5
		l0.5,0.1C210.7,140.3,210.7,140.8,210.8,141.3z M195.4,128.8l0.7-0.2l0.5-0.1l0,0c0.9-0.3,1.5-0.4,2.1-0.2l2,0.9l0.1,0
		c0.2,0,0.4,0.1,0.5,0.1c-0.8,0-1.6,0.1-1.9,0.3c0.1-0.2,0.1-0.3,0.1-0.4l0-0.3l-1.3-0.3l0.1,0.5l-0.1,0.3l-0.3,0.1l-0.7-0.8
		l-0.5,0.1l-0.3,0.2l0,0.2c0,0,0,0.1,0,0.2l-0.7-0.2L195.4,128.8z M195,135l-0.4-0.2c-0.3-0.1-0.6-0.2-0.9-0.3
		c0.9,0,1.2,0.1,1.3,0.1l0.6,0.1L195,135z M195.5,133.6l-0.8-0.2l0,0c-4.5-0.3-6.6-0.1-7.4,0.7l0,0l-0.2,0.4
		c-0.8-1.4-1.2-2.5-1.2-3.3l0.3-1.1c0.4-0.7,1.6-1.5,5-1.4l0.4,0l0.4,0l0-0.2c0.2,0,0.8-0.1,2.2-0.1c0.2,0.3,0.4,0.8,0.6,1.5
		c0.4,1.2,0.6,2.1,1.4,2.8l0.7,0.6l0.2,0.2c-0.1,0-0.2,0-0.3,0L195.5,133.6z M196.6,136.7l-0.1-0.2l0.1-0.4l-0.3-1.3l-0.1-0.2
		l1.2,0.1l0.6,0.3l-0.3,0.7L196.6,136.7z M209.3,150.7L209.3,150.7l0.2,0.7l0.7,1.2l0.2,1.2l0.1,0.8c0,1-0.2,2.6-1.6,3.2l-1-1l0,0
		c-1.1-0.8-2.5-1.8-2.5-4.3v-0.4l-1,0l0,0.4c-0.2,3.6-2.4,4.9-4.5,5.7c-0.6-1.2-0.6-2.9-0.7-3.7l-0.1-2.7l-0.9,2.6
		c-0.7,2.1-2.2,2.8-3.4,3.4l-0.7,0.4c-0.2-0.3-0.5-0.8-0.5-1.5l0.1-0.7l0.4-2.1l0.1-0.3l2.1-2l-2.6,1.4l0,0
		c-0.3,0.2-1.4,1.1-1.1,2.4l0.1,0.3c-1.1,1.2-2.8,2-5,2.2c0.7-0.7,1.3-1.6,2.4-3.2l0.4-0.6c1.8-2.9,2.7-3.6,4-4.8l1.2-1.1
		c1.3-1.2,2.2-4,2.2-6.7c0-1.7-0.4-3.2-1-4.4l1.4-0.6l0.7-0.7l0.8,0.8l-0.6-1.1l0.2-0.3l0-0.3v-0.2c0-0.6-0.4-1-1.5-1.6
		c-1.4-0.7-1.6-1.1-1.8-2.3l-0.1-0.6l-0.1-0.4l0.7,0.2l0.1,0.1l1,0.8l0.1,0c1.1,0.3,1.6-0.2,2.1-0.7l0.1-0.1
		c0.2-0.1,1.3-0.3,2.3-0.2l4.2,0.7l-3.1-1.3c-0.3-0.1-1.3-0.5-2.3-0.7l-2-0.9l0,0c-0.8-0.3-1.6,0-2.4,0.2l-0.5,0.1l-0.6,0.2
		l-0.2-0.1c0.7-1.3,2.5-1.7,5.5-1.2c4.8,0.8,8.5,3.7,8.8,4.2l0,0.5c0,0,0,0.1,0,0.1l-0.2-0.3l-0.5-0.4l-2.9-1.4l2.4,2.1l0.3,0.2
		l0.2,1l0.2,1.1l0.1,0.2l0.5,0.8l0.3,0l0.2,1.3c0.2,1.1,0.3,2,0.5,2.9l-1.9-2.3l-0.6-0.5l-0.1-0.2v0.1l-0.3-0.2l0.2,1.2l0.6,2.1
		v-0.9l0.5,0.8l0.1,0.7c0.2,1,0.4,2.2,1.5,2.7l0.2,0.1c0,0.4,0,0.8,0,1.2v0.7l0,0c0.5,3.4,1.2,5.8,2,7.5l-1.4,0.1l-1.2-1l-0.2-0.7
		l-0.1,0l-0.2-0.5l-0.6,0.2L209.3,150.7z M211.4,153.5l-0.3-0.6l0.3,0l1.6-0.3l0-0.1c0.8,1.7,1.6,2.6,2.1,3.1l0.8,0.8
		C214.2,156.3,212.7,156,211.4,153.5z"/>
</g>
</svg>
