<?xml version="1.0" encoding="utf-8"?>
<!-- Generator: Adobe Illustrator 19.0.1, SVG Export Plug-In . SVG Version: 6.00 Build 0)  -->
<!DOCTYPE svg PUBLIC "-//W3C//DTD SVG 1.1//EN" "http://www.w3.org/Graphics/SVG/1.1/DTD/svg11.dtd">
<svg version="1.1" id="Layer_1" xmlns="http://www.w3.org/2000/svg" xmlns:xlink="http://www.w3.org/1999/xlink" x="0px" y="0px"
	 viewBox="50 50 300 300" enable-background="new 0 0 400 400" xml:space="preserve">
<style>
  g, path {
    fill: #6db6aa;
  }
</style>
<g>
	<polygon points="200.2,154.7 200.3,154.9 200.4,154.8 217.2,171.6 160.4,228.5 171.6,239.7 228.4,182.9 228.5,183 228.5,183
		245.3,199.8 188.5,256.6 199.8,267.9 268,199.7 200.4,132.1 132.2,200.3 143.4,211.5 	"/>
	<polygon points="239.8,199.7 228.5,188.5 171.7,245.3 154.8,228.3 211.6,171.5 200.4,160.3 143.6,217.1 143.4,217 143.4,217
		126.6,200.2 197.4,129.4 186.1,118.2 104,200.3 171.6,267.9 	"/>
	<polygon points="296,199.6 200.4,104 189,115.3 273.4,199.7 199.8,273.3 185.8,259.4 174.5,270.7 199.8,296 	"/>
</g>
<path stroke="#000000" stroke-width="1.9368" stroke-miterlimit="10" d="M200,200"/>
<path stroke="#000000" stroke-width="1.9368" stroke-miterlimit="10" d="M200,200"/>
</svg>
