<?xml version="1.0" encoding="utf-8"?>
<!-- Generator: Adobe Illustrator 19.0.1, SVG Export Plug-In . SVG Version: 6.00 Build 0)  -->
<!DOCTYPE svg PUBLIC "-//W3C//DTD SVG 1.1//EN" "http://www.w3.org/Graphics/SVG/1.1/DTD/svg11.dtd">
<svg version="1.1" id="Layer_1" xmlns="http://www.w3.org/2000/svg" xmlns:xlink="http://www.w3.org/1999/xlink" x="0px" y="0px"
	 viewBox="50 50 300 300" enable-background="new 0 0 400 400" xml:space="preserve">
<style>
  g {
    fill: #6db6aa;
  }
</style>
<g>
	<g>
		<path d="M229.3,213.6c-1.2,0.6-3.6,2.1-4.3,4.4c0.1,0.2,0.8,0.4,1.3,0.4L229.3,213.6z M224.3,214.7c0.2,0.7,0.2,0.9,0.2,1.2
			c0,0.2,0,0.4,0.3,1c0.4-0.7,0.9-1.4,1.6-2c-0.4-0.5-0.7-1.1-0.8-1.7c-0.1-0.2-0.1-0.4-0.1-0.6c-0.1-0.1-0.2-0.2-0.4-0.3
			c-0.9-0.7-1.7-1.2-2.2-1.6C223.4,212,223.9,213.3,224.3,214.7z M229.3,216.9C229.3,216.9,229.3,216.9,229.3,216.9
			c0.1-0.2,0.1-0.3,0.1-0.5c0-0.2,0.1-0.4,0.1-0.6c0-0.1,0-0.2,0-0.2l0-0.3c0-0.2,0.1-0.4,0.1-0.6c0-0.1,0-0.1,0-0.2
			c0-0.2,0-0.4,0-0.6l-2.9,4.7c0.2,0.1,0.7,0.4,1.2,0.6C228.6,218.6,229,217.8,229.3,216.9z M167.3,202.7c0-0.2,0-0.4,0-0.6
			c0-0.2,0-0.3,0.1-0.5c0-0.2,0.1-0.4,0.1-0.6l0.1-0.3c0-0.1,0-0.2,0.1-0.3c0,0,0,0,0-0.1c0,0,0,0,0,0c-0.6-0.8-1.3-1.4-2-1.8
			c-1.7-1.1-2.9-1.6-3.5-1.9c0.4,1.1,1.4,3.6,2.4,5c0,0,0,0,0,0l0.1,0.1c0.6,0.8,1.1,1.6,1.8,2.3c0.1,0,0.2,0.1,0.3,0.1l0.2,0.1
			c0.2,0.1,0.4,0.2,0.6,0.4c0-0.1-0.1-0.2-0.1-0.3l0-0.1c0-0.2-0.1-0.5-0.1-0.8c0-0.1,0-0.1,0-0.2c0-0.1,0-0.2,0-0.3
			c0,0,0-0.1,0-0.1C167.3,202.7,167.3,202.7,167.3,202.7z M165.6,207.9C165.6,207.9,165.7,207.9,165.6,207.9
			c0.5,0.7,1.2,1.4,1.8,2.1l0.3,0.1c0.2,0.1,0.3,0.1,0.5,0.2c0,0,0,0,0.1,0c0,0,0,0,0,0c-0.1-0.6-0.1-1.2-0.1-1.9v-0.1
			c0-0.2,0-0.3,0-0.5l0-0.4c0-0.2,0.1-0.5,0.1-0.8c-0.1-0.1-0.2-0.3-0.2-0.4c0,0,0-0.1-0.1-0.1l-0.1-0.1c0,0-0.1-0.1-0.1-0.2
			c0,0,0,0,0-0.1c0,0,0,0,0,0c0-0.1-0.1-0.2-0.1-0.2c-0.4-0.4-0.8-0.6-1.2-0.9c-1.8-1-3-1.4-3.6-1.7
			C163.5,204.3,164.6,206.6,165.6,207.9L165.6,207.9z M191.3,222c-0.4,0.3-0.7,0.6-1,0.7l-0.2,0.1c0,0,0,0-0.1,0
			c-1.1,0.7-1.9,1.3-2.4,1.8c0,0-0.1,0.1-0.1,0.1c0,0,0,0,0,0c-0.8,0.8-0.9,1.1-0.9,1.2h0c0,0,0,0,0.1,0c0,0,0.1,0,0.1,0.1
			c0,0,0,0,0,0c0.3,0.1,0.6,0.3,0.9,0.4c0.6,0.3,1.4,0.7,2.3,1c0,0,0,0,0,0c0.6,0.2,1.4,0.5,2.2,0.7c-0.1-2.4-0.3-4.6-0.7-6.5
			C191.5,221.8,191.4,221.8,191.3,222C191.4,221.9,191.3,221.9,191.3,222z M171.3,188.7c0.6-0.5,1.1-1.2,1.4-2
			c0.2-0.7,0.2-0.9,0.2-1.2c0-0.2,0-0.5,0.2-1.2c0.5-1.8,0.9-3.1,1.3-4c-0.3,0.2-0.6,0.5-1.1,0.9c0,0.2-0.1,0.5-0.2,0.8
			c-0.3,0.9-0.9,1.7-1.6,2.2c-0.2,0.7-0.5,1.3-0.9,1.9C170.9,187,171.2,187.8,171.3,188.7z M226.9,208.6
			C226.9,208.6,226.9,208.6,226.9,208.6c-1.1-1-1.7-1.6-2.1-1.9c0.3,0.8,0.7,2.2,1,4c0.1,0.4,0.1,0.7,0.1,1c0,0.1,0,0.1,0,0.2
			c0,0,0,0,0,0.1c0,0.2,0,0.4,0.2,1.2c0.1,0.5,0.4,1,0.7,1.4c0.6-0.5,1.2-0.9,1.6-1.1c-0.2-0.5-0.2-1-0.2-1.5c0-0.1,0-0.3,0-0.4
			c-0.7-0.7-1.1-1.7-1.3-2.6C227,208.8,227,208.7,226.9,208.6z M167.4,190.1c0.1,0.3,0.1,0.6,0.2,0.8c0,0,0,0,0,0h0
			c0,0.1,0.1,0.3,0.2,0.4l0,0.1c0.1,0.2,0.1,0.3,0.2,0.5l0,0.1c0,0,0,0.1,0.1,0.1c0,0,0,0,0,0c0.1-0.2,0.2-0.4,0.3-0.6
			c0,0,0,0,0-0.1c0.1-0.2,0.2-0.4,0.3-0.6l-0.3-5.9l-0.1,0.1c0,0.1-0.1,0.2-0.1,0.3c0,0.1-0.1,0.1-0.1,0.2c0,0,0,0.1-0.1,0.1l0,0
			c0,0,0,0.1,0,0.1c-0.3,0.8-0.5,1.5-0.6,2.2v0c0,0.2,0,0.4-0.1,0.5c0,0.2,0,0.4,0,0.5C167.4,189.5,167.4,189.8,167.4,190.1l-0.1,0
			L167.4,190.1z M209.9,221.7c-0.4,1.9-0.6,4.1-0.7,6.5c2.1-0.5,3.5-1.2,4.6-1.7c0.3-0.1,0.6-0.3,0.9-0.4c0,0,0,0,0,0
			c0.1,0,0.1-0.1,0.1-0.1c0,0,0,0,0,0v0c0-0.1-0.2-0.6-1.4-1.7c0,0,0,0-0.1-0.1c0,0,0,0-0.1,0c-0.4-0.3-0.8-0.7-1.4-1.1
			c-0.2-0.1-0.3-0.2-0.5-0.3l-0.2-0.1c-0.1-0.1-0.3-0.2-0.4-0.3c-0.1,0-0.1-0.1-0.2-0.2c0,0,0,0-0.1-0.1c-0.1-0.1-0.2-0.1-0.3-0.2
			c0,0-0.1-0.1-0.1-0.1C210.1,221.8,210,221.8,209.9,221.7z M228,200.3c0,0.3,0.1,0.5,0.1,0.8c0,0.2,0,0.3,0,0.4c0,0,0,0.1,0,0.1
			c0,0,0,0.1,0,0.1c0,0.2,0.1,0.5,0.2,0.9c0.2,0.9,0.7,1.7,1.4,2.3c0-0.2,0-0.3,0-0.5c0-1.2,0.4-2.4,1.1-3.7c-1-0.5-1.8-1.6-2.2-2.7
			c-0.2-0.4-0.2-0.7-0.3-0.9c-0.4-0.4-0.7-0.7-1-1C227.4,197,227.7,198.4,228,200.3z M227.5,206.4c0,0.2,0,0.4,0,0.5
			c0,0.3,0,0.4,0,0.6c0,0,0,0.1,0,0.1c0,0.3-0.1,0.6,0,1.2c0.1,0.7,0.4,1.4,0.8,1.9c0.2-1.2,0.9-2.4,1.9-3.5
			c-0.1-0.2-0.1-0.4-0.2-0.6c-0.1-0.2-0.2-0.4-0.3-0.7c0-0.1-0.1-0.2-0.1-0.3c-0.9-0.6-1.7-1.6-2-2.7c-0.3-0.3-0.5-0.6-0.7-0.8
			C227.2,203.2,227.4,204.7,227.5,206.4z M169,177l0-3.6c-1.2,2.1-1.7,4.1-1.3,5.8c0.2-0.5,0.5-1,0.8-1.5
			C168.7,177.5,168.9,177.3,169,177z M167.8,184.5c0,0.1,0.1,0.2,0.1,0.4c0,0,0-0.1,0.1-0.1c0.1-0.3,0.3-0.5,0.5-0.8l0.3-0.4
			c0,0,0.1-0.1,0.1-0.1h0l0,0l0.1-5.2C167.6,180.4,167.2,182.6,167.8,184.5z M171.6,182.8c0,0.2,0,0.4,0,0.6c0.4-0.4,0.7-1,0.9-1.5
			c0.2-0.7,0.2-0.9,0.2-1.2c0-0.2,0-0.5,0.2-1.2c0.5-1.9,1-3.3,1.3-4c-0.4,0.3-1.1,0.8-2.1,1.7c-0.1,0.1-0.2,0.2-0.4,0.3
			c0,0.2,0,0.3,0,0.5c0,0.8-0.2,1.6-0.5,2.3C171.5,181.3,171.6,182.1,171.6,182.8z M168.4,198.2l0.3-0.5c0-0.1,0.1-0.1,0.1-0.1
			c0.1,0,0.1,0.1,0.1,0.1l0.1,0.4l0,0c0.1,0.1,0.2,0.2,0.4,0.5l-0.4-7c-0.8,1.5-1.1,2.9-1.1,4.2c0,0.8,0.1,1.5,0.4,2.2
			C168.3,198.1,168.4,198.2,168.4,198.2z M232,219.6l0.3-0.2c1.3-1.1,2.9-3.4,3.5-4.2c-0.6,0.1-1.5,0.3-3,0.7l-0.9,0.2
			c-0.7,0.2-1.3,0.5-2,1l-0.3,0.3c0,0,0,0,0,0c0,0,0,0,0,0.1c-0.2,0.5-0.5,1-0.8,1.5l-0.1,0.5c0.3,0.2,1.3,0.7,2.1,1
			C231.3,220.2,231.7,219.9,232,219.6z M213.3,170.1v-3.3c0,0,0,0,0,0l-3.6,3.3H213.3z M213.8,166.8
			C213.8,166.8,213.7,166.8,213.8,166.8l-0.1,3.3h3.7L213.8,166.8z M202.3,159.9c0-0.9-0.7-1.6-1.6-1.6c-0.9,0-1.6,0.7-1.6,1.6
			c0,0.9,0.7,1.6,1.6,1.6C201.6,161.5,202.3,160.8,202.3,159.9z M175.4,162.9c0,0.1,0.2,0.3,0.3,0.3c0.2,0,5,0.9,5,6.3V204
			c0,0,0,0.2,0,0.6c0,2.8,1.4,4.5,3.7,4.5h12.5c0.5,0.1,2.4,0.5,3.5,3.8c0.1,0.1,0.2,0.3,0.4,0.3c0.2,0,0.3-0.1,0.4-0.3
			c1.2-3.5,3.2-3.7,3.6-3.8c0,0,0,0,0,0c0,0,0,0,0,0h12.3c2.3,0,3.7-1.7,3.7-4.5c0-0.4,0-0.6,0-0.6v-34.6c0-5.4,4.8-6.3,5-6.3
			c0.1,0,0.3-0.1,0.3-0.3c0,0,0-0.1,0-0.1c0-0.1,0-0.2-0.1-0.3l-5.9-5.7c-0.1-0.1-0.2-0.1-0.3-0.1h-15.3c-0.1,0-1.9-0.2-2.3-3.1
			c0-0.2-0.2-0.3-0.4-0.3h-2.2c-0.2,0-0.4,0.1-0.4,0.3c-0.4,2.8-2.2,3.1-2.3,3.1h-15.4c-0.1,0-0.2,0-0.3,0.1l-5.9,5.7
			C175.4,162.7,175.4,162.8,175.4,162.9z M188.6,207.6h-2.1v-31h2.1V207.6z M196,207.6h-5.5v-31h5.5V207.6z M199.9,209.4
			c-0.7-0.9-1.5-1.4-2-1.6v-31.2h2V209.4z M203.8,207.8c-0.6,0.2-1.3,0.6-2.1,1.5v-32.7h2.1V207.8z M211.2,207.6h-5.5v-31h5.5V207.6
			z M215.2,207.6h-2.1v-31h2.1V207.6z M219.5,204.1c0,1.3-0.3,3.3-2.5,3.6v-31h2.4v26.9C219.5,203.5,219.5,203.7,219.5,204.1z
			 M183.5,169.9l3.6-3.3c-1-0.3-1.8-1.3-1.8-2.4h1.1c0,0.7,0.5,1.2,1.1,1.4v-0.2c0-0.1,0.1-0.2,0.2-0.2c0.1,0,0.2,0.1,0.2,0.2v0.2
			c0.8,0,1.4-0.6,1.4-1.4l10.7-2.5c-0.8-0.3-1.3-1-1.3-1.9c0-1.1,0.9-2.1,2.1-2.1s2.1,0.9,2.1,2.1c0,0.9-0.6,1.6-1.3,1.9l10.6,2.4
			c0,0.7,0.6,1.3,1.3,1.4v-0.2c0-0.1,0.1-0.2,0.2-0.2c0.1,0,0.2,0.1,0.2,0.2v0.2c0.7-0.1,1.2-0.7,1.2-1.4h1.2c0,1.2-0.8,2.1-1.8,2.5
			l3.6,3.3c0,0,0,0.1,0,0.1c0,0,0,0.1,0,0.1c0,0-0.1,0.1-0.2,0.1c-0.1,1.5-1.9,2.6-4.1,2.6c-2.2,0-4-1.1-4.1-2.6
			c-0.1,0-0.1,0-0.2-0.1c-0.1-0.1-0.1-0.2,0-0.3l3.6-3.2c-0.8-0.2-1.4-0.7-1.7-1.5h-8.9l-1.5,1.7v0l-1.5-1.7h-8.9
			c-0.3,0.7-1,1.3-1.8,1.5l3.5,3.2c0.1,0,0.1,0.1,0.1,0.1c0,0,0,0.1-0.1,0.1c0,0-0.1,0.1-0.1,0.1c-0.1,1.5-1.9,2.6-4.1,2.6
			c-2.2,0-4-1.1-4.1-2.6c-0.1,0-0.1,0-0.2-0.1C183.4,170.1,183.5,170,183.5,169.9z M182.1,203.5v-26.8h2.5v31
			c-2.2-0.2-2.6-2.3-2.6-3.6C182.1,203.7,182.1,203.5,182.1,203.5z M234.1,194.9c0,0.2,0,0.4,0.1,0.6v0.1c0,0.1,0,0.2,0,0.3
			c0,0.5,0,0.9-0.2,1.4c0,0.1,0,0.1,0,0.1c-0.1,0.3-0.1,0.5-0.2,0.7c0,0,0,0,0,0.1c0,0,0,0,0,0c-0.1,0.2-0.2,0.4-0.3,0.7
			c0,0.1,0.1,0.2,0.2,0.4c0,0.1,0.1,0.2,0.1,0.3l0,0.1c0.6-0.7,1.2-1.2,1.9-1.6c0.1-0.1,0.3-0.2,0.4-0.2c0.3-0.4,0.7-0.9,1.1-1.5
			l0.1-0.1c0.9-1.3,1.8-3.6,2.4-5c-0.6,0.2-1.7,0.8-3.5,1.9C235.3,193.6,234.7,194.1,234.1,194.9z M197.6,142.5l-1.7,5.2
			c0,0.1,0,0.1,0,0.1c0,0,0,0,0,0c0,0,0,0,0,0c0,0,0.1,0,0.1,0c0,0,0,0,0,0c0,0,0,0,0,0c0,0,0,0,0.1,0l4.4-3.2l4.4,3.3
			c0.1,0,0.1,0,0.2,0c0,0,0.1-0.1,0.1-0.1c0,0,0,0,0,0l-0.1-0.2c0,0,0,0,0,0l-1.6-5l4.5-3.2c0,0,0,0,0,0c0,0,0.1-0.1,0.1-0.1
			c0,0,0,0,0-0.1c0,0,0,0,0,0c0,0,0,0,0,0c0,0,0,0,0,0c0,0,0,0,0,0l-5.5,0l-1.6-5.1c0,0,0,0,0,0l0-0.1c0-0.1-0.1-0.1-0.1-0.1
			c-0.1,0-0.1,0-0.1,0.1l-1.7,5.2l-5.5,0c0,0,0,0,0,0c0,0,0,0-0.1,0c0,0,0,0,0,0h0c0,0,0,0,0,0h0c0,0,0,0,0,0c0,0,0,0,0,0
			c0,0-0.1,0.1-0.1,0.1c0,0,0,0,0,0c0,0,0,0,0,0c0,0.1,0,0.1,0.1,0.1L197.6,142.5z M220.3,151.5
			C220.3,151.5,220.3,151.5,220.3,151.5l5.4-0.9l2.5,4.9c0,0.1,0.1,0.1,0.2,0.1c0.1,0,0.1-0.1,0.1-0.1l0-0.2c0,0,0,0,0,0
			c0,0,0,0,0,0l0.8-5.2c0,0,0,0,0,0l5.4-0.9c0,0,0,0,0,0c0,0,0,0,0.1,0c0,0,0,0,0,0c0,0,0,0,0,0c0,0,0,0,0,0c0,0,0-0.1,0-0.1
			c0,0,0,0,0,0c0,0,0,0,0,0l-4.9-2.4l0.8-5.3c0,0,0,0,0,0c0,0,0,0,0,0c0,0,0,0,0,0l0-0.1c0,0,0,0,0,0c0-0.1,0-0.1-0.1-0.1
			c-0.1,0-0.1,0-0.2,0l-3.8,3.9l-4.9-2.5c-0.1,0-0.1,0-0.2,0c0,0,0,0,0,0.1c0,0,0,0,0,0.1c0,0,0,0,0,0c0,0,0,0,0,0c0,0,0,0,0,0.1
			l2.5,4.8l-3.9,3.9c0,0.1-0.1,0.1,0,0.2C220.2,151.5,220.3,151.5,220.3,151.5C220.3,151.5,220.3,151.5,220.3,151.5z M235.7,182.5
			c-0.5,0.4-0.9,0.9-1.3,1.4c0,0.1,0,0.2,0,0.2l-0.1,0.5c0,0,0,0.1,0,0.1c0,0,0,0.1,0,0.1c0,0.1-0.1,0.1-0.1,0.2
			c0,0.1,0,0.1-0.1,0.2l0,0.1c0,0,0,0.1-0.1,0.1c0,0,0,0,0,0c0,0,0,0.1,0.1,0.1c0.1,0.2,0.1,0.4,0.2,0.5c0.1,0.2,0.1,0.4,0.2,0.6
			l0.1,0.3c0.1,0.2,0.1,0.5,0.2,0.7c0.3-0.4,0.7-0.7,1-1c0.5-0.4,0.9-0.7,1.4-1.1c0.1-0.1,0.2-0.3,0.2-0.4l0.1-0.1
			c0.8-1.4,1.5-3.7,1.9-5.2c-0.5,0.3-1.5,0.9-2.8,1.9L235.7,182.5z M237.9,222.8c0.2,0,0.4,0.1,0.6,0.1c0.1,0,0.2,0,0.4,0.1
			c0.2,0,0.5,0.1,0.7,0.1c0.1,0,0.1,0,0.2,0c0.3,0,0.6,0,0.9,0c0.6,0,1.2-0.1,1.6-0.2c0.1,0,0.2-0.1,0.2-0.1c0,0,0,0,0,0
			c0,0,0.1-0.1,0.1-0.1c0,0,0.1,0,0.1-0.1c0,0,0.1-0.1,0.1-0.1c0,0,0.1-0.1,0.1-0.1c0,0,0-0.1,0.1-0.1c0,0,0.1-0.1,0.1-0.1v0
			c0.4-0.9-1.7-2.6-2.7-3.4c-0.5-0.4-1-0.8-1.3-1.1c-0.6,1.5-1.2,3.1-1.7,4.9c0,0,0.1,0,0.1,0C237.6,222.8,237.8,222.8,237.9,222.8z
			 M233.5,210.8c-0.2,0.1-0.3,0.1-0.4,0.2c0,0,0,0,0,0.1c0,0.1,0,0.2-0.1,0.3c-0.1,0.2-0.1,0.3-0.2,0.5l-0.1,0.2
			c-0.1,0.3-0.3,0.5-0.4,0.8c0,0.1-0.1,0.1-0.1,0.2c0,0,0,0.1,0,0.1c0,0,0,0.1-0.1,0.1c-0.6,0.8-1.3,1.3-1.7,1.6v0c0,0,0,0.1,0,0.1
			c0,0,0,0,0,0l-0.1,0.6c0,0,0,0,0,0c0,0.2-0.1,0.4-0.1,0.5l0,0.2c0,0,0,0.1,0,0.1c0.6-0.4,1.2-0.7,1.8-0.8c0.3-0.1,0.5-0.2,0.8-0.2
			c0.5-0.4,0.9-0.9,1.3-1.2l0.1-0.1c0.9-0.8,2-2.4,3.2-4.4C236.7,209.7,235.6,210,233.5,210.8z M230.4,178.1c0,0.5,0.1,1,0.2,1.5
			c0.5-1.3,1.1-2.2,1.3-2.5l0-3.7C231.3,174.4,230.4,176.2,230.4,178.1z M234.3,203.4c0,0.3-0.1,0.6-0.1,0.8l0,0.1
			c0,0.1,0,0.2-0.1,0.3c0.2-0.2,0.4-0.3,0.6-0.4l0.2-0.1c0.1,0,0.2-0.1,0.3-0.1c0.7-0.7,1.3-1.5,1.8-2.3l0.1-0.1c0,0,0,0,0,0
			c1-1.4,2-3.9,2.4-5c-0.6,0.3-1.7,0.8-3.5,1.9c-0.7,0.4-1.4,1.1-2,1.8c0,0,0,0,0,0c0,0,0,0,0,0.1c0,0.1,0,0.2,0.1,0.3l0.1,0.3
			c0,0.2,0.1,0.4,0.1,0.6c0,0.2,0,0.3,0.1,0.5c0,0.2,0,0.4,0,0.6c0,0,0,0.1,0,0.1c0,0,0,0.1,0,0.1c0,0.1,0,0.2,0,0.3
			C234.3,203.3,234.3,203.4,234.3,203.4z M234.2,179.9c0,0,0,0.1,0,0.1c0,0,0,0.1,0,0.1c0.3,0.9,0.4,1.7,0.4,2.5v0.2
			c0.3-0.4,0.7-0.7,1.1-1l0.2-0.1c0.1,0,0.1-0.1,0.2-0.1l0.1-0.1c0.1-0.2,0.2-0.4,0.3-0.6l0.1-0.1c0.9-1.5,1.6-4.1,1.9-5.2
			c-0.6,0.3-1.7,1-3.3,2.2c-0.2,0.1-0.4,0.3-0.5,0.5C234.4,178.9,234.4,179.4,234.2,179.9z M235,204.8c-0.4,0.2-0.8,0.5-1.2,0.9
			c0,0.1-0.1,0.2-0.1,0.2c0,0,0,0,0,0c0,0,0,0,0,0.1c0,0.1-0.1,0.1-0.1,0.2l-0.1,0.1c0,0,0,0.1-0.1,0.1c-0.1,0.1-0.1,0.2-0.2,0.4
			c0,0.3,0.1,0.5,0.1,0.8l0,0.4c0,0.2,0,0.3,0,0.5v0.1c0,0.6,0,1.3-0.1,1.9c0,0,0,0,0,0c0,0,0,0,0.1,0c0.2-0.1,0.4-0.1,0.5-0.2
			l0.3-0.1c0.7-0.6,1.3-1.4,1.8-2c0,0,0,0,0,0l0,0c1-1.3,2.1-3.6,2.6-4.8C237.9,203.3,236.8,203.8,235,204.8z M187.6,166.8l-3.6,3.3
			h3.6V166.8z M188,166.8C188,166.8,187.9,166.8,188,166.8l-0.1,3.3h3.7L188,166.8z M229.5,177.3c-1-0.9-1.7-1.4-2.1-1.7
			c0.3,0.7,0.8,2.1,1.3,4c0.2,0.7,0.2,1,0.2,1.2c0,0.2,0,0.4,0.2,1.2c0.2,0.5,0.5,1.1,0.9,1.5c0-0.2,0-0.4,0-0.6
			c0-0.7,0.1-1.6,0.4-2.4c-0.3-0.7-0.5-1.5-0.5-2.3c0-0.2,0-0.4,0-0.5C229.8,177.5,229.7,177.4,229.5,177.3z M151.1,112.5l-2.6-4.8
			l-0.6-1.1l-14.4-0.6v0l8.7,12.1C145,116.1,148,114.2,151.1,112.5z M140.8,119.1l-8.7-12.1l-4,14.2l4.4,4.8
			C135.1,123.6,137.9,121.3,140.8,119.1z M152.5,111.7c2.4-1.3,4.9-2.5,7.5-3.7l-2.1-7l-1.2-4.1l-7.2,9.1l0.5,0.9L152.5,111.7z
			 M176.4,102.4l-1.9-6l-8.6-2.2l-6.4,6.3l2.1,6.9C166.3,105.3,171.2,103.6,176.4,102.4z M125.3,133.4c1.9-2.2,3.9-4.2,6-6.2
			l-4.4-4.8l-0.1-0.1l-11.2,4l9.6,7L125.3,133.4z M188.1,100.2c3.6-0.4,7.2-0.7,10.8-0.7V84.8L187.4,94l0.5,4.3L188.1,100.2z
			 M178,102c2.8-0.6,5.6-1.2,8.5-1.6l-0.2-2l-0.5-4.4l-11.4-3.3l1.7,5.1L178,102z M113.7,149.3L108,145l-3.6-2.7l-0.5,11.6l5.9,2.8
			C111,154.1,112.3,151.7,113.7,149.3z M101.9,180c0.7-3.6,1.6-7.1,2.7-10.5l-14.1-4.6l5.1,13.9L101.9,180z M100.4,190.2
			c0.3-2.9,0.7-5.7,1.2-8.6l-6.3-1.3l-0.1,0l-6.7,9.8l5.4,0L100.4,190.2z M93.9,191.8l-4.8,7.5l4.3,8.6l6.8,0.1
			c-0.2-2.6-0.3-5.3-0.3-8c0-2.8,0.1-5.5,0.3-8.2L93.9,191.8z M212,93.9l0-0.2l-11.3-8.9v14.6c3.6,0,7.1,0.2,10.6,0.6L212,93.9z
			 M101.5,218c-0.5-2.7-0.9-5.5-1.1-8.2l-7-0.1l-4.5-0.1l6.5,9.6L101.5,218z M124.2,134.6l-5.2-3.8l-8.3,3.2l-1.6,9.7l5.6,4.2
			C117.4,143.2,120.6,138.8,124.2,134.6z M230.5,182.8c0,1.1,0.3,2,0.9,2.8c0.3-0.5,0.5-0.9,0.7-1.1l-0.1-6.3
			C231.4,179.1,230.5,181,230.5,182.8z M299,179.3L299,179.3l5.4-1.1l5-13.5l-13.1,4.3C297.4,172.4,298.3,175.8,299,179.3z
			 M299.4,181c0.5,2.8,1,5.6,1.3,8.4l6,0.1l4.5,0.1l-6.5-9.6L299.4,181z M295.8,167.4l13.2-4.3l-12.3-8.2l-5,2.3
			C293.2,160.6,294.6,164,295.8,167.4z M299.6,217.8l5.2,1l6.7-9.8h-10.7C300.5,212,300.1,214.9,299.6,217.8z M306.1,207.3l4.8-7.5
			l-4.3-8.7l-5.8-0.1c0.3,3,0.4,6,0.4,9c0,2.4-0.1,4.9-0.3,7.3H306.1z M286.7,148.1c1.5,2.5,2.9,5.1,4.2,7.7l5-2.3l0.1,0l-0.4-11.9
			L286.7,148.1L286.7,148.1z M276,133.5c3.6,4.1,6.9,8.5,9.8,13.1l4.5-3.3l-0.5-8.9L281,130L276,133.5z M223.4,95l1.4-4.1l-11.2,3.2
			l-0.7,6.1c2.8,0.3,5.5,0.8,8.3,1.4L223.4,95z M237.9,106.6l1.8-5.7l-5.7-6.9l-9.1,1.4l-2.2,6.4C228,103.1,233,104.7,237.9,106.6z
			 M258.1,117.5L258.1,117.5l8.4-11.6l-14.8,0.7l-2.8,5.2C252,113.5,255.1,115.4,258.1,117.5z M247.3,111l2.9-5.3l-7.3-9.4l-1.6,5.1
			l-1.9,5.8C242.1,108.4,244.8,109.6,247.3,111z M274.9,132.3l5.2-3.7l3.7-2.6l-10.9-3.9l-3.9,4.3C271,128.2,273,130.2,274.9,132.3z
			 M267.7,125.2l4.1-4.4l-4-13.8l-8.4,11.6C262.3,120.6,265.1,122.8,267.7,125.2z M109.1,158.1l-6.1-2.8l-12,8l14.1,4.6
			C106.3,164.6,107.6,161.3,109.1,158.1z M232.1,198.6c0.2-0.2,0.3-0.4,0.4-0.5l0,0l0.1-0.4c0-0.1,0.1-0.1,0.1-0.1
			c0.1,0,0.1,0,0.1,0.1l0.3,0.5c0-0.1,0.1-0.2,0.1-0.2c0.3-0.7,0.4-1.4,0.4-2.2c0-1.3-0.4-2.7-1.1-4.2L232.1,198.6z M228.3,186.9
			c-0.1-0.4-0.2-0.6-0.2-0.9c-0.3-0.3-0.6-0.5-0.9-0.7c0.4,0.9,0.8,2.3,1.2,4c0.2,0.7,0.2,1,0.2,1.2c0,0.2,0,0.4,0.2,1.2
			c0.3,0.7,0.7,1.4,1.4,1.9c0.2-0.4,0.3-0.8,0.5-1.2c-0.4-0.8-0.6-1.6-0.6-2.5c0-0.2,0-0.4,0-0.6
			C229.3,188.7,228.6,187.8,228.3,186.9z M232.5,177c0.2,0.2,0.3,0.5,0.5,0.7c0.3,0.5,0.6,1,0.8,1.5c0.4-1.8,0-3.8-1.3-5.8
			L232.5,177z M231.3,199.7c0.1-0.1,0.1-0.2,0.2-0.3l0.4-7.8c-0.7,1-1.8,2.9-1.8,4.9C230.2,197.7,230.5,198.8,231.3,199.7z
			 M232.6,178.2l0.1,5.2l0,0h0c0,0,0.1,0,0.1,0.1l0.3,0.4c0.2,0.3,0.3,0.6,0.5,0.8c0,0,0,0.1,0.1,0.1c0-0.1,0.1-0.2,0.1-0.3
			C234.3,182.6,233.9,180.4,232.6,178.2z M228.4,184.3c0.2,0.7,0.2,1,0.2,1.2c0,0.3,0,0.4,0.2,1.2c0.3,0.8,0.8,1.5,1.4,2
			c0.1-0.8,0.4-1.6,0.8-2.5c-0.4-0.6-0.7-1.2-0.9-1.9c-0.7-0.6-1.3-1.4-1.6-2.2c-0.1-0.3-0.2-0.6-0.2-0.8c-0.5-0.4-0.9-0.7-1.1-0.9
			C227.5,181.2,228,182.6,228.4,184.3z M234.7,189.8L234.7,189.8c0,0.1,0,0.1,0,0.1c0,0.3-0.1,0.5-0.1,0.7c0,0,0,0.1,0,0.1
			c-0.1,0.3-0.1,0.5-0.2,0.8c0,0,0,0,0,0c-0.2,0.5-0.4,0.9-0.7,1.3c0.2,0.4,0.3,0.9,0.4,1.3c0.5-0.6,1.1-1.1,1.7-1.4
			c0.1,0,0.1-0.1,0.2-0.1l0,0c0.5-0.7,1-1.5,1.4-2.2l0-0.1c0.6-1.1,1.3-2.9,1.9-5.2c-0.5,0.3-1.1,0.7-1.7,1.1l-0.8,0.6
			c-0.2,0.2-0.5,0.4-0.8,0.6c-0.4,0.3-0.9,0.8-1.3,1.3c0,0.1,0,0.1,0,0.2v0.1c0,0.1,0,0.1,0,0.2c0,0,0,0,0,0l0,0.4
			C234.7,189.5,234.7,189.7,234.7,189.8z M233.5,185.9C233.4,185.8,233.4,185.8,233.5,185.9l-0.1-0.1c0,0,0-0.1-0.1-0.1
			c0-0.1-0.1-0.1-0.1-0.2c0-0.1-0.1-0.2-0.1-0.3l-0.1-0.1l-0.3,5.9c0.1,0.2,0.2,0.4,0.3,0.6c0,0,0,0,0,0.1c0.1,0.2,0.2,0.4,0.3,0.6
			c0,0,0,0,0,0c0,0,0-0.1,0.1-0.1l0-0.1c0.1-0.2,0.2-0.3,0.2-0.5l0-0.1c0.1-0.1,0.1-0.3,0.2-0.4h0c0,0,0,0,0,0
			c0.1-0.2,0.1-0.5,0.2-0.8l0.1,0l-0.1,0c0-0.3,0.1-0.6,0.1-0.9c0-0.2,0-0.3,0-0.5c0-0.2,0-0.4-0.1-0.5v0
			C234,187.4,233.8,186.7,233.5,185.9z M233,205.9c0-0.1,0.1-0.1,0.1-0.2c0.4-0.8,0.7-1.8,0.7-2.8c0-1.1-0.3-2.3-0.8-3.6l-0.9,6.2
			c0.1-0.1,0.2-0.1,0.2-0.2l0.1-0.1l0.1-0.4c0-0.1,0.1-0.1,0.1-0.1c0.1,0,0.1,0,0.1,0.1l0.1,0.5C232.9,205.6,232.9,205.7,233,205.9z
			 M231.6,212.8c0.8-1.1,1.2-2.4,1.2-4c0-0.7-0.1-1.5-0.2-2.3l-2.2,6.6c0,0.1,0,0.3,0,0.4c0,0.2,0,0.4,0,0.5
			C230.8,213.7,231.2,213.3,231.6,212.8z M231.1,191.8c0.4-0.7,0.8-1.1,0.9-1.3l0-0.4c0-0.1,0-0.1,0.1-0.1c0,0,0.1,0,0.1,0l0.3-5.1
			c-0.7,1-1.8,3-1.8,4.9C230.7,190.6,230.8,191.2,231.1,191.8z M228.7,196.7c0,0.2,0,0.4,0.2,1.2c0.4,1,1.1,1.9,2,2.3c0,0,0,0,0-0.1
			l0,0c-0.9-1-1.4-2.3-1.4-3.6c0-0.7,0.1-1.5,0.4-2.4c-0.5-0.4-0.9-0.8-1.2-1.4c-0.6-0.5-1.1-0.9-1.5-1.2c0.5,1.2,0.9,2.6,1.3,4
			C228.7,196.2,228.7,196.5,228.7,196.7z M101.8,219.6l-6.3,1.2l-5,13.5l13.9-4.5C103.4,226.5,102.5,223.1,101.8,219.6z
			 M230.7,206.7c0.2-0.2,0.4-0.4,0.6-0.6l1-6.9c-0.8,1-2.3,3.1-2.3,5.3C230.1,205.2,230.3,206,230.7,206.7z M229,213.2
			c0.4-0.2,0.8-0.4,0.9-0.4l0,0l2.1-6.4c-1.2,1-3.2,3.1-3.2,5.6C228.8,212.3,228.9,212.7,229,213.2z M123.9,265.2
			c-3.5-4.1-6.6-8.4-9.4-13l-4.9,3.5l0.5,8.9l8.4,4.3L123.9,265.2z M150.7,287.4c-3.2-1.8-6.2-3.8-9.2-5.9l-6.2,8.5l-2.2,3l14.8-0.6
			L150.7,287.4L150.7,287.4z M132,273.7l-4.2,4.5l3.9,13.9l8.4-11.5C137.3,278.4,134.6,276.1,132,273.7z M125,266.5l-0.1,0.1l-9,6.3
			l10.9,4l4.1-4.4C128.8,270.6,126.9,268.6,125,266.5z M104.9,231.5L91,236l12.3,8.2l5.6-2.6C107.4,238.3,106.1,234.9,104.9,231.5z
			 M109.6,243.1l-4.3,2l-1.4,0.6l0.4,11.9l4.3-3.2l5-3.6C112.2,248.3,110.8,245.7,109.6,243.1z M188.7,306.3l11.3,8.9v-14.5
			c-3.6,0-7.1-0.2-10.6-0.6L188.7,306.3z M176.7,206.7c-0.4,0.3-1,0.9-2,1.8c0,0-0.1,0.1-0.1,0.1c0,0.1,0,0.2,0,0.2
			c-0.1,0.9-0.6,1.9-1.3,2.6c0,0.1,0,0.3,0,0.4c0,0.5-0.1,1-0.2,1.5c0.4,0.2,1,0.6,1.6,1.1c0.3-0.4,0.6-0.9,0.7-1.4
			c0.2-0.8,0.2-1,0.2-1.2c0,0,0,0,0-0.1c0-0.1,0-0.1,0-0.2c0-0.3,0-0.5,0.1-1C176.1,208.9,176.5,207.6,176.7,206.7z M280.9,183.7
			l-1.5,0.2l0.4,3.7l1.5-0.2l-0.1-0.9l5-0.5v0l-6.2,3.4l0.5,4.2l1.5-0.2l-0.1-0.8l5.6-0.6l0.1,0.9l1.5-0.2l-0.4-3.8l-1.5,0.2
			l0.1,0.9l-5.3,0.6v0l6.5-3.8l-0.3-3.1l-7.1,0.7L280.9,183.7z M277.8,159l-5.1,2.5l-0.4-0.8l-1.4,0.7l3.6,7.3l2.6-1.2l-0.8-1.7
			l-1.2,0.6l-1.3-2.6l2-1l0.3,0.7l-0.8,0.4l0.7,1.4l2.9-1.4l-0.7-1.4l-0.8,0.4l-0.4-0.7l1.8-0.9l1.3,2.6l-1.1,0.5l0.8,1.7l2.4-1.2
			l-3.6-7.3l-1.3,0.7L277.8,159z M152.1,288.3l-2.8,5.1l7.3,9.4l1.7-5.1l1.8-5.5C157.3,291,154.7,289.7,152.1,288.3z M177.7,304
			l-1.8,5.2l11.2-3.2l0.7-6c-2.8-0.3-5.5-0.8-8.2-1.4L177.7,304z M177.9,298.1c-5.7-1.3-11.1-3.1-16.4-5.3l-1.7,5.3l5.7,6.9
			l10.7-1.6L177.9,298.1z M284.7,194.8c-2.8,0-4.5,1.8-4.5,4.7c0,2.9,1.7,4.7,4.5,4.7c2.8,0,4.5-1.8,4.5-4.7
			C289.2,196.6,287.5,194.8,284.7,194.8z M284.7,201.6c-1.3,0-3-0.4-3-2.1c0-1.7,1.7-2.1,3-2.1c1.3,0,3,0.4,3,2.1
			C287.7,201.2,286,201.6,284.7,201.6z M121.5,235.3c1-0.9,2.3-1.4,1.7-3l0,0c0.5,1.2,1.5,1.8,2.8,1.3c1-0.4,1.4-1,1.5-1.7
			c0.1-0.7-0.1-1.5-0.5-2.3l-1.7-4.4l-1.4,0.5l0.3,0.8l-5.3,2l-0.3-0.8l-1.4,0.5l1.5,4l1.4-0.5l-0.3-0.9l1.8-0.7l0.3,0.7
			c0.1,0.2,0.1,0.5,0,0.7c-0.1,0.3-0.9,1-1.2,1.2c-0.6,0.5-1.2,0.9-1.4,1.1l1,2.7l1.4-0.5L121.5,235.3z M125.1,228.9l0.3,0.8
			c0.2,0.6,0.4,1.3-0.5,1.6c-0.9,0.3-1.4-0.1-1.6-0.8l-0.3-0.8L125.1,228.9z M118.6,223.5l-1.3,0.3l-0.7-2.8l2.1-0.5l0.2,0.8
			l-0.9,0.2l0.4,1.5l3.1-0.8l-0.4-1.5l-0.8,0.2l-0.2-0.8l2-0.5l0.7,2.8l-1.2,0.3l0.5,1.9l2.6-0.7l-2-7.9l-1.5,0.4l0.2,0.8l-5.5,1.4
			l-0.2-0.8l-1.5,0.4l2,7.9l2.8-0.7L118.6,223.5z M190.2,280.8l0.9,0.1l-0.5,3.6c-0.2,1.2-0.4,2.2-1.9,2c-1.4-0.2-1.4-1.2-1.2-2.4
			l0.5-3.6l1,0.1l0.2-1.5l-4.1-0.6l-0.2,1.5l0.7,0.1l-0.5,3.6c-0.4,2.9,0.6,3.8,3.5,4.2c2.7,0.4,3.9-0.4,4.3-3.2l0.5-3.6l0.7,0.1
			l0.2-1.5l-3.8-0.5L190.2,280.8z M118,215.3c2.1-0.2,3.7-1.6,3.8-3.8c0-0.9-0.2-2.1-0.3-3l-0.4-3l-1.5,0.2l0.1,0.9l-5.6,0.7
			l-0.1-0.9l-1.5,0.2l0.5,3.8c0.2,1.4,0.3,2.6,1.2,3.7C115.2,215.1,116.6,215.4,118,215.3z M114.6,210.7l-0.1-1.1l5.6-0.7l0.2,1.2
			c0.2,1.7-0.9,2.3-2.5,2.5C116.2,212.8,114.8,212.5,114.6,210.7z M134.5,244.1l-1.2,0.9l0.5,0.7l-4.6,3.3l-0.5-0.7l-1.2,0.9
			l4.4,6.1l2.7-2l-1.2-1.7l-1.5,1.1l-1.2-1.7l4.6-3.3l0.7,1l1.2-0.9L134.5,244.1z M114.1,189.2l2,0.2l-0.1,0.8l-0.9-0.1l-0.2,1.5
			l3.3,0.3l0.2-1.5l-0.9-0.1l0.1-0.8l2.2,0.2l-0.3,2.9l-1.3-0.1l-0.2,1.9l2.9,0.3l0.8-8.1l-1.5-0.2l-0.1,0.9l-5.6-0.6l0.1-0.8
			l-1.5-0.1l-0.5,4.4l1.5,0.2L114.1,189.2z M114.9,202.4l-1.3,0.1l-0.2-2.9l2.2-0.1l0,0.8l-0.9,0.1l0.1,1.5l3.2-0.2l-0.1-1.5l-0.9,0
			l-0.1-0.8l2.1-0.1l0.2,2.9l-1.2,0.1l0.1,1.9l2.7-0.2l-0.5-8.2l-1.5,0.1l0,0.9l-5.7,0.3l-0.1-0.9l-1.5,0.1l0.5,8.2l2.9-0.2
			L114.9,202.4z M180.6,277.4l-2.8-0.9l-4.9,6l-0.5-0.1l-0.4,1.4l3.6,1.1l0.4-1.4l-0.9-0.3l0.7-0.8l3,0.9l0.1,1l-0.9-0.3l-0.4,1.4
			l3.9,1.2l0.4-1.5l-0.5-0.1L180.6,277.4z M176.6,281.1l1.8-2.4l0,0l0.1,3L176.6,281.1z M168.6,280.9l-2.6-1.2l0.9-2l0.7,0.3
			l-0.4,0.8l1.4,0.6l1.3-2.9l-1.4-0.6l-0.3,0.8l-0.7-0.3l0.8-1.9l2.6,1.2l-0.5,1.1l1.7,0.8l1.1-2.5l-7.4-3.3l-0.6,1.4l0.8,0.3
			l-2.3,5.2l-0.8-0.3l-0.6,1.4l7.4,3.3l1.1-2.6l-1.7-0.8L168.6,280.9z M162.8,273c0.5-0.9,0.5-1.6,0.1-2.2c-0.3-0.6-1-1.1-1.8-1.5
			l-4.1-2.4l-0.8,1.3l0.7,0.5l-2.9,4.8l-0.7-0.4l-0.8,1.3l3.7,2.2l0.8-1.3l-0.8-0.5l1-1.7l0.6,0.4c0.2,0.1,0.4,0.3,0.5,0.5
			c0.1,0.3-0.1,1.3-0.2,1.7c-0.2,0.7-0.4,1.4-0.4,1.7l2.5,1.5l0.8-1.3l-0.7-0.4c0.2-1.3,1-2.5-0.5-3.4l0,0
			C161,274.3,162.1,274.1,162.8,273z M158.8,272.2l-0.8-0.5l1.1-1.9l0.8,0.5c0.5,0.3,1.1,0.8,0.6,1.5
			C160.1,272.6,159.4,272.6,158.8,272.2z M155.2,267.4l0.9-1.2l-3-2.3l-0.9,1.2l0.7,0.6l-2.2,2.9c-0.8,1-1.5,1.7-2.6,0.8
			c-1.1-0.9-0.6-1.8,0.2-2.7l2.2-2.9l0.8,0.6l0.9-1.2l-3.3-2.6l-0.9,1.2l0.6,0.4l-2.3,2.9c-1.8,2.3-1.4,3.7,0.9,5.4
			c2.2,1.7,3.6,1.6,5.3-0.6l2.2-2.9L155.2,267.4z M146.3,261.3c1.5-1.5,0.4-2.7-1-4l-3.2-3.2l-1.1,1.1l0.6,0.6l-4,4l-0.6-0.6
			l-1.1,1.1l3.3,3.3c1.2,1.2,2.7,2.4,4.2,0.9c0.9-0.9,0.8-1.9,0-2.9l0,0C144.4,262,145.5,262.1,146.3,261.3z M141.9,262.4
			c-0.6,0.6-1.3,0.2-1.7-0.2l-0.7-0.7l1.5-1.5l0.9,0.9C142.4,261.3,142.4,261.9,141.9,262.4z M142.7,259.6l-0.7-0.7l1.5-1.5l0.8,0.8
			c0.4,0.4,0.6,0.9,0.1,1.4C143.7,260.3,143,259.9,142.7,259.6z M132.1,240.2l-1.4-2.6l-7.7,0.8l-0.3-0.5l-1.3,0.7l1.7,3.3l1.3-0.7
			l-0.5-0.9l1-0.1l1.5,2.8l-0.7,0.8l-0.5-0.9l-1.3,0.7l1.9,3.7l1.3-0.7l-0.2-0.5L132.1,240.2z M129.6,239.6L129.6,239.6l-2.1,2.2
			l-0.9-1.8L129.6,239.6z M199.7,112.8h1.1l0,5.7h-1.1v1.5l4.7,0l0-1.5l-1.1,0l0-5.6h1.1l0,1.6l2,0l0-3.2l-8.8-0.1l0,3.2l2,0
			L199.7,112.8z M163.7,121.1l2.2,5.2l-0.7,0.3l0.6,1.4l3.2-1.3l-0.6-1.4l-0.8,0.3l-2.2-5.2h0l4.6,5.8l2.1-0.9l-0.9-7.4l0,0l2.2,5.2
			l-0.8,0.3l0.6,1.4l3.6-1.5l-0.6-1.4l-0.7,0.3l-2.2-5.2l0.7-0.3l-0.6-1.4l-4.1,1.7l1,6.4l0,0l-3.8-5.2l-4.1,1.7l0.6,1.4
			L163.7,121.1z M177.2,116l1.2,5.5l-0.8,0.2l0.3,1.5l7.9-1.8l-0.6-2.8l-1.9,0.4l0.3,1.3l-2.8,0.6l-0.5-2.1l0.8-0.2l0.2,0.9l1.5-0.3
			l-0.7-3.1l-1.5,0.3l0.2,0.9l-0.8,0.2l-0.5-2l2.8-0.6l0.3,1.2l1.9-0.4l-0.6-2.6l-7.9,1.8l0.3,1.5L177.2,116z M186.7,114l0.8,5.6
			l-0.8,0.1l0.2,1.5l3.8-0.5l-0.2-1.5l-1,0.1l-0.7-5.3h0l3.9,6.4l3.1-0.4l-0.9-7.1l0.7-0.1l-0.2-1.5l-3.7,0.5l0.2,1.5l0.9-0.1l0.7,5
			h0l-3.6-6.1l-4.2,0.6l0.2,1.5L186.7,114z M216,121.7c2.9,0.6,5-0.8,5.5-3.5c0.5-2.8-0.9-4.8-3.8-5.3c-2.9-0.6-5,0.8-5.5,3.5
			C211.7,119.1,213.1,121.2,216,121.7z M214.8,116.9c0.2-1.3,0.9-2.9,2.6-2.6c1.7,0.3,1.7,2.1,1.5,3.4c-0.3,1.3-0.9,2.9-2.6,2.6
			C214.6,119.9,214.6,118.2,214.8,116.9z M226.4,122.8l-1-0.3l0.6-1.9l0.8,0.3l-0.3,0.9l1.4,0.5l1.1-3.1l-1.4-0.5l-0.3,0.8l-0.8-0.3
			l0.7-2.1l2.7,0.9l-0.4,1.3l1.8,0.6l0.9-2.7l-7.7-2.6L224,116l0.8,0.3l-1.8,5.3l-0.8-0.3l-0.5,1.4l4.2,1.4L226.4,122.8z
			 M156.2,126.9l-0.8-1.4l1-0.6l2.8,4.9l-1,0.6l0.7,1.3l4.1-2.3l-0.7-1.3l-1,0.5l-2.8-4.9l1-0.5l0.8,1.4l1.8-1l-1.6-2.7l-7.7,4.4
			l1.6,2.7L156.2,126.9z M131.3,146.9l4.4,3.6l-0.6,0.7l1.2,1l2.9-3.5l-1.2-1l-0.8,0.9l-1.2-1l1-1.2c1.2-1.4,1.4-2.9-0.1-4.2
			c-1.5-1.2-3-0.7-4.1,0.7l-3.1,3.8l1.2,0.9L131.3,146.9z M133.5,144.3c0.6-0.7,1-0.7,1.7-0.2c0.7,0.5,0.7,1.2,0.2,1.8l-0.6,0.7
			l-2-1.6L133.5,144.3z M125.6,155l4.7,3.2l-0.5,0.7l1.3,0.9l4.6-6.7l-2.3-1.6l-1.1,1.6l1.1,0.8l-1.6,2.4l-1.8-1.2l0.5-0.7l0.7,0.5
			l0.9-1.3l-2.6-1.8l-0.9,1.3l0.7,0.5l-0.4,0.7l-1.7-1.1l1.6-2.4l1,0.7l1.1-1.6l-2.2-1.5l-4.6,6.7l1.3,0.9L125.6,155z M140.5,144.6
			l1,1.1l2.7-2.6l-1-1.1l-0.7,0.7l-0.4-1l2.3-2.2l0.9,0.4l-0.7,0.7l1,1.1l3-2.9l-1-1.1l-0.4,0.4l-7-3.2l-2.2,2l2.8,7.2L140.5,144.6z
			 M140.3,137.6L140.3,137.6l2.7,1.4l-1.4,1.4L140.3,137.6z M145.9,132.1l3.4,4.5l-0.7,0.5l0.9,1.2l3.4-2.6l-0.9-1.2l-0.8,0.6
			l-1.2-1.6l0.6-0.4c0.2-0.1,0.4-0.2,0.7-0.2c0.3,0,1.2,0.6,1.5,0.8c0.6,0.4,1.2,0.9,1.4,1l2.3-1.7l-0.9-1.2l-0.6,0.5
			c-1.1-0.7-1.9-1.9-3.3-0.8l0,0c1-0.8,1.3-1.9,0.5-3c-0.6-0.8-1.3-1.1-2-1c-0.7,0.1-1.4,0.5-2.1,1l-3.8,2.8l0.9,1.2L145.9,132.1z
			 M148.6,130.1c0.5-0.4,1.1-0.7,1.7,0c0.5,0.7,0.2,1.3-0.4,1.8l-0.7,0.5l-1.3-1.8L148.6,130.1z M120.2,165.3l5.1,2.5l-0.4,0.8
			l1.3,0.7l1.7-3.5c0.6-1.3,1.2-2.4,1-3.8c-0.2-1.5-1.2-2.5-2.5-3.1c-1.9-0.9-3.9-0.7-5.3,1.1c-0.5,0.7-1,1.9-1.4,2.7l-1.3,2.7
			l1.4,0.7L120.2,165.3z M121.9,161.9c0.8-1.5,2-1.4,3.4-0.7c1.4,0.7,2.4,1.8,1.6,3.3l-0.5,1l-5.1-2.5L121.9,161.9z M256.1,264.8
			l0.8,1l-2.2,1.9l-1.4-1.7l0.6-0.5l0.6,0.7l1.2-1l-2.1-2.5l-1.2,1l0.6,0.7l-0.6,0.5l-1.3-1.6l2.2-1.9l0.8,0.9l1.5-1.2l-1.7-2.1
			l-6.2,5.2l1,1.2l0.7-0.5l3.6,4.3l-0.6,0.5l1,1.2l6.2-5.2l-1.8-2.2L256.1,264.8z M204,279.7c-2.9,0.1-4.6,1.9-4.6,4.7
			c0.1,2.8,2,4.5,4.9,4.4c2.9-0.1,4.7-1.9,4.6-4.7C208.8,281.2,206.9,279.6,204,279.7z M204.3,287.2c-1.7,0.1-2.1-1.6-2.2-2.9
			c-0.1-1.3,0.3-3,2-3.1c1.7-0.1,2.1,1.6,2.2,2.9C206.3,285.4,206,287.1,204.3,287.2z M224.4,297.8l1.9,5.8l8.7,2.2l6.1-6l-2.1-6.7
			C234.3,295,229.4,296.6,224.4,297.8z M260.1,281.1l8,11l4-14.2l-3.5-3.8C265.9,276.6,263,279,260.1,281.1z M249.7,287.9l2.5,4.6
			l0.1,0.1l14.4,0.6l-8-11C255.8,284.2,252.8,286.1,249.7,287.9z M298.6,200c0-54.1-44-98.2-98.2-98.2c-54.1,0-98.2,44-98.2,98.2
			c0,54.1,44,98.2,98.2,98.2C254.6,298.2,298.6,254.1,298.6,200z M200.4,293c-51.3,0-92.8-41.6-92.8-92.8
			c0-51.3,41.6-92.8,92.8-92.8c51.3,0,92.8,41.6,92.8,92.8C293.3,251.5,251.7,293,200.4,293z M222.8,298.2c-2.8,0.6-5.7,1.2-8.6,1.6
			l0.7,6.2l11.4,3.3l-3.5-10.9L222.8,298.2z M201.7,300.7v14.5l11.6-9.2l-0.7-6C209,300.4,205.4,300.6,201.7,300.7z M299.3,219.4
			c-0.7,3.6-1.6,7.2-2.7,10.6l12.9,4.2l-5.1-13.9L299.3,219.4z M275.9,266.6c-2,2.2-4,4.4-6.2,6.4l3.5,3.8l0.1,0.1l11.2-4l-4.3-3.2
			L275.9,266.6z M292.2,241.6l4.8,2.2l12-8l-12.9-4.2C295,235.1,293.7,238.4,292.2,241.6z M291.5,243.1c-1.2,2.6-2.6,5.1-4,7.6
			l4.6,3.5l3.6,2.7l0.5-11.6l-4.4-2L291.5,243.1z M277,265.4l4.1,3l8.3-3.3l1.6-9.6l-4.5-3.4C283.8,256.8,280.6,261.3,277,265.4z
			 M248.2,288.7c-2.5,1.3-5.1,2.6-7.7,3.7l0,0.2l3,9.8l7.2-9.1l-0.8-1.4L248.2,288.7z M247.5,266.4l-0.8-1.3l-3.4,2.1l0.8,1.3
			l0.9-0.5l1.2,5.4l0,0l-4.3-3.5l0.9-0.5L242,268l-3.7,2.3l0.8,1.3l0.5-0.3l6.2,4.5l2.4-1.5l-1.3-7.6L247.5,266.4z M238,272.2
			l-0.6-1.4l-3.3,1.6l0.7,1.4l0.8-0.4l2.1,4.5l0,0l-5.3-4.7l-3.8,1.8l0.6,1.4l0.8-0.3l2.4,5.1l-0.8,0.3l0.6,1.4l3.5-1.6l-0.6-1.4
			l-0.9,0.4l-2.3-4.8l0,0l5.7,4.9l2.8-1.3l-3-6.5L238,272.2z M236.6,128.8c0.9,0.5,2,0.8,3,0.1c0.6-0.4,0.9-1,1.2-1.6l1.9-3.7
			l0.6,0.3l0.7-1.4l-3.9-2l-0.7,1.3l1.1,0.6l-2.2,4.2c-0.2,0.4-0.6,0.9-1,0.7c-0.5-0.3-0.1-1.1,0.1-1.5l0.2-0.3l-2.1-1.1
			C234.2,126.5,234.6,127.8,236.6,128.8z M258.1,257.9c-0.5-0.5-0.1-1.1,0.2-1.5c0.6-0.7,1.4-0.8,2-0.1l1.4-1.5l-2-1.9l-1.4,1.5
			l0.5,0.5l0,0c-0.7-0.3-1.6,0.4-2,0.8c-1.2,1.2-1.6,2.8-0.3,4.1c2.3,2.2,5.2-1.8,6.3-0.8c0.5,0.5,0.2,1.1-0.2,1.5
			c-0.7,0.7-1.6,0.6-2.2-0.1l-1.5,1.6l2.2,2.1l1.4-1.5l-0.6-0.6l0,0c0.8,0.3,1.7-0.3,2.2-0.8c1.3-1.4,1.7-2.8,0.2-4.3
			C261.9,254.9,259.1,258.9,258.1,257.9z M228.7,282.2l-1.8-5.3l0.9-0.3l-0.5-1.4l-4.2,1.5l0.5,1.4l0.9-0.3l1.8,5.4l-0.9,0.3
			l0.5,1.4l4.2-1.4l-0.5-1.4L228.7,282.2z M216.7,281.2l1.9-0.3l-0.5-2.8l-8,1.4l0.3,1.5l0.8-0.1l1,5.6l-0.8,0.1l0.3,1.5l4.4-0.8
			l-0.3-1.5l-1.1,0.2l-0.3-1.9l0.8-0.1l0.2,0.9l1.5-0.3l-0.6-3.2l-1.5,0.3l0.2,0.9l-0.8,0.1l-0.4-2.2l2.8-0.5L216.7,281.2z
			 M287.1,207.3l-5.6-0.6l0.1-1l-1.5-0.2l-0.5,4.5l1.5,0.1l0.1-1l5.6,0.6l-0.1,1l1.5,0.2l0.5-4.5l-1.5-0.2L287.1,207.3z
			 M284.2,222.7l-7.7,0.5l-0.9,2.8l5.9,5l-0.2,0.5l1.4,0.5l1.2-3.6l-1.4-0.5l-0.3,0.9l-0.8-0.7l1-3l1-0.1l-0.3,0.9l1.4,0.5l1.3-3.9
			l-1.4-0.5L284.2,222.7z M280.2,227.3l-2.4-1.8l0,0l3,0L280.2,227.3z M269.9,251.7l-4.5-3.4l0.7-0.9l1.3,1l1.2-1.6l-2.5-1.9l-5.3,7
			l2.5,1.9l1.2-1.6l-1.3-1l0.7-0.9l4.5,3.4l-0.7,0.9l1.2,0.9l2.9-3.8l-1.2-0.9L269.9,251.7z M285.8,215.6l-5.5-1.1l0.2-1.1l1.6,0.3
			l0.4-2l-3.1-0.6l-1.7,8.7l3.1,0.6l0.4-2l-1.6-0.3l0.2-1.1l5.6,1.1l-0.2,1.1l1.5,0.3l0.9-4.6l-1.5-0.3L285.8,215.6z M274.6,244.7
			l-4.8-3l0.5-0.9l-1.3-0.8l-2.4,3.8l1.3,0.8l0.5-0.8l4.8,3l-0.5,0.8l1.3,0.8l2.4-3.8l-1.3-0.8L274.6,244.7z M279.1,232.9l-1.4-0.7
			l-1.7,3.5l1.4,0.7l0.4-0.9c0.9,0.5,1.2,1.5,0.7,2.5c-0.8,1.5-2.4,1.1-3.6,0.5c-1.2-0.6-2.5-1.7-1.8-3.2c0.5-1,1.4-1.4,2.4-1l1-2
			l-2.7-1.3l-0.9,1.8l0.8,0.4v0c-1.1,0.1-1.7,1.1-2.1,1.9c-1.3,2.6-0.1,4.5,2.3,5.7c2.4,1.2,4.8,0.5,6-2c0.4-0.8,0.6-1.8,0.1-2.6
			l0,0l0.8,0.4l0.9-1.8l-2.7-1.3L279.1,232.9z M226.7,258C226.7,257.9,226.7,257.9,226.7,258C226.7,257.9,226.7,257.9,226.7,258
			C226.7,257.9,226.7,257.9,226.7,258l-5.3-1.7l0.1-5.5c0,0,0-0.1,0-0.1c0,0,0,0,0,0c0,0,0,0,0,0c0,0,0,0,0,0c0,0,0,0,0,0
			c0,0,0,0,0,0c0,0,0,0-0.1,0c0,0,0,0,0,0c0,0,0,0,0,0l-3.2,4.4l-5.2-1.7c-0.1,0-0.1,0-0.2,0.1c0,0.1,0,0.1,0,0.2l0.1,0.1
			c0,0,0,0,0,0l3.1,4.3l-3.3,4.4c0,0,0,0,0,0c0,0,0,0,0,0.1c0,0,0,0,0,0.1c0,0,0,0,0,0c0,0,0,0,0,0c0,0,0,0,0,0c0,0,0,0,0,0
			c0,0,0,0,0,0c0,0,0,0,0.1,0c0,0,0,0,0,0l5.2-1.7l3.1,4.4c0,0,0,0,0,0l0,0.1c0,0.1,0.1,0.1,0.2,0.1c0.1,0,0.1-0.1,0.1-0.1l0-5.5
			l5.2-1.6c0.1,0,0.1-0.1,0.1-0.1c0,0,0,0,0,0C226.8,258,226.8,258,226.7,258C226.7,258,226.7,258,226.7,258z M177,215.9
			c0-0.2,0-0.5,0.2-1.2c0.4-1.3,0.9-2.7,1.5-3.9c-0.6,0.4-1.3,0.9-2.2,1.6c-0.1,0.1-0.3,0.2-0.4,0.3c0,0.2-0.1,0.3-0.1,0.6
			c-0.2,0.6-0.4,1.1-0.8,1.7c0.7,0.6,1.2,1.3,1.6,2C177,216.3,177,216.1,177,215.9z M166.2,149.3
			C166.2,149.3,166.2,149.3,166.2,149.3l5.4,0.9l0.8,5.4c0,0,0,0,0,0c0,0,0,0,0,0c0,0,0.1,0.1,0.1,0.1c0.1,0,0.1,0,0.1-0.1
			c0,0,0,0,0,0l2.5-4.9l5.4,0.9c0.1,0,0.1,0,0.2-0.1c0,0,0,0,0-0.1c0,0,0-0.1,0-0.1l-0.2-0.1l-3.7-3.7l2.6-4.8c0,0,0-0.1,0-0.1
			c0,0,0-0.1,0-0.1c0,0,0,0,0,0c0,0,0,0,0,0c0,0,0,0,0,0c0,0,0,0,0,0c0,0,0,0-0.1,0c0,0,0,0,0,0l-4.9,2.5l-3.7-3.8l0,0l-0.1-0.1
			c0-0.1-0.1-0.1-0.2,0c-0.1,0-0.1,0.1-0.1,0.2l0.9,5.4l-4.9,2.4c-0.1,0-0.1,0.1-0.1,0.2C166,149.2,166.1,149.3,166.2,149.3z
			 M176.6,218c-0.7-2.3-3.1-3.8-4.3-4.4l3,4.9C175.7,218.4,176.4,218.2,176.6,218z M174.7,218.6l-2.9-4.7c0,0.2,0,0.4,0,0.6
			c0,0,0,0.1,0,0.2c0,0.2,0,0.4,0.1,0.6l0,0.3c0,0.1,0,0.2,0,0.2c0,0.2,0.1,0.4,0.1,0.6c0,0.1,0.1,0.3,0.1,0.4c0,0,0,0,0,0.1
			c0.3,0.9,0.7,1.7,1.2,2.3C173.9,219,174.4,218.8,174.7,218.6z M165.2,180.9c0.1,0.2,0.2,0.4,0.3,0.6l0.1,0.1
			c0.1,0,0.1,0.1,0.2,0.1l0.2,0.1c0.4,0.3,0.8,0.6,1.1,1v-0.2c0-0.8,0.1-1.7,0.4-2.5c0,0,0-0.1,0-0.1c0,0,0-0.1,0-0.1
			c-0.2-0.5-0.3-1.1-0.3-1.6c-0.2-0.2-0.4-0.3-0.5-0.5c-1.6-1.2-2.7-1.9-3.3-2.2c0.3,1.1,1,3.7,1.9,5.2L165.2,180.9z M149.1,166.5
			l-3.3,4.4c0,0,0,0.1,0,0.2c0,0,0,0.1,0.1,0.1c0,0,0,0,0,0c0,0,0,0,0,0c0,0,0,0,0,0c0,0,0,0,0,0l5.2-1.7l3.2,4.5
			c0,0.1,0.1,0.1,0.2,0.1c0.1,0,0.1-0.1,0.1-0.1v0l0-5.5l5.2-1.7c0.1,0,0.1-0.1,0.1-0.1c0-0.1,0-0.1-0.1-0.1l-0.2-0.1l-5-1.6l0-5.5
			c0-0.1,0-0.1-0.1-0.1c0,0,0,0,0,0l0,0c0,0,0,0,0,0c-0.1,0-0.1,0-0.1,0.1l0,0l-3.2,4.5l-5.1-1.7c0,0,0,0,0,0c0,0,0,0,0,0l-0.1,0
			c-0.1,0-0.1,0-0.2,0.1c0,0,0,0.1,0,0.2L149.1,166.5z M160,219.8c-0.9,0.7-1.7,1.6-1.7,2.2c0,0.1,0,0.2,0.1,0.3l0,0
			c0.1,0.1,0.1,0.2,0.2,0.3c0,0,0,0,0,0c0.2,0.2,0.5,0.3,0.9,0.4c0.1,0,0.1,0,0.2,0c0.2,0,0.4,0.1,0.6,0.1c0,0,0.1,0,0.1,0
			c0.2,0,0.5,0,0.7,0c0,0,0,0,0,0c0.3,0,0.6,0,0.9-0.1c0.1,0,0.1,0,0.2,0c0.2,0,0.5-0.1,0.8-0.1c0.2,0,0.3-0.1,0.5-0.1
			c0.2,0,0.4-0.1,0.6-0.1c0,0,0.1,0,0.1,0c-0.5-1.8-1-3.4-1.7-4.9c0,0,0,0,0,0c-0.2,0.1-0.3,0.3-0.5,0.5c0,0-0.1,0.1-0.1,0.1
			c-0.2,0.2-0.4,0.3-0.6,0.5C160.7,219.2,160.4,219.5,160,219.8z M159.5,218.3c0.2-0.2,0.4-0.3,0.6-0.5l0.1-0.1
			c0.4-0.3,1.1-0.8,1.4-1.2c-0.4-0.1-1.8-0.1-3.3,0.2L159.5,218.3z M164.2,185.3c0.1,0.1,0.2,0.3,0.2,0.4c0.5,0.4,1,0.7,1.4,1.1
			c0.4,0.3,0.7,0.6,1,1c0-0.2,0.1-0.4,0.2-0.7l0.1-0.3c0.1-0.2,0.1-0.4,0.2-0.6c0.1-0.2,0.1-0.4,0.2-0.5c0,0,0-0.1,0.1-0.1
			c0,0,0,0,0,0c0,0,0-0.1-0.1-0.1l0-0.1c0-0.1,0-0.1-0.1-0.2c0-0.1-0.1-0.1-0.1-0.2c0,0,0-0.1,0-0.1c0,0,0-0.1,0-0.1l-0.1-0.5
			c0-0.1,0-0.2,0-0.2c-0.4-0.5-0.8-1-1.3-1.4l-0.7-0.5c-1.4-1-2.3-1.6-2.8-1.9C162.7,181.5,163.4,183.8,164.2,185.3L164.2,185.3z
			 M167.6,214.1c0.4,0.4,0.9,0.8,1.3,1.2c0.2,0.1,0.5,0.1,0.8,0.2c0.6,0.2,1.2,0.5,1.8,0.8c0,0,0-0.1,0-0.1l0-0.2
			c0-0.2-0.1-0.3-0.1-0.5c0,0,0,0,0,0l-0.1-0.6c0,0,0,0,0,0c0,0,0-0.1,0-0.1v0c-0.5-0.3-1.1-0.8-1.7-1.6c0,0,0-0.1-0.1-0.1
			c0,0,0,0,0-0.1c0-0.1-0.1-0.1-0.1-0.2c-0.2-0.2-0.3-0.5-0.4-0.8l-0.1-0.2c-0.1-0.1-0.1-0.3-0.2-0.5c0-0.1-0.1-0.2-0.1-0.3
			c0,0,0,0,0-0.1c-0.1-0.1-0.3-0.1-0.4-0.2c-2.1-0.8-3.2-1.1-3.8-1.2C165.5,211.6,166.6,213.2,167.6,214.1L167.6,214.1z
			 M164.5,196.3c0.4,0.6,0.8,1.1,1.1,1.5c0.1,0.1,0.3,0.2,0.4,0.2c0.7,0.4,1.3,1,1.9,1.6l0-0.1c0-0.1,0.1-0.2,0.1-0.3
			c0-0.1,0.1-0.2,0.2-0.4c-0.1-0.2-0.2-0.5-0.3-0.7c0,0,0,0,0,0c0,0,0,0,0-0.1c-0.1-0.2-0.2-0.5-0.2-0.7c0,0,0-0.1,0-0.1
			c-0.1-0.5-0.2-1-0.2-1.4c0-0.1,0-0.2,0-0.3v-0.1c0-0.2,0-0.4,0.1-0.6c-0.6-0.7-1.2-1.3-1.9-1.7c-1.8-1.1-2.9-1.7-3.5-1.9
			C162.6,192.6,163.5,194.9,164.5,196.3L164.5,196.3z M164.2,190.3c0.4,0.7,0.9,1.5,1.4,2.2l0,0c0.1,0,0.1,0.1,0.2,0.1
			c0.6,0.4,1.2,0.9,1.7,1.4c0.1-0.4,0.2-0.9,0.4-1.3c-0.3-0.4-0.5-0.8-0.7-1.3c0,0,0,0,0,0c-0.1-0.3-0.2-0.5-0.2-0.8
			c0,0,0-0.1,0-0.1c0-0.2-0.1-0.4-0.1-0.7c0,0,0,0,0-0.1v0c0-0.1,0-0.2,0-0.4l0-0.4c0,0,0,0,0,0c0-0.1,0-0.1,0-0.2v-0.1
			c0-0.1,0-0.1,0-0.2c-0.4-0.5-0.8-0.9-1.3-1.3c-0.3-0.2-0.5-0.4-0.8-0.6l-0.8-0.6c-0.6-0.4-1.2-0.8-1.7-1.1
			c0.6,2.3,1.3,4.1,1.9,5.2L164.2,190.3z M169.2,219.3l0.3,0.2c0.3,0.3,0.7,0.6,1.1,0.9c0.8-0.3,1.8-0.8,2.1-1l-0.1-0.5
			c-0.3-0.4-0.6-0.9-0.8-1.5c0,0,0,0,0-0.1c0,0,0,0,0,0l-0.3-0.3c-0.7-0.5-1.3-0.8-2-1l-0.9-0.2c-1.5-0.4-2.4-0.6-3-0.7
			C166.3,216,167.9,218.2,169.2,219.3z M170,199.4c0.1,0.1,0.1,0.2,0.2,0.3c0.8-0.9,1.2-2,1.2-3.2c0-2-1.1-3.9-1.8-4.9L170,199.4z
			 M170.6,200.2C170.6,200.2,170.6,200.2,170.6,200.2c0.9-0.4,1.7-1.3,2-2.3c0.2-0.7,0.2-0.9,0.2-1.2c0-0.2,0-0.5,0.2-1.2
			c0.3-1.4,0.8-2.7,1.3-4c-0.4,0.3-0.9,0.7-1.5,1.2c-0.3,0.5-0.8,1-1.2,1.4c0.3,0.9,0.4,1.6,0.4,2.4
			C172,197.9,171.5,199.1,170.6,200.2L170.6,200.2z M171.3,193.6c0.6-0.5,1.1-1.2,1.3-1.9c0.2-0.7,0.2-0.9,0.2-1.2
			c0-0.2,0-0.5,0.2-1.2c0.4-1.7,0.9-3.1,1.2-4c-0.3,0.2-0.6,0.4-0.9,0.7c0,0.2-0.1,0.5-0.2,0.9c-0.3,1-1,1.9-1.8,2.4
			c0,0.2,0,0.4,0,0.6c0,0.9-0.2,1.8-0.6,2.5C171,192.8,171.2,193.2,171.3,193.6z M171.7,212.7c0.1,0.1,0.5,0.2,0.9,0.4
			c0.1-0.4,0.2-0.8,0.2-1.3c0-2.5-2-4.6-3.2-5.6L171.7,212.7L171.7,212.7z M169,206.5c-0.2,0.8-0.2,1.6-0.2,2.3c0,1.6,0.4,2.9,1.2,4
			c0.3,0.5,0.8,0.9,1.2,1.2c0-0.2,0-0.3,0-0.5c0-0.1,0-0.3,0-0.4L169,206.5z M169.6,173.4l0,3.7c0.2,0.3,0.8,1.2,1.3,2.5
			c0.1-0.5,0.2-0.9,0.2-1.5C171.1,176.2,170.2,174.4,169.6,173.4z M169.3,190c0,0,0.1,0,0.1,0c0.1,0,0.1,0.1,0.1,0.1l0,0.4
			c0.1,0.2,0.5,0.6,0.9,1.3c0.3-0.6,0.4-1.3,0.4-1.9c0-2-1.1-3.9-1.8-4.9L169.3,190z M168.5,205.7c0,0.1,0.1,0.1,0.1,0.2
			c0-0.2,0.1-0.3,0.1-0.5l0.1-0.5c0-0.1,0.1-0.1,0.1-0.1c0.1,0,0.1,0,0.1,0.1l0.1,0.4l0.1,0.1c0.1,0,0.1,0.1,0.2,0.2l-0.9-6.2
			c-0.5,1.3-0.8,2.5-0.8,3.6C167.8,203.9,168,204.9,168.5,205.7z M169.5,184.5c0.2,0.3,0.4,0.7,0.7,1.1c0.6-0.8,0.9-1.7,0.9-2.8
			c0-1.9-0.9-3.7-1.5-4.7L169.5,184.5z M170.2,206.1c0.2,0.2,0.4,0.4,0.6,0.6c0.4-0.7,0.6-1.5,0.6-2.2c0-2.2-1.5-4.3-2.3-5.3
			L170.2,206.1z M173.1,198.1c-0.4,1.1-1.2,2.1-2.2,2.7c0.7,1.3,1.1,2.5,1.1,3.7c0,0.2,0,0.3,0,0.5c0.7-0.6,1.2-1.4,1.4-2.3
			c0.1-0.4,0.2-0.7,0.2-0.9c0-0.1,0-0.1,0-0.1c0,0,0-0.1,0-0.1c0-0.1,0-0.2,0-0.4c0-0.3,0-0.5,0.1-0.8c0.2-1.8,0.6-3.3,0.8-4.1
			c-0.3,0.3-0.6,0.6-1,1C173.3,197.4,173.3,197.7,173.1,198.1z M185.2,225.6c0,0,0-0.1,0-0.1c0-0.1,0.1-0.2,0.1-0.4c0,0,0,0,0-0.1
			c0.1-0.1,0.2-0.3,0.3-0.4c0,0,0,0,0,0c0.4-0.5,0.9-1,1.7-1.7c0,0,0,0,0,0c0.2-0.2,0.5-0.4,0.7-0.6c0,0,0.1-0.1,0.1-0.1
			c0.2-0.2,0.5-0.4,0.8-0.5c0.1,0,0.1-0.1,0.2-0.1l0,0c0,0,0,0,0,0l0,0l0.2-0.1c0.4-0.3,0.8-0.6,1.1-0.9c0.1-0.1,0.1-0.2,0.2-0.3
			c0,0,0,0,0,0c0-0.1,0.1-0.2,0.1-0.3c0,0,0,0,0,0c0-0.1,0-0.2,0-0.3c0,0,0,0,0-0.1c0-0.1,0-0.2,0-0.2c0-0.6-0.3-1.2-0.7-2
			c-0.4-0.7-1.6-0.8-2.5-0.8c-4.5,0-12.7,3.1-17.1,5.4c-1.7,0.9-3.5,1.6-5.2,2.1c0,0-0.1,0-0.1,0c-0.1,0-0.2,0-0.3,0.1
			c-0.1,0-0.2,0.1-0.3,0.1c-0.4,0.1-0.7,0.2-1.1,0.2c0,0-0.1,0-0.1,0c-1,0.2-1.9,0.3-2.7,0.3c-0.3,0-0.6,0-0.8,0l6,8
			c0.1,0,0.2,0.1,0.5,0.1c0.7,0,2.1-0.3,4.7-1.6c0.4-0.2,0.9-0.4,1.3-0.7l0.8-0.4C177.1,228.2,181.8,225.8,185.2,225.6
			C185.2,225.6,185.2,225.6,185.2,225.6z M173.4,227.8l-1,0.5c0,0,0,0-0.1,0c0,0-0.1,0-0.1-0.1l0,0l0-0.1c0-0.1,0-0.1,0-0.2l0.1-0.1
			c0.1,0,0.1,0,0.1-0.2c0-0.1-0.1-0.2-0.1-0.3l-1.3-2.8c-0.1-0.2-0.2-0.4-0.2-0.4c-0.1-0.1-0.1-0.1-0.1-0.1l-0.1,0c0,0-0.1,0-0.1,0
			c0,0,0,0,0,0l-0.1,0c-0.1,0-0.1,0.1-0.1,0.1c0,0,0,0.2,0.2,0.4l1.2,2.9c0,0.1,0.1,0.2,0.1,0.2c0,0,0,0,0,0.1c0,0,0,0,0,0
			c0,0,0,0,0,0c0,0,0,0,0.1,0l0.1,0c0,0,0.1,0,0.1,0c0,0,0.1,0,0.1,0.1l0.1,0.1c0,0,0,0.1,0,0.1c0,0,0,0.1-0.1,0.1l-1,0.5
			c0,0,0,0-0.1,0c0,0,0,0-0.1,0c0,0-0.1-0.1-0.1-0.1l0-0.1c0-0.1,0-0.1,0.1-0.2l0.1,0c0,0,0.1-0.1,0.1-0.1c0,0,0-0.1-0.2-0.4
			l-1.2-2.8c-0.1-0.2-0.1-0.3-0.2-0.4c0,0,0,0,0,0c0,0,0,0,0,0c0,0-0.1,0-0.1,0l-0.1,0c0,0,0,0,0,0l0.3,0.7c0,0,0,0.1,0,0.1
			c0,0,0,0.1-0.1,0.1l-0.1,0c-0.1,0-0.1,0-0.1-0.1c-0.1-0.2-0.2-0.3-0.2-0.4c0,0-0.1-0.1-0.1-0.1c0,0,0,0-0.1,0c-0.1,0-0.1,0-0.2,0
			l-0.4,0.1l0.5,1.5l0.3-0.1c0.1,0,0.1,0,0.1-0.1c0,0,0,0,0,0c0-0.1,0-0.3-0.1-0.4c0,0,0-0.1,0-0.1c0,0,0.1-0.1,0.1-0.1l0.1,0
			c0.1,0,0.1,0,0.2,0.1l0.5,1.5c0,0,0,0.1,0,0.1c0,0,0,0.1-0.1,0.1l-0.1,0c-0.1,0-0.1,0-0.2-0.1c-0.1-0.2-0.1-0.3-0.2-0.3
			c0,0-0.1-0.1-0.1-0.1c0,0-0.1,0-0.1,0l-0.3,0.1l0.4,1.2c0.1,0.2,0.1,0.3,0.2,0.4c0,0,0,0,0,0.1c0,0,0.1,0,0.1,0c0,0,0,0,0.1,0
			l0.1,0c0,0,0.1,0,0.1,0c0,0,0.1,0,0.1,0.1l0,0.1c0,0.1,0,0.1-0.1,0.2l-1,0.3c0,0,0,0,0,0c0,0,0,0-0.1,0c0,0-0.1,0-0.1-0.1l0-0.1
			c0-0.1,0-0.1,0.1-0.2l0.1,0c0.1,0,0.1-0.1,0.1-0.1c0,0,0,0,0,0c0,0,0-0.2-0.1-0.3l0-0.2l-1-2.9c0-0.1-0.1-0.2-0.1-0.2c0,0,0,0,0,0
			c0,0,0,0,0,0c0,0,0,0,0,0h-0.1l-0.1,0c0,0-0.1,0-0.1,0c0,0-0.1,0-0.1-0.1l0-0.1c0-0.1,0-0.1,0.1-0.2l1.8-0.6c0,0,0.1,0,0.1,0
			c0,0,0,0,0.1-0.1l1-0.4c0,0,0.1,0,0.1,0c0,0,0,0,0.1-0.1l0.9-0.4c0.4-0.2,0.7-0.2,1-0.2c0.3,0.1,0.5,0.2,0.8,0.5
			c0.3,0.3,0.5,0.6,0.7,1.1c0.3,0.6,0.4,1.2,0.4,1.6C174.2,227.2,173.9,227.6,173.4,227.8z M176.8,226.2l-1.8,0.8c0,0,0,0-0.1,0
			c0,0-0.1,0-0.1-0.1l-0.1-0.1c0-0.1,0-0.1,0-0.2l0.1-0.1c0,0,0,0,0,0c0,0,0,0,0,0c0,0,0-0.1,0-0.1c0-0.1-0.1-0.2-0.2-0.4l-1.3-2.7
			c-0.1-0.3-0.2-0.4-0.3-0.4c-0.1-0.1-0.1,0-0.1,0l-0.1,0c0,0-0.1,0-0.1,0c0,0-0.1,0-0.1-0.1l0-0.1c0-0.1,0-0.1,0.1-0.2l1.8-0.8
			c0.1,0,0.1,0,0.2,0.1l0.5,0.9c0,0.1,0,0.1,0,0.2l-0.1,0c0,0-0.1,0-0.1,0c0,0-0.1,0-0.1-0.1c-0.1-0.2-0.2-0.3-0.3-0.4
			c-0.1,0-0.1-0.1-0.2-0.1c0,0-0.1,0-0.2,0.1l-0.5,0.2l0.7,1.4l0.4-0.2c0.1-0.1,0.2-0.1,0.2-0.1c0-0.1,0-0.2-0.2-0.4
			c0,0,0-0.1,0-0.1c0,0,0-0.1,0.1-0.1l0.1,0c0,0,0,0,0.1,0c0,0,0.1,0,0.1,0.1l0.7,1.4c0,0.1,0,0.1-0.1,0.2l-0.1,0c0,0-0.1,0-0.1,0
			c0,0-0.1,0-0.1-0.1c0-0.1-0.1-0.3-0.2-0.3c0,0,0,0,0,0c0-0.1-0.1-0.1-0.1-0.1c0,0-0.1,0-0.1,0.1l-0.4,0.2l0.6,1.2
			c0.1,0.2,0.2,0.3,0.2,0.3c0,0,0,0,0,0c0,0,0,0,0,0l0.4-0.2c0.1-0.1,0.2-0.1,0.2-0.1c0,0,0-0.1,0-0.2c0-0.1,0-0.3-0.1-0.7
			c0-0.1,0-0.1,0.1-0.1l0.1,0c0,0,0.1,0,0.1,0c0,0,0.1,0,0.1,0.1l0.3,1.1C176.9,226.1,176.9,226.2,176.8,226.2z M179.2,225.1
			l-1.8,0.8c0,0,0,0-0.1,0c0,0-0.1,0-0.1-0.1l-0.1-0.1c0,0,0-0.1,0-0.1c0,0,0-0.1,0.1-0.1l0.1,0c0,0,0.1,0,0-0.1
			c0-0.1-0.1-0.2-0.1-0.4l-1.3-2.7c-0.1-0.3-0.2-0.4-0.2-0.4c-0.1,0-0.1-0.1-0.1,0l-0.1,0c0,0-0.1,0-0.1,0c0,0-0.1,0-0.1-0.1
			l-0.1-0.1c0-0.1,0-0.1,0.1-0.2l1-0.5c0,0,0.1,0,0.1,0c0,0,0.1,0,0.1,0.1l0,0.1c0,0.1,0,0.1-0.1,0.2c-0.1,0.1-0.1,0.1-0.2,0.1
			c0,0,0,0.1,0,0.2c0,0.1,0.1,0.2,0.2,0.4l1.2,2.6c0.1,0.2,0.2,0.3,0.2,0.3l0,0c0,0,0,0,0,0c0,0,0,0,0,0c0,0,0.1,0,0.2-0.1l0.2-0.1
			c0.1,0,0.2-0.1,0.3-0.2c0-0.1,0.1-0.1,0.1-0.3c0-0.2,0-0.3-0.1-0.6c0,0,0-0.1,0-0.1c0,0,0.1-0.1,0.1-0.1h0.1c0.1,0,0.1,0,0.1,0.1
			l0.3,1.2C179.3,225,179.2,225.1,179.2,225.1z M180.7,224.4l-1,0.4c0,0,0,0-0.1,0c0,0-0.1,0-0.1-0.1l-0.1-0.1c0-0.1,0-0.1,0.1-0.2
			l0.1,0c0,0,0.1,0,0.1-0.1c0-0.1,0-0.2-0.2-0.5l-1.2-2.7c-0.1-0.2-0.2-0.4-0.2-0.4c0,0-0.1-0.1-0.1-0.1c0,0,0,0-0.1,0
			c0,0-0.1,0-0.1,0l-0.1,0c-0.1,0-0.1,0-0.2-0.1l0-0.1c0-0.1,0-0.1,0.1-0.2l1-0.5c0,0,0.1,0,0.1,0c0,0,0.1,0,0.1,0.1l0.1,0.1
			c0,0,0,0.1,0,0.1c0,0,0,0.1-0.1,0.1l-0.1,0c0,0-0.1,0.1-0.1,0.1c0,0,0,0.1,0.2,0.4l1.2,2.7c0.1,0.2,0.2,0.4,0.2,0.4c0,0,0,0,0.1,0
			c0,0,0.1,0,0.1,0l0.1,0c0,0,0.1,0,0.1,0c0,0,0.1,0,0.1,0.1l0.1,0.1C180.8,224.3,180.8,224.3,180.7,224.4
			C180.7,224.4,180.7,224.4,180.7,224.4z M182.5,223.7l-1,0.4c0,0,0,0,0,0c-0.1,0-0.1,0-0.1-0.1l-0.1-0.1c0,0,0-0.1,0-0.1
			c0,0,0.1-0.1,0.1-0.1l0.1,0c0,0,0.1-0.1,0.1-0.1c0-0.1,0-0.2-0.1-0.4l0-0.1l-1.3-3.2l-0.2,0.1c-0.1,0.1-0.1,0.1-0.1,0.1
			c0,0.1,0,0.1,0,0.2c0,0.1,0,0.2,0.1,0.4c0,0,0,0.1,0,0.1c0,0-0.1,0.1-0.1,0.1l-0.1,0c-0.1,0-0.1,0-0.2-0.1l-0.4-1
			c0-0.1,0-0.1,0.1-0.2l1.9-0.8c0.1,0,0.1,0,0.2,0.1l0.4,1c0,0,0,0.1,0,0.1c0,0,0,0.1-0.1,0.1l-0.1,0c-0.1,0-0.1,0-0.2-0.1
			c-0.1-0.2-0.2-0.3-0.2-0.3c-0.1-0.1-0.2-0.2-0.2-0.2c0,0-0.1,0-0.2,0l-0.2,0.1l1.3,3.2c0.1,0.3,0.2,0.4,0.2,0.4c0,0,0.1,0,0.1,0
			l0.1,0c0,0,0.1,0,0.1,0c0,0,0.1,0,0.1,0.1l0,0.1C182.6,223.6,182.6,223.6,182.5,223.7z M184.1,223.2L184.1,223.2
			c-0.1,0-0.1,0-0.2-0.1l0-0.1c0,0,0-0.1,0-0.1c0,0,0-0.1,0.1-0.1l0.1,0c0,0,0.1,0,0.1-0.1c0-0.1,0-0.2,0-0.5l-0.2-1l-1-1.8
			c-0.1-0.2-0.2-0.3-0.2-0.3l0-0.1c0,0-0.1-0.1-0.2-0.1h0c-0.1,0-0.1,0-0.1-0.1l0-0.1c0,0,0-0.1,0-0.1c0,0,0.1-0.1,0.1-0.1l1.1-0.2
			c0,0,0.1,0,0.1,0c0,0,0,0.1,0.1,0.1l0,0.1c0,0.1,0,0.1-0.1,0.1l-0.1,0c0,0,0,0,0,0c0,0,0,0,0,0c0,0,0,0.1,0,0.2c0,0,0,0.1,0.1,0.1
			c0,0.1,0.1,0.2,0.1,0.2l0.6,1l0.2-1.1c0-0.2,0-0.3,0-0.4c0,0,0-0.1,0-0.1c0,0,0,0,0,0c0,0,0,0,0,0c0,0,0,0-0.1,0
			c-0.1,0-0.1-0.1-0.1-0.1l0-0.1c0-0.1,0-0.1,0.1-0.2l0.9-0.2c0,0,0.1,0,0.1,0c0,0,0,0.1,0.1,0.1l0,0.1c0,0,0,0,0,0.1
			c0,0.1-0.1,0.1-0.1,0.1c0,0,0,0-0.1,0.1c0,0-0.1,0.1-0.1,0.2c0,0.1-0.1,0.2-0.1,0.5l-0.3,1.8l0.2,1.1c0,0.3,0.1,0.4,0.1,0.5
			c0,0,0,0,0.1,0h0.1c0.1,0,0.1,0,0.1,0.1l0,0.1c0,0.1,0,0.1-0.1,0.2L184.1,223.2z M260.4,218.1l1.7-5.2c0,0,0,0,0-0.1
			c0-0.1-0.1-0.1-0.2-0.1c-0.1,0-0.1,0-0.1,0.1c0,0,0,0,0,0l-4.3,3.2l-4.4-3.2c0,0,0,0,0,0c0,0,0,0,0,0c-0.1,0-0.1,0-0.1,0
			c0,0,0,0.1,0,0.1c0,0,0,0,0,0l1.8,5.2l-4.4,3.2c-0.1,0-0.1,0.1-0.1,0.2c0,0.1,0.1,0.1,0.1,0.1h0.2l5.3-0.1l0,0l1.7,5.2
			c0,0,0,0,0,0c0,0,0,0,0,0c0,0,0,0,0,0c0,0,0,0,0,0c0,0,0,0,0,0c0,0,0,0,0,0c0,0,0,0,0,0c0,0,0,0,0,0c0,0,0,0,0,0c0,0,0,0,0,0
			l1.6-5.2h5.5c0.1,0,0.1,0,0.1-0.1c0,0,0,0,0-0.1c0,0,0-0.1-0.1-0.1L260.4,218.1z M246.7,158.8c0-0.1-0.1-0.1-0.2,0c0,0,0,0,0,0
			c0,0,0,0,0,0c0,0,0,0,0,0c0,0,0,0,0,0.1l0,5.5l-5.2,1.6c0,0,0,0,0,0c0,0,0,0,0,0c0,0,0,0,0,0.1c0,0,0,0,0,0c0,0,0,0,0,0
			c0,0,0,0,0,0c0,0,0,0,0,0c0,0,0,0,0,0c0,0,0,0,0,0c0,0,0,0,0,0c0,0,0,0,0,0l5.2,1.7l-0.1,5.5c0,0.1,0,0.1,0.1,0.1
			c0.1,0,0.1,0,0.2-0.1l0.1-0.2c0,0,0,0,0,0l3.1-4.3l5.2,1.7c0,0,0,0,0,0c0,0,0,0,0,0c0,0,0,0,0,0c0,0,0,0,0,0c0,0,0,0,0,0
			c0,0,0,0,0,0c0,0,0-0.1,0-0.1c0,0,0-0.1,0-0.1l-3.2-4.4l3.2-4.3l0.1-0.1c0,0,0-0.1,0-0.1c0,0,0-0.1,0-0.1c0-0.1-0.1-0.1-0.2-0.1
			l-5.2,1.7L246.7,158.8z M252.8,188.5c-0.1,0-0.1,0.1-0.2,0.1c0,0,0,0,0,0c0,0,0,0.1,0.1,0.1l3.9,3.9l-2.6,4.9c0,0,0,0.1,0,0.2
			c0,0,0.1,0.1,0.2,0l0.2-0.1c0,0,0,0,0,0l4.7-2.4l3.8,3.9c0,0,0,0,0,0c0,0,0,0,0,0c0,0,0,0,0.1,0c0,0,0,0,0,0c0,0,0,0,0,0
			c0,0,0,0,0,0c0,0,0,0,0,0c0,0,0.1-0.1,0.1-0.1c0,0,0,0,0-0.1l-0.8-5.4l4.8-2.4c0,0,0,0,0,0l0.1,0c0.1,0,0.1-0.1,0.1-0.1
			c0,0,0,0,0,0c0-0.1-0.1-0.1-0.1-0.1l-5.4-0.9l-0.8-5.4c0-0.1-0.1-0.1-0.1-0.1c0,0-0.1,0-0.1,0c0,0,0,0,0,0c0,0,0,0,0,0
			c0,0,0,0,0,0c0,0,0,0,0,0l-2.5,4.9L252.8,188.5C252.8,188.5,252.8,188.5,252.8,188.5z M250,239.5
			C249.9,239.5,249.9,239.5,250,239.5C249.9,239.5,249.9,239.5,250,239.5C249.9,239.5,249.9,239.5,250,239.5c-0.1,0-0.1,0-0.1,0
			l-5.4,0.9l-2.5-4.9c0,0,0,0,0,0c0,0,0,0,0,0c0,0,0,0,0,0c0,0,0,0,0,0c0,0-0.1,0-0.1,0.1c0,0,0,0,0,0c0,0,0,0,0,0.1l-0.8,5.4
			l-5.4,0.8c-0.1,0-0.1,0.1-0.1,0.1c0,0.1,0,0.1,0.1,0.1l0.2,0.1l4.7,2.4c0,0,0,0,0,0l-0.9,5.4c0,0,0,0,0,0c0,0,0,0,0,0c0,0,0,0,0,0
			c0,0,0,0,0,0c0,0,0,0,0,0c0,0,0,0,0,0c0,0,0,0,0,0c0,0,0,0,0,0c0,0,0,0,0,0c0,0,0,0,0,0c0,0,0,0,0,0l3.8-3.9l4.8,2.5l0.1,0
			c0.1,0,0.1,0,0.2,0c0,0,0-0.1,0-0.1c0,0,0,0,0-0.1l-2.5-4.9l3.9-3.9c0,0,0-0.1,0-0.1C250,239.6,250,239.6,250,239.5
			C250,239.5,250,239.5,250,239.5z M241.5,224.7c-0.2,0-0.5,0-0.8,0c-0.4,0-0.9,0-1.4-0.1c0,0-0.1,0-0.1,0c-0.3,0-0.7-0.1-1-0.2
			c-0.1,0-0.3-0.1-0.4-0.1c-0.2-0.1-0.5-0.1-0.7-0.2c-0.2-0.1-0.4-0.1-0.7-0.2c-0.1,0-0.1,0-0.2,0c0,0,0,0,0,0
			c-1.7-0.5-3.5-1.2-5.3-2.1c-4.4-2.2-12.6-5.4-17.1-5.4c-0.9,0-2.1,0.1-2.5,0.8c-0.5,0.8-0.8,1.6-0.8,2.1c0,0.9,0.7,1.4,1.3,1.8
			c0.1,0,0.1,0.1,0.2,0.1l0.2,0.2c0.5,0.4,1,0.7,1.5,1c0,0,0,0,0.1,0c0.2,0.1,0.4,0.3,0.5,0.4c0.1,0.1,0.1,0.1,0.2,0.2
			c0.1,0.1,0.3,0.2,0.4,0.4c0.1,0.1,0.1,0.1,0.2,0.2c0.2,0.2,0.3,0.3,0.5,0.5c0,0,0,0,0,0c0.2,0.2,0.3,0.4,0.4,0.5
			c0,0,0,0.1,0.1,0.1c0.1,0.1,0.1,0.3,0.2,0.4c0,0,0,0.1,0,0.1c0,0,0,0.1,0.1,0.1c3.4,0.1,8.1,2.5,11.9,4.5c0.8,0.4,1.5,0.8,2.1,1.1
			c3.7,1.8,5,1.6,5.2,1.5L241.5,224.7z M217,223.8C217,223.8,216.9,223.8,217,223.8l-1.2,0.2h0c0,0-0.1,0-0.1,0c0,0,0-0.1,0-0.1
			l0-0.2c0,0,0-0.1,0-0.1c0,0,0.1,0,0.1,0h0.1c0,0,0.1,0,0.1-0.1c0,0,0,0,0,0c0,0,0-0.1,0-0.4l-0.3-3c0-0.2,0-0.4-0.1-0.4
			c0-0.1,0-0.1-0.1-0.1c0,0,0,0-0.1,0l-0.1,0c0,0-0.1,0-0.1,0c0,0-0.1-0.1-0.1-0.1v-0.1c0-0.1,0.1-0.1,0.1-0.1l1.1-0.1
			c0.1,0,0.1,0,0.1,0.1l0,0.1c0,0.1,0,0.1-0.1,0.1l-0.1,0c0,0-0.1,0-0.1,0.1c0,0.1,0,0.2,0,0.4l0,0.1l0.3,3c0,0.2,0,0.3,0.1,0.4v0
			c0,0,0,0.1,0.1,0.1c0,0,0,0,0.1,0l0.1,0c0,0,0.1,0,0.1,0c0,0,0,0.1,0.1,0.1L217,223.8C217,223.7,217,223.7,217,223.8z
			 M219.4,224.4L219.4,224.4L219.4,224.4c-0.1,0-0.2-0.1-0.2-0.1l-0.7-3.4L218,223c-0.1,0.3-0.1,0.4-0.1,0.5c0,0,0,0,0,0
			c0,0,0,0.1,0.1,0.1l0.1,0c0,0,0.1,0,0.1,0.1c0,0,0,0.1,0,0.1l0,0.1c0,0.1-0.1,0.1-0.2,0.1l-0.9-0.2c0,0-0.1,0-0.1-0.1
			c0,0,0-0.1,0-0.1l0-0.1c0-0.1,0.1-0.1,0.1-0.1l0.1,0c0,0,0.1,0,0.1-0.1c0,0,0.1-0.2,0.1-0.4l0-0.1l0.7-3.1c0-0.2-0.1-0.3-0.1-0.3
			c0,0,0,0,0,0c0,0,0,0-0.1-0.1c0,0,0,0,0,0c0,0,0,0-0.1,0c0,0-0.1,0-0.1-0.1c0,0,0-0.1,0-0.1l0-0.2c0-0.1,0.1-0.1,0.2-0.1l0.7,0.2
			c0,0,0.1,0.1,0.1,0.1l0.6,3.1l0.5-2c0.1-0.2,0.1-0.4,0.1-0.5c0,0,0-0.1-0.1-0.1l-0.1,0c-0.1,0-0.1-0.1-0.1-0.2l0-0.1
			c0-0.1,0.1-0.1,0.2-0.1l0.9,0.2c0.1,0,0.1,0.1,0.1,0.2l0,0.1c0,0,0,0.1-0.1,0.1c0,0-0.1,0-0.1,0l-0.1,0c0,0-0.1,0-0.1,0.1
			c0,0-0.1,0.1-0.1,0.4l-0.9,3.8C219.5,224.3,219.4,224.4,219.4,224.4z M221.6,225c0,0.1-0.1,0.1-0.1,0.1c0,0,0,0-0.1,0l-1-0.4
			c-0.1,0-0.1-0.1-0.1-0.2l0-0.1c0,0,0-0.1,0.1-0.1s0.1,0,0.1,0l0.1,0c0,0,0,0.1,0.1-0.1c0,0,0.1-0.1,0.2-0.4l1.2-3.2l-0.2-0.1
			c-0.1,0-0.1,0-0.2,0h0c-0.1,0-0.1,0.1-0.2,0.1c-0.1,0.1-0.2,0.2-0.2,0.4c0,0-0.1,0.1-0.1,0.1c0,0-0.1,0-0.1,0l0,0
			c-0.1,0-0.1-0.1,0-0.2l0.4-1c0-0.1,0.1-0.1,0.2-0.1l2,0.7c0.1,0,0.1,0.1,0.1,0.2l-0.4,1c0,0,0,0.1-0.1,0.1c0,0-0.1,0-0.1,0l-0.1,0
			c-0.1,0-0.1-0.1-0.1-0.2c0-0.2,0.1-0.3,0.1-0.4c0-0.1,0-0.2,0-0.2c0-0.1-0.1-0.1-0.1-0.1l-0.2-0.1l-1.2,3.2c0,0.1,0,0.1-0.1,0.2
			c0,0.1-0.1,0.2-0.1,0.3c0,0,0,0.1,0.1,0.1l0.1,0c0,0,0.1,0,0.1,0.1c0,0,0,0.1,0,0.1L221.6,225z M224.7,225.1l-0.6,1
			c0,0-0.1,0.1-0.1,0.1c0,0,0,0-0.1,0l-1.8-0.8c-0.1,0-0.1-0.1-0.1-0.2l0-0.1c0,0,0-0.1,0.1-0.1c0,0,0.1,0,0.1,0l0.1,0c0,0,0,0,0,0
			h0c0,0,0.1,0,0.1-0.1c0-0.1,0.1-0.2,0.2-0.4l1.2-2.7c0.2-0.3,0.2-0.4,0.2-0.5c0,0,0-0.1,0-0.1l-0.1,0c0,0-0.1,0-0.1-0.1
			c0,0,0-0.1,0-0.1l0-0.1c0,0,0-0.1,0.1-0.1c0,0,0.1,0,0.1,0l1.8,0.8c0.1,0,0.1,0.1,0.1,0.2l-0.4,0.9c0,0,0,0.1-0.1,0.1
			c0,0-0.1,0-0.1,0l-0.1,0c-0.1,0-0.1-0.1-0.1-0.2c0.1-0.2,0.1-0.4,0.1-0.4c0-0.1,0-0.1,0-0.2c0,0-0.1-0.1-0.2-0.1l-0.5-0.2
			l-0.7,1.4l0.4,0.2c0.1,0,0.2,0,0.2,0c0.1-0.1,0.2-0.2,0.3-0.4c0,0,0.1-0.1,0.1-0.1c0,0,0.1,0,0.1,0l0.1,0c0.1,0,0.1,0.1,0,0.2
			l-0.7,1.5c0,0,0,0.1-0.1,0.1c0,0-0.1,0-0.1,0l-0.1,0c-0.1,0-0.1-0.1-0.1-0.2c0.1-0.2,0.1-0.3,0.1-0.3l0,0c0,0,0-0.1,0-0.1
			c0,0,0,0,0-0.1c0,0,0,0-0.1-0.1l-0.4-0.2l-0.6,1.3c-0.1,0.2-0.1,0.3-0.1,0.3c0,0,0,0.1,0,0.1c0,0,0,0,0.1,0.1l0.4,0.2
			c0.1,0,0.1,0.1,0.2,0.1c0.1,0,0.2,0,0.3-0.1c0.1-0.1,0.3-0.3,0.4-0.5c0-0.1,0.1-0.1,0.2,0l0.1,0
			C224.7,224.9,224.8,225,224.7,225.1C224.8,225,224.8,225.1,224.7,225.1z M226.7,227c-0.2,0.1-0.4,0.1-0.6,0.1
			c-0.2,0-0.4,0-0.5-0.1c-0.5-0.2-0.7-0.7-0.7-1.4c0-0.5,0.1-1,0.4-1.5c0.2-0.4,0.4-0.7,0.7-1c0.3-0.4,0.6-0.6,1-0.7
			c0.3-0.1,0.5-0.1,0.8,0c0,0,0,0,0,0c0,0,0.1,0,0.1,0.1c0,0,0.1,0.1,0.1,0.1c0,0,0,0.1,0.1,0.1c0.1,0.1,0.1,0.1,0.2,0.2
			c0,0,0,0,0,0c0,0,0,0,0-0.1l0-0.1c0,0,0-0.1,0.1-0.1c0,0,0.1,0,0.1,0l0.1,0c0.1,0,0.1,0.1,0.1,0.2l-0.6,1.3c0,0.1-0.1,0.1-0.1,0.1
			l-0.1,0c0,0-0.1,0-0.1-0.1c0,0,0-0.1,0-0.1c0.1-0.3,0.1-0.6,0.1-0.8c0-0.2-0.1-0.4-0.3-0.5c-0.1,0-0.1-0.1-0.2-0.1
			c-0.2,0-0.4,0.1-0.6,0.3c-0.3,0.2-0.5,0.6-0.8,1.2c-0.2,0.4-0.3,0.7-0.4,1.1c-0.1,0.3-0.1,0.6,0,0.8c0.1,0.2,0.1,0.3,0.2,0.3
			c0.1,0,0.1,0.1,0.2,0.1c0.1,0,0.1,0,0.2,0l0.6-1.3c0.1-0.1,0.1-0.2,0.1-0.3c0,0,0-0.1,0-0.1c0,0-0.1-0.1-0.1-0.1
			c-0.1,0-0.1-0.1-0.1-0.2l0.1-0.1c0-0.1,0.1-0.1,0.2-0.1l0.9,0.4c0.1,0,0.1,0.1,0.1,0.2l0,0.1c0,0,0,0.1-0.1,0.1c0,0-0.1,0-0.1,0
			l-0.1,0c0,0,0,0-0.1,0.1c0,0-0.1,0.1-0.2,0.4L226.7,227C226.8,227,226.8,227,226.7,227z M234.1,226.6c0,0.1-0.1,0.1-0.2,0.1
			l-0.1,0c0,0-0.1,0-0.1-0.1c0,0,0-0.1,0-0.1c0-0.1,0.1-0.2,0.1-0.3l0-0.1c0-0.1,0-0.2,0-0.3c0,0-0.1-0.1-0.1-0.1l-0.2-0.1l-1.2,3.2
			c-0.1,0.3-0.1,0.4-0.1,0.5c0,0.1,0,0.1,0,0.1l0.1,0c0.1,0,0.1,0.1,0.1,0.1l0,0.1c0,0,0,0.1-0.1,0.1c0,0,0,0-0.1,0c0,0,0,0-0.1,0
			l-1-0.4c0,0-0.1,0-0.1-0.1c0,0,0-0.1,0-0.1l0-0.1c0-0.1,0.1-0.1,0.2-0.1l0.1,0c0,0,0.1,0,0.1-0.1c0,0,0.1-0.1,0.1-0.2l0.1-0.2
			l1.2-3.2l-0.2-0.1c-0.1,0-0.1,0-0.2,0h0c0,0-0.1,0.1-0.2,0.1c-0.1,0.1-0.2,0.2-0.2,0.4c0,0.1-0.1,0.1-0.1,0.1l-0.1,0
			c0,0-0.1,0-0.1-0.1c0,0,0-0.1,0-0.1l0.3-0.8c0,0,0,0,0,0c0,0-0.1,0-0.1,0c0,0-0.1,0.1-0.2,0.4l-1.2,2.7c0,0.1-0.1,0.2-0.1,0.3
			c0,0.1,0,0.1-0.1,0.1c0,0,0,0.1,0,0.1c0,0.1,0,0.1,0,0.1l0.1,0.1c0.1,0,0.1,0.1,0,0.2l0,0.1c0,0.1-0.1,0.1-0.1,0.1c0,0,0,0-0.1,0
			l-1-0.4c0,0,0,0-0.1,0h0c0,0,0,0-0.1,0l-0.6-0.3c0,0-0.1-0.1-0.1-0.1l0.2-2.2c0,0,0,0,0,0l-0.5,1.1c-0.2,0.3-0.2,0.4-0.2,0.5
			c0,0.1,0,0.1,0.1,0.1l0.1,0c0.1,0,0.1,0.1,0.1,0.2l-0.1,0.1c0,0,0,0.1-0.1,0.1c0,0-0.1,0-0.1,0l-1-0.5c0,0-0.1,0-0.1-0.1
			c0,0,0-0.1,0-0.1l0.1-0.1c0-0.1,0.1-0.1,0.2-0.1l0.1,0c0,0,0.1,0,0.1,0c0,0,0.1,0,0.1-0.1c0,0,0.1-0.2,0.2-0.4l1.3-2.7
			c0.1-0.3,0.2-0.4,0.2-0.5c0-0.1,0-0.1,0-0.1l-0.1,0c-0.1,0-0.1-0.1-0.1-0.2l0-0.1c0,0,0-0.1,0.1-0.1c0,0,0.1,0,0.1,0l0.8,0.4
			c0.2,0.1,0.4,0.2,0.5,0.4c0.1,0.1,0.2,0.3,0.2,0.6c0,0.3-0.1,0.5-0.2,0.7c-0.1,0.3-0.3,0.5-0.5,0.6c-0.2,0.2-0.4,0.2-0.6,0.2
			l-0.1,1.3c0,0.2,0,0.5,0,0.6c0,0.1,0.1,0.2,0.2,0.3c0,0,0,0,0,0c0,0,0.1,0,0.1,0l0.1,0.1c0,0,0,0,0,0c0,0,0.1,0,0.1,0
			c0.1-0.1,0.1-0.2,0.2-0.4l0-0.1l1.2-2.7c0-0.1,0-0.1,0.1-0.2c0-0.1,0.1-0.2,0.1-0.2v0c0,0,0,0,0-0.1c0,0,0-0.1,0-0.1l-0.1,0
			c0,0-0.1,0-0.1-0.1c0,0,0-0.1,0-0.1l0.1-0.1c0,0,0-0.1,0.1-0.1c0,0,0.1,0,0.1,0l1,0.4c0,0,0,0,0,0l0,0l1.9,0.7
			c0.1,0,0.1,0.1,0.1,0.2L234.1,226.6z M229.8,224.9c0.1-0.2,0.2-0.5,0.1-0.6c0-0.2-0.1-0.3-0.2-0.3c0,0-0.1,0-0.2,0l-0.7,1.5
			c0.1,0.1,0.3,0.1,0.5,0C229.5,225.4,229.7,225.2,229.8,224.9z M200.5,123.7c-42.1,0-76.3,34.2-76.3,76.3
			c0,42.1,34.2,76.3,76.3,76.3c42.1,0,76.3-34.2,76.3-76.3C276.7,158,242.5,123.7,200.5,123.7z M200.5,272.7
			c-40.1,0-72.7-32.6-72.7-72.7c0-40.1,32.6-72.7,72.7-72.7c40.1,0,72.7,32.6,72.7,72.7C273.1,240.1,240.5,272.7,200.5,272.7z
			 M138,198.7L138,198.7c0,0.1,0,0.1,0.1,0.2c0.1,0,0.1,0,0.2,0c0,0,0,0,0,0l3.8-3.8l4.9,2.5c0,0,0,0,0,0c0,0,0,0,0,0
			c0,0,0.1,0,0.1,0c0,0,0,0,0,0c0,0,0,0,0,0c0,0,0,0,0,0c0,0,0-0.1,0-0.1c0,0,0,0,0-0.1l-2.5-4.9l3.9-3.8c0,0,0-0.1,0-0.1
			c0,0,0,0,0-0.1c0-0.1-0.1-0.1-0.2-0.1l-0.2,0l-5.2,0.8l-2.4-4.9c0,0,0,0,0,0c0,0,0,0,0,0c0,0,0,0,0,0c0,0,0,0,0,0c0,0,0,0,0,0
			c0,0,0,0,0,0c0,0,0,0,0,0c0,0,0,0,0,0c0,0,0,0,0,0c0,0,0,0,0,0l-0.8,5.4l-5.3,0.8l0,0l-0.1,0c-0.1,0-0.1,0.1-0.1,0.1
			c0,0,0,0.1,0.1,0.2l4.9,2.5L138,198.7z M260.9,139.3l1.2-1.2l0.8,0.8l-4.1,3.9l-0.8-0.8l-1.1,1.1l3.3,3.4l1.1-1.1l-0.8-0.8
			l4.1-3.9l0.8,0.8l-1.2,1.2l1.4,1.5l2.3-2.2l-6.1-6.3l-2.3,2.2L260.9,139.3z M254.3,137.7c-0.4,0.5-1.1,0.3-1.6-0.1
			c-0.8-0.7-0.7-1.5-0.1-2.3l-1.7-1.4l-1.9,2.3l1.6,1.3l0.5-0.6l0,0c-0.3,0.8,0.4,1.7,1,2.2c1.5,1.3,2.9,1.5,4.3-0.1
			c2.1-2.5-2.2-5-1.3-6.1c0.4-0.5,1.1-0.2,1.5,0.1c0.7,0.6,0.9,1.3,0.2,2l1.5,1.3l1.8-2.1l-1.6-1.3l-0.4,0.5l0,0
			c0.3-0.7-0.5-1.5-1-1.9c-1.3-1.1-2.9-1.5-4.1,0C251,133.9,255.3,136.5,254.3,137.7z M268.1,157.2c1.1,1.8,2.8,2.9,4.8,1.8
			l-1.3-2.1c-0.4,0.2-0.8,0.3-1.2,0.2c-0.4-0.1-0.7-0.3-1-0.7c-0.9-1.4,0.2-2.5,1.4-3.3c1.1-0.7,2.8-1.4,3.7,0.1
			c0.3,0.5,0.3,0.9,0.2,1.4c-0.2,0.4-0.5,0.8-0.9,1.1l1.2,1.9l2.8-1.7l-1.1-1.7l-0.7,0.4l0,0c0.4-0.9,0-1.9-0.5-2.7
			c-1.4-2.2-3.7-2.3-5.8-1C267,152.4,266.5,154.6,268.1,157.2z M268.5,145.2l-4.5,3.5l-0.6-0.8l-1.2,0.9l2.8,3.5l1.2-0.9l-0.6-0.8
			l4.5-3.5l0.6,0.8l1.2-0.9l-2.7-3.5l-1.2,0.9L268.5,145.2z M174.6,202.3c-0.2,0.2-0.4,0.4-0.7,0.8c-0.3,1.1-1.1,2.1-2,2.7
			c0,0.1-0.1,0.2-0.1,0.3c-0.1,0.2-0.2,0.4-0.3,0.7c-0.1,0.2-0.1,0.4-0.2,0.6c1,1.2,1.6,2.3,1.9,3.5c0.4-0.6,0.7-1.3,0.8-1.9
			c0.1-0.7,0.1-0.9,0-1.2c0,0,0-0.1,0-0.1c0-0.1,0-0.3,0-0.6c0-0.1,0-0.3,0-0.5C174.1,204.7,174.4,203.2,174.6,202.3z M243.1,128.1
			c-1.6,2.5-1,3.8,1.3,5.3c2.3,1.5,3.7,1.3,5.2-1l2-3.1l0.6,0.4l0.8-1.3l-3.2-2.1l-0.8,1.3l0.8,0.5l-2,3.1c-0.7,1-1.3,1.8-2.5,1
			c-1.2-0.7-0.7-1.7-0.1-2.7l2-3.1l0.8,0.5l0.8-1.3l-3.5-2.3l-0.8,1.3l0.6,0.4L243.1,128.1z M172.3,224.1c-0.3-0.2-0.5-0.3-0.8-0.2
			c-0.1,0-0.1,0.1-0.2,0.2l1.6,3.4c0.1,0,0.2,0,0.2-0.1c0.2-0.1,0.3-0.3,0.4-0.7c0-0.4-0.1-0.8-0.4-1.4
			C172.9,224.7,172.6,224.3,172.3,224.1z M188.3,253.4L188.3,253.4C188.3,253.4,188.3,253.4,188.3,253.4
			C188.3,253.4,188.3,253.4,188.3,253.4l-5.3,1.7l-3.2-4.5c0-0.1-0.1-0.1-0.2-0.1c-0.1,0-0.1,0.1-0.1,0.1v0.2l0,5.3l-5.2,1.6
			c0,0,0,0,0,0c0,0,0,0,0,0c0,0,0,0,0,0c0,0,0,0,0,0v0.1c0,0,0,0,0,0c0,0,0,0,0,0c0,0,0,0,0,0c0,0,0,0,0,0l5.2,1.7l-0.1,5.4v0.1
			c0,0.1,0,0.1,0.1,0.1c0.1,0,0.1,0,0.2,0l3.2-4.4l5.2,1.7c0.1,0,0.1,0,0.2-0.1c0,0,0,0,0-0.1c0,0,0,0,0,0c0,0,0-0.1,0-0.1l-3.2-4.4
			l3.3-4.4c0,0,0-0.1,0-0.1C188.5,253.5,188.5,253.4,188.3,253.4C188.4,253.4,188.4,253.4,188.3,253.4z M166.1,242.3
			C166.1,242.3,166.1,242.3,166.1,242.3C166.1,242.3,166.1,242.3,166.1,242.3c0-0.1,0-0.1-0.1-0.1c0,0,0,0-0.1,0l-5.4-0.8l-0.8-5.4
			c0-0.1-0.1-0.1-0.1-0.1c-0.1,0-0.1,0-0.2,0.1l-0.1,0.2l-2.4,4.7l-5.4-0.9c0,0,0,0,0,0c0,0,0,0,0,0c0,0,0,0,0,0c0,0,0,0,0,0
			c0,0,0,0,0,0c0,0,0,0,0,0c0,0,0,0,0,0c0,0,0,0,0,0c0,0,0,0,0,0.1c0,0,0,0,0,0l3.9,3.9l-2.5,4.8l0,0.1c0,0.1,0,0.1,0,0.2
			c0,0.1,0.1,0.1,0.2,0l4.9-2.5l3.8,3.9c0,0.1,0.1,0,0.2,0c0,0,0,0,0,0c0,0,0-0.1,0-0.1c0,0,0,0,0,0c0,0,0,0,0,0c0,0,0,0,0,0v0
			l-0.9-5.4l4.9-2.4c0,0,0,0,0,0C166.1,242.4,166.1,242.4,166.1,242.3C166.1,242.4,166.1,242.4,166.1,242.3
			C166.1,242.3,166.1,242.3,166.1,242.3C166.1,242.3,166.1,242.3,166.1,242.3C166.1,242.3,166.1,242.3,166.1,242.3z M151.1,221.9
			C151.1,221.9,151.1,221.9,151.1,221.9l-4.4-3.2l1.8-5.2c0,0,0,0,0,0c0-0.1,0-0.1-0.1-0.1c-0.1,0-0.1,0-0.2,0l-0.2,0.1l-4.3,3.1
			l-4.4-3.3c0,0,0,0,0,0c0,0,0,0-0.1,0c0,0,0,0-0.1,0c0,0,0,0,0,0c0,0,0,0,0,0c0,0,0,0,0,0c0,0,0,0,0,0c0,0,0,0,0,0c0,0,0,0,0,0.1
			c0,0,0,0,0,0l1.7,5.2l-4.4,3.1c0,0,0,0,0,0c0,0,0,0,0,0l-0.1,0.1c0,0-0.1,0.1,0,0.2c0,0.1,0.1,0.1,0.1,0.1l5.5,0l1.6,5.2
			c0,0.1,0.1,0.1,0.1,0.1c0.1,0,0.1,0,0.1-0.1l0,0c0,0,0,0,0,0l1.7-5.2l5.5,0.1c0.1,0,0.1,0,0.1-0.1c0,0,0,0,0-0.1
			C151.2,222,151.2,221.9,151.1,221.9C151.2,221.9,151.1,221.9,151.1,221.9z M191.3,231.7c-0.1,0-0.2-0.1-0.3,0l-0.4,1.5
			c0,0,0,0,0.1,0c0.1,0,0.1,0,0.1,0c0,0,0.1,0,0.1,0c0.2,0,0.4,0.1,0.5,0c0.1,0,0.2-0.1,0.3-0.2c0.1-0.1,0.1-0.2,0.2-0.4
			c0.1-0.2,0-0.4-0.1-0.7C191.8,231.8,191.6,231.7,191.3,231.7z M195.1,232.7c-0.1-0.2-0.2-0.3-0.4-0.3h-0.1c-0.1,0-0.1,0-0.2,0
			l-0.3,1.7c0.1,0,0.2,0,0.3,0c0.2,0,0.3,0,0.4-0.1c0.2-0.1,0.3-0.3,0.3-0.6C195.2,233,195.2,232.8,195.1,232.7z M197.7,235.1
			l0.9,0.1l-0.3-1.3L197.7,235.1z M208.2,232.5c-0.2-0.1-0.3-0.2-0.5-0.1c-0.1,0-0.2,0-0.3,0.1l0.4,1.7h0c0.3-0.1,0.5-0.2,0.6-0.4
			c0.1-0.2,0.1-0.4,0.1-0.7C208.5,232.8,208.4,232.7,208.2,232.5z M215,227.6l-0.2,0.1c-0.1,0-0.2,0.1-0.3,0.1
			c-0.3,0.2-0.7,0.3-1.1,0.5c-0.1,0-0.1,0-0.2,0.1c-0.1,0.1-0.2,0.1-0.3,0.1c-0.1,0.1-0.2,0.1-0.3,0.1c-0.1,0-0.1,0.1-0.2,0.1
			c-0.7,0.3-1.5,0.5-2.4,0.8c-0.1,0-0.1,0-0.2,0.1c-0.2,0-0.4,0.1-0.6,0.1c-0.1,0-0.2,0-0.3,0.1c-0.1,0-0.2,0.1-0.4,0.1l-0.1,0
			c-1.9,0.4-4.4,0.6-7.6,0.6h-0.1c-3.2,0-5.7-0.3-7.6-0.6l-0.1,0c-0.1,0-0.2-0.1-0.4-0.1c-0.1,0-0.2,0-0.3-0.1
			c-0.2,0-0.5-0.1-0.7-0.2h0c-2.1-0.5-3.4-1.2-4.5-1.7c0,0-0.1,0-0.1,0c-0.1,0-0.2-0.1-0.3-0.1c-0.1,0-0.2-0.1-0.3-0.1
			c-1.1,6-1.3,7.8-1.3,8.4v0c0.9,0.6,6.2,3.2,15.5,3.3c9.4,0,14.6-2.6,15.5-3.3C216.3,234.6,215.3,229.4,215,227.6z M192.1,235.6
			c-0.2,0.2-0.4,0.3-0.6,0.4c-0.1,0-0.2,0-0.3,0c-0.2,0-0.4,0-0.7-0.1l-1.6-0.4c-0.1,0-0.1-0.1-0.1-0.2l0-0.1c0,0,0-0.1,0.1-0.1
			c0,0,0.1,0,0.1,0l0.1,0c0.1,0,0.2,0,0.2-0.1c0,0,0.1-0.1,0.1-0.4l0.7-2.9c0.1-0.3,0.1-0.4,0.1-0.4c0-0.1,0-0.1-0.2-0.2l-0.1,0
			c0,0-0.1,0-0.1-0.1c0,0,0-0.1,0-0.1l0-0.1c0,0,0-0.1,0.1-0.1c0,0,0.1,0,0.1,0l1.5,0.4c0.3,0.1,0.5,0.2,0.7,0.3
			c0.2,0.1,0.4,0.3,0.5,0.6c0.1,0.2,0.1,0.5,0,0.8c-0.1,0.3-0.2,0.5-0.3,0.6c-0.1,0.1-0.2,0.2-0.3,0.2c0.1,0.1,0.2,0.2,0.3,0.3
			c0.1,0.3,0.2,0.6,0.1,0.9C192.4,235.2,192.3,235.5,192.1,235.6z M200.2,237.3C200.2,237.3,200.2,237.3,200.2,237.3
			c-0.1,0.1-0.1,0.1-0.1,0.1h0l-1.4-0.1c0,0-0.1,0-0.1-0.1c0,0,0-0.1,0-0.1l0-0.1c0,0,0-0.1,0-0.1c0,0,0.1,0,0.1,0
			c0.1,0,0.2,0,0.2,0c0,0,0,0,0-0.1c0,0,0,0,0,0c0-0.1,0-0.2,0-0.4l0,0l-0.1-0.6l-1.2-0.1l-0.3,0.6c0,0.1-0.1,0.2-0.1,0.2
			c0,0.1,0,0.1,0,0.1c0,0,0,0,0,0c0,0,0,0,0,0c0,0,0.1,0.1,0.2,0.1c0.1,0,0.1,0.1,0.1,0.2l0,0.1c0,0.1-0.1,0.1-0.1,0.1l-1.1-0.1
			c0,0-0.1,0-0.1-0.1v0c0,0,0,0,0,0c0,0-0.1,0-0.1,0h0l-0.9-0.2c-0.1,0-0.1,0-0.1-0.1l-0.8-2.2c-0.1,0-0.1,0-0.2,0l-0.2,1.2
			c-0.1,0.3,0,0.4,0,0.5c0,0.1,0.1,0.1,0.2,0.1l0.1,0c0.1,0,0.1,0.1,0.1,0.1l0,0.1c0,0,0,0.1-0.1,0.1c0,0-0.1,0-0.1,0l-1.5-0.2
			c-0.1,0-0.1-0.1-0.1-0.1v-0.1c0,0,0-0.1,0.1-0.1c0,0,0.1,0,0.1,0l0.1,0h0.1c0.1,0,0.1,0,0.2-0.1l0.1-0.1c0,0,0.1-0.3,0.1-0.4
			l0.5-3c0.1-0.3,0-0.4,0-0.5c0-0.1-0.1-0.1-0.2-0.1l-0.1,0c-0.1,0-0.1-0.1-0.1-0.2l0-0.1c0-0.1,0.1-0.1,0.1-0.1l1.3,0.2
			c0.4,0.1,0.7,0.2,0.9,0.2c0.2,0.1,0.3,0.3,0.5,0.5c0.1,0.2,0.1,0.5,0.1,0.8c-0.1,0.3-0.2,0.6-0.4,0.7c-0.2,0.2-0.4,0.3-0.7,0.3
			l0.5,1.3c0.1,0.3,0.2,0.5,0.3,0.6c0.1,0.1,0.2,0.2,0.3,0.2c0.1,0,0.1,0,0.1,0.1c0,0,0.1-0.1,0.1-0.1c0.1,0,0.2,0,0.2-0.1
			c0.1-0.1,0.2-0.3,0.3-0.6l1.6-3.7c0,0,0.1-0.1,0.1-0.1h0.1c0.1,0,0.1,0,0.1,0.1l0.9,3.9c0.1,0.2,0.1,0.5,0.2,0.6
			c0.1,0.1,0.2,0.1,0.3,0.1c0.1,0,0.1,0.1,0.1,0.1V237.3z M210.8,236.2l-0.9,0.2c0,0-0.1,0-0.1,0l-1.6-1.8c0,0,0,0,0,0
			c0,0-0.1,0-0.1,0c0,0,0,0,0,0l0.3,1.2c0.1,0.2,0.1,0.4,0.1,0.4c0.1,0,0.1,0.1,0.2,0l0.1,0c0,0,0.1,0,0.1,0c0,0,0,0.1,0.1,0.1
			l0,0.1c0,0.1,0,0.1-0.1,0.2l-1.5,0.3h0c-0.1,0-0.1,0-0.1-0.1l0-0.1c0,0,0-0.1,0-0.1c0,0,0.1-0.1,0.1-0.1l0.1,0
			c0.2,0,0.2-0.1,0.2-0.1c0,0,0-0.2-0.1-0.5l-0.7-2.9c-0.1-0.3-0.2-0.4-0.2-0.5c0,0-0.1-0.1-0.2,0l-0.1,0c0,0,0,0,0,0l0.1,0.7
			c0,0.1,0,0.1-0.1,0.1l-0.1,0c0,0-0.1,0-0.1,0c0,0-0.1,0-0.1-0.1c0-0.2-0.1-0.3-0.2-0.5c0-0.1-0.1-0.1-0.1-0.1c-0.1,0-0.2,0-0.3,0
			l-0.9,0.1l0.2,1.5l0.7-0.1c0.2,0,0.3-0.1,0.3-0.1c0.1-0.1,0.1-0.2,0.1-0.5c0-0.1,0-0.1,0.1-0.1l0.1,0c0,0,0,0,0,0c0,0,0,0,0.1,0
			c0,0,0.1,0.1,0.1,0.1l0.2,1.6c0,0,0,0,0,0.1c0,0.1-0.1,0.1-0.1,0.1H206c-0.1,0-0.1,0-0.1-0.1c0-0.2-0.1-0.3-0.1-0.4
			c0,0,0-0.1-0.1-0.1c0,0-0.1,0-0.3,0l-0.7,0l0.1,1.4c0,0.1,0,0.2,0,0.3c0,0,0,0.1,0,0.1c0,0,0,0,0,0c0,0,0.1,0,0.1,0l0.6-0.1
			c0.1,0,0.3,0,0.4-0.1c0.1,0,0.1-0.1,0.2-0.2c0.1-0.1,0.1-0.3,0.2-0.6l0-0.1c0,0,0.1-0.1,0.1-0.1l0.1,0c0,0,0.1,0,0.1,0
			c0,0,0,0.1,0,0.1l-0.2,1.2c0,0.1-0.1,0.1-0.1,0.1l-2.7,0.3c-0.1,0-0.1,0-0.1-0.1l0-0.1c0-0.1,0-0.1,0.1-0.2l0.1,0
			c0.1,0,0.1,0,0.2-0.1l0,0c0,0,0,0,0.1-0.1c0,0,0-0.2,0-0.4l-0.3-3c0-0.3,0-0.4-0.1-0.4c0,0,0,0,0,0c0-0.1-0.1-0.1-0.2-0.1
			c0,0,0,0,0,0c-0.1,0-0.2,0.1-0.2,0.1c-0.1,0.1-0.2,0.3-0.2,0.5l-1.3,3.9c0,0.1-0.1,0.1-0.1,0.1c0,0,0,0,0,0l-0.1,0
			c0,0-0.1,0-0.1-0.1l-1.3-4c-0.1-0.2-0.1-0.3-0.1-0.4c0,0-0.1-0.1-0.1-0.1c0,0,0,0,0,0c0,0-0.1,0-0.2-0.1c-0.1,0-0.1-0.1-0.1-0.1
			v-0.1c0,0,0-0.1,0-0.1s0.1,0,0.1,0l1.5,0c0.1,0,0.1,0.1,0.1,0.1v0.1c0,0.1,0,0.1-0.1,0.1c-0.1,0-0.2,0.1-0.2,0.1c0,0,0,0.1,0,0.1
			c0,0.1,0,0.3,0.1,0.5l0.8,2.3l0.7-2.3c0.1-0.3,0.1-0.5,0.1-0.5c0,0,0-0.1,0-0.1c0,0-0.1-0.1-0.2-0.1c0,0-0.1,0-0.1,0
			c0,0-0.1-0.1-0.1-0.1v-0.1c0-0.1,0.1-0.1,0.1-0.1h1l2.7-0.3c0,0,0.1,0,0.1,0c0,0,0,0,0.1,0l1.3-0.3c0.4-0.1,0.7-0.1,0.9-0.1
			c0.2,0,0.3,0.1,0.5,0.2c0,0,0.1,0.1,0.1,0.1c0.2,0.2,0.3,0.4,0.4,0.7c0.1,0.3,0,0.6-0.1,0.9c-0.1,0.2-0.2,0.4-0.5,0.6l0.9,1
			c0.2,0.3,0.4,0.4,0.5,0.5c0.1,0.1,0.3,0.1,0.4,0.1c0,0,0.1,0,0.1,0c0,0,0,0,0,0.1l0,0.1C210.9,236.1,210.9,236.2,210.8,236.2z
			 M213.2,235.3l-1.4,0.6c0,0,0,0,0,0c0,0,0,0-0.1,0c0,0-0.1,0-0.1-0.1l0-0.1c0,0,0-0.1,0-0.1c0,0,0.1-0.1,0.1-0.1l0.1,0
			c0.1-0.1,0.1-0.2,0.2-0.2c0,0,0-0.1-0.1-0.4l-0.4-1l-1.6-1.4c-0.2-0.2-0.3-0.3-0.4-0.3c0,0-0.1,0-0.3-0.1c0,0-0.1,0-0.1,0
			c0,0-0.1,0-0.1,0c0,0,0,0,0,0c0,0,0,0,0,0l0-0.1c0-0.1,0-0.1,0.1-0.2l1.4-0.6c0.1,0,0.1,0,0.2,0.1l0.1,0.1c0,0,0,0.1,0,0.1
			c0,0,0,0.1-0.1,0.1l-0.1,0c0,0-0.1,0.1-0.1,0.1c0,0,0,0,0,0c0,0,0,0,0,0.1c0,0,0,0,0,0c0,0,0.2,0.2,0.3,0.3l1,0.9l0.1-1.3
			c0-0.2,0-0.4,0-0.5c0,0,0,0-0.1-0.1l0,0c0,0,0,0-0.1,0c0,0-0.1,0-0.2,0c0,0-0.1,0-0.1,0c0,0-0.1,0-0.1-0.1l0-0.1
			c0-0.1,0-0.1,0.1-0.2l1.1-0.5c0,0,0.1,0,0.1,0s0.1,0,0.1,0.1l0,0.1c0,0.1,0,0.1-0.1,0.2l0,0c0,0-0.1,0.1-0.1,0.1
			c0,0.1-0.1,0.1-0.1,0.2c0,0,0,0.1,0,0.1c0,0.1,0,0.2,0,0.4l-0.2,1.9l0.4,1.1c0.1,0.3,0.2,0.4,0.2,0.4c0.1,0,0.1,0,0.1,0
			c0,0,0.1,0,0.1,0c0,0,0,0,0,0l0.1,0c0.1,0,0.1,0,0.2,0.1l0,0.1C213.3,235.2,213.3,235.2,213.2,235.3z M191.3,234
			c-0.1-0.1-0.3-0.2-0.5-0.3c-0.1,0-0.2,0-0.3,0c0,0,0,0-0.1,0l-0.4,1.6c0.2,0.1,0.3,0.1,0.4,0.2c0.2,0,0.5,0,0.7-0.1
			c0.2-0.1,0.3-0.3,0.3-0.5c0-0.1,0-0.3,0-0.5C191.6,234.2,191.5,234.1,191.3,234z"/>
	</g>
</g>
</svg>
