<?xml version="1.0" encoding="utf-8"?>
<!-- Generator: Adobe Illustrator 19.0.1, SVG Export Plug-In . SVG Version: 6.00 Build 0)  -->
<!DOCTYPE svg PUBLIC "-//W3C//DTD SVG 1.1//EN" "http://www.w3.org/Graphics/SVG/1.1/DTD/svg11.dtd">
<svg version="1.1" id="Layer_1" xmlns="http://www.w3.org/2000/svg" xmlns:xlink="http://www.w3.org/1999/xlink" x="0px" y="0px"
	 viewBox="50 50 300 300" enable-background="new 0 0 400 400" xml:space="preserve">
<style>
  g {
    fill: #6db6aa;
  }
</style>
<g>
	<path d="M296.5,202c1.1,0.3,1.8,0.7,2.1,1.4c0.1,0.3,0.2,0.7,0.2,1.1c0,0.2,0,0.4,0,0.5c0,1.3,0,2.9,0,4.5c0,0.6-0.2,1.5-1.4,1.6
		c-0.5,0-1,0.1-1.4,0.1c-0.4,0-0.7,0.1-1.1,0.1c-0.9,0.1-1.9,0.1-2.8,0c-1.2-0.1-2.2-0.4-3.2-0.8c-2.1-0.9-3.6-2.6-4.4-4.9
		c-0.6-1.7-0.9-3.5-0.9-5.6c0-0.5,0-1.1,0.1-1.7c0-0.2,0-0.4,0-0.6c0.4-4.6,2.9-7.8,7.2-9c4.4-1.2,7.9,0.3,10.6,4.5l0.3,0.4v-0.5
		c0-0.4,0-0.8,0-1.1c0-0.8,0-1.5,0-2.2c0.1-0.9-0.3-1.3-1.1-1.5c-2.7-0.7-5.8-1.3-9.2-1c-5.3,0.6-9.8,4.6-10.9,9.8
		c-1.2,5.5,1.1,11,5.8,13.6c2.5,1.4,5,1.9,7.8,1.9c1.9,0,3.8-0.2,6-0.6c1.1-0.2,1.5-0.6,1.6-1.3c0-0.2,0-0.5,0-0.8
		c-0.1-1.1-0.1-2.1,0-3.2c0-0.4,0-0.8,0-1.1c0-2.4,0.3-2.8,2.5-3.6l0.8-0.3h-9.7L296.5,202z"/>
	<path d="M231.8,188.4l1.1-0.3h-8.1l0.2,0.2c0.2,0.2,0.4,0.5,0.6,0.7c0.5,0.6,1,1.1,1.1,1.7c0.2,1.9,0.1,3.8,0.1,5.8
		c0,0.7,0,1.5,0,2.3h-12.4c0-0.7,0-1.4,0-2.1c0-0.8,0-1.6,0-2.4c0-0.8,0-1.6,0-2.4c0-1.5,0.2-3,2.1-3.6l1-0.3h-9.3l1.2,0.3
		c0.8,0.2,1.2,0.5,1.6,0.9c0.5,0.7,0.6,1.7,0.6,2.8l0,1c0,2.4,0,4.8,0,7.2c0,2.4,0,4.9,0,7.3c0,1.9-0.1,3.5-2.1,4.1l-0.9,0.3h7.9
		l-0.2-0.2c-0.2-0.2-0.4-0.5-0.6-0.7c-0.5-0.5-1-1-1-1.5c-0.1-2.3-0.1-4.6-0.1-6.9c0-0.8,0-1.6,0-2.5h12.3c0,0.8,0,1.5,0,2.3
		c0,0.9,0,1.8,0,2.8c0,0.9,0,1.8,0,2.7c0,0.1,0,0.2,0,0.3c0,0.3,0,0.6,0,0.9c-0.1,1.1-0.5,2-1.8,2.5c-0.1,0-0.2,0.1-0.4,0.1l-1,0.3
		h8.6l-0.6-0.3c-2-1-2.2-1.3-2.2-3.5c0-2.2,0-4.4,0-6.6c0-3.2,0-6.4,0-9.5c0-0.6,0-1.1,0.1-1.6C229.9,189.4,230.5,188.7,231.8,188.4
		z"/>
	<path d="M147.4,215.1c-5.9,3.2-12.3,1.8-16-3.4c-0.9-1.3-1.8-2.8-2.6-4.1c-1.5-2.6-3.1-5.3-5.4-7.4c0.1,0,0.2-0.1,0.3-0.1
		c2.8-1.1,4.3-3.3,4.2-5.9c-0.2-3.1-2-5.2-4.8-5.8c-1.7-0.3-3.5-0.3-5.3-0.3c-0.7,0-1.4,0-2.1,0c-0.7,0-1.4,0-2.1,0
		c-0.3,0-0.6,0-0.9,0h-0.1l-0.2,0.6l0.2,0c1.1,0.1,1.7,0.6,2,1.3c0,0.1,0.1,0.2,0.1,0.2c0.1,0.2,0.1,0.3,0.1,0.5
		c0.1,0.4,0.1,0.8,0.1,1.3c-0.1,5.3-0.1,10.7,0,16c0,1.6-0.1,3.1-2,3.7l-1,0.3h7.9l-0.2-0.2c-0.2-0.2-0.4-0.4-0.6-0.6
		c-0.1-0.1-0.1-0.1-0.2-0.2c-0.4-0.4-0.8-0.8-0.8-1.3c-0.1-2.2-0.1-4.4-0.1-6.6c0-0.8,0-1.5,0-2.3c0.4,0,0.8,0,1.1,0
		c1.4,0.2,2.5,0.9,3.5,2.2c0.1,0.1,0.2,0.3,0.3,0.4c0.7,1.1,1.4,2.2,2.1,3.3c1,1.6,2,3.3,3.1,4.9c3.2,4.5,7.1,6.8,11.8,6.8
		c1.1,0,2.2-0.1,3.4-0.4c0.5-0.1,0.9-0.2,1.3-0.3c1.8-0.6,3.2-1.5,3.8-2.6l0.2-0.4l-0.7,0.3C147.6,215,147.5,215.1,147.4,215.1z
		 M117.7,189.3c1.9-0.3,4.1-0.3,5.6,1.6c1.5,1.8,1.7,4,0.6,6.1c-1.3,2.5-3.8,2.5-6.2,2.4V189.3z"/>
	<path d="M270.4,188.4c2.4,1.2,2.5,1.4,2.5,4.1l0,7.8l0,7.3c-0.6-0.6-1.1-1.2-1.6-1.8c-1.3-1.5-2.5-2.8-3.7-4.2
		c-1.3-1.4-2.5-2.8-3.7-4.2c-3.1-3.4-6.3-7-9.5-10.4c-3.8-4-8.3-5.8-13.4-5.2c-0.5,0-0.9,0.1-1.4,0.3c-1.5,0.4-3.1,1.1-3.9,2.1
		l-0.4,0.5l0.6-0.3c3.3-1.5,6.2-1.8,9-0.8c3.9,1.4,6.7,4.3,9.6,7.7c0.1,0.2,0.2,0.5,0.2,0.9l0,0.7c0,5,0,10.1,0,15.1
		c0,1.7-0.2,3.2-2.1,3.6l-1.3,0.3h8.1l-1.2-0.3c-1.5-0.4-2.1-1.3-2.1-3.2c0-4.5,0-9.1,0-13.6l0-1.3c0-0.1,0-0.2,0.1-0.4
		c0,0,0,0,0-0.1l2.4,2.7c0.5,0.6,1.1,1.2,1.6,1.8c1.6,1.8,3.1,3.5,4.7,5.2c2,2.3,4.1,4.5,6.2,6.9l3.1,3.5l0-0.4c0-0.3,0-0.6,0-0.8
		c0-0.4,0-0.7,0-1c0-1.5,0-3,0-4.5c0-2.4,0-4.8,0-7.2c0-2.4,0-4.9,0-7.3c0-1.7,0.2-2.8,1.5-3.4c0.2-0.1,0.4-0.2,0.6-0.2l1-0.3h-7.3
		L270.4,188.4z"/>
	<path d="M146.5,201.5c-0.8-0.6-1.6-1.1-2.4-1.6c-0.6-0.4-1.2-0.8-1.8-1.2l-0.4-0.3c-1-0.7-2.1-1.5-2.8-2.4
		c-1.2-1.5-1.3-3.3-0.3-5.1c0.8-1.4,2.1-2.2,3.7-2.2c0.1,0,0.2,0,0.4,0c0.1,0,0.2,0,0.4,0c2,0.2,3.4,1.3,4,3.2
		c0.1,0.2,0.2,0.5,0.2,0.7l0.3,0.9l0.1-0.5c0.1-0.5,0.2-0.9,0.3-1.3c0-0.2,0.1-0.4,0.1-0.6c0-0.1,0-0.2,0-0.3c0-0.1,0-0.2,0-0.2
		c0-0.6-0.1-1.1-0.4-1.5c-0.3-0.4-0.6-0.7-1.2-1c-0.5-0.2-1-0.4-1.7-0.5c-0.1,0-0.2,0-0.4-0.1c-0.2,0-0.5-0.1-0.7-0.1
		c-3.5-0.5-6.8,1.2-8,4.2c-1.2,3.3,0,6.5,3.1,8.5c0.5,0.3,1.1,0.7,1.6,1c0.6,0.3,1.2,0.7,1.8,1.1l0.3,0.2c0.8,0.5,1.7,1.1,2.4,1.8
		c1,1.1,1.4,2.5,1.1,3.8c-0.3,1.1-1.1,2-2.1,2.6c-0.2,0.1-0.5,0.2-0.8,0.3c-3.1,1-6.4-0.7-7.4-3.8l-0.3-1l-0.6,0.1v0.1
		c0,0.3,0,0.5,0,0.8c0,0.1,0,0.3,0,0.4c0,0.4,0,0.8-0.1,1.2c-0.1,0.9,0.1,1.5,0.6,2c0.2,0.2,0.6,0.3,0.9,0.4
		c0.3,0.1,0.5,0.1,0.8,0.2c1.7,0.4,3.4,0.9,5.2,1c0.1,0,0.2,0,0.3,0c2.5,0,5-1.7,5.9-4.1C149.6,205.9,148.8,203.3,146.5,201.5z"/>
	<path d="M322.1,203.9c-1.2-1.9-2.8-3.3-4.8-4.5c-1.3-0.7-2.9-1.7-4.2-3c-1.5-1.5-1.8-3.4-0.8-5.3c0.5-1.1,1.3-1.8,2.4-2.2
		c0.5-0.2,1.1-0.3,1.8-0.3c0,0,0,0,0,0c0.2,0,0.5,0,0.7,0.1c1.6,0.2,2.9,1.3,3.6,3.1c0.1,0.3,0.2,0.5,0.3,0.8l0.3,0.9l0.1-0.4
		c0.3-0.9,0.4-1.6,0.4-2.2c0-0.6-0.1-1.1-0.3-1.5c-0.4-0.7-1.3-1.2-2.8-1.6c-0.5-0.1-1-0.2-1.6-0.3c-0.3,0-0.5,0-0.8-0.1
		c-3.7-0.1-6.6,2.1-7.3,5.8c-0.5,2.7,1,5.5,3.9,7.3c0.4,0.3,0.9,0.5,1.3,0.8c1,0.6,2,1.2,3,1.8c0.3,0.2,0.6,0.4,1,0.7
		c1.4,1.1,1.9,2.6,1.5,4.3c-0.4,1.7-1.5,2.7-3.4,3.1c-2.6,0.6-5.5-0.8-6.6-3.3c-0.1-0.3-0.3-0.7-0.4-1c-0.1-0.2-0.1-0.3-0.2-0.5
		l0-0.1l-0.6,0.1v0v0.1c0,0.3,0,0.6,0,0.9c0,0.7,0,1.5,0,2.3c0,0.1,0,0.3,0.1,0.5c0.1,0.2,0.2,0.4,0.3,0.5c1.4,0.9,3.2,1.6,5,1.8
		c0.3,0,0.5,0.1,0.8,0.1c0.2,0,0.4,0,0.6,0c1.6,0,3.6-0.4,5.3-1.8C322.6,209.2,323.3,205.7,322.1,203.9z"/>
	<path d="M171,187.5c-0.7,0.2-1.3,0.4-1.9,0.4c-0.1,0-0.2,0-0.3,0c-2.2,0-4.4,0.1-6.6,0.1c-2.2,0-4.5,0-6.7-0.1
		c-0.7,0-1.4-0.2-2.2-0.4c-0.3-0.1-0.7-0.2-1-0.3l-0.2,0v6.3l0.3-1c0.4-1.2,0.8-2.3,1.7-2.7c0.2-0.1,0.4-0.2,0.7-0.2
		c1.2-0.2,2.5-0.2,3.8-0.2c0.7,0,1.4,0,2.1,0v1.6c0,1.6,0,3.1,0,4.7c0,4,0,8.1,0,12.2c0,1.8-0.1,3.2-2,3.7l-1,0.3h9.3l-1.3-0.3
		c-1.8-0.4-2.1-1.6-2.1-3.3c0-3.6,0-7.3,0-10.9c0-2.2,0-4.5,0-6.7c0-0.2,0-0.3,0-0.5c0-0.3,0-0.6,0-0.8l0.1,0c5.8-0.2,7-0.3,8.2,3.7
		l0.3,1v-6.8l-0.2,0C171.7,187.3,171.3,187.4,171,187.5z"/>
	<path d="M204.6,187.6c-0.7,0.2-1.5,0.4-2.2,0.4c-4.3,0.1-8.2,0.1-11.9,0c-0.8,0-1.6-0.1-2.4-0.2c-0.3,0-0.5-0.1-0.8-0.1
		c-0.5-0.1-0.9-0.2-1.4-0.2l-0.2,0v6.5l0.3-0.7c1.4-3.5,3.9-4.6,8.3-3.5v1.5c0,1.6,0,3.1,0,4.7c0,4,0,8.2,0,12.3
		c0,1.7-0.1,3.1-2,3.6l-1,0.3h8.7l-0.6-0.3c-2-1-2.2-1.3-2.2-3.5c0-5.8,0-11.6,0-17.3c0-0.4,0-0.7,0-1.1c0-0.1,0-0.2,0-0.4
		c0.5,0,1,0,1.6,0c1.3,0,2.4,0,3.6,0c1.4,0.1,2.3,0.9,2.7,2.3c0,0.2,0.1,0.4,0.2,0.6c0.1,0.1,0.1,0.3,0.2,0.5l0.3,0.8v-6.4l-0.2,0
		C205.3,187.4,204.9,187.5,204.6,187.6z"/>
	<path d="M78.7,188.4c1.9,0.3,2,1.6,2,3.4l0,16.4c0,0.3,0,0.6,0,0.9c0,0.2,0,0.4-0.1,0.5c0,0.1,0,0.2-0.1,0.3
		c-0.2,0.8-0.7,1.5-1.9,1.7l-1.5,0.3h8.4l-0.2-0.2c-0.2-0.2-0.4-0.4-0.6-0.7c-0.5-0.5-1.1-1-1.1-1.6c0-0.3,0-0.6-0.1-0.9
		c-0.1-1.9-0.1-3.8-0.1-5.8c0-0.8,0-1.6,0-2.5c0.4,0,0.8,0,1.1,0c0.9,0,1.8,0,2.6,0l0.3,0c0.8,0,1.6,0.1,2.2,0.4
		c0.2,0.1,0.3,0.2,0.5,0.4c0.3,0.2,0.5,0.5,0.7,0.8c0.2,0.2,0.3,0.4,0.5,0.6l0.3,0.3v-5.4l-0.2,0.2c-0.2,0.2-0.4,0.4-0.6,0.7
		c-0.1,0.1-0.1,0.1-0.2,0.2c-0.4,0.4-0.8,0.8-1.2,0.9c-1.4,0.2-2.9,0.1-4.3,0.1c-0.5,0-1.1,0-1.6,0v-10.2l1.6,0c1.3,0,2.5,0,3.8,0
		c2.3,0,2.8,0.3,3.7,2.1c0.1,0.1,0.1,0.3,0.2,0.4l0.3,0.6v-4.3H78.8L78.7,188.4z"/>
	<path d="M245.6,188.4l1.1-0.3H237l1.4,0.3c2,0.4,2.2,1.8,2.1,3.5c0,6.5,0,11.5,0,16.1c0,0.1,0,0.2,0,0.3c0,1.7-0.4,2.8-2.1,3.2
		l-1.1,0.3h9.3l-1.1-0.3c-0.5-0.1-0.9-0.3-1.2-0.6c-0.1-0.1-0.3-0.2-0.4-0.4c-0.1-0.1-0.1-0.1-0.1-0.2c-0.3-0.6-0.4-1.3-0.4-2.1
		c0-0.1,0-0.2,0-0.3c0-2.7,0-5.4,0-8.1c0-1.3,0-2.7,0-4c0-1.3,0-2.6,0-3.9C243.5,190.4,243.6,188.9,245.6,188.4z"/>
	<path d="M105.6,188.3l1-0.3h-9.2l1.1,0.3c1.9,0.5,2.1,1.9,2.1,3.8c0,5.7,0,10.9,0,15.9c0,0.1,0,0.2,0,0.3c0,1.6-0.3,2.9-2.1,3.4
		l-1.1,0.3h9.3h0l-1-0.3c-2-0.6-2.2-2-2.1-4c0-4.6,0-9.3,0-13.8l0-1c0-0.2,0-0.3,0-0.5C103.4,190.6,103.4,189,105.6,188.3z"/>
</g>
</svg>
