<?xml version="1.0" encoding="utf-8"?>
<!-- Generator: Adobe Illustrator 19.0.1, SVG Export Plug-In . SVG Version: 6.00 Build 0)  -->
<!DOCTYPE svg PUBLIC "-//W3C//DTD SVG 1.1//EN" "http://www.w3.org/Graphics/SVG/1.1/DTD/svg11.dtd">
<svg version="1.1" id="Layer_1" xmlns="http://www.w3.org/2000/svg" xmlns:xlink="http://www.w3.org/1999/xlink" x="0px" y="0px"
	 viewBox="50 50 300 300" enable-background="new 0 0 400 400" xml:space="preserve">
<style>
  g, path {
    fill: #6db6aa;
  }
</style>
<g>
	<g>
		<path fill="#8B0304" d="M141.5,215.9c0,0-1.8,0.3-4.4,0.3c-2.6,0-4.4-0.3-4.4-0.3s0,0.5,0.2,0.6c0.4,0.2,1,0,2.3,0.9
			c1.3,0.9,1.6,1.7,1.6,1.7h0.9c0,0,0.3-0.8,1.6-1.7c1.3-0.9,1.9-0.8,2.3-0.9C141.5,216.4,141.5,215.9,141.5,215.9z"/>
		<path fill="#8B0304" d="M132,190.9c0,0-7.2,3.5-5.3,10.8c0.9,3.5,5.2,5.7,6.9,7.1c3.6,2.8,3.3,6,3.3,6s1.1-5.1-2-8.1
			c-2-1.9-5.7-5.5-6-8.2C128.6,194,132,190.9,132,190.9z"/>
		<path fill="#8B0304" d="M138.2,211.9c0,0,5.3-2.7,3.4-9.3c-1.5-5.2-8.4-7.6-8.7-13.3c-0.1-2.8,2.1-5.3,3-6.6
			c0.9-1.3,1.2-1.8,1.2-1.8s1.5,0.4,1.3,3.8c-0.1,1.9-0.7,2.1-0.7,2.1s0-1.2,0-2.1c-0.1-1.3-0.5-1.4-0.5-1.4s-2.5,1.1-2.4,4.7
			c0.1,3.3,8.3,7.9,9.6,12C147.2,208.7,138.2,211.9,138.2,211.9z"/>
	</g>
	<g>
		<path d="M74.1,209.8c-1.9,0-3.8,0.1-5,0.1V209c1.4,0,1.9-0.6,1.9-2v-12.3c0-1.4-0.4-2-1.9-2v-0.8c1.6,0,2.3,0.1,3.4,0.1
			c1,0,2.2-0.1,3.3-0.1v0.8c-1.5,0-1.9,0.6-1.9,2V207c0,1.3,0.7,1.8,2.7,1.8c2.3,0,4.3,0,4.8-3.6h0.8l-0.4,4.6
			C80.4,209.8,75.8,209.8,74.1,209.8z"/>
		<path d="M92.1,209.8c-2,0-3.5,0-5.2,0.1V209c1.4,0,1.9-0.6,1.9-2v-12.3c0-1.4-0.5-2-1.9-2v-0.8c2.2,0,2.7,0.1,4.5,0.1
			c1.9,0,5.4-0.1,6.9-0.1l0.2,4.2h-0.7c-0.1-2.3-1.5-3.2-3.9-3.2h-2.2v7.3h2c1.6,0,2.2-0.6,2.2-2.4h0.8c0,0.6-0.1,1.5-0.1,2.9
			c0,1.2,0.1,2.1,0.1,3H96c0-2.1-0.5-2.6-2.3-2.6h-2v5.8c0,1.2,0.1,2.1,2.4,2.1c3,0,4.1-0.9,4.6-3.7h0.7l-0.3,4.6
			C97.5,209.8,94.8,209.8,92.1,209.8z"/>
		<path d="M109.9,209.8c-2,0-3.5,0-5.2,0.1V209c1.4,0,1.9-0.6,1.9-2v-12.3c0-1.4-0.5-2-1.9-2v-0.8c2.2,0,2.7,0.1,4.5,0.1
			c1.9,0,5.4-0.1,6.9-0.1l0.2,4.2h-0.7c-0.1-2.3-1.5-3.2-3.9-3.2h-2.2v7.3h2c1.6,0,2.2-0.6,2.2-2.4h0.8c0,0.6-0.1,1.5-0.1,2.9
			c0,1.2,0.1,2.1,0.1,3h-0.8c0-2.1-0.5-2.6-2.3-2.6h-2v5.8c0,1.2,0.1,2.1,2.4,2.1c3,0,4.1-0.9,4.6-3.7h0.7l-0.3,4.6
			C115.3,209.8,112.6,209.8,109.9,209.8z"/>
		<path d="M153,191.9c0.8,0,2.3,0.1,3.3,0.1c1.1,0,2.6-0.1,3.3-0.1v0.8c-0.8,0-1.3,0.2-1.6,0.6c-0.2,0.3-0.3,0.8-0.3,7.1
			c0,4.6,0.4,6.3,1.5,7.5c0.8,0.8,1.8,1.3,3.3,1.3c1.4,0,2.7-0.4,3.7-1.4c1-1,1.5-2.6,1.5-6.1c0-5.2-0.2-7.4-0.7-8.4
			c-0.3-0.6-0.7-0.7-1.6-0.7v-0.8c1.4,0.1,2.3,0.1,2.8,0.1c0.5,0,1.4,0,2.5-0.1v0.8c-1.4,0-2,0.3-2,2.8v7c0,4.6-1.5,7.7-6.9,7.7
			c-4.5,0-7-2.7-7-7.3v-8.2c0-1.4-0.5-2-1.9-2V191.9z"/>
		<path d="M190.5,210.1L178.2,195l0.1,6.7c0,1.8,0,3.5,0.1,5.3c0,1.3,0.4,2,1.6,2h0.3v0.8c-1.1-0.1-1.9-0.1-2.4-0.1
			c-0.5,0-1.4,0-2.5,0.1V209h0.3c1.2,0,1.6-0.8,1.6-2v-12.7c0-1-0.7-1.6-1.9-1.6v-0.8c0.9,0.1,1.7,0.1,2.1,0.1c0.4,0,1.2,0,2.1-0.1
			l10.8,13.3l-0.1-9.7c0-1.7-0.4-2.8-1.5-2.8h-0.4v-0.8c1.1,0.1,1.9,0.1,2.5,0.1c0.5,0,1.4,0,2.5-0.1v0.8h-0.3c-1.2,0-1.6,0.7-1.6,2
			v15.3H190.5z"/>
		<path d="M198.1,191.9c1.6,0,2.1,0.1,3.3,0.1c1,0,2.5-0.1,3.2-0.1v0.8c-1.4,0-1.8,0.6-1.8,2V207c0,1.4,0.5,2,1.8,2v0.8
			c-0.8,0-1.9-0.1-3.2-0.1c-1.1,0-2.7,0.1-3.3,0.1V209c1.4,0,1.8-0.6,1.8-2v-12.3c0-1.4-0.4-2-1.8-2V191.9z"/>
		<path d="M217.8,210.1l-6.6-15.8c-0.5-1.2-1-1.6-2.1-1.6v-0.8c1,0,2.6,0.1,3.6,0.1c1.4,0,3-0.1,3.6-0.1v0.8c-1.7,0-2.1,0.3-2.1,0.9
			c0,0.3,0.1,0.7,0.3,1.2l4.4,10.8l3.8-10.8c0.1-0.4,0.2-0.8,0.2-1.1c0-0.5-0.4-0.9-1.5-0.9v-0.8c1,0,1.7,0.1,2.7,0.1
			c0.6,0,1.5,0,2.7-0.1v0.8c-1.5,0-2.2,0.5-2.7,1.9l-5.7,15.6H217.8z"/>
		<path d="M236.3,209.8c-2,0-3.5,0-5.2,0.1V209c1.4,0,1.9-0.6,1.9-2v-12.3c0-1.4-0.5-2-1.9-2v-0.8c2.2,0,2.7,0.1,4.5,0.1
			c1.9,0,5.4-0.1,6.9-0.1l0.2,4.2H242c-0.1-2.3-1.5-3.2-3.9-3.2h-2.2v7.3h2c1.6,0,2.2-0.6,2.2-2.4h0.8c0,0.6-0.1,1.5-0.1,2.9
			c0,1.2,0.1,2.1,0.1,3h-0.8c0-2.1-0.5-2.6-2.3-2.6h-2v5.8c0,1.2,0.1,2.1,2.4,2.1c3,0,4.1-0.9,4.6-3.7h0.7l-0.3,4.6
			C241.7,209.8,239,209.8,236.3,209.8z"/>
		<path d="M258.2,207.4l-2.3-4.7c-0.5-1.1-0.9-1.1-1.4-1.2l-0.7-0.1v5.6c0,1.4,0.5,2,1.9,2v0.8c-1.2,0-1.7-0.1-3.3-0.1
			c-1.3,0-2.2,0.1-3.3,0.1V209c1.4,0,1.9-0.6,1.9-2v-12.3c0-1.4-0.5-2-1.9-2v-0.8c0.8,0,2,0.1,3,0.1c1.3,0,2.5-0.1,4-0.1
			c4.6,0,5.7,2.4,5.7,4.7c0,2.2-1.3,3.9-3.4,4.5c0.3,0.4,0.6,0.7,0.8,1.1l2.2,4.7c0.9,2,1.6,2.6,2.9,2.6v0.6
			C262.3,210.3,259.5,210.2,258.2,207.4z M254.8,200.6c2.4,0,3.8-0.9,3.8-3.5c0-2.2-1.2-4.4-3.4-4.4c-0.4,0-0.9,0-1.4,0.1v7.8
			C254.1,200.6,254.3,200.6,254.8,200.6z"/>
		<path d="M268.7,205h0.9c0.4,2.5,2.3,4.2,4.4,4.2c2.1,0,3.2-1.6,3.2-3c0-4.1-8.3-3.8-8.3-9.5c0-2.2,1.2-5.3,5.8-5.3
			c1.4,0,2.3,0.1,4.1,0.6l0.2,4.5h-0.8c-0.1-2.4-1.9-4.2-4.1-4.2c-1.7,0-3,1.2-3,2.7c0,3.8,8.4,4,8.4,9.7c0,3.2-2.3,5.4-5.5,5.4
			c-1.7,0-3.6-0.3-5-0.8L268.7,205z"/>
		<path d="M284.9,191.9c1.6,0,2.1,0.1,3.3,0.1c1,0,2.5-0.1,3.2-0.1v0.8c-1.4,0-1.8,0.6-1.8,2V207c0,1.4,0.5,2,1.8,2v0.8
			c-0.8,0-1.9-0.1-3.2-0.1c-1.1,0-2.7,0.1-3.3,0.1V209c1.4,0,1.8-0.6,1.8-2v-12.3c0-1.4-0.4-2-1.8-2V191.9z"/>
		<path d="M300.6,193.3c-2.1,0-3.4,0.4-3.6,3.7h-0.8l0.2-5c2,0,4.8,0.1,5.9,0.1h2.7c1,0,4.7-0.1,5.8-0.1l0.1,5h-0.8
			c-0.3-2.9-1-3.7-3.7-3.7h-1.5V207c0,1.4,0.4,2,1.8,2v0.8c-0.9,0-2.3-0.1-3.3-0.1c-1,0-2.4,0.1-3.3,0.1V209c1.4,0,1.9-0.6,1.9-2
			v-13.7H300.6z"/>
		<path d="M322.9,209.8c-1.4,0-2.8,0.1-3.5,0.1V209c1.3,0,2.1-0.1,2.1-2v-3.6l-3.4-8c-0.9-2.2-1.3-2.7-2.9-2.7v-0.8
			c1.7,0,1.8,0.1,3.7,0.1c1.5,0,2.6,0,3.7-0.1v0.8c-1.5,0-1.8,0.2-1.8,0.8c0,0.4,0.2,0.9,0.8,2.3l2.4,6l3.1-6.6
			c0.4-0.9,0.5-1.2,0.5-1.6c0-0.7-0.4-0.9-1.6-1v-0.8c1.1,0.1,2,0.1,2.5,0.1c0.5,0,1.4,0,2.5-0.1v0.8c-1.2,0.1-1.6,0.3-2.1,1.5
			l-4.5,9.2v3.7c0,2,0.6,2,2.1,2v0.8C325.7,209.8,324.4,209.8,322.9,209.8z"/>
	</g>
</g>
</svg>
