<svg xmlns="http://www.w3.org/2000/svg" xmlns:xlink="http://www.w3.org/1999/xlink" preserveAspectRatio="xMidYMid" width="210" height="31" viewBox="0 0 210 31">
  <defs>
    <style>

      .cls-2 {
        // fill: #902317;
		fill: #FFFFFF;
      }
    </style>
  </defs>
  <path d="M208.277,10.790 C208.277,10.790 204.627,18.241 204.627,18.241 C204.627,18.241 204.627,21.207 204.627,21.207 C204.627,22.791 205.134,22.813 206.351,22.813 C206.351,22.813 206.351,23.483 206.351,23.483 C205.722,23.460 204.647,23.416 203.431,23.416 C202.275,23.416 201.099,23.460 200.552,23.483 C200.552,23.483 200.552,22.813 200.552,22.813 C201.586,22.813 202.275,22.702 202.275,21.185 C202.275,21.185 202.275,18.241 202.275,18.241 C202.275,18.241 199.477,11.749 199.477,11.749 C198.706,9.943 198.382,9.586 197.104,9.586 C197.104,9.586 197.104,8.916 197.104,8.916 C198.483,8.939 198.605,8.983 200.126,8.983 C201.342,8.983 202.255,8.961 203.147,8.916 C203.147,8.916 203.147,9.586 203.147,9.586 C201.951,9.586 201.667,9.786 201.667,10.255 C201.667,10.567 201.869,10.969 202.316,12.084 C202.316,12.084 204.262,16.969 204.262,16.969 C204.262,16.969 206.776,11.638 206.776,11.638 C207.121,10.902 207.161,10.701 207.161,10.366 C207.161,9.809 206.857,9.630 205.844,9.586 C205.844,9.586 205.844,8.916 205.844,8.916 C206.776,8.961 207.466,8.983 207.932,8.983 C208.378,8.983 209.088,8.961 210.000,8.916 C210.000,8.916 210.000,9.586 210.000,9.586 C209.027,9.653 208.723,9.853 208.277,10.790 ZM190.499,10.032 C190.499,10.032 189.302,10.032 189.302,10.032 C189.302,10.032 189.302,21.185 189.302,21.185 C189.302,22.300 189.667,22.813 190.803,22.813 C190.803,22.813 190.803,23.483 190.803,23.483 C190.032,23.460 188.937,23.416 188.086,23.416 C187.254,23.416 186.139,23.460 185.409,23.483 C185.409,23.483 185.409,22.813 185.409,22.813 C186.565,22.813 186.950,22.300 186.950,21.185 C186.950,21.185 186.950,10.032 186.950,10.032 C186.950,10.032 185.653,10.032 185.653,10.032 C183.929,10.032 182.875,10.322 182.733,12.999 C182.733,12.999 182.064,12.999 182.064,12.999 C182.064,12.999 182.246,8.916 182.246,8.916 C183.909,8.939 186.220,8.983 187.092,8.983 C187.092,8.983 189.282,8.983 189.282,8.983 C190.134,8.983 193.175,8.939 194.067,8.916 C194.067,8.916 194.189,12.999 194.189,12.999 C194.189,12.999 193.520,12.999 193.520,12.999 C193.236,10.612 192.668,10.032 190.499,10.032 ZM173.288,23.483 C173.288,23.483 173.288,22.813 173.288,22.813 C174.424,22.813 174.789,22.300 174.789,21.185 C174.789,21.185 174.789,11.214 174.789,11.214 C174.789,10.099 174.424,9.586 173.288,9.586 C173.288,9.586 173.288,8.916 173.288,8.916 C174.586,8.939 175.032,8.983 176.005,8.983 C176.816,8.983 178.053,8.939 178.641,8.916 C178.641,8.916 178.641,9.586 178.641,9.586 C177.506,9.586 177.141,10.099 177.141,11.214 C177.141,11.214 177.141,21.185 177.141,21.185 C177.141,22.300 177.526,22.813 178.641,22.813 C178.641,22.813 178.641,23.483 178.641,23.483 C177.972,23.460 177.100,23.416 176.005,23.416 C175.113,23.416 173.795,23.460 173.288,23.483 ZM164.531,23.795 C163.111,23.795 161.550,23.527 160.415,23.126 C160.415,23.126 160.253,19.557 160.253,19.557 C160.253,19.557 160.962,19.557 160.962,19.557 C161.327,21.587 162.807,22.992 164.592,22.992 C166.315,22.992 167.207,21.676 167.207,20.583 C167.207,17.281 160.415,17.460 160.415,12.887 C160.415,11.080 161.429,8.604 165.139,8.604 C166.275,8.604 167.005,8.716 168.525,9.117 C168.525,9.117 168.667,12.753 168.667,12.753 C168.667,12.753 167.978,12.753 167.978,12.753 C167.897,10.790 166.457,9.340 164.632,9.340 C163.274,9.340 162.179,10.322 162.179,11.526 C162.179,14.627 169.073,14.738 169.073,19.423 C169.073,22.010 167.228,23.795 164.531,23.795 ZM151.820,21.498 C151.820,21.498 149.934,17.683 149.934,17.683 C149.508,16.813 149.184,16.791 148.778,16.746 C148.778,16.746 148.170,16.679 148.170,16.679 C148.170,16.679 148.170,21.185 148.170,21.185 C148.170,22.300 148.576,22.813 149.711,22.813 C149.711,22.813 149.711,23.483 149.711,23.483 C148.698,23.460 148.292,23.416 146.974,23.416 C145.899,23.416 145.169,23.460 144.257,23.483 C144.257,23.483 144.257,22.813 144.257,22.813 C145.413,22.813 145.818,22.300 145.818,21.185 C145.818,21.185 145.818,11.214 145.818,11.214 C145.818,10.099 145.433,9.586 144.257,9.586 C144.257,9.586 144.257,8.916 144.257,8.916 C144.885,8.939 145.899,8.983 146.690,8.983 C147.765,8.983 148.778,8.872 149.955,8.872 C153.706,8.872 154.618,10.813 154.618,12.664 C154.618,14.471 153.543,15.831 151.840,16.278 C152.104,16.568 152.327,16.813 152.489,17.148 C152.489,17.148 154.273,20.962 154.273,20.962 C155.024,22.568 155.612,23.059 156.625,23.103 C156.625,23.103 156.625,23.594 156.625,23.594 C155.247,23.884 152.955,23.795 151.820,21.498 ZM152.144,13.155 C152.144,11.370 151.131,9.563 149.326,9.563 C149.022,9.563 148.616,9.586 148.170,9.608 C148.170,9.608 148.170,15.943 148.170,15.943 C148.515,15.988 148.677,16.010 149.042,16.010 C150.989,16.010 152.144,15.274 152.144,13.155 ZM133.896,23.416 C132.254,23.416 131.057,23.438 129.658,23.483 C129.658,23.483 129.658,22.813 129.658,22.813 C130.835,22.813 131.220,22.300 131.220,21.185 C131.220,21.185 131.220,11.214 131.220,11.214 C131.220,10.099 130.835,9.586 129.658,9.586 C129.658,9.586 129.658,8.916 129.658,8.916 C131.422,8.939 131.848,8.983 133.369,8.983 C134.951,8.983 137.809,8.939 138.985,8.916 C138.985,8.916 139.127,12.352 139.127,12.352 C139.127,12.352 138.539,12.352 138.539,12.352 C138.438,10.456 137.323,9.720 135.356,9.720 C135.356,9.720 133.572,9.720 133.572,9.720 C133.572,9.720 133.572,15.608 133.572,15.608 C133.572,15.608 135.234,15.608 135.234,15.608 C136.573,15.608 137.039,15.095 137.059,13.623 C137.059,13.623 137.688,13.623 137.688,13.623 C137.688,14.092 137.627,14.850 137.627,16.010 C137.627,16.991 137.688,17.728 137.688,18.419 C137.688,18.419 137.059,18.419 137.059,18.419 C137.039,16.746 136.674,16.344 135.194,16.344 C135.194,16.344 133.572,16.344 133.572,16.344 C133.572,16.344 133.572,21.051 133.572,21.051 C133.572,22.033 133.633,22.724 135.559,22.724 C137.992,22.724 138.945,21.988 139.350,19.735 C139.350,19.735 139.959,19.735 139.959,19.735 C139.959,19.735 139.716,23.483 139.716,23.483 C138.337,23.460 136.106,23.416 133.896,23.416 ZM124.452,11.103 C124.452,11.103 119.788,23.728 119.788,23.728 C119.788,23.728 119.261,23.728 119.261,23.728 C119.261,23.728 113.867,10.902 113.867,10.902 C113.462,9.943 113.016,9.608 112.124,9.586 C112.124,9.586 112.124,8.916 112.124,8.916 C112.935,8.939 114.273,8.983 115.104,8.983 C116.260,8.983 117.538,8.939 118.085,8.916 C118.085,8.916 118.085,9.586 118.085,9.586 C116.686,9.586 116.382,9.831 116.382,10.277 C116.382,10.523 116.463,10.813 116.625,11.214 C116.625,11.214 120.255,20.003 120.255,20.003 C120.255,20.003 123.357,11.214 123.357,11.214 C123.479,10.879 123.519,10.567 123.519,10.322 C123.519,9.898 123.154,9.586 122.262,9.586 C122.262,9.586 122.262,8.916 122.262,8.916 C123.052,8.939 123.621,8.983 124.452,8.983 C124.938,8.983 125.689,8.961 126.641,8.916 C126.641,8.916 126.641,9.586 126.641,9.586 C125.425,9.586 124.857,10.032 124.452,11.103 ZM103.551,23.483 C103.551,23.483 103.551,22.813 103.551,22.813 C104.686,22.813 105.051,22.300 105.051,21.185 C105.051,21.185 105.051,11.214 105.051,11.214 C105.051,10.099 104.686,9.586 103.551,9.586 C103.551,9.586 103.551,8.916 103.551,8.916 C104.848,8.939 105.295,8.983 106.268,8.983 C107.079,8.983 108.316,8.939 108.904,8.916 C108.904,8.916 108.904,9.586 108.904,9.586 C107.769,9.586 107.403,10.099 107.403,11.214 C107.403,11.214 107.403,21.185 107.403,21.185 C107.403,22.300 107.789,22.813 108.904,22.813 C108.904,22.813 108.904,23.483 108.904,23.483 C108.235,23.460 107.363,23.416 106.268,23.416 C105.376,23.416 104.058,23.460 103.551,23.483 ZM98.506,11.214 C98.506,11.214 98.506,23.661 98.506,23.661 C98.506,23.661 97.857,23.661 97.857,23.661 C97.857,23.661 87.780,11.415 87.780,11.415 C87.780,11.415 87.841,16.880 87.841,16.880 C87.861,18.308 87.861,19.757 87.902,21.185 C87.942,22.234 88.267,22.813 89.220,22.813 C89.220,22.813 89.443,22.813 89.443,22.813 C89.443,22.813 89.443,23.483 89.443,23.483 C88.551,23.438 87.881,23.416 87.435,23.416 C86.989,23.416 86.300,23.438 85.408,23.483 C85.408,23.483 85.408,22.813 85.408,22.813 C85.408,22.813 85.651,22.813 85.651,22.813 C86.624,22.813 86.949,22.189 86.949,21.185 C86.949,21.185 86.949,10.902 86.949,10.902 C86.949,10.121 86.361,9.586 85.408,9.586 C85.408,9.586 85.408,8.916 85.408,8.916 C86.178,8.961 86.766,8.983 87.151,8.983 C87.517,8.983 88.104,8.961 88.855,8.916 C88.855,8.916 97.695,19.713 97.695,19.713 C97.695,19.713 97.573,11.839 97.573,11.839 C97.553,10.456 97.249,9.586 96.337,9.586 C96.337,9.586 95.992,9.586 95.992,9.586 C95.992,9.586 95.992,8.916 95.992,8.916 C96.884,8.961 97.573,8.983 98.020,8.983 C98.466,8.983 99.155,8.961 100.047,8.916 C100.047,8.916 100.047,9.586 100.047,9.586 C100.047,9.586 99.804,9.586 99.804,9.586 C98.831,9.586 98.506,10.188 98.506,11.214 ZM81.016,11.883 C81.016,11.883 81.016,17.549 81.016,17.549 C81.016,21.274 79.779,23.795 75.379,23.795 C71.729,23.795 69.641,21.609 69.641,17.884 C69.641,17.884 69.641,11.214 69.641,11.214 C69.641,10.099 69.256,9.586 68.080,9.586 C68.080,9.586 68.080,8.916 68.080,8.916 C68.769,8.939 69.925,8.983 70.817,8.983 C71.729,8.983 72.966,8.939 73.554,8.916 C73.554,8.916 73.554,9.586 73.554,9.586 C72.885,9.586 72.480,9.742 72.257,10.076 C72.074,10.344 71.993,10.723 71.993,15.831 C71.993,19.534 72.358,20.984 73.250,21.921 C73.879,22.568 74.751,22.970 75.926,22.970 C77.062,22.970 78.157,22.680 78.948,21.854 C79.738,21.051 80.205,19.735 80.205,16.925 C80.205,12.709 80.022,10.902 79.597,10.143 C79.333,9.653 78.988,9.586 78.299,9.586 C78.299,9.586 78.299,8.916 78.299,8.916 C79.454,8.961 80.144,8.983 80.610,8.983 C81.056,8.983 81.746,8.961 82.658,8.916 C82.658,8.916 82.658,9.586 82.658,9.586 C81.502,9.586 81.016,9.809 81.016,11.883 ZM58.713,17.603 C57.448,13.401 51.798,11.424 51.614,6.773 C51.523,4.491 53.335,2.476 54.103,1.446 C54.871,0.417 55.093,0.001 55.093,0.001 C55.093,0.001 56.353,0.328 56.182,3.058 C56.085,4.612 55.595,4.803 55.595,4.803 C55.595,4.803 55.620,3.869 55.556,3.105 C55.466,2.031 55.159,1.992 55.159,1.992 C55.159,1.992 53.082,2.909 53.154,5.788 C53.221,8.473 59.960,12.162 61.018,15.499 C63.269,22.597 55.956,25.122 55.956,25.122 C55.956,25.122 60.316,22.923 58.713,17.603 ZM48.363,14.202 C48.560,16.438 51.568,19.297 53.244,20.870 C55.821,23.287 54.917,27.449 54.917,27.449 C54.917,27.449 55.188,24.898 52.205,22.615 C50.734,21.490 47.244,19.710 46.510,16.887 C44.973,10.979 50.849,8.115 50.849,8.115 C50.849,8.115 48.046,10.621 48.363,14.202 ZM32.740,23.416 C31.097,23.416 29.901,23.438 28.502,23.483 C28.502,23.483 28.502,22.813 28.502,22.813 C29.678,22.813 30.063,22.300 30.063,21.185 C30.063,21.185 30.063,11.214 30.063,11.214 C30.063,10.099 29.678,9.586 28.502,9.586 C28.502,9.586 28.502,8.916 28.502,8.916 C30.266,8.939 30.692,8.983 32.212,8.983 C33.794,8.983 36.653,8.939 37.829,8.916 C37.829,8.916 37.971,12.352 37.971,12.352 C37.971,12.352 37.383,12.352 37.383,12.352 C37.282,10.456 36.166,9.720 34.200,9.720 C34.200,9.720 32.415,9.720 32.415,9.720 C32.415,9.720 32.415,15.608 32.415,15.608 C32.415,15.608 34.078,15.608 34.078,15.608 C35.416,15.608 35.882,15.095 35.903,13.623 C35.903,13.623 36.531,13.623 36.531,13.623 C36.531,14.092 36.471,14.850 36.471,16.010 C36.471,16.991 36.531,17.728 36.531,18.419 C36.531,18.419 35.903,18.419 35.903,18.419 C35.882,16.746 35.518,16.344 34.037,16.344 C34.037,16.344 32.415,16.344 32.415,16.344 C32.415,16.344 32.415,21.051 32.415,21.051 C32.415,22.033 32.476,22.724 34.402,22.724 C36.835,22.724 37.788,21.988 38.194,19.735 C38.194,19.735 38.802,19.735 38.802,19.735 C38.802,19.735 38.559,23.483 38.559,23.483 C37.180,23.460 34.950,23.416 32.740,23.416 ZM18.611,23.416 C16.969,23.416 15.773,23.438 14.374,23.483 C14.374,23.483 14.374,22.813 14.374,22.813 C15.550,22.813 15.935,22.300 15.935,21.185 C15.935,21.185 15.935,11.214 15.935,11.214 C15.935,10.099 15.550,9.586 14.374,9.586 C14.374,9.586 14.374,8.916 14.374,8.916 C16.138,8.939 16.563,8.983 18.084,8.983 C19.666,8.983 22.525,8.939 23.701,8.916 C23.701,8.916 23.843,12.352 23.843,12.352 C23.843,12.352 23.255,12.352 23.255,12.352 C23.153,10.456 22.038,9.720 20.071,9.720 C20.071,9.720 18.287,9.720 18.287,9.720 C18.287,9.720 18.287,15.608 18.287,15.608 C18.287,15.608 19.950,15.608 19.950,15.608 C21.288,15.608 21.754,15.095 21.774,13.623 C21.774,13.623 22.403,13.623 22.403,13.623 C22.403,14.092 22.342,14.850 22.342,16.010 C22.342,16.991 22.403,17.728 22.403,18.419 C22.403,18.419 21.774,18.419 21.774,18.419 C21.754,16.746 21.389,16.344 19.909,16.344 C19.909,16.344 18.287,16.344 18.287,16.344 C18.287,16.344 18.287,21.051 18.287,21.051 C18.287,22.033 18.348,22.724 20.274,22.724 C22.707,22.724 23.660,21.988 24.066,19.735 C24.066,19.735 24.674,19.735 24.674,19.735 C24.674,19.735 24.431,23.483 24.431,23.483 C23.052,23.460 20.821,23.416 18.611,23.416 ZM4.136,23.416 C2.555,23.416 0.994,23.460 -0.000,23.483 C-0.000,23.483 -0.000,22.813 -0.000,22.813 C1.136,22.813 1.521,22.300 1.521,21.185 C1.521,21.185 1.521,11.214 1.521,11.214 C1.521,10.099 1.156,9.586 -0.000,9.586 C-0.000,9.586 -0.000,8.916 -0.000,8.916 C1.298,8.939 1.886,8.983 2.758,8.983 C3.589,8.983 4.582,8.939 5.454,8.916 C5.454,8.916 5.454,9.586 5.454,9.586 C4.258,9.586 3.873,10.099 3.873,11.214 C3.873,11.214 3.873,21.185 3.873,21.185 C3.873,22.256 4.461,22.657 6.063,22.657 C7.989,22.657 9.570,22.635 10.037,19.757 C10.037,19.757 10.726,19.757 10.726,19.757 C10.726,19.757 10.422,23.483 10.422,23.483 C9.266,23.460 5.475,23.416 4.136,23.416 ZM54.971,28.682 C57.123,28.682 58.592,28.413 58.592,28.413 C58.592,28.413 58.624,28.846 58.464,28.910 C58.159,29.034 57.632,28.922 56.602,29.644 C55.572,30.366 55.321,30.999 55.321,30.999 C55.321,30.999 54.621,30.999 54.621,30.999 C54.621,30.999 54.370,30.366 53.340,29.644 C52.310,28.922 51.783,29.034 51.478,28.910 C51.318,28.846 51.350,28.413 51.350,28.413 C51.350,28.413 52.819,28.682 54.971,28.682 Z" id="path-1" class="cls-2" fill-rule="evenodd"/>
</svg>
