<?xml version="1.0" encoding="utf-8"?>
<!-- Generator: Adobe Illustrator 19.0.1, SVG Export Plug-In . SVG Version: 6.00 Build 0)  -->
<!DOCTYPE svg PUBLIC "-//W3C//DTD SVG 1.1//EN" "http://www.w3.org/Graphics/SVG/1.1/DTD/svg11.dtd">
<svg version="1.1" id="Layer_1" xmlns="http://www.w3.org/2000/svg" xmlns:xlink="http://www.w3.org/1999/xlink" x="0px" y="0px"
	 viewBox="-55 247 300 300" enable-background="new -105 197 400 400" xml:space="preserve">
 <style>
 	path {
 		fill: #6db6aa;
 	}
 </style>
<path d="M102.2,312.6c-0.3,1.4-0.2,3.2-0.5,4.6h-1c-0.6-0.3-0.4-1.4-0.5-2.2c-10.4-7.9-14.2,14.7-1.4,12.8c1.3-0.2,2.4-1.5,3.6-1
	c-0.4,3.5-5.1,3.7-7.9,3.4c-6.6-0.7-11.5-10.4-5.6-16.2C91.4,311.4,98.1,310.3,102.2,312.6"/>
<path d="M111.6,328.8c0.8,1.5,3.3,2.8,5.6,1.9c3.9-1.6,7.4-16.5-1.7-14.2C112.2,317.4,109.6,325.1,111.6,328.8 M114.7,314.3
	c5.7-0.7,10.7,2.7,10.9,7.9c0.2,4.9-3.1,10.4-8,10.9c-4.8,0.5-10.7-2.5-10.8-8.2C106.7,319.6,109.6,314.9,114.7,314.3"/>
<path d="M137.8,337.2c3.9-2.2,7.6-4.5,11.3-6.8c1.8,1,3.1,2.4,5,3.2c-0.3,0.5-0.6,0.8-0.9,1.4c-0.8,0-0.8-0.8-1.7-0.7
	c-3.1,3.6-5.8,7.4-8.2,11.6c0.2,0.7,1.1,0.7,1.2,1.5c-0.3,0.2-0.6,0.6-0.7,1c-2.4-1.3-4.3-3.2-6.7-4.4c0.2-0.6,0.7-0.8,0.9-1.4
	c0.6,0.2,1,0.6,1.5,0.9c2.6-2.5,4.3-5.9,6.5-8.7c-4,1.8-8.2,4.9-12.3,7.2c-0.1-0.4-0.5-0.5-0.9-0.7c1.2-4.5,1.9-9.4,2.9-14
	c-2.2,2.8-4.2,5.8-6.2,8.9c0.1,0.7,0.8,0.9,1.2,1.4c0,0.6-0.6,0.7-0.7,1.4c-1.9-1-3.3-2.4-5.1-3.4c0.3-0.5,0.6-0.8,0.9-1.4
	c0.6,0.3,1.1,0.6,1.7,0.9c3-3.6,5.8-7.5,8.2-11.6c-0.1-0.8-1-0.7-1.2-1.4c0-0.6,0.6-0.7,0.7-1.4c1.8,1.1,3.4,2.4,5.1,3.6
	C139.5,328.6,138.6,332.9,137.8,337.2"/>
<path d="M155.4,350c-1.7,1.4-3.6,2.7-5.3,4.1C151.9,359.4,160.4,353,155.4,350 M161.5,345.8c-1.8,0.7-3,2-4.4,3.1
	C158.7,352.9,165.3,348.8,161.5,345.8 M159.3,352.8c1.7,2.5-0.5,5.8-2.6,6.5c-6.1,1.9-9.1-5.5-11.3-8c0.6-0.5,1.1-0.5,1.9-0.2
	c4.1-2.7,7.9-5.6,11.5-8.7c0-0.8-0.4-1.2-0.9-1.5c0.2-0.6,1-0.6,1.2-1.2c0.8,2.4,6.3,6.1,6.8,9.7c0.5,3.3-3.7,5.6-6.5,3.4H159.3z"/>
<path d="M133,362.5v12.8h-30.6c-0.1-3,0.4-5.4,1-7.7c-3,1.4-5.7,4.6-7.5,7.7H83V361C99.2,359,116.1,361.9,133,362.5"/>
<path d="M73.6,415.5c0.5,5.6,2.5,11.3,6.7,13.9v11.3c-1,0.3-1.9-1.1-2.9-1.9c-10.4-8.1-19.3-21.5-19.3-39.5c0-6.7-0.1-13.9,0-21.2
	h22.2v45.2C77.1,421.7,75.3,418.6,73.6,415.5"/>
<path d="M83.2,378.1h11.6c-3.8,14.2,8.4,23.4,9.4,36.4c0.6,7.5-2.9,12.7-7,17.1c6.8-4.1,14.1-9.3,13.3-20.4
	c-0.8-11.8-7.6-21.4-8.2-33.2H133c-0.1,9.7,0.4,18.6-0.5,26.5c-2.7,23.5-18.2,36.2-37.1,44c-4.4-1.7-8.7-3.4-12.3-5.8v-12.1
	c8.4,1.5,14.4-3.4,15.4-9.6c1.7-11.1-9.3-16.4-8.4-27.2c-1.2,3.3-1.8,7.5-1.5,12.1c0.4,7.8,4.5,18.1-5.5,18.1v-45.5
	C83,378.4,83,378.1,83.2,378.1"/>
<path d="M15.3,388.5c1.1,0.3,0.4,1.5,0.3,2.2c-0.1,2.6,0.1,5.9,0,8.6c0.3,0.5,1.3,0.3,2.1,0.3v1.4c-2.4-0.3-4.7-0.1-7.2,0v-1.4
	c0.9,0.1,1.3-0.2,2.1-0.2c0.4-2.5,0.1-5.6,0.2-8.4c-1.1,0.1-1.6,0.8-2.6,1c-0.4-0.3-0.3-1.2-0.5-1.7
	C11.5,389.8,13.4,389.1,15.3,388.5"/>
<path d="M179,388.5c1.1,1,0.4,2.9,0.3,4.4c-0.1,2.2,0,4.6,0.2,6.5c0.5,0.3,1.6,0,2.1,0.3v1.2c-2.5-0.3-4.8-0.1-7.4,0v-1.4
	c0.9,0.1,1.6-0.1,2.2-0.3v-8.2c-1,0.2-1.6,0.8-2.6,1c-0.3-0.5-0.4-1.1-0.3-1.9C175.5,389.9,177.1,389.1,179,388.5"/>
<path d="M22.8,399.8c2.7-0.2,0.9-4.8-1.2-3.9C19.7,396.7,21.1,400,22.8,399.8 M21.3,391.4c-0.1,1.2,1.2,1.5,2.4,1.9
	C26,390.9,21.5,388.8,21.3,391.4 M20.3,395c-6.1-5.1,7-9.7,6-2.9c-0.3,1.6-1.7,1.2-0.3,2.6c0.3,0.3,0.6,0.7,0.7,0.9
	c2.7,7.1-10.2,7.5-7.9,1C19,395.9,19.4,395.7,20.3,395"/>
<path d="M168.6,394.7c2.5,0.2,1.3-5.4-0.7-4.3C166.7,391.1,167,394.6,168.6,394.7 M165.1,400.2c2.5-0.3,4.3-1.4,4.6-3.9
	c-1.5,1-4.6,0.5-5.1-1.5c-1-3.9,2.1-7.1,5.6-5.8c1.6,0.6,2.5,2.7,2.6,4.8c0.1,5.1-2.7,7.1-6.8,7.7C165.8,400.8,165,401,165.1,400.2"
	/>
<path d="M33.9,428.5c-0.5,0-0.8,0.4-1.2,0.5c-0.7-0.1-0.5-1.2-1.2-1.4c-2,0.9-3.8,1.7-6,2.9c-1.5,0.8-4.7,2.2-5.1,3.8
	c-0.7,2.4,1.2,5.2,3.2,5.5c2.1,0.3,4.2-1.4,6.2-2.4c1.9-1,3.9-2.2,5.3-3.1c-0.2-0.7-0.5-1.2-0.7-1.9c0.6-0.1,0.8-0.6,1.5-0.7
	c0.6,2,1.9,3.4,2.6,5.3c-0.3,0.2-0.7,0.3-1,0.5c-0.6,0.5-0.6-0.9-1.2-1c-4.3,0.7-7.6,5.4-12.5,5.5c-4.7,0.1-9.4-7.9-5.5-11.8
	c2.7-2.6,8.2-3.8,11.1-6.2c0.1-0.9-0.5-1.1-0.5-1.9c0.5-0.3,0.8-0.7,1.5-0.7C31.4,424.1,33,426,33.9,428.5"/>
<path d="M172.5,433.7c0.7-0.2,1-0.9,1.2-1.5c0.6,0.1,1,0.5,1.5,0.7c-1.1,2.5-2.6,4.6-3.6,7.2c-0.5-0.2-0.9-0.6-1.5-0.7
	c0.1-0.7,0.6-1,0.7-1.7c-1.3-1.3-3.4-1.8-5-2.9c-3.4,0-6.9-0.1-9.6,0.7c-0.8-0.1-0.4,1.1-1.2,1c-0.2-0.3-0.6-0.4-1-0.5
	c0.3-1.4,0.7-2.7,1-4.1c2.2-1.6,6.1-0.7,9.6-0.9c-1.5-2.6-3.2-4.9-5-7.2c0.5-0.7,0.5-1.9,1.5-2.1
	C164.4,426.3,166.3,432.1,172.5,433.7"/>
<path d="M155.7,440.7c-0.4,0.1-0.5,0.6-0.9,0.9c-0.8-0.3-1.3-0.8-1.9-1.4c-1.2,0.6-1.8,1.9-2.7,2.7c3.4,3.1,6.9,6.3,10.4,9.2
	c0.8-0.2,0.9-1,1.7-1.2c0.4,0.3,0.6,0.6,1,0.9c-0.7,1.1-2.7,3-4.1,4.6c-1,1.1-1.2,1.9-2.4,0.7c0.1-0.8,0.8-1,1-1.7
	c-2-2.5-6.1-5.7-9.1-8.4c-1.4-1.2-1.2-1.3-2.4,0.2c-0.5,0.6-0.9,0.9-1.2,1.4c0.1,1.1,1.3,1.2,1.5,2.2c-0.4,0.2-0.6,0.5-0.9,0.9
	c-1.4-0.8-2.4-1.9-3.6-2.9c3.1-4,6.6-7.5,9.9-11.3C153.6,438.4,154.9,439.3,155.7,440.7"/>
<path d="M43.5,442.6c-0.8,4.9-1.6,9.8-2.2,14.9c2.3-1.8,5-4.6,7.2-7c0-0.9-0.9-0.9-1-1.7c0.4-0.3,0.8-0.6,1-1c1.5,1.3,2.5,3,4.3,4.1
	c-0.1,0.7-0.8,0.8-1,1.4c-0.4-0.4-1-0.7-1.4-1.2c-4.5,3.3-7.9,7.7-12.1,11.3c-0.9-0.3-1-1.3-1.5-1.9c0.7-5.3,1.4-10.6,2.2-15.7
	c-2.6,1.8-5.4,4.9-7.7,7.5c0.1,0.8,1.1,0.8,1,1.7c-1.5,2.4-3.5-2.9-5.3-3.2c0.4-1.5,1.7-1.5,2.4-0.2c3.9-2.9,7-6.5,10.4-9.9
	c0-0.9-1-1-1-1.9c0.3-0.3,0.9-0.4,1-0.9C41.1,440,42.3,441.3,43.5,442.6"/>
<path d="M139.5,450.4c0.5,0.2,0.7,0.8,1,1.2c-0.1,0.7-1,0.7-1.2,1.4c2.6,4.1,5.4,8.1,8.6,11.6c0.5-0.2,0.9-0.6,1.4-0.9
	c0.6,0.2,0.9,0.7,1,1.4c-2.1,1.5-4.3,2.9-6.2,4.6c-0.5-0.4-0.8-0.9-1-1.5c0.4-0.4,1-0.5,1.2-1c-2.5-4.2-5.4-8.1-8.6-11.6
	c-0.6,0.2-0.9,0.7-1.5,0.9c-0.3-0.4-0.5-0.9-0.9-1.2C135.2,453.5,137.6,452.2,139.5,450.4"/>
<path d="M55.7,453.5c2.2,1.4,4.2,3,6.7,4.1c0,0.7-0.7,0.8-0.7,1.5c-0.6-0.1-1-0.5-1.5-0.7c-3.3,3.4-5.4,8-8,12
	c0.4,0.5,1,0.9,1.5,1.2c-0.3,0.4-0.5,0.9-0.9,1.4c-2.4-1.2-4.1-2.9-6.7-3.9c-0.1-0.8,0.6-0.8,0.7-1.5c0.7,0,0.9,0.5,1.5,0.7
	c3.1-3.5,5.4-7.8,7.9-12c-0.1-0.7-0.9-0.8-1.4-1.2C55,454.4,55.5,454.2,55.7,453.5"/>
<path d="M129,458.5c0.5,1.3,1.5,3,1.4,4.4c-0.4,0-0.5,0.3-0.9,0.3c-0.9-0.3-0.8-1.6-1.5-2.1c-3.6-2-6.8,4.6-2.9,5.3
	c2.7,0.5,4.5-1.8,7.2-0.9c2.1,0.7,3.4,3.7,3.1,6.3c-0.4,3.8-4.5,6.5-9.8,6.3c-0.2-1.8-1.5-3.4-1.5-4.8c0.4-0.1,1-0.2,1.2-0.5
	c0.6,0.7,0.8,1.7,1.4,2.4c4.1,2,7.9-3.2,4.3-5.5c-3-0.4-4.2,1.2-6.8,0.7c-2.4-0.5-3.9-3.5-3.8-6C120.5,460.5,125,458.8,129,458.5"/>
<path d="M64.6,459.5c2.6,0.8,5,1.9,7.7,2.6c-0.1,0.6-0.4,1.1-0.5,1.7c-0.5-0.3-1.1-0.4-1.7-0.5c-0.4,3.5,0,7.7,0,11.3
	c2.3-2.2,4.9-5.6,7-8.6c-0.2-0.7-1.2-0.6-1.7-1c0.2-0.5,0.4-1,0.5-1.5c1.9,0.6,3.6,1.4,5.6,1.9c0.1,0.7-0.3,1-0.3,1.5
	c-0.3,0.3-0.9-0.1-1.4-0.2c-4.1,4.1-7.7,8.8-11.5,13.3c-0.8-0.1-1.3-0.5-2.1-0.7c-0.2-5.8-0.2-11.9-0.7-17.4
	c-0.2-0.6-1.1-0.5-1.5-0.9C64.3,460.6,64.6,460.2,64.6,459.5"/>
<path d="M111.9,473.4c2.2,2.3,3.9,5.9,7,6.7c-0.1,0.7,0.2,1,0.2,1.5c-1.6,0.3-3.2,0.4-4.6,0.9c-2.3-2.9-4.8-5.6-7-8.6
	c0.5-0.9,1.3-0.4,1.9-0.9c2.6-1.8,1.1-7.4-3.2-5.6c0.7,4.9,1.5,9.7,2.6,14.2c0.8,0.1,1.1-0.3,1.9-0.2c0,0.6,0.3,1,0.2,1.7
	c-2.8,0.2-5,0.9-7.7,1.2c-0.1-0.5-0.1-1.1-0.3-1.4c0.3-0.5,1.3-0.4,1.9-0.7c-0.6-4.9-1.5-9.5-2.4-14c-0.4-0.3-1.4-0.1-2.1-0.2
	c0.1-0.7-0.3-0.8-0.2-1.5c4,0.4,7.8-2.7,11.8-1.7C115.4,465.7,114.9,471.8,111.9,473.4"/>
<path d="M83.5,465.7c4.2,0.3,8.6,0.5,12.7,0.9c0.2,1.3-0.5,2.9-0.5,4.4c-0.6,0-0.9-0.3-1.5-0.2c0.2-0.5,0.2-1.2,0.2-1.9
	c-1-0.8-3-0.7-4.6-0.9c-0.6,1.4-0.5,3.6-0.7,5.5c0.7,0.7,2.6,0.1,3.6,0.5c0.5-0.3,0.2-1.4,0.5-1.9h1.5c-0.3,1.9-0.4,4-0.5,6.2
	c-0.6,0-0.9-0.3-1.5-0.2v-1.9c-0.8-0.6-2.2-0.5-3.6-0.5c-0.6,1.6-0.3,4.1-0.7,6c1.3,0.4,3.6,0.6,5.1,0.3c0.6-0.5,0.6-1.6,0.9-2.6
	c0.6,0,0.9,0.3,1.5,0.2c-0.2,1.5-0.4,3.1-0.7,4.6c-3.9,0.2-8.3-0.4-12.1-0.9c-0.4-1.4,1.1-1.1,1.4-1.9c0.4-4.5,0.8-9,1-13.7
	c-0.2-0.6-1.1-0.7-1.9-0.7V465.7z"/>
<path d="M55,315.8c-10.3,5-18.7,11.8-26,19.3c-7.6,7.9-13.3,16.5-17.8,27.5c-4.3,10.5-7.4,23.9-6.7,38.3
	c1.3,28.1,12.7,47.5,28.4,62.3c15,14.2,36.6,26,65.7,24.6c27.7-1.3,47.5-12.7,62.4-28.2c7.4-7.6,13.2-16.7,17.8-27.5
	c4.4-10.6,7.7-23.4,7-38.3c-1.3-27.7-13.1-48-28.4-62.3c-14.9-13.9-36.6-26.2-65.8-24.8C77.4,307.4,65.1,311,55,315.8 M90.6,305.7
	c29.1-1.4,52.6,10.1,67.2,24.5c14.9,14.6,27.7,34.5,29.1,62.6c0.7,14.9-2.3,28.3-6.7,39.2c-4.4,10.9-10.5,20.3-18,27.9
	c-15.1,15.4-34,27.7-62.6,29.1c-29,1.4-52.3-10.2-67-24.3C16.9,449.6,5,430.3,3.5,402c-1.6-29.6,10-52.3,24.3-67
	c11-11.4,24.4-21.2,42.6-26.2C76.5,307.1,84,306.1,90.6,305.7"/>
<path d="M77.9,314.1c0.4,1.4,0.6,2.9,0.9,4.4c-0.4,0.1-0.9,0.1-1.2,0.3c-0.6-0.5-0.7-1.4-0.9-2.2c-1.5-1-5-0.4-5.5,1.5
	c-1.2,5.3,6.8,1.9,9.2,3.8c2.8,2.2,1.9,7.3-0.2,9.2c-2.2,2.1-5.5,2.3-9.1,1.9c-0.1-1.8-0.6-3.3-0.9-5c0.5,0,0.9-0.1,1.2-0.3
	c0.8,0.8,0.5,1.9,1.2,2.6c1.6,1.5,5.5,0.5,6.2-1.2c0.6-1.7-0.6-3.4-1.2-3.6c-2.2-0.8-4.6,0.2-6.3-0.2c-4-0.9-3.8-7-2.2-8.9
	C70.7,314.6,73.5,313.8,77.9,314.1"/>
<path d="M57.7,329.7c4.8-1.1,0.1-9.2-3.1-5.1c2.1,4.3,4.4,8.4,6.8,12.3c0.8-0.1,1.2-0.7,2.1-0.9c0,0.7,0.7,0.8,0.7,1.5
	c-2.4,1.2-4.9,2.4-7,3.9c-0.5-0.3-0.5-1.1-1-1.4c0.4-0.5,1.2-0.6,1.5-1.2c-2.1-4.4-4.3-8.7-7-12.5c-0.8-0.1-0.9,0.6-1.7,0.5
	c-0.3-0.4-0.3-0.9-0.7-1.2c1.7-1.2,3.4-1.9,5.1-2.9c1.5-0.9,3.4-2.6,5.5-2.6c4.4,0,5.3,6.4,2.7,9.1
	C60.7,330.3,58.2,331.9,57.7,329.7"/>
<path d="M44.9,330c-0.1,0.8-0.9,0.9-1.2,1.5c2.8,3.9,5.9,7.5,9.1,10.9c0.8,0,1-0.6,1.5-0.9c0.6,0.2,0.9,0.8,1.2,1.4
	c-0.9,0.3-1.8,1.3-3.1,2.4c-0.7,0.6-2.7,2.6-2.9,2.6c-1.1,0-1.4-2,0-2.6c-2.7-4.1-6-7.5-9.1-11.1c-0.7,0.2-1,0.8-1.7,1
	c-0.4-0.4-0.5-0.9-1-1.2c2-1.7,4.2-3.2,6-5.1C44.5,329,44.3,329.9,44.9,330"/>
<path d="M31.2,343.4c-0.3,0.6-0.7,1-1,1.5c3.4,3.2,7.1,6,10.8,8.9c1.4-1.1,2.3-2.6,3.2-4.1c-0.4-1-1.3-1.4-1.7-2.4
	c0.5-0.2,0.6-0.7,0.9-1c1.3,1,2.3,2.4,3.6,3.4c-2,3.7-5.3,6.1-7.4,9.7c-0.9-0.2-1.1-0.9-0.9-1.9c-3.2-3.5-7.3-6.2-10.9-9.2
	c-1.1,0.2-1,1.7-2.1,0.9c-0.4-0.4-0.8,0.2-0.9-0.5c-0.1-1.1,4.9-4.8,4.8-6.2C30.5,342.5,30.5,343.3,31.2,343.4"/>
<path d="M114.3,358.4c-7.1-0.5-14.4-1.5-21.7-1.2c-12.3,0.6-24.9,2.1-37.5,2.6c0.2,10.6,0.2,22.1,0.2,32.8c0,11.2,1.2,20.4,4.8,28.4
	c5.9,13.1,15.9,22.7,29.2,28.7c1.6,0.7,4.7,2.3,6.2,2.2c1.4,0,4.3-1.6,5.8-2.4c13-6.4,23.8-15.8,29.6-28.6
	c3.7-8.1,4.8-16.7,4.8-28.4c0-10.8,0.5-22.2,0-32.8C128.6,359.1,121.5,358.9,114.3,358.4 M137.4,358.2v34.4
	c0,11.5-1.3,21.1-5.1,29.2c-7.4,15.8-20.2,25.3-36.8,32c-17.4-6-29.6-16-36.8-32.2c-3.7-8.3-5.1-17.7-5.1-29.1v-34.4
	c13.4-0.5,26.6-2.1,40.2-2.7c0.1,0,0.1,0,0.2,0C108.3,355.5,123.1,357.8,137.4,358.2"/>
<path d="M80.3,361.2v14.2c-7.4-0.1-15.3,0.2-22.4-0.2v-12.5C65.2,362,72.8,361.6,80.3,361.2"/>
<path d="M95.9,335.1c-34.2,0-62,27.8-62,62c0,34.2,27.8,62,62,62c34.2,0,62-27.8,62-62C157.9,362.9,130.1,335.1,95.9,335.1
	 M95.9,461.2c-35.4,0-64.1-28.8-64.1-64.1c0-35.4,28.8-64.1,64.1-64.1c35.4,0,64.1,28.8,64.1,64.1C160,432.4,131.3,461.2,95.9,461.2
	"/>
<path d="M95.2,306.3c-50,0-90.7,40.7-90.7,90.7c0,50,40.7,90.7,90.7,90.7c50,0,90.7-40.7,90.7-90.7
	C185.9,347,145.2,306.3,95.2,306.3 M95.2,489.9c-51.2,0-92.9-41.7-92.9-92.9c0-51.2,41.7-92.9,92.9-92.9c51.2,0,92.9,41.7,92.9,92.9
	C188,448.3,146.4,489.9,95.2,489.9"/>
</svg>
