<?xml version="1.0" encoding="utf-8"?>
<!-- Generator: Adobe Illustrator 19.0.1, SVG Export Plug-In . SVG Version: 6.00 Build 0)  -->
<!DOCTYPE svg PUBLIC "-//W3C//DTD SVG 1.1//EN" "http://www.w3.org/Graphics/SVG/1.1/DTD/svg11.dtd">
<svg version="1.1" id="Layer_1" xmlns="http://www.w3.org/2000/svg" xmlns:xlink="http://www.w3.org/1999/xlink" x="0px" y="0px"
	 viewBox="50 50 300 300" enable-background="new 0 0 400 400" xml:space="preserve">
<style>
  g {
    fill: #6db6aa;
  }
</style>
<g>
	<g>
		<polygon points="132.1,274.5 136.7,274.5 134.4,292.9 129.8,292.9 		"/>
		<polygon points="139.4,278.6 139.9,274.4 157.7,274.5 157.4,278.7 150.5,278.7 148.8,293 144.3,293 145.9,278.7 		"/>
		<polygon points="178.5,278.6 179.1,274.4 160.6,274.4 158.2,292.9 176.6,292.9 177.2,288.8 163.1,288.8 163.6,285.9 173.7,285.8
			174.4,281.6 164,281.4 164.4,278.7 178.3,278.7 		"/>
		<path d="M195.5,288.9H185l0.2-1.6h-3.7c0,0-0.6-0.2-0.8,0.4l-0.4,2.7c0,0-0.5,2.4,2,2.6l15.1,0.1c0,0,1.8-0.3,2.1-2.1l0.8-6.5
			c0,0,0.4-2.3-1.7-2.7c0,0-0.1,0-0.1,0c-2.3-0.3-12.6,0-12.6,0l0.3-3.3h10.4l0,1.9h3.5c0,0,1.1,0,1-1l0.3-2.7c0,0-0.2-2-2.3-2.2
			h-14.4c0,0-2.2,0-2.8,2.5l-0.7,6.6c0,0,0,2.1,2.1,2.3c0,0,0.1,0,0.1,0c2.2,0,12.4,0.1,12.4,0.1L195.5,288.9z"/>
		<path d="M207.7,293h-4.5l2.2-18.6h16.5c0,0,2.6-0.1,2.7,1.5l-0.8,7.4c0,0-0.6,2-1.9,2.3l-13.3,0.2L207.7,293z M209.2,281.9l10.3,0
			l0.4-3.4h-10.5l-0.3,3.3"/>
		<polygon points="244.5,293 245.1,288.9 231.1,288.8 231.3,286 241.8,285.8 242.3,281.7 232.1,281.6 232.4,278.8 246.5,278.6
			246.9,274.3 228.5,274.2 226,292.9 		"/>
		<polygon points="266.8,293 267.4,288.9 253.4,288.8 253.6,286 264,285.8 264.6,281.7 254.4,281.6 254.7,278.8 268.7,278.6
			269.1,274.3 250.8,274.2 248.2,292.9 		"/>
		<path d="M270.1,292.8l2.4-18.5l11.9,0.2c0,0,5.4,0,6.1,5.4L290,287c0,0-1.3,5.7-6,6L270.1,292.8z M282.3,288.7
			c3.2-0.7,3.1-3.4,3.1-3.4l0.2-3.7c0.2-3.1-3.3-2.7-3.3-2.7l-5.9-0.2l-1.1,9.8L282.3,288.7z"/>
		<path d="M126.6,293.1l0.4-4.3h-12.6l1.8-14.4l-4.7,0.1l-1.9,15.4c0,0-0.7,2.8,2.5,3L126.6,293.1z"/>
	</g>
</g>
<g>
	<g>
		<path d="M266.5,195.2c-2-1.9-4.6-2.7-7.7-2.7h-40.6v0l-10.4,0l-52.9,0l0,0h-4.5l9.6-76.7h-24.1c0,0-10.3,82.4-10.7,85.4
			c-0.3,2.6-1.5,13.1,10.9,13.1c11.5,0,11.9,0,21.4,0h58.1v0H245l-2.4,18.2h-58.5l1.4-9.6c0,0-18.7,0-21.2,0c-2.5,0-2.9,1.7-3.1,3.2
			c-0.2,1.5-2.2,16.2-2.2,16.2c-0.1,0.9-0.1,1.8-0.1,2.6c0.2,2.7,1.4,4.9,3.4,6.7c2,1.8,4.5,2.7,7.5,2.7h81.3c3.6,0,6.7-1.1,9.4-3.4
			c2.7-2.3,4.3-5.1,4.7-8.5l4.7-37.7c0.1-0.8,0.2-1.6,0.1-2.5C269.7,199.3,268.6,197,266.5,195.2"/>
	</g>
	<g>
		<path d="M275,161.9c-0.3-2.8-1.4-5-3.4-6.8c-2-1.8-4.6-2.7-7.7-2.7h-81.3c-3.5,0-6.5,1.1-9.3,3.4c-2.7,2.3-4.3,5.1-4.7,8.5
			l-2.4,18.8H190l1.2-9h58.6l-1,7h21.3c2,0,2.9-1.1,3.1-2.3c0.2-1.2,1.7-14.4,1.7-14.4C275.1,163.5,275.1,162.7,275,161.9"/>
	</g>
</g>
</svg>
