<?xml version="1.0" encoding="utf-8"?>
<!-- Generator: Adobe Illustrator 19.0.1, SVG Export Plug-In . SVG Version: 6.00 Build 0)  -->
<!DOCTYPE svg PUBLIC "-//W3C//DTD SVG 1.1//EN" "http://www.w3.org/Graphics/SVG/1.1/DTD/svg11.dtd">
<svg version="1.1" id="Layer_1" xmlns="http://www.w3.org/2000/svg" xmlns:xlink="http://www.w3.org/1999/xlink" x="0px" y="0px"
	 viewBox="50 50 300 300" enable-background="new 0 0 400 400" xml:space="preserve">
<style>
  g {
    fill: #6db6aa;
  }
</style>
<g>
	<path d="M200,227.8c-36.7,0-73.3,0-110,0c-2.4,0-4.7-0.6-6.7-1.9c-1.4-0.9-2.6-2.2-3.4-3.7c-0.7-1.4-1.4-2.8-1.6-4.3
		c-0.1-0.6-0.2-1.3-0.2-1.9c0-10.6-0.1-21.2,0-31.9c0-2.9,1-5.6,2.9-7.9c1.8-2.1,4.2-3.3,6.9-3.8c1.2-0.2,2.4-0.3,3.6-0.3
		c72.5,0,145.1,0,217.6,0c3.5,0,6.6,1,9.2,3.3c1.6,1.4,2.6,3.2,3.1,5.2c0.4,1.6,0.6,3.3,0.6,5c0,10.1,0,20.2,0,30.4
		c0,2.8-0.9,5.4-2.8,7.6c-1.5,1.8-3.4,2.9-5.6,3.6c-1.2,0.4-2.5,0.5-3.7,0.5C273.2,227.8,236.6,227.8,200,227.8z M200.3,221.3
		c36.8,0,73.5,0,110.3,0c0.7,0,1.4-0.2,2.1-0.5c2-0.9,2.9-2.7,2.9-4.8c0-10.4,0-20.8,0-31.2c0-0.7,0-1.3-0.1-2
		c-0.3-1.6-1-2.9-2.6-3.6c-1.1-0.5-2.2-0.7-3.3-0.7c-62.4,0-124.7,0-187.1,0c-10.5,0-21,0-31.5,0c-0.8,0-1.7,0.2-2.5,0.4
		c-2.2,0.6-3.4,3.1-3.4,5c0,10.4,0,20.8,0,31.2c0,0.6,0,1.2,0.1,1.8c0.3,2.2,2.3,4.2,4.9,4.2C126.8,221.3,163.5,221.3,200.3,221.3z"
		/>
	<path d="M109.7,202.8c1.4-5.3,2.8-10.6,4.2-15.8c0.3-1.1,1.1-1.9,2.1-2.6c1.3-0.9,2.6-1.3,4.2-1.3c1.5,0,3-0.1,4.4,0.7
		c1.1,0.6,2.1,1.4,2.5,2.7c0.1,0.2,0.1,0.4,0.1,0.5c0,9.5,0,18.9,0,28.4c0,0.1,0,0.3,0,0.4c-2.8,0-5.5,0-8.3,0c0-6.4,0-12.7,0-19.1
		c0,0-0.1,0-0.1,0c-0.5,2-1.1,4-1.6,6c-1,3.6-1.9,7.2-2.9,10.7c-0.5,1.8-1.8,2.5-3.7,2.6c-1.2,0.1-2.3,0-3.4-0.5
		c-1.3-0.6-1.7-1.9-2.1-3.2c-0.7-2.6-1.5-5.2-2.3-7.9c-0.7-2.6-1.5-5.1-2.3-7.7c0,6.4,0,12.7,0,19.1c-2.8,0-5.5,0-8.3,0
		c0-0.3,0-0.5,0-0.8c0-9.1,0-18.2,0-27.3c0-1.2,0.6-2,1.3-2.7c1.4-1.2,3.1-2,5.1-1.8c1.3,0.1,2.6,0,3.8,0.4c1.9,0.7,3.2,2,3.6,4.1
		c0.7,3.2,1.5,6.3,2.3,9.5c0.4,1.7,0.8,3.4,1.2,5C109.5,202.4,109.6,202.5,109.7,202.8z"/>
	<path d="M275,184.1c0,2.7,0,5.4,0,8.2c-0.3,0-0.5,0-0.8,0c-3.3,0-6.6,0-10,0c-0.3,0-0.5,0-0.8,0.1c-1,0.2-1.4,0.8-1.4,1.8
		c0,3.8,0,7.6,0,11.4c0,0.8,0.5,1.6,1.7,1.6c3.5-0.1,7,0,10.5,0c0.3,0,0.5,0,0.8,0c0,2.9,0,5.8,0,8.8c-0.3,0-0.5,0-0.8,0
		c-4.9,0-9.7,0-14.6,0c-2,0-3.6-0.9-4.8-2.5c-1.4-1.8-1.9-3.7-1.9-6c0.1-5.3,0-10.5,0-15.8c0-2.1,0.5-4,2-5.6
		c1.1-1.2,2.5-2.1,4.2-2.1C264.4,184.1,269.7,184.1,275,184.1z"/>
	<path d="M179.1,208.4c0,2.6,0,5,0,7.5c-0.3,0-0.5,0-0.7,0c-5.2,0-10.5,0.1-15.7,0c-2.3-0.1-4.2-1.1-5.4-3.2
		c-0.6-1.2-0.9-2.4-0.9-3.8c0.1-3.6,0-7.2,0-10.9c0-3,2.4-5.6,5.3-6c3.6-0.6,7.2-0.2,10.7-0.3c1.6,0,3.2,0.3,4.5,1.4
		c1.1,0.9,1.9,2,2,3.4c0.1,3.1,0,6.3,0,9.5c-4.4,0-8.8,0-13.3,0c0-1.6,0-3.2,0-4.9c2,0,4.1,0,6.3,0c-0.1-0.8-0.1-1.6-0.2-2.3
		c-0.1-0.6-0.7-1-1.3-1c-1.6-0.1-3.2-0.1-4.8,0.1c-0.9,0.1-1.5,0.9-1.5,1.9c0,2.3,0,4.6,0,7c0,0.9,0.6,1.9,1.9,1.9
		c4.1,0,8.2,0,12.3,0C178.6,208.4,178.8,208.4,179.1,208.4z"/>
	<path d="M225.1,215.9c-5.1,0-10.1-0.1-15.1,0c-1.9,0-3.7-0.3-5.2-1.5c-1-0.7-1.7-1.8-2-3.1c-0.2-0.8-0.3-1.7-0.3-2.5
		c0-3.7,0-7.4,0-11.1c0-2.3,1.1-4,3.2-5.2c1.4-0.8,2.9-1,4.4-1c2.6-0.1,5.2,0,7.8,0c1.9,0,3.7,0.2,5.2,1.4c0.4,0.3,0.8,0.8,1,1.2
		c0.7,1.2,1,2.4,1,3.8c0,2.6,0,5.2,0,7.9c-4.4,0-8.9,0-13.3,0c0-1.6,0-3.2,0-4.9c2,0,4,0,6.1,0c-0.2-1,0.4-2-0.5-2.8
		c-0.4-0.3-0.9-0.6-1.4-0.6c-1.2-0.1-2.4,0-3.6,0c-1.5,0-2.3,0.8-2.3,2.3c0,2.1,0,4.2,0,6.3c0,1,1,2.2,2.2,2.2c4-0.1,8,0,12,0
		c0.3,0,0.5,0,0.8,0C225.1,210.9,225.1,213.4,225.1,215.9z"/>
	<path d="M146,191.6c2.6,0,5.1,0,7.6,0c0.1,0,0.2,0,0.3,0c0,0.3,0,0.5,0,0.7c0,5.9,0,11.9,0,17.8c0,2.2-1.1,3.8-3,4.9
		c-1.1,0.6-2.3,0.8-3.5,0.8c-3.6,0-7.2-0.1-10.7,0c-1.7,0-3.2-0.4-4.5-1.4c-1.5-1.2-2.5-2.8-2.6-4.8c0-5.7,0-11.5,0-17.2
		c0-0.3,0-0.5,0-0.8c2.9,0,5.7,0,8.5,0c0,0.3,0,0.5,0,0.8c0,4.9,0,9.7,0,14.6c0,1.1,1,2,2,2c0.9,0,1.9-0.1,2.8,0
		c2,0.2,2.9-1.4,2.9-3c0-4.5,0-9.1,0-13.6C146,192.2,146,192,146,191.6z"/>
	<path d="M287.9,215.9c-1.9,0-3.9,0-5.8,0c-1.7,0-3-0.9-4-2.1c-1.2-1.3-1.5-2.9-1.5-4.6c0-3.5-0.1-7.1,0-10.6c0-1.1,0.3-2.2,0.8-3.1
		c1.1-1.7,2.5-3,4.7-3c3.4,0,6.8-0.1,10.2-0.1c1.3,0,2.7,0.1,3.9,0.9c1.5,1.1,2.9,2.3,2.9,4.3c0.1,4.2,0.2,8.4,0.1,12.6
		c0,3-1.9,4.9-4.7,5.7c-0.2,0.1-0.4,0-0.6,0C291.9,215.9,289.9,215.9,287.9,215.9z M292.3,201.6c0-1.2-0.7-2.1-2.4-2.1
		c-1.4,0-1.8,0-3.2,0c-1.5,0-2.2,0.9-2.2,2.1c0,1.6,0,3.1,0,4.8c0.1,1.1,0.5,1.9,1.9,1.9c2.1,0,2.7,0,4.1,0c1.1,0,1.6-0.2,1.8-1.3
		C292.3,205.9,292.3,202.4,292.3,201.6z"/>
	<path d="M192.2,183.7c2.6,0,5.2,0,7.9,0c0,10.8,0,21.5,0,32.3c-2.6,0-5.2,0-7.9,0C192.2,205.3,192.2,194.5,192.2,183.7z"/>
	<path d="M189.6,216c-2.6,0-5.2,0-7.7,0c0-10.8,0-21.5,0-32.3c2.6,0,5.1,0,7.7,0C189.6,194.5,189.6,205.2,189.6,216z"/>
	<path d="M240.4,191.5c0,2.6,0,5.1,0,7.7c-0.8,0-1.6,0-2.4,0c-1.4-0.1-1.8,0.3-1.8,1.8c-0.1,2.2,0,4.3,0,6.5c0,2.8,0,5.5,0,8.3
		c-2.9,0-5.8,0-8.8,0c0-0.2,0-0.5,0-0.7c0-6.1,0-12.1,0-18.2c0-1.5,0.8-2.8,2-3.8c1.5-1.2,3.2-1.6,5-1.6
		C236.4,191.5,238.4,191.5,240.4,191.5z"/>
	<path d="M302.4,215.7c0-2.7,0-5.4,0-8.1c2.6,0,5.1,0,7.7,0c0,2.7,0,5.4,0,8.1C307.5,215.7,305,215.7,302.4,215.7z"/>
</g>
</svg>
