<?xml version="1.0" encoding="utf-8"?>
<!-- Generator: Adobe Illustrator 19.0.1, SVG Export Plug-In . SVG Version: 6.00 Build 0)  -->
<!DOCTYPE svg PUBLIC "-//W3C//DTD SVG 1.1//EN" "http://www.w3.org/Graphics/SVG/1.1/DTD/svg11.dtd">
<svg version="1.1" id="Layer_1" xmlns="http://www.w3.org/2000/svg" xmlns:xlink="http://www.w3.org/1999/xlink" x="0px" y="0px"
	 viewBox="50 50 300 300" enable-background="new 0 0 400 400" xml:space="preserve">
<style>
  g {
    fill: #6db6aa;
  }
</style>
<g>
	<g>
		<path fill-rule="evenodd" clip-rule="evenodd" d="M88.6,190.8c2.5-0.1,4.3-1.4,6-2.8c0.9-0.8,1-1.2,0.2-2.1
			c-1-1.2-2.1-2.4-3.3-3.4c-1.2-1.1-2.5-2.1-3.8-3.2c0.8,0,1.6,0.1,2.5,0.1c-1.3-1.6-2.6-3.1-3.3-5c1.1,0.7,2.3,1.4,3.4,2.1
			c0.3,0.2,0.6,0.4,0.9,0.5c0.5,0.2,0.7,0,0.6-0.5c-0.1-0.5-0.2-1-0.4-1.5c0-0.1-0.1-0.3-0.1-0.6c1.5,0.5,3,0.9,4.4,1.4
			c2.4,0.7,4.6,2,6.8,3.2c1,0.6,2.2,1,3.3,1.4c0.4,0.1,0.9,0,1.3-0.2c1.2-0.8,2.1-1.8,2.6-3.2c0.5-1.4,0.1-2.6-0.8-3.7
			c-1.6-2-3.5-3.6-5.8-4.7c-2.9-1.4-5.9-2.7-9-3.9c-1.6-0.7-2.6-1.7-3.2-3.5c0.3,0.2,0.4,0.3,0.6,0.4c0.9,0.4,1.7,0.9,2.6,1.2
			c0.7,0.3,1.2-0.1,1.5-0.8c0.6-1.6,0.2-3.1-0.6-4.4c-0.7-1.1-1.3-2.1-2-3.3c1.4,0.5,2.9,0.6,3.9,2.1c0.5-1.4,0.1-2.5-0.2-3.8
			c1,0.9,2,1.7,2.9,2.5c1.1,1,2.1,2,3.2,3c0.5,0.4,1,0.8,1.5,1.1c0.3,0.1,0.7,0.1,1-0.1c0.5-0.2,1-0.6,1.5-0.9
			c0.8-0.5,1.1-1.2,0.8-2.1c-0.1-0.5-0.3-0.9-0.5-1.4c-1.1-2.4-1.8-5-2.3-7.6c0-0.1,0-0.3,0-0.5c0.6,0.4,1.2,0.8,1.9,1.3
			c-0.2-1.6-0.5-3.1-0.7-4.7c1.7,0.5,2.6,2,3.8,3.1c0.3-0.5,0.5-0.9,0.8-1.4c0.1,0.1,0.3,0.2,0.4,0.3c1,1.2,2,2.4,2.6,3.9
			c0.4,0.9,1,1.7,1.9,2.2c0.3,0.2,0.7,0.3,0.9,0.2c0.2-0.1,0.3-0.6,0.3-0.8c0-0.8-0.1-1.7-0.2-2.5c0.3,0.2,0.6,0.5,0.9,0.7
			c0.6,0.5,1,0.4,1.2-0.3c0.2-0.6,0.2-1.3,0.1-2c-0.1-1.3-0.3-2.7-0.4-4c0.1,0,0.1,0,0.2-0.1c1.2,1.8,2.5,3.5,3.7,5.3
			c0.1,0,0.1,0,0.2,0c0.1-0.7,0.2-1.3,0.3-2.1c0.7,0.8,0.9,1.7,1,2.6c0.1,1.4-0.3,2.8-0.6,4.2c-0.5,2.7-0.9,5.3-1.4,8
			c-0.3,1.5-0.7,2.9-0.4,4.5c0.2,1,0.4,2,0.8,2.9c0.5,1.2,1.3,1.3,2.3,0.4c1.9-1.6,3-3.7,4-5.9c0.8-1.8,1.8-3.4,3.2-4.8
			c0.6-0.6,1.3-1.1,2-1.6c-0.3,0.9-0.6,1.8-1,2.8c3.2-2.3,6.1-4.6,9.5-6.2c-0.5,0.6-1.1,1.2-1.5,1.9c-0.9,1.1-1.1,2.4-0.8,3.8
			c0.1,0.3,0.2,0.6,0.5,0.7c0.2,0.1,0.5-0.2,0.7-0.4c0.6-0.8,1.4-1.5,2.5-2c-0.2,0.4-0.3,0.7-0.4,1c-1,2.6-2.4,5-4.5,6.8
			c-0.6,0.5-1.1,1.2-1.6,1.9c-0.5,0.8-0.4,1.4,0.3,2c0.3,0.3,0.7,0.6,1.1,0.9c1.2,1,2.4,1.4,4,0.9c0.7-0.2,1.5-0.3,2.4-0.5
			c-0.4,0.5-0.8,0.9-1.1,1.2c0,0,0,0.1,0.1,0.1c0.9-0.2,1.9-0.3,2.8-0.5c0,0,0,0.1,0.1,0.1c-1.5,1.3-3,2.7-4.6,4.1
			c0.8,0.5,1.6,0.9,2.3,1.3c0,0,0,0.1,0,0.1c-0.4,0-0.9,0-1.3,0.1c-1.3,0.1-2.6,0.2-4,0.4c-1.7,0.3-3.1,1.2-4.4,2.2
			c-1.2,0.9-2.4,1.8-3.7,2.8c-1.3,1-2,2.3-2.6,3.7c-0.5,1.4-0.9,2.8-1.3,4.2c-0.1,0.4-0.1,0.8,0,1.2c0.2,1,0.8,1.4,1.7,0.9
			c0.7-0.3,1.4-0.7,2-1.2c3.1-2.3,5.8-5.1,8.3-8.1c0.1-0.2,0.3-0.3,0.5-0.4c0,0.2-0.1,0.5-0.1,0.7c0,0.3,0,0.7,0,1
			c0.1,0.7,0.5,1,1.2,0.7c1.3-0.6,2.5-1.2,3.8-1.8c0.6-0.3,1.2-0.7,1.9-1.1c-0.1,0.3-0.1,0.5-0.2,0.7c-0.8,1.4-1.6,2.8-2.4,4.2
			c-0.8,1.4-1.7,2.8-2.5,4.2c-0.1,0.2-0.2,0.5-0.2,0.8c1.7-1,3.5-1,5.4-1.1c-0.1,0.1-0.3,0.3-0.4,0.4c-2.5,1.8-5.1,3.6-7.6,5.4
			c-1.5,1.1-2.8,2.3-4.2,3.5c-1.3,1.1-1.3,2.2-0.1,3.9c1,1.3,2.5,1.6,3.8,0.8c0.5-0.3,1-0.7,1.5-1.2c1.5-1.3,3-2.6,4.4-4.1
			c0.7-0.7,1.3-1.7,1.8-2.5c0.7-1.1,1.6-2.1,2.7-3.1c0.1,1.1,0.2,2,0.3,3.1c1.5-0.2,3-0.4,4.6-0.7c-0.1,0.2-0.1,0.4-0.2,0.5
			c-0.8,1.7-1.5,3.4-2.3,5.1c-0.3,0.7-0.1,1.1,0.6,1.2c0.7,0.1,1.4,0,2-0.1c0.4,0,0.8,0,1.2,0.1c-0.2,0.2-0.3,0.3-0.5,0.5
			c-2.3,2.1-5,3.2-8,3.8c-3.9,0.8-7.8,2-11.3,4c-1.7,0.9-3.4,2-4.6,3.6c-1.3,1.7-1.7,3.5-0.8,5.5c1.8,4.3,4.3,8,8.4,10.5
			c1.7,1.1,3.6,1.7,5.7,1.8c0.2,0,0.5,0.1,0.7,0.2c0.3,0.1,0.5,0.3,0.4,0.6c0,0.1,0,0.3,0,0.4c0.1,1.1-0.3,1.3-1.3,1
			c-3.3-1-6.4-2.4-8.8-4.9c-2.6-2.7-4.5-5.9-6.1-9.3c-1-2-2.3-3.8-3.8-5.4c-0.9-1-2-1.7-3.2-2.1c-1.7-0.7-3.5-1.4-5.2-2.1
			c-1.9-0.8-3.8-1-5.8-1.1c-2.9,0-5.7,0-8.4,0c0.8-0.3,1.7-0.6,2.6-0.9c0-0.1,0-0.1,0-0.2c-2.2-1.1-4.4-2.2-6.5-3.3
			c0-0.1,0-0.1,0-0.2c1-0.2,2.1-0.5,3.1-0.7c1-0.2,2.1-0.3,3.2-0.5c0-0.8,0-1.6,0-2.5c0.6,0.3,1.2,0.6,1.8,0.7
			c2.6,0.7,5.2,1.4,7.9,2.1c0.6,0.1,1.3,0,1.8-0.3c1.3-0.6,2.2-1.7,2.7-3c0.4-0.9,0.2-1.8-0.5-2.5c-2.1-2.3-4.7-3.7-7.8-3.7
			c-3.5,0-7,0.2-10.5,0.3c-1.3,0-2.6,0.2-3.9,0.2c-0.3,0-0.7-0.1-1-0.3C92.7,193.3,90.7,192.1,88.6,190.8z"/>
		<path fill-rule="evenodd" clip-rule="evenodd" d="M176.5,207.9c0.2,0.2,0.3,0.3,0.4,0.3c1.5,0.6,2.5,1.7,3.4,3
			c2.4,3.5,4.9,7.1,7.3,10.6c0.8,1.1,1.7,1.9,3.1,2c0.5,0.1,0.9,0.1,1.4,0.1c0.4,0,0.6,0.2,0.6,0.6c0,1.3-0.1,1.3-1.3,1.3
			c-2.5-0.1-5.1-0.1-7.6,0c-0.8,0-1.5-0.1-1.9-0.8c-1.1-1.8-2.3-3.7-3.4-5.5c-1.4-2.3-2.8-4.7-4.2-7c-0.5-0.8-1.1-1.5-1.7-2.1
			c-1.3-1.4-2.9-1.5-4.6-1.3c-0.1,0-0.3,0.3-0.3,0.5c0,2.5,0,5,0,7.6c0,1.5,0.1,3,0.2,4.5c0,0.3,0.1,0.6,0.2,0.9
			c0.3,1,0.7,1.3,1.7,1.3c0.6,0,1.3,0,1.9,0c0.4,0,0.5,0.2,0.5,0.6c0,1.4,0.1,1.4-1.4,1.4c-3.4,0-6.8-0.1-10.1-0.1
			c-0.9,0-1.9,0.1-2.8,0.1c-0.5,0-0.7-0.1-0.7-0.6c0-1.5-0.1-1.3,1.3-1.3c0.4,0,0.9,0,1.3-0.1c1-0.1,1.4-0.6,1.5-1.7
			c0-3.9,0.1-7.7,0.1-11.6c0-5.7,0-11.5,0-17.2c0-0.6-0.1-1.2-0.3-1.8c-0.2-0.7-0.8-1-1.5-1c-0.6,0-1.2,0-1.8,0
			c-0.4,0-0.5-0.1-0.5-0.5c0-1.8-0.2-1.4,1.4-1.4c5.1,0,10.1,0,15.2,0c3,0,5.9,0.6,8.4,2.2c2.8,1.9,4.4,4.4,4.1,7.9
			c-0.3,3.9-2.1,6.7-5.8,8.1c-1.1,0.4-2.2,0.6-3.4,1C177,207.8,176.8,207.8,176.5,207.9z M167.6,207.2c1.6,0.4,3.2,0.3,4.7,0
			c4.7-1,7.7-5,7.2-9.9c-0.2-2.1-1-4-2.8-5.3c-2.2-1.6-4.8-2-7.5-1.8c-1.1,0.1-1.5,0.7-1.5,1.8c0,4.8-0.1,9.7-0.1,14.5
			C167.6,206.8,167.6,207,167.6,207.2z"/>
		<path fill-rule="evenodd" clip-rule="evenodd" d="M176.9,182.5c-4.7-0.1-9.2-1.4-13-4.2c-3.4-2.5-5.2-6.1-6.1-10.1
			c-2.1-8.6,2.3-17.4,8.6-21.5c2.5-1.6,5.3-2.4,8.3-2.7c2.9-0.2,5.7-0.1,8.4,0.8c6.8,2.4,11.1,7.1,12.7,14.2
			c1.1,4.8,0.7,9.5-1.8,13.8c-3,5.1-7.4,8.5-13.4,9.4c-0.3,0.1-0.7,0.1-1,0.1C178.6,182.4,177.8,182.5,176.9,182.5z M189.4,164.1
			c0-2.2-0.3-4.3-0.9-6.4c-1.3-4.1-3.5-7.5-7.1-9.9c-2.2-1.4-4.6-1.9-7.2-1.5c-2.2,0.3-3.9,1.5-5.4,3c-2.9,3-4.1,6.8-4.5,10.9
			c-0.2,2.4,0,4.9,0.5,7.3c0.8,3.7,2.3,7,5.1,9.6c1.9,1.8,4.1,3.1,6.7,3.2c4.1,0.2,7.4-1.3,9.7-4.8
			C188.6,172,189.3,168.1,189.4,164.1z"/>
		<path fill-rule="evenodd" clip-rule="evenodd" d="M230.1,234.5c-26.8,0-53.7,0-80.5,0c-0.3,0-0.6,0-0.9-0.1
			c-0.5-0.1-0.7-0.5-0.7-1c0-0.5,0.3-0.9,0.8-1c0.3-0.1,0.7-0.1,1-0.1c43.9,0,87.8,0,131.7,0c9.7,0,19.4,0,29.2,0
			c0.3,0,0.6,0,0.8,0.1c0.6,0.1,0.9,0.6,0.9,1.2c0,0.5-0.4,0.9-1,1c-0.2,0-0.4,0-0.6,0C283.7,234.5,256.9,234.5,230.1,234.5z"/>
		<path fill-rule="evenodd" clip-rule="evenodd" d="M218.4,225.8c-2.6,0-5.3,0-7.9,0c-0.5,0-0.6-0.2-0.6-0.6c0-0.9,0-0.9,0.9-0.9
			c0.6,0,1.1,0,1.7,0c1.1,0,1.6-0.4,1.7-1.6c0.1-1.1,0.1-2.1,0.1-3.2c0.1-4.6,0.1-9.3,0.1-13.9c0-2.4-0.1-4.7-0.2-7.1
			c0-0.9-0.5-1.4-1.4-1.4c-0.7,0-1.4,0-2.2,0c-0.5,0-0.7-0.2-0.7-0.7c0-0.1,0-0.2,0-0.4c0-0.4,0.1-0.6,0.6-0.6
			c0.8,0,1.6,0.1,2.5,0.1c3.7,0,7.4-0.1,11.1-0.1c3,0,6,0.2,8.9,1.3c4.9,1.9,8.2,5.4,8.9,10.8c0.7,5-0.2,9.6-3.8,13.5
			c-2.2,2.4-5,3.7-8.2,4.3c-2.6,0.5-5.2,0.5-7.8,0.4C220.8,225.7,219.6,225.7,218.4,225.8C218.4,225.7,218.4,225.8,218.4,225.8z
			 M224,224.3c4,0,7.6-1.8,9.6-5c2.6-4,3.3-8.3,2.1-12.9c-2-7.8-9-10-14.2-9.4c-1.2,0.1-1.8,0.8-1.8,2c0,0.6,0,1.3,0,1.9
			c0,6.7,0,13.4,0.1,20.1c0,1.9,1,2.8,2.6,3.1C223,224.2,223.6,224.2,224,224.3z"/>
		<path fill-rule="evenodd" clip-rule="evenodd" d="M237.1,167.2c0,0.2,0,0.4,0,0.6c0,3.8,0.1,7.5,0.1,11.3c0,0.8,0.4,1.2,1.2,1.2
			c0.4,0,0.9,0,1.3,0c0.4,0,0.5,0.1,0.5,0.5c0,0.2,0,0.4,0,0.5c0,0.4-0.1,0.5-0.5,0.5c-3.4,0-6.8,0-10.2,0c-0.4,0-0.6-0.1-0.6-0.6
			c0-0.2,0-0.3,0-0.5c0-0.4,0.1-0.5,0.5-0.5c0.5,0,1.1,0,1.6-0.1c0.6-0.1,0.9-0.4,0.9-1c0-3.6,0.1-7.2,0.1-10.7c0-4.6,0-9.1,0-13.7
			c0-1.4-0.3-1.7-1.7-1.7c-0.1,0-0.2,0-0.2,0c-1.1,0-1,0.2-1-1c0-0.5,0.2-0.6,0.6-0.6c2.1,0.1,4.2,0.1,6.3,0.1c1.3,0,2.5,0,3.8-0.1
			c0.6,0,0.6,0.3,0.6,0.7c0,0.4,0.1,1-0.6,0.9c-0.4,0-0.8,0-1.2,0c-0.7,0-1,0.3-1.1,1c0,0.2,0,0.3-0.1,0.5c0,3.5-0.1,7-0.2,10.4
			c0,0.6,0.2,0.7,0.7,0.7c0.8,0,1.5-0.4,2-1c1.6-2,3.3-3.9,4.9-5.9c1.1-1.3,2.1-2.6,3.1-3.9c0.2-0.2,0.3-0.4,0.5-0.7
			c0.3-0.6,0-1.1-0.6-1.1c-0.1,0-0.1,0-0.2,0c-0.8,0-1.2-0.6-0.9-1.3c0.1-0.1,0.3-0.2,0.5-0.2c1,0,2,0.1,2.9,0.1
			c1.7,0,3.4,0,5.1-0.1c0.6,0,0.7,0.2,0.6,0.7c0,0.4,0.1,0.9-0.6,0.9c-1.6-0.1-2.9,0.5-4,1.6c-3,2.9-5.7,6-8.3,9.2
			c-0.2,0.3-0.2,0.4,0,0.7c3.8,4.8,7.6,9.6,11.4,14.5c0.7,0.8,1.6,1.1,2.6,1.1c0.1,0,0.2,0,0.4,0c0.8,0,1.2,0.6,0.9,1.3
			c-0.1,0.1-0.3,0.2-0.4,0.2c-3.7,0-7.5,0-11.2,0c-0.2,0-0.4-0.2-0.4-0.4c-0.1-0.2,0-0.4,0-0.6c0-0.3,0.1-0.5,0.5-0.5
			c1.1,0,1.4-0.6,0.8-1.6c-2.5-3.6-5-7.1-7.5-10.7C239,167.1,238.1,167,237.1,167.2z"/>
		<path fill-rule="evenodd" clip-rule="evenodd" d="M272.2,212.7c1.8,0,3.5,0,5.3,0c0.5,0,0.8,0.1,0.8,0.7c0,0.8,0,0.8-0.8,0.9
			c-0.4,0-0.8,0-1.2,0c-0.7,0.1-1,0.4-1.1,1.1c-0.1,0.6-0.1,1.2-0.1,1.8c0,1.9,0.1,3.7,0.2,5.6c0,0.2-0.2,0.6-0.4,0.7
			c-2.4,1.2-4.8,2.2-7.5,2.5c-1.9,0.2-3.8,0.4-5.7,0.3c-3.9-0.2-7.6-1.3-10.5-4.1c-2.5-2.3-3.9-5.2-4.4-8.6
			c-0.4-2.7-0.5-5.5,0.4-8.1c1.9-5.4,5.8-8.6,11.3-9.9c3.9-0.9,7.7-0.8,11.5,0.7c0.7,0.3,1.4,0.7,2,1c0.7,0.4,0.8,0.4,1.3-0.2
			c0.2-0.2,0.3-0.5,0.5-0.7c0.1-0.1,0.4-0.2,0.5-0.2c0.1,0.1,0.3,0.3,0.3,0.5c0.1,1.3,0.2,2.6,0.2,3.9c0.1,1.5,0.1,3,0.2,4.4
			c0,0.3,0,0.7-0.4,0.7c-0.4,0-0.9,0.4-1.2-0.4c-0.7-2-1.7-3.8-3.1-5.4c-2.1-2.3-4.8-3.4-7.9-3.3c-4.1,0.1-6.7,2.5-8.5,5.9
			c-1.5,2.8-2,5.8-1.7,8.9c0.2,2.4,0.6,4.8,1.7,7c1.5,3,3.7,5.1,7.1,5.8c2.4,0.5,4.7,0.2,7-0.6c1.1-0.4,1.6-1.2,1.6-2.3
			c0-1.9,0-3.8,0-5.7c0-0.9-0.4-1.3-1.3-1.4c-0.5-0.1-1.1,0-1.6,0c-0.7,0-0.7,0-0.7-0.9c0-0.5,0.3-0.6,0.7-0.6
			C268.7,212.7,270.5,212.7,272.2,212.7C272.2,212.7,272.2,212.7,272.2,212.7z"/>
		<path fill-rule="evenodd" clip-rule="evenodd" d="M289.9,209.4c1.7-0.1,3.4-0.2,5-0.3c0.8-0.1,1.4-0.5,1.7-1.2
			c0.3-0.8,0.6-1.6,0.8-2.5c0.1-0.4,0.2-0.5,0.6-0.5c1.1,0.1,1,0.1,1,1.1c0,2.7,0.1,5.4,0.2,8.1c0,0.5-0.2,0.7-0.6,0.7
			c-0.4,0.1-0.8,0.2-0.9-0.5c-0.1-0.6-0.3-1.2-0.6-1.7c-0.4-1-1.2-1.6-2.3-1.7c-1.6-0.1-3.2-0.2-4.9-0.3c0,0.3,0,0.5,0,0.8
			c0,3.1,0.1,6.3,0.1,9.4c0,0.5,0.1,0.9,0.2,1.4c0.2,1,0.8,1.6,1.9,1.8c2.4,0.4,4.8,0.3,7.2,0c1.6-0.2,2.9-1.1,3.9-2.4
			c0.9-1.1,1.9-2.2,2.8-3.3c0.2-0.2,0.4-0.5,0.8-0.2c0.4,0.2,0.7,0.4,0.5,0.9c-0.7,1.9-1.3,3.9-1.9,5.8c-0.2,0.7-0.5,0.9-1.3,0.9
			c-7.1,0-14.1-0.1-21.2-0.1c-0.6,0-1.1,0-1.7,0.1c-0.4,0-0.6-0.1-0.6-0.5c0-0.1,0-0.2,0-0.2c0-0.8,0-0.8,0.8-0.8
			c0.7,0,1.4,0,2.1-0.1c0.7-0.1,1-0.4,1.1-1.1c0-0.2,0-0.3,0-0.5c0-6.6,0-13.3,0-19.9c0-1.4-0.1-2.7-0.2-4.1c-0.1-1-0.6-1.4-1.6-1.4
			c-0.5,0-1,0-1.5,0c-0.4,0-0.5-0.1-0.5-0.5c0-1.1,0-1,0.8-1c3.2,0,6.4,0.1,9.6,0.1c3.9,0,7.8-0.1,11.7-0.1c0.5,0,0.7,0.1,0.9,0.6
			c0.6,2,1.2,4.1,1.8,6.1c0.1,0.3,0.2,0.6-0.2,0.7c-0.4,0.2-0.6,0.3-1-0.1c-1.2-1.3-2.4-2.7-3.7-3.9c-1.2-1.2-2.7-1.8-4.4-1.9
			c-1.9-0.1-3.8-0.1-5.7-0.2c-0.4,0-0.6,0.1-0.6,0.6c0,3.8,0,7.7,0,11.5C289.8,209.1,289.9,209.2,289.9,209.4z"/>
		<path fill-rule="evenodd" clip-rule="evenodd" d="M220.4,181.8c-1.9,0-3.8,0-5.7,0c-0.2,0-0.7-0.1-0.7-0.2c-0.1-0.4,0-0.8,0-1.1
			c0-0.1,0.3-0.1,0.5-0.1c0.4,0,0.9,0,1.3-0.1c0.7-0.1,1-0.5,0.9-1.2c-0.1-0.8-0.4-1.6-0.6-2.4c-0.6-2-1.2-4.1-1.9-6.1
			c-0.1-0.4-0.3-0.6-0.7-0.6c-3,0-5.9,0-8.9,0c-0.3,0-0.5,0-0.7,0.4c-0.8,2.6-1.7,5.1-2.4,7.7c-0.4,1.5,0.1,2.1,1.7,2.2
			c0.5,0,0.9,0,1.4,0c0.4,0,0.5,0.1,0.5,0.5c0,1,0,1-1,1c-3,0-5.9,0-8.9,0c-0.5,0-0.7,0-0.7-0.6c0-0.9,0-1,0.7-0.9
			c2,0.2,3.2-0.9,3.9-2.6c2.1-5.4,4.2-10.9,6.3-16.3c0.7-1.9,1.5-3.9,2.2-5.8c0.3-0.7,0.5-1.4,0.1-2.2c-0.2-0.4,0.1-0.5,0.4-0.6
			c1.1-0.5,2.2-1,3.3-1.5c0.4-0.2,0.7-0.5,1-0.7c0.4-0.3,0.6-0.3,0.8,0.2c0.3,1,0.7,2.1,1,3.1c2.5,7.4,4.9,14.8,7.4,22.1
			c0.2,0.7,0.5,1.4,0.8,2.1c0.7,1.5,1.8,2.3,3.4,2.2c0.1,0,0.1,0,0.2,0c0.8,0,1.2,0.6,0.8,1.3c-0.1,0.1-0.4,0.2-0.7,0.2
			C224.2,181.8,222.3,181.8,220.4,181.8C220.4,181.8,220.4,181.8,220.4,181.8z M213.6,168.4c-0.1-0.3-0.1-0.5-0.2-0.6
			c-0.8-2.7-1.7-5.4-2.5-8.2c-0.3-1.1-0.7-2.3-1-3.4c-0.1-0.2-0.3-0.4-0.4-0.4c-0.2,0-0.3,0.2-0.5,0.4c-0.1,0.1-0.1,0.2-0.1,0.3
			c-1.3,3.8-2.7,7.5-4,11.3c-0.1,0.2-0.1,0.4-0.2,0.7C207.7,168.4,210.6,168.4,213.6,168.4z"/>
		<path fill-rule="evenodd" clip-rule="evenodd" d="M199.2,195.5c2.2,0,4.4,0,6.6,0c0.2,0,0.7,0.1,0.7,0.2c0.1,0.4,0,0.8,0,1.2
			c0,0.1-0.3,0.1-0.4,0.1c-0.5,0-1,0-1.5,0c-1.1,0-1.6,0.5-1.6,1.6c0,7.8,0,15.6,0,23.5c0,0.2,0,0.3,0,0.5c0.1,1.1,0.5,1.5,1.6,1.6
			c0.6,0,1.1,0,1.7,0c0.4,0,0.6,0.1,0.6,0.5c0,0.1,0,0.3,0,0.4c0.1,0.5-0.2,0.6-0.6,0.6c-3.1,0-6.3-0.1-9.4-0.1
			c-0.9,0-1.8,0-2.8,0.1c-0.5,0-0.7-0.1-0.7-0.6c0-1.1-0.1-0.9,1-1c0.6,0,1.2,0,1.8-0.1c0.8-0.1,1.2-0.6,1.2-1.4
			c0-2.5,0.1-5.1,0.1-7.6c0-5.2,0-10.4,0-15.6c0-2.1-0.4-2.4-2.5-2.4c-0.4,0-0.9,0-1.3,0c-0.4,0-0.5-0.2-0.5-0.5
			c0-1.1,0-1.1,1.1-1.1C195.9,195.5,197.5,195.5,199.2,195.5C199.2,195.5,199.2,195.5,199.2,195.5z"/>
		<path fill-rule="evenodd" clip-rule="evenodd" d="M151.8,252.3c-1.3,0-2.7,0-4,0c-0.1-0.4-0.1-0.6,0.4-0.6c0.8,0,1-0.2,1.1-1
			c0.1-1.3,0.2-2.6,0.2-4c0-1.6,0-3.1,0-4.7c0-1.8-0.4-2.3-2.2-2.6c0-0.2,0-0.3,0-0.5c0.1,0,0.2-0.1,0.3-0.1c1,0,2.1,0,3.1,0
			c0.4,0,0.7,0.1,1,0.4c2.4,3,4.8,6,7.1,8.9c0.1,0.2,0.3,0.3,0.6,0.7c0-0.4,0.1-0.6,0.1-0.8c-0.1-2.4-0.1-4.9-0.2-7.3
			c0-0.8-0.4-1.2-1.3-1.3c-0.1,0-0.3,0-0.4,0c0-0.2,0-0.4,0-0.5c0.1,0,0.1-0.1,0.2-0.1c1.2,0,2.4,0,3.6,0c0.4,0,0.4,0.2,0.4,0.6
			c-0.1,0-0.2,0.1-0.3,0.1c-0.7,0.1-0.9,0.3-1,1c-0.1,1.4-0.2,2.8-0.2,4.2c-0.1,2.3-0.1,4.7-0.1,7c0,0.3,0,0.5-0.1,1
			c-0.4-0.3-0.7-0.5-0.9-0.8c-2.5-3.1-5.1-6.1-7.6-9.2c-0.4-0.4-0.7-0.9-1.2-1.4c-0.1,0.2-0.1,0.3-0.1,0.4c0.1,3,0.1,5.9,0.2,8.9
			c0,0.8,0.3,1,1.1,1.1C151.9,251.7,151.9,251.9,151.8,252.3z"/>
		<path fill-rule="evenodd" clip-rule="evenodd" d="M243.8,240.1c1.1-0.5,2.2-1,3.3-1.5c0,2.2,0,4.3,0,6.5c0.2-0.1,0.3-0.2,0.4-0.2
			c2.3-1.5,5.1-0.3,5.4,2.5c0.3,2.4-1.3,4.7-3.7,5.1c-0.7,0.1-1.5-0.1-2.3-0.3c-0.4-0.1-0.7-0.1-1,0.1c-0.6,0.4-0.7,0.3-0.7-0.5
			c0-3.1,0-6.1,0-9.2C245.2,241,245.2,241,243.8,240.1z M247.2,250.2c0.1,1.2,0.8,1.9,2,1.7c0.7-0.1,1.2-0.5,1.5-1.1
			c0.7-1.5,0.6-3-0.2-4.4c-0.6-1.1-1.9-1.4-2.9-0.8c-0.3,0.2-0.5,0.4-0.5,0.8C247.1,247,247.1,249.5,247.2,250.2z"/>
		<path fill-rule="evenodd" clip-rule="evenodd" d="M223.1,239c0.9,0,1.8,0,2.6,0c0.9,0,1.8-0.1,2.6-0.1c0.5,0,0.5,0,0.4,0.6
			c-0.3,0-0.7,0-1,0c-0.5,0-0.8,0.2-0.8,0.7c0,3.7,0,7.3,0,11c0,0.4,0.1,0.5,0.5,0.5c1.2,0,2.3,0,3.5,0c0.7,0,1.2-0.3,1.5-0.8
			c0.5-0.7,0.9-1.4,1.3-2.1c0.1-0.1,0.3-0.2,0.4-0.3c0,0.2,0.2,0.4,0.1,0.5c-0.2,1-0.5,1.9-0.7,2.9c-0.1,0.3-0.2,0.5-0.6,0.5
			c-3.2,0-6.4,0-9.7,0c-0.1,0-0.3-0.2-0.4-0.3c0.1-0.1,0.3-0.3,0.4-0.3c0.1-0.1,0.3,0,0.4,0c0.7,0,0.8-0.2,0.8-0.8
			c0-3.1,0-6.2,0-9.4c0-0.3,0-0.6,0-0.9c0-0.8-0.2-1-1-1C223.2,239.5,222.9,239.5,223.1,239z"/>
		<path fill-rule="evenodd" clip-rule="evenodd" d="M196.5,244.2c0.1,0.5,0.2,0.8,0.3,1.3c0.2-0.2,0.4-0.3,0.5-0.5
			c1.2-1,2.8-1.1,3.9-0.2c0.5,0.5,0.8,1,0.8,1.7c0,1.4,0,2.9,0,4.3c0,0.7,0.1,0.8,0.8,0.9c0.1,0,0.3,0.2,0.4,0.3
			c-0.1,0.1-0.3,0.2-0.4,0.2c-1.1,0-2.2,0-3.3,0c-0.4,0-0.4-0.2-0.3-0.5c0.8-0.2,0.9-0.2,0.9-1.1c0-1.4,0-2.8,0-4.2
			c0-0.8-0.6-1.3-1.3-1.3c-1-0.1-1.8,0.4-1.9,1.2c-0.1,1.6-0.1,3.2-0.1,4.8c0,0.5,0.4,0.6,0.8,0.6c0.1,0.3,0.1,0.5-0.3,0.5
			c-1,0-2,0-3,0c-0.1,0-0.3-0.2-0.4-0.2c0.1-0.1,0.2-0.3,0.3-0.3c0.6,0,0.7-0.3,0.7-0.8c0-1.2,0-2.3,0-3.5c0-0.7-0.2-1.2-0.8-1.5
			c-0.3-0.2-0.4-0.4,0-0.6C194.9,245,195.7,244.6,196.5,244.2z"/>
		<path fill-rule="evenodd" clip-rule="evenodd" d="M259,244.3c2.3,0,4.1,1.8,4.1,4c0,2.3-2,4.2-4.4,4.2c-2.3,0-4-1.8-4-4.1
			C254.7,246.1,256.6,244.3,259,244.3z M256.8,248.3c0,1,0.1,1.9,0.7,2.7c0.7,1,2.1,1,2.8,0c0.9-1.3,0.9-4.1-0.1-5.4
			c-0.8-1.1-2.1-1.1-2.8,0.1C257,246.6,256.8,247.8,256.8,248.3z"/>
		<path fill-rule="evenodd" clip-rule="evenodd" d="M295.5,248.3c0,2.3-2,4.2-4.3,4.2c-2.5,0-4.1-2.2-4-4.2c0.1-2.3,1.9-4,4.3-4
			C293.7,244.3,295.5,246.1,295.5,248.3z M289.2,248.1c0,1.6,0.2,2.3,0.6,3c0.7,1,2.1,1,2.8,0c0.9-1.3,0.9-4.1-0.1-5.4
			c-0.8-1.1-2.1-1.1-2.8,0.1C289.3,246.6,289.2,247.5,289.2,248.1z"/>
		<path fill-rule="evenodd" clip-rule="evenodd" d="M167.5,251.5c-0.8,0.3-1.5,0.7-2.2,1c-0.6,0.2-1.3,0.2-1.7-0.4
			c-0.5-0.6-0.5-1.3-0.2-1.9c0.3-0.5,0.7-1,1.2-1.3c0.6-0.4,1.4-0.7,2.1-1c0.4-0.2,0.6-0.4,0.6-0.9c0-0.2,0-0.3,0-0.5
			c0-0.5,0-1-0.5-1.3c-0.6-0.3-1.2-0.2-1.7,0.2c-0.2,0.1-0.3,0.5-0.3,0.8c0,0.9-0.3,1.2-1,1.2c-0.5,0-0.8-0.2-0.6-0.7
			c0.1-0.4,0.3-0.9,0.6-1.2c1.1-1,2.5-1.4,4-1.2c0.9,0.1,1.4,0.7,1.4,1.6c0,1.5,0.1,3,0.1,4.5c0,1,0.2,1.1,1.2,0.7
			c0.1,0,0.2,0,0.3,0c0,0.1,0,0.3,0,0.4c-0.6,1.2-2.3,1.2-3,0.1C167.6,251.6,167.5,251.5,167.5,251.5z M167.3,248
			c-0.6,0.4-1.2,0.7-1.6,1.1c-0.5,0.4-0.7,1-0.5,1.7c0.1,0.5,0.4,0.8,0.9,0.8c0.5,0,1.2-0.5,1.2-1C167.3,249.8,167.3,249,167.3,248z
			"/>
		<path fill-rule="evenodd" clip-rule="evenodd" d="M209,251.5c-0.8,0.3-1.5,0.7-2.2,1c-0.6,0.2-1.3,0.2-1.7-0.4
			c-0.4-0.6-0.5-1.3-0.1-1.9c0.3-0.5,0.7-0.9,1.2-1.3c0.7-0.4,1.4-0.7,2.1-1.1c0.3-0.2,0.5-0.4,0.5-0.8c0-0.2,0-0.3,0-0.5
			c0-1.3-0.7-1.8-1.9-1.3c-0.5,0.2-0.7,0.4-0.6,1c0.1,0.8-0.3,1.3-1,1.2c-0.5,0-0.8-0.3-0.6-0.8c0.1-0.3,0.2-0.7,0.5-1
			c1.2-1.2,2.6-1.6,4.2-1.3c0.9,0.2,1.2,0.7,1.3,1.6c0,1.5,0,3.1,0.1,4.6c0,0.9,0.3,1.1,1.1,0.7c0.1,0,0.2,0,0.4,0
			c0,0.1,0,0.3,0,0.4c-0.3,0.6-0.9,0.9-1.5,0.9c-0.6,0-1.2-0.2-1.5-0.8C209.1,251.6,209,251.5,209,251.5z M208.8,248
			c-0.6,0.3-1,0.6-1.4,0.8c-0.6,0.4-0.9,1-0.8,1.7c0,0.6,0.4,1,0.9,1c0.6,0,1.3-0.5,1.3-1C208.9,249.8,208.8,249,208.8,248z"/>
		<path fill-rule="evenodd" clip-rule="evenodd" d="M240.3,251.5c-0.8,0.3-1.5,0.7-2.2,1c-0.6,0.2-1.3,0.2-1.7-0.4
			c-0.4-0.6-0.5-1.3-0.1-1.9c0.3-0.5,0.7-0.9,1.2-1.3c0.7-0.4,1.4-0.7,2.1-1.1c0.3-0.2,0.5-0.4,0.5-0.8c0-0.2,0-0.3,0-0.5
			c0-1.3-0.7-1.8-1.9-1.3c-0.5,0.2-0.7,0.4-0.6,1c0.1,0.8-0.3,1.3-1,1.2c-0.5,0-0.8-0.3-0.6-0.8c0.1-0.3,0.2-0.7,0.5-1
			c1.2-1.2,2.6-1.6,4.2-1.3c0.9,0.2,1.2,0.7,1.3,1.6c0,1.5,0,3.1,0.1,4.6c0,0.9,0.3,1.1,1.1,0.7c0.1,0,0.2,0,0.4,0
			c0,0.1,0,0.3,0,0.4c-0.3,0.6-0.9,0.9-1.5,0.9c-0.6,0-1.2-0.2-1.5-0.8C240.4,251.6,240.3,251.5,240.3,251.5z M240.1,248
			c-0.6,0.3-1,0.6-1.4,0.8c-0.6,0.4-0.9,1-0.8,1.7c0,0.6,0.4,1,0.9,1c0.6,0,1.3-0.5,1.3-1C240.2,249.8,240.1,249,240.1,248z"/>
		<path fill-rule="evenodd" clip-rule="evenodd" d="M276.2,251.5c-0.8,0.3-1.5,0.7-2.2,1c-0.6,0.2-1.3,0.2-1.7-0.4
			c-0.4-0.6-0.5-1.3-0.1-1.9c0.3-0.5,0.7-0.9,1.2-1.3c0.7-0.4,1.4-0.7,2.1-1.1c0.3-0.2,0.5-0.4,0.5-0.8c0-0.2,0-0.3,0-0.5
			c0-1.3-0.7-1.8-1.9-1.3c-0.5,0.2-0.7,0.4-0.6,1c0.1,0.8-0.3,1.3-1,1.2c-0.5,0-0.8-0.3-0.6-0.8c0.1-0.3,0.2-0.7,0.5-1
			c1.2-1.2,2.6-1.6,4.2-1.3c0.9,0.2,1.2,0.7,1.3,1.6c0,1.5,0,3.1,0.1,4.6c0,0.9,0.3,1.1,1.1,0.7c0.1,0,0.2,0,0.4,0
			c0,0.1,0,0.3,0,0.4c-0.3,0.6-0.9,0.9-1.5,0.9c-0.6,0-1.2-0.2-1.5-0.8C276.3,251.6,276.2,251.5,276.2,251.5z M276,248
			c-0.6,0.3-1,0.6-1.4,0.8c-0.6,0.4-0.9,1-0.8,1.7c0,0.6,0.4,1,0.9,1c0.6,0,1.3-0.5,1.3-1C276.1,249.8,276,249,276,248z"/>
		<path fill-rule="evenodd" clip-rule="evenodd" d="M313,245c-0.8-0.1-1.1,0.4-1.3,1c-1.4,3-2.7,6-4.1,8.9c-0.3,0.6-0.6,1.3-1,1.8
			c-0.4,0.6-1.1,0.8-1.7,0.6c-0.5-0.2-0.7-0.6-0.6-1.1c0.1-0.5,0.5-0.7,1-0.6c0.1,0,0.2,0,0.2,0c1,0.2,1,0.2,1.5-0.7
			c1.1-2.1,1.1-2.1,0.3-4.4c-0.6-1.6-1.1-3.1-1.7-4.7c-0.3-0.8-0.4-0.9-1.3-0.9c0-0.1,0-0.3,0-0.5c0.9,0,1.7,0,2.5,0
			c0.4,0,0.8-0.1,1.2,0c0.1,0,0.2,0.1,0.3,0.2c-0.1,0.1-0.2,0.3-0.3,0.4c-0.1,0.2-0.4,0.3-0.4,0.4c0.4,1.6,0.9,3.1,1.3,4.9
			c0.2-0.3,0.3-0.4,0.3-0.5c0.5-1.3,1-2.5,1.5-3.8c0.3-0.7,0.2-0.8-0.5-1.1c-0.1,0-0.2-0.2-0.2-0.3c0-0.1,0.2-0.2,0.3-0.2
			c0.9,0,1.8,0,2.7,0C313,244.7,313,244.8,313,245z"/>
		<path fill-rule="evenodd" clip-rule="evenodd" d="M216.2,238.7c0,0.3,0,0.5,0,0.7c0,3-0.1,6.1-0.1,9.1c0,0.8,0.1,1.7,0.1,2.5
			c0,0.6,0.3,0.8,0.8,0.8c0,0,0.1,0,0.1,0c0.2,0.1,0.3,0.2,0.5,0.3c-0.2,0.1-0.3,0.2-0.5,0.2c-1.3,0-2.5,0-3.8,0c-0.1,0-0.2,0-0.2,0
			c-0.1-0.1-0.2-0.2-0.3-0.2c0.1-0.1,0.2-0.2,0.3-0.3c0.1,0,0.2,0,0.3,0c0.5,0,0.8-0.2,0.8-0.7c0-3.2-0.1-6.4-0.1-9.6
			c0-0.6-0.5-0.9-1-1.1c-0.1-0.1-0.3-0.2-0.4-0.3c0.1-0.1,0.2-0.3,0.4-0.3c0.8-0.3,1.6-0.6,2.4-1
			C215.7,238.8,215.9,238.7,216.2,238.7z"/>
		<path fill-rule="evenodd" clip-rule="evenodd" d="M280.3,245.3c1.2-1,2.2-2,3.4-3c0,0.4,0,0.7,0,1c0,1.3-0.2,1.1,1.1,1.1
			c0.5,0,0.9,0,1.4,0c0,0.6-0.1,1-0.8,0.9c-0.5,0-0.9,0-1.4,0c-0.3,0-0.5,0.1-0.5,0.5c0,1.4,0,2.9,0,4.3c0,1.2,0.7,1.6,1.9,1.3
			c0.1,0,0.3,0,0.5,0.1c-0.1,0.1-0.1,0.4-0.3,0.4c-0.8,0.5-1.7,0.8-2.7,0.5c-0.9-0.2-1.4-0.9-1.4-1.8c0-1.5,0-3,0.1-4.5
			c0-0.6-0.1-0.8-0.8-0.8C280.8,245.4,280.5,245.4,280.3,245.3z"/>
		<path fill-rule="evenodd" clip-rule="evenodd" d="M174.8,242.4c0,0.2,0,1.1,0,1.4c-0.1,0.6,0.1,0.8,0.7,0.7c0.6,0,1.2,0,1.8,0
			c0.1,0.8,0,0.9-0.7,0.9c-0.5,0-1,0-1.5,0c-0.1,0-0.4,0.2-0.4,0.4c0,1.5-0.1,3.1,0,4.6c0.1,1.1,0.7,1.4,1.7,1.1c0.2,0,0.4,0,0.6,0
			c-0.1,0.2-0.2,0.4-0.4,0.5c-0.8,0.4-1.6,0.7-2.5,0.5c-0.9-0.2-1.4-0.9-1.4-1.8c0-1.5,0-3,0-4.5c0-0.5-0.1-0.8-0.7-0.7
			c-0.2,0-0.4,0-0.8,0C172.6,244.3,173.6,243.4,174.8,242.4z"/>
		<path fill-rule="evenodd" clip-rule="evenodd" d="M297.1,245.5c0.9-0.4,1.7-0.8,2.7-1.3c0.1,0.6,0.2,1.1,0.3,1.7
			c0.2-0.3,0.3-0.4,0.5-0.6c0.5-0.4,1-0.8,1.5-1.1c0.4-0.2,0.9-0.1,1.1,0.3c0.1,0.3,0.1,0.7-0.1,1c-0.2,0.4-0.7,0.5-1.1,0.4
			c-1.3-0.4-1.8,0.1-1.9,1.4c0,1.2,0,2.3,0,3.5c0,0.7,0.2,0.9,0.9,0.9c0,0,0,0,0.1,0c0.2,0.1,0.6-0.1,0.5,0.3c0,0.1-0.4,0.2-0.6,0.2
			c-1.1,0-2.2,0-3.2,0c-0.2,0-0.4,0-0.6,0c-0.1,0-0.2-0.2-0.3-0.3c0.1-0.1,0.2-0.2,0.3-0.3c1-0.2,1-0.2,1-1.2c0-1.1,0-2.1,0-3.2
			c0-0.8-0.2-1.3-1-1.6c-0.1,0-0.1-0.1-0.2-0.1C297.1,245.7,297.1,245.6,297.1,245.5z"/>
		<path fill-rule="evenodd" clip-rule="evenodd" d="M267.7,245.9c0.3-0.3,0.4-0.6,0.6-0.8c0.4-0.5,0.9-0.9,1.7-1c0.6,0,1,0.3,1,0.8
			c0,0.5-0.5,1-1,1c-0.2,0-0.4-0.1-0.6-0.1c-0.8-0.3-1.3,0-1.5,0.8c-0.1,0.3-0.1,0.5-0.1,0.8c0,1.1,0,2.3,0,3.4c0,0.8,0.2,0.9,1,1
			c0.2,0,0.4,0.2,0.5,0.3c-0.2,0.1-0.4,0.3-0.5,0.3c-1.2,0-2.4,0-3.6,0c-0.2,0-0.3-0.2-0.5-0.2c0.2-0.1,0.3-0.2,0.5-0.3
			c0.7-0.1,0.8-0.2,0.8-0.9c0-1.1,0-2.2,0-3.3c0-0.8-0.2-1.5-1-1.8c-0.1,0-0.1-0.1-0.3-0.3c0.7-0.3,1.2-0.6,1.8-0.9
			c1-0.5,1-0.5,1.2,0.6C267.6,245.4,267.6,245.6,267.7,245.9z"/>
		<path fill-rule="evenodd" clip-rule="evenodd" d="M181.4,244.3c0,0.2,0,0.5,0,0.7c0,2,0,4.1,0,6.1c0,0.5,0.2,0.7,0.7,0.7
			c0.2,0,0.5,0.1,0.5,0.2c0,0.2-0.3,0.3-0.5,0.3c-1.2,0-2.4,0-3.6,0c-0.2,0-0.4-0.1-0.5-0.2c0.1-0.2,0.3-0.3,0.5-0.3
			c0.9-0.1,0.9-0.1,0.9-1c0-1.3,0-2.5,0-3.8c0-0.7-0.2-1.1-0.9-1.3c-0.1,0-0.2-0.1-0.3-0.2c0,0,0.1-0.2,0.2-0.2
			c0.9-0.3,1.8-0.6,2.6-0.9C181.2,244.3,181.3,244.3,181.4,244.3z"/>
		<path fill-rule="evenodd" clip-rule="evenodd" d="M181.2,241.1c0,0.6-0.5,1.1-1.1,1.1c-0.6,0-1.1-0.4-1.1-1c0-0.6,0.5-1,1.2-1
			C180.8,240.2,181.2,240.6,181.2,241.1z"/>
	</g>
	<path fill-rule="evenodd" clip-rule="evenodd" d="M188.1,244.3c-2.4,0-4.2,1.8-4.3,4.1c0,2.4,1.7,4.2,4,4.2c2.4,0,4.4-1.9,4.4-4.2
		C192.3,246.1,190.4,244.3,188.1,244.3z M189.3,251.1c-0.7,1-2,1-2.7,0c-0.6-0.8-0.7-1.8-0.7-2.8c0,0,0.2-1.7,0.5-2.4
		c0.7-1.4,2.1-1.4,2.9-0.1C190.2,247.1,190.2,249.8,189.3,251.1z"/>
</g>
</svg>
