<?xml version="1.0" encoding="utf-8"?>
<!-- Generator: Adobe Illustrator 19.0.1, SVG Export Plug-In . SVG Version: 6.00 Build 0)  -->
<!DOCTYPE svg PUBLIC "-//W3C//DTD SVG 1.1//EN" "http://www.w3.org/Graphics/SVG/1.1/DTD/svg11.dtd">
<svg version="1.1" id="Layer_1" xmlns="http://www.w3.org/2000/svg" xmlns:xlink="http://www.w3.org/1999/xlink" x="0px" y="0px"
	 viewBox="50 50 300 300" enable-background="new 0 0 400 400" xml:space="preserve">
<style>
  g {
    fill: #6db6aa;
  }
</style>
<g>
	<path d="M131.7,231.8l15-19.1c3.8,0.6,7.8,1,11.9,1c0.1,0,0.1,0,0.2,0c16.6,0,30.4-4.8,39.3-13.7l-0.9,13.2l23.3,0l1.7-26.1l19.5,0
		l28.4,43.8l0.3,0.5l27,0l-11.8-18.1l0,0l-18.6-28.7c13.3-3.9,20.2-11.1,20.9-21.9c0.4-5.6-1.3-10.4-5-14.3c-6-6.4-17-10-30.9-10
		l-50-0.1l-1,14.6c-7.8-9.2-21.2-14.2-38-14.2c0,0-0.1,0-0.1,0c-28.6,0-48.1,14.6-49.6,37.2c-0.8,11.8,3.5,21.6,12.5,28.4
		l-21.5,27.4L131.7,231.8z M184.6,176.1c-0.9,13.2-10.6,21.4-25.3,21.4c0,0,0,0,0,0c-0.2,0-0.5,0-0.7,0l17.2-22.1l-27.1-0.1
		l-9.5,12.2c-1.5-3.1-2.2-6.8-1.9-11c0.8-11.4,8-19,19.8-20.9c0.9-0.1,1.9-0.1,2.8-0.1l0.7,0c0.7-0.1,1.3-0.1,1.9-0.1
		c10.7,0,18.1,4.5,20.9,12.5l0.1,0.2c0.3,0.5,0.5,1.2,0.7,2.1c0.1,0.5,0.1,0.9,0.2,1.4l0,0.4c0,0.2,0,0.3,0.1,0.4c0,0,0,0.1,0,0.1
		l0,0.2C184.7,173.8,184.7,174.9,184.6,176.1z M250.8,154.8C250.8,154.8,250.8,154.8,250.8,154.8c5.8,0,9.8,1.1,11.8,3.2
		c1.1,1.2,1.6,2.8,1.5,4.8c-0.4,5.5-5.2,8.3-14.4,8.3c0,0-0.1,0-0.1,0l-26.3,0l1.1-16.4L250.8,154.8z"/>
	<path d="M132.4,248.8c0,2.9-2,4.7-5.1,4.7c-3.2,0-5.1-1.8-5.1-4.8l0-10.1l-5,0l0,4c-1.9-2.8-5.4-4.3-9.9-4.3
		c-6.7,0-11.3,3.5-11.3,9.3c0,3.1,1.3,5.6,3.6,7.2l-4.7,6.8l6,0l3.4-4.9c1,0.2,2,0.3,3.1,0.3c4.9,0,8.7-1.9,10.4-5.2
		c1.3,3.4,4.8,5.3,9.6,5.3c6.4,0,10.1-3,10.1-8.3l0-10.1l-5,0L132.4,248.8z M107.2,253.4c-0.2,0-0.5,0-0.7,0l3.8-5.7l-5.9,0
		l-2.3,3.4c-0.6-0.9-0.9-2-0.9-3.4c0-3.2,1.9-5.2,4.7-5.7c0.2,0,0.4,0,0.5,0c0.3,0,0.5,0,0.8,0c2.8,0,4.8,1.3,5.6,3.5
		c0.1,0.2,0.2,0.4,0.2,0.6c0,0.2,0.1,0.4,0.1,0.6c0,0,0,0,0,0c0,0,0,0,0,0c0,0.3,0.1,0.7,0.1,1C113.3,251.3,110.8,253.4,107.2,253.4
		z"/>
	<polygon points="138.1,238.6 138.1,256.8 143.1,256.8 143.1,238.6 	"/>
	<path d="M182.5,238.6l-18.3,0l0,0l-4.9,0l0,7.7c0,1,0.1,3.3,0.1,4c-0.3-0.5-1.1-1.4-1.8-2.1l-8.8-9.6l-4.8,0l0,18.2h4.9l0-8
		c0-1-0.1-3.3-0.1-4c0.3,0.5,1.1,1.4,1.8,2l9.2,9.9l4.5,0l0-14.6l6.1,0l0,14.6h5l0-14.6l7.2,0L182.5,238.6z"/>
	<path d="M227.5,238.6l-8.3,15.8l0-15.8l-4.9,0l0,7.7c0,1,0.1,3.3,0.1,4c-0.3-0.5-1.1-1.4-1.8-2.1l-8.8-9.6l-4.8,0l0,15.8l-8.2-15.8
		l-4.9,0l-9.6,18.2l5.4,0l2-4l9.1,0l2,4l5.5,0l3.7,0l0-8c0-1-0.1-3.3-0.1-4c0.3,0.5,1.1,1.4,1.7,2l9.2,9.9l3.2,0l0,0l5.4,0l2-4
		l9.1,0l2,4l5.5,0l-9.5-18.2L227.5,238.6z M185.3,249.3l1.6-3.3c0.5-1.1,1-2.2,1.3-2.8c0.3,0.7,0.8,1.8,1.2,2.8l1.6,3.3L185.3,249.3
		z M227,249.3l1.6-3.3c0.5-1.1,1-2.2,1.3-2.8c0.2,0.7,0.7,1.8,1.2,2.8l1.6,3.3L227,249.3z"/>
	<path d="M294.1,238.4c-4.6,0-8.2,1.8-9.9,4.8c-1.7-3.1-5.3-4.8-9.9-4.8c-4.2,0-7.6,1.5-9.4,4c-1.1-2.5-4.4-3.8-8.2-3.8l-11.6,0
		l0,18.2l5,0l0-6.5l5,0l7,10.3l5.8,0l-2.5-3.7l0,0l-4.8-7.1c1.1-0.3,2.1-0.7,2.8-1.3c0.3,5.4,4.7,8.6,11,8.6c4.6,0,8.2-1.7,9.9-4.8
		c1.7,3.1,5.3,4.8,9.9,4.8c6.5,0,11-3.5,11-9.4C305.1,241.9,300.6,238.4,294.1,238.4z M256.6,246.8h-6.5l0-4.7h6.5
		c2.2,0,3.6,0.7,3.6,2.3C260.2,246.1,258.9,246.8,256.6,246.8z M274.3,253.5c-3.5,0-5.9-2.1-5.9-5.8c0-3.7,2.3-5.7,5.8-5.7
		c3.5,0,5.9,2.1,5.9,5.8C280.1,251.4,277.8,253.5,274.3,253.5z M294.1,253.5c-3.5,0-5.9-2.1-5.9-5.8c0-3.7,2.3-5.7,5.8-5.7
		c3.5,0,5.9,2.1,5.9,5.8C299.9,251.4,297.6,253.5,294.1,253.5z"/>
</g>
</svg>
