<?xml version="1.0" encoding="utf-8"?>
<!-- Generator: Adobe Illustrator 19.0.1, SVG Export Plug-In . SVG Version: 6.00 Build 0)  -->
<!DOCTYPE svg PUBLIC "-//W3C//DTD SVG 1.1//EN" "http://www.w3.org/Graphics/SVG/1.1/DTD/svg11.dtd">
<svg version="1.1" id="Layer_1" xmlns="http://www.w3.org/2000/svg" xmlns:xlink="http://www.w3.org/1999/xlink" x="0px" y="0px"
	 viewBox="50 50 300 300" enable-background="new 0 0 400 400" xml:space="preserve">
<style>
  g {
    fill: #6db6aa;
  }
</style>
<g>
	<g>
		<g>
			<path d="M233.9,204.2c-2.9-0.2-40.9-0.9-41.5-1c-0.7-0.1-0.8-2,0.3-2c2,0,36.7,0.3,37.8,0.6c-0.7-0.9-1-1.2-2.4-2.1
				c-0.9-0.6-1.5-0.6-1.5-1.1c-0.3-9.6,0.5-29.6,1.5-30.8c1.9-1.8,3.7-2.9,6.7-3.7c0.4-0.4,0.2-1.7-0.3-1.8
				c-29.6-4.3-48.7-3.1-48.8-3.6c-0.1-0.7,6.5-7.8,26.1-15.5c1.3-0.5-4-3.9-4.9-4.3c-14.4,4.1-42,22.6-41.2,23.6
				c-2.2,2.4,8.3-3.5,15.1-7.5c6.8-4,13.5-8.4,14.5-7.8c-2.1,1.7-13.9,10.7-13.5,13.3c17.7,0.2,34.7,1.6,47.5,3.5
				c1.4,0.3,1.4,1.1,0.1,1c-1.5-0.1-3.5-0.1-5.7,0.3c0,10.8,0.4,22.9,1,33.9c-3,0.1-6.3,0.1-9.4-0.1c-0.3-10.5,0.4-30.3,1.5-31.6
				c0.7-0.8,1.9-1.6,3.4-1.9l0.8-0.7c-2.8-0.3-6.3,0.4-8.4,1c-0.1,10.4,0.1,24.3,0.9,32.3c0,0.5,0.1,0.8-0.4,0.8
				c-0.6,0-7.1-0.1-8.1-0.1c-0.5,0-0.5-0.3-0.5-0.6c0-0.7,0.2-29.7,0.9-31.7c0.6-0.8,1.8-1.3,3.1-1.6l1.1-0.9
				c-2.7,0-5.5,0.2-7.7,1.2c-0.3,11.4,0.2,28.6,0.6,32.9c0,0.6-0.2,0.5-0.6,0.6c-0.3,0-8.5-0.1-8.9-0.1c-0.4,0-0.5-0.4-0.5-0.4
				c-0.4-11,0.2-18.4,1.8-32.9c0.2-0.7,1.4-1.3,2.9-1.7l0.7-1.2c-2.7,0.2-6.1,0.9-7.7,1.9c-0.2,10.1-0.1,22.9,0.2,33.4
				c0,0.8-0.4,0.8-0.9,0.8c-2.3,0-3.3,0.2-3.3,0.2s-20.8,5.9-22,6.7c-0.6,0.3-0.8,1.4-0.8,1.4h73.8
				C236.9,207,235.6,205.2,233.9,204.2z"/>
			<path d="M214.9,145.8c6.8,4.1,13.6,8.9,20.2,13.6c0.2,0.3-0.5,0.7-0.9,0.4c-8.9-4.8-16.4-9-23.7-11.7c-0.7-0.3-1.1-0.8-0.7-1.2
				C211.1,146.1,213.5,145,214.9,145.8"/>
		</g>
		<g>
			<g>
				<path d="M117.6,249.1c-1.4,0-2.5,0.1-3.6,0.1c-0.5,0-1-0.1-1.5-0.1c-0.1,0-0.2,0.1-0.2,0.2c0,0.5,1.4-0.1,1.4,1.6v8.3
					c0,0.9-0.4,1.2-0.7,1.3c-0.7,0.1-1.1,0-1.4-0.5c-0.4-0.6-0.6-1.3-0.8-1.9l-3.5-8.5c0-0.1-0.2-0.6-0.3-0.6
					c-0.2,0-0.3,0.3-1.2,2.4l-4,8.5c-0.4,0.9-1.2,0.7-1.2,1c0,0.1,0,0.2,0.1,0.2c0.4,0,0.9-0.1,1.3-0.1c0.5,0,0.9,0.1,1.4,0.1
					c0.2,0,0.4,0,0.4-0.3c0-0.4-1.2,0.1-1.2-1.1c0-0.2,0.1-0.5,0.1-0.6l1.1-2.3c0.2-0.3,0.5-0.3,0.8-0.3h3.7c0.5,0,0.6,0.3,0.7,0.6
					l0.5,1.4c0.2,0.4,0.5,1.2,0.5,1.6c0,0.6-1,0.5-1,0.9c0,0.2,0.3,0.2,0.4,0.2c0.4,0,0.9-0.1,1.3-0.1c0.7,0,3.7,0,3.8,0
					c0.9,0,1.7,0.1,2.5,0.1c4.6,0,6.4-2.6,6.4-6.5C123.5,251.3,120.6,249.1,117.6,249.1z M107.9,255.5h-3.3c-0.2,0-0.3-0.1-0.2-0.3
					l1.9-4c0.1-0.2,0.2-0.2,0.3,0l1.6,4C108.3,255.4,108.3,255.5,107.9,255.5z M117.6,260.4c-0.8,0-2-0.2-2.6-0.7
					c-0.1-0.1-0.1-0.9-0.1-1.2v-7.9c0-0.8,0.1-1,1.6-1c3.2,0,5.6,2.1,5.6,5.8C122.3,259.1,120,260.4,117.6,260.4z"/>
				<path d="M123.7,250.4c-0.4-1-1.3-0.7-1.3-1c0-0.1,0.1-0.2,0.2-0.2c0.5,0,1,0.1,1.5,0.1c0.5,0,1.1-0.1,1.3-0.1
					c0.1,0,0.2,0.1,0.2,0.2c0,0.2-0.7,0.3-0.7,0.9c0,0.2,0.1,0.5,0.1,0.6l2.9,6.8c0.4,0.9,0.5,1.3,0.7,1.3c0.2,0,0.2-0.3,0.3-0.5
					l2.9-7.1c0.1-0.3,0.3-0.8,0.2-1.1c0-0.8-1.1-0.4-1.1-0.8c0-0.2,0.1-0.2,0.3-0.2c0.4,0,0.7,0.1,1.1,0.1c0.8,0,1-0.1,1.3-0.1
					c0.2,0,0.3,0.1,0.3,0.2c0,0.4-0.5-0.1-0.9,1.1l-4.1,9.8c-0.2,0.4-0.3,1-0.5,1c-0.3,0-0.5-0.7-0.6-1L123.7,250.4z"/>
				<path d="M137.6,253.9c0,0.6,0,0.6,0.6,0.6h1.8c1.7,0,1.3-1.3,1.7-1.3c0.1,0,0.2,0.2,0.2,0.3c0,0.6,0,1.1,0,1.7
					c0,0.4,0,0.9,0,1.3c0,0.1-0.1,0.2-0.2,0.2c-0.5,0,0-1.5-1.3-1.5h-2.5c-0.3,0-0.3,0.3-0.3,0.5v3.1c0,1-0.1,1.4,1.3,1.4
					c3.8,0,4.4-1.7,4.6-1.7c0.1,0,0.1,0.2,0.1,0.2c0,0.6-0.4,1.2-0.8,1.6c-0.5,0.6-0.9,0.6-1.6,0.6c-1.3,0-2.5-0.1-3.8-0.1
					c-0.7,0-1.4,0.1-2,0.1c-0.2,0-0.3,0-0.3-0.2c0-0.2,0.2-0.2,0.7-0.4c0.4-0.2,0.5-0.7,0.5-1.4v-7.6c0-0.7,0-1.5-0.9-1.7
					c-0.1,0-0.5-0.1-0.5-0.3c0-0.1,0.1-0.2,0.6-0.2c3.1,0,4,0.1,4.7,0.1c0.3,0,1.9-0.1,2.4-0.1c0.1,0,0.2,0.2,0.2,0.4
					c0,1.8-0.2,2-0.3,2c-0.4,0-0.1-0.8-0.4-1.2c-0.4-0.6-2.2-0.5-2.8-0.5c-1.6,0-1.6-0.1-1.6,1V253.9z"/>
				<path d="M145.9,252.4c0-3.4-2-2.5-2-3.1c0-0.1,0.2-0.2,0.2-0.2c0.3,0,0.5,0.1,0.8,0.1c0.3,0,0.5-0.1,0.8-0.1
					c0.2,0,0.3,0.3,0.4,0.4l7.9,8.8c0.1,0.1,0.2,0.2,0.2,0.2c0,0,0.1,0,0.1-0.2v-6.9c0-2.2-1.8-1.5-1.8-2.1c0-0.1,0.1-0.2,0.2-0.2
					c0.5,0,1,0.1,1.5,0.1c0.6,0,1.3-0.1,1.7-0.1c0.1,0,0.2,0.1,0.2,0.1c0,0.4-1,0.1-1,1.3v9.6c0,0.5,0,0.7-0.1,0.7
					c-0.1,0-0.3-0.1-0.6-0.5l-7.2-8c0,0-0.2-0.3-0.3-0.3c-0.1,0-0.1,0.1-0.1,0.4v6.8c0,1.5,1.5,0.9,1.5,1.4c0,0.1,0,0.2-0.2,0.2
					c-0.4,0-0.9-0.1-1.7-0.1c-0.6,0-1.4,0.1-1.6,0.1c-0.2,0-0.2-0.1-0.2-0.2c0-0.6,1.5,0.1,1.5-2.2V252.4z"/>
				<path d="M161.7,250.8c0-0.1,0.1-0.7-0.2-0.8h-2.7c-1,0-1.1,0.2-1.4,1.2c0,0.2-0.1,0.4-0.3,0.4c-0.1,0-0.2-0.1-0.2-0.2l0.2-1.6
					c0-0.2,0-0.6,0.3-0.6c1.3,0,2.6,0.1,4.7,0.1c3,0,4.5-0.1,4.9-0.1c0.4,0,0.5,0.1,0.5,0.5l0.1,1.3c0,0.2,0,0.4-0.2,0.4
					c-0.6,0,0.3-1.3-1.4-1.3h-2.4c-0.7,0-0.7-0.1-0.7,0.8v8.5c0,1.4,1.4,0.8,1.4,1.4c0,0,0,0.2-0.2,0.2c-0.4,0-0.9-0.1-1.3-0.1
					c-1.9,0-2.2,0.1-2.3,0.1c-0.1,0-0.2-0.1-0.2-0.2c0-0.4,1.3-0.2,1.3-1.2V250.8z"/>
				<path d="M169.9,250.5c0-1.2-1.3-0.9-1.3-1.2c0-0.1,0-0.2,0.2-0.2c0.6,0,1.2,0.1,1.8,0.1c0.5,0,1-0.1,1.5-0.1
					c0.3,0,0.3,0,0.3,0.2c0,0.4-1.2,0-1.2,1.3v8.9c0,1.1,1.5,0.8,1.5,1.2c0,0.1-0.1,0.2-0.3,0.2c-0.4,0-1.1-0.1-1.8-0.1
					c-1,0-1.4,0.1-1.6,0.1c-0.3,0-0.3-0.1-0.3-0.3c0-0.5,1.3,0.1,1.3-1.6V250.5z"/>
				<path d="M174.2,257.9c-0.1-0.3,0-0.5,0.2-0.5c0.2,0,0.2,0.2,0.3,0.5c0.2,0.8,1.2,2.5,3.5,2.5c1.6,0,3.1-0.9,3.1-2.6
					c0-3.2-6.8-1.4-6.8-5.7c0-2.1,1.8-3.1,3.7-3.1c2,0,2.6,0.6,2.8,0.6c0.1,0,0.2-0.2,0.3-0.2c0.1,0,0.2,0.1,0.2,0.2l0.3,2.3
					c0,0.1,0,0.2-0.2,0.2c-0.2,0-0.3-0.3-0.4-0.5c-0.5-1.4-1.7-2.2-3.2-2.2c-1.3,0-2.7,0.6-2.7,2.2c0,3.1,6.8,1.3,6.8,5.9
					c0,1.4-1,3.5-4.8,3.5c-1.2,0-2.8-0.6-2.8-0.9L174.2,257.9z"/>
				<path d="M187.7,250.8c0-0.1,0.1-0.7-0.2-0.8h-2.7c-1,0-1.1,0.2-1.4,1.2c0,0.2-0.1,0.4-0.3,0.4c-0.1,0-0.2-0.1-0.2-0.2l0.2-1.6
					c0-0.2,0-0.6,0.3-0.6c1.3,0,2.6,0.1,4.7,0.1c3,0,4.5-0.1,4.9-0.1c0.4,0,0.5,0.1,0.5,0.5l0.1,1.3c0,0.2,0,0.4-0.2,0.4
					c-0.6,0,0.3-1.3-1.4-1.3h-2.4c-0.8,0-0.7-0.1-0.7,0.8v8.5c0,1.4,1.3,0.8,1.3,1.4c0,0,0,0.2-0.1,0.2c-0.4,0-0.9-0.1-1.4-0.1
					c-1.9,0-2.2,0.1-2.3,0.1c-0.1,0-0.2-0.1-0.2-0.2c0-0.4,1.3-0.2,1.3-1.2V250.8z"/>
			</g>
			<g>
				<path d="M100.4,236.6c-0.2-0.8,0-1.2,0.4-1.2c0.5,0,0.5,0.4,0.7,1.2c0.5,1.7,2.7,5.6,8,5.6c3.6,0,7.1-2,7.1-5.9
					c0-7.3-15.4-3.2-15.4-13c0-4.8,4.1-7.1,8.4-7.1c4.6,0,5.8,1.4,6.4,1.4c0.3,0,0.4-0.4,0.8-0.4c0.2,0,0.4,0.1,0.5,0.5l0.6,5.1
					c0,0.3,0,0.6-0.4,0.6c-0.4,0-0.7-0.8-0.8-1.1c-1.1-3.2-3.9-4.9-7.2-4.9c-3,0-6.2,1.4-6.2,4.9c0,7.1,15.4,2.9,15.4,13.3
					c0,3.2-2.2,7.9-10.8,7.9c-2.8,0-6.3-1.4-6.4-2.1L100.4,236.6z"/>
				<path d="M120.4,229.8c0-7.8,6.1-13.5,13.9-13.5c7.7,0,13.7,5.5,13.7,13.3c0,8.5-5.9,13.9-14.3,13.9
					C125.4,243.6,120.4,237.8,120.4,229.8z M123.2,228.8c0,7,4.6,13.7,12.1,13.7c5.5,0,10-4.4,10-11.4c0-6.8-4.7-13.5-12.1-13.5
					C126.8,217.6,123.2,222.8,123.2,228.8z"/>
				<path d="M153.5,233.3c0,6,4,8.8,9.1,8.8c7.1,0,8.8-4.7,8.8-9.1v-12.2c0-3.8-3.5-2.3-3.5-3.7c0-0.2,0.3-0.4,0.4-0.4
					c1.5,0,3,0.2,4.4,0.2c0.7,0,1.4-0.2,2.1-0.2c0.2,0,0.5,0.2,0.5,0.4c0,1-2.2,0.2-2.2,3.7v11.7c0,1.8,0.5,11.1-10.6,11.1
					c-10,0-11.9-5.5-11.9-11.3v-12.7c0-2.2-3.1-1.3-3.1-2.5c0-0.3,0.6-0.4,0.8-0.4c1,0,1.9,0.2,3,0.2c1.2,0,2.4-0.2,3.6-0.2
					c0.2,0,1.2-0.1,1.2,0.4c0,1.1-2.5,0-2.5,2.7V233.3z"/>
				<path d="M186.9,220.5c0-0.3,0.2-1.7-0.4-1.7h-6.2c-2.4,0-2.4,0.6-3.1,2.6c-0.1,0.4-0.2,0.9-0.6,0.9c-0.2,0-0.4-0.3-0.4-0.5
					l0.4-3.6c0-0.5,0-1.5,0.7-1.5c3,0,5.9,0.2,10.8,0.2c6.9,0,10.4-0.2,11.1-0.2c0.9,0,1.1,0.2,1.1,1.1l0.2,3c0,0.4,0.1,0.8-0.4,0.8
					c-1.4,0,0.6-2.9-3.2-2.9h-5.4c-1.7,0-1.5-0.2-1.5,1.8v19.2c0,3.2,3.1,1.9,3.1,3.1c0,0.1,0,0.4-0.3,0.4c-0.9,0-2-0.1-3.1-0.1
					c-4.2,0-5,0.1-5.2,0.1c-0.3,0-0.5-0.1-0.5-0.5c0-0.9,3-0.5,3-2.8V220.5z"/>
				<path d="M204.6,219.9c0-2.7-3.3-2-3.3-2.8c0-0.3,0.3-0.4,0.6-0.4c1.4,0,2.8,0.2,4.2,0.2c1.2,0,2.4-0.2,3.5-0.2
					c0.6,0,0.7,0.2,0.7,0.4c0,0.8-2.7,0-2.7,2.9v8.1c0,0.5,0,0.7,0.6,0.7H222c0.4,0,0.3-0.9,0.3-1.1v-7.7c0-2.6-2.8-2-2.8-2.8
					c0-0.2,0.1-0.4,0.6-0.4c1.2,0,3.2,0.2,3.9,0.2c1.4,0,2-0.2,2.7-0.2c1,0,1.1,0.4,1.1,0.6c0,0.7-2.5,0-2.5,2.6v19.9
					c0,2.7,3.4,2.1,3.4,3c0,0.1-0.1,0.4-0.4,0.4c-1,0-2.2-0.1-3.6-0.1c-2.4,0-3.5,0.1-4.2,0.1c-0.3,0-0.9,0.1-0.9-0.5
					c0-0.9,2.7-0.4,2.7-2.7v-9c0-0.6,0.2-0.9-0.3-0.9h-14c-0.5,0-0.5,0.2-0.5,0.6v9.4c0,2.6,3.6,1.7,3.6,2.9c0,0.2-0.3,0.3-0.6,0.3
					c-0.5,0-3.3-0.1-5.3-0.1c-2.7,0-3.1,0.1-3.3,0.1c-0.3,0-0.4-0.2-0.4-0.6c0-1.1,3,0.1,3-3.6V219.9z"/>
				<path d="M236.7,227.6c0,1.3-0.1,1.3,1.4,1.3h4.1c4,0,2.9-3,3.8-3c0.3,0,0.4,0.4,0.4,0.7c0,1.3-0.1,2.6-0.1,3.8c0,1,0.1,2,0.1,3
					c0,0.3-0.2,0.5-0.4,0.5c-1.2,0,0.1-3.3-3.1-3.3h-5.6c-0.8,0-0.7,0.6-0.7,1.2v6.9c0,2.2-0.3,3.1,2.9,3.1c8.8,0,10.1-3.9,10.5-3.9
					c0.3,0,0.3,0.4,0.3,0.5c0,1.4-1,2.7-1.9,3.6c-1.2,1.4-2,1.3-3.7,1.3c-2.9,0-5.8-0.2-8.7-0.1c-1.5,0-3.1,0.1-4.6,0.1
					c-0.3,0-0.6-0.1-0.6-0.4c0.1-0.5,0.5-0.4,1.7-1c1-0.5,1.1-1.5,1.1-3.3v-17.1c0-1.7,0-3.5-2-3.8c-0.3-0.1-1.1-0.1-1.1-0.6
					c0-0.3,0.2-0.5,1.3-0.5c7.2,0,9.1,0.2,10.7,0.2c0.8,0,4.3-0.2,5.4-0.2c0.3,0,0.4,0.4,0.4,0.8c0,4.2-0.5,4.5-0.8,4.5
					c-0.9,0-0.3-1.8-0.9-2.7c-1-1.3-4.9-1.1-6.5-1.1c-3.6,0-3.6-0.1-3.6,2.4V227.6z"/>
				<path d="M299.3,216.7c-0.9,0-2.5,0.2-3.8,0.2c-1.2,0-2.3-0.2-3.5-0.2c-0.2,0-0.4,0.1-0.4,0.4c0,1.2,4.2-0.2,4.2,4.7v15.7
					c0,0.3,0,0.4-0.1,0.4c-0.1,0-0.2-0.2-0.5-0.4l-18.1-20c-0.2-0.3-0.6-0.9-1-0.9c-0.6,0-1.2,0.2-1.7,0.2c-0.6,0-1.2-0.2-1.8-0.2
					c-0.2,0-0.6,0.2-0.6,0.4c0,1.4,4.6-0.8,4.6,7V238c0,3.1-0.7,4.1-2.1,4.1c-1.2-0.1-1.9-1.2-3-2.9l-6.3-9.5c2.7-1,4.8-3.6,4.8-6.5
					c0-7.2-8.4-6.5-9-6.5c-2,0-4.1,0.2-6.3,0.2c-1.9,0-1.7-0.2-2.4-0.2c-0.5,0-0.8,0.2-0.8,0.5c0,1.3,3.3-0.3,3.3,3.3v19.1
					c0,2.9-2.8,2.3-2.8,3.3c0,0.2,0.2,0.4,0.4,0.4c1.4,0,2.9-0.1,4.3-0.1c3.2,0,4,0.1,4.4,0.1c0.3,0,0.6,0.1,0.6-0.3
					c0-1.3-3.9-0.1-3.9-3.3v-7.9c0-0.4-0.2-1.1,1-1.1c4.2,0,3.7-0.1,5,2l4.2,6.6c1.4,2.1,2.9,4.1,5.7,4.1c0,0,6.7,0,7.6,0
					c0.4,0,0.4-0.3,0.4-0.5c0-1-3.3,0.3-3.3-3.1v-15.4c0-0.8,0.1-0.9,0.3-0.9c0.3,0,0.7,0.6,0.8,0.7l16.3,18.2c0.8,0.9,1.2,1,1.4,1
					c0.3,0,0.3-0.5,0.3-1.6v-21.8c0-2.7,2.2-2.1,2.2-3C299.6,216.8,299.5,216.7,299.3,216.7z M261.8,229.4c-1.8,0-4.1,0.2-4.1-0.5
					v-9.5c0-1.5,0.8-1.4,2.2-1.4c3.7,0,7.2,1.5,7.2,6.1C267,228.7,263.4,229.4,261.8,229.4z"/>
			</g>
			<g>
				<path d="M203,256.4c0,2.7,1.7,3.9,4,3.9c3.1,0,3.8-2.1,3.8-4v-5.4c0-1.7-1.6-1-1.6-1.6c0-0.1,0.1-0.2,0.2-0.2
					c0.7,0,1.3,0.1,1.9,0.1c0.3,0,0.6-0.1,0.9-0.1c0.1,0,0.2,0.1,0.2,0.2c0,0.5-1,0.1-1,1.6v5.1c0,0.8,0.2,4.9-4.6,4.9
					c-4.4,0-5.2-2.4-5.2-5v-5.6c0-1-1.3-0.6-1.3-1.1c0-0.1,0.3-0.2,0.4-0.2c0.4,0,0.8,0.1,1.3,0.1c0.5,0,1.1-0.1,1.6-0.1
					c0.1,0,0.5,0,0.5,0.2c0,0.5-1.1,0-1.1,1.2V256.4z"/>
				<path d="M215.2,252.4c0-3.4-2-2.5-2-3.1c0-0.1,0.2-0.2,0.2-0.2c0.3,0,0.5,0.1,0.8,0.1c0.3,0,0.5-0.1,0.8-0.1
					c0.2,0,0.3,0.3,0.4,0.4l7.9,8.8c0.1,0.1,0.2,0.2,0.2,0.2c0,0,0.1,0,0.1-0.2v-6.9c0-2.2-1.8-1.5-1.8-2.1c0-0.1,0.1-0.2,0.2-0.2
					c0.5,0,1,0.1,1.5,0.1c0.6,0,1.3-0.1,1.7-0.1c0.1,0,0.2,0.1,0.2,0.1c0,0.4-1,0.1-1,1.3v9.6c0,0.5,0,0.7-0.2,0.7
					c-0.1,0-0.3-0.1-0.6-0.5l-7.2-8c0,0-0.2-0.3-0.4-0.3c-0.1,0-0.1,0.1-0.1,0.4v6.8c0,1.5,1.5,0.9,1.5,1.4c0,0.1,0,0.2-0.2,0.2
					c-0.4,0-0.9-0.1-1.7-0.1c-0.6,0-1.4,0.1-1.6,0.1c-0.2,0-0.2-0.1-0.2-0.2c0-0.6,1.5,0.1,1.5-2.2V252.4z"/>
				<path d="M228.2,250.5c0-1.2-1.3-0.9-1.3-1.2c0-0.1,0-0.2,0.2-0.2c0.6,0,1.2,0.1,1.8,0.1c0.5,0,1-0.1,1.5-0.1
					c0.3,0,0.3,0,0.3,0.2c0,0.4-1.2,0-1.2,1.3v8.9c0,1.1,1.5,0.8,1.5,1.2c0,0.1-0.1,0.2-0.3,0.2c-0.4,0-1.1-0.1-1.8-0.1
					c-1,0-1.4,0.1-1.6,0.1c-0.3,0-0.4-0.1-0.4-0.3c0-0.5,1.3,0.1,1.3-1.6V250.5z"/>
				<path d="M233,250.4c-0.4-1-1.3-0.7-1.3-1c0-0.1,0.1-0.2,0.2-0.2c0.5,0,1,0.1,1.5,0.1c0.5,0,1.1-0.1,1.3-0.1
					c0.1,0,0.2,0.1,0.2,0.2c0,0.2-0.7,0.3-0.7,0.9c0,0.2,0.1,0.5,0.2,0.6l2.9,6.8c0.4,0.9,0.5,1.3,0.7,1.3c0.2,0,0.2-0.3,0.3-0.5
					l2.9-7.1c0.1-0.3,0.3-0.8,0.2-1.1c0-0.8-1.1-0.4-1.1-0.8c0-0.2,0.1-0.2,0.2-0.2c0.4,0,0.7,0.1,1.1,0.1c0.8,0,1-0.1,1.3-0.1
					c0.2,0,0.3,0.1,0.3,0.2c0,0.4-0.5-0.1-0.9,1.1l-4.2,9.8c-0.2,0.4-0.3,1-0.5,1c-0.3,0-0.5-0.7-0.6-1L233,250.4z"/>
				<path d="M246.9,253.9c0,0.6,0,0.6,0.6,0.6h1.8c1.7,0,1.3-1.3,1.7-1.3c0.1,0,0.2,0.2,0.2,0.3c0,0.6,0,1.1,0,1.7
					c0,0.4,0,0.9,0,1.3c0,0.1-0.1,0.2-0.2,0.2c-0.5,0,0-1.5-1.3-1.5h-2.5c-0.3,0-0.3,0.3-0.3,0.5v3.1c0,1-0.1,1.4,1.3,1.4
					c3.8,0,4.4-1.7,4.6-1.7c0.1,0,0.1,0.2,0.1,0.2c0,0.6-0.4,1.2-0.8,1.6c-0.5,0.6-0.9,0.6-1.6,0.6c-1.3,0-2.5-0.1-3.8-0.1
					c-0.7,0-1.4,0.1-2,0.1c-0.1,0-0.2,0-0.2-0.2c0-0.2,0.2-0.2,0.7-0.4c0.4-0.2,0.5-0.7,0.5-1.4v-7.6c0-0.7,0-1.5-0.9-1.7
					c-0.1,0-0.5-0.1-0.5-0.3c0-0.1,0.1-0.2,0.6-0.2c3.1,0,4,0.1,4.7,0.1c0.3,0,1.9-0.1,2.4-0.1c0.1,0,0.2,0.2,0.2,0.4
					c0,1.8-0.2,2-0.3,2c-0.4,0-0.1-0.8-0.4-1.2c-0.4-0.6-2.2-0.5-2.8-0.5c-1.6,0-1.6-0.1-1.6,1V253.9z"/>
				<path d="M272.8,250.5c0-1.2-1.3-0.9-1.3-1.2c0-0.1,0-0.2,0.2-0.2c0.6,0,1.2,0.1,1.8,0.1c0.5,0,1-0.1,1.5-0.1
					c0.3,0,0.3,0,0.3,0.2c0,0.4-1.2,0-1.2,1.3v8.9c0,1.1,1.5,0.8,1.5,1.2c0,0.1,0,0.2-0.3,0.2c-0.4,0-1.1-0.1-1.8-0.1
					c-1,0-1.4,0.1-1.6,0.1c-0.3,0-0.3-0.1-0.3-0.3c0-0.5,1.3,0.1,1.3-1.6V250.5z"/>
				<path d="M281.4,250.8c0-0.1,0.1-0.7-0.2-0.8h-2.7c-1,0-1.1,0.2-1.4,1.2c-0.1,0.2-0.1,0.4-0.3,0.4c-0.1,0-0.2-0.1-0.2-0.2
					l0.2-1.6c0-0.2,0-0.6,0.3-0.6c1.3,0,2.6,0.1,4.7,0.1c3,0,4.5-0.1,4.9-0.1c0.4,0,0.5,0.1,0.5,0.5l0.1,1.3c0,0.2,0,0.4-0.2,0.4
					c-0.6,0,0.3-1.3-1.4-1.3h-2.4c-0.7,0-0.7-0.1-0.7,0.8v8.5c0,1.4,1.3,0.8,1.3,1.4c0,0,0,0.2-0.2,0.2c-0.4,0-0.9-0.1-1.3-0.1
					c-1.9,0-2.2,0.1-2.3,0.1c-0.2,0-0.2-0.1-0.2-0.2c0-0.4,1.3-0.2,1.3-1.2V250.8z"/>
				<path d="M289.2,250.1c-0.4-0.7-1.2-0.5-1.2-0.8c0-0.1,0.1-0.3,0.2-0.3c0.4,0,0.8,0.1,1.9,0.1c0.5,0,1-0.1,1.2-0.1
					c0.1,0,0.3,0,0.3,0.2c0,0.3-0.8,0.3-0.8,0.8c0,0.3,0.2,0.5,0.3,0.7l2,3.2c0.1,0.2,0.2,0.3,0.3,0.3c0.1,0,0.2-0.1,0.3-0.3
					l1.7-2.8c0.1-0.2,0.4-0.5,0.4-0.9c0-0.8-1.2-0.5-1.2-0.9c0-0.2,0.2-0.3,0.3-0.3c0.4,0,0.8,0.1,1.2,0.1c0.5,0,1-0.1,1.4-0.1
					c0.1,0,0.2,0.1,0.2,0.2c0,0.2-0.3,0.2-0.4,0.3c-0.4,0.3-0.7,0.7-0.9,1.1l-2.3,3.6c-0.3,0.4-0.4,0.5-0.4,0.7v4.1
					c0,1.4,1.4,1,1.4,1.5c0,0.1-0.1,0.2-0.4,0.2c-0.2,0-1.2-0.1-1.8-0.1c-0.8,0-1.3,0.1-1.5,0.1c-0.2,0-0.3,0-0.3-0.2
					c0-0.5,1.3,0,1.3-1.2v-4c0-0.3-0.3-0.6-0.4-0.8L289.2,250.1z"/>
				<path d="M263.9,251.6c0-1.5,1.4-2.2,2.7-2.2c1.5,0,2.7,0.7,3.2,2.2c0.1,0.1,0.2,0.5,0.4,0.5c0.2,0,0.2-0.1,0.2-0.2l-0.2-2.3
					c0-0.2-0.1-0.2-0.2-0.2c-0.2,0-0.2,0.2-0.3,0.2c-0.2,0-0.8-0.6-2.8-0.6c-1.9,0-3.7,1-3.7,3.1c0,4.3,6.7,2.5,6.7,5.7
					c0,1.7-1.5,2.6-3.1,2.6c-1.1,0-3.1,0.3-4.7-2l-2.4-3.6c1.2-0.5,2.1-1.6,2.1-2.9c0-3.2-3.7-2.9-3.9-2.9c-0.9,0-1.8,0.1-2.8,0.1
					c-0.8,0-0.8-0.1-1.1-0.1c-0.2,0-0.3,0.1-0.3,0.2c0,0.6,1.4-0.1,1.4,1.5v8.4c0,1.3-1.2,1-1.2,1.4c0,0.1,0.1,0.2,0.2,0.2
					c0.6,0,1.3-0.1,1.9-0.1c1.4,0,1.8,0.1,1.9,0.1c0.1,0,0.3,0,0.3-0.1c0-0.6-1.7-0.1-1.7-1.5v-3.5c0-0.2-0.1-0.5,0.4-0.5
					c1.9,0,1.6-0.1,2.2,0.9l1.8,2.9c0.5,0.8,1.1,1.5,2,1.7l0,0c0.4,0.2,2.1,0.2,3.3,0.2c4,0,4.6-2.2,4.6-3.6
					C270.6,252.9,263.9,254.7,263.9,251.6z M258.1,254.7c-0.8,0-1.8,0.1-1.8-0.2v-4.2c0-0.6,0.4-0.6,0.9-0.6c1.6,0,3.2,0.7,3.2,2.7
					C260.4,254.4,258.8,254.7,258.1,254.7z"/>
			</g>
		</g>
	</g>
</g>
</svg>
