<?xml version="1.0" encoding="utf-8"?>
<!-- Generator: Adobe Illustrator 19.0.1, SVG Export Plug-In . SVG Version: 6.00 Build 0)  -->
<!DOCTYPE svg PUBLIC "-//W3C//DTD SVG 1.1//EN" "http://www.w3.org/Graphics/SVG/1.1/DTD/svg11.dtd">
<svg version="1.1" id="Layer_1" xmlns="http://www.w3.org/2000/svg" xmlns:xlink="http://www.w3.org/1999/xlink" x="0px" y="0px"
	 viewBox="50 50 300 300" enable-background="new 0 0 400 400" xml:space="preserve">
<style>
  g {
    fill: #6db6aa;
  }
</style>
<g>
	<g>
		<g>
			<g>
				<g>
					<path d="M268.5,246.7v-0.8h3.6v0.8h-1.3v3.6h-1v-3.6H268.5z"/>
				</g>
				<g>
					<path d="M273.8,245.9l1,3h0l1-3h1.4v4.4h-0.9v-3.1h0l-1.1,3.1h-0.7l-1.1-3.1h0v3.1h-0.9v-4.4H273.8z"/>
				</g>
			</g>
			<g>
				<g>
					<path d="M135.3,250.3v21.6h-4.9v-21.6h-7.5v-4.4h20.2v4.4H135.3z"/>
				</g>
				<g>
					<path d="M153.1,266h4.4v0.7c0,3.6-2.7,5.3-8,5.3c-3.6,0-6-0.6-7.1-1.8c-1.1-1.2-1.7-3.8-1.7-7.8c0-3.5,0.6-5.9,1.8-7.1
						c1.2-1.2,3.4-1.8,6.8-1.8c3.3,0,5.4,0.6,6.5,1.8c1.1,1.2,1.7,3.5,1.7,7v1.3h-12.3c0,0.4,0,0.7,0,0.8c0,1.8,0.3,3,0.8,3.6
						c0.6,0.6,1.7,0.9,3.3,0.9c1.6,0,2.6-0.2,3.1-0.5C152.8,267.9,153.1,267.2,153.1,266z M153.1,260.9l0-0.7c0-1.4-0.2-2.4-0.8-2.8
						c-0.5-0.4-1.6-0.6-3.3-0.6c-1.6,0-2.7,0.3-3.2,0.8c-0.5,0.5-0.7,1.7-0.7,3.4H153.1z"/>
				</g>
				<g>
					<path d="M171.9,264.9h4.3v0.6l-0.3,2.8c-0.5,2.5-3.1,3.8-7.8,3.8c-3.4,0-5.7-0.6-6.8-1.9c-1.1-1.2-1.7-3.7-1.7-7.5
						c0-3.7,0.6-6.1,1.7-7.4c1.1-1.3,3.3-1.9,6.6-1.9c3.1,0,5.3,0.5,6.4,1.4c1.1,0.9,1.7,2.7,1.7,5.2h-4.3c0-2.1-1.2-3.2-3.7-3.2
						c-1.7,0-2.8,0.3-3.3,1c-0.4,0.7-0.7,2.3-0.7,5c0,2.5,0.2,4.1,0.7,4.8c0.5,0.7,1.7,1,3.6,1c1.5,0,2.5-0.2,2.9-0.7
						C171.7,267.5,171.9,266.5,171.9,264.9z"/>
				</g>
				<g>
					<path d="M182.9,245.9v10.8l0.1,0c0.8-2.2,2.7-3.2,5.6-3.2c4.3,0,6.4,2,6.4,6v12.4h-4.4v-11.2v-0.6c0-2.1-1.1-3.2-3.3-3.2
						c-3,0-4.5,1.5-4.5,4.6v10.3h-4.4v-26H182.9z"/>
				</g>
				<g>
					<path d="M207.7,250.3v21.6h-4.9v-21.6h-7.5v-4.4h20.2v4.4H207.7z"/>
				</g>
				<g>
					<path d="M221.4,253.4c3.5,0,5.8,0.6,6.9,1.7c1.1,1.1,1.6,3.5,1.6,7.1c0,4-0.5,6.7-1.6,7.9c-1.1,1.3-3.3,1.9-6.7,1.9
						c-3.7,0-6.1-0.6-7.2-1.8c-1.1-1.2-1.6-3.7-1.6-7.7c0-3.8,0.5-6.3,1.6-7.4C215.4,254,217.8,253.4,221.4,253.4z M221.4,256.9
						c-1.8,0-3,0.3-3.5,1c-0.5,0.7-0.7,2.2-0.7,4.6c0,2.7,0.2,4.5,0.7,5.1c0.5,0.7,1.6,1,3.5,1c1.8,0,3-0.4,3.4-1.1
						c0.5-0.7,0.7-2.5,0.7-5.2c0-2.3-0.2-3.8-0.7-4.5C224.3,257.2,223.1,256.9,221.4,256.9z"/>
				</g>
				<g>
					<path d="M258.6,253.6l-4.1,18.2H248l-1.8-8.2c-0.3-1.4-0.6-2.5-0.7-3.2l-0.3-1.6l-0.3-1.6h-0.1l-0.3,1.6l-0.3,1.6
						c-0.1,0.7-0.4,1.8-0.7,3.2l-1.8,8.2H235l-4.1-18.2h4.4l1.8,8.4c0.2,1.1,0.4,2.2,0.6,3.4l0.3,1.7l0.3,1.7h0.1l0.4-1.7l0.4-1.7
						c0.2-0.8,0.5-2,0.8-3.4l2-8.5h5.6l2,8.5c0.4,1.6,0.6,2.7,0.8,3.4l0.4,1.7l0.4,1.7h0.1l0.3-1.7l0.3-1.7c0.2-1.2,0.4-2.3,0.7-3.4
						l1.8-8.4H258.6z"/>
				</g>
				<g>
					<path d="M260.8,253.6h4.3l-0.2,3.1l0.1,0c0.9-2.2,2.8-3.3,5.7-3.3c4.3,0,6.5,2,6.5,6v12.4h-4.4v-11v-0.7l-0.1-1.3
						c-0.2-1.4-1.3-2-3.2-2c-2.9,0-4.4,1.4-4.4,4.2v10.8h-4.4V253.6z"/>
				</g>
			</g>
		</g>
	</g>
	<g>
		<g>
			<g>
				<path d="M128.3,203.4c0-1.8-1.3-3.4-3.1-3.7c-0.2-0.1-0.5-0.1-0.8-0.1c-2.1,0-3.8,1.7-3.8,3.8c0,1.5,0.9,2.8,2.2,3.4v30.2h3.4
					v-30.3C127.5,206.2,128.3,204.9,128.3,203.4z M125.7,203.4c0,0.6-0.5,1.2-1.2,1.2c-0.6,0-1.2-0.5-1.2-1.2s0.5-1.2,1.2-1.2
					C125.2,202.3,125.7,202.8,125.7,203.4z"/>
				<path d="M135.9,195.9c0-1.8-1.3-3.4-3.1-3.7c-0.2-0.1-0.5-0.1-0.8-0.1c-2.1,0-3.8,1.7-3.8,3.8c0,1.5,0.9,2.8,2.2,3.4v37.8h3.4
					v-37.8C135.1,198.6,135.9,197.4,135.9,195.9z M133.3,195.9c0,0.6-0.5,1.2-1.2,1.2c-0.6,0-1.2-0.5-1.2-1.2s0.5-1.2,1.2-1.2
					C132.7,194.7,133.3,195.2,133.3,195.9z"/>
				<path d="M143.4,203.4c0-1.8-1.3-3.4-3.1-3.7c-0.2-0.1-0.5-0.1-0.8-0.1c-2.1,0-3.8,1.7-3.8,3.8c0,1.5,0.9,2.8,2.2,3.4v30.2h3.4
					v-30.3C142.6,206.2,143.4,204.9,143.4,203.4z M140.8,203.4c0,0.6-0.5,1.2-1.2,1.2c-0.6,0-1.2-0.5-1.2-1.2s0.5-1.2,1.2-1.2
					C140.3,202.3,140.8,202.8,140.8,203.4z"/>
			</g>
			<g>
				<path d="M234,175.5c0-1.8-1.3-3.4-3.1-3.7c-0.2-0.1-0.5-0.1-0.8-0.1c-2.1,0-3.8,1.7-3.8,3.8c0,1.5,0.9,2.8,2.2,3.4v58.1h3.4
					v-58.2C233.2,178.2,234,177,234,175.5z M231.4,175.5c0,0.6-0.5,1.2-1.2,1.2c-0.6,0-1.2-0.5-1.2-1.2s0.5-1.2,1.2-1.2
					C230.8,174.3,231.4,174.9,231.4,175.5z"/>
				<path d="M241.5,168c0-1.8-1.3-3.4-3.1-3.7c-0.2-0.1-0.5-0.1-0.8-0.1c-2.1,0-3.8,1.7-3.8,3.8c0,1.5,0.9,2.8,2.2,3.4v65.7h3.4
					v-65.7C240.7,170.7,241.5,169.4,241.5,168z M238.9,168c0,0.6-0.5,1.2-1.2,1.2c-0.6,0-1.2-0.5-1.2-1.2c0-0.6,0.5-1.2,1.2-1.2
					C238.4,166.8,238.9,167.3,238.9,168z"/>
				<path d="M249.1,175.5c0-1.8-1.3-3.4-3.1-3.7c-0.2-0.1-0.5-0.1-0.8-0.1c-2.1,0-3.8,1.7-3.8,3.8c0,1.5,0.9,2.8,2.2,3.4v58.1h3.4
					v-58.2C248.3,178.2,249.1,177,249.1,175.5z M246.4,175.5c0,0.6-0.5,1.2-1.2,1.2c-0.6,0-1.2-0.5-1.2-1.2s0.5-1.2,1.2-1.2
					C245.9,174.3,246.4,174.9,246.4,175.5z"/>
			</g>
			<g>
				<path d="M196.3,152.9c0-1.8-1.3-3.4-3.1-3.7c-0.2-0.1-0.5-0.1-0.8-0.1c-2.1,0-3.8,1.7-3.8,3.8c0,1.5,0.9,2.8,2.2,3.4v80.8h3.4
					v-80.8C195.4,155.6,196.3,154.3,196.3,152.9z M193.6,152.9c0,0.6-0.5,1.2-1.2,1.2s-1.2-0.5-1.2-1.2c0-0.6,0.5-1.2,1.2-1.2
					S193.6,152.2,193.6,152.9z"/>
				<path d="M203.8,131.7c0-1.8-1.3-3.4-3.1-3.7c-0.2-0.1-0.5-0.1-0.8-0.1c-2.1,0-3.8,1.7-3.8,3.8c0,1.5,0.9,2.8,2.2,3.4v101.9h3.4
					v-102C203,134.5,203.8,133.2,203.8,131.7z M201.2,131.7c0,0.6-0.5,1.2-1.2,1.2s-1.2-0.5-1.2-1.2c0-0.6,0.5-1.2,1.2-1.2
					S201.2,131.1,201.2,131.7z"/>
				<path d="M211.4,152.9c0-1.8-1.3-3.4-3.1-3.7c-0.2-0.1-0.5-0.1-0.8-0.1c-2.1,0-3.8,1.7-3.8,3.8c0,1.5,0.9,2.8,2.2,3.4v80.8h3.4
					v-80.8C210.5,155.6,211.4,154.3,211.4,152.9z M208.7,152.9c0,0.6-0.5,1.2-1.2,1.2s-1.2-0.5-1.2-1.2c0-0.6,0.5-1.2,1.2-1.2
					S208.7,152.2,208.7,152.9z"/>
				<path d="M188.7,183.1c0-1.8-1.3-3.4-3.1-3.7c-0.2-0.1-0.5-0.1-0.8-0.1c-2.1,0-3.8,1.7-3.8,3.8c0,1.5,0.9,2.8,2.2,3.4v50.6h3.4
					v-50.6C187.9,185.8,188.7,184.5,188.7,183.1z M186.1,183.1c0,0.6-0.5,1.2-1.2,1.2s-1.2-0.5-1.2-1.2s0.5-1.2,1.2-1.2
					S186.1,182.4,186.1,183.1z"/>
				<path d="M218.9,183.1c0-1.8-1.3-3.4-3.1-3.7c-0.2-0.1-0.5-0.1-0.8-0.1c-2.1,0-3.8,1.7-3.8,3.8c0,1.5,0.9,2.8,2.2,3.4v50.6h3.4
					v-50.6C218.1,185.8,218.9,184.5,218.9,183.1z M216.3,183.1c0,0.6-0.5,1.2-1.2,1.2c-0.6,0-1.2-0.5-1.2-1.2s0.5-1.2,1.2-1.2
					C215.7,181.9,216.3,182.4,216.3,183.1z"/>
			</g>
			<g>
				<path d="M264.2,203.4c0-1.8-1.3-3.4-3.1-3.7c-0.2-0.1-0.5-0.1-0.8-0.1c-2.1,0-3.8,1.7-3.8,3.8c0,1.5,0.9,2.8,2.2,3.4v30.2h3.4
					v-30.3C263.3,206.2,264.2,204.9,264.2,203.4z M261.5,203.4c0,0.6-0.5,1.2-1.2,1.2c-0.6,0-1.2-0.5-1.2-1.2s0.5-1.2,1.2-1.2
					C261,202.3,261.5,202.8,261.5,203.4z"/>
				<path d="M271.7,195.9c0-1.8-1.3-3.4-3.1-3.7c-0.2-0.1-0.5-0.1-0.8-0.1c-2.1,0-3.8,1.7-3.8,3.8c0,1.5,0.9,2.8,2.2,3.4v37.8h3.4
					v-37.8C270.9,198.6,271.7,197.4,271.7,195.9z M269.1,195.9c0,0.6-0.5,1.2-1.2,1.2s-1.2-0.5-1.2-1.2s0.5-1.2,1.2-1.2
					S269.1,195.2,269.1,195.9z"/>
				<path d="M279.3,203.4c0-1.8-1.3-3.4-3.1-3.7c-0.2-0.1-0.5-0.1-0.8-0.1c-2.1,0-3.8,1.7-3.8,3.8c0,1.5,0.9,2.8,2.2,3.4v30.2h3.4
					v-30.3C278.4,206.2,279.3,204.9,279.3,203.4z M276.6,203.4c0,0.6-0.5,1.2-1.2,1.2c-0.6,0-1.2-0.5-1.2-1.2s0.5-1.2,1.2-1.2
					C276.1,202.3,276.6,202.8,276.6,203.4z"/>
			</g>
		</g>
		<g>
			<path d="M158.5,175.5c0-1.8-1.3-3.4-3.1-3.7c-0.2-0.1-0.5-0.1-0.8-0.1c-2.1,0-3.8,1.7-3.8,3.8c0,1.5,0.9,2.8,2.2,3.4v58.1h3.4
				v-58.2C157.7,178.2,158.5,177,158.5,175.5z M155.9,175.5c0,0.6-0.5,1.2-1.2,1.2c-0.6,0-1.2-0.5-1.2-1.2s0.5-1.2,1.2-1.2
				C155.4,174.3,155.9,174.9,155.9,175.5z"/>
			<path d="M166.1,168c0-1.8-1.3-3.4-3.1-3.7c-0.2-0.1-0.5-0.1-0.8-0.1c-2.1,0-3.8,1.7-3.8,3.8c0,1.5,0.9,2.8,2.2,3.4v65.7h3.4
				v-65.7C165.2,170.7,166.1,169.4,166.1,168z M163.4,168c0,0.6-0.5,1.2-1.2,1.2c-0.6,0-1.2-0.5-1.2-1.2c0-0.6,0.5-1.2,1.2-1.2
				C162.9,166.8,163.4,167.3,163.4,168z"/>
			<path d="M173.6,175.5c0-1.8-1.3-3.4-3.1-3.7c-0.2-0.1-0.5-0.1-0.8-0.1c-2.1,0-3.8,1.7-3.8,3.8c0,1.5,0.9,2.8,2.2,3.4v58.1h3.4
				v-58.2C172.8,178.2,173.6,177,173.6,175.5z M171,175.5c0,0.6-0.5,1.2-1.2,1.2c-0.6,0-1.2-0.5-1.2-1.2s0.5-1.2,1.2-1.2
				C170.5,174.3,171,174.9,171,175.5z"/>
		</g>
	</g>
</g>
</svg>
