<svg xmlns="http://www.w3.org/2000/svg" xmlns:xlink="http://www.w3.org/1999/xlink" preserveAspectRatio="xMidYMid" width="141" height="23" viewBox="0 0 141 23">
  <defs>
    <style>

      .cls-2 {
        // fill: #bfb694;
        fill: #FFFFFF;
      }
    </style>
  </defs>
  <path d="M140.230,4.002 C140.230,4.002 140.230,1.323 140.230,1.323 C140.230,1.323 140.219,1.323 140.219,1.323 C140.219,1.323 139.302,4.002 139.302,4.002 C139.302,4.002 138.669,4.002 138.669,4.002 C138.669,4.002 137.751,1.350 137.751,1.350 C137.751,1.350 137.741,1.350 137.741,1.350 C137.741,1.350 137.741,4.002 137.741,4.002 C137.741,4.002 136.971,4.002 136.971,4.002 C136.971,4.002 136.971,0.222 136.971,0.222 C136.971,0.222 138.129,0.222 138.129,0.222 C138.129,0.222 139.004,2.821 139.004,2.821 C139.004,2.821 139.014,2.821 139.014,2.821 C139.014,2.821 139.843,0.222 139.843,0.222 C139.843,0.222 141.001,0.222 141.001,0.222 C141.001,0.222 141.001,4.002 141.001,4.002 C141.001,4.002 140.230,4.002 140.230,4.002 ZM135.525,4.002 C135.525,4.002 134.702,4.002 134.702,4.002 C134.702,4.002 134.702,0.921 134.702,0.921 C134.702,0.921 133.580,0.921 133.580,0.921 C133.580,0.921 133.580,0.223 133.580,0.223 C133.580,0.223 136.645,0.223 136.645,0.223 C136.645,0.223 136.645,0.921 136.645,0.921 C136.645,0.921 135.525,0.921 135.525,0.921 C135.525,0.921 135.525,4.002 135.525,4.002 ZM131.417,22.720 C131.417,22.720 128.810,22.720 128.810,22.720 C128.230,22.720 127.972,22.460 127.972,21.874 C127.972,21.874 127.972,11.700 127.972,11.700 C127.972,10.530 127.619,9.978 126.235,9.978 C124.626,9.978 123.178,10.921 122.501,11.440 C122.501,11.440 122.501,21.874 122.501,21.874 C122.501,22.460 122.308,22.720 121.761,22.720 C121.761,22.720 119.091,22.720 119.091,22.720 C118.510,22.720 118.285,22.460 118.285,21.874 C118.285,21.874 118.285,7.312 118.285,7.312 C118.285,6.760 118.510,6.532 119.091,6.532 C119.091,6.532 121.568,6.532 121.568,6.532 C122.147,6.532 122.308,6.760 122.340,7.312 C122.340,7.312 122.405,8.092 122.405,8.092 C123.306,7.344 124.948,6.272 127.555,6.272 C130.515,6.272 132.221,8.092 132.221,10.628 C132.221,10.628 132.221,21.874 132.221,21.874 C132.221,22.460 131.995,22.720 131.417,22.720 ZM111.912,21.972 C111.750,22.525 111.654,22.720 111.107,22.720 C111.107,22.720 107.921,22.720 107.921,22.720 C107.341,22.720 107.212,22.460 107.083,21.972 C107.083,21.972 105.281,14.268 105.281,14.268 C105.120,13.618 104.991,12.708 104.991,12.546 C104.959,12.676 104.798,13.423 104.574,14.268 C104.574,14.268 102.353,21.972 102.353,21.972 C102.224,22.460 102.095,22.720 101.548,22.720 C101.548,22.720 98.427,22.720 98.427,22.720 C97.847,22.720 97.718,22.492 97.589,21.972 C97.589,21.972 93.696,7.344 93.696,7.344 C93.534,6.792 93.888,6.532 94.467,6.532 C94.467,6.532 97.010,6.532 97.010,6.532 C97.589,6.532 97.783,6.858 97.911,7.344 C97.911,7.344 100.132,15.861 100.132,15.861 C100.293,16.544 100.359,17.325 100.390,17.422 C100.390,17.325 100.614,16.414 100.776,15.861 C100.776,15.861 103.125,7.344 103.125,7.344 C103.254,6.858 103.447,6.532 103.994,6.532 C103.994,6.532 106.569,6.532 106.569,6.532 C107.148,6.532 107.373,6.858 107.470,7.344 C107.470,7.344 109.433,15.861 109.433,15.861 C109.594,16.609 109.691,17.259 109.724,17.390 C109.724,17.325 109.916,16.479 110.077,15.861 C110.077,15.861 112.265,7.344 112.265,7.344 C112.395,6.858 112.588,6.532 113.166,6.532 C113.166,6.532 115.291,6.532 115.291,6.532 C115.838,6.532 116.192,6.792 116.031,7.344 C116.031,7.344 111.912,21.972 111.912,21.972 ZM84.972,22.980 C80.240,22.980 78.020,21.095 78.020,18.169 C78.020,18.169 78.020,11.050 78.020,11.050 C78.020,8.157 80.240,6.272 84.972,6.272 C89.703,6.272 91.923,8.157 91.923,11.050 C91.923,11.050 91.923,18.169 91.923,18.169 C91.923,21.095 89.703,22.980 84.972,22.980 ZM87.708,11.407 C87.708,10.205 86.774,9.652 84.972,9.652 C83.170,9.652 82.236,10.205 82.236,11.407 C82.236,11.407 82.236,17.811 82.236,17.811 C82.236,19.047 83.170,19.600 84.972,19.600 C86.774,19.600 87.708,19.047 87.708,17.811 C87.708,17.811 87.708,11.407 87.708,11.407 ZM77.439,4.257 C77.439,4.257 72.869,4.257 72.869,4.257 C72.869,4.257 72.869,21.874 72.869,21.874 C72.869,22.461 72.675,22.720 72.096,22.720 C72.096,22.720 69.296,22.720 69.296,22.720 C68.718,22.720 68.491,22.461 68.491,21.874 C68.491,21.874 68.491,4.257 68.491,4.257 C68.491,4.257 63.921,4.257 63.921,4.257 C63.342,4.257 63.117,4.029 63.117,3.444 C63.117,3.444 63.117,1.396 63.117,1.396 C63.117,0.811 63.342,0.616 63.921,0.616 C63.921,0.616 77.439,0.616 77.439,0.616 C77.986,0.616 78.243,0.811 78.243,1.396 C78.243,1.396 78.243,3.444 78.243,3.444 C78.243,4.029 77.986,4.257 77.439,4.257 ZM60.252,22.720 C60.252,22.720 57.645,22.720 57.645,22.720 C57.065,22.720 56.808,22.460 56.808,21.874 C56.808,21.874 56.808,11.700 56.808,11.700 C56.808,10.530 56.454,9.978 55.070,9.978 C53.461,9.978 52.013,10.921 51.337,11.440 C51.337,11.440 51.337,21.874 51.337,21.874 C51.337,22.460 51.143,22.720 50.596,22.720 C50.596,22.720 47.925,22.720 47.925,22.720 C47.346,22.720 47.120,22.460 47.120,21.874 C47.120,21.874 47.120,0.844 47.120,0.844 C47.120,0.259 47.346,-0.002 47.925,-0.002 C47.925,-0.002 50.596,-0.002 50.596,-0.002 C51.143,-0.002 51.337,0.259 51.337,0.844 C51.337,0.844 51.337,7.962 51.337,7.962 C52.271,7.247 53.912,6.272 56.390,6.272 C59.351,6.272 61.057,8.092 61.057,10.628 C61.057,10.628 61.057,21.874 61.057,21.874 C61.057,22.460 60.831,22.720 60.252,22.720 ZM37.561,22.980 C32.829,22.980 30.963,21.095 30.963,18.169 C30.963,18.169 30.963,11.051 30.963,11.051 C30.963,8.157 32.862,6.272 37.592,6.272 C42.292,6.272 44.191,8.157 44.191,11.051 C44.191,11.051 44.191,11.603 44.191,11.603 C44.191,12.188 43.966,12.383 43.418,12.383 C43.418,12.383 40.940,12.383 40.940,12.383 C40.361,12.383 40.136,12.188 40.136,11.603 C40.136,11.603 40.136,11.375 40.136,11.375 C40.136,10.173 39.492,9.652 37.657,9.652 C35.823,9.652 35.178,10.173 35.178,11.375 C35.178,11.375 35.178,17.844 35.178,17.844 C35.178,19.047 35.823,19.600 37.657,19.600 C39.492,19.600 40.136,19.047 40.136,17.844 C40.136,17.844 40.136,17.357 40.136,17.357 C40.136,16.772 40.361,16.544 40.940,16.544 C40.940,16.544 43.418,16.544 43.418,16.544 C43.966,16.544 44.191,16.772 44.191,17.357 C44.191,17.357 44.191,18.169 44.191,18.169 C44.191,21.095 42.260,22.980 37.561,22.980 ZM27.260,15.568 C27.260,15.568 19.020,15.568 19.020,15.568 C19.020,15.568 19.020,17.974 19.020,17.974 C19.020,19.112 19.632,19.762 21.531,19.762 C23.430,19.762 24.042,19.112 24.042,17.974 C24.042,17.974 24.042,17.811 24.042,17.811 C24.042,17.259 24.267,16.999 24.846,16.999 C24.846,16.999 27.099,16.999 27.099,16.999 C27.646,16.999 27.904,17.259 27.904,17.811 C27.904,17.811 27.904,18.169 27.904,18.169 C27.904,21.095 26.230,22.980 21.499,22.980 C16.767,22.980 14.901,21.095 14.901,18.169 C14.901,18.169 14.901,11.051 14.901,11.051 C14.901,8.157 16.800,6.272 21.531,6.272 C26.230,6.272 27.968,8.157 27.968,11.051 C27.968,11.051 27.968,14.821 27.968,14.821 C27.968,15.342 27.775,15.568 27.260,15.568 ZM24.042,11.278 C24.042,10.140 23.333,9.490 21.531,9.490 C19.697,9.490 19.020,10.140 19.020,11.278 C19.020,11.278 19.020,12.708 19.020,12.708 C19.020,12.708 24.042,12.708 24.042,12.708 C24.042,12.708 24.042,11.278 24.042,11.278 ZM14.321,4.257 C14.321,4.257 9.751,4.257 9.751,4.257 C9.751,4.257 9.751,21.874 9.751,21.874 C9.751,22.461 9.558,22.720 8.978,22.720 C8.978,22.720 6.178,22.720 6.178,22.720 C5.600,22.720 5.374,22.461 5.374,21.874 C5.374,21.874 5.374,4.257 5.374,4.257 C5.374,4.257 0.803,4.257 0.803,4.257 C0.225,4.257 -0.001,4.029 -0.001,3.444 C-0.001,3.444 -0.001,1.396 -0.001,1.396 C-0.001,0.811 0.225,0.616 0.803,0.616 C0.803,0.616 14.321,0.616 14.321,0.616 C14.869,0.616 15.125,0.811 15.125,1.396 C15.125,1.396 15.125,3.444 15.125,3.444 C15.125,4.029 14.869,4.257 14.321,4.257 Z" id="path-1" class="cls-2" fill-rule="evenodd"/>
</svg>