<svg xmlns="http://www.w3.org/2000/svg" xmlns:xlink="http://www.w3.org/1999/xlink" preserveAspectRatio="xMidYMid" width="200" height="40" viewBox="0 0 200 40">
  <defs>
    <style>

      .cls-2 {
        // fill: #353535;
        fill: #FFFFFF;
      }
    </style>
  </defs>
  <path d="M199.519,12.856 C199.519,12.856 195.111,12.856 195.111,12.856 C195.111,12.856 195.111,28.782 195.111,28.782 C195.111,29.041 194.884,29.275 194.631,29.275 C194.631,29.275 193.668,29.275 193.668,29.275 C193.415,29.275 193.187,29.041 193.187,28.782 C193.187,28.782 193.187,12.856 193.187,12.856 C193.187,12.856 188.780,12.856 188.780,12.856 C188.501,12.856 188.299,12.623 188.299,12.363 C188.299,12.363 188.299,11.611 188.299,11.611 C188.299,11.351 188.501,11.118 188.780,11.118 C188.780,11.118 199.519,11.118 199.519,11.118 C199.797,11.118 200.000,11.351 200.000,11.611 C200.000,11.611 200.000,12.363 200.000,12.363 C200.000,12.623 199.797,12.856 199.519,12.856 ZM184.450,28.523 C184.627,28.860 184.450,29.275 184.020,29.275 C184.020,29.275 182.728,29.275 182.728,29.275 C182.500,29.275 182.373,29.145 182.323,29.041 C182.323,29.041 178.954,22.168 178.954,22.168 C178.954,22.168 174.116,22.168 174.116,22.168 C174.116,22.168 174.116,28.782 174.116,28.782 C174.116,29.041 173.889,29.275 173.635,29.275 C173.635,29.275 172.648,29.275 172.648,29.275 C172.369,29.275 172.167,29.041 172.167,28.782 C172.167,28.782 172.167,11.611 172.167,11.611 C172.167,11.351 172.369,11.118 172.648,11.118 C172.648,11.118 179.207,11.118 179.207,11.118 C182.247,11.118 184.728,13.557 184.728,16.643 C184.728,19.029 183.184,21.026 180.980,21.935 C180.980,21.935 184.450,28.523 184.450,28.523 ZM182.728,16.669 C182.728,14.698 181.030,13.012 179.081,13.012 C179.081,13.012 174.167,13.012 174.167,13.012 C174.167,13.012 174.167,20.456 174.167,20.456 C174.167,20.456 179.081,20.456 179.081,20.456 C181.030,20.456 182.728,18.796 182.728,16.669 ZM167.203,29.275 C167.203,29.275 166.191,29.275 166.191,29.275 C165.963,29.275 165.811,29.119 165.760,28.990 C165.760,28.990 163.886,24.710 163.886,24.710 C163.886,24.710 154.895,24.710 154.895,24.710 C154.895,24.710 153.045,28.990 153.045,28.990 C152.995,29.119 152.843,29.275 152.615,29.275 C152.615,29.275 151.602,29.275 151.602,29.275 C151.221,29.275 151.020,28.938 151.171,28.600 C151.171,28.600 158.871,11.144 158.871,11.144 C158.946,10.988 159.073,10.859 159.302,10.859 C159.302,10.859 159.554,10.859 159.554,10.859 C159.783,10.859 159.910,10.988 159.985,11.144 C159.985,11.144 167.634,28.600 167.634,28.600 C167.787,28.938 167.583,29.275 167.203,29.275 ZM159.504,14.594 C159.504,14.594 159.302,14.594 159.302,14.594 C159.302,14.594 155.603,23.102 155.603,23.102 C155.603,23.102 163.202,23.102 163.202,23.102 C161.961,20.274 160.745,17.421 159.504,14.594 ZM141.751,27.641 C143.954,27.641 145.246,26.733 146.589,25.695 C146.842,25.488 147.045,25.514 147.197,25.618 C147.197,25.618 147.957,26.318 147.957,26.318 C148.159,26.473 148.108,26.837 147.931,27.019 C146.209,28.730 144.031,29.534 141.776,29.534 C136.711,29.534 132.633,25.410 132.633,20.222 C132.633,15.035 136.711,10.859 141.776,10.859 C144.335,10.859 146.183,11.766 147.905,13.271 C148.108,13.479 148.133,13.790 147.931,13.997 C147.931,13.997 147.247,14.698 147.247,14.698 C147.045,14.957 146.842,14.931 146.589,14.671 C145.271,13.504 143.473,12.727 141.751,12.727 C137.749,12.727 134.685,16.176 134.685,20.197 C134.685,24.191 137.749,27.641 141.751,27.641 ZM129.241,29.275 C129.241,29.275 126.430,29.275 126.430,29.275 C125.974,29.275 125.771,29.119 125.543,28.626 C125.543,28.626 124.632,26.577 124.632,26.577 C124.632,26.577 117.743,26.577 117.743,26.577 C117.743,26.577 116.831,28.653 116.831,28.653 C116.704,28.964 116.425,29.275 115.919,29.275 C115.919,29.275 113.133,29.275 113.133,29.275 C112.753,29.275 112.551,28.938 112.702,28.600 C112.702,28.600 120.630,11.144 120.630,11.144 C120.705,10.988 120.884,10.859 121.061,10.859 C121.061,10.859 121.314,10.859 121.314,10.859 C121.491,10.859 121.668,10.988 121.744,11.144 C121.744,11.144 129.671,28.600 129.671,28.600 C129.823,28.938 129.621,29.275 129.241,29.275 ZM121.187,18.770 C121.187,18.770 121.162,18.770 121.162,18.770 C121.162,18.770 119.262,23.050 119.262,23.050 C119.262,23.050 123.112,23.050 123.112,23.050 C123.112,23.050 121.187,18.770 121.187,18.770 ZM109.537,28.523 C109.714,28.860 109.537,29.275 109.107,29.275 C109.107,29.275 105.739,29.275 105.739,29.275 C105.536,29.275 105.384,29.145 105.333,29.041 C105.333,29.041 101.965,22.168 101.965,22.168 C101.965,22.168 100.217,22.168 100.217,22.168 C100.217,22.168 100.217,28.782 100.217,28.782 C100.217,29.041 99.989,29.275 99.736,29.275 C99.736,29.275 96.722,29.275 96.722,29.275 C96.443,29.275 96.241,29.041 96.241,28.782 C96.241,28.782 96.241,11.611 96.241,11.611 C96.241,11.351 96.443,11.118 96.722,11.118 C96.722,11.118 104.294,11.118 104.294,11.118 C107.334,11.118 109.816,13.634 109.816,16.721 C109.816,19.107 108.271,21.026 106.068,21.935 C106.068,21.935 109.537,28.523 109.537,28.523 ZM103.966,14.828 C103.966,14.828 100.217,14.828 100.217,14.828 C100.217,14.828 100.217,18.874 100.217,18.874 C100.217,18.874 103.966,18.874 103.966,18.874 C105.004,18.874 105.890,17.888 105.890,16.799 C105.890,15.709 105.004,14.828 103.966,14.828 ZM87.833,14.931 C87.833,14.931 87.833,28.782 87.833,28.782 C87.833,29.041 87.605,29.275 87.352,29.275 C87.352,29.275 84.313,29.275 84.313,29.275 C84.059,29.275 83.832,29.041 83.832,28.782 C83.832,28.782 83.832,14.931 83.832,14.931 C83.832,14.931 80.210,14.931 80.210,14.931 C79.931,14.931 79.729,14.698 79.729,14.438 C79.729,14.438 79.729,11.611 79.729,11.611 C79.729,11.351 79.931,11.118 80.210,11.118 C80.210,11.118 91.455,11.118 91.455,11.118 C91.734,11.118 91.936,11.351 91.936,11.611 C91.936,11.611 91.936,14.438 91.936,14.438 C91.936,14.698 91.734,14.931 91.455,14.931 C91.455,14.931 87.833,14.931 87.833,14.931 ZM68.281,29.275 C68.003,29.275 67.801,29.041 67.801,28.782 C67.801,28.782 67.801,11.611 67.801,11.611 C67.801,11.351 68.003,11.118 68.281,11.118 C68.281,11.118 71.296,11.118 71.296,11.118 C71.548,11.118 71.776,11.351 71.776,11.611 C71.776,11.611 71.776,25.462 71.776,25.462 C71.776,25.462 77.805,25.462 77.805,25.462 C78.083,25.462 78.286,25.695 78.286,25.955 C78.286,25.955 78.286,28.782 78.286,28.782 C78.286,29.041 78.083,29.275 77.805,29.275 C77.805,29.275 68.281,29.275 68.281,29.275 ZM54.708,29.534 C50.731,29.534 47.514,26.266 47.514,22.323 C47.514,22.323 47.514,11.611 47.514,11.611 C47.514,11.351 47.743,11.118 47.996,11.118 C47.996,11.118 51.111,11.118 51.111,11.118 C51.390,11.118 51.592,11.351 51.592,11.611 C51.592,11.611 51.592,22.116 51.592,22.116 C51.592,23.931 52.909,25.384 54.708,25.384 C56.532,25.384 57.873,23.931 57.873,22.116 C57.873,22.116 57.873,11.611 57.873,11.611 C57.873,11.351 58.076,11.118 58.354,11.118 C58.354,11.118 61.470,11.118 61.470,11.118 C61.723,11.118 61.951,11.351 61.951,11.611 C61.951,11.611 61.951,22.323 61.951,22.323 C61.951,26.266 58.709,29.534 54.708,29.534 ZM19.533,40.003 C14.315,40.003 9.410,37.922 5.720,34.143 C2.030,30.365 -0.001,25.341 -0.001,19.997 C-0.001,14.654 2.030,9.630 5.720,5.852 C9.410,2.074 14.315,-0.008 19.533,-0.008 C24.750,-0.008 29.655,2.074 33.345,5.852 C37.034,9.630 39.066,14.654 39.066,19.997 C39.066,25.341 37.034,30.365 33.345,34.143 C29.655,37.922 24.750,40.003 19.533,40.003 ZM23.362,15.018 C23.105,15.200 22.858,15.389 22.621,15.587 C22.488,15.476 22.333,15.398 22.188,15.303 C22.046,15.207 21.886,15.141 21.732,15.063 C21.783,14.751 21.823,14.430 21.845,14.118 C21.349,13.921 20.833,13.764 20.304,13.699 C20.171,13.987 20.050,14.269 19.942,14.569 C19.942,14.569 19.429,14.543 19.429,14.543 C19.429,14.543 18.918,14.569 18.918,14.569 C18.809,14.269 18.689,13.987 18.555,13.699 C18.026,13.764 17.511,13.921 17.015,14.118 C17.037,14.430 17.077,14.752 17.127,15.063 C16.974,15.141 16.814,15.207 16.670,15.303 C16.527,15.398 16.372,15.476 16.238,15.587 C16.001,15.389 15.754,15.200 15.498,15.018 C15.077,15.350 14.698,15.739 14.374,16.169 C14.551,16.433 14.735,16.686 14.929,16.929 C14.821,17.065 14.744,17.223 14.651,17.371 C14.557,17.518 14.493,17.681 14.416,17.838 C14.113,17.787 13.799,17.746 13.494,17.724 C13.302,18.232 13.147,18.759 13.085,19.302 C13.366,19.438 13.642,19.561 13.934,19.672 C13.934,19.672 13.909,20.197 13.909,20.197 C13.909,20.197 13.934,20.722 13.934,20.722 C13.642,20.833 13.366,20.955 13.085,21.092 C13.147,21.633 13.302,22.162 13.494,22.670 C13.799,22.648 14.113,22.607 14.416,22.555 C14.493,22.712 14.557,22.876 14.651,23.023 C14.744,23.170 14.821,23.328 14.929,23.465 C14.735,23.708 14.551,23.960 14.374,24.224 C14.698,24.655 15.077,25.043 15.498,25.374 C15.754,25.194 16.001,25.003 16.238,24.806 C16.372,24.916 16.527,24.996 16.670,25.090 C16.814,25.186 16.974,25.253 17.127,25.331 C17.077,25.642 17.037,25.964 17.015,26.275 C17.511,26.473 18.026,26.630 18.555,26.694 C18.689,26.406 18.809,26.124 18.918,25.825 C18.918,25.825 19.429,25.851 19.429,25.851 C19.429,25.851 19.942,25.825 19.942,25.825 C20.050,26.124 20.171,26.406 20.304,26.694 C20.833,26.630 21.349,26.473 21.845,26.275 C21.823,25.964 21.783,25.642 21.732,25.331 C21.886,25.253 22.046,25.186 22.188,25.090 C22.333,24.996 22.488,24.916 22.621,24.806 C22.858,25.003 23.105,25.194 23.362,25.374 C23.782,25.043 24.161,24.655 24.486,24.224 C24.486,24.224 22.753,21.894 22.753,21.894 C22.719,21.962 22.683,22.029 22.645,22.096 C22.323,22.672 21.847,23.160 21.284,23.489 C20.726,23.832 20.081,23.985 19.430,24.002 C18.778,23.985 18.134,23.832 17.576,23.489 C17.012,23.160 16.536,22.672 16.215,22.096 C15.880,21.524 15.731,20.864 15.714,20.197 C15.731,19.529 15.880,18.870 16.215,18.298 C16.536,17.721 17.012,17.234 17.576,16.904 C18.134,16.562 18.778,16.409 19.430,16.392 C20.081,16.409 20.726,16.562 21.284,16.904 C21.847,17.234 22.323,17.721 22.645,18.298 C22.685,18.366 22.722,18.436 22.757,18.507 C22.757,18.507 24.486,16.169 24.486,16.169 C24.161,15.739 23.782,15.350 23.362,15.018 ZM30.849,20.200 C30.849,20.200 30.796,19.123 30.796,19.123 C31.395,18.895 31.961,18.643 32.539,18.362 C32.410,17.248 32.095,16.165 31.699,15.122 C31.073,15.168 30.429,15.253 29.806,15.357 C29.648,15.036 29.516,14.699 29.322,14.398 C29.132,14.095 28.974,13.770 28.753,13.489 C29.149,12.991 29.529,12.471 29.893,11.930 C29.227,11.045 28.449,10.249 27.585,9.567 C27.585,9.567 24.337,12.090 24.337,12.090 C25.660,12.909 26.778,14.080 27.545,15.455 C28.381,16.883 28.756,18.533 28.796,20.200 C28.756,21.868 28.381,23.517 27.545,24.946 C26.741,26.388 25.551,27.606 24.144,28.429 C22.749,29.285 21.138,29.671 19.510,29.711 C17.882,29.671 16.270,29.285 14.876,28.429 C13.469,27.606 12.279,26.388 11.476,24.946 C10.640,23.517 10.265,21.868 10.224,20.200 C10.265,18.533 10.640,16.884 11.476,15.456 C12.242,14.080 13.361,12.909 14.684,12.090 C14.684,12.090 11.435,9.567 11.435,9.567 C10.571,10.249 9.793,11.045 9.127,11.930 C9.491,12.471 9.871,12.991 10.267,13.489 C10.045,13.770 9.888,14.095 9.698,14.398 C9.505,14.699 9.372,15.036 9.214,15.357 C8.591,15.253 7.947,15.168 7.321,15.122 C6.925,16.165 6.609,17.248 6.481,18.362 C7.059,18.643 7.624,18.895 8.224,19.123 C8.224,19.123 8.173,20.200 8.173,20.200 C8.173,20.200 8.224,21.279 8.224,21.279 C7.624,21.506 7.059,21.758 6.481,22.040 C6.609,23.152 6.925,24.237 7.321,25.280 C7.947,25.235 8.591,25.149 9.214,25.044 C9.372,25.365 9.505,25.701 9.698,26.004 C9.888,26.306 10.045,26.632 10.267,26.912 C9.871,27.410 9.491,27.930 9.127,28.470 C9.793,29.356 10.571,30.152 11.435,30.834 C11.962,30.462 12.471,30.073 12.956,29.666 C13.230,29.893 13.548,30.055 13.844,30.249 C14.138,30.448 14.467,30.583 14.781,30.746 C14.678,31.383 14.596,32.043 14.550,32.684 C15.569,33.089 16.628,33.413 17.715,33.545 C17.989,32.952 18.236,32.373 18.458,31.758 C18.458,31.758 19.510,31.813 19.510,31.813 C19.510,31.813 20.563,31.758 20.563,31.758 C20.785,32.373 21.031,32.952 21.306,33.545 C22.392,33.413 23.451,33.089 24.470,32.684 C24.424,32.043 24.342,31.383 24.239,30.746 C24.554,30.583 24.882,30.448 25.176,30.249 C25.472,30.055 25.789,29.893 26.064,29.666 C26.549,30.073 27.057,30.462 27.585,30.834 C28.449,30.152 29.227,29.356 29.893,28.470 C29.529,27.930 29.149,27.410 28.753,26.912 C28.974,26.632 29.132,26.306 29.322,26.004 C29.516,25.701 29.648,25.365 29.806,25.044 C30.429,25.148 31.073,25.235 31.699,25.280 C32.095,24.237 32.410,23.152 32.539,22.040 C31.961,21.758 31.395,21.506 30.796,21.279 C30.796,21.279 30.849,20.200 30.849,20.200 Z" id="path-1" class="cls-2" fill-rule="evenodd"/>
</svg>
