<?xml version="1.0" encoding="utf-8"?>
<!-- Generator: Adobe Illustrator 19.0.1, SVG Export Plug-In . SVG Version: 6.00 Build 0)  -->
<!DOCTYPE svg PUBLIC "-//W3C//DTD SVG 1.1//EN" "http://www.w3.org/Graphics/SVG/1.1/DTD/svg11.dtd">
<svg version="1.1" id="Layer_1" xmlns="http://www.w3.org/2000/svg" xmlns:xlink="http://www.w3.org/1999/xlink" x="0px" y="0px"
	 viewBox="50 50 300 300" enable-background="new 0 0 400 400" xml:space="preserve">
<style>
  g {
    fill: #6db6aa;
  }
</style>
<g>
	<g>
		<path d="M188.6,188.3h-15c-0.4,0-0.6,0.3-0.6,0.6v3.7c0,0.3,0.3,0.6,0.6,0.6h4.8v18.2c0,0.3,0.3,0.6,0.6,0.6h4.1
			c0.3,0,0.6-0.3,0.6-0.6v-18.2h4.8c0.4,0,0.6-0.3,0.6-0.6V189C189.2,188.6,189,188.3,188.6,188.3z M92.7,173.7
			c-7,0-13.5,2.7-18.4,7.7c-4.9,5-7.6,11.6-7.6,18.6s2.7,13.6,7.6,18.6c4.9,5,11.5,7.7,18.4,7.7c7,0,13.5-2.7,18.4-7.7
			c4.9-5,7.6-11.6,7.6-18.6s-2.7-13.6-7.6-18.6C106.2,176.4,99.6,173.7,92.7,173.7z M87.3,193.5c0.3,0.2,0.7,0.5,1,0.7
			c0.2-0.1,0.4-0.2,0.6-0.4c0.2-0.1,0.4-0.2,0.6-0.3c-0.1-0.4-0.1-0.8-0.1-1.2c0.7-0.3,1.3-0.5,2.1-0.6c0.2,0.4,0.3,0.7,0.5,1.1
			l0.7,0l0.7,0c0.1-0.4,0.3-0.8,0.5-1.1c0.7,0.1,1.4,0.3,2.1,0.6c0,0.4-0.1,0.8-0.1,1.2c0.2,0.1,0.4,0.2,0.6,0.3
			c0.2,0.1,0.4,0.2,0.6,0.4c0.3-0.3,0.6-0.5,1-0.7c0.6,0.4,1.1,0.9,1.5,1.5L97,198c0-0.1-0.1-0.2-0.1-0.3c-0.4-0.8-1.1-1.4-1.8-1.8
			c-0.7-0.5-1.6-0.7-2.5-0.7c-0.9,0-1.7,0.2-2.5,0.7c-0.8,0.4-1.4,1.1-1.8,1.8c-0.4,0.8-0.6,1.6-0.7,2.5c0,0.9,0.2,1.7,0.7,2.5
			c0.4,0.8,1.1,1.4,1.8,1.8c0.7,0.5,1.6,0.7,2.5,0.7c0.9,0,1.7-0.2,2.5-0.7c0.8-0.4,1.4-1.1,1.8-1.8c0.1-0.1,0.1-0.2,0.1-0.3
			l2.3,3.1c-0.4,0.6-0.9,1.1-1.5,1.5c-0.3-0.2-0.7-0.5-1-0.7c-0.2,0.1-0.4,0.2-0.6,0.4c-0.2,0.1-0.4,0.2-0.6,0.3
			c0.1,0.4,0.1,0.8,0.1,1.2c-0.7,0.3-1.3,0.5-2.1,0.6c-0.2-0.4-0.3-0.8-0.5-1.1l-0.7,0l-0.7,0c-0.1,0.4-0.3,0.8-0.5,1.1
			c-0.7-0.1-1.4-0.3-2.1-0.6c0-0.4,0.1-0.8,0.1-1.2c-0.2-0.1-0.4-0.2-0.6-0.3c-0.2-0.1-0.4-0.2-0.6-0.4c-0.3,0.3-0.6,0.5-1,0.7
			c-0.6-0.4-1.1-0.9-1.5-1.5c0.2-0.3,0.5-0.7,0.7-1c-0.1-0.2-0.2-0.4-0.4-0.6c-0.1-0.2-0.2-0.4-0.3-0.6c-0.4,0.1-0.8,0.1-1.2,0.2
			c-0.3-0.7-0.5-1.4-0.5-2.1c0.4-0.2,0.7-0.3,1.1-0.5l0-0.7l0-0.7c-0.4-0.1-0.8-0.3-1.1-0.5c0.1-0.7,0.3-1.4,0.5-2.1
			c0.4,0,0.8,0.1,1.2,0.2c0.1-0.2,0.2-0.4,0.3-0.6c0.1-0.2,0.2-0.4,0.4-0.6c-0.3-0.3-0.5-0.7-0.7-1
			C86.2,194.4,86.7,193.9,87.3,193.5z M107.8,200.3l-0.1,1.4c0.8,0.3,1.6,0.6,2.3,1c-0.2,1.5-0.6,2.9-1.1,4.3
			c-0.8-0.1-1.7-0.2-2.5-0.3c-0.2,0.4-0.4,0.9-0.6,1.3c-0.3,0.4-0.5,0.8-0.8,1.2c0.5,0.7,1,1.3,1.5,2c-0.9,1.2-1.9,2.2-3.1,3.1
			c-0.7-0.5-1.4-1-2-1.5c-0.4,0.3-0.8,0.5-1.2,0.8c-0.4,0.3-0.8,0.4-1.2,0.7c0.1,0.8,0.2,1.7,0.3,2.5c-1.4,0.5-2.8,1-4.2,1.1
			c-0.4-0.8-0.7-1.5-1-2.3l-1.4,0.1l-1.4-0.1c-0.3,0.8-0.6,1.6-1,2.3c-1.4-0.2-2.9-0.6-4.2-1.1c0.1-0.8,0.2-1.7,0.3-2.5
			c-0.4-0.2-0.9-0.4-1.2-0.7c-0.4-0.3-0.8-0.5-1.2-0.8c-0.6,0.5-1.3,1-2,1.5c-1.2-0.9-2.2-1.9-3.1-3.1c0.5-0.7,1-1.4,1.5-2
			c-0.3-0.4-0.5-0.8-0.8-1.2c-0.3-0.4-0.4-0.8-0.6-1.3c-0.8,0.1-1.7,0.3-2.5,0.3c-0.5-1.4-1-2.8-1.1-4.3c0.8-0.4,1.5-0.7,2.3-1
			l-0.1-1.4l0.1-1.4c-0.8-0.3-1.6-0.6-2.3-1c0.2-1.5,0.6-2.9,1.1-4.3c0.8,0.1,1.7,0.2,2.5,0.3c0.2-0.4,0.4-0.9,0.6-1.3
			c0.3-0.4,0.5-0.8,0.8-1.2c-0.5-0.7-1-1.3-1.5-2.1c0.9-1.2,1.9-2.2,3.1-3.1l4.3,3.3c-1.8,1.1-3.3,2.6-4.3,4.4
			c-1.1,1.9-1.6,4-1.7,6.2c0.1,2.2,0.6,4.4,1.7,6.2c1.1,1.9,2.7,3.5,4.5,4.6c1.9,1.1,4,1.6,6.2,1.7c2.2-0.1,4.3-0.6,6.2-1.7
			c1.9-1.1,3.5-2.7,4.5-4.6c1.1-1.9,1.6-4,1.7-6.2c-0.1-2.2-0.6-4.4-1.7-6.2c-1-1.8-2.5-3.3-4.3-4.4l4.3-3.3
			c1.2,0.9,2.2,1.9,3.1,3.1c-0.5,0.7-1,1.4-1.5,2.1c0.3,0.4,0.5,0.8,0.8,1.2c0.3,0.4,0.4,0.8,0.6,1.3c0.8-0.1,1.7-0.2,2.5-0.3
			c0.5,1.4,0.9,2.8,1.1,4.3c-0.8,0.4-1.5,0.7-2.3,1L107.8,200.3z M170.4,207.2h-8V189c0-0.3-0.3-0.6-0.6-0.6h-4
			c-0.4,0-0.6,0.3-0.6,0.6v22.6c0,0.3,0.3,0.6,0.6,0.6h12.7c0.4,0,0.6-0.3,0.6-0.6v-3.7C171,207.5,170.8,207.2,170.4,207.2z
			 M148.6,188.3h-4.2c-0.4,0-0.6,0.3-0.6,0.6v13.8c0,2.4-1.8,4.3-4.2,4.3c-2.4,0-4.2-1.9-4.2-4.3V189c0-0.3-0.3-0.6-0.6-0.6h-4.2
			c-0.3,0-0.6,0.3-0.6,0.6v14.1c0,5.2,4.3,9.5,9.6,9.5c5.3,0,9.7-4.3,9.7-9.5V189C149.2,188.6,148.9,188.3,148.6,188.3z M280,188.4
			c-0.1-0.2-0.3-0.4-0.6-0.4h-0.3c-0.3,0-0.5,0.2-0.6,0.4l-10.3,23c-0.2,0.4,0.1,0.9,0.6,0.9h1.4c0.3,0,0.5-0.2,0.6-0.4l2.5-5.6h12
			l2.5,5.6c0.1,0.2,0.3,0.4,0.6,0.4h1.4c0.5,0,0.8-0.4,0.6-0.9L280,188.4z M274.2,204.1l4.9-11.2h0.3c1.7,3.7,3.3,7.5,4.9,11.2
			H274.2z M332.7,188.3h-14.3c-0.4,0-0.6,0.3-0.6,0.6v1c0,0.3,0.3,0.6,0.6,0.6h5.9v21c0,0.3,0.3,0.6,0.6,0.6h1.3
			c0.3,0,0.6-0.3,0.6-0.6v-21h5.9c0.4,0,0.6-0.3,0.6-0.6v-1C333.4,188.6,333.1,188.3,332.7,188.3z M313,195.6c0-4.1-3.3-7.3-7.4-7.3
			h-8.7c-0.4,0-0.6,0.3-0.6,0.6v22.6c0,0.3,0.3,0.6,0.6,0.6h1.3c0.3,0,0.6-0.3,0.6-0.6v-8.7h6.5l4.5,9c0.1,0.1,0.2,0.3,0.5,0.3h1.7
			c0.6,0,0.8-0.5,0.6-1l-4.6-8.7C311,201.4,313,198.7,313,195.6z M305.5,200.6h-6.6v-9.8h6.6c2.6,0,4.9,2.2,4.9,4.8
			C310.4,198.4,308.1,200.6,305.5,200.6z M263,207.4c-0.2-0.1-0.5-0.2-0.8,0.1c-1.8,1.4-3.5,2.6-6.5,2.6c-5.3,0-9.4-4.5-9.4-9.8
			c0-5.3,4.1-9.8,9.4-9.8c2.3,0,4.7,1,6.5,2.6c0.3,0.3,0.6,0.4,0.9,0l0.9-0.9c0.3-0.3,0.2-0.7,0-1c-2.3-2-4.8-3.2-8.2-3.2
			c-6.8,0-12.2,5.5-12.2,12.3c0,6.8,5.4,12.2,12.2,12.2c3,0,5.9-1.1,8.2-3.3c0.2-0.2,0.3-0.7,0-0.9L263,207.4z M213.1,195.7
			c0-4.1-3.3-7.4-7.4-7.4h-10.1c-0.4,0-0.6,0.3-0.6,0.6v22.6c0,0.3,0.3,0.6,0.6,0.6h4c0.3,0,0.6-0.3,0.6-0.6v-8.7h2.3l4.5,9
			c0.1,0.1,0.3,0.3,0.5,0.3h4.5c0.6,0,0.8-0.5,0.6-1l-4.6-8.7C211,201.4,213.1,198.8,213.1,195.7z M205.3,198.5h-5v-5.3h5
			c1.4,0,2.6,1.2,2.6,2.6C207.9,197.2,206.7,198.5,205.3,198.5z M229,188.4c-0.1-0.2-0.3-0.4-0.6-0.4h-0.3c-0.2,0-0.5,0.2-0.6,0.4
			l-10.6,23c-0.2,0.4,0.1,0.9,0.6,0.9h3.7c0.7,0,1-0.4,1.2-0.8l1.2-2.7h9.2l1.2,2.7c0.3,0.6,0.6,0.9,1.2,0.9h3.7
			c0.5,0,0.8-0.4,0.6-0.9L229,188.4z M225.7,204l2.5-5.6h0l2.6,5.6H225.7z"/>
	</g>
</g>
</svg>
