<?xml version="1.0" encoding="utf-8"?>
<!-- Generator: Adobe Illustrator 15.0.0, SVG Export Plug-In . SVG Version: 6.00 Build 0)  -->
<!DOCTYPE svg PUBLIC "-//W3C//DTD SVG 1.1//EN" "http://www.w3.org/Graphics/SVG/1.1/DTD/svg11.dtd">
<svg version="1.1" id="Livello_1" xmlns="http://www.w3.org/2000/svg" xmlns:xlink="http://www.w3.org/1999/xlink" x="0px" y="0px"
	 width="230.4px" height="144px" viewBox="0 0 230.4 144" enable-background="new 0 0 230.4 144" xml:space="preserve">
<rect fill="#E53637" width="230.4" height="144"/>
<g>
	<path fill="#FFFFFF" d="M153.13,103.35c-0.07-0.23,0-0.59,0.21-1.07c0.21-0.48,0.21-0.85,0-1.1c-0.21-0.25-0.47-0.34-0.76-0.27
		c-0.3,0.07-0.69,0.25-1.17,0.53c-0.49,0.29-1.37,0.8-2.64,1.56c0.8-0.84,1.27-1.44,1.39-1.79c0.13-0.35,0.15-0.68,0.08-0.99
		c-0.07-0.3-0.29-0.53-0.66-0.66c-0.42,0.02-0.79,0.11-1.15,0.28c-0.35,0.16-0.84,0.41-1.46,0.73c-0.62,0.32-1.16,0.68-1.61,1.08
		c-0.46,0.4-0.8,0.65-1.02,0.75c-0.01,0.01-0.02,0.02-0.04,0.03c-0.28,0-0.59-0.1-0.93-0.31c-0.45-0.28-0.61-0.59-0.48-0.94
		c0.13-0.35,0.13-0.72,0.02-1.12c-0.12-0.4-0.42-0.65-0.92-0.75c-0.48,0.02-0.83,0.07-1.03,0.17c-0.21,0.1-0.33,0.29-0.37,0.55
		c-0.04,0.27,0.06,0.49,0.3,0.66c0.23,0.18,0.35,0.42,0.36,0.73c0,0.31-0.15,0.57-0.45,0.78c-0.3,0.21-0.61,0.38-0.93,0.52
		c-0.32,0.14-0.6,0.29-0.83,0.45c-0.23,0.16-0.48,0.23-0.74,0.22c-0.26-0.01-0.48-0.15-0.67-0.42c-0.18-0.27-0.08-0.55,0.29-0.83
		c0.38-0.29,0.72-0.46,1.05-0.54c0.32-0.07,0.58-0.13,0.76-0.18c0.19-0.05,0.33-0.14,0.42-0.27c0.1-0.14,0.12-0.31,0.07-0.53
		c-0.05-0.22-0.16-0.41-0.32-0.55c-0.16-0.15-0.44-0.17-0.82-0.05c-0.38,0.12-0.76,0.31-1.14,0.56c-0.37,0.25-0.76,0.56-1.17,0.94
		c-0.41,0.38-0.63,0.72-0.69,1.03c0,0.04,0.01,0.06,0.01,0.1c-0.03,0.01-0.06,0.01-0.1,0.03c-0.17,0.1-0.44,0.21-0.81,0.35
		s-0.76,0.26-1.15,0.38c-0.39,0.12-0.78,0.2-1.15,0.24c-0.38,0.04-0.67,0.03-0.87-0.02c-0.2-0.06-0.35-0.17-0.45-0.35
		c-0.11-0.18-0.13-0.38-0.05-0.6c0.07-0.22,0.19-0.44,0.35-0.65c0.16-0.22,0.35-0.45,0.56-0.69c0.21-0.24,0.4-0.38,0.56-0.4
		c0.16-0.02,0.36,0,0.58,0.08c0.22,0.07,0.43,0.1,0.62,0.07c0.19-0.03,0.3-0.13,0.32-0.3c0.02-0.17,0.1-0.32,0.24-0.44
		c0.14-0.12,0.24-0.23,0.32-0.35s0.08-0.23,0.04-0.34c-0.05-0.1-0.13-0.19-0.24-0.26c-0.11-0.07-0.24-0.11-0.39-0.12
		c-0.19,0-0.4,0.04-0.63,0.13c-0.23,0.08-0.38,0.17-0.47,0.25c-0.09,0.08-0.26,0.18-0.52,0.29c-0.26,0.11-0.56,0.27-0.9,0.49
		c-0.33,0.22-0.63,0.49-0.9,0.81c-0.27,0.31-0.49,0.64-0.65,0.98c-0.17,0.33-0.26,0.66-0.28,0.97l0.04,0.32
		c0.14,0.32,0.32,0.56,0.52,0.72c0.2,0.16,0.4,0.25,0.6,0.29c0.21,0.04,0.41,0.07,0.62,0.09h0.35c0.46-0.04,0.88-0.12,1.27-0.21
		c0.39-0.1,0.74-0.2,1.07-0.3c0.31-0.1,0.62-0.22,0.9-0.36c0.29-0.13,0.51-0.25,0.67-0.34c0.03-0.02,0.05-0.05,0.07-0.07
		c0.05,0.15,0.1,0.29,0.18,0.43c0.23,0.37,0.61,0.65,1.14,0.83c0.58,0,1.1-0.09,1.55-0.26c0.45-0.17,0.91-0.39,1.38-0.68
		c0.47-0.29,0.82-0.52,1.06-0.7c0.23-0.18,0.63-0.12,1.17,0.17c0.55,0.3,1.02,0.41,1.41,0.36c0.39-0.06,0.65-0.12,0.78-0.19
		c0.08-0.04,0.14-0.15,0.19-0.3c0.26-0.16,0.66-0.43,1.19-0.8c0.71-0.49,1.27-0.79,1.68-0.9c0.41-0.11,0.58-0.02,0.51,0.27
		c-0.07,0.29-0.25,0.58-0.54,0.86c-0.29,0.28-0.6,0.55-0.92,0.81c-0.32,0.26-0.46,0.54-0.44,0.84c0.03,0.3,0.13,0.51,0.33,0.63
		c0.2,0.11,0.46,0.17,0.81,0.17c0.25-0.12,0.64-0.31,1.15-0.59c0.51-0.28,1.11-0.67,1.8-1.16c0.68-0.49,0.98-0.57,0.88-0.24
		c-0.1,0.34-0.08,0.65,0.05,0.95c0.14,0.3,0.46,0.52,0.96,0.65c0.5,0.14,1.27,0.04,2.29-0.29c1.02-0.33,1.63-0.59,1.83-0.77
		c0.2-0.19,0.31-0.5,0.34-0.94c-0.5,0.24-1.25,0.5-2.25,0.78C153.74,103.56,153.2,103.58,153.13,103.35"/>
	<path fill="#FFFFFF" d="M71.97,100.6c0.23-0.21,0.37-0.39,0.44-0.54c0.07-0.15,0.1-0.31,0.12-0.46c-0.03-0.36-0.1-0.59-0.22-0.68
		c-0.12-0.1-0.31-0.15-0.56-0.16c-0.21,0.05-0.36,0.19-0.45,0.4c-0.09,0.21-0.22,0.43-0.4,0.64c-0.18,0.21-0.45,0.42-0.8,0.64
		c-0.36,0.22-0.74,0.42-1.16,0.6c-0.41,0.18-0.77,0.35-1.08,0.51c-0.31,0.16-0.63,0.33-0.97,0.5c-0.34,0.18-0.75,0.31-1.21,0.4
		c-0.12-0.73-0.28-1.11-0.51-1.13c-0.22-0.02-0.41,0-0.55,0.07c-0.15,0.07-0.25,0.2-0.31,0.39c-0.06,0.19-0.1,0.46-0.11,0.82
		c0.04,0.47,0.18,0.94,0.44,1.41c0.26,0.47,0.51,0.75,0.74,0.84c0.24,0.09,0.56,0.15,0.98,0.16c0.62-0.04,1.08-0.14,1.37-0.29
		c0.3-0.16,0.52-0.35,0.66-0.6c0.14-0.25,0.29-0.52,0.42-0.82c0.14-0.3,0.36-0.61,0.67-0.93c0.31-0.32,0.62-0.57,0.93-0.77
		c0.31-0.19,0.59-0.36,0.84-0.49S71.75,100.81,71.97,100.6 M68.23,102.65c-0.27,0.34-0.54,0.59-0.81,0.77
		c-0.27,0.17-0.56,0.28-0.88,0.33c-0.32,0.05-0.54-0.09-0.65-0.41c0.38-0.12,0.77-0.26,1.14-0.42c0.38-0.16,0.89-0.48,1.55-0.96
		C68.62,102.08,68.5,102.31,68.23,102.65"/>
	<path fill="#FFFFFF" d="M179.26,102.72c-0.19-0.17-0.4-0.24-0.64-0.2c-0.24,0.04-0.43,0.18-0.57,0.41s-0.27,0.5-0.39,0.79
		c-0.13,0.29-0.29,0.5-0.48,0.63c-0.2,0.13-0.41,0.36-0.65,0.69l0.13,0.3l0.34,0.02c0.22,0,0.41-0.01,0.58-0.04
		c0.25-0.03,0.53-0.11,0.82-0.25c0.3-0.14,0.57-0.28,0.83-0.42c0.26-0.14,0.42-0.32,0.49-0.54c0.07-0.22,0.05-0.46-0.04-0.73
		C179.59,103.11,179.45,102.89,179.26,102.72"/>
	<path fill="#FFFFFF" d="M184.77,96.28c-0.88-0.02-1.74-0.02-2.57-0.01c0.09-0.14,0.2-0.29,0.33-0.45c0.21-0.28,0.36-0.64,0.45-1.08
		c0.09-0.44,0.21-0.79,0.36-1.06c0.15-0.27,0.27-0.65,0.36-1.16c0.04-0.23,0.06-0.45,0.06-0.64c0-0.23-0.03-0.44-0.08-0.62
		c-0.08-0.23-0.17-0.35-0.27-0.35c-0.04,0-0.09,0.02-0.13,0.06c-0.16,0.15-0.31,0.41-0.45,0.78s-0.31,0.73-0.51,1.07
		c-0.2,0.34-0.4,0.74-0.63,1.2c-0.22,0.46-0.39,0.94-0.48,1.44c-0.06,0.3-0.17,0.57-0.29,0.83c-0.99,0.03-1.99,0.07-3.02,0.14
		c-1.16,0.08-2.31,0.18-3.45,0.29c-1.14,0.11-2.26,0.23-3.34,0.35c-1.09,0.13-1.91,0.23-2.46,0.29c0.42-0.46,0.8-0.85,1.13-1.18
		c0.33-0.33,0.67-0.68,1.03-1.04c0.36-0.36,0.84-0.81,1.45-1.35c0.61-0.54,0.8-0.96,0.59-1.23c-0.36,0.01-0.78,0.18-1.27,0.51
		s-1,0.74-1.54,1.24c-0.54,0.49-1.05,0.95-1.52,1.38s-1.08,0.99-1.83,1.7c-0.43,0.08-0.83,0.14-1.23,0.2
		c-0.39,0.05-0.65,0.13-0.79,0.23c-0.13,0.1-0.18,0.26-0.15,0.47c0.03,0.21,0.14,0.31,0.31,0.31c0.17-0.01,0.52-0.04,1.03-0.12
		c-0.33,0.51-0.85,1.08-1.55,1.72c-0.7,0.64-1.15,1.13-1.35,1.46c-0.19,0.33-0.35,0.65-0.46,0.96s-0.16,0.55-0.16,0.74
		c-0.01,0.02-0.02,0.04-0.02,0.05c0,0.19,0.04,0.38,0.13,0.61c0.08,0.24,0.24,0.45,0.48,0.59c0.24,0.15,0.57,0.25,1,0.29
		c0.15,0.01,0.31,0.02,0.48,0.02c0.27,0,0.55-0.02,0.86-0.07c0.47-0.07,0.89-0.18,1.27-0.32c0.37-0.15,0.7-0.3,1-0.47
		c0.29-0.17,0.62-0.41,0.99-0.73c0.03-0.02,0.04-0.04,0.07-0.06c0.06,0.19,0.14,0.35,0.23,0.47c0.16,0.19,0.38,0.35,0.66,0.49
		c0.29,0.14,0.84,0.24,1.65,0.32l0.46,0c0.75-0.04,1.38-0.14,1.9-0.29c0.52-0.16,0.96-0.33,1.3-0.53c0.35-0.2,0.67-0.5,0.96-0.92
		c-0.1-0.21-0.23-0.29-0.4-0.25c-0.16,0.05-0.38,0.14-0.67,0.27c-0.29,0.13-0.66,0.26-1.12,0.38c-0.46,0.12-1.05,0.16-1.77,0.13
		c-0.72-0.04-1.18-0.13-1.39-0.27c-0.21-0.14-0.29-0.27-0.25-0.38c0.04-0.12,0.31-0.25,0.83-0.4c0.51-0.14,0.97-0.38,1.38-0.72
		c0.41-0.33,0.63-0.72,0.67-1.18c0.04-0.45-0.07-0.77-0.33-0.95c-0.26-0.18-0.56-0.27-0.91-0.28l-0.38,0.02
		c-0.35,0.09-0.68,0.26-1.01,0.51s-0.66,0.54-0.99,0.87c-0.33,0.34-0.57,0.66-0.71,0.98c-0.12,0.25-0.17,0.61-0.19,1.03
		c-0.17,0.06-0.42,0.19-0.74,0.39c-0.34,0.22-0.9,0.46-1.69,0.74c-0.79,0.28-1.33,0.39-1.61,0.34c-0.28-0.05-0.47-0.19-0.57-0.42
		c-0.11-0.23-0.09-0.49,0.05-0.79c0.13-0.29,0.35-0.62,0.66-0.96c0.3-0.34,0.66-0.75,1.05-1.23c0.39-0.47,0.74-0.86,1.03-1.16
		s0.53-0.53,0.73-0.7c0.2-0.17,0.38-0.29,0.55-0.38c0.17-0.08,0.39-0.14,0.66-0.18c0.27-0.03,0.61-0.06,1.02-0.09
		c0.41-0.03,1.11-0.09,2.09-0.17c0.99-0.08,1.93-0.17,2.84-0.27c0.91-0.1,1.87-0.19,2.88-0.28c0.98-0.08,1.95-0.13,2.9-0.15
		c-0.12,0.31-0.21,0.65-0.21,1.08c-0.01,0.67,0.08,1,0.27,1c0.19,0,0.37-0.12,0.53-0.35c0.16-0.23,0.33-0.43,0.51-0.6
		c0.18-0.17,0.29-0.47,0.32-0.91c0.01-0.1,0.02-0.16,0.04-0.25c0.49-0.01,0.96-0.03,1.41-0.04c0.87-0.03,1.6-0.06,2.21-0.08
		c0.61-0.02,1.13-0.02,1.57,0.02c0.44,0.03,0.85,0.06,1.23,0.11c0.38,0.05,0.8,0,1.26-0.15c-0.45-0.39-1.05-0.62-1.81-0.69
		C186.95,96.36,185.97,96.31,184.77,96.28 M170.35,101.14c0.13-0.19,0.36-0.36,0.71-0.54c0.35-0.18,0.54-0.19,0.57-0.02
		c0.03,0.17-0.06,0.35-0.29,0.55c-0.23,0.2-0.68,0.42-1.36,0.64C170.09,101.54,170.22,101.33,170.35,101.14"/>
	<path fill="#FFFFFF" d="M47.7,56.48c5.68,0,9.61-4.28,9.61-9.85v-0.81h-8.05v2.31h5.25c-0.11,3.31-3.5,6.03-6.65,6.03
		c-4.39,0-7.89-4.04-7.89-8.29c0-4.55,3.55-8.24,8.1-8.24c2.48,0,4.93,1.32,6.38,3.31l1.78-1.69c-1.99-2.5-5.11-3.93-8.26-3.93
		c-5.84,0-10.52,4.79-10.52,10.63C37.45,51.58,42.02,56.48,47.7,56.48"/>
	<path fill="#FFFFFF" d="M58.45,103.02c-0.22,0.01-0.46,0.11-0.73,0.29c-0.27,0.18-0.58,0.32-0.95,0.42
		c-0.36,0.1-0.67,0.12-0.93,0.05c-0.25-0.06-0.41-0.17-0.46-0.31c-0.05-0.15-0.02-0.28,0.12-0.4c0.13-0.12,0.31-0.33,0.54-0.63
		c0.23-0.29,0.34-0.58,0.33-0.85c-0.01-0.28-0.13-0.38-0.36-0.33c-0.23,0.06-0.34-0.04-0.32-0.28c0.01-0.25-0.02-0.47-0.09-0.66
		c-0.07-0.19-0.22-0.37-0.45-0.52c-0.23-0.15-0.68-0.24-1.34-0.26c-0.5,0.06-0.9,0.15-1.18,0.27c-0.29,0.13-0.68,0.32-1.18,0.6
		c-0.5,0.28-1.05,0.7-1.63,1.27c-0.51,0.5-0.79,0.88-0.86,1.17c-0.06,0-0.14,0.03-0.24,0.09c-0.23,0.15-0.56,0.26-1,0.34
		c-0.44,0.08-0.78,0.22-1.02,0.42c-0.24,0.2-0.46,0.28-0.65,0.23c-0.2-0.04-0.29-0.14-0.29-0.29c0-0.15,0.09-0.32,0.27-0.53
		c0.18-0.2,0.35-0.44,0.51-0.72c0.16-0.28,0.42-0.63,0.8-1.05c0.38-0.42,0.73-0.81,1.07-1.18c0.33-0.36,0.65-0.61,0.93-0.74
		c0.28-0.13,0.57-0.29,0.84-0.48c0.28-0.19,0.62-0.49,1.02-0.91c0.4-0.42,0.78-0.84,1.13-1.25c0.35-0.41,0.58-0.8,0.69-1.17
		c-0.05-0.22-0.13-0.38-0.21-0.46c-0.08-0.08-0.26-0.16-0.51-0.21c-0.18,0.02-0.45,0.13-0.81,0.33c-0.36,0.21-0.75,0.5-1.16,0.9
		c-0.41,0.39-0.81,0.78-1.19,1.18c-0.38,0.39-0.68,0.71-0.91,0.95c-0.23,0.24-0.49,0.59-0.8,1.05c-0.31,0.46-0.53,0.8-0.67,1.03
		c-0.14,0.22-0.31,0.43-0.5,0.61c-0.2,0.19-0.31,0.18-0.35-0.02c-0.04-0.2-0.07-0.39-0.09-0.57c-0.02-0.18-0.11-0.35-0.28-0.52
		c-0.17-0.17-0.37-0.27-0.6-0.29c-0.23-0.03-0.53,0-0.89,0.1c-0.36,0.09-0.73,0.24-1.11,0.44c-0.37,0.2-0.71,0.44-1.01,0.71
		c-0.3,0.27-0.6,0.54-0.91,0.83c-0.31,0.28-0.6,0.61-0.89,0.96c-0.29,0.35-0.56,0.68-0.8,0.98c-0.25,0.3-0.41,0.64-0.48,1.04
		c0,0.22,0.06,0.43,0.19,0.64c0.19,0.28,0.48,0.44,0.88,0.48c0.55-0.03,0.91-0.09,1.09-0.19c0.18-0.1,0.42-0.24,0.71-0.41
		c0.3-0.18,0.58-0.34,0.85-0.48c0.27-0.15,0.56-0.32,0.87-0.52c0.31-0.2,0.58-0.39,0.83-0.58c0.06,0.36,0.11,0.65,0.17,0.86
		c0.06,0.22,0.24,0.36,0.56,0.42c0.32,0.06,0.69,0.04,1.1-0.05c0.41-0.1,0.73-0.19,0.96-0.28c0.23-0.09,0.49-0.17,0.78-0.24
		c0.29-0.08,0.61-0.2,0.95-0.38c0.1-0.05,0.18-0.1,0.25-0.14c0.07,0.31,0.19,0.55,0.37,0.71c0.31,0.26,0.6,0.39,0.89,0.39
		c0.41,0,0.79-0.05,1.13-0.16c0.34-0.1,0.69-0.25,1.06-0.46c0.36-0.2,0.77-0.36,1.23-0.49c0.18,0.32,0.45,0.59,0.82,0.79
		c0.34,0.19,0.82,0.28,1.44,0.28c0.06,0,0.22-0.01,0.49-0.02c0.27-0.01,0.62-0.09,1.06-0.22c0.44-0.13,0.78-0.31,1.02-0.52
		c0.24-0.21,0.35-0.48,0.36-0.81C58.81,103.09,58.67,103,58.45,103.02z M44.51,101.48c-0.06,0.32-0.19,0.63-0.4,0.93
		c-0.21,0.3-0.55,0.61-1.02,0.91c-0.47,0.3-0.96,0.58-1.47,0.84c-0.51,0.26-0.82,0.34-0.93,0.23c-0.11-0.11-0.02-0.36,0.27-0.75
		c0.28-0.39,0.58-0.76,0.9-1.09s0.67-0.67,1.04-1c0.38-0.33,0.7-0.56,0.95-0.69c0.26-0.13,0.44-0.14,0.56-0.02
		C44.53,100.95,44.56,101.16,44.51,101.48z M54.52,101.63c-0.06,0.21-0.25,0.43-0.58,0.67c-0.34,0.24-0.71,0.47-1.13,0.69
		c-0.42,0.22-0.82,0.39-1.21,0.52c-0.39,0.12-0.68,0.11-0.86-0.03c-0.18-0.14-0.21-0.35-0.1-0.63c0.11-0.28,0.37-0.59,0.79-0.94
		c0.41-0.35,0.82-0.63,1.23-0.84c0.41-0.21,0.79-0.34,1.14-0.37c0.35-0.03,0.58,0.06,0.67,0.28
		C54.56,101.21,54.58,101.43,54.52,101.63z"/>
	<polygon fill="#FFFFFF" points="104.27,53.73 98.1,53.73 98.1,35.75 95.57,35.75 95.57,56.05 104.27,56.05 	"/>
	<path fill="#FFFFFF" d="M123.97,102.71c-0.16,0.04-0.39,0.14-0.67,0.27c-0.29,0.14-0.66,0.26-1.12,0.38
		c-0.46,0.12-1.05,0.16-1.77,0.12c-0.72-0.04-1.19-0.12-1.39-0.26c-0.21-0.14-0.29-0.27-0.25-0.39c0.04-0.12,0.31-0.25,0.83-0.39
		c0.52-0.15,0.98-0.39,1.38-0.72c0.41-0.33,0.63-0.73,0.67-1.18c0.04-0.45-0.07-0.77-0.33-0.94c-0.26-0.18-0.56-0.27-0.91-0.29
		l-0.39,0.02c-0.35,0.09-0.68,0.26-1.01,0.51c-0.33,0.25-0.66,0.54-0.99,0.88c-0.33,0.34-0.57,0.66-0.71,0.97
		c-0.12,0.25-0.17,0.62-0.2,1.04c-0.09,0.04-0.19,0.08-0.27,0.11c-0.32,0.12-0.82,0.25-1.5,0.39c-0.68,0.14-1.06,0.12-1.17-0.05
		c-0.1-0.17-0.09-0.35,0.02-0.53c0.12-0.18,0.33-0.38,0.64-0.6c0.31-0.22,0.57-0.49,0.79-0.81c0.22-0.32,0.35-0.59,0.4-0.81
		c0.04-0.22,0.05-0.43,0.01-0.61c-0.03-0.18-0.12-0.31-0.27-0.39c-0.15-0.08-0.32-0.12-0.52-0.13c-0.52,0-1,0.08-1.44,0.25
		c-0.44,0.16-1.05,0.67-1.83,1.52c-0.61,0.66-1.23,1.51-1.82,2.04c-0.16,0.11-0.32,0.2-0.49,0.27c-0.29,0.12-0.67,0.19-1.14,0.19
		c-0.47,0.01-0.65-0.08-0.55-0.28c0.1-0.19,0.33-0.47,0.68-0.82c0.36-0.35,0.6-0.74,0.73-1.18s0.1-0.75-0.09-0.96
		c-0.19-0.21-0.48-0.28-0.87-0.21c-0.4,0.06-0.87,0.18-1.43,0.35c-0.56,0.17-1.19,0.42-1.88,0.75c-0.69,0.33-1.6,0.74-2.73,1.24
		c0.82-0.89,1.48-1.52,1.97-1.88c0.48-0.36,0.99-0.84,1.51-1.44c0.52-0.6,0.82-1.07,0.89-1.41c0.07-0.34,0.05-0.55-0.08-0.62
		c-0.13-0.07-0.23-0.11-0.32-0.11c-0.09,0-0.2,0.03-0.34,0.11c-0.14,0.08-0.46,0.38-0.97,0.9c-0.51,0.53-1.27,1.08-2.29,1.66
		c-1.02,0.58-1.86,1.15-2.51,1.7c-0.66,0.55-1.25,0.95-1.79,1.18c-0.16,0.07-0.28,0.14-0.39,0.23c-0.32,0.17-0.67,0.36-1.04,0.55
		c-0.67,0.35-1.37,0.35-1.76,0.41c-0.4,0.06-0.54-0.01-0.44-0.21c0.1-0.2,0.26-0.45,0.49-0.72c0.23-0.28,0.32-0.56,0.29-0.85
		c-0.03-0.29-0.21-0.52-0.52-0.69c-0.31-0.17-0.74-0.19-1.28-0.05c-0.54,0.14-1.05,0.32-1.53,0.55c-0.49,0.22-0.9,0.42-1.24,0.57
		c-0.34,0.15-0.72,0.33-1.16,0.52c-0.43,0.19-0.81,0.32-1.13,0.4c-0.32,0.07-0.37-0.08-0.14-0.47c0.23-0.38,0.29-0.78,0.17-1.16
		c-0.12-0.39-0.35-0.63-0.7-0.7c-0.35-0.08-0.81-0.02-1.38,0.16c-0.57,0.19-1.07,0.37-1.49,0.55c-0.42,0.18-0.81,0.39-1.18,0.62
		c-0.37,0.23-0.79,0.44-1.24,0.64c-0.46,0.2-0.8,0.31-1.02,0.33c-0.22,0.02-0.19-0.09,0.09-0.34c0.29-0.25,0.65-0.55,1.08-0.91
		c0.43-0.36,0.78-0.71,1.04-1.08c0.26-0.37,0.4-0.64,0.42-0.84c0.02-0.19-0.05-0.38-0.21-0.54s-0.47-0.28-0.92-0.35h-0.23
		c-0.55,0.13-1.1,0.33-1.66,0.6c-0.56,0.27-1.12,0.62-1.67,1.04c-0.56,0.42-1.08,0.83-1.56,1.24c-0.48,0.41-0.76,0.64-0.85,0.75
		c-0.03,0.04-0.04,0.08-0.06,0.12c-0.28,0.16-0.6,0.49-1.02,0.6c-0.46,0.12-1.05,0.16-1.77,0.13c-0.72-0.04-1.19-0.13-1.39-0.27
		c-0.21-0.14-0.29-0.27-0.25-0.39c0.04-0.12,0.31-0.25,0.83-0.4c0.51-0.14,0.97-0.39,1.38-0.72c0.41-0.33,0.63-0.72,0.67-1.17
		c0.04-0.46-0.07-0.77-0.33-0.95c-0.26-0.18-0.56-0.27-0.91-0.28l-0.39,0.02c-0.35,0.09-0.68,0.26-1.01,0.51
		c-0.33,0.25-0.66,0.54-0.99,0.87c-0.33,0.34-0.57,0.66-0.71,0.97c-0.15,0.31-0.22,0.76-0.21,1.34c0.07,0.38,0.18,0.67,0.34,0.86
		c0.16,0.19,0.38,0.35,0.66,0.49c0.29,0.14,0.84,0.25,1.65,0.32h0.45c0.75-0.03,1.38-0.13,1.9-0.29c0.52-0.16,0.83-0.45,1.18-0.64
		c0.31-0.17,0.56-0.39,0.82-0.73c0.09-0.07,0.18-0.14,0.29-0.23l0.62-0.5c0.82-0.63,1.46-1.08,1.89-1.35
		c0.44-0.27,0.84-0.47,1.21-0.59c0.38-0.12,0.6-0.11,0.69,0.05c0.08,0.15-0.06,0.39-0.44,0.71c-0.38,0.32-0.77,0.63-1.18,0.92
		c-0.41,0.29-0.89,0.61-1.44,0.97c-0.55,0.35-0.91,0.64-1.05,0.84c-0.15,0.21-0.19,0.38-0.1,0.53c0.08,0.14,0.2,0.22,0.35,0.23
		c0.15,0.01,0.34,0.02,0.58,0.02c0.3,0,0.61-0.04,0.92-0.12c0.39-0.09,0.91-0.27,1.56-0.53c0.65-0.26,1.3-0.53,1.95-0.82
		c0.65-0.29,1.17-0.51,1.57-0.66c0.39-0.15,0.79-0.24,1.21-0.26c0.41-0.03,0.55,0.09,0.42,0.36c-0.13,0.27-0.37,0.52-0.69,0.76
		c-0.33,0.24-0.52,0.55-0.56,0.94c0.01,0.22,0.2,0.34,0.57,0.34l0.07,0c0.41-0.02,0.95-0.14,1.62-0.34c0.67-0.2,1.35-0.41,2.04-0.62
		c0.69-0.21,1.25-0.41,1.67-0.61c0.43-0.2,0.88-0.38,1.37-0.54c0.48-0.16,0.65-0.1,0.5,0.21c-0.16,0.3-0.35,0.54-0.57,0.72
		c-0.22,0.18-0.27,0.41-0.14,0.71c0.13,0.29,0.61,0.45,1.43,0.48c1.05-0.13,2.96-0.44,3.75-0.92c0.07-0.04,0.13-0.08,0.2-0.12
		c0.07-0.04,0.15-0.07,0.23-0.13c0.51-0.36,1.12-0.79,1.83-1.3c0.7-0.5,1.58-1,2.63-1.48c-0.97,0.94-1.67,1.62-2.1,2.04
		c-0.43,0.42-0.97,0.92-1.61,1.49c-0.64,0.57-1.59,1.38-2.83,2.44c-1.24,1.05-2.23,1.92-2.97,2.62c-0.74,0.7-1.35,1.23-1.85,1.6
		c-0.45,0.34-0.67,0.62-0.67,0.84v0.07c0.06,0.23,0.21,0.36,0.46,0.37l0.06,0c0.22,0,0.41-0.07,0.6-0.22
		c0.2-0.17,0.64-0.48,1.32-0.94c0.68-0.45,1.43-1.09,2.28-1.89c0.84-0.8,1.55-1.49,2.13-2.05c0.58-0.56,1.37-1.24,2.38-2.03
		c1.01-0.79,1.88-1.4,2.6-1.84c0.73-0.43,1.5-0.83,2.3-1.18c0.81-0.36,1.41-0.6,1.8-0.74c0.39-0.13,0.66-0.18,0.81-0.15
		c0.15,0.04,0.1,0.17-0.17,0.38c-0.26,0.22-0.51,0.47-0.75,0.76c-0.24,0.29-0.47,0.6-0.69,0.92c-0.23,0.32-0.26,0.64-0.11,0.96
		c0.15,0.31,0.42,0.5,0.81,0.55c0.39,0.05,0.94,0.04,1.65-0.04c0.86-0.24,1.11-0.34,1.56-0.64c0.38-0.32,0.64-0.57,0.83-0.9
		c0.43-0.44,0.86-0.95,1.29-1.37c0.79-0.8,1.29-1.22,1.51-1.27c0.21-0.05,0.37-0.02,0.48,0.11c0.12,0.12,0.06,0.3-0.15,0.54
		c-0.22,0.23-0.48,0.42-0.78,0.55c-0.3,0.13-0.59,0.3-0.85,0.52c-0.27,0.21-0.47,0.44-0.6,0.67c-0.13,0.23-0.17,0.48-0.12,0.72
		c0.05,0.25,0.18,0.45,0.39,0.62c0.21,0.17,0.43,0.27,0.68,0.31c0.25,0.04,0.61,0.06,1.08,0.06c0.71-0.09,1.37-0.28,2.01-0.54
		c0.41-0.17,0.86-0.38,1.34-0.59c0.05,0.13,0.12,0.25,0.19,0.34c0.16,0.19,0.38,0.35,0.66,0.49c0.29,0.14,0.84,0.25,1.65,0.32
		l0.45,0c0.75-0.04,1.38-0.13,1.9-0.29c0.52-0.16,0.95-0.34,1.3-0.53c0.35-0.2,0.66-0.5,0.95-0.92
		C124.26,102.75,124.13,102.67,123.97,102.71 M73.01,101.43c0.13-0.19,0.36-0.37,0.71-0.55c0.35-0.18,0.54-0.19,0.57-0.02
		c0.03,0.17-0.07,0.35-0.29,0.56c-0.23,0.2-0.68,0.41-1.36,0.64C72.76,101.82,72.88,101.61,73.01,101.43 M118.95,101.29
		c0.13-0.19,0.37-0.37,0.71-0.55c0.35-0.18,0.54-0.19,0.57-0.02c0.03,0.17-0.06,0.35-0.29,0.55c-0.23,0.2-0.68,0.42-1.36,0.64
		C118.69,101.69,118.82,101.48,118.95,101.29"/>
	<path fill="#FFFFFF" d="M71.11,50.96h9.31l2.31,5.09h2.72L75.77,34.9l-9.69,21.15h2.72L71.11,50.96z M75.77,40.44l3.61,8.21h-7.21
		L75.77,40.44z"/>
	<polygon fill="#FFFFFF" points="119.98,50.77 113.92,35.75 111.15,35.75 119.98,57.13 128.78,35.75 126.01,35.75 	"/>
	<path fill="#FFFFFF" d="M139.11,50.96h9.31l2.31,5.09h2.72l-9.69-21.15l-9.69,21.15h2.72L139.11,50.96z M143.77,40.44l3.61,8.21
		h-7.21L143.77,40.44z"/>
	<polygon fill="#FFFFFF" points="165.86,40.92 181.09,56.88 181.09,35.75 178.57,35.75 178.57,50.75 163.33,34.79 163.33,56.05 
		165.86,56.05 	"/>
	<polygon fill="#FFFFFF" points="48.66,79.93 41.69,63.94 37.54,85.1 40.15,85.1 42.52,71.7 42.57,71.7 48.66,85.53 54.74,71.7 
		54.79,71.7 57.16,85.1 59.77,85.1 55.63,63.94 	"/>
	<path fill="#FFFFFF" d="M73.17,74.95c0,6.03,4.77,10.58,10.63,10.58c5.87,0,10.63-4.55,10.63-10.58c0-5.81-4.82-10.58-10.63-10.58
		S73.17,69.14,73.17,74.95 M91.9,74.95c0,4.63-3.71,8.21-8.1,8.21c-4.39,0-8.1-3.58-8.1-8.21c0-4.47,3.34-8.21,8.1-8.21
		C88.57,66.74,91.9,70.48,91.9,74.95"/>
	<path fill="#FFFFFF" d="M121.02,79.42c0-2.37-1.67-4.71-4.06-5.14v-0.05c1.37-0.65,2.18-2.37,2.18-3.85c0-4.58-3.61-5.57-7.43-5.57
		h-2.48V85.1h4.74C117.54,85.1,121.02,83.48,121.02,79.42 M111.76,67.07h0.7c2.37,0,4.31,0.48,4.31,3.34c0,2.91-1.96,3.39-4.36,3.39
		h-0.65V67.07L111.76,67.07z M111.76,82.84v-7.03h1.56c2.26,0,5.17,0.59,5.17,3.45c0,2.88-2.45,3.58-4.79,3.58H111.76z"/>
	<rect x="136.33" y="64.8" fill="#FFFFFF" width="2.53" height="20.29"/>
	<polygon fill="#FFFFFF" points="163.91,82.79 157.75,82.79 157.75,64.81 155.22,64.81 155.22,85.1 163.91,85.1 	"/>
	<rect x="178.06" y="64.8" fill="#FFFFFF" width="2.53" height="20.29"/>
</g>
<path fill="#FFFFFF" d="M7.28,8.6v126.61h216.03V8.6H7.28z M220.31,132.21H10.28V11.6h210.03V132.21z"/>
</svg>
