<?xml version="1.0" encoding="utf-8"?>
<!-- Generator: Adobe Illustrator 16.0.0, SVG Export Plug-In . SVG Version: 6.00 Build 0)  -->
<!DOCTYPE svg PUBLIC "-//W3C//DTD SVG 1.1//EN" "http://www.w3.org/Graphics/SVG/1.1/DTD/svg11.dtd">
<svg version="1.1" id="Layer_1" xmlns="http://www.w3.org/2000/svg" xmlns:xlink="http://www.w3.org/1999/xlink" x="0px" y="0px"
	 width="523px" height="317px" viewBox="0 0 523 317" enable-background="new 0 0 523 317" xml:space="preserve">
<g>
	<g>
		<path fill="#FFFFFF" d="M259.325,233.043c-0.333-0.511-0.854-1.49-1.56-2.897c-0.7-1.392-1.443-3.003-2.271-4.908
			c-0.894-2.115-1.715-3.855-2.43-5.191c-0.716-1.336-1.187-2.174-1.416-2.521c-0.201-0.306-0.256-0.499-0.268-0.594
			c-0.138-1.071-0.675-1.578-1.105-1.814c-0.547-0.3-1.263-0.389-2.309-0.28c-0.795,0.09-1.341,0.27-1.717,0.569
			c-0.328,0.278-0.664,0.802-1.07,1.696c-0.633,1.368-0.771,1.88-0.786,2.186c-0.157,0.179-0.376,0.491-0.651,0.944
			c-0.264,0.443-0.512,0.988-0.753,1.687c-0.351,1.111-0.909,2.643-1.671,4.546c-0.78,1.953-1.268,3.24-1.471,3.836l-1.149,3.017
			c-0.87,2.202-1.36,3.707-1.483,4.599c-0.212,1.391,0.333,2.159,0.816,2.572c0.437,0.357,0.891,0.542,1.355,0.542
			c0.535,0,1.033-0.234,1.504-0.705c0.659-0.68,1.347-1.965,2.084-3.934c0.469-1.269,0.822-1.844,1.038-2.108
			c0.278-0.326,0.701-0.589,1.267-0.778c0.65-0.214,1.842-0.452,3.567-0.707c2.021-0.315,3.419-0.429,4.031-0.339
			c0.332,0.06,0.452,0.191,0.493,0.531c0.058,0.418,0.302,1.142,1.655,3.34c0.964,1.609,1.329,2.022,1.556,2.206
			c0.436,0.37,1.108,0.456,1.69,0.305c0.968-0.18,1.687-0.784,2.077-1.75c0.189-0.489,0.277-0.859,0.284-1.176
			c0-0.332-0.13-0.751-0.409-1.307C259.993,234.146,259.696,233.627,259.325,233.043z M250.607,227.975l-1.934,0.264
			c-1.199,0.182-2.094,0.277-2.682,0.287c0.068-0.232,0.199-0.59,0.447-1.124l1.303-3.099c0.176-0.432,0.408-0.866,0.709-1.327
			c0.326,0.504,0.692,1.155,1.073,1.929c0.415,0.832,0.714,1.587,0.882,2.225L250.607,227.975z"/>
		<path fill="#FFFFFF" d="M285.333,215.492l-0.837-1.266h-9.078c-8.924,0-9.4,0.286-9.747,0.493c-0.701,0.469-1.034,1.275-0.994,2.4
			c0.035,1.137,0.416,1.907,1.1,2.269c0.415,0.262,1.201,0.532,3.907,0.532c1.101,0,1.803,0.012,2.076,0.039
			c0.552,0.082,0.846,0.347,0.99,0.851c0.085,0.402,0.226,1.922,0.11,7.592c-0.095,3.359-0.11,5.599-0.062,6.663
			c0.045,1.15,0.216,2.029,0.516,2.649c0.3,0.71,0.593,1.155,0.945,1.397c0.359,0.25,0.862,0.363,1.602,0.363h2.022l0.097-10.025
			c0.067-7.727,0.289-9.166,0.284-9.269c0.033-0.026,0.419-0.261,2.281-0.261c1.778,0,2.946-0.136,3.663-0.431
			c0.802-0.336,1.329-0.918,1.534-1.682C285.942,217.063,285.816,216.298,285.333,215.492z"/>
	</g>
	<g>
		<path fill="#FFFFFF" d="M68.739,267.327c-0.312-0.814-0.933-0.887-1.184-0.877c-0.108,0.003-0.223,0.021-0.349,0.055
			c-0.525,0.155-1.039,0.553-1.564,1.236c-0.814,1.067-2.057,1.807-3.681,2.209c-1.713,0.431-5.09,0.803-10.04,1.102
			c-1.848,0.094-3.121,0.203-3.79,0.33c-0.684,0.136-1.349,0.416-1.987,0.822c-1.539,0.936-2.641,2.137-3.285,3.568
			c-0.661,1.467-0.772,2.908-0.31,4.297c0.462,1.392,1.438,2.496,2.909,3.273c1.133,0.594,2.355,0.885,3.641,0.854h0.1
			c1.264-0.045,2.347-0.412,3.213-1.096c0.76-0.652,1.172-1.246,1.255-1.835c0.081-0.628-0.214-1.271-0.88-1.894
			c-0.625-0.645-1.447-0.997-2.44-1.064c-0.982-0.072-1.84,0.207-2.532,0.789c-0.542,0.477-0.798,0.557-0.879,0.559
			c-0.064,0.005-0.224-0.082-0.422-0.32c-0.446-0.549-0.404-1.49,0.15-2.799c0.371-0.932,0.904-1.548,1.629-1.888
			c0.764-0.368,2.006-0.536,3.646-0.453c0.462,0.019,0.795,0.032,0.985,0.036c0.197,0.01,0.438,0.033,0.743,0.072l0.249,0.025
			c0.188,0.021,0.313,0.039,0.371,0.044c0,0,0.065,0.023,0.205,0.124c0.135,0.102,0.232,0.164,0.24,0.164
			c0.018,0.029,0.055,0.105,0.124,0.307c0.099,0.281,0.133,0.43,0.134,0.493c0.021,0.103,0.031,0.276,0.055,0.534l0.014,0.248
			c0.023,0.407,0.038,0.746,0.048,1.012l0.045,1.289c0.006,2.231-0.026,3.627-0.114,4.152c-0.062,0.388-0.219,0.619-0.506,0.756
			c-0.615,0.307-0.953,0.873-0.976,1.589c-0.012,0.68,0.247,1.296,0.785,1.825c0.171,0.168,0.267,0.336,0.304,0.535
			c0.023,0.162,0.062,0.636-0.01,1.961c-0.023,1.117-0.039,2.238-0.045,3.352c-0.012,1.336-0.022,1.877-0.029,2.084
			c-0.029,0.235-0.088,0.51-0.201,0.822c-0.102,0.309-0.344,0.72-0.698,1.223c-0.819,1.197-0.981,1.561-1.036,1.778
			c-0.099,0.42,0.067,0.854,0.518,1.339c0.252,0.218,0.574,0.328,0.915,0.332c0.062,0.013,0.132,0.013,0.2,0.007
			c0.249-0.007,0.551-0.055,0.912-0.146c0.382-0.1,0.773-0.217,1.182-0.352c0.389-0.127,0.898-0.264,1.531-0.438
			c0.596-0.154,1.188-0.276,1.771-0.371l0.128-0.022c0.159-0.035,0.311-0.067,0.446-0.097c0.771-0.184,1.665-0.486,1.731-1.218
			c0.084-0.771-0.878-1.199-1.283-1.384c-0.531-0.232-0.828-0.537-0.92-0.946c-0.307-1.19-0.24-4.956,0.193-11.198
			c0.609-8.638,1.082-9.854,1.213-10.027c0.15-0.197,0.639-0.626,2.205-1.271c1.86-0.773,3.291-1.623,4.24-2.515
			C68.695,269.291,69.08,268.282,68.739,267.327z"/>
		<path fill="#FFFFFF" d="M93.831,294.13c-0.245-0.199-0.702-0.459-1.357-0.776l-0.388-0.17l0.062-6.861
			c0.016-3.888,0.082-6.728,0.212-9.222c0.146-2.663,0.235-3.459,0.286-3.667c0.062-0.287,0.197-0.597,0.4-0.927
			c0.545-0.866,0.656-1.205,0.691-1.417c0.043-0.284,0-0.724-0.484-1.199c-0.35-0.396-1.022-0.632-2.105-0.731
			c-0.252-0.016-0.469-0.025-0.66-0.025h-0.105c-0.424,0.01-0.932,0.066-1.201,0.437c-0.129,0.044-0.629,0.171-2.258,0.195
			c-2.353,0.041-2.971,0.349-3.275,0.645c-0.278,0.284-0.538,0.595-0.469,0.994c0.043,0.259,0.203,0.46,0.695,0.864
			c0.484,0.369,1.145,0.619,1.952,0.736c0.409,0.092,0.694,0.175,0.878,0.25c0.158,0.069,0.311,0.164,0.447,0.287
			c0.031,0.027,0.121,0.164,0.168,0.511c0.052,0.417,0.096,0.88,0.128,1.38c0.036,0.51,0.056,1.29,0.083,2.331
			c0.039,2.644-0.016,3.116-0.138,3.922c-0.021,0.075-0.036,0.139-0.06,0.236l-0.014,0.071c-0.153,0.909-0.384,1.051-0.434,1.08
			c-0.059,0.027-0.415,0.175-2.104,0.199c-0.711,0.008-1.598,0.003-2.621-0.021c-3.878-0.127-4.56-0.334-4.666-0.403
			c0,0-0.129-0.142-0.181-0.802c-0.05-0.588-0.056-0.753-0.044-2.978c0-1.247,0.012-2.167,0.027-2.755
			c0.01-0.484,0.031-0.945,0.046-1.385l0.021-0.293c0.034-0.576,0.123-0.793,0.161-0.861c0.104-0.189,0.231-0.371,0.368-0.532
			c0.061-0.075,0.229-0.249,0.64-0.521c0.937-0.675,0.959-1.531,0.823-2.138c-0.208-0.824-0.778-1.283-1.647-1.283h-0.008
			l-0.121,0.011c-0.388,0.034-1.22,0.19-2.705,0.508c-2.041,0.437-2.385,0.608-2.567,0.75c-0.29,0.231-0.604,0.677-0.469,1.487
			c0.087,0.532,0.349,1.045,0.765,1.529l0.519,0.643l0.085,8.985c0.059,5.017,0.066,7.972,0.028,9.022
			c-0.05,1.439-0.208,1.965-0.296,2.147c-0.619,1.286-0.599,2.22,0.058,2.763c0.392,0.322,1.036,0.473,1.972,0.473h0.148
			c0.338-0.004,0.721-0.027,1.125-0.071c1.979-0.271,2.508-0.646,2.752-0.976c0.309-0.402,0.395-0.785,0.262-1.139
			c-0.074-0.203-0.238-0.453-0.817-1.032c-0.347-0.378-0.563-0.694-0.638-0.936c-0.058-0.183-0.172-0.695-0.318-2.157
			c-0.152-1.797-0.101-3.137-0.025-3.389c0.051-0.174,0.166-0.389,0.59-0.5c0.666-0.172,2.098-0.25,4.662-0.25
			c3.715,0.01,4.199,0.16,4.21,0.16c0.085,0.057,0.146,0.188,0.181,0.381c0.044,0.309,0.096,1.669,0.123,3.035
			c0.018,1.246,0.002,2.074-0.041,2.465c-0.05,0.323-0.213,0.71-0.479,1.109c-0.574,0.894-0.705,1.607-0.4,2.195
			c0.218,0.375,0.604,0.602,1.123,0.684c0.405,0.071,1.167,0.071,2.343,0.02c3.183-0.133,4.595-0.752,4.571-2.014
			C94.323,294.763,94.152,294.394,93.831,294.13z"/>
		<path fill="#FFFFFF" d="M119.682,291.196c-0.467-0.506-1.164-0.555-1.975-0.124c-0.65,0.353-1.246,0.888-1.76,1.593
			c-0.486,0.667-0.953,1.127-1.385,1.346c-0.418,0.212-0.767,0.271-1.053,0.262c-0.33-0.041-0.789-0.091-1.375-0.15l-0.463-0.049
			c-0.82-0.08-1.687-0.086-2.484-0.023l-0.226,0.018c-0.888,0.021-1.349-0.139-1.452-0.303c-0.074-0.125-0.334-0.945-0.305-3.762
			c0.031-2.311,0.228-3.044,0.333-3.275c0.046-0.076,1.93-0.311,2.618-0.311c0.078,0,0.158,0.002,0.257,0.01
			c0.234,0.006,0.376,0.026,0.444,0.039c0.035,0.112,0.089,0.363,0.133,0.899c0.091,1.002,0.234,1.336,0.359,1.517
			c0.148,0.234,0.453,0.506,1.033,0.506h0.096c0.426-0.016,0.805-0.227,1.145-0.631c0.263-0.33,0.539-0.859,0.853-1.666
			c0.661-1.531,1.15-2.903,1.442-4.076c0.348-1.402,0.34-2.201-0.012-2.637c-0.379-0.477-0.815-0.713-1.291-0.713
			c-0.754,0-1.537,0.607-2.332,1.801c-0.607,0.881-0.849,1.03-0.854,1.038c-0.039,0.013-0.223,0.079-0.812,0.106
			c-0.16,0-0.35,0.011-0.527,0.011l-2.914-0.018l-0.088-3.188c-0.033-2.581,0.076-4.278,0.332-5.032l0.293-0.838l6.053-0.456
			l0.204,0.479c0.229,0.642,0.644,1.324,1.226,2.029c0.689,0.811,1.174,1.158,1.69,1.158l0,0c0.38-0.016,0.901-0.234,1.251-1.165
			c0.223-0.556,0.452-1.55,0.707-3.021c0.446-2.477,0.334-3.261,0.025-3.68c-0.344-0.418-0.742-0.618-1.196-0.618h-0.094
			c-0.239,0.035-0.706,0.161-2.183,0.843c-0.714,0.318-1.454,0.51-2.217,0.58c-0.273,0.018-0.645,0.045-1.127,0.069
			c-0.979,0.048-2.375,0.086-4.15,0.119c-3.988,0.058-6.369,0.065-7.074,0.017h-0.185c-0.565,0-0.898,0.107-1.117,0.339
			c-0.221,0.258-0.303,0.646-0.276,1.337c0.029,0.596,0.162,1.012,0.389,1.285c0.223,0.273,0.604,0.484,1.293,0.723
			c0.455,0.137,0.614,0.213,0.728,0.262c0.47,0.174,0.756,0.457,0.878,0.883c0.128,0.466,0.305,2.268,0.367,8.199
			c0.02,2.625,0.012,4.912-0.021,6.612c-0.023,1.59-0.109,2.868-0.247,3.812c-0.16,1.159-0.366,1.562-0.472,1.688
			c-0.15,0.191-0.348,0.284-0.618,0.294c-0.573,0.03-1.038,0.298-1.409,0.804c-0.516,0.711-0.392,1.328-0.275,1.605
			c0.202,0.645,0.984,0.73,1.865,0.73l0,0c0.811-0.005,1.838-0.059,3.066-0.168c1.172-0.105,2.377-0.199,3.616-0.294l0.112-0.005
			c1.241-0.102,2.513-0.145,3.738-0.117c1.157,0.004,2.097,0.094,2.717,0.248c0.802,0.234,1.334,0.344,1.696,0.344h0.111h0.005
			c0.385-0.02,0.761-0.144,1.118-0.361c0.542-0.336,0.919-0.762,1.124-1.265c0.169-0.424,0.387-1.294,0.699-2.745
			C120.092,292.179,119.984,291.563,119.682,291.196z"/>
	</g>
	<g>
		<path fill="#FFFFFF" d="M142.236,254.185c3.123-0.472,8.994-0.666,17.594-0.566c8.612,0.099,14.412,0.428,17.407,0.986
			c5.301,1.031,9.097,2.707,11.38,5.053c1.475,1.441,1.811,3.866,1.014,7.271c-0.799,3.402-2.278,5.901-4.451,7.475
			c-2.168,1.584-3.729,2.841-4.685,3.774c-0.957,0.923-1.306,1.596-1.058,2.008c0.258,0.482,0.916,0.948,1.967,1.389
			c1.048,0.453,2.041,0.98,2.965,1.602c0.918,0.617,1.736,1.465,2.438,2.534c0.697,1.06,0.896,2.711,0.576,4.945
			c-0.326,2.236-1.242,4.931-2.775,8.097c-2.044,4.265-2.999,7.502-2.863,9.697c0.117,2.212,1.363,3.646,3.729,4.331
			c2.807,0.757,5.604,0.069,8.407-2.067c1.538-1.17,2.173-2.32,1.919-3.447c-0.253-1.135-1.375-1.974-3.349-2.529
			c-2.162-0.548-2.772-1.924-1.813-4.13c0.823-1.99,2.212-3.229,4.154-3.716c1.947-0.468,4.064-0.098,6.365,1.134
			c0.765,0.425,1.242,0.862,1.438,1.341c0.188,0.48,0.283,1.414,0.283,2.793c0,3.851-1.625,7.494-4.879,10.929
			c-1.595,1.722-2.998,2.79-4.207,3.207c-1.215,0.41-3.377,0.608-6.506,0.608c-3.443,0-5.963-0.249-7.553-0.768
			c-1.6-0.516-2.912-1.464-3.924-2.84c-1.336-1.851-2.186-3.711-2.536-5.563c-0.354-1.865-0.396-3.527-0.146-5.005
			c0.25-1.479,0.576-3.513,0.96-6.094c0.386-2.575,0.574-4.999,0.574-7.27c0-2.127-0.097-3.444-0.289-3.914
			c-0.187-0.488-0.829-0.969-1.913-1.449c-1.725-0.751-4.131-1.097-7.226-1.033c-3.087,0.072-5.116,0.525-6.063,1.34
			c-0.642,0.553-1.059,1.326-1.247,2.326c-0.194,0.996-0.349,3.456-0.481,7.375c-0.123,4.188-0.123,6.738,0,7.633
			c0.133,0.897,0.604,1.822,1.434,2.781c1.211,1.31,1.725,2.522,1.529,3.617c-0.131,0.962-0.631,1.475-1.529,1.545
			c-0.892,0.068-2.294,0.016-4.212-0.152c-1.906-0.166-4.4,0.111-7.45,0.871c-2.808,0.762-4.498,0.859-5.069,0.309
			c-0.838-0.754-1.011-1.627-0.526-2.629c0.474-0.994,1.539-1.947,3.199-2.832l3.248-1.752l0.966-18.365l-1.914-2.479
			c-1.219-1.506-1.808-2.488-1.776-2.938c0.039-0.443,0.813-1.227,2.352-2.318c1.264-0.965,2.111-2.235,2.527-3.822
			c0.414-1.582,0.623-4.566,0.623-8.969c0.064-3.506-0.209-5.597-0.816-6.289c-0.603-0.688-2.278-0.906-5.022-0.625
			c-1.524,0.146-2.683,0.344-3.441,0.625c-0.763,0.273-1.462,0.793-2.106,1.54c-0.824,0.833-1.256,1.376-1.289,1.651
			c-0.031,0.284,0.242,0.758,0.818,1.438c0.825,0.973,1.496,1.462,2.004,1.462c0.641,0,1.289,0.593,1.965,1.795
			c0.666,1.208,0.939,2.254,0.811,3.144c-0.194,1.302-1.049,2.236-2.582,2.791c-1.53,0.551-3.238,0.615-5.116,0.207
			c-1.882-0.418-3.394-1.208-4.55-2.377c-1.145-1.311-1.715-2.65-1.715-4.021c0-1.375,0.63-3.097,1.908-5.156
			c1.277-2.129,2.586-3.626,3.928-4.494C136.972,255.339,139.172,254.674,142.236,254.185z M176.668,261.924
			c-1.082-1.022-3.602-2.112-7.557-3.245c-3.951-1.137-6.468-1.293-7.557-0.461c-0.893,0.751-1.563,3.914-2.004,9.48
			c-0.448,5.58-0.291,8.771,0.477,9.6c0.572,0.686,1.795,0.967,3.678,0.827c1.876-0.142,3.629-0.581,5.213-1.352
			c3.512-1.711,6.105-4.185,7.803-7.428C178.405,266.119,178.394,263.644,176.668,261.924z"/>
		<path fill="#FFFFFF" d="M219.997,257.3c1.218-0.766,3.487-1.535,6.843-2.344c3.35-0.794,6.932-1.113,10.758-0.957
			c3.826,0.163,6.473,1.109,7.939,2.824c1.151,1.406,2.193,3.111,3.11,5.123c0.927,2.006,1.515,3.775,1.764,5.316
			c0.321,1.977,0.77,3.235,1.349,3.774c0.574,0.548,1.828,0.817,3.773,0.817c1.938,0,3.234,0.238,3.871,0.717
			c0.64,0.479,0.961,1.42,0.961,2.818c0,0.895-0.307,1.711-0.911,2.441c-0.612,0.735-1.997,2.033-4.152,3.879
			c-2.364,2.038-3.829,3.43-4.406,4.166c-0.576,0.73-0.956,1.806-1.151,3.207c-0.512,3.638-1.734,7.062-3.675,10.289
			c-1.948,3.225-4.298,5.795-7.04,7.699c-2.037,1.408-4.585,2.541-7.65,3.403c-3.051,0.86-5.543,1.163-7.453,0.912
			c-1.342-0.188-2.602-0.517-3.785-0.962c-1.174-0.445-2.217-0.912-3.107-1.393c-0.893-0.475-1.768-1.145-2.627-2.006
			c-0.862-0.867-1.567-1.578-2.109-2.151c-0.543-0.573-1.113-1.454-1.717-2.632c-0.611-1.181-1.075-2.076-1.387-2.676
			c-0.322-0.608-0.728-1.6-1.2-2.973c-0.476-1.372-0.794-2.297-0.956-2.777c-0.158-0.474-0.463-1.418-0.908-2.824
			c-0.57-1.783-0.947-2.926-1.099-3.443c-0.16-0.506-0.243-1.105-0.243-1.779c0-0.661,0.099-1.104,0.287-1.338
			c0.189-0.222,0.493-0.924,0.912-2.102c0.416-1.179,0.814-2.562,1.193-4.16C209.539,268.344,213.814,261.39,219.997,257.3z
			 M225.741,287.835c-1.787-0.635-3.452-1.035-4.97-1.193c-1.538-0.168-2.531-0.041-2.975,0.33
			c-0.254,0.319-0.381,2.205-0.381,5.654c0,3.124,0.43,5.85,1.297,8.182c0.854,2.32,2.059,3.872,3.576,4.641
			c7.15,3.703,12.596,0.731,16.355-8.901c0.898-2.358,1.395-3.847,1.492-4.447c0.097-0.607-0.12-1.196-0.625-1.771
			c-0.639-0.575-1.598-0.917-2.863-1.006c-1.279-0.096-2.956-0.194-5.029-0.29C229.549,288.937,227.582,288.538,225.741,287.835z
			 M235.111,259.981c-1.91-1.91-4.397-2.067-7.461-0.48c-1.527,0.771-2.803,1.982-3.825,3.637c-1.022,1.671-2.14,4.371-3.349,8.144
			l-2.105,6.319l1.341,1.815c0.893,1.146,2.452,2.329,4.691,3.536c1.399,0.713,2.598,1.174,3.587,1.396
			c0.984,0.22,2.373,0.33,4.152,0.33c4.211,0,6.775-0.552,7.705-1.677c0.927-1.115,1.129-3.901,0.621-8.371
			C239.709,267.667,237.914,262.798,235.111,259.981z"/>
		<path fill="#FFFFFF" d="M302.645,256.671c0.671-0.86,1.331-1.5,1.972-1.905c0.659-0.409,1.19-0.565,1.605-0.456
			c0.425,0.103,0.754,0.364,0.992,0.773c0.242,0.396,0.305,1.007,0.179,1.806c-0.125,0.806-0.444,1.666-0.98,2.586
			c-0.768,1.437-1.43,3.323-1.998,5.645s-1.157,4.034-1.773,5.11c-0.627,1.088-1.672,1.561-3.146,1.438
			c-0.895-0.082-1.451-0.303-1.649-0.639c-0.219-0.347-0.388-1.347-0.524-2.997c-0.47-4.704-2.614-6.974-6.429-6.802
			c-1.092,0.05-1.919,0.246-2.521,0.594c-0.593,0.353-1.369,1.082-2.336,2.219c-1.402,1.532-3.004,4.332-4.797,8.404
			c-1.79,4.076-3.01,7.5-3.646,10.271c-0.582,2.78-0.903,5.997-0.951,9.671c-0.062,3.678,0.194,6.239,0.778,7.682
			c1.308,3.457,3.641,5.744,7.013,6.868c1.423,0.452,2.4,0.661,2.949,0.642c0.542-0.027,1.501-0.365,2.874-0.994
			c3.692-1.578,6.446-4.164,8.262-7.756c1.582-3.206,1.602-5.466,0.082-6.803c-0.666-0.615-1.641-0.889-2.912-0.83
			c-1.085,0.05-2.027-0.369-2.834-1.266c-0.813-0.893-1.223-1.918-1.239-3.098c-0.026-1.186,0.396-2.113,1.262-2.797
			c1.664-1.286,3.523-1.528,5.566-0.728c2.044,0.804,3.656,2.354,4.856,4.671c0.842,1.684,1.272,3.26,1.313,4.729
			c0.033,1.468-0.281,3.303-0.946,5.502c-0.908,2.724-2.276,5.133-4.127,7.232c-1.854,2.093-3.912,3.516-6.18,4.252
			c-5.02,1.762-10.236,1.938-15.624,0.516c-5.4-1.418-8.838-3.878-10.345-7.381c-0.64-1.446-1.088-3.275-1.346-5.502
			c-0.269-2.219-0.274-4.236-0.044-6.034c0.19-1.601,0.22-2.698,0.099-3.261c-0.128-0.57-0.547-1.254-1.289-2.054
			c-1.075-1.161-1.625-1.937-1.638-2.313c-0.006-0.26,0.367-0.677,1.14-1.257c0.772-0.573,1.635-1.281,2.586-2.12
			c0.952-0.845,1.597-1.656,1.949-2.438c0.051-0.195,0.479-1.122,1.259-2.791c0.788-1.663,1.616-3.51,2.478-5.524
			c0.871-2.084,2.181-4.188,3.926-6.313c1.767-2.123,3.421-3.631,4.967-4.535c1.251-0.699,3.304-1.232,6.152-1.622
			c1.844-0.214,3.314-0.272,4.396-0.188c1.09,0.072,2.543,0.391,4.356,0.943l4.466,1.338L302.645,256.671z"/>
		<path fill="#FFFFFF" d="M351.775,256.411c7.851-0.574,11.777-0.352,11.777,0.675c0,0.388-0.249,0.706-0.721,0.958
			c-0.481,0.256-1.286,0.572-2.396,0.951c-1.117,0.387-1.928,0.677-2.437,0.865c-1.15,0.51-4.514,3.506-10.097,8.993
			c-5.579,5.489-8.241,8.425-7.985,8.81c0.255,0.449,1.878,1.371,4.874,2.773c2.942,1.344,4.935,2.59,5.987,3.735
			c1.045,1.144,1.572,2.591,1.572,4.353c0,1.755-0.542,4.39-1.625,7.9c-1.341,4.343-2.053,7.432-2.147,9.275
			c-0.11,1.857,0.394,3.322,1.479,4.404c0.696,0.713,1.849,1.368,3.44,1.967c1.591,0.608,3.027,0.912,4.309,0.912
			c1.656,0,3.141-0.317,4.451-0.955c1.303-0.639,2.211-1.497,2.723-2.585c0.771-1.597,0.941-2.698,0.52-3.308
			c-0.413-0.607-1.516-0.906-3.297-0.906c-3.57,0-5.354-1.305-5.354-3.927c0-2.046,1.307-3.386,3.919-4.016
			c3.124-0.705,5.997-0.126,8.616,1.722c2.476,1.785,3.727,4.301,3.727,7.559c0,1.468-0.131,2.52-0.38,3.16
			c-0.266,0.639-0.962,1.53-2.104,2.678c-1.854,1.791-4.387,3.068-7.603,3.831c-3.224,0.765-6.435,0.956-9.618,0.571
			c-3.192-0.377-5.805-1.215-7.84-2.488c-1.409-0.824-2.263-2.215-2.533-4.162c-0.293-1.943-0.182-5.66,0.334-11.148
			c0.19-2.427,0.295-4.241,0.327-5.461c0.038-1.211,0.038-2.335,0-3.393c-0.032-1.059-0.243-1.854-0.612-2.4
			c-0.388-0.533-0.837-0.998-1.347-1.385c-0.515-0.377-1.242-0.826-2.195-1.344c-2.297-1.142-4.387-1.7-6.267-1.665
			c-1.89,0.027-3.426,0.655-4.642,1.858c-0.773,0.773-1.29,1.67-1.576,2.681c-0.283,1.028-0.623,3.351-1.013,6.986
			c-0.439,3.903-0.632,6.259-0.567,7.085c0.055,0.84,0.442,1.726,1.15,2.684c0.7,1.018,1.05,1.904,1.05,2.633
			c0,0.736-0.383,1.226-1.151,1.484c-0.569,0.121-2.958,0.482-7.167,1.054c-2.814,0.317-4.615,0.46-5.407,0.427
			c-0.801-0.029-1.423-0.267-1.859-0.717c-0.454-0.449-0.618-0.857-0.48-1.244c0.119-0.389,0.693-1.15,1.717-2.298
			c1.346-1.47,2.174-2.905,2.491-4.307c0.31-1.403,0.823-5.485,1.529-12.247c0.628-5.872,1.192-9.831,1.677-11.873
			c0.473-2.041,0.906-5.012,1.286-8.906l0.668-6.791l-1.72-1.337c-1.213-0.896-1.666-1.687-1.335-2.392
			c0-0.193,0.073-0.341,0.23-0.432c0.159-0.1,0.37-0.199,0.626-0.293c0.252-0.09,0.541-0.156,0.86-0.191
			c0.319-0.029,0.768-0.062,1.338-0.09c0.571-0.035,1.155-0.062,1.721-0.097c0.57-0.032,1.321-0.05,2.252-0.05
			c0.922,0,1.847-0.014,2.768-0.047c0.93-0.033,2.076-0.047,3.45-0.047c1.371,0,2.686-0.033,3.968-0.099
			c1.083-0.062,1.597,0.157,1.53,0.677c0,0.626-0.83,1.338-2.483,2.097c-1.915,0.835-3.095,1.646-3.545,2.437
			c-0.443,0.809-0.732,2.802-0.856,5.986l-0.194,4.792l1.73,0.196c1.205,0.182,2.735-0.163,4.581-1.059
			c1.402-0.705,3.954-2.684,7.658-5.938c3.693-3.25,5.541-5.167,5.541-5.739c0-0.386-0.545-0.804-1.628-1.251
			c-2.229-0.896-2.098-1.592,0.387-2.1C348.881,256.638,350.179,256.481,351.775,256.411z"/>
		<path fill="#FFFFFF" d="M421.073,283.719c-1.482-2.11-3.506-3.388-6.016-3.795c-0.896-0.085-2.749,0.37-5.752,1.499
			c-2.918,1.085-4.986,2.082-6.144,2.957c-1.015,0.76-1.883,1.951-2.586,3.547c-0.7,1.637-0.891,2.885-0.575,3.806
			c0.336,0.944,1.262,1.618,2.744,2.007c1.435,0.385,2.819,0.352,4.093-0.102c1.052-0.371,1.943-1.046,2.64-2.027
			c0.687-0.956,1.16-1.902,1.402-2.785c0.232-0.812,0.572-1.514,1.011-2.101c0.333-0.444,0.705-0.649,1.149-0.649
			c0.063,0,0.13,0,0.178,0.007c0.858,0.159,1.536,0.611,2.036,1.353c1.312,2,1.515,4.377,0.606,7.072
			c-0.91,2.75-2.862,5.406-5.798,7.908c-2.091,1.805-3.992,2.956-5.67,3.424c-1.68,0.471-4.114,0.516-7.227,0.155
			c-4.798-0.657-8.522-2.585-11.116-5.745c-2.584-3.15-3.593-7.059-2.982-11.615c0.234-1.631,0.684-2.863,1.333-3.662
			c0.659-0.826,2.119-1.93,4.312-3.273c1.697-1.031,3.655-1.594,5.834-1.668c2.228-0.113,3.703-0.393,4.512-0.848
			c0.619-0.354,1.271-1.084,0.929-2.604c-0.183-0.747-0.559-1.313-1.103-1.69c-0.499-0.336-1.37-0.716-2.694-1.146
			c-2.303-0.641-3.935-1.395-4.843-2.238c-0.894-0.826-1.346-1.87-1.377-3.188c-0.05-1.873,0.689-3.646,2.224-5.262
			c1.536-1.617,3.251-2.496,5.118-2.592c1.348-0.135,2.519,0.137,3.495,0.762c0.991,0.627,1.709,1.355,2.13,2.164
			c0.478,0.881,0.972,1.766,1.487,2.66c0.546,0.973,1.082,1.574,1.632,1.835c0.774,0.386,1.711,0.097,2.772-0.882
			c0.96-0.867,1.972-2.192,3.003-3.947c0.834-1.436,1.847-2.878,3.014-4.285c1.138-1.361,2.033-2.471,2.589-3.211
			c0.626-0.83,0.787-1.545,0.46-2.21c-0.327-0.397-0.725-0.597-1.266-0.597c-0.436,0.02-1.089,0.207-1.987,0.592
			c-1.008,0.423-2.052,1.188-3.109,2.262c-0.977,0.981-1.842,1.552-2.566,1.682c-0.698,0.153-1.681-0.268-2.919-1.22
			c-1.707-1.275-3.249-1.944-4.545-2.015c-1.283-0.053-3.438,0.395-6.62,1.375c-3.791,1.139-6.532,2.411-8.161,3.776
			c-1.419,1.097-2.628,2.647-3.604,4.619c-0.963,1.978-1.398,3.722-1.303,5.179c0.081,1.019,0.675,2.51,1.837,4.556
			c1.424,2.515,1.535,2.991,1.546,2.991c-0.057,0.165-0.549,0.953-3.947,4.668c-3.051,3.432-4.979,6.597-5.747,9.408
			c-0.764,2.828-0.527,6.012,0.681,9.489c0.859,2.443,1.796,4.384,2.778,5.763c0.982,1.375,2.307,2.596,3.933,3.629
			c1.604,1.017,3.834,1.872,6.628,2.53c2.203,0.52,4.181,0.79,5.881,0.79c0.461,0,0.896-0.023,1.315-0.057
			c3.291-0.304,7.104-1.488,11.319-3.527c4.288-2.086,7.102-4.105,8.577-6.164c1.644-2.204,3.046-4.485,4.188-6.779
			c1.17-2.309,1.819-4.15,1.968-5.471C423.118,288.21,422.557,285.819,421.073,283.719z"/>
		<path fill="#FFFFFF" d="M475.812,251.75c1.039-1.104,2.002-1.751,2.913-1.95c0.912-0.187,1.526,0.133,1.851,0.977
			c0.523,1.423-0.282,2.955-2.386,4.573c-2.105,1.618-5.232,3.11-9.373,4.473c-2.984,0.972-4.862,1.875-5.639,2.726
			c-1.037,1.104-2.284,7.892-3.739,20.369c-1.457,12.484-1.865,19.986-1.214,22.516c0.251,1.174,1.154,2.073,2.719,2.725
			c3.044,1.307,2.749,2.273-0.875,2.916c-0.39,0.068-0.817,0.128-1.27,0.201c-1.291,0.13-2.669,0.337-4.125,0.625
			c-1.465,0.298-2.646,0.55-3.546,0.787c-0.909,0.218-1.782,0.419-2.627,0.581c-0.844,0.155-1.54,0.228-2.091,0.195
			c-0.547-0.04-0.991-0.175-1.312-0.44c-0.59-0.584-0.812-1.083-0.678-1.506c0.123-0.424,0.875-1.445,2.229-3.068
			c0.91-1.035,1.534-1.91,1.852-2.622c0.321-0.71,0.519-1.362,0.579-1.943c0.062-0.592,0.148-1.983,0.25-4.185
			c0.097-2.209,0.204-4.406,0.339-6.619c0.19-2.067,0.244-3.43,0.144-4.08c-0.095-0.642-0.444-1.238-1.022-1.746
			c-0.901-0.847-1.329-1.77-1.263-2.776c0.063-1.006,0.585-1.702,1.553-2.092c1.037-0.39,1.685-1.148,1.953-2.28
			c0.251-1.137,0.445-3.941,0.569-8.416c0-1.164,0-2.028,0-2.578c0-0.553-0.013-1.228-0.045-2.041
			c-0.032-0.807-0.058-1.365-0.097-1.654c-0.031-0.289-0.144-0.696-0.333-1.211c-0.196-0.52-0.34-0.831-0.438-0.928
			c-0.091-0.094-0.361-0.292-0.776-0.585c-0.424-0.289-0.771-0.448-1.021-0.489c-0.257-0.026-0.752-0.092-1.462-0.195
			c-0.717-0.095-1.293-0.156-1.749-0.193c-0.455-0.032-1.196-0.07-2.238-0.143c-3.953-0.259-6.915-0.016-8.89,0.731
			c-1.977,0.741-3.489,2.157-4.516,4.226c-1.559,2.986-1.692,5.227-0.393,6.716c0.713,0.771,1.401,1.151,2.089,1.118
			c0.68-0.039,1.599-0.471,2.771-1.312c1.301-0.904,2.899-1.279,4.816-1.124c1.91,0.167,3.445,0.8,4.612,1.903
			c1.166,1.032,1.671,1.982,1.504,2.812c-0.156,0.848-0.993,1.793-2.479,2.826c-1.809,1.166-4.066,1.729-6.757,1.699
			c-2.682-0.03-5.202-0.629-7.526-1.799c-2.987-1.493-4.893-3.486-5.74-5.983c-0.833-2.493-0.534-5.036,0.923-7.629
			c1.46-2.595,3.851-4.706,7.142-6.323c1.369-0.713,2.741-1.168,4.133-1.363c1.396-0.195,4.194-0.321,8.416-0.384
			c11.333-0.265,19.01-0.767,23.034-1.513C470.593,255.529,473.671,254.019,475.812,251.75z"/>
	</g>
	<g>
		<path fill="#FFFFFF" d="M99.58,1.069c3.044-0.833,5.746-1.178,8.131-1.041c2.379,0.136,5.06,0.76,8.039,1.87
			c3.246,1.223,5.32,2.027,6.215,2.408c0.892,0.393,2.151,1.086,3.779,2.08c2.601,1.498,4.551,2.894,5.852,4.199
			c1.297,1.296,2.377,2.95,3.244,4.944c3.09,6.704,3.09,13.181,0,19.44c-1.088,2.222-2.383,3.968-3.895,5.243
			c-1.515,1.268-4.043,2.768-7.561,4.487c-2.703,1.327-4.653,2.169-5.847,2.527c-1.19,0.365-3.173,0.653-5.929,0.878
			c-3.576,0.331-6.97,0.426-10.203,0.292c-3.221-0.145-5.043-0.432-5.484-0.876c-0.379-0.383-0.339-0.87,0.123-1.453
			c0.463-0.576,1.701-0.844,3.7-0.789c1.894,0.11,3.103-0.194,3.616-0.912c0.514-0.722,0.88-2.632,1.094-5.736
			c0.109-1.222,0.222-2.392,0.326-3.529c0.109-1.136,0.178-1.945,0.207-2.416c0.023-0.465,0.069-0.944,0.118-1.411
			c0.058-0.472,0.012-0.805-0.118-0.998c-0.14-0.196-0.288-0.369-0.448-0.54c-0.156-0.171-0.431-0.389-0.808-0.662
			c-1.097-0.779-1.628-1.598-1.628-2.455s0.52-1.699,1.542-2.529l1.535-1.168l0.088-8.893c0.057-5.312-0.135-8.333-0.569-9.05
			c-0.379-0.783-1.439-0.947-3.167-0.503c-0.273,0.053-0.705,0.164-1.305,0.333c-2.543,0.608-4.938,1.508-7.191,2.701
			c-2.243,1.192-3.585,2.287-4.016,3.281c-0.545,1.216-0.625,2.048-0.246,2.495c0.383,0.443,1.411,0.665,3.085,0.665
			c1.192,0,2.104,0.094,2.733,0.29c0.615,0.194,1.223,0.537,1.822,1.038l1.543,1.411l-1.219,1.243
			c-0.545,0.502-1.157,0.833-1.828,1.005c-0.68,0.166-2.042,0.243-4.103,0.243c-2.333,0-3.767-0.077-4.308-0.243
			c-0.538-0.172-1.193-0.665-1.947-1.497c-1.465-1.664-1.936-3.603-1.424-5.817c0.518-2.22,1.854-4.078,4.021-5.568
			c1.082-0.724,2.87-1.58,5.363-2.579C95.016,2.482,97.361,1.679,99.58,1.069z M120.426,8.774c-1.34-0.867-2.581-1.44-3.732-1.713
			c-1.15-0.27-1.936-0.194-2.367,0.247c-0.205,0.218-0.316,1.896-0.316,5.047c0,3.92-0.643,10.054-1.923,18.424
			c-0.482,3.093-0.737,5.782-0.769,8.063c-0.029,2.284,0.18,3.64,0.602,4.075c0.754,0.765,2.406,0.815,4.966,0.166
			c2.573-0.658,4.845-1.657,6.825-3.018c1.764-1.248,3.268-3.431,4.526-6.557c1.248-3.126,1.885-6.263,1.885-9.416
			c0-1.627-0.153-2.833-0.442-3.624c-0.295-0.787-1.271-2.406-2.928-4.85c-1.338-2.006-2.436-3.479-3.279-4.399
			C122.608,10.292,121.594,9.478,120.426,8.774z"/>
		<path fill="#FFFFFF" d="M155.532,4.249c0.921-0.627,2.664-1.287,5.23-1.978c2.571-0.682,5.329-0.994,8.272-0.935
			c2.957,0.067,5.006,0.773,6.164,2.114c0.907,1.096,1.734,2.431,2.49,4.013c0.742,1.579,1.227,2.97,1.441,4.183
			c0.283,1.566,0.652,2.553,1.102,2.979c0.451,0.418,1.428,0.617,2.926,0.584c1.493-0.033,2.502,0.133,2.999,0.508
			c0.493,0.367,0.758,1.107,0.785,2.217c0.01,0.71-0.209,1.366-0.671,1.957c-0.447,0.592-1.496,1.644-3.133,3.144
			c-1.779,1.656-2.891,2.786-3.32,3.373c-0.434,0.589-0.709,1.445-0.826,2.564c-0.338,2.891-1.222,5.634-2.668,8.224
			c-1.44,2.585-3.207,4.661-5.289,6.223c-1.549,1.15-3.496,2.085-5.835,2.822c-2.345,0.737-4.253,1.011-5.733,0.839
			c-1.032-0.134-2.018-0.36-2.93-0.694c-0.922-0.336-1.723-0.688-2.415-1.057c-0.691-0.363-1.384-0.878-2.062-1.541
			c-0.676-0.675-1.239-1.232-1.658-1.676c-0.424-0.448-0.883-1.13-1.37-2.062c-0.485-0.924-0.858-1.63-1.116-2.104
			c-0.256-0.477-0.58-1.257-0.974-2.334c-0.384-1.079-0.652-1.808-0.778-2.19c-0.131-0.375-0.382-1.114-0.753-2.222
			c-0.468-1.403-0.769-2.31-0.901-2.711c-0.132-0.401-0.202-0.87-0.214-1.404c-0.011-0.534,0.051-0.884,0.2-1.067
			c0.14-0.184,0.365-0.742,0.658-1.685c0.307-0.949,0.591-2.049,0.856-3.327C147.66,13.173,150.838,7.587,155.532,4.249z
			 M160.467,28.37c-1.387-0.474-2.672-0.761-3.852-0.865c-1.182-0.104-1.938,0.005-2.277,0.316c-0.193,0.261-0.26,1.747-0.198,4.486
			c0.054,2.478,0.431,4.634,1.128,6.471c0.705,1.833,1.65,3.042,2.849,3.616c5.563,2.826,9.713,0.384,12.445-7.321
			c0.654-1.893,1.009-3.074,1.067-3.555c0.067-0.481-0.107-0.948-0.509-1.398c-0.499-0.444-1.241-0.697-2.226-0.746
			c-0.982-0.054-2.27-0.105-3.875-0.146C163.424,29.181,161.902,28.899,160.467,28.37z M167.225,6.123
			c-1.516-1.489-3.422-1.57-5.754-0.256c-1.17,0.633-2.14,1.619-2.893,2.951c-0.756,1.333-1.573,3.5-2.443,6.505l-1.507,5.051
			l1.057,1.413c0.706,0.896,1.928,1.811,3.669,2.733c1.098,0.533,2.014,0.881,2.791,1.044c0.758,0.166,1.834,0.229,3.209,0.194
			c3.239-0.064,5.212-0.55,5.904-1.446c0.695-0.901,0.803-3.124,0.339-6.655C170.885,12.155,169.434,8.308,167.225,6.123z"/>
		<path fill="#FFFFFF" d="M236.085,42.603l-1.269-0.685l-0.023-6.915c-0.012-2.952,0.084-7.283,0.301-12.87
			c0.228-5.734,0.457-9.577,0.712-11.762c0.126-1.418,0.313-2.495,0.532-3.187c0.216-0.686,0.61-1.425,1.141-2.169
			c0.098-0.114,0.18-0.228,0.288-0.37c0.833-1.222,1.137-2.012,1.008-2.642c-0.062-0.324-0.237-0.597-0.492-0.756
			c-0.325-0.22-0.902-0.37-2.688-0.37c-1.586,0-3.998,0.123-7.136,0.362c-1.529,0.082-2.649,0.283-3.354,0.573
			c-0.982,0.309-1.337,0.875-1.461,1.297c-0.217,0.762,0.094,1.65,0.977,2.725c0.644,0.769,0.879,1.141,0.963,1.295
			c-0.176,0.466-0.971,2.141-4.402,8.128c-4.657,8.115-4.649,8.319-4.641,8.647c0,0.212-0.1,0.701-0.803,1.588
			c-0.763,0.952-1.113,0.968-1.137,0.968c-0.492,0-0.977-0.583-1.303-1.067c-0.602-0.907-1.4-2.548-2.354-4.869
			c-0.716-1.814-1.555-3.699-2.562-5.744c-0.979-1.977-1.75-3.505-2.288-4.602c-0.704-1.372-0.754-1.728-0.754-1.755
			c0-0.043,0.006-0.475,0.93-1.723c0.749-0.967,1.095-1.734,1.083-2.415c-0.062-2.241-3.188-2.569-10.309-1.097
			c-1.582,0.365-2.603,0.661-3.108,0.913c-0.71,0.354-1.094,0.952-1.079,1.683c0.018,0.979,0.714,1.878,2.126,2.741
			c1.036,0.639,1.208,0.91,1.229,0.947c0.007,0.012,0.152,0.307,0.127,1.574c0.034,3.596-0.293,9.331-0.975,17.042
			c-0.915,10.155-1.346,11.953-1.476,12.233c-0.151,0.25-0.322,0.356-0.588,0.36c-0.557,0.014-1.339,0.229-1.909,1.156
			c-0.239,0.362-0.543,0.907-0.408,1.505c0.086,0.377,0.37,0.772,0.912,1.281c0.539,0.5,1.209,0.791,1.98,0.879
			c0.217,0.019,0.488,0.029,0.828,0.029c0.699,0,1.654-0.048,2.893-0.148c3.665-0.226,4.619-0.7,5.068-1.133
			c0.99-0.937,0.457-2.712-0.041-4.002c-0.541-1.189-0.863-2.927-0.971-5.152c-0.113-2.318-0.025-5.956,0.26-10.825
			c0.128-3.284,0.314-5.493,0.536-6.563c0.157-0.729,0.323-0.979,0.315-1.041c0.123,0.06,0.561,0.352,1.417,1.707
			c0.854,1.356,1.673,3.065,2.451,5.085c0.635,1.559,1.31,3.01,2.021,4.32c0.676,1.284,1.133,2.117,1.356,2.498
			c0.146,0.261,0.21,0.549,0.181,0.891c-0.008,0.212-0.123,0.708-0.696,1.703c-0.499,0.95-1.077,2.324-0.344,3.235
			c0.485,0.607,1.581,0.966,3.562,1.166c2.387,0.247,3.754,0.102,4.486-0.479c0.779-0.615,1.089-1.902,0.982-4.076
			c-0.068-1.093-0.047-1.483-0.033-1.616c0.01-0.056,0.068-0.404,0.611-1.741c0.383-0.951,1.066-2.156,2.043-3.591
			c1-1.485,2.473-3.612,4.401-6.377c1.841-2.624,2.814-3.647,3.298-4.041c0.352-0.279,0.5-0.273,0.52-0.228
			c0.064,0.259,0.211,1.712-0.055,9.57c-0.216,6.298-0.441,13.409-0.698,15.279c-0.171,1.387-0.354,1.976-0.467,2.222
			c-0.177,0.345-0.539,0.728-1.062,1.138c-1.219,0.96-1.742,1.858-1.592,2.743c0.105,0.683,0.661,1.119,1.662,1.294
			c0.688,0.13,2.104,0.191,4.319,0.199c2.61,0.053,4.312-0.054,5.231-0.339c1.156-0.358,1.776-1.177,1.76-2.326
			C238.102,44.163,237.486,43.462,236.085,42.603z"/>
		<path fill="#FFFFFF" d="M261.755,41.159c-2.147-1.06-2.528-1.486-2.597-1.602c-0.126-0.214-0.406-1.57-0.287-9.446
			c0.098-5.874,0.355-9.903,0.768-11.986c0.414-2.434,0.608-4.634,0.559-6.539c-0.031-1.524,0.134-2.608,0.529-3.208
			c0.388-0.611,1.323-1.374,2.737-2.252c1.298-0.688,1.886-1.524,1.727-2.487c-0.074-0.549-0.241-0.881-0.473-1.026
			c-0.188-0.153-0.54-0.296-2.661-0.296c-1.238,0-2.968,0.051-5.152,0.153c-3.345,0.129-5.467,0.288-6.48,0.477
			c-1.081,0.197-1.859,0.529-2.395,1.029c-0.547,0.581-0.787,0.936-0.826,1.228c-0.04,0.336,0.184,0.683,0.713,1.121
			c0.492,0.527,1.383,0.94,2.736,1.271c1.166,0.286,2.028,0.938,2.621,1.965c0.465,0.927,0.723,2.978,0.777,6.1
			c0.047,3.159-0.116,8.896-0.497,17.053c-0.167,3.72-0.462,6.235-0.864,7.462c-0.379,1.172-1.148,2.015-2.362,2.587
			c-1.325,0.674-2.021,1.377-2.134,2.167c-0.066,0.623,0.252,1.061,0.849,1.158c0.19,0.037,0.491,0.05,0.931,0.05
			c0.553,0,1.338-0.024,2.338-0.079c3.707-0.191,6.457-0.395,8.182-0.588c2.391-0.278,2.996-0.497,3.231-0.637
			c0.474-0.261,0.712-0.673,0.697-1.185C264.406,42.842,263.557,42.051,261.755,41.159z"/>
		<path fill="#FFFFFF" d="M304.866,2.499c8.512-0.854,12.81-0.491,12.892,1.07c0.011,0.215-0.082,0.46-0.26,0.73
			c-0.221,0.552-0.856,0.971-1.88,1.265c-1.028,0.293-1.732,0.638-2.096,1.021c-1.159,1.22-1.971,10.361-2.464,27.436l-0.093,4.701
			l2.008,1.409c1.296,0.996,1.906,1.874,1.828,2.632c-0.06,1.083-0.621,1.796-1.673,2.144c-1.051,0.351-2.879,0.447-5.479,0.295
			c-3.109-0.144-4.891-0.314-5.312-0.521c-0.522-0.207-0.932-0.664-1.236-1.387c-0.296-0.725-0.293-1.251,0.035-1.581
			c1.097-1.374,0.354-3.871-2.232-7.479c-1.952-2.704-4.232-5.692-6.825-8.949c-2.598-3.258-4.019-4.889-4.261-4.879
			c-0.419,0.008-0.65,0.649-0.683,1.918c-0.046,1.274,0.057,4.309,0.311,9.104l0.524,9.952l1.443,1.423
			c1.219,1.269,1.376,2.129,0.491,2.578c-0.747,0.349-2.434,0.631-5.068,0.856c-2.544,0.22-4.321,0.231-5.343,0.042
			c-1.015-0.189-1.533-0.663-1.55-1.419c-0.011-0.375,0.443-0.927,1.376-1.654c0.922-0.722,1.52-1.493,1.786-2.312
			c0.345-1.034,0.458-6.087,0.336-15.152l-0.252-13.604l-2.36-1.234c-2.732-1.504-3.4-3.164-2.024-4.977
			c0.364-0.443,0.914-0.723,1.638-0.846c0.73-0.125,2.298-0.219,4.698-0.278c3.668-0.088,5.707,0.083,6.089,0.504
			c0.482,0.473,0.703,1.115,0.646,1.929c-0.048,0.81-0.354,1.494-0.899,2.046c-0.692,0.664-0.945,1.264-0.774,1.798
			c0.174,0.54,1.139,1.916,2.896,4.146c1.458,1.855,2.837,3.896,4.143,6.137c1.303,2.236,2.728,4.362,4.287,6.38
			c2.046,2.702,3.468,4.045,4.271,4.026c0.518-0.012,0.829-0.181,0.942-0.509c0.102-0.323,0.208-1.436,0.309-3.324
			c0.197-3.68,0.437-7.279,0.729-10.794c0.527-5.735,0.688-8.763,0.493-9.083c-0.106-0.21-0.402-0.424-0.907-0.625
			c-0.498-0.206-1.008-0.394-1.528-0.572c-0.52-0.178-1.027-0.409-1.504-0.696c-0.476-0.285-0.755-0.598-0.835-0.948
			c-0.073-0.352,0.067-0.826,0.427-1.429C302.422,3.073,303.406,2.639,304.866,2.499z"/>
		<path fill="#FFFFFF" d="M328.864,5.3c-0.013-0.354,0.149-0.625,0.49-0.817c0.335-0.188,1.363-0.38,3.095-0.58
			c1.71-0.2,4.431-0.4,8.151-0.6c1.724-0.097,2.781-0.113,3.176-0.047c0.398,0.064,0.571,0.305,0.53,0.714
			c-0.088,0.618-0.727,1.218-1.914,1.819c-1.296,0.594-2.144,1.511-2.558,2.752c-0.413,1.232-0.7,3.697-0.869,7.382
			c-0.36,7.99-0.518,13.544-0.46,16.657c0.059,3.123,0.335,5.16,0.834,6.117c0.655,1.106,1.617,1.811,2.893,2.108
			c1.255,0.296,2.1,0.669,2.539,1.119c0.43,0.351,0.634,0.613,0.613,0.794c-0.027,0.178-0.267,0.503-0.721,0.973
			c-0.467,0.423-1.195,0.723-2.178,0.902c-0.998,0.186-3.139,0.345-6.436,0.479c-4.706,0.233-7.221,0.218-7.552-0.028
			c-0.15-0.097-0.266-0.349-0.325-0.757c-0.128-0.762,0.374-1.446,1.516-2.034c1.497-0.912,2.457-1.692,2.883-2.344
			c0.431-0.647,0.625-1.764,0.58-3.349c-0.051-1.841,0.13-3.939,0.538-6.305c0.421-2.056,0.671-5.977,0.755-11.755
			c0.078-5.778-0.044-8.923-0.367-9.427c-0.224-0.348-1.15-0.914-2.764-1.686C329.697,6.612,328.877,5.912,328.864,5.3z"/>
		<path fill="#FFFFFF" d="M362.199,5.385c0.825-0.665,2.427-1.411,4.797-2.238c2.377-0.817,4.956-1.295,7.737-1.418
			c2.793-0.114,4.765,0.446,5.952,1.68c0.929,1.006,1.786,2.253,2.596,3.741c0.805,1.489,1.347,2.809,1.637,3.975
			c0.36,1.502,0.771,2.44,1.218,2.826c0.458,0.375,1.391,0.509,2.799,0.386c1.406-0.122,2.367-0.017,2.858,0.307
			c0.485,0.332,0.786,1.032,0.877,2.108c0.064,0.692-0.098,1.333-0.492,1.941c-0.386,0.596-1.312,1.681-2.755,3.24
			c-1.582,1.715-2.551,2.879-2.919,3.485c-0.368,0.597-0.57,1.444-0.612,2.536c-0.13,2.829-0.793,5.544-1.983,8.148
			c-1.193,2.599-2.725,4.722-4.585,6.365c-1.388,1.211-3.164,2.241-5.32,3.094c-2.164,0.862-3.95,1.247-5.344,1.176
			c-0.984-0.069-1.929-0.227-2.813-0.497c-0.88-0.271-1.667-0.567-2.342-0.881c-0.679-0.309-1.366-0.764-2.039-1.37
			c-0.684-0.615-1.243-1.124-1.675-1.526c-0.428-0.411-0.907-1.042-1.421-1.917c-0.522-0.87-0.908-1.532-1.188-1.977
			c-0.272-0.447-0.622-1.183-1.059-2.207c-0.443-1.023-0.732-1.719-0.885-2.075c-0.147-0.357-0.431-1.062-0.85-2.113
			c-0.53-1.338-0.877-2.203-1.021-2.581c-0.152-0.378-0.244-0.831-0.295-1.35c-0.039-0.511,0-0.861,0.119-1.044
			c0.13-0.189,0.296-0.746,0.517-1.683c0.228-0.934,0.423-2.024,0.588-3.281C355.355,14.533,357.99,8.915,362.199,5.385z
			 M368.394,28.503c-1.333-0.372-2.563-0.571-3.686-0.604c-1.112-0.024-1.831,0.126-2.121,0.448
			c-0.17,0.262-0.134,1.715,0.098,4.364c0.208,2.405,0.701,4.483,1.48,6.219c0.781,1.733,1.758,2.847,2.915,3.342
			c5.418,2.395,9.178-0.23,11.268-7.878c0.484-1.877,0.746-3.043,0.771-3.519c0.031-0.469-0.159-0.911-0.562-1.322
			c-0.503-0.403-1.223-0.601-2.154-0.589c-0.932,0.006-2.146,0.034-3.654,0.093C371.237,29.116,369.787,28.932,368.394,28.503z
			 M373.337,6.492c-1.518-1.354-3.335-1.318-5.44,0.102c-1.061,0.686-1.905,1.696-2.528,3.044c-0.636,1.34-1.27,3.491-1.884,6.466
			l-1.106,4.992l1.09,1.314c0.719,0.826,1.933,1.636,3.634,2.424c1.061,0.452,1.959,0.739,2.694,0.844
			c0.73,0.114,1.743,0.11,3.041-0.006c3.049-0.256,4.872-0.855,5.465-1.769c0.595-0.915,0.567-3.081-0.106-6.482
			C377.182,12.12,375.557,8.475,373.337,6.492z"/>
		<path fill="#FFFFFF" d="M427.201,1.828c8.529-0.679,12.821-0.194,12.863,1.43c0,0.227-0.09,0.48-0.281,0.761
			c-0.232,0.562-0.877,0.981-1.899,1.261c-1.042,0.284-1.751,0.622-2.133,1.012c-1.176,1.239-2.213,10.73-3.105,28.48l-0.209,4.887
			l1.977,1.511c1.272,1.069,1.86,1.993,1.762,2.78c-0.094,1.125-0.669,1.854-1.728,2.195c-1.054,0.335-2.889,0.388-5.474,0.166
			c-3.119-0.224-4.884-0.448-5.311-0.676c-0.516-0.224-0.913-0.712-1.2-1.472c-0.278-0.759-0.262-1.307,0.076-1.643
			c1.124-1.402,0.446-4.011-2.057-7.838c-1.888-2.858-4.086-6.02-6.609-9.477c-2.524-3.45-3.898-5.179-4.134-5.179
			c-0.422,0-0.677,0.662-0.741,1.979c-0.079,1.319-0.042,4.479,0.099,9.476l0.29,10.363l1.407,1.521
			c1.18,1.346,1.327,2.246,0.433,2.692c-0.758,0.337-2.455,0.589-5.095,0.757c-2.549,0.173-4.324,0.141-5.34-0.081
			c-1.009-0.225-1.516-0.732-1.516-1.517c0-0.395,0.467-0.959,1.416-1.688c0.941-0.729,1.552-1.519,1.831-2.359
			c0.38-1.065,0.613-6.318,0.712-15.752l0.069-14.156l-2.333-1.345c-2.687-1.63-3.326-3.371-1.906-5.221
			c0.381-0.452,0.922-0.73,1.66-0.85c0.729-0.109,2.297-0.165,4.689-0.165c3.682,0,5.709,0.225,6.091,0.669
			c0.468,0.507,0.674,1.185,0.606,2.025c-0.076,0.848-0.396,1.546-0.958,2.109c-0.711,0.669-0.981,1.291-0.811,1.852
			c0.155,0.562,1.093,2.021,2.788,4.381c1.417,1.964,2.74,4.127,3.995,6.488c1.243,2.357,2.629,4.606,4.135,6.739
			c1.981,2.864,3.372,4.295,4.169,4.295c0.521,0,0.834-0.166,0.962-0.504c0.111-0.337,0.239-1.488,0.382-3.452
			c0.288-3.822,0.614-7.555,0.989-11.208c0.666-5.951,0.9-9.098,0.708-9.435c-0.098-0.223-0.385-0.451-0.884-0.674
			c-0.494-0.223-0.998-0.433-1.521-0.63c-0.516-0.198-1.008-0.452-1.481-0.761c-0.467-0.307-0.743-0.643-0.814-1.008
			c-0.074-0.366,0.082-0.857,0.46-1.476C424.748,2.365,425.734,1.944,427.201,1.828z"/>
	</g>
	<g>
		<g>
			<g>
				<path fill="#FFFFFF" d="M451.058,68.814c-1.489-0.047-2.961,0.126-4.404,0.106c-1.492-0.021-2.958-0.141-4.396-0.133
					c-1.496,0.009-2.96,0.144-4.393,0.183c-1.805,0.053-3.026,0.563-3.817,1.588c-0.795,1.029-1.031,2.37-0.617,4.151
					c0.376,1.686,1.146,3.458,2.194,5.021c0.846,1.263,1.317,2.647,1.706,4.095c0.363,1.353,0.477,2.785,0.467,4.391
					c-0.013,1.448,0.174,2.897,0.163,4.344c-0.01,1.448-0.018,2.896-0.026,4.343c-0.009,1.448-0.245,2.894-0.253,4.341
					s0.185,2.896,0.177,4.343c-0.007,1.447-0.166,2.895-0.173,4.342c-0.008,1.447-0.009,2.895-0.017,4.343s0.038,2.896,0.029,4.344
					c-0.005,1.796,0.232,3.594,0.226,5.392s-0.335,3.594-0.344,5.391c-0.008,1.797,0.23,3.596,0.221,5.392
					c-0.012,1.624-0.172,3.334-0.291,5.072c-0.054,0.831-0.214,1.726-0.536,2.498c-0.287,0.672-0.764,1.341-1.137,1.383
					c-0.408,0-1.089-0.573-1.279-1.007c-0.764-1.708-1.7-3.962-2.323-6.291c-0.392-1.446-0.794-2.889-1.184-4.335
					c-0.39-1.446-0.748-2.901-1.137-4.347s-1.056-2.818-1.443-4.265s-0.748-2.901-1.135-4.349s-0.5-2.967-0.886-4.414
					s-1.083-2.811-1.469-4.258c-0.385-1.447-0.59-2.943-0.975-4.39c-0.441-1.658-0.798-3.338-1.239-4.996
					c-0.44-1.657-1.001-3.283-1.443-4.94c-0.442-1.657-0.835-3.329-1.28-4.986c-0.395-1.478-0.727-2.911-1.095-4.283
					c-0.396-1.475-1.002-2.834-1.375-4.21c-0.396-1.466-0.635-2.921-1.013-4.3c-0.397-1.453-0.827-2.855-1.211-4.245
					c-0.447-1.636-0.913-3.034-1.781-3.915c-1.002-1.016-2.416-1.557-4.006-1.596c-0.048-0.001-0.048-0.007-0.096-0.008
					c-1.969-0.05-4.008-0.012-6.013-0.019c-1.613-0.007-3.048,0.061-4.389,0.104c-1.517,0.056-2.605,0.487-3.339,1.27
					c-0.711,0.758-0.991,1.872-1.051,3.398c-0.062,1.45-0.15,2.886,0.266,4.198c0.416,1.31,1.086,2.609,1.971,3.761
					c0.794,1.037,1.685,1.972,2.091,3.154c0.398,1.157,0.457,2.441,0.492,3.77c0.009,0.505,0.093,1.009,0.107,1.514
					c0.043,0.946,0.019,1.924,0.019,2.884c-0.007,1.6-0.101,3.199-0.107,4.799c-0.007,1.6-0.001,3.2-0.008,4.799
					c-0.006,1.6-0.101,3.199-0.107,4.799c-0.006,1.6,0.164,3.2,0.158,4.8c-0.007,1.6,0.181,3.2,0.175,4.8
					c-0.007,1.6-0.011,3.2-0.017,4.8c-0.007,1.6-0.38,3.198-0.386,4.798c-0.007,1.6,0.285,3.201,0.278,4.8
					c-0.006,1.6-0.165,3.199-0.172,4.799c-0.007,1.6-0.164,3.198-0.171,4.798c-0.007,1.6,0.093,3.2,0.086,4.8
					c-0.007,1.6,0.216,3.2,0.21,4.8c-0.007,1.6-0.336,3.198-0.343,4.798c-0.007,1.6,0.104,3.2,0.098,4.8s0.227,3.2,0.22,4.801
					c-0.007,1.6-0.117,3.198-0.124,4.798s-0.195,3.2-0.202,4.8c0,0.806,0.187,1.615,0.153,2.418
					c-0.023,0.555-0.279,1.095-0.288,1.644c-0.043,1.591-0.247,3.03-0.683,4.377c-0.463,1.432-1.151,2.707-2.071,3.907
					c-0.758,0.985-1.347,2.031-1.722,3.094c-0.395,1.119-0.601,2.312-0.569,3.499c0.084,2.719,1.41,4.261,3.848,4.345
					c1.669,0.06,3.329,0.044,4.969,0.068c1.673,0.024,3.33-0.257,4.966-0.269c1.677-0.012,3.33,0.029,4.961-0.021
					c1.319-0.041,2.451-0.343,3.141-1.168c0.668-0.806,0.83-1.952,0.653-3.208c-0.248-1.689-0.719-4.167-2-6.189
					c-0.991-1.551-1.92-3.056-2.383-4.742c-0.45-1.64-0.674-3.414-0.65-5.298c0.014-1.5,0.055-3,0.066-4.501
					c0.012-1.5,0.189-3,0.199-4.5c0.01-1.501,0.118-3.001,0.126-4.501c0.009-1.501,0.062-3.001,0.07-4.502
					c0.007-1.501-0.342-3.003-0.335-4.504c0.009-1.666,0.08-3.331,0.089-4.996c0.008-1.666,0.104-3.33,0.113-4.996
					s0.229-3.329,0.241-4.994c0.012-1.666,0.027-3.331,0.042-4.996c0.009-1.112-0.049-2.277,0.07-3.525
					c0.105-1.105,0.184-2.278,0.378-3.519c0.129-0.808,0.624-1.999,1.162-2.22c0.98-0.406,1.565,0.81,1.912,1.705
					c0.428,1.117,0.812,2.231,1.203,3.334c0.4,1.127,0.917,2.196,1.232,3.324c0.419,1.503,0.826,3.009,1.243,4.513
					c0.417,1.503,0.949,2.974,1.365,4.478c0.416,1.504,0.643,3.06,1.058,4.564c0.414,1.504,1.004,2.959,1.418,4.463
					c0.414,1.504,0.703,3.042,1.116,4.546c0.414,1.504,0.806,3.014,1.219,4.518c0.365,1.32,0.787,2.625,1.151,3.945
					c0.365,1.32,0.838,2.61,1.201,3.93c0.364,1.32,0.49,2.705,0.854,4.025s0.901,2.593,1.267,3.913
					c0.365,1.328,0.734,2.666,1.109,4.012c0.369,1.329,0.89,2.624,1.267,3.967c0.374,1.331,0.52,2.733,0.899,4.072
					c0.378,1.333,0.877,2.635,1.26,3.971c0.508,1.774,1.214,3.611,3.191,4.428c1.679,0.695,3.314,1.005,5.003,1.017
					c1.65,0.006,3.327,0.022,4.821-0.639c1.317-0.58,1.774-1.704,2.119-2.756c0.362-1.104,0.518-2.312,0.514-3.485
					c0.007-0.376,0.093-0.745,0.107-1.111c0.049-1.553,0.094-3.141,0.094-4.669c0.002-0.559-0.128-0.559-0.125-1.118
					c0.012-2.394,0.188-2.394,0.198-4.787c0.011-2.396-0.223-2.397-0.213-4.793c0.011-2.395-0.092-2.396-0.081-4.79
					c0.01-2.396,0.23-2.395,0.24-4.791c0.011-2.396,0.034-2.396,0.044-4.794c0.01-2.396-0.258-2.397-0.247-4.794
					c0.01-2.396,0.182-2.396,0.191-4.792s0.147-2.396,0.158-4.792c0.01-2.396,0.023-2.396,0.033-4.793
					c0.01-2.398-0.269-2.4-0.258-4.798c0.01-2.4,0.161-2.399,0.172-4.8c0.01-2.4,0.011-2.4,0.021-4.801
					c0.007-1.535-0.084-3.076-0.077-4.623c0.008-1.536,0.059-3.076,0.065-4.621c0.007-1.536-0.035-3.076-0.028-4.619
					c0.006-1.538,0.178-3.078,0.184-4.621c0.006-1.54-0.078-3.081-0.073-4.623c0.005-1.542,0.13-3.083,0.134-4.625
					c0.004-1.544-0.146-3.088-0.144-4.63c0.002-1.542,0.064-3.082,0.064-4.618c0.001-1.807,0.133-3.501,0.588-5.104
					c0.458-1.615,1.139-3.188,2.092-4.708c1.039-1.675,1.941-3.726,2.182-5.737c0.198-1.62,0.038-2.923-0.655-3.722
					C454.148,69.28,452.815,68.87,451.058,68.814z"/>
			</g>
			<g>
				<path fill="#FFFFFF" d="M306.296,68.845c-0.472-0.03-0.959,0.125-1.43,0.123c-0.999,0.005-0.999-0.095-1.998-0.088
					c-0.288,0-0.567-0.071-0.862-0.081c-0.19-0.004-0.195,0.136-0.386,0.136c-1.954,0-3.486,0.704-4.803,1.732
					c-1.25,0.977-2.219,2.311-2.878,4.204c-0.454,1.306-0.892,2.611-1.345,3.905c-0.456,1.304-1.179,2.508-1.64,3.804
					c-0.461,1.297-0.83,2.625-1.302,3.919c-0.471,1.291-0.866,2.611-1.353,3.902c-0.564,1.5-0.981,3.076-1.562,4.613
					c-0.565,1.498-1.227,2.983-1.811,4.521c-0.567,1.496-1.405,2.911-1.99,4.448c-0.57,1.496-0.846,3.128-1.434,4.667
					c-0.571,1.494-1.293,2.956-1.884,4.494c-0.573,1.495-1.241,2.977-1.834,4.516c-0.575,1.493-1.037,3.057-1.631,4.595
					c-0.705,1.795-1.604,3.085-2.4,4.182c-0.455,0.613-0.597,0.845-0.701,0.845c-0.188,0-0.554-0.22-0.95-0.75
					c-0.637-0.831-1.093-1.997-1.65-3.438c-0.528-1.377-1.271-2.681-1.806-4.074c-0.529-1.379-1.011-2.785-1.545-4.177
					c-0.529-1.38-1.121-2.742-1.654-4.134c-0.529-1.381-0.979-2.8-1.512-4.191c-0.529-1.382-0.856-2.846-1.389-4.237
					c-0.529-1.382-1.125-2.743-1.655-4.131c-0.529-1.384-0.98-2.801-1.51-4.191c-0.528-1.384-1.312-2.674-1.841-4.062
					c-0.527-1.387-0.884-2.84-1.412-4.229c-0.527-1.389-1.295-2.688-1.822-4.079c-0.526-1.391-0.996-2.803-1.521-4.193
					c-0.677-1.787-1.257-3.235-1.906-4.408c-0.898-1.623-1.877-2.587-3.328-3.229c-1.199-0.532-2.637-1.06-4.655-1.064
					c-0.886,0-1.919-0.004-3.255,0.047c-1.899,0.077-3.259,0.915-4.191,2.031c-0.91,1.076-1.453,2.462-1.248,4.216
					c0.138,1.281,0.316,2.601,0.671,3.846c0.358,1.255,0.928,2.459,1.489,3.607c0.562,1.166,1.118,2.218,1.402,3.294
					c0.316,1.197,0.368,2.378,0.358,3.556c-0.005,1.54,0.045,3.067,0.041,4.582c-0.005,1.539-0.095,3.066-0.099,4.581
					c-0.005,1.539,0.203,3.066,0.199,4.581c-0.005,1.539-0.267,3.063-0.271,4.578c-0.005,1.538-0.088,3.064-0.093,4.578
					c-0.004,1.538,0.272,3.064,0.269,4.579c-0.005,1.539-0.121,3.064-0.125,4.579c-0.004,1.539-0.119,3.065-0.123,4.58
					c-0.004,1.539,0.163,3.065,0.159,4.581c-0.004,1.538,0.015,3.064,0.011,4.58c-0.004,1.537-0.027,3.062-0.031,4.578
					c-0.004,1.536-0.228,3.061-0.231,4.575c-0.003,1.536,0.117,3.062,0.114,4.578c-0.003,1.536,0.173,3.062,0.17,4.579
					c-0.003,1.535-0.126,3.06-0.129,4.576c-0.003,1.533,0.124,3.058,0.121,4.573c-0.002,1.534-0.135,3.06-0.137,4.576
					c-0.002,1.532-0.196,3.056-0.198,4.572c-0.002,1.53,0.28,3.055,0.278,4.571c0,1.397-0.4,2.622-0.676,3.789
					c-0.304,1.286-0.765,2.404-1.43,3.505c-0.761,1.267-1.205,2.59-1.579,3.822c-0.413,1.358-0.488,2.712-0.437,4.07
					c0.065,1.769,0.484,3.064,1.304,3.992c0.869,0.984,2.115,1.437,3.857,1.502c1.901,0.072,3.798,0.329,5.652,0.332
					c0.202,0,0.202,0.041,0.404,0.041c1.873,0,3.711-0.021,5.467-0.085c1.641-0.061,2.782-0.817,3.642-1.756
					c0.814-0.89,1.561-2.062,1.658-3.729c0.079-1.385-0.224-2.78-0.615-4.134c-0.369-1.277-1.064-2.473-1.851-3.705
					c-0.743-1.165-1.235-2.464-1.57-3.866c-0.298-1.25-0.293-2.626-0.288-4.146c0.006-2.329-0.034-2.329-0.028-4.659
					c0.006-2.329,0.092-2.329,0.098-4.659c0.003-1.591-0.316-3.188-0.313-4.79c0.003-1.593-0.004-3.19,0-4.792
					c0.003-1.594,0.342-3.19,0.345-4.791c0.004-1.594-0.28-3.191-0.276-4.79c0.004-1.595,0.208-3.191,0.213-4.789
					c0.005-1.597,0.125-3.195,0.13-4.793s-0.239-3.198-0.232-4.795c0.007-1.601,0.141-3.2,0.149-4.798
					c0.008-1.598,0.068-3.194,0.078-4.787c0.002-1.718,0.279-3.519,0.69-5.573c0.033-0.16,0.005-0.506,0.127-0.657
					c0.174,0.101,0.254,0.415,0.314,0.509c0.95,1.362,1.758,2.767,2.362,4.266c0.534,1.316,1.125,2.613,1.655,3.935
					c0.531,1.324,1.039,2.656,1.564,3.977c0.527,1.326,1.048,2.651,1.569,3.967c0.527,1.331,1.057,2.651,1.576,3.964
					c0.899,2.276,1.148,2.177,2.048,4.453c0.898,2.275,0.589,2.397,1.485,4.674c0.514,1.319,1.333,2.52,1.862,3.838
					c0.296,0.73,0.593,1.574,1.107,2.361c1.291,1.951,2.951,3.11,4.853,3.115c1.885,0,3.453-1.181,4.693-3.11
					c0.863-1.32,1.516-2.687,2.075-4.072c0.062-0.158-0.011-0.188,0.052-0.346c0.671-1.673,1.572-3.255,2.236-4.93
					c0.664-1.676,1.405-3.32,2.068-4.997c0.432-1.093,0.422-1.097,0.853-2.189c0.504-1.274,0.863-2.605,1.368-3.879
					c0.505-1.273,0.979-2.559,1.486-3.832s1.207-2.468,1.719-3.739c0.962-2.385,1.639-4.205,2.595-5.749
					c0.168-0.268,0.525-0.506,0.777-0.653c0.164,0.274,0.206,0.69,0.282,1.089c0.315,1.614,0.813,3.417,0.816,5.591
					c0.005,1.477-0.041,2.959-0.041,4.443c0.001,1.482,0.018,2.965,0.015,4.446c-0.003,1.485-0.082,2.966-0.087,4.44
					c-0.005,1.49-0.21,2.971-0.216,4.44c-0.008,2.447,0.167,2.448,0.16,4.895c-0.006,2.449-0.139,2.449-0.146,4.897
					c-0.006,2.449,0.296,2.45,0.288,4.898c-0.006,1.474-0.16,2.946-0.165,4.418s0.102,2.944,0.099,4.416
					c-0.004,1.472-0.326,2.943-0.325,4.414c0,1.472,0.29,2.943,0.297,4.415c0.004,1.8-0.429,3.417-0.787,4.97
					c-0.382,1.654-0.763,3.269-1.585,4.763c-0.916,1.649-1.459,3.745-1.641,6.664c-0.093,1.498,0.254,2.723,1.066,3.648
					c0.824,0.93,2.028,1.324,3.576,1.394c2.233,0.092,4.492,0.255,6.729,0.255c1.936,0,3.879,0.061,5.782-0.011
					c1.56-0.06,2.68-0.822,3.52-1.799c0.856-0.997,1.271-2.188,1.121-3.793c-0.169-1.766-0.494-4.382-1.739-6.633
					c-0.833-1.526-1.466-3.099-1.845-4.833c-0.349-1.59-0.352-3.291-0.344-5.164c0.007-1.537,0.002-3.074,0.008-4.611
					c0.007-1.537-0.051-3.076-0.045-4.613c0.007-1.538-0.167-3.075-0.161-4.613s0.258-3.076,0.264-4.613
					c0.006-1.539-0.011-3.077-0.006-4.614c0.006-1.539-0.013-3.077-0.008-4.614c0.005-1.539-0.002-3.077,0.003-4.614
					c0.005-1.539,0.033-3.077,0.038-4.614c0.004-1.539-0.022-3.077-0.019-4.613c0.004-1.539,0.069-3.076,0.073-4.612
					c0.004-1.538-0.1-3.076-0.096-4.612c0.003-1.538-0.24-3.075-0.237-4.61c0.004-1.538,0.357-3.073,0.359-4.608
					c0.003-1.537-0.099-3.074-0.096-4.607c0.002-1.539,0.118-3.076,0.12-4.611c0.002-1.537-0.117-3.073-0.115-4.606
					c0.002-1.539-0.177-3.075-0.176-4.609c0.002-1.534-0.036-3.066-0.035-4.596c0-1.922,0.314-3.618,0.641-5.163
					c0.374-1.772,1.106-3.271,1.96-4.761c0.957-1.673,1.347-3.866,1.659-6.346c0.241-2.022,0.085-3.627-0.876-4.815
					C309.992,69.765,308.418,68.982,306.296,68.845z"/>
			</g>
			<g>
				<path fill="#FFFFFF" d="M212.889,172.806c-0.016-1.414-0.025-2.827-0.041-4.241c-0.016-1.413-0.107-2.825-0.124-4.238
					s-0.018-2.826-0.035-4.238c-0.017-1.413-0.009-2.826-0.026-4.239c-0.017-1.413-0.34-2.822-0.357-4.234
					c-0.028-2.361,0.021-2.361-0.007-4.723c-0.028-2.359,0.25-2.362,0.222-4.721c-0.028-2.361-0.207-2.359-0.235-4.72
					c-0.028-2.36,0.124-2.361,0.095-4.721c-0.028-2.361,0.015-2.361-0.014-4.722c-0.028-2.362-0.012-2.362-0.04-4.724
					s-0.214-2.36-0.242-4.722s-0.026-2.362-0.055-4.724c-0.028-2.361,0.024-2.362-0.004-4.723c-0.028-2.362-0.111-2.361-0.14-4.722
					c-0.028-2.364-0.181-2.362-0.208-4.725c-0.028-2.365,0.352-2.37,0.324-4.735s-0.12-2.364-0.148-4.729
					c-0.015-1.232-0.266-2.558-0.131-3.909c0.125-1.248,0.374-2.557,0.751-3.849c0.351-1.197,1.035-2.328,1.704-3.516
					c0.523-0.922,0.891-2.043,1.188-3.297c0.248-1.048,0.28-2.22,0.372-3.486c0.128-1.746-0.23-3.038-1.119-4.035
					c-0.896-1.011-2.157-1.657-3.929-1.708c-1.233-0.037-2.432-0.238-3.475-0.227c-2.02,0.024-3.52,0.433-4.696,0.973
					c-1.418,0.651-2.222,1.828-3.082,3.492c-0.606,1.175-1.333,2.554-1.971,4.355c-0.784,2.14-0.87,2.108-1.663,4.245
					c-0.794,2.139-0.733,2.161-1.527,4.3c-0.794,2.14-0.891,2.104-1.686,4.244c-0.794,2.14-0.675,2.185-1.47,4.325
					c-0.54,1.454-1.157,2.878-1.697,4.331s-0.932,2.962-1.472,4.415c-0.541,1.454-0.975,2.946-1.515,4.399
					c-0.541,1.453-1.097,2.901-1.638,4.354c-0.541,1.453-1.253,2.842-1.794,4.295c-0.541,1.453-0.9,2.974-1.442,4.426
					c-0.542,1.452-1.216,2.855-1.759,4.308c-0.349,0.932-0.97,2.25-1.736,3.363c-0.508,0.735-0.978,1.195-1.438,1.199
					c-0.567,0.007-1.104-0.583-1.448-1.076c-1.05-1.478-1.745-3.266-2.274-4.637c-0.584-1.491-1.129-2.999-1.713-4.492
					c-0.583-1.494-1.185-2.98-1.767-4.474c-0.583-1.496-1.303-2.938-1.884-4.431c-0.583-1.498-0.945-3.078-1.524-4.569
					c-0.582-1.498-1.471-2.873-2.049-4.362c-0.581-1.499-1.049-3.035-1.625-4.522c-0.582-1.5-1.241-2.963-1.816-4.45
					c-0.581-1.501-0.928-3.084-1.502-4.568c-0.581-1.502-1.226-2.969-1.799-4.452c-0.568-1.457-1.126-2.918-1.667-4.401
					c-0.18-0.491-0.29-0.451-0.472-0.941c-0.486-1.316-0.83-2.685-1.339-3.988c-0.6-1.53-1.556-2.692-2.716-3.492
					c-1.173-0.81-2.598-1.062-4.231-1.045c-0.511,0.006-1.021-0.087-1.534-0.09c-1.58-0.007-3.117,0.029-4.303,0.146
					c-1.579,0.157-2.925,0.533-3.74,1.425c-0.849,0.93-0.987,2.302-0.854,3.863c0.124,1.37,0.334,2.605,0.619,3.751
					c0.336,1.351,0.656,2.566,1.217,3.589c0.864,1.602,1.625,3.217,2.044,4.956c0.399,1.656,0.265,3.444,0.287,5.34
					c0.016,1.511,0.239,3.023,0.255,4.542c0.017,1.511-0.145,3.029-0.127,4.547c0.017,1.512,0.101,3.026,0.117,4.546
					c0.017,1.512-0.022,3.028-0.005,4.547c0.018,1.512-0.006,3.027,0.011,4.546c0.018,1.512,0.079,3.027,0.096,4.545
					c0.017,1.51,0.223,3.022,0.241,4.539c0.018,1.511-0.042,3.026-0.025,4.544c0.018,1.512-0.066,3.028-0.049,4.545
					c0.018,1.513,0.126,3.027,0.145,4.545c0.018,1.513,0.112,3.028,0.13,4.546c0.019,1.514,0.033,3.03,0.051,4.548
					c0.019,1.512-0.114,3.028-0.096,4.545c0.019,1.513,0.223,3.026,0.242,4.543c0.019,1.514-0.061,3.032-0.042,4.55
					c0.019,1.513,0.041,3.027,0.06,4.544c0.019,1.515,0.194,3.029,0.213,4.548c0.019,1.514-0.082,3.032-0.063,4.55
					c0.019,1.519-0.12,3.04-0.101,4.562c0.025,1.998,0.166,3.837-0.175,5.512c-0.381,1.867-1.17,3.521-2.034,5.121
					c-1.227,2.264-1.803,4.878-1.96,6.681c-0.13,1.549,0.386,2.799,1.2,3.73c0.797,0.913,1.981,1.594,3.465,1.634
					c1.42,0.04,2.863-0.104,4.313-0.104c1.428,0.001,2.868,0.034,4.312-0.001c1.433-0.036,2.875-0.034,4.312-0.105
					c1.418-0.071,2.509-0.618,3.257-1.462c0.697-0.787,0.913-1.93,1.016-3.379c0.093-1.354,0.026-2.638-0.324-3.929
					c-0.338-1.251-0.837-2.457-1.59-3.633c-0.79-1.242-1.243-2.649-1.62-4.131c-0.345-1.354-0.566-2.803-0.572-4.395
					c-0.009-1.62,0.105-3.248,0.092-4.878c-0.014-1.626-0.137-3.254-0.154-4.879c-0.017-1.63,0.048-3.258,0.028-4.876
					c-0.02-1.636-0.059-3.263-0.08-4.875c-0.041-3.228-0.323-3.225-0.36-6.452c0-0.003,0.266,0,0.266-0.003
					c-0.022-2.09,0.041-2.091,0.016-4.181s-0.136-2.088-0.163-4.179c-0.022-1.601-0.084-3.216-0.105-4.84
					c-0.021-1.606,0.021-3.222,0.003-4.841c-0.018-1.612,0.027-3.229,0.013-4.842c-0.015-1.618-0.158-3.232-0.168-4.841
					c-0.006-1.867-0.011-3.898,0.328-5.984c0.055-0.341,0.463-0.882,0.636-1.107c0.459,0.063,1.19,0.405,1.355,0.641
					c1.035,1.521,1.877,3.335,2.671,5.259c0.56,1.354,1.062,2.736,1.621,4.097c0.559,1.359,1.006,2.766,1.561,4.125
					c0.557,1.363,1.334,2.632,1.886,3.987c0.557,1.367,0.872,2.825,1.421,4.177c1.048,2.58,1.048,2.58,2.096,5.16
					s1.16,2.535,2.207,5.115c0.407,1.009,0.99,1.965,1.577,2.943c1.337,2.237,3.067,3.688,5.068,3.663
					c2.013-0.024,3.881-1.505,5.105-3.801c0.527-1.001,0.921-2.057,1.292-3.075c0.869-2.293,0.976-2.252,1.851-4.543
					c0.876-2.291,0.63-2.385,1.507-4.675c0.562-1.461,1.119-2.938,1.688-4.419c0.563-1.466,1.371-2.846,1.939-4.322
					c0.566-1.471,0.891-3.038,1.459-4.509c0.569-1.474,1.375-2.855,1.945-4.321c0.953-2.452,1.677-4.448,2.654-6.086
					c0.312-0.517,1.227-0.894,1.3-0.965c0.212,0.128,0.7,0.822,0.82,1.511c0.197,1.134,0.314,2.295,0.421,3.479
					c0.104,1.151,0.229,2.315,0.247,3.498c0.022,1.522,0.111,3.044,0.131,4.566c0.021,1.522,0.174,3.043,0.194,4.565
					c0.02,1.522-0.288,3.049-0.269,4.572c0.019,1.522,0.337,3.041,0.355,4.562c0.019,1.522-0.298,3.049-0.28,4.571
					c0.018,1.522,0.283,3.042,0.301,4.564c0.018,1.522-0.216,3.048-0.198,4.57c0.029,2.411,0.407,2.407,0.437,4.818
					c0.029,2.413-0.15,2.415-0.121,4.828c0.029,2.414-0.115,2.416-0.085,4.831c0.03,2.415,0.023,2.415,0.052,4.83
					c0.024,2.054,0.108,3.861-0.219,5.468c-0.391,1.913-1.09,3.568-2.031,5.08c-0.727,1.16-1.288,2.383-1.588,3.68
					c-0.3,1.298-0.248,2.633-0.1,3.995c0.152,1.439,0.329,2.676,1.042,3.445c0.769,0.83,1.989,1.042,3.4,1.082
					c2.158,0.062,4.34,0.162,6.477,0.139c2.04-0.022,4.088-0.236,6.113-0.34c1.477-0.075,2.576-0.439,3.372-1.328
					c0.801-0.908,1.394-2.117,1.312-3.672c-0.122-2.176-0.679-4.565-1.833-6.424c-0.888-1.421-1.558-2.911-2.006-4.397
					c-0.469-1.557-0.665-3.176-0.821-4.753C212.709,176.004,212.904,174.385,212.889,172.806z"/>
			</g>
			<g>
				<path fill="#FFFFFF" d="M363.065,69.181c-1.506-0.487-2.99-1.097-4.54-1.359c-1.554-0.263-3.152-0.327-4.731-0.364
					c-1.568-0.037-3.133,0.242-4.708,0.428c-1.552,0.184-3.132,0.304-4.672,0.705c-1.496,0.39-2.836,1.04-4.146,1.608
					c-1.407,0.611-2.713,1.276-3.904,2.092c-1.244,0.852-2.442,1.727-3.448,2.801c-1.008,1.075-1.982,2.222-2.75,3.517
					c-0.736,1.243-1.401,2.601-1.915,4.044c-0.479,1.346-0.584,2.858-0.868,4.378c-0.259,1.381-0.373,2.759-0.478,4.077
					c-0.117,1.497-0.363,2.891-0.383,4.097c-0.024,1.528-0.131,3.061-0.152,4.597c-0.021,1.532-0.092,3.067-0.11,4.602
					c-0.02,1.537,0.123,3.075,0.105,4.608c-0.017,1.538,0.009,3.072-0.008,4.6c-0.016,1.541,0.041,3.076,0.024,4.599
					c-0.022,2.18-0.052,2.18-0.073,4.36c-0.018,1.785-0.025,3.57-0.044,5.354c-0.018,1.785-0.048,3.569-0.067,5.354
					c-0.024,2.226-0.125,2.225-0.149,4.45c-0.024,2.226,0.092,2.228,0.067,4.454s-0.239,2.224-0.264,4.45
					c-0.024,2.226,0.199,2.228,0.175,4.453c-0.025,2.226-0.21,2.224-0.235,4.449c-0.024,2.228,0.077,2.229,0.053,4.457
					c-0.024,2.229-0.109,2.229-0.134,4.457c-0.024,2.229-0.016,2.229-0.04,4.458c-0.002,0.248-0.121,0.502-0.121,0.756
					c0.002,0.652,0.237,1.312,0.226,1.97c-0.001,0.064-0.181,0.063-0.181,0.129c-0.003,1.436,0.283,2.911,0.376,4.376
					c0.095,1.567,0.091,3.09,0.392,4.527c0.32,1.531,0.809,2.969,1.354,4.341c0.571,1.441,1.119,2.88,1.927,4.134
					c0.829,1.285,1.822,2.468,2.889,3.54c1.061,1.068,2.361,1.88,3.646,2.724c1.241,0.815,2.476,1.743,3.914,2.335
					c1.361,0.561,2.833,1.027,4.362,1.377c1.214,0.275,2.494,0.151,3.718,0.299c1.237,0.148,2.453,0.51,3.684,0.523
					c0.159,0.001,0.16-0.273,0.319-0.273c1.28,0,2.544-0.077,3.822-0.221c1.272-0.144,2.541-0.262,3.794-0.549
					c1.625-0.371,3.187-0.783,4.631-1.409c1.517-0.657,2.977-1.387,4.273-2.304c1.334-0.943,2.449-2.131,3.528-3.323
					c1.081-1.194,1.952-2.536,2.755-3.956c0.783-1.384,1.482-2.821,1.979-4.396c0.474-1.502,0.796-3.074,0.991-4.729
					c0.184-1.516,0.474-3.036,0.575-4.581c0.101-1.531,0.185-3.074,0.204-4.613c0.02-1.571-0.17-3.152-0.15-4.736
					c0.02-1.572,0.098-3.15,0.116-4.734c0.02-1.572,0.201-3.148,0.22-4.732c0.019-1.572,0.057-3.15,0.075-4.735
					c0.019-1.571-0.025-3.149-0.007-4.732c0.018-1.573,0.009-3.151,0.026-4.734c0.018-1.574-0.174-3.155-0.156-4.739
					c0.017-1.575,0.216-3.152,0.233-4.736c0.017-1.574,0.183-3.152,0.199-4.735c0.017-1.573-0.255-3.154-0.238-4.735
					c0.016-1.575,0.271-3.151,0.286-4.734c0.016-1.576-0.254-3.159-0.238-4.743c0.016-1.575,0.234-3.151,0.25-4.733
					c0.015-1.578,0.104-3.158,0.118-4.742c0.015-1.578,0.024-3.159,0.039-4.743c0.016-1.74-0.233-3.32-0.292-4.792
					c-0.068-1.722,0.122-3.315-0.048-4.798c-0.183-1.558-0.462-3.062-0.84-4.457c-0.408-1.505-1.176-2.833-1.811-4.144
					c-0.669-1.381-1.291-2.771-2.21-3.936c-0.928-1.178-2.146-2.09-3.329-3.045c-1.141-0.921-2.417-1.666-3.794-2.378
					C365.889,70.325,364.557,69.662,363.065,69.181z M352.173,185.616c-0.083,0-0.081-0.239-0.164-0.24
					c-1.65-0.019-3.137-0.201-4.491-0.717c-1.485-0.563-2.889-1.249-3.939-2.354c-1.023-1.077-1.68-2.493-2.213-4.03
					c-0.682-1.953-1.216-4.281-1.215-6.776c0.004-1.568,0.056-3.137,0.064-4.711c0.008-1.562,0.134-3.132,0.146-4.711
					c0.012-1.56,0.119-3.128,0.134-4.712c0.015-1.555,0.06-3.124,0.076-4.712c0.017-1.552-0.257-3.125-0.239-4.718
					c0.018-1.549-0.013-3.121,0.006-4.716c0.023-1.624,0.248-3.246,0.268-4.871c0.02-1.625,0.122-3.25,0.144-4.876
					c0.024-2.322,0.073-2.322,0.095-4.644c0.021-2.322-0.14-2.323-0.117-4.645c0.016-1.568-0.013-3.147,0.003-4.731
					c0.016-1.57-0.041-3.148-0.024-4.73c0.018-1.574,0.063-3.153,0.082-4.735c0.019-1.575,0.029-3.154,0.05-4.733
					c0.021-1.58,0.055-3.16,0.079-4.739c0.024-1.58,0.15-3.156,0.178-4.731c0.062-2.635,0.31-4.957,0.959-6.845
					c0.545-1.564,1.526-2.79,2.555-3.88c1.065-1.13,2.246-2.17,3.749-2.736c1.376-0.519,2.952-0.61,4.627-0.61
					c0.087,0,0.087-0.103,0.173-0.101c0.353,0.007,0.672,0.105,1.003,0.13c1.691,0.121,3.233,0.564,4.609,1.304
					c1.437,0.772,2.549,1.903,3.498,3.226c0.912,1.27,1.769,2.649,2.1,4.312c0.224,1.094,0.21,2.274,0.313,3.491
					c0.096,1.122,0.434,2.284,0.423,3.496c-0.014,1.502-0.229,3.004-0.244,4.512c-0.014,1.502,0.03,3.007,0.017,4.515
					c-0.014,1.502-0.197,3.005-0.212,4.513c-0.015,1.502,0.004,3.008-0.011,4.517c-0.015,1.502,0.166,3.009,0.15,4.519
					c-0.015,1.502-0.277,3.006-0.293,4.516c-0.016,1.503-0.032,3.009-0.048,4.521c-0.016,1.503,0.31,3.014,0.293,4.526
					c-0.016,1.503-0.313,3.008-0.33,4.521c-0.017,1.502,0.24,3.012,0.223,4.525c-0.017,1.502-0.028,3.009-0.045,4.522
					c-0.018,1.501-0.13,3.007-0.147,4.52c-0.018,1.502-0.13,3.01-0.147,4.524c-0.018,1.502-0.115,3.008-0.134,4.522
					c-0.019,1.503,0.113,3.014,0.095,4.529c-0.019,1.502,0.041,3.012,0.021,4.527c-0.025,2.271-0.319,4.518-0.743,6.652
					c-0.332,1.666-0.979,3.198-1.88,4.473c-0.943,1.335-2.264,2.318-3.69,3.099c-1.373,0.751-2.912,1.183-4.604,1.304
					C352.961,185.452,352.562,185.616,352.173,185.616z"/>
			</g>
			<g>
				<path fill="#FFFFFF" d="M122.029,88.822c-0.118-1.731-0.219-3.396-0.633-4.968c-0.438-1.664-0.98-3.256-1.729-4.719
					c-0.773-1.51-1.667-2.951-2.75-4.22c-1.083-1.269-2.389-2.346-3.759-3.346c-1.327-0.97-2.8-1.764-4.375-2.456
					c-1.489-0.655-3.056-1.261-4.749-1.647c-1.437-0.325-2.9-0.684-4.396-0.824c-1.465-0.137-2.969,0-4.471,0.042
					c-1.47,0.042-2.959,0.112-4.448,0.328c-1.547,0.224-3.057,0.415-4.442,0.827c-1.49,0.443-2.792,1.247-4.09,1.904
					c-1.37,0.693-2.581,1.533-3.732,2.458c-1.173,0.942-2.425,1.807-3.366,2.985c-0.92,1.152-1.776,2.419-2.469,3.791
					c-0.656,1.297-1.043,2.77-1.492,4.259c-0.417,1.383-0.76,2.843-0.994,4.389c-0.334,2.135-0.429,4.308-0.429,6.179
					c-0.005,1.518,0.158,3.044,0.152,4.578c-0.005,1.516-0.173,3.04-0.178,4.576c-0.005,1.514-0.08,3.038-0.084,4.575
					c-0.005,1.513,0.21,3.039,0.205,4.576c-0.004,1.512-0.273,3.036-0.278,4.574c-0.004,1.511,0.016,3.036,0.012,4.576
					c-0.004,1.511-0.026,3.036-0.03,4.577c-0.004,1.511,0.292,3.038,0.288,4.58c-0.004,1.511-0.21,3.037-0.214,4.581
					c-0.004,1.51,0.249,3.037,0.245,4.581c-0.003,1.51-0.037,3.036-0.04,4.58c-0.003,1.508-0.08,3.033-0.083,4.576
					c-0.003,1.509-0.133,3.035-0.137,4.58c-0.003,1.511-0.151,3.038-0.154,4.583c-0.003,1.509-0.017,3.036-0.02,4.58
					c-0.003,1.512,0.183,3.041,0.18,4.588c-0.003,1.512,0.085,3.042,0.083,4.589c0,1.501,0.041,2.963,0.157,4.446
					c0.124,1.543,0.345,3.01,0.688,4.43c0.361,1.496,0.559,3.023,1.151,4.367c0.616,1.396,1.643,2.549,2.493,3.764
					c0.865,1.235,1.753,2.431,2.845,3.46c1.083,1.021,2.149,2.128,3.441,2.93c1.251,0.776,2.736,1.184,4.168,1.738
					c1.363,0.526,2.777,1.003,4.292,1.314c1.151,0.233,2.29,0.54,3.442,0.66c1.172,0.122,2.348,0.265,3.503,0.268
					c0.044,0,0.044-0.124,0.088-0.124v-0.107c1.271,0,2.557,0.072,3.834-0.069c1.264-0.141,2.553-0.268,3.806-0.545
					c1.455-0.322,2.87-0.76,4.184-1.294c1.372-0.557,2.645-1.31,3.849-2.078c1.238-0.79,2.421-1.667,3.464-2.661
					c1.053-1.004,1.861-2.232,2.697-3.423c0.827-1.179,1.742-2.341,2.339-3.683c0.581-1.304,0.794-2.77,1.141-4.209
					c0.332-1.379,0.837-2.776,0.941-4.263c0.095-1.349,0.042-2.719,0.108-4.089c0.065-1.355-0.053-2.725-0.016-4.093
					c0.037-1.36,0.244-2.722,0.252-4.086c0.013-1.421,0.156-2.846,0.165-4.274c0.009-1.426-0.293-2.855-0.287-4.282
					c0.006-1.429,0.142-2.857,0.146-4.282c0.004-1.43-0.188-2.856-0.185-4.275c0.002-1.433,0.21-2.858,0.212-4.274
					c0-0.644-0.125-0.644-0.124-1.288c0.006-1.79,0.029-3.581,0.029-5.372c0.004-2.441,0.276-2.441,0.282-4.882
					c0.005-2.443-0.098-2.444-0.093-4.887c0.006-2.445-0.017-2.445-0.011-4.891c0.005-2.445-0.164-2.445-0.156-4.891
					c0.008-1.225,0.206-2.447,0.218-3.669c0.008-1.298,0.027-1.298,0.033-2.596c0.009-1.6-0.186-3.227-0.187-4.859
					c0-1.621-0.087-3.245-0.105-4.856c-0.017-1.416-0.028-2.731-0.058-3.973c-0.034-1.41,0.275-2.735,0.222-3.985
					C122.565,91.381,122.115,90.096,122.029,88.822z M96.442,80.453c0.02,0.083-0.202,0.14-0.133,0.192
					c0.183,0.003,0.352,0.063,0.533,0.07c1.46,0.056,2.78,0.389,4.001,0.872c1.312,0.519,2.51,1.179,3.49,2.135
					c0.962,0.939,1.794,2.057,2.38,3.364c0.534,1.191,0.819,2.549,0.996,4.003c0.267,2.202,0.271,4.453,0.271,6.708
					c-0.001,1.557,0.183,3.104,0.181,4.642c-0.001,1.557-0.061,3.104-0.062,4.643c-0.002,1.557-0.14,3.104-0.142,4.643
					c-0.002,1.558,0.266,3.106,0.263,4.645c-0.002,1.557,0.047,3.105,0.044,4.645c-0.003,1.557-0.284,3.104-0.287,4.642
					c-0.003,1.556-0.045,3.103-0.048,4.642c-0.004,1.556,0.176,3.103,0.172,4.641c-0.004,1.556-0.027,3.103-0.032,4.641
					c-0.004,1.556-0.068,3.104-0.073,4.642c-0.005,1.556,0.159,3.103,0.153,4.642c-0.005,1.554-0.174,3.1-0.18,4.638
					c-0.005,1.555-0.081,3.101-0.087,4.64c-0.006,1.553,0.207,3.098,0.201,4.637c-0.007,1.552-0.278,3.097-0.285,4.635
					c-0.004,1.295-0.019,2.512-0.097,3.685c-0.085,1.281-0.231,2.484-0.408,3.657c-0.282,1.899-0.659,3.69-1.612,5.109
					c-1.016,1.512-2.519,2.582-4.137,3.406c-1.525,0.777-3.25,1.465-5.168,1.505c-0.186,0.004-0.19-0.025-0.376-0.025
					c-1.947-0.005-3.75-0.443-5.288-1.116c-1.687-0.738-3.035-1.962-4.112-3.412c-1.01-1.359-1.578-3.025-1.948-4.93
					c-0.403-2.04-0.42-4.205-0.42-6.28c-0.002-1.493-0.193-2.99-0.193-4.489c0-1.498-0.09-2.997-0.088-4.496
					c0.001-1.499-0.031-2.998-0.027-4.494c0.003-1.502,0.02-3.003,0.024-4.5c0.005-1.501,0.312-2.998,0.318-4.489
					c0.005-1.504-0.321-3.003-0.315-4.492c0.006-2.202,0.115-2.202,0.12-4.403c0.005-2.204,0.233-2.204,0.239-4.407
					c0.005-2.206-0.292-2.206-0.287-4.412c0.005-2.205,0.063-2.205,0.067-4.41c0.003-1.616,0.137-3.179,0.14-4.693
					c0.003-1.615,0.086-3.175,0.089-4.688c0.004-1.613-0.116-3.173-0.112-4.688c0.004-1.61-0.099-3.169-0.094-4.689
					c0.005-1.601,0.156-3.158,0.162-4.684c0.006-1.589,0.099-3.145,0.106-4.681c0.001-0.085,0.003-0.085,0.004-0.17
					c0.012-1.922-0.059-3.896,0.283-5.766c0.262-1.438,0.747-2.703,1.378-3.858c0.681-1.247,1.412-2.43,2.463-3.298
					c1.048-0.866,2.356-1.332,3.711-1.771c1.251-0.406,2.56-0.882,4.022-0.882c0.083-0.009,0.084,0.125,0.14,0.063
					C96.445,80.538,96.442,80.453,96.442,80.453z"/>
			</g>
			<g>
				<path fill="#FFFFFF" d="M518.661,142.257c-0.854-1.402-1.728-2.812-2.769-4.142c-0.991-1.264-2.098-2.503-3.296-3.742
					c-1.102-1.14-2.49-2.072-3.797-3.222c-1.187-1.043-2.295-2.294-3.673-3.369c-1.239-0.967-2.456-1.972-3.714-2.916
					c-1.403-1.06-2.89-2.042-4.294-3.15c-1.389-1.096-2.788-2.194-4.116-3.38c-1.321-1.182-2.553-2.46-3.752-3.775
					c-1.183-1.299-2.014-2.638-2.632-4.011c-0.676-1.503-1.138-3.013-1.155-4.648c-0.021-1.59-0.208-3.281-0.202-5.034
					c0.006-1.635,0.099-3.328,0.151-5.04c0.051-1.665,0.104-3.358,0.221-5.039c0.109-1.573,0.58-2.964,1.168-4.159
					c0.648-1.318,1.626-2.357,2.833-3.186c1.099-0.755,2.436-1.179,3.978-1.503c1.3-0.274,2.552-0.634,3.791-0.61
					c1.55,0.032,2.934,0.55,4.222,1.041c1.424,0.543,2.589,1.308,3.55,2.354c0.982,1.077,1.76,2.272,2.173,3.777
					c0.361,1.316,0.689,2.784,0.607,4.409c-0.071,1.471-0.323,2.89-0.167,4.198c0.208,1.697,0.831,3.161,1.567,4.382
					c0.821,1.364,1.967,2.418,3.374,3.121c1.281,0.64,2.794,1.1,4.501,1.134c0.081,0.001,0.085-0.259,0.165-0.258
					c1.781,0.016,2.908-0.245,3.715-0.96c0.833-0.736,1.427-1.81,1.509-3.583c0.102-1.98-0.074-3.872-0.045-5.705
					c0.031-1.937,0.255-3.822,0.122-5.7c-0.109-1.563-0.537-3.034-0.871-4.468c-0.352-1.519-0.634-3.024-1.224-4.382
					c-0.615-1.417-1.407-2.73-2.267-3.955c-0.875-1.248-1.856-2.425-2.969-3.456c-1.102-1.021-2.363-1.888-3.683-2.678
					c-1.273-0.763-2.671-1.353-4.132-1.884c-1.385-0.503-2.866-0.767-4.406-1.049c-1.628-0.299-3.352-0.781-5.496-0.824
					c-0.99-0.02-1.974,0.284-2.953,0.301c-1.649,0.026-3.263-0.154-4.765,0.118c-1.614,0.292-3.085,0.962-4.515,1.524
					c-1.509,0.594-3.04,1.12-4.324,2c-1.314,0.899-2.259,2.226-3.318,3.408c-1.042,1.162-2.09,2.335-2.865,3.753
					c-0.738,1.349-1.49,2.766-1.973,4.332c-0.449,1.459-0.795,3.03-1.008,4.666c-0.202,1.571-0.124,3.179-0.234,4.77
					c-0.109,1.583-0.223,3.167-0.267,4.757c-0.044,1.591-0.112,3.181-0.116,4.765c-0.005,1.598,0.14,3.188,0.149,4.766
					c0.009,0.971-0.289,0.973-0.282,1.944c0.006,1.696,0.513,3.337,0.979,5.019c0.433,1.561,0.985,3.146,1.835,4.747
					c0.746,1.408,1.777,2.748,2.859,4.224c1.029,1.405,2.063,2.735,3.266,3.944c1.197,1.203,2.312,2.519,3.657,3.627
					c1.289,1.063,2.829,1.871,4.234,2.939c1.229,0.935,2.485,1.83,3.729,2.75c1.181,0.879,2.339,1.837,3.537,2.747
					c1.19,0.903,2.204,2.035,3.353,2.975c1.244,1.013,2.463,1.926,3.457,3.002c1.082,1.172,1.924,2.433,2.71,3.685
					c0.833,1.327,1.43,2.694,1.935,4.116c0.509,1.437,0.982,2.866,1.16,4.407c0.17,1.478,0.411,3.014,0.279,4.594
					c-0.112,1.343-0.188,2.695-0.188,4.017c-0.006,0.493,0.015,0.993,0,1.491c-0.012,0.177-0.312,0.16-0.321,0.338
					c-0.02,0.897,0.073,1.8,0.058,2.693c-0.024,1.938,0.044,3.945-0.061,5.907c-0.078,1.56-0.249,3.088-0.784,4.411
					c-0.57,1.411-1.486,2.666-2.498,3.729c-1.016,1.066-2.382,1.702-3.762,2.334c-1.3,0.595-2.655,1.287-4.209,1.425
					c-0.566,0.052-1.154-0.08-1.71-0.093c-1.693-0.033-3.215-0.442-4.606-1.022c-1.5-0.626-2.868-1.435-3.932-2.605
					c-1.036-1.141-1.649-2.599-2.188-4.169c-0.484-1.416-0.978-2.93-0.992-4.626c-0.004-0.328,0.008-0.328,0.005-0.656
					c-0.007-1.374,0.115-2.802-0.007-4.193c-0.172-1.837-0.811-3.307-1.495-4.553c-0.812-1.477-1.896-2.528-3.427-3.168
					c-1.315-0.55-2.861-0.717-4.708-0.642c-1.607,0.068-2.743,0.347-3.531,1.101c-0.803,0.768-1.411,1.872-1.488,3.475
					c-0.08,1.745-0.098,3.616-0.13,5.528c-0.031,1.82-0.096,3.695,0.03,5.536c0.105,1.566,0.594,3.035,0.916,4.47
					c0.343,1.523,0.63,3.022,1.206,4.386c0.603,1.423,1.55,2.625,2.396,3.86c0.86,1.256,1.777,2.429,2.878,3.476
					c1.086,1.034,2.263,1.958,3.571,2.775c1.256,0.784,2.622,1.389,4.073,1.96c1.367,0.54,2.727,1.275,4.259,1.615
					c1.186,0.263,2.39,0.505,3.591,0.649c1.204,0.146,2.438-0.033,3.647-0.008c2.107,0.039,4.27,0.104,6.389-0.22
					c1.508-0.229,2.982-0.477,4.347-0.886c1.454-0.436,2.808-1.078,4.092-1.71c1.351-0.665,2.527-1.562,3.681-2.434
					c1.184-0.896,2.325-1.823,3.292-2.927c0.963-1.099,1.771-2.33,2.508-3.625c0.713-1.252,1.398-2.562,1.893-3.986
					c0.469-1.35,0.63-2.821,0.895-4.317c0.248-1.401,0.66-2.834,0.724-4.357c0.056-1.374,0.18-2.756,0.216-4.138
					c0.036-1.383-0.217-2.771-0.192-4.146c0.025-1.39,0.157-2.77,0.179-4.137c0.029-2.056,0.176-4.111,0.22-6.165
					c0.038-1.757-0.271-3.479-0.59-5.186c-0.314-1.682-0.821-3.327-1.488-4.981C520.298,145.396,519.604,143.806,518.661,142.257z"
					/>
			</g>
			<g>
				<path fill="#FFFFFF" d="M52.146,165.375c-0.059-2.193-1.318-3.47-3.433-3.98c-0.677-0.159-1.341-0.173-2.015-0.173
					c-1.898-0.004-3.739,0.332-5.142,1.436c-1.365,1.072-2.466,2.677-3.016,4.53c-0.293,0.969-0.329,2.037-0.437,3.034
					c-0.072,0.742-0.164,1.496-0.325,2.22c-0.117,0.567-0.256,1.145-0.363,1.721c-0.37,1.918-0.47,4.004-1.27,5.708
					c-0.605,1.289-1.554,2.467-2.607,3.438c-1.049,0.966-2.421,1.515-3.739,2.054c-1.328,0.543-2.693,1.009-4.115,1.005
					c-0.486,0-0.946-0.186-1.417-0.26c-1.583-0.25-3.003-0.905-4.321-1.847c-1.279-0.912-2.334-2.069-3.197-3.458
					c-0.827-1.332-1.585-2.748-1.881-4.363c-0.335-1.825-0.511-3.689-0.51-5.542c0.002-1.526,0.056-3.044,0.059-4.552
					c0.002-1.527-0.078-3.044-0.076-4.552c0.002-1.526-0.147-3.043-0.145-4.551c0.002-1.526,0.385-3.042,0.388-4.55
					c0.003-1.527-0.086-3.044-0.083-4.553c0.003-1.527-0.268-3.045-0.264-4.553c0.003-1.527,0.029-3.044,0.032-4.553
					c0.004-1.526,0.221-3.043,0.224-4.551c0.004-1.526-0.042-3.043-0.038-4.551c0.004-1.525-0.129-3.042-0.125-4.55
					c0.004-1.526,0-3.042,0.005-4.55c0.004-1.526,0.156-3.042,0.161-4.551c0.005-1.525,0.183-3.041,0.188-4.549
					c0.005-1.524-0.155-3.04-0.15-4.547c0.005-1.525-0.171-3.042-0.165-4.55c0.006-1.523,0.201-3.038,0.207-4.544
					c0.006-1.523,0.094-3.037,0.101-4.544c0.01-2.406,0.178-4.608,0.629-6.553c0.401-1.748,1.229-3.246,2.244-4.577
					c1.061-1.391,2.3-2.586,3.833-3.358c1.515-0.763,3.203-1.099,4.981-1.094c1.706,0.004,3.389,0.246,4.962,1.011
					c1.681,0.817,3.145,1.837,4.164,3.155c1.03,1.332,1.735,2.991,2.075,4.815c0.299,1.577,0.258,3.248,0.393,4.838
					c0.077,0.956,0.362,1.896,0.475,2.85c0.206,1.729,0.567,3.25,1.322,4.506c0.851,1.415,1.968,2.58,3.392,3.275
					c1.339,0.654,2.933,0.886,4.667,0.795c1.513-0.078,2.591-0.438,3.303-1.134c0.738-0.723,1.135-1.799,1.132-3.303
					c-0.008-0.84,0.034-1.68,0.042-2.521c0.002-1.478-0.015-2.974-0.042-4.471c-0.026-1.489-0.229-2.974-0.342-4.456
					c-0.114-1.492-0.056-3.007-0.318-4.465c-0.311-1.707-1.077-3.221-1.659-4.72c-0.62-1.597-1.276-3.106-2.194-4.456
					c-0.943-1.386-2.091-2.563-3.338-3.677c-1.22-1.09-2.439-2.244-3.941-3.062c-1.414-0.77-2.991-1.354-4.646-1.873
					c-1.597-0.5-3.217-0.851-4.839-1.093c-1.639-0.245-3.29-0.241-4.946-0.222c-1.64,0.019-3.296,0.016-4.946,0.292
					c-1.604,0.269-3.201,0.715-4.808,1.228c-1.642,0.524-3.08,1.339-4.48,2.16c-1.453,0.852-2.806,1.771-3.995,2.937
					c-1.169,1.148-2.187,2.439-3.095,3.887c-0.854,1.361-1.803,2.755-2.423,4.378C1.788,79.92,1.667,81.328,1.35,82.7
					c-0.305,1.318-0.519,2.664-0.666,4.083c-0.139,1.334-0.336,2.7-0.338,4.138c-0.002,1.463,0.121,2.926,0.118,4.39
					c-0.003,1.463-0.349,2.925-0.353,4.388c-0.003,1.463,0.2,2.927,0.197,4.39c-0.003,1.463-0.184,2.926-0.188,4.389
					c-0.003,1.463,0.061,2.927,0.058,4.39c-0.003,1.463-0.062,2.926-0.065,4.389c-0.004,1.463-0.047,2.926-0.05,4.389
					c-0.007,2.562,0.036,2.562,0.029,5.124c-0.008,2.562,0.18,2.563,0.173,5.125c-0.004,1.808-0.088,3.617-0.096,5.427
					c-0.008,1.81-0.12,3.619-0.131,5.428c-0.008,1.664,0.075,3.337,0.069,5.018c-0.006,1.666,0.064,3.339,0.06,5.017
					c-0.004,1.67-0.011,3.345-0.013,5.021c-0.001,1.672-0.152,3.347-0.149,5.021c0.002,1.675,0.193,3.35,0.201,5.022
					c0.007,1.677-0.08,3.352-0.067,5.021c0.017,1.827,0.133,3.606,0.34,5.317c0.221,1.821,0.701,3.533,1.135,5.194
					c0.462,1.77,0.933,3.432,1.642,4.927c0.775,1.634,1.572,3.201,2.636,4.504c1.113,1.361,2.582,2.324,4.005,3.318
					c1.392,0.973,2.836,1.92,4.521,2.536c1.274,0.468,2.525,0.983,3.804,1.301c1.314,0.327,2.67,0.396,3.98,0.563
					c1.339,0.172,2.67,0.443,3.995,0.446c1.477,0.003,2.952-0.264,4.421-0.469c1.454-0.202,2.914-0.456,4.35-0.86
					c1.406-0.396,2.828-0.84,4.207-1.428c1.571-0.669,2.974-1.558,4.265-2.511c1.339-0.988,2.38-2.25,3.415-3.538
					c1.01-1.259,1.904-2.599,2.62-4.14c0.667-1.436,1.238-2.962,1.647-4.639c0.417-1.718,0.814-3.428,0.967-5.168
					c0.153-1.752,0.15-3.514,0.143-5.264c-0.008-1.765,0.056-3.527-0.006-5.265C52.202,166.924,52.174,166.149,52.146,165.375z"/>
			</g>
		</g>
	</g>
	<g>
		<path fill-rule="evenodd" clip-rule="evenodd" fill="#FFFFFF" d="M464.175,238.978c-1.635,0.026-2.429-0.827-2.949-1.947
			c-0.594-1.278-1.067-2.613-1.583-3.932c-1.798-4.614-2.118-4.871-6.856-4.828c-15.043,0.142-33.502,0.287-48.534,0.447
			c-7.267,0.078-14.532,0.195-21.798,0.279c-18.886,0.23-37.773,0.449-56.666,0.676c-8.137,0.097-9.98,0.209-18.112,0.323
			c-2.839,0.04-5.669,0.147-8.498,0.18c-0.797,0.009-1.613-0.028-2.385-0.205c-1.228-0.289-1.856-1.155-1.923-2.391
			c-0.075-1.324,0.55-2.332,1.802-2.708c0.626-0.185,1.288-0.241,1.938-0.265c1.307-0.048,2.614-0.036,3.925-0.048
			c15.545-0.129,24.798-0.274,40.35-0.418c9.739-0.085,19.466-0.196,29.2-0.306c19.472-0.201,38.939-0.4,58.416-0.61
			c6.755-0.075,16.936-0.166,23.683-0.257c0.585-0.003,1.167,0,1.753-0.058c2.025-0.21,2.819-0.881,3.394-2.88
			c0.285-1.004,0.442-2.046,0.771-3.032c0.588-1.793,1.562-2.37,3.364-1.883c1.397,0.373,2.759,0.92,4.129,1.429
			c7.304,2.721,14.611,5.459,21.909,8.194c0.752,0.287,1.513,0.565,2.202,0.963c1.622,0.92,1.637,2.044,0.067,2.972
			c-0.496,0.298-1.05,0.513-1.591,0.72c-8.124,3.038-16.253,6.066-24.385,9.1C465.186,238.716,464.547,238.866,464.175,238.978z"/>
		<path fill-rule="evenodd" clip-rule="evenodd" fill="#FFFFFF" d="M222.451,226.153c-0.03,1.802-0.863,2.635-2.857,2.814
			c-0.568,0.056-1.156,0.046-1.734,0.052c-16.5,0.15-51.492,0.299-67.994,0.446c-14.966,0.144-29.938,0.28-44.906,0.418
			c-12.868,0.123-25.725,0.244-38.594,0.381c-1.16,0.012-2.324,0.028-3.476,0.171c-1.858,0.232-2.482,0.923-2.474,2.642
			c0,0.715,0.16,1.429,0.2,2.147c0.139,2.031-0.817,2.732-3.065,2.259c-0.426-0.095-0.836-0.221-1.248-0.361
			c-7.865-2.53-15.736-5.057-23.598-7.607c-0.744-0.243-1.479-0.571-2.105-0.987c-0.719-0.48-0.726-1.146,0.008-1.645
			c0.572-0.385,1.217-0.721,1.885-0.946c7.832-2.626,15.666-5.25,23.521-7.806c2.539-0.832,3.527-0.357,4.568,1.894
			c0.281,0.6,0.518,1.227,0.87,1.791c0.562,0.926,1.513,1.402,2.657,1.513c0.859,0.082,1.742,0.107,2.608,0.107
			c13.88-0.017,27.767-0.018,41.647-0.05c29.869-0.069,78.238-0.151,108.109-0.231c1.02,0,2.041-0.023,3.05,0.054
			C221.629,223.366,222.479,224.258,222.451,226.153z"/>
	</g>
</g>
</svg>
