<?xml version="1.0" encoding="utf-8"?>
<!-- Generator: Adobe Illustrator 16.0.0, SVG Export Plug-In . SVG Version: 6.00 Build 0)  -->
<!DOCTYPE svg PUBLIC "-//W3C//DTD SVG 1.1//EN" "http://www.w3.org/Graphics/SVG/1.1/DTD/svg11.dtd">
<svg version="1.1" id="Layer_1" xmlns="http://www.w3.org/2000/svg" xmlns:xlink="http://www.w3.org/1999/xlink" x="0px" y="0px"
	 width="650px" height="346px" viewBox="0 0 650 346" enable-background="new 0 0 650 346" xml:space="preserve">
<g>
	<path fill="#FFFFFF" d="M225.954,333.35c0.526,0.016-2.074,0.188-3.115-0.771c-1.25-1.299-1.584-2.586-1.942-4.062
		c-0.688-2.762-0.249-5.596-2.28-7.957c-0.559-0.579-0.729-1.104-1.222-1.68c-0.846-0.382,0.173-0.279,0.268-0.45
		c3.105-0.367,4.71-1.974,6.106-4.355c1.851-3.296,2.063-6.85,1.954-10.694c-0.083-4.083-3.774-9.65-8.193-10.085
		c-0.183-0.033,0.335-0.132,0.092-0.173c-1.714-0.594-3.436-1.136-5.278-1.337c-1.117-0.067-2.158-0.193-3.136-0.68
		c-1.155-0.211-1.772-0.263-2.691-0.37c-2.38-0.379-2.875-0.1-3.669,2.106c-0.716,2.101-0.833,2.392,1.152,3.265
		c1.808,0.834,1.749,1.505,1.493,2.883c-0.056,0.303-0.049,0.611-0.165,0.902c-0.655,2.858-0.874,5.795-1.604,8.706
		c-0.783,3.202-1.133,6.492-1.854,9.711c-0.631,3.05-1.262,6.097-1.824,9.163c-0.134,0.72-0.444,0.972-1.208,1.135
		c-2.863-0.653-3.532-0.287-3.718,1.727c-0.114,0.6,0.079,1.321-0.343,1.799c-0.172,0.529-0.154,0.095,0.336,0.684
		c0.21,0.279,2.869,1.508,11.542,2.281c1.715,0.106,2.768-0.209,2.936-1.977c0.143-1.65-0.198-2.755-2.283-2.93
		c-0.131-0.021-0.259-0.049-0.386-0.069c-0.858-0.024-1.317-0.413-1.235-1.265c0.024-0.141,0.048-0.285,0.075-0.425
		c0.701-2.849,1.102-5.505,1.671-8.38c0.195-1.079,0.962-1.381,2.184-0.919c2.798,1.162,4.69,1.901,5.188,5.262
		c0.059,0.446,0.243,0.904,0.294,1.411c0.176,1.33,0.363,2.596,0.607,3.929c0.203,1.208,0.411,2.356,1.165,3.463
		c0.839,1.37,1.774,3.007,3.648,4.215c2.134,1.249,3.67,1.229,5.995,1.195c0.925,0.015,1.59-0.452,2.084-2.539
		C229.184,333.809,228.394,333.335,225.954,333.35z M215.217,314.011c-0.331,0.07-0.552,0.221-1.317,0.155
		c-1.918,0.295-3.14-0.161-4.592-0.724c-0.617-0.173-0.929-0.6-0.804-1.319c0.162-1.273,0.345-2.667,0.565-3.932
		c0.525-2.262,0.681-4.587,1.28-6.898c0.045-0.237,0.124-1.404,0.289-1.622c0.129-1.092-0.473-1.264,0.819-1.78
		c4.073-0.527,5.604,0.774,7.747,3.542c0.614,1.271,1.48,1.783,1.618,4.896c-0.49,1.467,0.203,1.942-1.219,4.44
		C218.644,312.341,218.443,312.812,215.217,314.011z M263.581,299.003c-2.428-0.481-4.681,0.395-6.988,0.512
		c-0.129,0.045-0.273,0.219-0.408,0.323c-2.315,1.346-4.55,3.431-6.186,5.638c-1.276,1.812-2.254,3.665-2.945,5.732
		c-0.69,2.071-0.752,4.156-1.19,6.192c-0.693,3.113-0.69,6.25-0.676,9.383c0.006,1.605,0.518,3.255,0.782,4.89
		c0.523,3.317,2.574,5.462,3.68,6.749c1.748,2.035,3.038,2.91,5.058,3.794c3.529,1.664,10.613-0.682,12.745-3.577
		c1.414-1.959,2.497-4.012,3.205-6.346c0.714-2.386,0.865-5.013,1.322-7.484c0.658-4.172,0.935-8.437,0.886-11.686
		c-0.076-2.147-0.342-4.314-1.308-6.17C269.822,302.336,267.46,299.804,263.581,299.003z M267.245,319.631
		c-0.166,3.353-0.78,6.673-1.4,9.984c-0.368,1.928-0.814,4.771-2.96,6.106c-2.095,1.583-6.73,3.159-9.215-1.161
		c-1.38-2.36-2.47-4.264-2.802-7.058c-0.231-1.991-0.034-4.303,0.508-6.886c0.207-2.982,0.832-4.575,1.525-6.83
		c0.541-2.025,0.259-4.574,2.104-5.97c0.338-0.214,0.509-0.622,0.733-0.969c0.615-1.036,2.535-2.609,5.823-2.463
		c2.801,0.03,3.912,0.806,4.572,3.13C266.564,308.906,267.834,312.269,267.245,319.631z M316.592,304.157
		c-0.623,3.772-0.945,7.616-1.141,11.393c-0.025,1.532-1.818,3.079-3.332,2.989c-1.254-0.093-1.748-0.596-1.906-1.821
		c-0.1-0.918,0.049-1.829-0.365-2.698c-0.822-2.036-2.207-3.724-3.781-5.117c-1.873-1.588-4.261-0.578-5.51,1.02
		c-0.597,0.768-1.01,1.669-1.297,2.571c-0.94,2.954-1.952,5.9-2.225,9.005c-0.484,5.173,0.035,10.27,1.904,15.174
		c0.465,1.303,1.463,2.316,2.536,3.218c1.643,1.227,4.992,0.599,6.257-0.53c1.533-1.295,2.542-2.855,2.336-4.939
		c-0.053-0.489-0.104-0.979,0.104-1.399c0.404-0.789,0.241-1.891,1.531-2.163c1.48-0.33,2.885-0.057,4.093,0.761
		c0.44,0.311,0.493,1.106,0.482,1.717c-0.106,2.438-0.532,4.874-1.811,6.982c-1.408,2.233-3.788,3.588-6.307,4.675
		c-4.923,2.201-13.673-1.288-15.47-6.532c-1.08-3.048-1.557-6.192-2.222-9.344c-0.275-2.032-0.008-3.36,0.018-5.008
		c0.094-1.709,0.262-3.595,0.977-5.146c0.432-0.951,0.482-1.865,0.661-2.895c0.188-1.154,1.452-5.001,1.863-5.776
		c1.039-2.027,1.887-4.12,3.75-5.626c1.988-1.561,4.055-2.447,6.749-2.044c2.39,0.323,4.398,1.113,6.084,2.869
		c0.061,0.066,0.185,0.066,0.553,0.139c-0.03-1.103,0.114-2.01,0.322-2.984c0.271-0.972,0.834-1.441,1.819-1.481
		c0.123,0,0.246,0.002,0.367-0.052C316.027,300.978,317.007,301.479,316.592,304.157z M370.107,341.6
		c0.538,1.376,0.568,1.862-0.572,2.538c-1.081,0.615-1.688,0.342-2.924,0.472c-2.873,0.278-5.568,0.098-8.172,0.516
		c-1.632,0.257-2.957-0.184-4.476-0.439c1.184,0.208-2.343,0.271-0.262-3.71c0.305-0.563,0.749-0.883,1.395-0.972
		c0.39-0.012,0.779-0.033,1.165-0.105c1.298-0.175,1.528-0.793,1.357-1.886c-0.415-2.12-1.208-4.042-2.871-5.506
		c-1.531-1.351-3.242-2.514-5.061-3.433c-1.043-0.518-2.267-0.786-3.482-0.879c-0.447,0.014-1.069,0.703-1.049,1.494
		c0.041,1.705-0.044,3.422,0.062,5.184c0.102,1.587,0.014,3.181,0.181,4.765c0.085,0.975,0.485,1.27,1.335,1.43
		c2.031,0.435,2.57,1.023,2.362,2.865c-0.1,0.98-1.581,1.875-2.63,1.902c-3.207,0.081-6.351,0.388-9.568-0.125
		c-1.439-0.166-1.711-0.469-2.046-1.807c-0.272-1.097,0.177-2.324,1.143-2.943c0.518-0.248,1.034-0.503,1.617-0.688
		c1.49-0.388,1.618-0.33,1.663-1.739c0.056-4.877,0.876-9.653,0.662-14.536c-0.192-3.719,0.123-7.509,0.184-11.235
		c0.041-1.16-0.102-2.317-0.249-3.539c-0.076-0.854-0.394-1.27-1.384-1.192c-1.241,0.016-1.552-0.166-2.557-1.003
		c-0.688-0.548-0.817-1.035-0.641-2.074c0.244-0.428,0.3-0.914,0.479-1.344c0.242-0.74,0.726-1.11,1.525-1.121
		c3.016-0.101,5.04-0.325,7.99-0.396c2.272-0.059,3.264,0.149,3.297,3.267c0.074,2.438-1.966,2.62-2.342,2.63
		c-0.493,0.008-0.863,0.145-0.849,0.755c0.226,3.841-0.304,7.759-0.021,11.601c0.003,0.119,0.145,0.727,0.328,0.481
		c3.371-4.297,8.12-8.436,10.194-13.654c-0.062-0.118-0.438-0.104-0.69-0.217c-2.049,0.021-2.248-0.462-2.315-2.292
		c-0.003,0-0.717-2.778,1.429-3.044c2.926-0.544,5.876-0.615,8.854-0.221c0.432,0.036,0.861,0.014,1.296,0.052
		c2.219,0.062,3.641,2.177,2.833,4.182c-0.262,0.812-0.92,1.338-1.857,1.268c-2.116-0.131-3.365,0.971-4.657,2.499
		c-1.831,2.107-2.974,4.599-4.646,6.744c-1.011,1.384-1.966,2.826-3.185,4.094c-0.855,0.764-1.27,1.632-2.381,2.522
		c-0.503,0.264,0.081,0.671,0.471,0.842c1.873,0.917,3.684,1.701,5.45,2.794c1.837,1.146,2.739,2.756,3.585,4.422
		c1.056,1.971,2.055,3.998,2.998,5.973c0.793,1.608,2.604,2.614,4.295,2.648C368.937,339.471,369.645,340.407,370.107,341.6z
		 M412.592,330.928c0.474,2.281,0.762,4.646,0.715,6.979c0.03,1.848-1.887,3.553-3.871,3.532c-2.463-0.149-4.96-0.119-7.352,0.374
		c-2.266,0.419-4.458,0.206-6.656,0.597c-1.043,0.161-1.989,0.557-2.956,0.83c-1.663,0.517-1.938,0.413-3.015-0.656
		c-1.09-1.197-1.314-2.275-0.631-3.503c0.387-0.827,0.539-1.328,1.494-1.599c1.461-0.438,1.807-0.955,1.811-2.368
		c0.021-4.78-0.168-9.545-1.163-14.172c-0.823-4.157-1.073-8.297-1.891-12.456c-0.276-1.689-0.844-3.109-2.867-3.487
		c-0.693-0.118-0.853-0.539-0.853-1.272c-0.021-0.976,0.467-1.754,0.449-2.671c0.021-0.49,0.449-0.529,0.746-0.68
		c2.313-1.117,4.764-1.286,7.199-1.096c0.807,0.045,1.614,0.089,2.408-0.057c2.365-0.484,4.73-0.372,7.12-0.64
		c1.404-0.155,2.792-0.011,4.189-0.237c0.851-0.162,1.476,0.377,1.72,1.331c0.385,2.166,0.094,4.413,0.477,6.52
		c0.291,1.377,0.396,1.184-0.145,2.48c-0.635,0.996-2.077,1.657-3.385,1.254c-0.658-0.228-1.486-1.426-1.328-2.243
		c-0.027-0.245-0.089-0.239-0.082-0.729c-0.174-0.408,0.082-0.932-0.228-1.447c-0.897-1.807-2.263-2.32-4.337-1.917
		c-1.16,0.244-2.739,0.102-4.025,0.294c-0.863,0.085-1.004,1.208-0.912,2.118c0.318,1.928,0.446,3.877,0.639,5.759
		c-0.045,0.008-0.086,0.011-0.124,0.018c0.19,1.943,0.386,3.887,0.643,5.819c0.101,1.033,1.188,1.11,2.458,1.041
		c1.008-0.101,1.149-0.607,1.066-1.398c-0.086-0.788-0.547-1.595,0.142-2.283c0.749-0.691,1.001-0.719,2.005-0.828
		c1.001-0.107,1.491,0.327,1.779,1.216c0.732,2.562,1.522,5.051,1.117,7.738c0.015,0.122,0.029,0.244,0.042,0.366
		c-0.195,2.29-0.917,3.354-3.294,2.872c-0.728-0.168-0.801-0.84-1.053-1.422c-0.451-1.243-1.559-1.372-2.773-1.372
		c-1.156-0.01-1.218,0.057-1.291,1.231c-0.141,3.814,0.749,7.592,1.129,11.42c0.152,0.901,0.631,1.1,1.46,0.893
		c1.98-0.503,4.167,0.372,6.175,0.147c0.834-0.147,2.502-1.072,2.359-1.73c-0.162-0.842,0.391-1.767,0.059-2.404
		c-0.658-1.214-0.635-2.14-0.003-2.886c0.679-0.875,2.304-0.822,3.229-0.743C411.775,329.548,412.393,329.845,412.592,330.928z
		 M454.98,333.188c-0.172,0.9-0.935,1.476-1.896,1.701c-4.217,1.057-7.396,2.03-11.783,2.055c-1.467-0.013-1.913-0.315-2.131-1.702
		c-0.047-0.3-0.162-0.59-0.147-0.903c-0.27-1.749,0.827-2.72,2.767-2.979c2.649-0.368,1.9-0.497,1.246-2.859
		c-0.247-0.703-0.247-2.681-1.108-6.312c-1.128-4.891-1.814-9.848-2.319-14.839c-0.275-2.801-1.286-5.478-2.158-8.119
		c-0.225-0.58-0.562-1.08-1.174-0.983c-0.734,0.121-2.95,0.037-3.38,0.912c-0.388,0.738-0.373,1.656-0.37,2.464
		c-0.031,1.428,0.506,2.823,0.611,4.289c-0.018,0.313,0.411,2.66-2.188,2.749c-1.665,0.37-2.337-0.271-2.565-1.84
		c-0.174-2.87-0.649-5.643-1.38-8.436c-0.798-3.275-0.234-4.094,3.072-4.477c3.126-0.354,7.47-0.562,10.488-1.569
		c0.479-0.146,0.98-0.111,1.48-0.132c1.876-0.004,8.228-1.648,8.739-1.938c0.752-0.325,1.623-0.056,2.396,0.049
		c0.458,0.096,0.521,0.46,0.655,0.804c0.584,2.747,1.199,5.615,1.292,8.454c0.026,0.8-0.133,1.642,0.096,2.527
		c0.39,1.354-0.439,2.384-1.855,2.71c-0.974,0.308-2.322-0.439-2.657-1.556c-0.3-0.943-0.411-1.914-0.525-2.887
		c-0.054-0.98-0.279-1.868-0.579-2.807c-0.447-1.41-0.662-1.555-2.104-1.484c-0.373,0.007-0.742,0.074-1.101,0.198
		c-2.147,0.693-2.336,0.72-2.108,3.097c0.141,1.897,0.414,3.831,0.5,5.8c0.031,0.555,0.125,1.094,0.342,1.613
		c1.543,4.068,1.791,8.419,2.533,12.695c0.2,1.144,0.589,2.25,0.775,3.336c0.387,1.808,0.766,3.624,1.148,5.433
		c0.305,1.375,0.442,1.411,1.953,1.332C453.705,329.449,455.418,331.182,454.98,333.188z"/>
	<path fill="#FFFFFF" d="M338.852,0.285c-0.335-0.016-0.666-0.129-1.004-0.142c-2.592,0.102-5.123,0.142-7.705-0.126
		c-0.782-0.106-1.021,0.283-1.072,0.82c-0.293,1.414-0.396,3.015,1.412,3.62c1.772,0.458,2.281-0.31,2.207,0.715
		c-0.246,1.357,0.068,2.241,0.051,3.168c-0.092,1.706-0.605,3.354-0.258,5.113c-0.068,0.684-0.083,1.416-0.15,2.144
		c-0.009,0.392-0.174,0.728-0.753,0.72c-1.325-0.018-2.066,0.17-3.388-0.033c-1.318-0.145-2.595-0.236-3.92-0.121
		c-1.797,0.12-1.797,0.129-1.779-1.581c0-0.195-0.059-0.387-0.063-0.581c0.111-2.589-0.32-5.166,0.34-7.712
		c0.158-0.54,0.206-1.031,0.973-1.284c2.704-0.132,1.805-2.505,2.242-3.437c0.168-0.294,0.109-0.585-0.173-0.827
		c-1.066-0.722-2.136-0.52-3.816-0.239c-1.117,0.216-2.404,0.396-3.65,0.094c-1.405-0.095-2.728-0.675-3.694,0.347
		c-0.961,1.021-1.028,1.809-0.486,3.779c0.308,0.669,1.257,0.822,1.921,0.888c1.551,0.082,1.657,0.084,1.71,1.445
		c0.112,1.606,0.334,3.258,0.555,4.91c0.23,2.039,0.192,4.042,0.109,6.091c-0.229,3.812,0.118,7.605,0.104,11.46
		c-0.003,1.316,0.049,1.363-1.297,1.466c-1.648,0.12-2.312,0.839-2.283,2.303c0.027,1.417,0.414,2.221,2.374,2.183
		c1.327,0.044,2.648-0.052,3.925-0.182c1.222-0.129,2.405,0.237,3.629-0.116c1.226-0.355,1.663-0.796,1.653-1.865
		c0.048-1.315-0.249-1.658-1.598-1.989c-0.248-0.045-0.551-0.188-0.849-0.182c-0.654-0.09-0.859-0.473-1.021-1.06
		c-0.655-2.959-0.524-5.987-0.891-8.902c-0.127-1.023-0.023-1.026,1.076-1.146c1.194-0.114,2.397,0.169,3.592,0.018
		c1.726-0.151,2.822,0.149,4.544,0.123c0.518,0.012,0.831,0.16,0.721,0.692c-0.62,2.625,0.102,5.658,0.106,8.339
		c0.021,1.903,0.021,1.897-1.83,2.12c-0.706,0.091-0.754,0.091-0.906,0.92c-0.104,0.586-0.104,0.876-0.104,1.415
		c0.043,0.729,0.337,1.657,1.071,1.763c0.485,0.048,0.979,0.105,1.426,0.017c1.863-0.168,3.696-0.509,5.555-0.097
		c1.081,0.045,1.479-0.036,2.054-0.743c0.569-0.606,0.279-1.646,0.097-2.141c-0.041-0.15-0.135-0.3-0.127-0.448
		c-0.166-0.688-0.607-0.952-1.312-0.981c-0.295-0.014-0.594-0.023-0.894-0.082c-1.202-0.092-1.202-0.14-1.161-1.31
		c-0.018-1.072,0.476-2.131,0.252-3.159c-0.449-1.872-0.3-3.967-0.038-5.715c0.411-3.157,0.993-6.286,0.297-9.482
		c-0.048-0.196,0.015-0.486,0.086-0.729c0.187-0.923,0.169-1.897,0.093-2.876c-0.034-0.636-0.067-1.269,0.065-1.901
		c0.419-1.104-0.665-1.637,2.046-1.433c0.604,0.024,1.107-0.001,1.468-0.474C341.395,2.402,341.549,0.593,338.852,0.285z"/>
	<path fill="#FFFFFF" d="M24.446,210.237h-2.25v-78.283h2.25V210.237z M53.877,124.839c3.388,3.427,5.037,7.909,5.037,13.701v65.242
		c0,5.71-1.713,10.29-5.099,13.619c-3.379,3.342-8.132,5.037-14.122,5.037H7.641v2.246h32.053c6.604,0,11.893-1.91,15.704-5.685
		c3.829-3.763,5.771-8.882,5.771-15.218V138.54c0-6.326-1.914-11.465-5.685-15.28L53.877,124.839z M136.933,209.112h-20.471v-77.158
		h-2.25v79.407h22.721V209.112z M149.341,121.89c1.442,1.438,2.145,3.514,2.145,6.346v85.708c0,2.798-0.723,4.932-2.145,6.35
		c-1.447,1.442-3.479,2.146-6.222,2.146h-34.106v2.246h34.106c3.321,0,5.947-0.941,7.811-2.799c1.863-1.852,2.807-4.524,2.807-7.942
		v-85.708c0-3.41-0.943-6.082-2.804-7.938L149.341,121.89z M255.188,222.438h-14v2.246h16.255V118.629h-2.255V222.438z
		 M242.388,168.389c0.038-1.261,0.149-2.465,0.326-3.604c0.147-1.072,0.288-2.178,0.432-3.309l0.123-0.95l-2.209-0.419
		l-13.402,52.716h-7.101v2.248h8.851l11.009-43.289h1.9C242.316,170.786,242.341,169.656,242.388,168.389z M208.473,164.48
		c-0.186-1.341-0.324-2.734-0.411-4.167l-2.252,0.138c0.094,1.489,0.238,2.938,0.432,4.348c0.175,1.164,0.312,2.375,0.4,3.629
		c0.085,1.253,0.132,2.369,0.132,3.354v50.657h-14v2.246h16.251v-52.903c0-1.029-0.047-2.197-0.135-3.509
		C208.798,166.96,208.655,165.689,208.473,164.48z M223.146,177.752c0,0.557,0.049,1.146,0.132,1.581
		c0,0.688,0.051,1.419,0.153,2.209l2.244-0.152c0-0.676,0.041-1.311,0.133-2.057c0-1.007,0.083-1.838,0.243-2.469l-0.739-0.188
		c-0.027-0.145-0.062-0.28-0.101-0.396l-16.494-57.959l-2.169,0.614l16.509,58.003C223.083,177.019,223.146,177.258,223.146,177.752
		z M311.173,222.438h-14.552v2.246h16.804V118.629h-2.252V222.438z M368.698,160.02c-0.183-0.88-0.315-1.76-0.403-2.638
		l-2.242,0.221c0.094,0.954,0.244,1.91,0.446,2.905c0.165,0.691,0.292,1.446,0.382,2.248c0.086,0.837,0.131,1.597,0.131,2.29v57.393
		h-14.277v2.246h16.53v-59.639c0-0.764-0.048-1.601-0.144-2.532C369.016,161.601,368.876,160.753,368.698,160.02z M404.834,222.438
		h-12.58v2.246h14.835V118.629h-2.255V222.438z M392.062,180.301c-0.164-0.663-0.267-1.402-0.308-2.195
		c-0.045-0.847-0.068-1.63-0.068-2.347v-57.13h-2.253v56.188l-21.949-56.597l-2.098,0.812l25.087,64.693l2.15-0.632L392.062,180.301
		z M460.957,222.438h-14.549v2.246h16.801V118.629h-2.252V222.438z M539.793,209.112h-20.468v-77.158h-2.254v79.407h22.722V209.112z
		 M552.2,121.89c1.443,1.438,2.145,3.514,2.145,6.346v85.708c0,2.798-0.719,4.935-2.146,6.35c-1.42,1.423-3.512,2.146-6.213,2.146
		h-34.112v2.246h34.112c3.32,0,5.947-0.941,7.805-2.799c1.863-1.85,2.811-4.522,2.811-7.942v-85.708
		c0-3.411-0.947-6.082-2.811-7.938L552.2,121.89z M611.605,160.015c-0.183-0.879-0.311-1.755-0.396-2.629l-2.244,0.216
		c0.094,0.955,0.237,1.914,0.441,2.906c0.168,0.688,0.295,1.439,0.384,2.247c0.081,0.834,0.122,1.598,0.122,2.291v57.393h-14.267
		v2.246h16.519v-59.639c0-0.762-0.041-1.6-0.132-2.524C611.931,161.604,611.785,160.759,611.605,160.015z M634.972,180.306
		c-0.165-0.67-0.271-1.413-0.317-2.195c-0.045-0.849-0.059-1.633-0.059-2.352h-1.891l-22.316-57.538l-2.101,0.812l25.09,64.693
		l2.157-0.623L634.972,180.306z M647.748,118.629v103.81h-12.59v2.246H650V118.629H647.748z"/>
	<path fill="#CCAF2D" d="M46.971,210.571c-3.623,3.57-8.595,5.353-14.922,5.353H0V110.99h32.049c6.414,0,11.413,1.811,14.993,5.426
		c3.574,3.619,5.362,8.45,5.362,14.49v65.239C52.404,202.192,50.592,206.996,46.971,210.571z M36.589,133.137
		c0-2.85-0.828-5.033-2.477-6.547c-1.652-1.515-3.897-2.277-6.738-2.277H15.677v78.29H26.96c3.205,0,5.614-0.802,7.221-2.409
		c1.604-1.609,2.408-3.791,2.408-6.548V133.137z"/>
	<path fill="#CCAF2D" d="M142.497,213.452c-1.649,1.652-3.991,2.472-7.017,2.472h-34.11c-6.236,0-9.352-3.202-9.352-9.608v-85.71
		c0-6.41,3.115-9.615,9.352-9.615h34.11c3.025,0,5.367,0.824,7.017,2.469c1.65,1.65,2.477,4.033,2.477,7.146v85.71
		C144.974,209.427,144.147,211.806,142.497,213.452z M129.292,124.312h-21.593v78.29h21.593V124.312z"/>
	<path fill="#CCAF2D" d="M233.551,215.924v-51.777c0-1.009,0.021-2.15,0.068-3.436c0.044-1.28,0.158-2.517,0.346-3.706
		c0.18-1.375,0.361-2.792,0.551-4.26l-13.619,53.57h-7.98l-13.616-53.57c0.093,1.468,0.228,2.885,0.413,4.26
		c0.184,1.189,0.319,2.426,0.414,3.706c0.091,1.285,0.138,2.427,0.138,3.436v51.777h-15.131V110.99h14.855l16.509,57.963
		c0.085,0.275,0.135,0.667,0.135,1.167c0,0.503,0.044,1.032,0.138,1.58c0,0.642,0.045,1.329,0.138,2.061
		c0-0.731,0.042-1.419,0.137-2.061c0-1.099,0.091-2.015,0.276-2.747l16.506-57.963h14.852v104.934H233.551z"/>
	<path fill="#CCAF2D" d="M288.979,215.924V110.99h15.683v104.934H288.979z"/>
	<path fill="#CCAF2D" d="M384.62,215.924l-25.083-66.062c0.092,0.916,0.227,1.835,0.416,2.748c0.182,0.733,0.322,1.532,0.414,2.401
		c0.087,0.87,0.135,1.674,0.135,2.405v58.508h-15.404V110.99h13.705l25.079,64.691c-0.186-0.912-0.368-1.828-0.549-2.745
		c-0.186-0.733-0.297-1.531-0.341-2.402c-0.051-0.871-0.072-1.669-0.072-2.404v-57.14h15.406v104.934H384.62z"/>
	<path fill="#CCAF2D" d="M438.762,215.924V110.99h15.684v104.934H438.762z"/>
	<path fill="#CCAF2D" d="M545.359,213.452c-1.648,1.652-3.989,2.472-7.015,2.472h-34.109c-6.235,0-9.354-3.202-9.354-9.608v-85.71
		c0-6.41,3.118-9.615,9.354-9.615h34.109c3.025,0,5.366,0.824,7.015,2.469c1.647,1.65,2.475,4.033,2.475,7.146v85.71
		C547.834,209.427,547.007,211.806,545.359,213.452z M532.156,124.312h-21.594v78.29h21.594V124.312z"/>
	<path fill="#CCAF2D" d="M627.521,215.924l-25.081-66.062c0.093,0.916,0.228,1.835,0.411,2.748c0.183,0.733,0.32,1.532,0.412,2.401
		c0.091,0.87,0.142,1.674,0.142,2.405v58.508h-15.405V110.99h13.703l25.086,64.691c-0.186-0.912-0.372-1.828-0.555-2.745
		c-0.184-0.733-0.297-1.531-0.342-2.402c-0.044-0.871-0.068-1.669-0.068-2.404v-57.14h15.403v104.934H627.521z"/>
	<path fill="#FFFFFF" d="M295.327,2.631c0.271,2.187,0.542,4.47,0.383,6.701c-0.048,0.631-0.252,1.276-0.124,1.988
		c0.213,1.084-0.566,1.835-1.773,2.014c-0.832,0.183-1.919-0.465-2.132-1.357c-0.193-0.745-0.229-1.515-0.264-2.282
		c0.021-0.775-0.118-1.485-0.312-2.232c-0.293-1.124-0.473-1.252-1.739-1.242c-0.328-0.01-0.652,0.032-0.973,0.118
		c-1.922,0.481-2.087,0.511-1.998,2.387c0.035,1.493,0.185,3.019,0.183,4.567c0.002,0.433,0.061,0.859,0.226,1.272
		c1.125,3.237,1.158,6.663,1.61,10.034c0.124,0.902,0.394,1.785,0.505,2.639c0.244,1.435,0.485,2.868,0.73,4.301
		c0.19,1.088,0.296,1.121,1.438,1.118c1.638-0.015,2.84,1.441,2.437,2.984c-0.164,0.695-0.746,1.102-1.463,1.241
		c-3.136,0.637-5.472,1.312-8.705,1.301c-1.08-0.018-1.417-0.249-1.601-1.338c-0.038-0.232-0.13-0.463-0.121-0.706
		c-0.234-1.369,0.584-2.143,2.051-2.328c2.004-0.265,1.444-0.368,0.955-2.234c-0.188-0.552-0.17-2.106-0.814-4.965
		c-0.849-3.843-1.354-7.74-1.687-11.663c-0.176-2.205-0.987-4.309-1.698-6.381c-0.179-0.459-0.462-0.852-1.001-0.763
		c-0.65,0.102-2.593,0.082-2.976,0.777c-0.343,0.596-0.322,1.322-0.325,1.956c-0.023,1.121,0.441,2.209,0.531,3.362
		c-0.011,0.244,0.355,2.067-1.828,2.223c-1.392,0.353-1.971-0.12-2.204-1.344c-0.211-2.255-0.67-4.411-1.363-6.572
		c-0.763-2.534-0.275-3.227,2.695-3.664c2.81-0.403,6.698-0.638,9.438-1.408c0.435-0.109,0.889-0.073,1.331-0.085
		c1.676-0.014,7.459-1.084,7.944-1.261c0.698-0.219,1.454,0.04,2.133,0.168C295.213,2.063,295.243,2.349,295.327,2.631z"/>
	<path fill="#FFFFFF" d="M378.162,4.527c-1.293-0.145-2.484-0.562-3.767-0.742c-2.173-0.301-4.258-0.858-6.466-0.913
		c-0.729-0.035-1.441-0.212-2.164-0.386c-2.143-0.569-4.396-0.831-6.637-0.289c-0.29,0.074-0.679,0.042-0.768,0.421
		c-0.116,0.719-0.67,1.259-0.782,2.026c-0.104,0.574-0.017,0.921,0.577,1.113c1.738,0.577,2.01,1.772,2.002,3.134
		c0.077,3.358-0.33,6.626-0.268,9.983c0.126,3.754-0.445,7.489-1.15,11.215c-0.201,1.1-0.535,1.457-1.707,1.599
		c-0.758,0.083-0.943,0.457-1.338,1.058c-0.672,0.865-0.635,1.745,0.016,2.814c0.658,0.977,0.848,1.087,2.141,0.909
		c0.751-0.074,1.511-0.249,2.3-0.219c1.684,0.021,3.263,0.532,4.989,0.591c1.834,0.026,3.666,0.462,5.424,1.053
		c1.438,0.396,3.164-0.502,3.549-1.914c0.537-1.78,0.836-3.641,0.977-5.481c0.086-0.87-0.318-1.224-0.904-1.46
		c-0.687-0.252-1.925-0.631-2.623-0.094c-0.637,0.449-0.838,1.154-0.58,2.216c0.127,0.557-0.474,1.155-0.515,1.833
		c-0.028,0.534-1.446,0.927-2.092,0.89c-1.539-0.2-3.022-1.256-4.594-1.194c-0.66,0.026-0.985-0.203-0.956-0.928
		c0.332-3.03,0.258-6.107,0.994-9.044c0.257-0.898,0.318-0.939,1.242-0.74c0.973,0.205,1.832,0.504,1.97,1.546
		c0.1,0.499,0.032,1.026,0.571,1.289c1.78,0.803,2.537,0.132,3.146-1.594c0.015-0.099,0.029-0.193,0.04-0.288
		c0.855-1.984,0.729-4.057,0.632-6.169c-0.058-0.737-0.375-1.172-1.233-1.284c-0.854-0.113-1.067-0.131-1.82,0.263
		c-0.7,0.401-0.462,1.113-0.536,1.738c-0.078,0.619-0.287,0.988-1.13,0.889c-1.046-0.174-1.93-0.414-1.838-1.231
		c0.119-1.544,0.292-3.086,0.464-4.624c0.037,0.005,0.069,0.009,0.103,0.013c0.172-1.488,0.398-3.024,0.46-4.574
		c0.078-0.723,0.397-1.563,1.172-1.481c1.164,0.084,2.512,0.493,3.575,0.526c1.887,0.096,2.971,0.786,3.364,2.354
		c0.154,0.462-0.176,0.807-0.113,1.16c-0.104,0.374-0.052,0.382-0.082,0.573c-0.305,0.594,0.147,1.682,0.648,1.998
		c1.014,0.587,2.36,0.395,3.119-0.22c0.747-0.86,0.622-0.732,0.688-1.852c0.155-1.69,0.921-3.333,1.095-5.072
		C379.37,5.159,378.94,4.602,378.162,4.527z"/>
</g>
</svg>
