<?xml version="1.0" encoding="utf-8"?>
<!-- Generator: Adobe Illustrator 16.0.0, SVG Export Plug-In . SVG Version: 6.00 Build 0)  -->
<!DOCTYPE svg PUBLIC "-//W3C//DTD SVG 1.1//EN" "http://www.w3.org/Graphics/SVG/1.1/DTD/svg11.dtd">
<svg version="1.1" id="Layer_1" xmlns="http://www.w3.org/2000/svg" xmlns:xlink="http://www.w3.org/1999/xlink" x="0px" y="0px"
	 width="100px" height="70px" viewBox="0 0 100 70" enable-background="new 0 0 100 70" xml:space="preserve">
<path fill="#CCAF2D" d="M30.378,19.761l-3.534,2.487c-0.526,0.342-0.557,0.368-0.729,0.54c-0.17,0.17-0.256,0.418-0.256,0.742
	v23.072c0,0.323,0.052,0.565,0.259,0.691c0.19,0.114,0.216,0.178,0.716,0.496l3.537,2.453c0.646,0,0.976-0.215,0.976-0.883V20.762
	C31.347,20.095,31.023,19.761,30.378,19.761z M29.723,47.729l-2.238-1.514V23.917l2.238-1.55V47.729z M42.124,11.531l1.542-1.069
	l-0.029,49.044l-1.562-1.084l-0.006-41.795c0-0.106,0.002-0.227,0.007-0.361c0.005-0.135,0.017-0.264,0.036-0.39
	c0.02-0.145,0.039-0.294,0.059-0.448l-3.01,10.65h-0.835l-1.427-5.633c0.012,0.154,0.024,0.304,0.045,0.448
	c0.018,0.126,0.033,0.255,0.043,0.389C36.996,21.416,37,21.536,37,21.643v33.192l-1.584-1.118l0.021-37.547l1.287-0.868l1.975,6.847
	c0.01,0.028,0.015,0.069,0.015,0.122c0,0.053,0.005,0.11,0.014,0.167c0,0.067,0.005,0.14,0.015,0.215
	c0-0.075,0.005-0.148,0.014-0.215c0-0.116,0.011-0.212,0.029-0.289L42.124,11.531z M19.664,27.111l-3.367,2.335V40.55l3.372,2.339
	c0.667,0,1.19-0.188,1.571-0.566c0.382-0.378,0.572-0.887,0.572-1.524V29.189c0-0.64-0.188-1.15-0.564-1.532
	C20.871,27.275,20.34,27.111,19.664,27.111z M19.938,40.817c-0.189,0.146-0.393,0.229-0.805,0.012l-1.187-0.779V29.907l1.249-0.913
	c0.299,0,0.535,0.079,0.709,0.239c0.174,0.162,0.261,0.392,0.261,0.694l-0.019,9.878C20.146,40.098,20.209,40.61,19.938,40.817z
	 M64.629,53.708l-1.652,1.152V15.151l1.652,1.123V53.708z M53.424,8.464l1.429,1.098c0,0,2.411,29.3,2.413,30.072
	c0,0.09,0.107-28.431,0.107-28.431l1.512,1.048l0.03,45.474l-1.251,0.869L54.988,29.8c0.009,0.096,0.039,30.662,0.039,30.662
	l-1.588,0.997l-0.016-26.503V8.464z M50.426,0h-0.851L0,34.384v1.233L49.576,70h0.849L100,35.617v-1.233L50.426,0z M50,68.471
	L1.74,35L50,1.527L98.262,35L50,68.471z M47.688,7.652l1.66-1.156v56.998l-1.66-1.176V7.652z M69.645,50.273l3.548-2.462
	c0.5-0.316,0.526-0.38,0.717-0.496c0.208-0.127,0.259-0.368,0.259-0.693V23.489c0-0.324-0.086-0.574-0.256-0.746
	c-0.172-0.171-0.203-0.199-0.73-0.542l-3.543-2.493c-0.648,0-0.971,0.334-0.971,1.004v28.674
	C68.668,50.055,68.998,50.273,69.645,50.273z M70.296,22.321l2.244,1.555v22.36l-2.244,1.517V22.321z M79.83,43.221l-1.622,1.147
	V25.605l1.22,0.874l2.864,9.739c-0.02-0.096-0.039-0.193-0.058-0.29c-0.022-0.078-0.033-0.163-0.037-0.255s-0.007-0.177-0.007-0.254
	v-6.95l1.624,1.075v10.931l-1.119,0.779l-2.96-8.878C79.744,32.474,79.83,43.221,79.83,43.221z"/>
</svg>
