<?xml version="1.0" encoding="utf-8"?>
<!-- Generator: Adobe Illustrator 16.0.0, SVG Export Plug-In . SVG Version: 6.00 Build 0)  -->
<!DOCTYPE svg PUBLIC "-//W3C//DTD SVG 1.1//EN" "http://www.w3.org/Graphics/SVG/1.1/DTD/svg11.dtd">
<svg version="1.1" id="Layer_1" xmlns="http://www.w3.org/2000/svg" xmlns:xlink="http://www.w3.org/1999/xlink" x="0px" y="0px"
	 width="630px" height="338px" viewBox="0 0 630 338" enable-background="new 0 0 630 338" xml:space="preserve">
<g>
	<g>
		<path fill-rule="evenodd" clip-rule="evenodd" fill="#FFFFFF" d="M306.37,236.329c-0.296-0.729-0.573-1.333-0.844-1.804
			c-0.261-0.473-0.421-0.694-0.479-0.694c-0.112,0.005-0.304,0.222-0.589,0.654c-0.28,0.439-0.521,0.87-0.709,1.296l-1.03,2.418
			c-0.471,1.015-0.587,1.604-0.362,1.78c0.225,0.185,1.121,0.169,2.706-0.027l2.163-0.245l-0.261-1.443
			C306.855,237.711,306.657,237.063,306.37,236.329z"/>
		<path fill-rule="evenodd" clip-rule="evenodd" fill="#FFFFFF" d="M348.242,233.105c-7.59-5.65-14.785-11.928-22.523-17.597
			c-3.395-2.481-5.15-5.926-11.118-6.01c-0.933,0.351-1.872,0.686-2.803,1.034c-2.724,1.639-4.369,3.872-7.699,5.162
			c0.112,0.225,0.228,0.461,0.34,0.699l-0.351-0.006c-3.125,3.111-7.235,5.337-10.873,7.921c-3.832,2.697-7.403,6.245-11.243,8.956
			c-3.267,2.324-7.692,3.333-7.74,8.992c7.002,7.146,16.901,11.926,25.319,17.619c4.054,2.745,8.564,7.32,13.524,8.807
			c4.85,1.451,9.08-2.804,11.561-4.431c7.756-5.123,14.547-10.394,22.439-15.841c2.332-1.607,6.674-3.055,8.061-5.505
			C357.947,237.911,350.465,234.762,348.242,233.105z M315.312,248.327c-0.315,0.679-0.799,1.071-1.491,1.179
			c-0.448,0.086-0.773,0.025-0.998-0.183c-0.235-0.198-0.647-0.857-1.252-1.966c-0.868-1.554-1.325-2.536-1.354-2.976
			c-0.067-0.638-0.414-1.036-1.037-1.176c-0.633-0.125-1.999-0.073-4.098,0.163c-1.701,0.176-2.884,0.357-3.566,0.567
			c-0.678,0.187-1.206,0.487-1.577,0.894c-0.364,0.414-0.77,1.137-1.208,2.172c-0.744,1.743-1.389,2.884-1.973,3.419
			c-0.583,0.547-1.17,0.551-1.738,0.041c-0.456-0.416-0.61-1.019-0.456-1.818c0.148-0.788,0.659-2.179,1.543-4.161l1.221-2.84
			c0.214-0.573,0.737-1.775,1.553-3.588c0.82-1.822,1.41-3.256,1.796-4.32c0.225-0.571,0.459-1.052,0.704-1.428
			c0.251-0.365,0.443-0.632,0.591-0.767c0.142-0.147,0.202-0.281,0.19-0.393c-0.014-0.206,0.23-0.816,0.755-1.836
			c0.355-0.691,0.657-1.142,0.887-1.319c0.237-0.176,0.655-0.295,1.278-0.335c0.795-0.048,1.381,0.034,1.757,0.257
			c0.369,0.222,0.584,0.635,0.637,1.219c0.028,0.257,0.136,0.56,0.333,0.885c0.197,0.331,0.603,1.13,1.226,2.4
			c0.621,1.273,1.318,2.938,2.083,4.977c0.696,1.819,1.367,3.42,2,4.811c0.627,1.387,1.096,2.358,1.415,2.897
			c0.312,0.546,0.569,1.021,0.765,1.458c0.19,0.426,0.287,0.739,0.272,0.934C315.567,247.681,315.479,247.961,315.312,248.327z
			 M335.434,230.691c-0.152,0.511-0.5,0.872-1.059,1.103c-0.578,0.228-1.652,0.339-3.197,0.318c-1.561-0.013-2.445,0.141-2.705,0.46
			c-0.256,0.32-0.43,3.403-0.535,9.251l-0.184,8.785l-1.199-0.024c-0.527-0.01-0.893-0.072-1.096-0.227
			c-0.205-0.147-0.416-0.479-0.639-1.014c-0.246-0.528-0.383-1.286-0.418-2.263c-0.029-0.98,0.004-3.061,0.125-6.258
			c0.123-4.174,0.109-6.637-0.051-7.371c-0.221-0.787-0.729-1.242-1.525-1.378c-0.307-0.021-0.998-0.047-2.068-0.056
			c-1.811-0.015-2.906-0.154-3.328-0.435c-0.432-0.233-0.676-0.759-0.689-1.562c-0.018-0.805,0.195-1.347,0.639-1.638
			c0.389-0.224,3.344-0.319,8.852-0.27l8.223,0.079l0.576,0.888C335.484,229.641,335.574,230.176,335.434,230.691z"/>
	</g>
	<path fill="#FFFFFF" d="M122.116,288.4c-0.312-0.814-0.931-0.881-1.188-0.873c-0.107,0.005-0.219,0.018-0.347,0.051
		c-0.528,0.163-1.041,0.557-1.565,1.239c-0.817,1.066-2.06,1.809-3.687,2.208c-1.709,0.428-5.088,0.794-10.042,1.094
		c-1.848,0.094-3.133,0.209-3.799,0.337c-0.675,0.133-1.348,0.411-1.984,0.817c-1.54,0.932-2.65,2.133-3.289,3.564
		c-0.658,1.459-0.771,2.903-0.309,4.294c0.464,1.387,1.44,2.489,2.917,3.259c1.127,0.6,2.354,0.89,3.633,0.855h0.106
		c1.266-0.041,2.341-0.41,3.218-1.096c0.759-0.649,1.167-1.242,1.249-1.831c0.083-0.626-0.217-1.27-0.877-1.89
		c-0.627-0.642-1.447-0.996-2.444-1.06c-0.985-0.075-1.842,0.205-2.531,0.786c-0.54,0.474-0.802,0.555-0.878,0.555
		c-0.065,0.01-0.225-0.081-0.43-0.315c-0.449-0.548-0.4-1.489,0.155-2.797c0.37-0.929,0.904-1.542,1.628-1.886
		c0.761-0.368,2.012-0.53,3.65-0.455c0.459,0.022,0.792,0.036,0.99,0.036c0.191,0.012,0.428,0.031,0.738,0.076l0.245,0.022
		c0.188,0.021,0.317,0.041,0.379,0.051c0,0,0.066,0.017,0.208,0.117c0.131,0.103,0.229,0.165,0.233,0.165
		c0.016,0.03,0.055,0.109,0.124,0.31c0.099,0.282,0.132,0.428,0.14,0.487c0.02,0.097,0.032,0.279,0.048,0.534l0.017,0.246
		c0.025,0.408,0.045,0.748,0.048,1.014l0.046,1.285c0.007,2.231-0.026,3.625-0.111,4.146c-0.064,0.39-0.224,0.62-0.51,0.756
		c-0.622,0.308-0.964,0.877-0.979,1.592c-0.015,0.673,0.248,1.286,0.786,1.814c0.174,0.166,0.267,0.339,0.31,0.536
		c0.021,0.164,0.054,0.64-0.011,1.956c-0.026,1.121-0.041,2.238-0.046,3.352c-0.012,1.334-0.025,1.869-0.034,2.077
		c-0.026,0.235-0.084,0.516-0.2,0.821c-0.104,0.309-0.35,0.723-0.707,1.222c-0.806,1.195-0.97,1.557-1.023,1.778
		c-0.106,0.418,0.061,0.848,0.513,1.335c0.253,0.211,0.572,0.327,0.912,0.327c0.068,0.013,0.132,0.013,0.202,0.013
		c0.254-0.013,0.551-0.059,0.918-0.145c0.379-0.104,0.774-0.222,1.182-0.355c0.386-0.128,0.895-0.262,1.529-0.435
		c0.589-0.156,1.185-0.283,1.775-0.375l0.126-0.02c0.163-0.032,0.312-0.063,0.452-0.102c0.771-0.178,1.661-0.48,1.727-1.206
		c0.077-0.777-0.876-1.201-1.286-1.39c-0.529-0.227-0.823-0.535-0.922-0.939c-0.305-1.191-0.236-4.953,0.204-11.182
		c0.607-8.623,1.083-9.839,1.212-10.016c0.146-0.197,0.629-0.624,2.201-1.265c1.868-0.777,3.295-1.627,4.249-2.512
		C122.071,290.365,122.452,289.356,122.116,288.4z"/>
	<path fill="#FFFFFF" d="M147.223,315.161c-0.251-0.192-0.701-0.452-1.361-0.772l-0.386-0.168l0.055-6.851
		c0.018-3.881,0.087-6.719,0.218-9.21c0.142-2.658,0.235-3.456,0.289-3.661c0.059-0.288,0.192-0.594,0.399-0.922
		c0.554-0.868,0.658-1.205,0.692-1.416c0.047-0.281,0-0.723-0.479-1.194c-0.357-0.4-1.025-0.635-2.108-0.733
		c-0.249-0.018-0.473-0.019-0.663-0.019h-0.107c-0.428,0.001-0.932,0.056-1.195,0.43c-0.134,0.041-0.629,0.167-2.263,0.196
		c-2.354,0.037-2.97,0.347-3.279,0.638c-0.278,0.291-0.536,0.597-0.469,0.996c0.038,0.262,0.204,0.455,0.702,0.861
		c0.48,0.37,1.139,0.62,1.94,0.736c0.414,0.096,0.704,0.17,0.887,0.249c0.157,0.07,0.309,0.164,0.445,0.29
		c0.03,0.029,0.116,0.16,0.165,0.509c0.052,0.415,0.099,0.879,0.131,1.374c0.032,0.509,0.052,1.291,0.075,2.331
		c0.048,2.64-0.01,3.108-0.13,3.916c-0.018,0.072-0.035,0.142-0.067,0.232l-0.009,0.075c-0.155,0.907-0.378,1.045-0.432,1.074
		c-0.06,0.027-0.419,0.175-2.104,0.201c-0.708,0.005-1.596,0.005-2.628-0.022c-3.874-0.125-4.562-0.33-4.657-0.4
		c0,0-0.141-0.14-0.188-0.801c-0.051-0.59-0.053-0.756-0.043-2.974c0-1.245,0.008-2.164,0.026-2.752
		c0.007-0.483,0.032-0.939,0.046-1.381l0.019-0.294c0.035-0.574,0.125-0.788,0.167-0.861c0.107-0.187,0.233-0.366,0.361-0.525
		c0.068-0.083,0.233-0.249,0.647-0.521c0.933-0.676,0.958-1.531,0.815-2.14c-0.203-0.822-0.771-1.281-1.644-1.281l0,0l-0.134,0.014
		c-0.38,0.033-1.212,0.192-2.703,0.507c-2.041,0.437-2.381,0.608-2.569,0.747c-0.291,0.235-0.605,0.676-0.464,1.482
		c0.084,0.535,0.347,1.051,0.768,1.531l0.515,0.642l0.09,8.97c0.057,5.008,0.061,7.963,0.023,9.009
		c-0.045,1.437-0.206,1.964-0.295,2.145c-0.623,1.287-0.601,2.218,0.059,2.757c0.389,0.322,1.033,0.478,1.968,0.478h0.148
		c0.345-0.009,0.725-0.031,1.134-0.073c1.977-0.269,2.504-0.646,2.753-0.979c0.303-0.398,0.387-0.781,0.259-1.135
		c-0.079-0.2-0.242-0.454-0.816-1.027c-0.348-0.383-0.568-0.695-0.645-0.938c-0.048-0.181-0.166-0.692-0.315-2.156
		c-0.154-1.79-0.106-3.125-0.023-3.377c0.046-0.177,0.157-0.392,0.591-0.504c0.666-0.173,2.097-0.242,4.66-0.242
		c3.72,0.002,4.201,0.149,4.213,0.149c0.085,0.061,0.149,0.192,0.177,0.388c0.048,0.307,0.106,1.665,0.129,3.022
		c0.018,1.251,0.003,2.079-0.041,2.468c-0.046,0.317-0.209,0.708-0.475,1.108c-0.57,0.891-0.711,1.604-0.396,2.19
		c0.213,0.373,0.594,0.599,1.114,0.682c0.408,0.073,1.167,0.073,2.345,0.019c3.19-0.136,4.595-0.75,4.576-2.011
		C147.717,315.798,147.544,315.43,147.223,315.161z"/>
	<path fill="#FFFFFF" d="M173.092,312.237c-0.468-0.507-1.166-0.554-1.973-0.127c-0.657,0.354-1.251,0.889-1.772,1.588
		c-0.484,0.67-0.943,1.13-1.377,1.344c-0.42,0.215-0.775,0.274-1.058,0.268c-0.333-0.039-0.786-0.092-1.373-0.153l-0.464-0.048
		c-0.825-0.083-1.683-0.088-2.484-0.021l-0.224,0.015c-0.895,0.021-1.359-0.14-1.457-0.298c-0.074-0.129-0.334-0.944-0.302-3.762
		c0.03-2.306,0.225-3.04,0.329-3.266c0.046-0.075,1.933-0.312,2.623-0.312c0.073,0,0.152,0.002,0.251,0.01
		c0.235,0.009,0.375,0.027,0.446,0.04c0.034,0.108,0.087,0.36,0.135,0.896c0.089,1.005,0.233,1.331,0.362,1.515
		c0.146,0.233,0.45,0.51,1.037,0.51h0.086c0.424-0.021,0.808-0.236,1.15-0.634c0.267-0.327,0.54-0.856,0.854-1.664
		c0.66-1.532,1.143-2.9,1.438-4.066c0.355-1.404,0.348-2.198-0.009-2.639c-0.381-0.477-0.815-0.709-1.292-0.709
		c-0.757,0-1.545,0.607-2.326,1.796c-0.614,0.885-0.854,1.028-0.86,1.036c-0.035,0.014-0.222,0.079-0.822,0.107
		c-0.155,0.006-0.346,0.015-0.522,0.015l-2.914-0.023l-0.092-3.176c-0.023-2.578,0.082-4.277,0.335-5.032l0.293-0.834l6.058-0.451
		l0.199,0.48c0.233,0.633,0.651,1.313,1.233,2.022c0.687,0.805,1.175,1.155,1.689,1.155l0,0c0.38-0.014,0.901-0.233,1.254-1.16
		c0.215-0.555,0.444-1.549,0.7-3.021c0.451-2.47,0.346-3.252,0.035-3.673c-0.354-0.413-0.747-0.615-1.203-0.615h-0.092
		c-0.24,0.033-0.704,0.163-2.187,0.844c-0.709,0.313-1.452,0.507-2.221,0.581c-0.271,0.01-0.639,0.038-1.124,0.067
		c-0.98,0.046-2.378,0.086-4.152,0.12c-3.989,0.053-6.373,0.057-7.078,0.012h-0.185c-0.568,0-0.901,0.104-1.118,0.34
		c-0.226,0.255-0.302,0.64-0.276,1.337c0.032,0.594,0.158,1.007,0.387,1.281c0.213,0.274,0.599,0.479,1.296,0.722
		c0.454,0.131,0.612,0.212,0.727,0.26c0.471,0.175,0.754,0.458,0.876,0.88c0.125,0.47,0.297,2.268,0.364,8.188
		c0.024,2.623,0.017,4.903-0.022,6.599c-0.022,1.593-0.105,2.866-0.243,3.81c-0.161,1.162-0.364,1.561-0.477,1.69
		c-0.146,0.186-0.342,0.281-0.614,0.29c-0.573,0.025-1.037,0.295-1.414,0.807c-0.509,0.704-0.389,1.32-0.282,1.6
		c0.21,0.64,0.995,0.728,1.876,0.728l0,0c0.81-0.004,1.839-0.06,3.075-0.169c1.167-0.104,2.377-0.196,3.61-0.291l0.117-0.008
		c1.247-0.097,2.507-0.142,3.734-0.113c1.159,0.006,2.103,0.094,2.727,0.246c0.793,0.235,1.331,0.345,1.694,0.345h0.112h0.003
		c0.384-0.014,0.764-0.143,1.12-0.364c0.542-0.333,0.917-0.758,1.125-1.263c0.176-0.417,0.387-1.289,0.696-2.738
		C173.502,313.22,173.394,312.604,173.092,312.237z"/>
	<path fill="#FFFFFF" d="M195.656,275.283c3.131-0.472,9-0.665,17.607-0.568c8.619,0.104,14.427,0.432,17.425,0.984
		c5.295,1.034,9.097,2.704,11.383,5.047c1.475,1.438,1.808,3.863,1.014,7.258c-0.803,3.399-2.283,5.895-4.46,7.465
		c-2.167,1.581-3.725,2.834-4.688,3.766c-0.95,0.922-1.301,1.597-1.048,2.012c0.255,0.472,0.907,0.938,1.959,1.381
		c1.058,0.454,2.043,0.98,2.972,1.596c0.92,0.621,1.746,1.462,2.435,2.533c0.708,1.059,0.892,2.704,0.574,4.939
		c-0.316,2.23-1.234,4.925-2.77,8.082c-2.05,4.259-2.997,7.495-2.872,9.684c0.126,2.208,1.372,3.64,3.733,4.32
		c2.808,0.761,5.61,0.074,8.419-2.061c1.529-1.164,2.167-2.315,1.916-3.44c-0.255-1.136-1.367-1.971-3.353-2.524
		c-2.166-0.548-2.772-1.924-1.813-4.123c0.828-1.99,2.214-3.225,4.159-3.713c1.945-0.467,4.069-0.099,6.366,1.135
		c0.77,0.424,1.252,0.855,1.441,1.337c0.193,0.481,0.286,1.41,0.286,2.786c0,3.845-1.632,7.484-4.885,10.914
		c-1.594,1.719-2.996,2.782-4.213,3.203c-1.212,0.408-3.375,0.608-6.506,0.608c-3.445,0-5.959-0.254-7.56-0.77
		c-1.598-0.515-2.912-1.462-3.925-2.836c-1.338-1.845-2.186-3.711-2.539-5.552c-0.352-1.863-0.397-3.525-0.146-5.002
		c0.258-1.477,0.579-3.5,0.963-6.08c0.383-2.569,0.573-4.991,0.573-7.256c0-2.134-0.097-3.44-0.292-3.916
		c-0.184-0.487-0.826-0.96-1.911-1.443c-1.726-0.751-4.134-1.093-7.225-1.032c-3.097,0.073-5.121,0.526-6.079,1.341
		c-0.639,0.552-1.052,1.323-1.24,2.317c-0.2,0.996-0.355,3.452-0.485,7.367c-0.125,4.183-0.125,6.727,0,7.622
		c0.129,0.895,0.608,1.814,1.438,2.774c1.209,1.309,1.727,2.52,1.537,3.608c-0.139,0.964-0.645,1.477-1.537,1.54
		c-0.896,0.075-2.297,0.021-4.218-0.152c-1.907-0.158-4.398,0.122-7.459,0.876c-2.811,0.762-4.498,0.864-5.068,0.309
		c-0.838-0.751-1.013-1.623-0.529-2.624c0.469-0.99,1.54-1.945,3.202-2.827l3.258-1.749l0.953-18.34l-1.908-2.472
		c-1.22-1.51-1.809-2.483-1.775-2.931c0.035-0.449,0.814-1.228,2.354-2.317c1.265-0.963,2.109-2.232,2.528-3.813
		c0.416-1.581,0.621-4.562,0.621-8.956c0.07-3.501-0.205-5.592-0.815-6.279c-0.605-0.686-2.283-0.907-5.026-0.626
		c-1.521,0.146-2.678,0.346-3.443,0.626c-0.767,0.267-1.46,0.788-2.107,1.535c-0.83,0.829-1.258,1.378-1.292,1.645
		c-0.03,0.285,0.245,0.761,0.819,1.441c0.825,0.969,1.5,1.458,2.005,1.458c0.634,0,1.295,0.594,1.968,1.794
		c0.667,1.206,0.941,2.245,0.807,3.135c-0.19,1.303-1.048,2.236-2.579,2.791c-1.536,0.547-3.238,0.613-5.12,0.202
		c-1.884-0.415-3.401-1.204-4.551-2.371c-1.15-1.311-1.723-2.646-1.723-4.014c0-1.377,0.639-3.094,1.919-5.149
		c1.273-2.126,2.584-3.622,3.925-4.489C190.397,276.433,192.591,275.773,195.656,275.283z M230.115,283.011
		c-1.083-1.021-3.601-2.109-7.557-3.243c-3.963-1.13-6.48-1.292-7.567-0.457c-0.893,0.748-1.567,3.908-2.004,9.463
		c-0.45,5.573-0.291,8.758,0.478,9.586c0.575,0.68,1.793,0.961,3.68,0.83c1.879-0.15,3.621-0.583,5.223-1.355
		c3.501-1.707,6.104-4.178,7.802-7.416C231.85,287.196,231.841,284.729,230.115,283.011z"/>
	<path fill="#FFFFFF" d="M271.438,279.5c1.15-0.856,3.36-1.81,6.63-2.884c3.28-1.068,6.827-1.684,10.651-1.834
		c3.837-0.152,6.547,0.581,8.153,2.163c1.261,1.309,2.432,2.917,3.521,4.845c1.087,1.923,1.816,3.638,2.191,5.147
		c0.481,1.938,1.034,3.152,1.655,3.642c0.612,0.504,1.894,0.669,3.826,0.508c1.938-0.156,3.253-0.025,3.928,0.395
		c0.669,0.429,1.069,1.341,1.183,2.733c0.075,0.889-0.165,1.721-0.705,2.505c-0.552,0.779-1.833,2.185-3.837,4.196
		c-2.185,2.224-3.533,3.721-4.048,4.5c-0.512,0.779-0.811,1.873-0.884,3.29c-0.211,3.661-1.157,7.172-2.827,10.536
		c-1.683,3.367-3.811,6.116-6.39,8.242c-1.92,1.562-4.365,2.896-7.36,4.006c-2.968,1.099-5.426,1.61-7.359,1.511
		c-1.347-0.076-2.631-0.299-3.847-0.647c-1.214-0.351-2.278-0.727-3.21-1.132c-0.938-0.402-1.865-0.992-2.781-1.784
		c-0.942-0.786-1.697-1.44-2.285-1.963c-0.589-0.527-1.228-1.361-1.931-2.48c-0.7-1.125-1.234-1.979-1.598-2.55
		c-0.373-0.582-0.854-1.533-1.444-2.86c-0.581-1.323-0.978-2.219-1.173-2.683c-0.199-0.46-0.579-1.381-1.139-2.74
		c-0.712-1.723-1.175-2.834-1.376-3.335c-0.202-0.489-0.327-1.079-0.383-1.748c-0.052-0.663,0.009-1.107,0.175-1.356
		c0.169-0.235,0.415-0.958,0.741-2.166c0.312-1.209,0.594-2.621,0.848-4.244C261.915,291.342,265.606,284.078,271.438,279.5z
		 M279.663,309.417c-1.839-0.485-3.524-0.749-5.059-0.778c-1.541-0.041-2.522,0.166-2.932,0.569c-0.23,0.342-0.199,2.227,0.08,5.654
		c0.255,3.108,0.906,5.789,1.957,8.042c1.048,2.237,2.372,3.687,3.954,4.321c7.426,3.105,12.616-0.299,15.583-10.187
		c0.701-2.422,1.076-3.94,1.117-4.549c0.051-0.613-0.211-1.182-0.765-1.713c-0.675-0.518-1.662-0.783-2.937-0.762
		c-1.28,0.002-2.961,0.044-5.037,0.112C283.547,310.206,281.554,309.965,279.663,309.417z M286.733,280.938
		c-2.062-1.742-4.559-1.699-7.475,0.13c-1.467,0.896-2.638,2.202-3.524,3.928c-0.876,1.752-1.774,4.531-2.674,8.384l-1.583,6.453
		l1.486,1.704c0.988,1.064,2.639,2.116,4.965,3.132c1.455,0.595,2.69,0.96,3.69,1.098c1.003,0.143,2.397,0.133,4.171-0.011
		c4.204-0.345,6.717-1.102,7.546-2.293c0.836-1.189,0.809-3.98-0.063-8.385C291.938,288.213,289.762,283.508,286.733,280.938z"/>
	<path fill="#FFFFFF" d="M355.734,276.387c0.648-0.871,1.297-1.521,1.934-1.944c0.65-0.416,1.184-0.579,1.598-0.481
		c0.424,0.104,0.758,0.355,1.012,0.763c0.25,0.385,0.314,0.997,0.213,1.795c-0.119,0.808-0.424,1.671-0.951,2.597
		c-0.74,1.447-1.371,3.342-1.895,5.67c-0.537,2.325-1.086,4.046-1.691,5.139c-0.611,1.092-1.648,1.58-3.123,1.481
		c-0.9-0.068-1.455-0.276-1.658-0.614c-0.229-0.337-0.41-1.337-0.584-2.979c-0.549-4.689-2.725-6.92-6.545-6.68
		c-1.09,0.065-1.922,0.281-2.508,0.639c-0.592,0.356-1.352,1.098-2.307,2.248c-1.371,1.551-2.924,4.376-4.652,8.475
		c-1.727,4.097-2.887,7.535-3.477,10.31c-0.537,2.789-0.793,6.007-0.793,9.672c0.004,3.675,0.301,6.227,0.912,7.652
		c1.363,3.432,3.736,5.674,7.125,6.739c1.434,0.431,2.422,0.622,2.965,0.591c0.545-0.034,1.494-0.39,2.865-1.04
		c3.662-1.643,6.379-4.264,8.137-7.876c1.531-3.229,1.506-5.485-0.037-6.795c-0.68-0.602-1.658-0.856-2.93-0.776
		c-1.078,0.062-2.029-0.342-2.855-1.223c-0.826-0.878-1.252-1.891-1.291-3.066c-0.047-1.188,0.361-2.122,1.215-2.818
		c1.646-1.31,3.498-1.58,5.557-0.813c2.059,0.766,3.705,2.279,4.943,4.575c0.859,1.664,1.322,3.236,1.391,4.699
		c0.059,1.464-0.223,3.299-0.857,5.508c-0.861,2.731-2.193,5.168-4.004,7.287c-1.822,2.131-3.854,3.579-6.111,4.349
		c-5.002,1.849-10.217,2.111-15.625,0.778c-5.426-1.326-8.908-3.723-10.479-7.193c-0.658-1.435-1.143-3.251-1.434-5.471
		c-0.309-2.214-0.344-4.223-0.145-6.023c0.162-1.598,0.17-2.692,0.043-3.252c-0.131-0.573-0.578-1.249-1.324-2.03
		c-1.094-1.144-1.656-1.908-1.676-2.282c-0.014-0.259,0.352-0.681,1.121-1.275c0.758-0.586,1.609-1.311,2.545-2.159
		c0.943-0.854,1.572-1.684,1.91-2.462c0.047-0.195,0.463-1.13,1.215-2.814c0.758-1.669,1.561-3.525,2.385-5.55
		c0.834-2.096,2.113-4.223,3.826-6.371c1.727-2.151,3.355-3.684,4.889-4.61c1.24-0.721,3.283-1.288,6.137-1.728
		c1.834-0.243,3.301-0.326,4.387-0.259c1.094,0.057,2.553,0.344,4.373,0.866l4.496,1.262L355.734,276.387z"/>
	<path fill="#FFFFFF" d="M405.34,277.503c7.855-0.568,11.777-0.349,11.777,0.672c0,0.39-0.238,0.71-0.717,0.964
		c-0.473,0.253-1.283,0.567-2.402,0.948c-1.105,0.385-1.924,0.673-2.43,0.857c-1.146,0.513-4.514,3.503-10.104,8.986
		c-5.59,5.476-8.248,8.407-7.998,8.796c0.256,0.447,1.893,1.37,4.885,2.766c2.949,1.339,4.936,2.591,5.99,3.731
		c1.049,1.145,1.576,2.586,1.576,4.344c0,1.754-0.541,4.384-1.633,7.886c-1.33,4.343-2.051,7.419-2.145,9.266
		c-0.105,1.854,0.393,3.315,1.482,4.399c0.693,0.706,1.848,1.361,3.445,1.962c1.592,0.598,3.031,0.91,4.303,0.91
		c1.664,0,3.143-0.322,4.459-0.958c1.303-0.631,2.213-1.492,2.727-2.586c0.766-1.588,0.936-2.688,0.52-3.297
		c-0.412-0.601-1.516-0.905-3.299-0.905c-3.57,0-5.355-1.297-5.355-3.916c0-2.045,1.303-3.379,3.918-4.015
		c3.127-0.703,6.004-0.127,8.617,1.726c2.486,1.779,3.729,4.292,3.729,7.541c0,1.467-0.123,2.517-0.379,3.156
		c-0.26,0.635-0.953,1.529-2.102,2.671c-1.854,1.789-4.391,3.067-7.617,3.829c-3.217,0.767-6.422,0.953-9.617,0.572
		c-3.189-0.38-5.811-1.214-7.846-2.481c-1.404-0.833-2.258-2.217-2.535-4.163c-0.295-1.938-0.184-5.649,0.334-11.125
		c0.191-2.429,0.303-4.233,0.332-5.457c0.035-1.206,0.035-2.33,0-3.389c-0.029-1.053-0.248-1.849-0.621-2.39
		c-0.385-0.541-0.834-1.001-1.342-1.386c-0.514-0.376-1.25-0.824-2.201-1.339c-2.297-1.142-4.385-1.702-6.264-1.671
		c-1.891,0.03-3.438,0.654-4.645,1.859c-0.775,0.774-1.299,1.668-1.582,2.677c-0.285,1.026-0.621,3.347-1.006,6.973
		c-0.445,3.901-0.637,6.252-0.572,7.081c0.062,0.834,0.447,1.719,1.15,2.676c0.695,1.015,1.043,1.898,1.043,2.623
		c0,0.741-0.375,1.229-1.141,1.486c-0.572,0.127-2.965,0.479-7.18,1.054c-2.812,0.312-4.613,0.465-5.41,0.429
		c-0.799-0.032-1.418-0.273-1.861-0.723c-0.449-0.446-0.613-0.85-0.484-1.233c0.121-0.395,0.697-1.151,1.732-2.3
		c1.336-1.469,2.168-2.899,2.486-4.299c0.318-1.403,0.826-5.479,1.527-12.232c0.631-5.863,1.195-9.807,1.674-11.854
		c0.477-2.035,0.91-5.002,1.295-8.887l0.664-6.782l-1.721-1.334c-1.215-0.895-1.66-1.688-1.33-2.39c0-0.194,0.07-0.341,0.232-0.435
		c0.156-0.094,0.365-0.194,0.621-0.288c0.252-0.086,0.539-0.162,0.859-0.193c0.324-0.025,0.768-0.062,1.338-0.088
		c0.578-0.03,1.156-0.065,1.729-0.1c0.568-0.032,1.318-0.047,2.246-0.047s1.848-0.012,2.781-0.045
		c0.926-0.033,2.068-0.05,3.447-0.05c1.363,0,2.689-0.034,3.967-0.099c1.084-0.06,1.598,0.162,1.533,0.676
		c0,0.627-0.83,1.335-2.488,2.096c-1.916,0.83-3.098,1.644-3.541,2.432c-0.447,0.809-0.74,2.797-0.859,5.978l-0.199,4.781
		l1.732,0.19c1.203,0.189,2.742-0.155,4.588-1.052c1.402-0.704,3.949-2.678,7.66-5.924c3.697-3.245,5.549-5.162,5.549-5.728
		c0-0.394-0.547-0.806-1.631-1.251c-2.24-0.896-2.098-1.59,0.385-2.1C402.445,277.729,403.74,277.575,405.34,277.503z"/>
	<path fill="#FFFFFF" d="M473.312,304.712c-1.393-1.979-3.297-3.169-5.656-3.551c-0.834-0.082-2.574,0.345-5.393,1.403
		c-2.738,1.014-4.674,1.949-5.762,2.766c-0.959,0.711-1.771,1.826-2.428,3.32c-0.66,1.535-0.836,2.7-0.541,3.563
		c0.32,0.885,1.191,1.518,2.578,1.882c1.342,0.362,2.641,0.33,3.836-0.094c0.99-0.352,1.828-0.985,2.482-1.9
		c0.637-0.898,1.092-1.785,1.312-2.609c0.221-0.758,0.535-1.417,0.945-1.967c0.318-0.415,0.664-0.608,1.082-0.608
		c0.061,0,0.125,0,0.17,0.007c0.803,0.151,1.441,0.576,1.91,1.265c1.225,1.871,1.42,4.101,0.572,6.623
		c-0.869,2.577-2.691,5.062-5.445,7.407c-1.961,1.692-3.744,2.766-5.324,3.203c-1.574,0.44-3.861,0.482-6.781,0.146
		c-4.496-0.612-7.998-2.426-10.428-5.378c-2.424-2.951-3.371-6.612-2.797-10.871c0.219-1.531,0.635-2.685,1.25-3.437
		c0.621-0.769,1.984-1.803,4.041-3.06c1.602-0.974,3.434-1.496,5.477-1.569c2.086-0.1,3.48-0.363,4.229-0.788
		c0.584-0.33,1.201-1.012,0.883-2.442c-0.182-0.696-0.527-1.228-1.047-1.576c-0.459-0.319-1.273-0.68-2.518-1.076
		c-2.166-0.599-3.695-1.306-4.545-2.092c-0.836-0.777-1.264-1.757-1.297-2.988c-0.043-1.753,0.652-3.413,2.088-4.924
		c1.441-1.513,3.055-2.335,4.797-2.43c1.275-0.125,2.367,0.124,3.289,0.716c0.924,0.587,1.602,1.27,2,2.021
		c0.445,0.827,0.908,1.653,1.389,2.493c0.512,0.913,1.016,1.47,1.535,1.714c0.727,0.363,1.604,0.095,2.6-0.818
		c0.898-0.815,1.855-2.056,2.814-3.696c0.791-1.346,1.738-2.698,2.834-4.016c1.07-1.271,1.908-2.311,2.426-3.008
		c0.582-0.774,0.74-1.444,0.432-2.066c-0.307-0.376-0.684-0.56-1.178-0.56c-0.414,0.015-1.027,0.192-1.873,0.557
		c-0.945,0.394-1.93,1.109-2.908,2.116c-0.932,0.915-1.734,1.453-2.414,1.571c-0.66,0.144-1.58-0.252-2.744-1.139
		c-1.605-1.195-3.045-1.826-4.264-1.888c-1.205-0.049-3.223,0.372-6.209,1.288c-3.559,1.063-6.135,2.261-7.668,3.534
		c-1.324,1.028-2.461,2.482-3.373,4.325c-0.908,1.854-1.316,3.488-1.227,4.847c0.07,0.958,0.643,2.352,1.723,4.271
		c1.342,2.354,1.443,2.798,1.459,2.798c-0.053,0.156-0.521,0.887-3.705,4.371c-2.869,3.217-4.678,6.175-5.396,8.807
		c-0.717,2.648-0.494,5.63,0.641,8.887c0.803,2.287,1.684,4.102,2.609,5.393c0.92,1.288,2.154,2.436,3.686,3.401
		c1.5,0.95,3.604,1.752,6.221,2.365c2.068,0.489,3.92,0.74,5.523,0.74c0.426,0,0.834-0.02,1.23-0.052
		c3.086-0.286,6.662-1.394,10.623-3.306c4.027-1.946,6.658-3.837,8.049-5.768c1.537-2.062,2.854-4.195,3.932-6.345
		c1.09-2.167,1.705-3.889,1.838-5.127C475.227,308.921,474.693,306.68,473.312,304.712z"/>
	<path fill="#FFFFFF" d="M530.867,274.056c1.094-1.049,2.102-1.649,3.02-1.806c0.914-0.141,1.51,0.209,1.797,1.062
		c0.447,1.446-0.426,2.937-2.604,4.448c-2.188,1.512-5.375,2.848-9.584,4.013c-3.033,0.821-4.959,1.631-5.77,2.442
		c-1.092,1.05-2.658,7.759-4.725,20.131c-2.059,12.381-2.824,19.846-2.297,22.396c0.195,1.178,1.059,2.124,2.582,2.847
		c2.977,1.446,2.639,2.399-1.02,2.864c-0.387,0.054-0.812,0.096-1.273,0.141c-1.301,0.071-2.688,0.211-4.156,0.427
		c-1.479,0.219-2.664,0.42-3.582,0.609c-0.908,0.178-1.801,0.335-2.652,0.454c-0.85,0.119-1.549,0.148-2.104,0.096
		c-0.539-0.062-0.969-0.223-1.281-0.502c-0.555-0.615-0.758-1.124-0.604-1.537c0.143-0.417,0.936-1.393,2.379-2.948
		c0.959-0.993,1.613-1.834,1.973-2.529c0.35-0.688,0.58-1.329,0.674-1.913c0.09-0.585,0.244-1.966,0.449-4.155
		c0.211-2.197,0.42-4.388,0.656-6.585c0.297-2.054,0.412-3.414,0.342-4.066c-0.059-0.642-0.387-1.249-0.939-1.789
		c-0.861-0.885-1.238-1.826-1.127-2.828c0.117-0.997,0.664-1.665,1.66-2.008c1.051-0.342,1.738-1.065,2.049-2.183
		c0.314-1.118,0.645-3.911,0.986-8.369c0.057-1.159,0.098-2.022,0.125-2.568c0.027-0.554,0.049-1.227,0.057-2.038
		c-0.002-0.805,0-1.363-0.02-1.658c-0.023-0.288-0.115-0.698-0.283-1.224c-0.166-0.521-0.295-0.845-0.393-0.94
		c-0.082-0.099-0.34-0.312-0.742-0.625c-0.412-0.307-0.75-0.483-1.004-0.534c-0.252-0.039-0.738-0.124-1.445-0.266
		c-0.711-0.13-1.293-0.217-1.742-0.279c-0.449-0.054-1.184-0.133-2.23-0.249c-3.938-0.45-6.906-0.345-8.912,0.301
		c-2.023,0.646-3.592,1.985-4.727,3.998c-1.703,2.899-1.941,5.127-0.711,6.68c0.674,0.802,1.354,1.215,2.029,1.215
		c0.682-0.006,1.625-0.39,2.83-1.175c1.34-0.841,2.967-1.141,4.871-0.887c1.896,0.257,3.404,0.958,4.523,2.116
		c1.111,1.089,1.57,2.054,1.367,2.88c-0.205,0.84-1.076,1.738-2.613,2.694c-1.869,1.081-4.15,1.533-6.836,1.378
		c-2.682-0.164-5.168-0.884-7.438-2.162c-2.914-1.637-4.723-3.716-5.453-6.244c-0.713-2.529-0.287-5.052,1.295-7.569
		c1.584-2.51,4.066-4.502,7.449-5.958c1.395-0.646,2.789-1.037,4.184-1.162c1.412-0.126,4.215-0.116,8.426,0.026
		c11.354,0.285,19.053,0.152,23.1-0.395C525.473,277.575,528.625,276.213,530.867,274.056z"/>
	<path fill="#FFFFFF" d="M152.975,1.114c3.041-0.869,5.746-1.226,8.126-1.083c2.381,0.141,5.07,0.791,8.054,1.948
		c3.249,1.271,5.316,2.115,6.222,2.51c0.884,0.408,2.146,1.131,3.775,2.168c2.597,1.562,4.558,3.016,5.857,4.377
		c1.299,1.35,2.382,3.075,3.252,5.154c3.09,6.986,3.09,13.738,0,20.262c-1.095,2.315-2.395,4.135-3.908,5.466
		c-1.512,1.32-4.042,2.885-7.564,4.677c-2.702,1.383-4.657,2.262-5.845,2.635c-1.191,0.378-3.179,0.683-5.934,0.918
		c-3.584,0.34-6.975,0.44-10.203,0.299c-3.227-0.147-5.059-0.448-5.491-0.911c-0.385-0.4-0.34-0.907,0.121-1.514
		c0.463-0.601,1.7-0.88,3.697-0.822c1.901,0.112,3.106-0.205,3.62-0.955c0.514-0.75,0.887-2.742,1.102-5.978
		c0.1-1.271,0.216-2.492,0.326-3.676c0.104-1.186,0.176-2.028,0.203-2.52c0.026-0.483,0.067-0.985,0.117-1.471
		c0.059-0.489,0.015-0.838-0.117-1.041c-0.14-0.204-0.289-0.386-0.448-0.564c-0.163-0.176-0.437-0.403-0.81-0.687
		c-1.092-0.812-1.629-1.664-1.629-2.557c0-0.894,0.519-1.774,1.55-2.641l1.534-1.217l0.083-9.269
		c0.058-5.538-0.133-8.686-0.568-9.433c-0.378-0.814-1.439-0.986-3.167-0.527c-0.27,0.058-0.711,0.172-1.304,0.347
		c-2.553,0.635-4.948,1.575-7.198,2.819c-2.244,1.241-3.586,2.384-4.018,3.418c-0.543,1.268-0.625,2.135-0.247,2.6
		c0.38,0.461,1.411,0.692,3.091,0.692c1.186,0,2.102,0.1,2.731,0.305c0.613,0.201,1.221,0.56,1.826,1.083l1.541,1.469l-1.217,1.299
		c-0.544,0.522-1.157,0.865-1.838,1.044c-0.673,0.173-2.043,0.256-4.097,0.256c-2.333,0-3.772-0.083-4.31-0.256
		c-0.54-0.18-1.193-0.692-1.952-1.56c-1.462-1.733-1.938-3.755-1.419-6.061c0.511-2.315,1.848-4.253,4.014-5.803
		c1.083-0.756,2.88-1.651,5.368-2.692C148.399,2.587,150.75,1.751,152.975,1.114z M173.826,9.147
		c-1.338-0.905-2.582-1.503-3.733-1.787c-1.15-0.284-1.931-0.203-2.363,0.258c-0.21,0.224-0.321,1.979-0.321,5.259
		c0,4.085-0.645,10.482-1.924,19.207c-0.476,3.225-0.736,6.026-0.765,8.402c-0.031,2.38,0.177,3.796,0.597,4.249
		c0.757,0.798,2.414,0.852,4.975,0.171c2.569-0.684,4.847-1.725,6.817-3.146c1.775-1.3,3.285-3.574,4.534-6.836
		c1.258-3.257,1.893-6.524,1.893-9.812c0-1.694-0.157-2.953-0.444-3.778c-0.295-0.82-1.277-2.506-2.929-5.052
		c-1.339-2.093-2.436-3.626-3.286-4.588C176.018,10.728,175.002,9.879,173.826,9.147z"/>
	<path fill="#FFFFFF" d="M208.131,6.813c0.895-0.663,2.612-1.394,5.143-2.193c2.543-0.788,5.287-1.216,8.237-1.279
		c2.951-0.057,5.037,0.562,6.247,1.85c0.954,1.053,1.84,2.352,2.655,3.895c0.808,1.545,1.356,2.913,1.622,4.113
		c0.351,1.549,0.757,2.52,1.23,2.925c0.464,0.4,1.453,0.558,2.943,0.46c1.501-0.094,2.502,0.03,3.027,0.382
		c0.502,0.345,0.801,1.068,0.873,2.178c0.045,0.707-0.148,1.369-0.588,1.98c-0.419,0.607-1.422,1.701-2.998,3.264
		c-1.706,1.728-2.773,2.902-3.174,3.506c-0.407,0.604-0.651,1.473-0.722,2.594c-0.216,2.898-0.988,5.671-2.315,8.314
		c-1.34,2.641-3.015,4.785-5.028,6.433c-1.506,1.213-3.413,2.227-5.718,3.06c-2.314,0.834-4.208,1.189-5.7,1.077
		c-1.039-0.088-2.023-0.274-2.952-0.568c-0.932-0.298-1.757-0.613-2.463-0.953c-0.704-0.332-1.419-0.815-2.125-1.45
		c-0.706-0.645-1.289-1.177-1.728-1.604c-0.444-0.423-0.934-1.085-1.464-1.995c-0.521-0.9-0.924-1.592-1.194-2.054
		c-0.275-0.464-0.63-1.229-1.072-2.288c-0.431-1.06-0.739-1.776-0.876-2.149c-0.144-0.368-0.427-1.097-0.845-2.186
		c-0.527-1.383-0.87-2.271-1.018-2.665c-0.148-0.396-0.235-0.861-0.273-1.395c-0.032-0.532,0.017-0.883,0.158-1.071
		c0.128-0.189,0.327-0.757,0.587-1.706c0.268-0.962,0.506-2.075,0.717-3.358C200.641,16.048,203.58,10.343,208.131,6.813z
		 M214.078,30.667c-1.409-0.413-2.695-0.647-3.885-0.7c-1.177-0.053-1.946,0.088-2.265,0.409c-0.182,0.271-0.185,1.757-0.012,4.485
		c0.156,2.47,0.623,4.604,1.412,6.407c0.778,1.801,1.771,2.965,2.99,3.489c5.683,2.585,9.724-0.027,12.133-7.825
		c0.58-1.918,0.883-3.111,0.922-3.594c0.046-0.483-0.142-0.942-0.568-1.373c-0.52-0.421-1.267-0.646-2.257-0.649
		c-0.99-0.017-2.273-0.012-3.882,0.016C217.071,31.349,215.535,31.136,214.078,30.667z M219.893,8.192
		c-1.567-1.42-3.478-1.422-5.764-0.012c-1.137,0.679-2.062,1.703-2.756,3.065c-0.712,1.36-1.435,3.556-2.173,6.591l-1.301,5.102
		l1.125,1.366c0.743,0.862,1.998,1.727,3.776,2.57c1.117,0.489,2.063,0.796,2.833,0.927c0.766,0.131,1.842,0.15,3.221,0.059
		c3.231-0.203,5.184-0.769,5.838-1.696c0.657-0.924,0.676-3.149,0.063-6.651C223.809,14.055,222.195,10.278,219.893,8.192z"/>
	<path fill="#FFFFFF" d="M289.572,44.665l-1.279-0.684l-0.017-6.906c-0.014-2.943,0.084-7.269,0.299-12.849
		c0.232-5.725,0.459-9.562,0.712-11.742c0.128-1.417,0.316-2.492,0.529-3.181c0.214-0.685,0.608-1.424,1.151-2.166
		c0.097-0.116,0.174-0.229,0.287-0.371c0.832-1.221,1.134-2.01,1.007-2.637c-0.059-0.323-0.245-0.598-0.493-0.756
		c-0.323-0.22-0.91-0.368-2.693-0.368c-1.584,0-3.999,0.124-7.137,0.362c-1.533,0.082-2.655,0.28-3.354,0.571
		c-0.989,0.308-1.347,0.875-1.465,1.295c-0.217,0.762,0.089,1.649,0.972,2.722c0.646,0.767,0.887,1.139,0.97,1.293
		c-0.172,0.467-0.973,2.138-4.411,8.116c-4.66,8.102-4.652,8.304-4.643,8.632c0,0.211-0.094,0.7-0.799,1.585
		c-0.762,0.95-1.112,0.966-1.138,0.966c-0.494,0-0.984-0.579-1.306-1.065c-0.603-0.905-1.394-2.54-2.357-4.86
		c-0.708-1.812-1.552-3.693-2.558-5.735c-0.974-1.974-1.746-3.5-2.294-4.595c-0.698-1.37-0.745-1.727-0.75-1.752
		c0-0.042,0.015-0.473,0.93-1.72c0.752-0.967,1.095-1.731,1.084-2.411c-0.058-2.237-3.19-2.569-10.313-1.095
		c-1.588,0.363-2.604,0.659-3.114,0.911c-0.714,0.354-1.099,0.952-1.087,1.679c0.021,0.978,0.729,1.875,2.136,2.737
		c1.033,0.638,1.209,0.908,1.224,0.946c0.007,0.011,0.16,0.306,0.131,1.572c0.035,3.589-0.298,9.316-0.977,17.014
		c-0.908,10.139-1.343,11.935-1.476,12.216c-0.153,0.247-0.328,0.354-0.589,0.358c-0.555,0.015-1.336,0.229-1.91,1.153
		c-0.242,0.362-0.546,0.907-0.403,1.503c0.084,0.376,0.364,0.77,0.91,1.279c0.539,0.5,1.204,0.788,1.983,0.877
		c0.215,0.02,0.492,0.03,0.833,0.03c0.688,0,1.652-0.049,2.892-0.149c3.661-0.225,4.627-0.698,5.067-1.131
		c0.99-0.937,0.457-2.708-0.043-3.997c-0.54-1.186-0.856-2.922-0.969-5.143c-0.11-2.314-0.023-5.949,0.254-10.81
		c0.144-3.279,0.321-5.483,0.548-6.553c0.149-0.726,0.318-0.976,0.315-1.038c0.112,0.062,0.561,0.352,1.412,1.705
		c0.853,1.354,1.672,3.061,2.46,5.077c0.628,1.554,1.307,3.005,2.014,4.314c0.68,1.28,1.141,2.112,1.363,2.492
		c0.143,0.26,0.202,0.548,0.177,0.889c-0.013,0.214-0.126,0.709-0.696,1.698c-0.503,0.95-1.082,2.324-0.345,3.229
		c0.486,0.609,1.583,0.967,3.564,1.167c2.389,0.247,3.757,0.102,4.491-0.481c0.776-0.61,1.091-1.899,0.984-4.065
		c-0.068-1.095-0.049-1.483-0.036-1.617c0.007-0.054,0.069-0.4,0.609-1.737c0.382-0.948,1.07-2.151,2.045-3.584
		c1.004-1.482,2.479-3.606,4.41-6.369c1.834-2.619,2.811-3.64,3.296-4.033c0.354-0.279,0.5-0.272,0.52-0.228
		c0.066,0.259,0.206,1.709-0.059,9.555c-0.209,6.287-0.438,13.389-0.694,15.257c-0.164,1.384-0.348,1.97-0.471,2.217
		c-0.172,0.343-0.532,0.726-1.067,1.136c-1.207,0.958-1.735,1.855-1.578,2.737c0.099,0.685,0.662,1.12,1.652,1.292
		c0.689,0.13,2.106,0.192,4.327,0.2c2.612,0.053,4.315-0.056,5.24-0.341c1.154-0.357,1.773-1.175,1.757-2.321
		C291.586,46.222,290.967,45.521,289.572,44.665z"/>
	<path fill="#FFFFFF" d="M315.531,43.224c-2.163-1.061-2.534-1.486-2.599-1.603c-0.128-0.212-0.415-1.564-0.291-9.428
		c0.099-5.865,0.356-9.887,0.766-11.966c0.415-2.433,0.607-4.629,0.561-6.529c-0.035-1.525,0.13-2.606,0.527-3.205
		c0.388-0.611,1.324-1.372,2.741-2.249c1.297-0.686,1.877-1.522,1.725-2.483c-0.078-0.551-0.24-0.881-0.469-1.025
		c-0.186-0.151-0.539-0.296-2.666-0.296c-1.232,0-2.969,0.052-5.151,0.153c-3.351,0.13-5.472,0.287-6.491,0.476
		c-1.077,0.199-1.862,0.528-2.39,1.027c-0.553,0.581-0.796,0.937-0.831,1.228c-0.045,0.336,0.18,0.684,0.717,1.12
		c0.485,0.528,1.38,0.938,2.738,1.271c1.165,0.286,2.021,0.935,2.625,1.96c0.461,0.925,0.721,2.973,0.772,6.094
		c0.052,3.151-0.113,8.879-0.499,17.025c-0.163,3.712-0.461,6.225-0.857,7.448c-0.392,1.17-1.158,2.013-2.376,2.583
		c-1.318,0.676-2.014,1.377-2.133,2.164c-0.057,0.622,0.261,1.059,0.857,1.156c0.19,0.037,0.491,0.051,0.927,0.051
		c0.557,0,1.34-0.024,2.342-0.078c3.708-0.191,6.467-0.396,8.182-0.587c2.395-0.278,3-0.496,3.241-0.636
		c0.475-0.263,0.713-0.676,0.699-1.186C318.18,44.904,317.328,44.115,315.531,43.224z"/>
	<path fill="#FFFFFF" d="M359.188,4.912c8.543-0.542,12.826-0.023,12.859,1.537c-0.002,0.216-0.107,0.458-0.295,0.721
		c-0.246,0.543-0.887,0.939-1.932,1.193c-1.033,0.257-1.75,0.574-2.131,0.943c-1.193,1.171-2.352,10.265-3.465,27.284l-0.268,4.688
		l1.965,1.478c1.256,1.04,1.838,1.939,1.725,2.692c-0.105,1.077-0.691,1.771-1.748,2.079c-1.068,0.311-2.9,0.341-5.492,0.094
		c-3.107-0.258-4.877-0.494-5.293-0.715c-0.52-0.227-0.912-0.695-1.188-1.43c-0.271-0.732-0.24-1.258,0.088-1.577
		c1.154-1.329,0.51-3.848-1.951-7.542c-1.848-2.77-4.014-5.834-6.496-9.178c-2.48-3.347-3.842-5.025-4.08-5.025
		c-0.42-0.008-0.678,0.626-0.762,1.887c-0.088,1.27-0.096,4.303-0.006,9.097l0.145,9.948l1.396,1.473
		c1.166,1.309,1.301,2.176,0.396,2.59c-0.764,0.321-2.453,0.543-5.1,0.669c-2.549,0.124-4.334,0.073-5.342-0.151
		c-1.018-0.23-1.516-0.721-1.502-1.474c0-0.377,0.471-0.909,1.441-1.601c0.945-0.688,1.572-1.432,1.863-2.241
		c0.383-1.02,0.688-6.058,0.891-15.107l0.25-13.58l-2.316-1.319c-2.678-1.602-3.281-3.281-1.838-5.04
		c0.379-0.427,0.93-0.688,1.662-0.784c0.732-0.098,2.305-0.137,4.705-0.104c3.68,0.045,5.705,0.29,6.078,0.724
		c0.465,0.491,0.662,1.137,0.578,1.948c-0.078,0.807-0.41,1.477-0.982,2.011c-0.717,0.634-0.992,1.223-0.834,1.763
		c0.156,0.544,1.072,1.953,2.736,4.242c1.395,1.903,2.697,3.989,3.922,6.275c1.221,2.279,2.564,4.451,4.051,6.522
		c1.943,2.771,3.33,4.162,4.125,4.174c0.516,0.007,0.838-0.151,0.961-0.476c0.123-0.317,0.264-1.423,0.426-3.304
		c0.34-3.664,0.709-7.247,1.137-10.742c0.729-5.703,0.998-8.72,0.814-9.046c-0.09-0.215-0.383-0.436-0.877-0.658
		c-0.492-0.221-0.99-0.428-1.516-0.624c-0.51-0.201-0.994-0.449-1.471-0.748c-0.467-0.303-0.738-0.627-0.793-0.979
		c-0.074-0.354,0.086-0.824,0.471-1.412C356.725,5.396,357.721,4.999,359.188,4.912z"/>
	<path fill="#FFFFFF" d="M382.416,7.419c-0.018-0.352,0.143-0.623,0.48-0.815c0.336-0.188,1.375-0.379,3.096-0.579
		c1.719-0.201,4.439-0.399,8.156-0.598c1.727-0.096,2.795-0.112,3.184-0.046c0.395,0.063,0.57,0.303,0.531,0.713
		c-0.088,0.615-0.729,1.216-1.916,1.815c-1.291,0.593-2.146,1.508-2.559,2.749c-0.412,1.229-0.707,3.69-0.867,7.373
		c-0.363,7.975-0.52,13.52-0.457,16.627c0.049,3.12,0.336,5.152,0.828,6.108c0.658,1.104,1.621,1.809,2.893,2.105
		c1.266,0.295,2.104,0.665,2.545,1.114c0.422,0.353,0.631,0.612,0.607,0.796c-0.023,0.176-0.264,0.501-0.715,0.971
		c-0.469,0.421-1.195,0.722-2.184,0.9c-0.996,0.186-3.139,0.344-6.439,0.477c-4.705,0.232-7.223,0.218-7.549-0.029
		c-0.152-0.093-0.271-0.344-0.328-0.754c-0.133-0.759,0.371-1.442,1.512-2.03c1.5-0.913,2.457-1.688,2.885-2.34
		c0.43-0.646,0.633-1.763,0.584-3.345c-0.051-1.838,0.131-3.935,0.541-6.293c0.42-2.055,0.666-5.969,0.75-11.738
		c0.08-5.77-0.047-8.91-0.369-9.414c-0.215-0.347-1.146-0.912-2.764-1.681C383.238,8.731,382.43,8.031,382.416,7.419z"/>
	<path fill="#FFFFFF" d="M415.762,7.504c0.826-0.662,2.432-1.408,4.811-2.232c2.375-0.819,4.955-1.294,7.746-1.417
		c2.787-0.114,4.764,0.445,5.951,1.678c0.922,1.005,1.781,2.249,2.592,3.735c0.803,1.487,1.348,2.803,1.643,3.969
		c0.361,1.498,0.768,2.435,1.217,2.82c0.457,0.374,1.391,0.51,2.797,0.386c1.408-0.124,2.363-0.019,2.863,0.305
		c0.496,0.332,0.787,1.033,0.881,2.105c0.062,0.691-0.105,1.33-0.494,1.939c-0.389,0.595-1.312,1.679-2.76,3.233
		c-1.58,1.713-2.551,2.876-2.922,3.479c-0.365,0.596-0.568,1.443-0.607,2.533c-0.133,2.825-0.785,5.533-1.994,8.134
		c-1.193,2.595-2.721,4.716-4.584,6.356c-1.387,1.21-3.164,2.235-5.32,3.089c-2.168,0.86-3.951,1.245-5.352,1.174
		c-0.984-0.068-1.924-0.228-2.811-0.496c-0.883-0.27-1.662-0.566-2.348-0.879c-0.682-0.311-1.357-0.764-2.035-1.368
		c-0.688-0.613-1.246-1.121-1.682-1.525c-0.43-0.408-0.906-1.038-1.422-1.912c-0.52-0.868-0.908-1.53-1.184-1.973
		c-0.271-0.448-0.625-1.182-1.062-2.204c-0.443-1.022-0.738-1.718-0.887-2.071c-0.148-0.355-0.428-1.06-0.842-2.112
		c-0.533-1.336-0.881-2.197-1.035-2.573c-0.146-0.38-0.238-0.83-0.287-1.35c-0.043-0.509-0.002-0.859,0.113-1.041
		c0.129-0.188,0.299-0.745,0.523-1.681c0.221-0.931,0.42-2.022,0.586-3.276C408.916,16.64,411.549,11.029,415.762,7.504z
		 M421.965,30.586c-1.328-0.373-2.562-0.57-3.688-0.602c-1.119-0.022-1.83,0.124-2.121,0.448c-0.17,0.261-0.137,1.708,0.098,4.355
		c0.205,2.401,0.701,4.479,1.482,6.208c0.781,1.731,1.756,2.844,2.91,3.339c5.436,2.389,9.189-0.231,11.281-7.867
		c0.479-1.874,0.744-3.037,0.77-3.514c0.035-0.468-0.16-0.909-0.564-1.319c-0.5-0.403-1.215-0.598-2.15-0.589
		c-0.93,0.006-2.148,0.036-3.658,0.093C424.809,31.198,423.357,31.014,421.965,30.586z M426.908,8.61
		c-1.514-1.352-3.328-1.315-5.436,0.102c-1.068,0.686-1.91,1.693-2.539,3.04c-0.631,1.338-1.262,3.485-1.885,6.457l-1.104,4.984
		l1.088,1.31c0.729,0.826,1.934,1.634,3.643,2.421c1.061,0.45,1.959,0.737,2.697,0.843c0.727,0.113,1.74,0.109,3.039-0.007
		c3.049-0.256,4.879-0.855,5.469-1.766c0.592-0.915,0.566-3.075-0.109-6.473C430.76,14.229,429.129,10.591,426.908,8.61z"/>
	<path fill="#FFFFFF" d="M479.299,3.646c8.326-1.02,12.551-0.711,12.66,0.908c0.008,0.226-0.072,0.483-0.246,0.771
		c-0.205,0.57-0.811,1.013-1.811,1.334c-1.008,0.325-1.688,0.692-2.041,1.098c-1.102,1.282-1.723,10.793-1.871,28.535l0.002,4.886
		l1.998,1.425c1.293,1.018,1.902,1.914,1.848,2.7c-0.047,1.127-0.582,1.88-1.598,2.263c-1.039,0.375-2.824,0.503-5.365,0.388
		c-3.064-0.099-4.803-0.25-5.23-0.46c-0.51-0.201-0.928-0.673-1.234-1.421c-0.309-0.746-0.311-1.29,0-1.64
		c1.051-1.445,0.273-4.021-2.338-7.737c-1.965-2.776-4.248-5.838-6.859-9.186c-2.617-3.342-4.047-5.007-4.275-4.999
		c-0.404,0.016-0.629,0.688-0.643,2.004c-0.008,1.319,0.158,4.468,0.492,9.449l0.709,10.325l1.447,1.459
		c1.213,1.296,1.389,2.189,0.535,2.669c-0.732,0.369-2.379,0.688-4.963,0.966c-2.48,0.273-4.232,0.315-5.225,0.133
		c-1.01-0.183-1.523-0.668-1.559-1.45c-0.016-0.397,0.418-0.978,1.322-1.74c0.887-0.767,1.455-1.58,1.697-2.428
		c0.328-1.082,0.336-6.329,0.045-15.747l-0.523-14.123l-2.336-1.247c-2.697-1.516-3.396-3.228-2.09-5.13
		c0.35-0.468,0.879-0.766,1.59-0.913c0.711-0.139,2.246-0.26,4.605-0.356c3.596-0.148,5.594-0.007,5.98,0.422
		c0.479,0.489,0.711,1.152,0.678,1.994c-0.039,0.848-0.318,1.557-0.848,2.143c-0.674,0.698-0.916,1.333-0.725,1.881
		c0.184,0.559,1.16,1.975,2.922,4.256c1.465,1.906,2.855,4.008,4.176,6.311c1.324,2.303,2.768,4.489,4.336,6.554
		c2.051,2.781,3.482,4.151,4.264,4.119c0.506-0.023,0.809-0.202,0.914-0.545c0.1-0.341,0.176-1.497,0.236-3.461
		c0.125-3.825,0.289-7.557,0.496-11.221c0.408-5.962,0.506-9.111,0.311-9.438c-0.102-0.222-0.406-0.432-0.896-0.637
		c-0.484-0.204-0.998-0.392-1.516-0.568c-0.508-0.176-1.006-0.408-1.48-0.697c-0.473-0.289-0.752-0.612-0.842-0.976
		c-0.09-0.363,0.043-0.858,0.393-1.489C476.908,4.285,477.865,3.822,479.299,3.646z"/>
	<g>
		<g>
			<g>
				<path fill="#FFFFFF" d="M560.806,70.193c-1.725-0.076-3.446-0.296-5.173-0.324c-1.733-0.028-3.464-0.093-5.185-0.073
					c-1.739,0.021-3.474,0.008-5.187,0.079c-1.219,0.054-2.19,0.572-2.815,1.333c-0.637,0.778-0.832,1.858-0.654,3.147
					c0.238,1.668,0.684,4.076,1.916,5.922c0.732,1.101,1.204,2.291,1.664,3.519c0.444,1.187,0.938,2.384,1.141,3.732
					c0.183,1.224,0.212,2.526,0.204,3.916c-0.012,1.684-0.154,3.375-0.158,5.067c-0.005,1.694,0.264,3.388,0.265,5.071
					c0.001,1.704,0.056,3.396,0.059,5.07c0.006,2.028-0.272,4.061-0.272,6.087c0,0.18-0.043,0.18-0.043,0.359
					c0,2.035,0.188,4.069,0.192,6.102c0.004,1.635-0.01,3.288-0.008,4.95c0.002,1.646-0.058,3.301-0.063,4.955
					c-0.006,1.655,0.149,3.311,0.129,4.956c-0.026,1.489-0.257,3.013-0.374,4.604c-0.107,1.473-0.326,2.987-0.521,4.584
					c-0.061,0.487-0.269,1.052-0.69,1.566c-0.131,0.166-0.365,0.096-0.486,0.26c-0.166-0.108-0.248-0.171-0.43-0.274
					c-0.543-0.326-1.037-0.609-1.236-1.041c-0.807-1.746-1.796-3.628-2.425-5.964c-0.441-1.622-0.686-3.296-1.125-4.918
					s-1.125-3.177-1.563-4.8s-0.848-3.253-1.284-4.875c-0.438-1.623-0.804-3.265-1.239-4.888c-0.438-1.623-0.752-3.278-1.188-4.901
					c-0.437-1.623-0.732-3.283-1.169-4.906c-0.463-1.728-0.916-3.458-1.38-5.186c-0.465-1.728-1.111-3.405-1.576-5.133
					c-0.465-1.727-1.019-3.431-1.482-5.158c-0.385-1.434-0.809-2.857-1.199-4.29c-0.392-1.433-0.772-2.868-1.163-4.299
					c-0.426-1.548-0.559-3.175-0.98-4.724s-1.163-3.01-1.582-4.56c-0.451-1.678-1.062-2.974-2.058-3.858
					c-1.068-0.949-2.424-1.657-4.107-1.677c-0.826-0.004-1.656,0.274-2.477,0.258c-1.227-0.023-2.451-0.104-3.666-0.104
					c-1.537,0-2.82-0.095-4.025-0.012c-1.723,0.115-2.967,0.539-3.668,1.39c-0.68,0.825-0.844,2.146-0.67,3.817
					c0.293,2.842,1.065,5.023,2.108,6.565c0.762,1.133,1.243,2.375,1.714,3.633c0.453,1.211,0.688,2.495,0.889,3.892
					c0.18,1.244,0.26,2.552,0.253,3.994c-0.006,1.549,0.073,3.102,0.069,4.655c-0.005,1.552-0.048,3.105-0.052,4.66
					c-0.003,1.554,0.186,3.108,0.184,4.663c-0.002,1.555-0.227,3.11-0.228,4.663c-0.001,1.556,0.271,3.11,0.271,4.662
					c0,1.559-0.288,3.115-0.287,4.667c0.001,1.558,0.137,3.111,0.138,4.659c0.001,1.559,0.172,3.112,0.174,4.659
					c0,1.547-0.184,3.094-0.183,4.641c0,1.546-0.13,3.093-0.13,4.641c0.001,1.547,0.312,3.095,0.312,4.644
					c-0.001,2.469-0.132,2.469-0.133,4.938c-0.002,2.469,0.192,2.469,0.191,4.938c0,1.61-0.206,3.22-0.206,4.83
					c0,1.609,0.123,3.219,0.124,4.829c0,1.609-0.02,3.219-0.019,4.829c0.001,1.61-0.268,3.22-0.266,4.83
					c0.003,1.61,0.109,3.22,0.113,4.83c0.004,1.412-0.053,2.7-0.22,3.9c-0.193,1.379-0.342,2.681-0.776,3.843
					c-0.464,1.241-1.244,2.289-2.004,3.359c-0.943,1.316-1.642,3.218-2.017,5.593c-0.229,1.46,0.203,2.64,0.91,3.502
					c0.705,0.877,1.798,1.254,3.286,1.309c1.555,0.053,3.133,0.099,4.736,0.116c1.562,0.017,3.145,0.367,4.745,0.35
					c1.565-0.018,3.144-0.294,4.739-0.346c1.424-0.049,2.697-0.353,3.422-1.218c0.697-0.822,0.93-2.082,0.766-3.402
					c-0.297-2.366-1.239-4.493-2.325-6.109c-0.995-1.482-1.564-3.105-2.032-4.772c-0.445-1.586-0.84-3.265-0.84-5.125
					c0.003-1.375,0.052-2.751,0.053-4.128c0.001-1.376,0.118-2.753,0.119-4.13c0-1.377,0.094-2.755,0.094-4.132
					c-0.001-1.448,0.026-2.904,0.025-4.365c0-1.45-0.291-2.906-0.291-4.365c0-1.452-0.047-2.907-0.046-4.365
					c0.001-1.453,0.208-2.908,0.21-4.365c0.003-1.456,0.09-2.913,0.095-4.369c0.004-1.457,0.061-2.914,0.066-4.369
					c0.007-1.458-0.146-2.916-0.138-4.369c0.005-1.328,0.047-2.651,0.171-3.92c0.135-1.374,0.244-2.702,0.425-3.902
					c0.107-0.671,0.937-1.64,1.36-1.695c0.385,0,1.141,0.517,1.781,1.258c0.414,0.467,0.641,1.192,0.857,1.862
					c0.11,0.34,0.014,0.372,0.127,0.711c0.662,1.977,1.451,3.991,2.023,6.027c0.38,1.366,0.553,2.79,0.932,4.156
					c0.378,1.366,0.972,2.672,1.35,4.037c0.378,1.366,0.578,2.78,0.956,4.146c0.379,1.365,0.854,2.703,1.232,4.068
					c0.379,1.365,0.676,2.753,1.055,4.119c0.407,1.47,0.824,2.944,1.235,4.426c0.407,1.471,0.701,2.979,1.111,4.459
					c0.407,1.471,1.045,2.883,1.455,4.361c0.409,1.474,0.645,2.998,1.056,4.476c0.41,1.475,1.104,2.872,1.516,4.349
					c0.411,1.476,0.628,3.008,1.04,4.483c0.413,1.479,0.883,2.94,1.296,4.416c0.414,1.476,0.664,2.995,1.078,4.466
					c0.433,1.537,0.894,2.81,1.38,3.836c0.681,1.435,1.626,2.281,2.763,2.874c1.009,0.526,2.238,0.994,3.91,0.994
					c0.82,0,1.784-0.05,3.001-0.159c0.065-0.006,0.04-0.347,0.105-0.351c0.074-0.002,0.168,0.271,0.236,0.261
					c1.531-0.185,2.542-0.869,3.34-1.648c0.819-0.801,1.22-1.833,1.362-3.356c0.182-1.968,0.273-3.96,0.268-5.899
					c-0.001-0.495,0.094-0.495,0.094-0.99c0-2.298,0.079-2.298,0.079-4.595c0-2.299-0.15-2.299-0.15-4.599
					c0-2.299-0.078-2.299-0.078-4.598c0-1.53,0.07-3.062,0.07-4.598c0.001-1.53-0.013-3.063-0.012-4.599
					c0-1.529,0.149-3.06,0.149-4.593c0-1.53,0.025-3.062,0.025-4.595c0-1.53-0.209-3.062-0.209-4.596
					c0-1.531,0.059-3.063,0.059-4.598c0.001-1.532,0.164-3.064,0.164-4.599c0-1.531,0.02-3.063,0.02-4.596
					c0-1.532-0.062-3.064-0.062-4.598c-0.001-1.532-0.027-3.065-0.027-4.599s-0.21-3.067-0.21-4.601
					c-0.001-1.534,0.182-3.069,0.18-4.603c0-1.535,0.149-3.069,0.148-4.604c-0.001-1.535-0.289-3.07-0.29-4.604
					c-0.001-1.535,0.236-3.069,0.234-4.603c-0.001-1.535-0.287-3.068-0.289-4.601c-0.001-1.536,0.201-3.07,0.2-4.603
					c-0.002-1.533,0.069-3.065,0.067-4.596c-0.002-1.425,0.084-2.746,0.273-4.008c0.208-1.384,0.315-2.738,0.767-3.965
					c0.465-1.265,1.336-2.316,2.073-3.46c1.209-1.895,1.752-4.327,1.971-5.977c0.16-1.229-0.322-2.248-0.939-2.994
					C562.804,70.501,561.942,70.247,560.806,70.193z"/>
			</g>
			<g>
				<path fill="#FFFFFF" d="M123.882,179.467c0.005-1.453,0.309-2.945,0.312-4.47c0.002-1.465-0.213-2.958-0.216-4.471
					c-0.003-1.474,0.199-2.967,0.187-4.469c-0.012-1.484-0.306-2.974-0.331-4.47c-0.024-1.492,0.234-2.991,0.194-4.478
					c-0.037-1.406-0.195-2.926-0.385-4.507c-0.173-1.441-0.439-2.938-0.843-4.442c-0.38-1.414-0.849-2.86-1.516-4.262
					c-0.626-1.315-1.477-2.567-2.425-3.816c-1.055-1.388-1.402-2.791-1.365-4.213c0.036-1.365,0.485-2.719,1.528-4.156
					c0.842-1.165,1.647-2.355,2.268-3.622c0.621-1.267,1.077-2.63,1.477-4.009c0.388-1.333,0.53-2.75,0.714-4.198
					c0.173-1.362,0.346-2.769,0.341-4.241c-0.004-1.752-0.034-3.505-0.021-5.258c0.007-1.465,0.208-2.948,0.206-4.438
					c-0.001-1.476-0.02-2.962-0.051-4.445c-0.031-1.483-0.188-2.966-0.269-4.439c-0.075-1.381-0.283-2.713-0.439-4.007
					c-0.166-1.377-0.496-2.677-0.75-3.946c-0.274-1.367-0.314-2.74-0.689-3.971c-0.452-1.476-1.187-2.789-1.832-4.064
					c-0.691-1.368-1.464-2.626-2.366-3.753c-0.942-1.177-1.897-2.339-3.055-3.245c-1.163-0.908-2.54-1.513-3.907-2.136
					c-1.316-0.601-2.725-1-4.218-1.327c-1.398-0.306-2.841-0.653-4.384-0.71c-1.601-0.06-3.206-0.26-4.816-0.294
					c-1.606-0.035-3.219,0.176-4.825,0.159c-1.611-0.017-3.219-0.126-4.819-0.132c-1.617-0.005-3.225,0.175-4.819,0.173
					c-1.183,0.001-2.366-0.026-3.55-0.029c-1.185-0.002-2.371-0.137-3.56-0.143c-0.059,0-0.059,0.171-0.117,0.171
					c-0.934,0.002-1.916,0.079-2.957,0.285c-2.375,0.466-3.436,1.448-3.663,3.913c-0.118,1.301,0.104,2.602,0.51,3.87
					c0.376,1.174,0.99,2.323,1.81,3.45c0.95,1.308,1.479,2.764,1.898,4.396c0.363,1.417,0.575,2.959,0.579,4.767
					c0.004,1.575,0.123,3.145,0.127,4.708c0.004,1.575-0.175,3.144-0.17,4.707c0.004,1.574-0.013,3.143-0.009,4.705
					c0.005,1.574,0.115,3.141,0.12,4.703c0.005,1.574,0.234,3.14,0.239,4.702c0.005,1.574-0.189,3.142-0.184,4.704
					c0.005,1.574,0.014,3.142,0.02,4.704c0.006,1.574-0.062,3.142-0.055,4.705c0.006,1.573,0.041,3.141,0.047,4.704
					c0.006,1.574-0.012,3.142-0.005,4.706c0.007,1.573,0.21,3.14,0.217,4.703c0.007,1.572-0.23,3.14-0.223,4.703
					c0.008,1.572,0.237,3.138,0.245,4.701c0.008,1.573-0.104,3.143-0.097,4.708c0.008,1.572,0.088,3.139,0.097,4.702
					c0.008,1.57,0.083,3.136,0.092,4.699c0.009,1.571-0.098,3.141-0.088,4.705c0.009,1.568,0.011,3.134,0.021,4.696
					c0.01,1.568,0.258,3.133,0.268,4.695c0.008,1.775-0.292,3.434-0.713,4.987c-0.432,1.594-1.043,3.16-1.956,4.641
					c-1.034,1.673-2.038,3.657-2.337,5.759c-0.205,1.423,0.236,2.602,0.918,3.425c0.677,0.815,1.732,1.419,3.128,1.455
					c1.357,0.04,2.734-0.164,4.112-0.147c1.366,0.016,2.736,0.007,4.106,0.001c1.276-0.006,2.56-0.025,3.849-0.049
					c1.282-0.023,2.574,0.187,3.856,0.144c1.438-0.047,2.643-0.599,3.374-1.516c0.714-0.911,1.077-2.249,0.804-3.681
					c-0.369-2.006-1.331-4.049-2.427-5.779c-0.934-1.463-1.656-2.954-2.112-4.537c-0.455-1.577-0.689-3.225-0.682-4.965
					c0.005-1.457-0.094-2.92-0.095-4.385c0-1.463,0.29-2.928,0.286-4.389c-0.004-1.465-0.145-2.927-0.151-4.382
					c-0.006-1.47-0.101-2.932-0.107-4.382c-0.009-1.66-0.102-3.319-0.108-4.979c-0.007-1.66-0.05-3.321-0.054-4.981
					c0-1.089,0.306-2.237,0.489-3.342c0.461-2.782,1.712-3.957,4.248-4.159c1.467-0.112,2.849-0.488,4.173-0.483
					c1.479,0.006,2.849,0.414,4.155,0.569c1.899,0.228,3.544,0.726,4.801,1.837c1.243,1.1,2.096,2.63,2.591,4.491
					c0.331,1.238,0.651,2.501,0.84,3.804c0.185,1.271,0.334,2.569,0.383,3.882c0.065,1.768-0.084,3.556-0.072,5.335
					c0.013,1.791,0.247,3.576,0.238,5.332c0,1.482-0.129,2.962-0.127,4.44c0.003,0.178,0.013,0.177,0.015,0.354
					c0.02,1.774-0.142,1.774-0.136,3.549c0.004,1.586,0.353,3.167,0.362,4.751c0.008,1.584,0.018,3.167,0.035,4.752
					c0.005,0.411-0.084,0.413-0.082,0.824c0,1.665,0.032,3.366,0.267,5.04c0.263,1.886,0.996,3.31,2.029,4.435
					c1.107,1.207,2.483,1.99,4.313,2.156c1.395,0.128,2.835,0.262,4.402,0.264c1.367,0.002,2.829,0.031,4.424-0.062
					c2.363-0.143,3.553-1.612,3.791-4.203c0.13-1.394,0-2.646-0.341-3.839c-0.366-1.285-0.889-2.435-1.775-3.411
					c-1.106-1.213-1.925-2.594-2.428-4.158C124.215,182.843,123.879,181.246,123.882,179.467z M87.801,98.909
					c-0.013-3.456,0.285-3.458,0.273-6.914c0-0.569-0.216-1.136-0.191-1.705c0.097-2.389,0.712-3.915,1.697-4.938
					c1.007-1.046,2.514-1.737,4.9-1.812c0.71-0.018,1.435,0.252,2.146,0.247c1.216-0.004,2.26-0.042,3.215,0.047
					c1.489,0.133,2.781,0.463,3.899,1.001c1.25,0.603,2.228,1.474,3.028,2.596c0.723,1.014,1.342,2.196,1.708,3.645
					c0.307,1.217,0.354,2.492,0.506,3.694c0.168,1.336,0.335,2.599,0.395,3.699c0.119,2.056,0.028,4.15,0.008,6.187
					c-0.007,0.78,0.057,1.558,0.057,2.339c-0.004,0.181,0.121,0.183,0.117,0.364c0,0.979-0.06,1.948-0.033,2.93
					c0.055,2.188,0.162,4.444-0.07,6.63c-0.133,1.357-0.56,2.728-0.919,4.262c-0.306,1.305-0.687,2.685-1.174,4.204
					c-0.598,1.847-1.987,3.304-4.181,4.109c-1.909,0.709-3.915,1.145-6.169,1.153c-1.535,0.007-3.182-0.024-4.983-0.334
					c-1.822-0.317-2.944-1.822-3.348-3.817c-0.271-1.322-0.608-2.756-0.622-4.318c-0.01-1.551,0.007-3.104-0.001-4.655
					s0.138-3.103,0.13-4.654s-0.213-3.102-0.22-4.653c-0.007-1.551-0.078-3.103-0.084-4.654
					C87.879,102.012,87.808,100.461,87.801,98.909z"/>
			</g>
			<g>
				<path fill="#FFFFFF" d="M195.703,134.643c-0.004-1.516,0.026-3.03,0.023-4.543s-0.014-3.026-0.017-4.537
					c-0.002-1.538,0.085-3.086,0.083-4.642c-0.002-1.542,0.094-3.092,0.09-4.645c-0.004-1.544-0.004-3.093-0.01-4.642
					c-0.006-1.548-0.325-3.096-0.334-4.644c-0.008-1.551,0.325-3.103,0.313-4.647c-0.011-1.344-0.269-2.681-0.307-4.015
					c-0.038-1.346-0.09-2.683-0.155-4.011c-0.065-1.349-0.119-2.687-0.212-4.008c-0.115-1.626-0.281-3.198-0.655-4.683
					c-0.395-1.569-0.932-3.061-1.601-4.454c-0.691-1.439-1.601-2.73-2.57-3.962c-0.971-1.235-1.968-2.476-3.202-3.483
					c-1.2-0.979-2.551-1.83-3.984-2.574c-1.361-0.706-2.821-1.353-4.379-1.831c-1.325-0.408-2.703-0.728-4.098-0.945
					c-1.358-0.211-2.769-0.169-4.193-0.201c-1.365-0.03-2.742,0.172-4.168,0.308c-1.355,0.128-2.756,0.137-4.166,0.415
					c-1.633,0.321-3.105,0.925-4.539,1.476c-1.54,0.591-3.114,1.012-4.417,1.861c-1.355,0.883-2.63,1.909-3.723,3.062
					c-1.085,1.146-1.897,2.557-2.715,3.963c-0.779,1.338-1.595,2.736-2.126,4.303c-0.492,1.453-0.698,3.059-0.972,4.703
					c-0.208,1.214-0.415,2.503-0.505,3.938c-0.076,1.215-0.023,2.532-0.023,3.98c0.002,1.541,0.09,3.083,0.092,4.627
					c0.002,1.542-0.047,3.085-0.044,4.629c0.002,1.542,0.067,3.084,0.07,4.628c0.003,1.543-0.323,3.087-0.32,4.631
					c0.003,1.544,0.153,3.088,0.156,4.632c0.004,1.544,0.047,3.089,0.051,4.634c0.004,1.545,0.019,3.09,0.022,4.634
					c0.003,1.546,0.121,3.09,0.125,4.634c0.004,1.546-0.308,3.091-0.304,4.635c0.004,1.546,0.173,3.09,0.177,4.633
					c0.004,1.545,0.183,3.089,0.188,4.631c0.004,1.545-0.188,3.089-0.183,4.63c0.004,1.547-0.098,3.092-0.093,4.634
					c0.005,1.545,0.215,3.087,0.22,4.627c0.004,1.546,0.016,3.088,0.02,4.627c0.006,1.875-0.191,1.875-0.185,3.75
					c0.007,1.875,0.233,1.875,0.237,3.75c0,1.696-0.156,3.461-0.015,5.188c0.127,1.588,0.355,3.118,0.682,4.562
					c0.35,1.549,1.003,2.949,1.573,4.322c0.604,1.455,1.227,2.849,2.065,4.095c0.868,1.288,1.847,2.467,2.954,3.518
					c1.106,1.05,2.345,1.95,3.678,2.748c1.288,0.771,2.604,1.609,4.092,2.131c1.402,0.492,2.923,0.853,4.492,1.111
					c2.165,0.36,4.43,0.238,6.681,0.23c2.228-0.005,4.455,0.08,6.583-0.275c1.584-0.27,3.052-0.818,4.468-1.323
					c1.501-0.535,2.903-1.184,4.202-1.968c1.347-0.813,2.618-1.706,3.73-2.769c1.119-1.068,2.036-2.319,2.901-3.622
					c0.843-1.27,1.8-2.535,2.387-4.009c0.558-1.4,0.925-2.939,1.237-4.509c0.293-1.472,0.437-3.032,0.503-4.639
					c0.073-1.688-0.033-3.406,0.015-5.157c0.046-1.681,0.106-3.394,0.132-5.154c0.024-1.675,0.15-3.39,0.157-5.158
					c0.006-1.633-0.182-3.271-0.182-4.912c0-1.639,0.231-3.279,0.228-4.916c-0.004-1.642-0.264-3.279-0.27-4.909
					c-0.006-1.647,0.223-3.286,0.217-4.91c-0.005-1.365,0.088-2.73,0.083-4.095S195.706,136.006,195.703,134.643z M181.767,144.006
					c0.004,1.422-0.026,2.853-0.022,4.289c0.004,1.424,0.015,2.854,0.018,4.288c0.003,1.427-0.083,2.858-0.081,4.292
					c0.003,1.429-0.095,2.86-0.093,4.292s-0.002,2.862-0.002,4.292c0,1.434,0.312,2.865,0.31,4.292
					c-0.001,1.31-0.384,2.545-0.458,3.741c-0.081,1.295,0.029,2.552-0.133,3.751c-0.256,1.834-0.889,3.533-1.803,4.965
					c-0.962,1.506-2.284,2.751-3.804,3.648c-1.474,0.871-3.197,1.342-5.035,1.487c-0.372,0.026-0.744,0.04-1.116,0.042v0.092
					c-1.776,0.005-3.388-0.476-4.861-1.093c-1.573-0.659-2.924-1.602-4.017-2.871c-1.053-1.224-1.792-2.692-2.273-4.39
					c-0.352-1.234-0.547-2.502-0.664-3.801c-0.116-1.3-0.311-2.598-0.314-3.873c-0.008-1.604-0.167-3.21-0.175-4.818
					c-0.008-1.606,0.18-3.214,0.173-4.822c-0.007-1.606-0.192-3.212-0.199-4.82c-0.006-1.607,0.326-3.216,0.32-4.824
					c-0.005-1.608,0.016-3.217,0.011-4.825c-0.005-1.609-0.206-3.217-0.21-4.825c-0.004-1.61,0.16-3.219,0.155-4.827
					c-0.004-1.61-0.196-3.218-0.2-4.826c-0.004-1.61,0.055-3.218,0.051-4.825c-0.004-1.61-0.097-3.218-0.101-4.824
					c-0.004-1.609-0.094-3.216-0.097-4.821c-0.004-1.611,0.044-3.221,0.041-4.827c-0.004-1.609-0.069-3.216-0.073-4.819
					c-0.003-1.61,0.322-3.218,0.318-4.82c-0.007-3.018-0.153-3.018-0.16-6.036c-0.004-1.561-0.026-3.368,0.158-5.113
					c0.156-1.463,0.497-2.797,1.048-4.005c0.572-1.252,1.283-2.458,2.296-3.468c1.138-1.14,2.524-1.728,3.848-2.298
					c1.353-0.583,2.738-1.021,4.322-1.023c1.287-0.005,2.705,0.02,4.164,0.399c1.439,0.379,2.628,1.166,3.697,1.992
					c1.086,0.84,1.873,1.945,2.569,3.238c0.616,1.144,1.264,2.38,1.569,3.873c0.252,1.234,0.409,2.495,0.5,3.714
					c0.097,1.306-0.072,2.579-0.061,3.742c0.013,1.463,0.247,2.929,0.256,4.398c0.009,1.468-0.146,2.938-0.139,4.407
					c0.006,1.469,0.009,2.938,0.014,4.404c0.005,1.473,0.211,2.943,0.214,4.409c0.003,1.472-0.102,2.94-0.099,4.402
					c0.003,1.474-0.007,2.942-0.004,4.401c0.005,2.331,0.036,2.331,0.041,4.662s-0.2,2.332-0.194,4.663
					c0.006,2.33,0.001,2.333,0.041,4.663C181.551,141.679,181.759,141.676,181.767,144.006z"/>
			</g>
			<g>
				<path fill="#FFFFFF" d="M488.765,97.179c0-1.882-0.129-3.823-0.256-5.74c-0.113-1.651-0.086-3.275-0.436-4.781
					c-0.372-1.604-1.11-3.051-1.737-4.474c-0.657-1.493-1.242-3.008-2.166-4.282c-0.942-1.301-2.258-2.263-3.462-3.314
					c-1.189-1.039-2.338-2.175-3.768-2.95c-1.368-0.742-2.863-1.365-4.438-1.846c-1.601-0.488-3.239-0.784-4.858-1.032
					c-1.643-0.252-3.296-0.39-4.945-0.395c-1.649-0.004-3.294,0.191-4.937,0.434c-1.621,0.239-3.209,0.668-4.812,1.148
					c-1.534,0.461-3.015,0.937-4.364,1.643c-1.405,0.735-2.596,1.736-3.782,2.715c-1.21,0.998-2.428,1.968-3.39,3.192
					c-0.957,1.217-1.724,2.577-2.415,3.993c-0.672,1.376-1.307,2.806-1.71,4.347c-0.384,1.47-0.548,3.026-0.671,4.625
					c-0.088,1.198-0.093,2.406-0.116,3.612c-0.023,1.215-0.284,2.424-0.29,3.615c-0.001,0.345,0.185,0.346,0.184,0.691
					c-0.003,1.499,0.109,2.998,0.107,4.497s-0.033,2.999-0.034,4.498s-0.19,2.998-0.191,4.497c0,1.499-0.091,2.998-0.092,4.497
					c0,1.499,0.326,2.998,0.325,4.496c-0.001,1.499-0.111,2.998-0.112,4.497c-0.001,2.256,0.03,2.256,0.03,4.512
					c-0.001,2.257-0.205,2.257-0.205,4.514c0,2.258,0.108,2.258,0.108,4.516c-0.001,2.258,0.202,2.258,0.202,4.516
					c-0.001,2.258-0.171,2.258-0.171,4.516c-0.001,2.257-0.106,2.257-0.107,4.515c0,2.257,0.125,2.257,0.124,4.515
					c0,2.26,0.062,2.26,0.062,4.519c-0.001,2.261-0.066,2.261-0.066,4.522c-0.001,2.261-0.126,2.261-0.126,4.522
					c0,0.156,0.18,0.156,0.18,0.313c0,0.245,0.036,0.482,0.036,0.727c0.008,0.777-0.08,1.559-0.07,2.338
					c0.012,1.712,0.071,3.485,0.196,5.23c0.121,1.726,0.202,3.416,0.61,4.989c0.431,1.661,1.07,3.236,1.803,4.704
					c0.756,1.517,1.716,2.908,2.771,4.191c1.061,1.289,2.345,2.363,3.686,3.39c1.307,0.999,2.747,1.811,4.298,2.535
					c1.474,0.688,2.953,1.549,4.63,1.966c1.31,0.326,2.701,0.267,4.044,0.429c1.34,0.162,2.677,0.518,4.03,0.518
					c2.281,0,4.601-0.349,6.905-0.807c1.598-0.317,3.157-0.592,4.56-1.11c1.517-0.56,2.777-1.536,4.063-2.329
					c1.352-0.832,2.723-1.599,3.818-2.687c1.098-1.09,1.941-2.412,2.781-3.755c0.801-1.283,1.674-2.597,2.237-4.109
					c0.522-1.402,0.678-2.979,0.994-4.577c0.316-1.587,0.616-3.173,0.723-4.768c0.109-1.64,0.099-3.263,0.101-4.828
					c0.005-1.604,0.011-3.208,0.015-4.815c0.004-1.603,0-3.208,0.004-4.813c0.002-1.604,0.11-3.21,0.112-4.816
					c0.003-1.606-0.154-3.212-0.152-4.819s0.098-3.214,0.099-4.821c0.002-1.607-0.104-3.215-0.103-4.822
					c0.001-1.608,0.111-3.215,0.112-4.822c0.001-1.608,0.168-3.215,0.17-4.821c0-1.608-0.322-3.215-0.321-4.82
					c0-1.608,0.021-3.214,0.021-4.817c-0.001-1.61,0.141-3.218,0.141-4.822c0-1.608,0.098-3.214,0.098-4.815
					c-0.001-1.609-0.14-3.214-0.141-4.815c0-2.177-0.016-2.177-0.016-4.354c0-2.179,0.001-2.179,0.007-4.357
					C488.698,99.358,488.765,99.358,488.765,97.179z M474.565,144.153c0,1.518,0.129,3.036,0.129,4.553s-0.266,3.035-0.267,4.553
					c0,1.518,0.246,3.035,0.245,4.553c-0.001,1.517-0.248,3.035-0.249,4.552c-0.002,1.518,0.322,3.036,0.319,4.553
					c-0.002,1.518-0.284,3.035-0.288,4.553c0,0.163,0.002,0.163,0.001,0.327c-0.01,1.915,0.067,3.893-0.249,5.777
					c-0.241,1.47-0.693,2.802-1.315,3.998c-0.671,1.291-1.487,2.453-2.531,3.367c-1.055,0.921-2.269,1.713-3.631,2.188
					c-1.277,0.446-2.712,0.569-4.198,0.568c-0.126,0-0.129,0.179-0.255,0.177c-1.515-0.026-2.919-0.486-4.205-0.967
					c-1.376-0.514-2.645-1.214-3.688-2.183c-1.031-0.959-1.803-2.181-2.438-3.521c-0.585-1.234-1.078-2.591-1.268-4.098
					c-0.161-1.224-0.318-2.474-0.397-3.738c-0.077-1.238,0.142-2.497,0.138-3.758c-0.002-1.533-0.188-3.066-0.188-4.602
					c-0.002-1.533-0.117-3.067-0.118-4.603c-0.001-1.533,0.028-3.066,0.027-4.601c-0.001-1.533,0.188-3.067,0.188-4.603
					c0-1.534,0.091-3.068,0.09-4.603c0-1.535-0.326-3.07-0.326-4.605c0.001-1.536,0.11-3.072,0.11-4.608
					c0.001-1.537-0.03-3.073-0.029-4.609s0.206-3.073,0.207-4.609c0.001-1.537-0.106-3.074-0.105-4.61
					c0.001-1.537-0.2-3.073-0.199-4.608c0.002-1.537,0.173-3.073,0.175-4.607c0.002-1.536,0.11-3.072,0.112-4.606
					c0.002-1.537-0.121-3.072-0.119-4.607c0.002-1.534-0.057-3.067-0.055-4.599c0.003-1.307,0.11-2.62,0.191-3.926
					c0.081-1.312,0.326-2.605,0.486-3.896c0.182-1.505,0.414-2.927,1.011-4.154c0.645-1.324,1.505-2.52,2.562-3.457
					c1.055-0.935,2.363-1.591,3.757-2.077c1.286-0.449,2.705-0.742,4.222-0.754c0.062,0,0.062,0.192,0.123,0.192
					c1.492,0,2.873,0.186,4.163,0.634c1.374,0.477,2.619,1.138,3.684,2.054c1.066,0.918,2.053,1.974,2.723,3.262
					c0.632,1.211,1.129,2.59,1.337,4.067c0.264,1.852-0.049,3.808-0.049,5.683c0,0.227,0.31,0.227,0.311,0.454
					c0.003,1.518-0.271,3.036-0.269,4.554c0.001,1.519,0.121,3.037,0.122,4.555c0,1.518-0.154,3.036-0.154,4.554
					s0.331,3.036,0.33,4.554s-0.247,3.036-0.248,4.554s0.162,3.036,0.161,4.554c-0.001,2.276-0.209,2.276-0.209,4.553
					c-0.001,2.276,0.275,2.276,0.274,4.553c0,2.278-0.112,2.278-0.118,4.556C474.59,141.875,474.565,141.875,474.565,144.153z"/>
			</g>
			<g>
				<path fill="#FFFFFF" d="M267.137,69.996c-0.865-0.051-1.786,0.059-2.911,0.059c-0.762,0-1.521-0.257-2.287-0.248
					c-0.757,0.013-1.51,0.266-2.27,0.266c-0.166,0.002-0.168-0.235-0.333-0.233c-0.675-0.001-1.36,0.312-2.041,0.302
					c-0.796-0.014-1.588-0.301-2.389-0.301c-1.169,0-2.136,0.024-3.042,0.074c-1.547,0.091-2.639,0.588-3.289,1.358
					c-0.645,0.74-0.911,1.84-0.798,3.321c0.187,2.5,0.777,4.343,1.629,5.668c0.796,1.24,1.414,2.489,1.769,3.743
					c0.39,1.376,0.442,2.776,0.474,4.109c0.033,1.427,0.087,2.834-0.079,4.139c-0.213,1.661-0.618,3.302-0.828,4.97
					c-0.211,1.666-0.348,3.343-0.556,5.011c-0.208,1.667-0.515,3.323-0.721,4.988c-0.207,1.67-0.316,3.351-0.521,5.015
					c-0.206,1.673-0.372,3.345-0.575,5.005c-0.206,1.675-0.666,3.311-0.87,4.969c-0.183,1.5-0.183,3.022-0.366,4.522
					s-0.252,3.014-0.436,4.514s-0.397,2.997-0.582,4.497c-0.185,1.5-0.559,2.976-0.746,4.476c-0.187,1.5-0.465,2.987-0.654,4.487
					c-0.19,1.508-0.061,3.062-0.26,4.575c-0.199,1.51-0.511,3.008-0.716,4.518c-0.206,1.515-0.384,3.032-0.594,4.541
					c-0.21,1.514-0.624,2.996-0.835,4.498c-0.213,1.517-0.319,3.042-0.531,4.541c-0.082,0.581,0.12,0.609,0.039,1.189
					c-0.175,1.261-0.69,2.454-1.159,3.487c-0.264,0.574-0.954,1.086-1.362,1.099c-0.389,0-1.163-0.541-1.306-0.995
					c-0.384-1.243-0.802-2.413-1.108-3.575c-0.324-1.228-0.527-2.45-0.705-3.674c-0.223-1.571-0.321-3.163-0.543-4.738
					c-0.221-1.571-0.62-3.119-0.84-4.694c-0.22-1.573-0.476-3.143-0.695-4.718s-0.343-3.164-0.561-4.739
					c-0.219-1.576-0.485-3.146-0.702-4.72c-0.218-1.577-0.245-3.178-0.461-4.752c-0.217-1.577-0.481-3.146-0.697-4.718
					c-0.217-1.58-0.48-3.15-0.696-4.724c-0.216-1.578-0.548-3.137-0.762-4.707c-0.216-1.579-0.482-3.146-0.696-4.715
					c-0.05-0.367,0.271-0.41,0.221-0.777c-0.24-1.752-0.786-3.463-1.021-5.217c-0.236-1.753-0.197-3.543-0.43-5.297
					c-0.232-1.754-0.582-3.492-0.812-5.246c-0.207-1.569-0.26-3.159-0.469-4.728c-0.208-1.569-0.747-3.095-0.959-4.666
					c-0.17-1.272-0.053-2.64-0.03-4.026c0.021-1.302,0.014-2.656,0.393-3.99c0.347-1.223,1.063-2.347,1.855-3.542
					c1.057-1.589,1.029-3.985,1.112-5.819c0.072-1.464-0.096-2.501-0.747-3.217c-0.647-0.712-1.638-1.033-3.048-1.076
					c-1.625-0.053-3.246-0.091-4.857-0.11c-1.629-0.02-3.248-0.014-4.854,0c-1.634,0.015-3.255-0.058-4.855-0.008
					c-1.559,0.046-2.693,0.672-3.428,1.593c-0.727,0.901-1.044,2.114-0.782,3.642c0.342,2.026,1.233,4.083,2.407,6.056
					c0.764,1.291,1.283,2.591,1.758,3.824c0.517,1.343,0.706,2.704,0.914,4.077c0.226,1.486,0.77,2.924,0.996,4.411
					s0.43,2.976,0.657,4.462c0.226,1.486,0.313,2.994,0.54,4.48c0.227,1.486,0.356,2.987,0.583,4.474
					c0.227,1.486,0.59,2.951,0.817,4.438c0.227,1.486,0.47,2.97,0.697,4.456c0.227,1.486,0.447,2.973,0.674,4.459
					c0.227,1.486,0.493,2.966,0.721,4.452c0.227,1.486,0.42,2.978,0.648,4.463s0.462,2.971,0.69,4.457
					c0.228,1.486,0.366,2.986,0.594,4.472s0.356,2.987,0.584,4.473c0.228,1.486,0.451,2.972,0.678,4.458
					c0.228,1.486,0.765,2.924,0.993,4.41c0.228,1.486,0.116,3.024,0.343,4.51c0.397,2.589,0.627,2.553,1.025,5.142
					c0.397,2.591,0.399,2.591,0.797,5.182c0.398,2.593,0.373,2.597,0.771,5.189c0.398,2.593,0.317,2.605,0.715,5.198
					c0.279,1.833,0.549,3.663,0.822,5.499c0.284,1.892,0.66,3.802,0.956,5.732c0.293,1.914,0.439,3.861,0.763,5.765
					c0.42,2.471,1.071,4.064,2.206,5.015c1.117,0.935,2.8,1.349,5.308,1.409c1.184,0.027,2.377,0.038,3.56,0.038
					c1.611-0.004,1.61-0.172,3.221-0.176c2.259-0.005,3.919-0.229,5.221-0.519c1.997-0.442,3.099-1.193,3.79-3.134
					c0.448-1.259,0.564-2.962,0.859-5.198c0.212-1.617,0.76-3.19,0.972-4.809c0.211-1.617,0.449-3.23,0.66-4.848
					c0.211-1.617,0.229-3.26,0.439-4.877c0.21-1.618,0.588-3.214,0.798-4.831c0.21-1.618,0.234-3.259,0.443-4.877
					s0.481-3.228,0.691-4.846c0.209-1.618,0.331-3.248,0.541-4.866c0.339-2.617,0.254-2.628,0.594-5.246
					c0.34-2.619,0.391-2.612,0.731-5.231c0.34-2.619,0.278-2.627,0.618-5.246c0.197-1.519,0.722-2.996,0.919-4.515
					c0.198-1.52,0.25-3.058,0.447-4.577s0.354-3.043,0.552-4.562s0.383-3.04,0.581-4.559c0.197-1.52,0.282-3.053,0.479-4.572
					s0.707-2.998,0.903-4.517c0.197-1.519,0.23-3.06,0.426-4.579c0.196-1.519,0.219-3.061,0.415-4.58s0.586-3.014,0.781-4.533
					c0.195-1.52,0.497-3.025,0.692-4.544c0.195-1.52,0.185-3.065,0.379-4.584c0.204-1.625,0.522-3.514,1.188-5.418
					c0.575-1.644,1.57-3.202,2.803-4.745c0.766-0.958,1.155-2.116,1.537-3.215c0.389-1.121,0.73-2.274,0.698-3.479
					c-0.044-1.47-0.383-2.595-1.035-3.327C269.693,70.431,268.594,70.075,267.137,69.996z"/>
			</g>
			<g>
				<path fill="#FFFFFF" d="M53.801,83.54c-0.438-1.444-1.126-2.717-1.729-3.953c-0.656-1.347-1.32-2.613-2.17-3.712
					c-0.899-1.163-1.836-2.272-2.949-3.157c-1.118-0.888-2.355-1.67-3.688-2.276c-1.268-0.576-2.651-1.064-4.111-1.383
					c-1.345-0.294-2.812-0.193-4.319-0.268c-1.632-0.082-3.269-0.336-4.909-0.393c-1.652-0.057-3.299-0.102-4.919-0.149
					c-1.456-0.039-2.909-0.187-4.361-0.239c-0.177-0.006-0.187,0.106-0.349,0.177c-0.077,0.034,0.059-0.034-0.025-0.031
					c-3.329,0.091-3.326,0.106-6.656,0.114c-1.729,0.004-3.455-0.014-5.183,0.012c-1.324,0.026-3.082,0.03-4.788,0.316
					c-2.574,0.43-3.521,1.781-3.599,4.549c-0.033,1.313,0.067,2.601,0.459,3.782c0.399,1.204,1.057,2.323,1.878,3.323
					c1.091,1.333,1.979,2.76,2.479,4.438c0.449,1.503,0.744,3.191,0.752,5.07c0.005,1.524-0.072,3.048-0.067,4.573
					c0.005,1.524,0.121,3.047,0.126,4.571c0.005,1.524-0.184,3.049-0.179,4.573c0.005,1.524,0.178,3.048,0.183,4.572
					c0.006,1.524-0.034,3.048-0.028,4.573c0.005,1.524-0.187,3.049-0.181,4.573c0.006,1.524,0.262,3.047,0.268,4.571
					c0.006,1.524-0.315,3.05-0.309,4.574s0.106,3.048,0.112,4.572c0.006,1.524,0.197,3.047,0.204,4.572
					c0.006,1.524-0.124,3.049-0.118,4.573c0.007,1.524,0.165,3.048,0.171,4.572c0.006,1.524-0.084,3.049-0.077,4.573
					c0.006,1.524,0.018,3.048,0.025,4.572c0.007,1.524-0.163,3.049-0.156,4.573c0.007,1.524,0.011,3.048,0.018,4.572
					c0.007,1.524,0.341,3.047,0.348,4.571s0.034,3.048,0.041,4.572c0.007,1.524-0.072,3.05-0.065,4.573
					c0.008,1.523-0.056,3.048-0.048,4.572c0.005,1.743-0.217,3.378-0.627,4.915c-0.428,1.604-1.036,3.145-1.929,4.567
					c-1.057,1.692-1.741,3.669-2.132,5.577c-0.322,1.635-0.276,2.989,0.496,3.996c0.752,1.001,1.986,1.362,3.573,1.399
					c1.28,0.036,2.573,0.217,3.877,0.231c1.29,0.014,2.586-0.109,3.881-0.116c1.291-0.003,2.597,0.146,3.908,0.121
					c1.3-0.023,2.604-0.073,3.907-0.114c1.599-0.056,2.609-0.62,3.288-1.468c0.66-0.839,0.944-1.929,0.688-3.506
					c-0.168-1.068-0.289-2.245-0.751-3.434c-0.392-1.007-0.97-2.04-1.582-3.156c-0.61-1.121-1.249-2.274-1.677-3.538
					c-0.406-1.196-0.541-2.475-0.547-3.85c-0.005-1.687-0.084-3.373-0.094-5.06c-0.009-1.687-0.013-3.373-0.021-5.062
					c-0.011-1.723,0.105-3.462,0.096-5.209c-0.009-1.729-0.351-3.464-0.357-5.206c-0.006-1.734,0.232-3.473,0.231-5.209
					c-0.001-1.74-0.224-3.479-0.219-5.209c0.008-2.359,0.4-4.06,1.364-5.077c0.968-1.021,2.653-1.388,5.008-1.502
					c0.933-0.045,1.88,0.071,2.825,0.031c1.263-0.047,2.55-0.071,3.834-0.144c1.278-0.072,2.546-0.345,3.81-0.482
					c1.615-0.179,3.086-0.594,4.492-1.023c1.537-0.468,3.075-0.8,4.359-1.564c1.342-0.799,2.578-1.788,3.64-2.907
					c1.038-1.094,1.745-2.494,2.513-3.891c0.711-1.292,1.51-2.632,1.987-4.183c0.603-1.946,0.857-3.888,1.201-5.704
					c0.383-2.019,0.738-3.93,0.798-5.757c0.056-1.669-0.106-3.36-0.077-5.068c0.029-1.668,0.119-3.353,0.123-5.066
					c0.004-1.666,0.239-3.355,0.22-5.071c-0.019-1.663-0.059-3.354-0.101-5.072c-0.04-1.663-0.361-3.344-0.423-5.063
					c-0.06-1.771,0.046-3.625-0.283-5.48C54.876,87.111,54.348,85.34,53.801,83.54z M19.87,102.016
					c-0.009-1.349-0.201-2.712-0.209-4.085c-0.008-1.358,0.084-2.725,0.083-4.091s0.114-2.731,0.126-4.089
					c0.023-2.51,0.41-4.109,1.391-5.192c1.017-1.123,2.57-1.523,5.073-1.601c0.69-0.018,1.38-0.32,2.069-0.326
					c1.192-0.003,2.27,0.211,3.306,0.274c1.44,0.086,2.702,0.39,3.825,0.928c1.202,0.576,2.116,1.458,2.945,2.548
					c0.744,0.977,1.489,2.054,1.925,3.439c0.642,2.029,0.797,4.145,0.84,6.104c0.031,1.505,0.156,2.975,0.177,4.419
					c0.022,1.505,0.006,2.979,0.018,4.424c0.011,1.505-0.037,2.978-0.038,4.423c0,1.502,0.166,2.975,0.152,4.42
					c-0.014,1.5-0.121,2.97-0.148,4.417c-0.032,1.96-0.431,4.157-1.2,6.363c-0.667,1.892-1.616,3.455-2.975,4.513
					c-1.368,1.065-3.104,1.777-5.096,1.932c-1.101,0.081-2.283,0.046-3.572,0.05c-0.717,0.005-1.436,0.105-2.141,0.092
					c-2.436-0.059-4.028-0.686-5.039-1.733c-0.998-1.032-1.573-2.64-1.621-5.078c-0.023-1.323,0.006-2.655-0.005-3.986
					s0.181-2.662,0.178-3.985c-0.003-1.338-0.254-2.668-0.254-3.983c-0.008-1.756,0.327-3.507,0.316-5.255
					C19.994,105.314,19.882,103.665,19.87,102.016z"/>
			</g>
			<g>
				<path fill="#FFFFFF" d="M371.221,137.236c-1.017-1.077-2.127-2.074-3.214-3.074c-1.097-1.009-2.208-1.999-3.337-2.936
					c-1.156-0.959-2.318-1.888-3.466-2.779c-1.199-0.932-2.389-1.822-3.531-2.688c-1.424-1.081-2.984-1.979-4.339-3.087
					c-1.403-1.149-2.548-2.556-3.849-3.68c-1.402-1.212-2.948-2.152-4.196-3.268c-1.124-1.002-1.988-2.229-2.584-3.502
					c-0.604-1.288-0.812-2.743-0.84-4.235c-0.038-1.886-0.265-3.67-0.279-5.376c-0.017-1.88,0.08-3.666,0.091-5.381
					c0.012-1.859-0.032-3.643,0.011-5.378c0.04-1.619,0.728-3.028,1.563-4.305c0.791-1.208,1.937-2.141,3.396-2.975
					c1.772-1.021,3.517-1.59,5.368-1.734c1.859-0.145,3.729-0.005,5.629,0.736c1.755,0.685,3.146,1.636,4.129,2.897
					c0.998,1.279,1.396,2.881,1.592,4.737c0.109,1.163,0.38,2.329,0.462,3.479c0.068,1.004,0.093,2.011,0.183,3.009
					c0.18,1.865,0.576,3.573,1.371,4.896c0.897,1.493,2.386,2.379,3.953,3.075c1.418,0.628,3.018,0.942,4.891,0.829
					c1.463-0.088,2.461-0.424,3.196-1.081c0.777-0.694,1.214-1.647,1.304-3.09c0.094-1.503,0.367-3.028,0.394-4.576
					c0.025-1.514-0.169-3.045-0.263-4.585c-0.093-1.512-0.125-3.053-0.386-4.575c-0.254-1.488-0.891-2.901-1.354-4.384
					c-0.427-1.373-0.806-2.698-1.428-3.896c-0.653-1.26-1.495-2.346-2.36-3.409c-0.877-1.078-1.641-2.284-2.733-3.158
					c-1.065-0.852-2.393-1.368-3.659-2.021c-1.381-0.712-2.675-1.56-4.085-2.055c-1.454-0.51-2.986-0.688-4.469-0.968
					c-1.498-0.283-2.997-0.497-4.521-0.544c-1.508-0.047-3.025,0.001-4.555,0.184c-1.484,0.178-2.949,0.57-4.451,0.964
					c-1.438,0.377-2.911,0.743-4.362,1.319c-1.341,0.534-2.647,1.141-3.808,1.972c-1.144,0.819-2.007,1.976-2.969,3.078
					c-0.909,1.04-1.805,2.125-2.546,3.412c-0.73,1.266-1.474,2.496-1.977,3.81c-0.518,1.352-0.877,2.746-1.152,4.14
					c-0.278,1.404-0.595,2.827-0.628,4.265c-0.045,2.006-0.027,4.055-0.027,6.026c0.004,1.326,0.071,2.674,0.06,4.027
					c-0.011,1.346,0.143,2.698,0.086,4.031c-0.068,1.583-0.267,3.137-0.104,4.632c0.17,1.557,0.49,3.09,0.911,4.555
					c0.427,1.479,1.013,2.928,1.698,4.319c0.669,1.358,1.481,2.689,2.401,3.967c0.873,1.215,1.854,2.425,2.955,3.572
					c1.031,1.074,2.194,2.106,3.427,3.124c1.008,0.833,2.023,1.688,3.08,2.466c1.065,0.786,2.205,1.464,3.261,2.215
					c1.445,1.023,3.089,1.882,4.515,2.977c0.522,0.398,0.312,0.675,0.835,1.072c1.386,1.052,2.854,2.038,4.239,3.144
					c1.378,1.1,2.65,2.315,3.937,3.502c1.104,1.025,2.146,2.019,2.976,3.177c0.861,1.201,1.735,2.391,2.301,3.731
					c0.562,1.331,1.022,2.748,1.288,4.211c0.254,1.396,0.215,2.879,0.198,4.391c-0.012,1.658-0.163,3.315-0.159,4.969
					c0,1.127,0.264,1.127,0.263,2.254c0,0.866-0.203,1.73-0.197,2.596c0.016,1.852,0.23,3.77,0.176,5.644
					c-0.049,1.642-0.455,3.162-0.967,4.54c-0.556,1.499-1.286,2.898-2.321,4.012c-1.04,1.12-2.331,2.062-3.782,2.716
					c-1.343,0.604-2.89,0.942-4.525,1.084c-1.748,0.153-3.421-0.022-4.928-0.471c-1.626-0.483-3.005-1.416-4.234-2.49
					c-1.225-1.07-2.149-2.396-2.86-3.941c-0.658-1.43-1.254-2.975-1.373-4.72c-0.066-0.89-0.082-1.808-0.09-2.69
					c-0.008-0.707,0.213-1.419,0.178-2.121c-0.086-1.866-0.618-3.408-1.213-4.672c-0.725-1.538-1.762-2.766-3.28-3.451
					c-1.278-0.577-2.9-0.865-4.771-0.865c-1.89,0-3.21,0.353-4.042,1.068c-0.871,0.75-1.036,2.039-1.129,3.92
					c-0.084,1.838-0.433,3.715-0.4,5.673c0.029,1.82,0.356,3.696,0.491,5.669c0.107,1.603,0.272,3.168,0.681,4.669
					c0.419,1.538,0.898,3.061,1.605,4.458c0.716,1.412,1.647,2.709,2.631,3.94c0.981,1.23,2.053,2.412,3.271,3.426
					c1.202,1,2.523,1.902,3.929,2.657c1.37,0.734,2.85,1.34,4.385,1.809c1.592,0.483,3.249,0.881,4.944,1.121
					c1.645,0.232,3.346,0.062,5.06,0.062c1.689,0,3.431-0.079,5.226-0.297c1.558-0.195,3.112-0.223,4.546-0.633
					c1.498-0.429,2.806-1.271,4.159-1.931c1.383-0.675,2.771-1.302,3.992-2.215c1.234-0.922,2.414-1.871,3.411-2.966
					c1.02-1.119,1.819-2.404,2.59-3.7c0.759-1.277,1.441-2.615,1.957-4.062c0.491-1.379,0.921-2.829,1.189-4.359
					c0.251-1.433,0.174-2.947,0.229-4.51c0.055-1.533,0.229-3.075,0.237-4.616c0.009-1.554-0.042-3.101-0.049-4.623
					c-0.01-1.194,0.227-2.408,0.23-3.625c0.003-1.209-0.019-2.419,0.005-3.623c0.033-1.726-0.058-3.431-0.284-5.069
					c-0.231-1.686-0.688-3.327-1.198-4.927c-0.508-1.594-1.201-3.136-1.986-4.653c-0.758-1.463-1.681-2.872-2.7-4.27
					C373.383,139.903,372.418,138.504,371.221,137.236z"/>
			</g>
			<g>
				<path fill="#FFFFFF" d="M629.662,166.874c0.013-1.24,0.353-2.477,0.369-3.717c0.018-1.24-0.26-2.486-0.227-3.726
					c0.038-1.475,0.299-2.946,0.113-4.377c-0.186-1.442-0.729-2.822-1.144-4.227c-0.406-1.375-0.691-2.83-1.318-4.175
					c-0.599-1.286-1.628-2.379-2.431-3.644c-0.756-1.191-1.449-2.469-2.387-3.648c-0.936-1.173-1.824-2.383-2.86-3.445
					c-1.045-1.07-2.134-2.104-3.247-3.089c-1.119-0.991-2.415-1.772-3.568-2.705c-1.166-0.943-2.314-1.896-3.479-2.808
					c-0.766-0.602-0.735-0.641-1.5-1.244c-1.35-1.068-2.801-2.076-4.204-3.252c-1.303-1.092-2.441-2.471-3.831-3.695
					c-1.269-1.118-2.77-2.088-4.143-3.346c-1.156-1.057-1.999-2.337-2.609-3.663c-0.62-1.348-1.102-2.824-1.114-4.37
					c-0.015-1.838,0.083-3.63,0.095-5.384c0.012-1.828,0.283-3.612,0.325-5.371c0.042-1.817-0.201-3.613-0.126-5.381
					c0.069-1.614,0.551-3.156,1.414-4.417c0.814-1.189,2.064-2.183,3.538-2.993c1.74-0.953,3.573-1.231,5.378-1.356
					c1.814-0.126,3.629,0,5.471,0.713c1.774,0.686,3.072,1.695,4.073,2.904c1.053,1.273,1.585,2.768,1.771,4.602
					c0.125,1.229,0.324,2.468,0.385,3.687c0.053,1.147,0.339,2.311,0.442,3.475c0.159,1.722,0.54,3.188,1.278,4.438
					c0.816,1.382,1.929,2.401,3.364,3.116c1.298,0.647,2.775,1.271,4.507,1.298l0.002-0.101c1.824,0.02,3.106-0.398,3.963-1.162
					c0.893-0.796,1.132-2.043,1.163-3.854c0.024-1.555,0.142-3.125,0.14-4.706c-0.001-1.563,0.25-3.146,0.167-4.717
					c-0.083-1.566-0.544-3.101-0.763-4.657c-0.201-1.454-0.36-2.855-0.775-4.16c-0.439-1.382-0.919-2.726-1.597-3.938
					c-0.693-1.241-1.623-2.322-2.564-3.383c-0.924-1.041-1.835-2.16-2.995-3.024c-1.1-0.819-2.438-1.362-3.748-2.02
					c-1.34-0.672-2.697-1.247-4.097-1.704c-1.41-0.46-2.82-0.943-4.29-1.185c-1.446-0.237-2.938-0.144-4.443-0.169
					c-1.453-0.024-2.922-0.005-4.43,0.168c-1.436,0.166-2.871,0.482-4.356,0.828c-1.547,0.36-3.003,0.75-4.349,1.35
					c-1.428,0.636-2.863,1.226-4.062,2.129c-1.217,0.917-2.287,2.044-3.265,3.235c-0.944,1.149-1.862,2.402-2.582,3.803
					c-0.67,1.305-0.993,2.828-1.466,4.349c-0.373,1.206-0.85,2.448-1.073,3.836c-0.2,1.236-0.086,2.577-0.168,3.989
					c-0.076,1.308-0.181,2.621-0.209,3.938c-0.028,1.327-0.054,2.646-0.068,3.946c-0.023,1.919,0.029,3.913-0.041,5.861
					c-0.062,1.619-0.308,3.201-0.125,4.728c0.19,1.591,0.482,3.166,0.936,4.654c0.461,1.511,1.305,2.873,2.035,4.273
					c0.719,1.379,1.398,2.814,2.377,4.083c0.939,1.217,1.954,2.453,3.131,3.566c1.207,1.141,2.558,2.153,3.854,3.201
					c1.305,1.055,2.725,1.958,4.029,2.96c1.383,1.061,2.764,2.243,4.129,3.357c0.918,0.746,1.878,1.438,2.792,2.172
					c1.381,1.099,2.73,2.281,4.105,3.435c1.369,1.15,2.857,2.182,4.121,3.426c1.325,1.3,2.223,2.881,3.087,4.418
					c0.876,1.558,1.427,3.223,1.825,5.013c0.375,1.688,0.814,3.438,0.763,5.324c-0.041,1.658-0.176,3.318-0.195,4.984
					c-0.013,0.936-0.125,0.933-0.142,1.868c0,0.001,0.169,0.002,0.169,0.003c-0.025,1.486-0.005,1.486-0.026,2.973
					c-0.023,1.992-0.07,3.984-0.111,5.978c-0.034,1.723-0.543,3.171-1.049,4.487c-0.594,1.544-1.344,2.847-2.403,3.883
					c-1.125,1.098-2.372,2.081-3.793,2.67c-1.449,0.6-3.039,0.842-4.549,0.98c-0.506,0.043-0.995,0.19-1.483,0.185
					c-1.612-0.025-3.121-0.474-4.48-1.043c-1.434-0.6-2.568-1.613-3.627-2.722c-1.033-1.083-2.091-2.221-2.675-3.695
					c-0.539-1.358-0.602-2.91-0.685-4.526c-0.045-0.883-0.035-1.775-0.035-2.649c0-0.716-0.145-1.435-0.168-2.146
					c-0.06-1.953-0.516-3.558-1.17-4.878c-0.785-1.583-1.956-2.671-3.586-3.333c-1.366-0.555-2.994-0.738-4.947-0.637
					c-1.592,0.079-2.777,0.222-3.509,0.91c-0.759,0.713-1.184,1.875-1.244,3.458c-0.028,0.749-0.038,0.748-0.067,1.497
					c-0.079,1.854,0.145,3.748,0.141,5.636c-0.003,1.883-0.258,3.786-0.047,5.64c0.17,1.491,0.581,2.899,0.945,4.246
					c0.389,1.438,1.012,2.74,1.621,4.012c0.633,1.322,1.332,2.569,2.202,3.709c0.872,1.142,1.759,2.296,2.867,3.253
					c1.067,0.922,2.279,1.735,3.564,2.484c1.206,0.702,2.486,1.412,3.883,1.96c1.73,0.681,3.627,0.891,5.502,1.243
					c1.813,0.342,3.658,0.517,5.578,0.545c1.758,0.027,3.613,0.257,5.492,0.03c1.592-0.194,3.058-0.769,4.497-1.155
					c1.543-0.414,3.06-0.748,4.42-1.375c1.438-0.661,2.852-1.354,4.077-2.241c1.264-0.916,2.252-2.142,3.279-3.287
					c1.023-1.141,2.029-2.316,2.81-3.674c0.752-1.309,1.44-2.709,1.957-4.209c0.486-1.414,0.945-2.915,1.215-4.49
					c0.251-1.47,0.158-3.039,0.214-4.642c0.053-1.559,0.328-3.126,0.355-4.692C629.976,169.997,629.645,168.419,629.662,166.874z"/>
			</g>
			<g>
				<path fill="#FFFFFF" d="M305.169,178.781c0.003-1.547,0.062-3.089,0.064-4.624c0.003-1.547,0.046-3.088,0.049-4.623
					c0.003-1.546-0.039-3.087-0.036-4.622c0.002-1.545-0.184-3.085-0.182-4.62c0.002-1.545,0.082-3.085,0.083-4.62
					c0.002-1.545,0.106-3.085,0.107-4.621c0.001-1.545-0.088-3.085-0.086-4.621c0.001-1.545-0.074-3.085-0.073-4.621
					c0.001-1.546,0.005-3.088,0.006-4.625c0-1.545,0.152-3.085,0.152-4.622c0-1.544-0.186-3.084-0.186-4.62
					c0-1.543,0.098-3.083,0.097-4.618c0-1.543-0.004-3.083-0.004-4.619c-0.001-1.545-0.158-3.085-0.159-4.623
					c-0.001-1.543,0.117-3.083,0.116-4.62c-0.001-1.542,0.155-3.08,0.153-4.616c-0.001-1.543-0.3-3.083-0.302-4.62
					c-0.002-1.543,0.176-3.083,0.173-4.621c-0.002-1.538,0.12-3.074,0.117-4.607c-0.003-1.833,0.018-3.513,0.447-5.076
					c0.451-1.645,1.309-3.078,2.281-4.545c1.017-1.553,1.621-3.623,1.888-5.531c0.229-1.591,0.042-2.786-0.637-3.604
					c-0.693-0.846-1.902-1.367-3.631-1.452c-0.851-0.045-1.767,0.016-2.874,0.012c-0.759,0-1.526,0.202-2.293,0.214
					c-0.647,0.009-1.293-0.043-1.944-0.042c-0.013,0,0.017-0.065,0.004-0.065c-1.862-0.012-1.862-0.141-3.724-0.141
					s-1.862,0.05-3.725,0.05c-0.241,0-0.493-0.119-0.723-0.097c-1.804,0.153-3.098,0.859-3.839,1.856
					c-0.699,0.955-0.962,2.312-0.604,3.946c0.279,1.284,0.886,3.181,2.024,4.801c1.036,1.466,2.034,2.93,2.509,4.665
					c0.436,1.592,0.391,3.372,0.389,5.296c-0.001,1.534-0.068,3.069-0.069,4.603c-0.001,1.534,0.11,3.068,0.109,4.603
					c-0.001,1.534,0.039,3.068,0.039,4.603c-0.001,1.535-0.062,3.069-0.063,4.603c-0.001,1.534-0.063,3.068-0.064,4.603
					c0,1.534,0.13,3.068,0.13,4.603s0.171,3.068,0.171,4.603s-0.072,3.068-0.072,4.603c0,1.534,0.025,3.068,0.024,4.602
					s-0.116,3.068-0.116,4.603c0,1.534-0.063,3.068-0.063,4.602c0,1.534-0.12,3.068-0.12,4.602c0,1.534,0.239,3.068,0.239,4.602
					c0,1.534-0.258,3.068-0.258,4.602c0,1.534,0,3.068-0.001,4.602c0,1.534,0.12,3.068,0.119,4.602c0,1.534,0.188,3.068,0.188,4.602
					c0,1.534-0.297,3.067-0.297,4.602c0,1.534,0.137,3.067,0.137,4.602c-0.002,1.86-0.204,3.532-0.633,5.073
					c-0.466,1.673-1.277,3.121-2.282,4.544c-1.048,1.481-1.581,3.608-1.938,5.838c-0.231,1.455,0.008,2.568,0.722,3.439
					c0.72,0.862,1.743,1.551,3.198,1.592c1.267,0.037,2.559-0.194,3.857-0.176c1.276,0.019,2.561,0.281,3.851,0.281
					c1.398,0,2.824-0.217,4.268-0.237c1.411-0.021,2.842,0.151,4.272,0.11c2.486-0.064,3.7-1.421,3.843-4.181
					c0.057-1.187-0.073-2.375-0.451-3.498c-0.357-1.063-0.973-2.081-1.719-3.077c-1.021-1.363-1.797-2.831-2.238-4.568
					C305.209,182.381,305.165,180.7,305.169,178.781z"/>
			</g>
			<g>
				<path fill="#FFFFFF" d="M420.405,75.908c0.225-1.6-0.019-2.903-0.69-3.712c-0.693-0.843-1.995-1.27-3.724-1.367
					c-0.861-0.038-1.782-0.074-2.882-0.074c-0.764,0-1.537-0.016-2.299-0.007c-0.76,0.013-1.519,0.327-2.278,0.324
					c-0.17,0.003-0.171-0.028-0.341-0.025c-0.713-0.008-1.426-0.296-2.135-0.305c-0.828-0.013-1.654,0.155-2.484,0.155
					c-1.221,0-2.241-0.125-3.183-0.072c-1.488,0.089-2.776,0.628-3.509,1.534c-0.674,0.861-0.978,2.165-0.759,3.532
					c0.336,2.017,1.259,3.918,2.251,5.415c0.998,1.496,1.732,3.086,2.214,4.791c0.459,1.631,0.634,3.37,0.634,5.238
					c-0.002,1.529,0.078,3.062,0.076,4.6c-0.002,1.529,0.149,3.063,0.147,4.601c-0.002,1.529-0.384,3.062-0.386,4.601
					c-0.002,1.529,0.088,3.062,0.087,4.601c-0.002,1.528,0.27,3.062,0.268,4.6c-0.001,1.528-0.024,3.062-0.025,4.6
					c-0.001,1.528-0.215,3.061-0.216,4.6c-0.001,1.528,0.048,3.061,0.047,4.6c-0.001,1.527,0.136,3.059,0.136,4.597
					c-0.001,1.527,0.007,3.06,0.006,4.599c0,1.528-0.146,3.062-0.147,4.601c0,1.528-0.173,3.062-0.173,4.603
					c-0.001,1.527,0.165,3.061,0.165,4.601c0,1.527,0.184,3.061,0.184,4.601c0,1.527-0.189,3.06-0.189,4.6
					c0.001,1.528-0.08,3.063-0.08,4.605c0.001,1.527,0.066,3.062,0.067,4.603c0,1.528-0.102,3.064-0.101,4.606
					c0,1.528,0.128,3.064,0.129,4.606c0,1.835-0.293,3.479-0.737,5.039c-0.467,1.64-1.044,3.217-2.036,4.673
					c-1.094,1.605-1.747,3.756-2.048,6.078c-0.168,1.312,0.059,2.319,0.754,3.143c0.732,0.848,1.742,1.441,3.143,1.484
					c1.302,0.032,2.612-0.137,3.92-0.12c1.31,0.018,2.616,0.167,3.915,0.167c1.396,0,2.802,0.088,4.202,0.069
					c1.406-0.019,2.809-0.129,4.2-0.165c1.326-0.042,2.303-0.426,2.939-1.153c0.631-0.711,0.936-1.72,0.812-2.984
					c-0.182-1.782-0.631-4.345-1.871-6.218c-1.024-1.541-1.77-3.137-2.243-4.918c-0.44-1.652-0.796-3.417-0.791-5.385
					c0.004-1.531,0.243-3.061,0.247-4.589c0.003-1.531-0.325-3.062-0.322-4.59c0.003-1.531,0.124-3.06,0.127-4.588
					c0.003-1.531-0.081-3.061-0.079-4.588c0.003-1.531,0.251-3.06,0.253-4.587c0.002-1.531-0.068-3.06-0.066-4.586
					c0.002-1.531-0.02-3.059-0.018-4.586c0.001-1.53-0.112-3.059-0.111-4.584c0.001-1.53,0.151-3.058,0.152-4.584
					c0.001-1.53-0.055-3.057-0.055-4.583c0.002-1.53-0.162-3.057-0.162-4.582c0-1.53,0.092-3.057,0.092-4.581
					c-0.001-1.532-0.014-3.061-0.015-4.587c-0.001-1.531,0.232-3.059,0.231-4.584c-0.001-1.53-0.3-3.057-0.301-4.581
					c-0.002-1.529-0.013-3.055-0.015-4.578c-0.002-1.531,0.124-3.059,0.122-4.583c-0.003-1.528-0.132-3.053-0.135-4.575
					c-0.003-1.529,0.337-3.055,0.334-4.576c-0.004-1.951-0.018-3.677,0.389-5.248c0.451-1.743,1.317-3.209,2.327-4.696
					C419.378,79.952,420.116,77.954,420.405,75.908z"/>
			</g>
		</g>
	</g>
	<path fill-rule="evenodd" clip-rule="evenodd" fill="#FFFFFF" d="M243.815,234.869c-0.096-1.287-0.223-1.686-0.499-2.477
		c-2.035-0.406-7.545-0.318-9.416-1.477c-3.583-1.318-4.348-9.088-5.951-12.384h-1.495c-1.566,2.576-3.906,12.066-5.942,13.364
		c-2.143,1.365-7.278-0.325-9.419,0.998h-0.992c0.697,5.111,6.982,4.647,8.424,9.398c0.608,1.346-1.26,6.946-2.471,8.418v2.472
		c0.488,0.168,0.985,0.332,1.485,0.489c2.268-2.317,5.896-3.385,7.917-5.929c1.222-0.74,0.568-0.345,0.506-2.483h0.492v-0.492
		c1.026,0.198,0.968,0.123,1.495,0.492c0.432,0.858,0.432,0.641,0,1.492c1.274,3.41,5.799,4.291,7.934,6.92
		c1.151-0.36,1.105-0.51,1.976-0.981c-0.552-3.963-2.189-6.772-2.966-10.397C237.648,239.428,240.221,236.929,243.815,234.869z
		 M222.987,239.327h-1.491v-0.991c0.503,0.165,0.999,0.334,1.491,0.498V239.327z"/>
	<path fill-rule="evenodd" clip-rule="evenodd" fill="#FFFFFF" d="M521.664,233.144c-0.422,0.661-0.514,0.898-0.666,1.382
		c0.834,0.942,3.537,2.926,4.012,4.169c1.25,1.956-1.234,5.996-1.676,8.183l0.717,0.549c1.715-0.674,6.34-4.41,7.799-4.293
		c1.543,0.123,3.406,2.832,4.932,2.974l0.477,0.368c1.545-2.729-1.66-4.812-0.621-7.641c0.209-0.874,3.172-2.901,4.299-3.173
		l0.908-1.198c-0.172-0.258-0.354-0.519-0.531-0.775c-1.951,0.29-4.102-0.53-6.018-0.039c-0.861-0.088-0.4-0.039-1.16,1.02
		l-0.232-0.183l-0.188,0.241c-0.42-0.475-0.426-0.417-0.541-0.789c0.1-0.576,0.025-0.473,0.547-0.723
		c0.645-2.119-1.229-4.202-1.289-6.259c-0.688-0.251-0.721-0.16-1.326-0.253c-1.186,2.121-1.422,4.083-2.389,6.119
		C526.336,233.203,524.168,233.465,521.664,233.144z M533.393,238.63l0.713,0.548l-0.352,0.483c-0.189-0.267-0.373-0.53-0.547-0.792
		L533.393,238.63z"/>
	<path fill-rule="evenodd" clip-rule="evenodd" fill="#FFFFFF" d="M411.898,253.198c1.178-0.374,1.137-0.532,2.043-1.03
		c-0.518-3.737-1.023-7.476-1.535-11.221c2.787-2.611,5.953-5.566,9.193-7.65c-0.16-0.853-0.338-1.707-0.51-2.553
		c-4.211-0.793-10.264-0.354-13.281-2.045c-1.639-3.996-2.621-8.393-4.596-11.737h-1.551c-2.303,4.136-3.793,9.515-6.133,13.269
		c-4.332-0.066-10.006-0.446-12.781,1.02c0.689,3.619,6.951,7.469,9.723,9.187c-0.055,4.22-1.082,9.196-3.078,11.731
		c0.191,2.112-0.117,1.922,1.537,2.563c0.525,0.408,0.115,0.187,1.023,0.51c2.744-2.903,6.812-4.409,9.709-7.148
		C405.049,248.641,409.449,251.25,411.898,253.198"/>
	<path fill-rule="evenodd" clip-rule="evenodd" fill="#FFFFFF" d="M121.745,236.388c-0.039-0.616-0.123-0.616-0.264-1.111
		c-1.879-0.18-3.762-0.367-5.639-0.556c-0.95-1.66-2.018-3.533-2.656-5.351c-0.436-0.018-0.875-0.033-1.31-0.048
		c-0.872,1.952-1.358,4.939-2.528,6.211c-2.143,0.325-4.395,0.294-6.254,0.866l-0.177,0.751c1.744,1.596,4.194,2.947,5.748,4.518
		c-0.536,2.091-1.378,4.797-0.985,6.318c1.842,0.083,4.441-2.509,5.599-3.653c2.042,0.514,4.354,1.589,5.352,2.853
		c1.054,0.152,0.924,0.279,1.424-0.448c0.258-0.205,0.105-0.034,0.369-0.438c-1.088-1.664-1.356-3.812-2.35-5.539
		C118.728,239.184,120.512,237.353,121.745,236.388"/>
	<path fill-rule="evenodd" clip-rule="evenodd" fill="#FFFFFF" d="M475.994,249.414c-0.742-2.236-1.441-6.031-0.947-8.567
		c2.713-1.332,4.84-3.823,7.623-4.996c0.008-0.727,0.049-0.377-0.098-0.854c-0.018-1.335,0.033-1.074-1.416-1.759
		c-2.324,0.743-6.125,0.171-9.125-0.906c-0.498-2.402-1.592-7.83-3.979-9.273c-1.764,1.591-2.971,5.696-4.061,8.771
		c-3.281,0.671-7.488,0.317-11.025,0.864l-0.402,1.094c1.855,2.271,4.715,4.122,7.125,6.32c0.404,2.577-1.496,6.746-2.037,9.929
		c0.562,0.351,1.111,0.694,1.676,1.031c2.332-1.747,5.25-3.211,7.848-4.504c2.516,1.354,5.039,2.694,7.551,4.034
		C475.32,250.083,475.412,250.156,475.994,249.414"/>
	<path fill-rule="evenodd" clip-rule="evenodd" fill="#FFFFFF" d="M169.748,246.228c0.714-0.277,0.691-0.37,1.238-0.71
		c-0.444-2.304-0.891-4.604-1.336-6.91c1.646-1.721,3.506-3.665,5.448-5.063c-0.135-0.521-0.27-1.05-0.406-1.571
		c-2.636-0.345-6.385,0.134-8.315-0.815c-1.149-2.421-1.917-5.113-3.253-7.131l-0.957,0.052c-1.296,2.648-2.037,6.039-3.362,8.446
		c-2.692,0.108-6.22,0.065-7.899,1.069c0.563,2.224,4.575,4.402,6.349,5.372c0.11,2.613-0.351,5.745-1.51,7.391
		c0.188,1.301-0.006,1.191,1.04,1.541c0.34,0.231,0.081,0.11,0.657,0.277c1.6-1.898,4.081-2.964,5.787-4.769
		C165.346,243.632,168.174,245.105,169.748,246.228"/>
</g>
</svg>
